<svg width="800" height="400" viewBox="0 0 800 400" fill="none" xmlns="http://www.w3.org/2000/svg">
<path d="M491.25 232.12C486.97 232.06 482.331 231.983 477.331 231.89C474.781 231.89 471.111 231.83 466.411 231.89H465.721L416.021 268.17C423.161 268.67 430.38 268.83 437.5 268.63L443.4 268.49C457.23 268.17 472.92 267.82 477 264.08C478.66 262.56 479.401 261.33 479.181 260.44C478.831 258.94 475.841 258.1 472.951 257.29C469.781 256.4 466.781 255.56 465.951 253.68C465.782 253.275 465.708 252.837 465.732 252.399C465.756 251.961 465.878 251.534 466.09 251.15C468.39 246.3 480.69 244.57 491.44 244.57C508.39 244.57 527.861 243.68 527.931 236.7C527.981 232.67 514.17 232.46 491.25 232.12Z" fill="#5A51E7"/>
<path d="M389.86 233.29C382.21 233.49 371.44 233.45 360.18 233.29C360.086 233.361 359.968 233.393 359.85 233.38C359.624 233.367 359.399 233.33 359.18 233.27H358.83L358.97 233.22C358.595 233.105 358.233 232.951 357.89 232.76C357.605 232.607 357.33 232.433 357.07 232.24C356.012 231.446 355.15 230.42 354.55 229.24C354.46 229.05 354.37 228.85 354.29 228.65C354.2 228.458 354.12 228.261 354.05 228.06C354.017 227.992 353.991 227.922 353.97 227.85C353.216 225.956 351.873 224.354 350.14 223.28C350.01 223.18 349.87 223.09 349.73 223L349.32 222.74C348.099 222.002 346.779 221.443 345.4 221.08C343.878 220.72 342.313 220.568 340.75 220.63H340.25H339.75C338.25 220.72 336.75 220.91 335.36 221.11L334.95 221.17C335.355 222.191 336.012 223.092 336.86 223.79C337.156 224.036 337.471 224.26 337.8 224.46C338.363 224.792 338.944 225.092 339.54 225.36L339.75 225.46C339.816 225.492 339.88 225.528 339.94 225.57L340.25 225.81L340.75 226.19C341.07 226.44 341.37 226.67 341.66 226.91C341.95 227.15 342.16 227.32 342.39 227.53C342.58 227.693 342.76 227.867 342.93 228.05C343.956 229.134 344.671 230.474 345 231.93C345 231.93 345 231.93 345 231.99C345 232.17 345.08 232.33 345.11 232.5C345.14 232.67 345.18 232.83 345.21 233C345.28 233.33 345.33 233.65 345.37 234C345.41 234.35 345.46 234.72 345.49 235.05C345.535 235.537 345.605 236.021 345.7 236.5C345.734 236.667 345.78 236.831 345.84 236.99C345.904 237.149 345.992 237.297 346.1 237.43C346.135 237.487 346.175 237.541 346.22 237.59C346.291 237.647 346.343 237.724 346.37 237.81C346.37 237.81 346.37 237.81 346.37 237.87C346.37 237.93 346.37 237.93 346.37 237.96C346.55 239.26 346.51 240.53 345.89 241.18C345.61 241.48 345.08 241.55 332.94 241.65C327.06 241.65 319.77 241.76 318.78 241.97C317.88 242.84 316.73 243.86 315.39 244.97C315.112 245.302 314.909 245.69 314.795 246.108C314.681 246.525 314.659 246.963 314.73 247.39C315.08 248.39 316.73 248.92 319.46 248.97C334.9 249.24 338.98 249.18 344.62 249.08C348 249.08 351.82 248.97 358.94 248.97C373.12 248.97 376.94 253.47 380.62 257.83C383.14 260.83 385.52 263.63 391.29 264.83C392.8 265.14 394.34 265.44 396 265.73L396.47 265.81C409.28 256.25 427.06 243.01 441.79 232.19C420.25 232.53 397.03 233.1 389.86 233.29Z" fill="#5A51E7"/>
<path d="M442.59 232.15H441.88C427.15 242.97 409.371 256.21 396.561 265.77C402.561 266.82 408.92 267.6 415.46 268.08H416.061L465.76 231.8C459.61 231.9 451.83 232 442.59 232.15Z" fill="white"/>
<path d="M491.3 231.12C487.027 231.06 482.39 230.983 477.39 230.89C474.83 230.89 471.15 230.83 466.39 230.89C460.15 230.89 452.11 231.02 442.52 231.18C420.63 231.55 397.03 232.13 389.78 232.32C381.94 232.53 370.78 232.48 359.21 232.32C358.27 231.98 357.417 231.437 356.71 230.73C356.003 230.023 355.461 229.17 355.12 228.23C360.12 219.55 363.54 205.91 364.25 190.01C364.34 188.01 364.38 186.09 364.38 184.22C364.38 154.88 354.48 131.01 342.3 131.01C341.764 131.012 341.229 131.058 340.7 131.15V131H268.7C257.434 130.979 246.446 134.509 237.3 141.088C228.154 147.668 221.314 156.962 217.751 167.65C214.188 178.339 214.083 189.879 217.453 200.63C220.822 211.381 227.494 220.797 236.52 227.54C235.972 229.284 235.663 231.093 235.6 232.92C231.71 233.03 228.46 233.17 226.09 233.35C220.39 233.77 216.59 235.46 216.64 237.55C216.7 239.96 221.64 241.55 229.92 241.71C231.7 241.71 234.2 241.79 237.22 241.82C237.542 242.594 237.909 243.349 238.32 244.08C240.14 247.382 242.818 250.131 246.071 252.037C249.323 253.943 253.03 254.936 256.8 254.91H265.67C267.165 254.909 268.658 254.812 270.14 254.62H271.14C271.95 254.62 291.04 254.13 296.29 253.47C302.652 252.567 308.684 250.077 313.83 246.23C313.685 246.726 313.685 247.254 313.83 247.75C314.35 249.2 316.19 249.94 319.48 250C334.94 250.27 339.03 250.21 344.68 250.11C348.05 250.11 351.87 250 358.98 250C372.7 250 376.35 254.32 379.89 258.51C382.41 261.51 385.02 264.57 391.13 265.84C392.65 266.16 394.2 266.45 395.87 266.75C402.316 267.876 408.814 268.676 415.34 269.15C420.68 269.54 426.07 269.74 431.43 269.74C433.47 269.74 435.5 269.71 437.52 269.65L443.41 269.51C458.11 269.17 473.31 268.83 477.67 264.84C479.67 263.03 480.46 261.52 480.15 260.22C479.66 258.16 476.53 257.28 473.21 256.35C470.4 255.56 467.48 254.74 466.82 253.29C466.717 253.014 466.676 252.718 466.7 252.424C466.724 252.131 466.813 251.846 466.96 251.59C468.68 247.95 478.28 245.59 491.4 245.59C517.61 245.59 528.82 242.94 528.89 236.73C528.99 231.68 517.18 231.51 491.3 231.12ZM491.45 244.54C480.7 244.54 468.4 246.27 466.1 251.12C465.888 251.504 465.766 251.931 465.741 252.369C465.717 252.807 465.792 253.245 465.96 253.65C466.82 255.53 469.82 256.37 472.96 257.26C475.85 258.07 478.84 258.91 479.19 260.41C479.41 261.3 478.67 262.53 477.01 264.05C472.93 267.79 457.24 268.14 443.41 268.46L437.51 268.6C430.39 268.8 423.17 268.6 416.03 268.14H415.43C408.89 267.66 402.54 266.88 396.53 265.83L396.06 265.75C394.4 265.46 392.86 265.16 391.35 264.85C385.58 263.65 383.2 260.85 380.68 257.85C376.99 253.49 373.18 248.99 359 248.99C351.88 248.99 348.06 249.05 344.68 249.1C339.04 249.2 334.96 249.26 319.52 248.99C316.78 248.99 315.14 248.39 314.79 247.41C314.719 246.983 314.741 246.546 314.855 246.128C314.969 245.71 315.172 245.322 315.45 244.99C316.79 243.92 317.94 242.9 318.84 241.99C319.84 241.78 327.12 241.72 333 241.67C345.14 241.57 345.67 241.5 345.95 241.2C346.57 240.55 346.61 239.28 346.43 237.98C346.43 237.98 346.43 237.92 346.43 237.89C346.43 237.86 346.43 237.89 346.43 237.83C346.403 237.744 346.351 237.667 346.28 237.61C346.235 237.561 346.195 237.507 346.16 237.45C346.052 237.317 345.964 237.169 345.9 237.01C345.84 236.851 345.793 236.687 345.76 236.52C345.665 236.041 345.595 235.557 345.55 235.07C345.55 234.74 345.47 234.39 345.43 234.02C345.39 233.65 345.34 233.39 345.27 233.02C345.27 232.85 345.21 232.69 345.17 232.52C345.13 232.35 345.1 232.19 345.06 232.01C345.06 232.01 345.06 232.01 345.06 231.95C344.731 230.494 344.016 229.154 342.99 228.07C342.82 227.887 342.64 227.713 342.45 227.55C342.22 227.34 341.98 227.13 341.72 226.93C341.46 226.73 341.13 226.46 340.81 226.21L340.31 225.83L340 225.59C339.94 225.549 339.876 225.512 339.81 225.48L339.6 225.38C339.004 225.112 338.423 224.812 337.86 224.48C337.531 224.28 337.217 224.056 336.92 223.81C336.072 223.112 335.415 222.211 335.01 221.19L335.42 221.13C336.83 220.93 338.31 220.74 339.81 220.65H340.31H340.81C342.374 220.588 343.938 220.74 345.46 221.1C346.84 221.463 348.16 222.022 349.38 222.76L349.79 223.02C349.93 223.11 350.07 223.2 350.2 223.3C351.934 224.374 353.276 225.976 354.03 227.87C354.051 227.942 354.077 228.013 354.11 228.08C354.18 228.281 354.26 228.478 354.35 228.67C354.43 228.87 354.52 229.07 354.61 229.26C355.21 230.44 356.072 231.466 357.13 232.26C357.39 232.453 357.665 232.627 357.95 232.78C358.293 232.971 358.655 233.125 359.03 233.24L358.89 233.29H359.24C359.459 233.35 359.684 233.387 359.91 233.4C360.028 233.414 360.146 233.381 360.24 233.31C371.5 233.45 382.24 233.49 389.92 233.31C397.09 233.12 420.26 232.55 441.92 232.19H442.63C451.87 232.04 459.63 231.94 465.8 231.9H466.49C471.19 231.9 474.86 231.9 477.41 231.9C482.41 232 487.05 232.077 491.33 232.13C514.21 232.47 528.02 232.68 527.98 236.68C527.87 243.65 508.4 244.54 491.45 244.54ZM238.12 241.3C238.05 241.14 237.98 240.97 237.92 240.8C237.075 238.586 236.628 236.24 236.6 233.87C236.6 233.7 236.6 233.53 236.6 233.37C236.6 233.21 236.6 233.03 236.6 232.87C236.667 231.265 236.926 229.674 237.37 228.13C237.37 227.97 237.48 227.82 237.53 227.66C237.58 227.5 237.64 227.31 237.7 227.14C238.184 225.744 238.814 224.403 239.58 223.14L246.13 212.45L245.62 212.32L245.11 212.19L238.73 222.62C237.978 223.845 237.349 225.142 236.85 226.49C228.061 219.833 221.585 210.581 218.34 200.044C215.094 189.506 215.242 178.214 218.762 167.765C222.283 157.316 228.998 148.237 237.959 141.812C246.92 135.387 257.674 131.941 268.7 131.96H338.05C331.45 135.06 325.76 145.24 322.64 160.07C321.018 168 320.217 176.076 320.25 184.17C320.25 204.7 324.95 222.59 331.85 231.74L332.26 232.26L332.66 232.76L332.72 232.83L333.01 233.16C333.26 233.45 333.51 233.73 333.76 233.99C334.01 234.25 334.09 234.32 334.26 234.48L334.77 234.97C335.775 235.88 336.903 236.644 338.12 237.24H321.72L319.34 235.32L318.74 234.83L318.13 234.35L317.3 233.68L316.67 233.17L316.05 232.67L315.61 232.31L314.97 231.8L314.32 231.28L309.45 227.35L304.45 221.69L304.96 220.79C305.365 220.061 305.667 219.281 305.86 218.47L305.37 218.34L304.89 218.21C304.721 218.94 304.451 219.643 304.09 220.3L303.75 220.9L303.49 221.36L303.24 221.82L297.24 232.54L296.96 233.03L296.68 233.53L295.94 234.85L295.66 235.36L295.38 235.86L294.9 236.72C294.8 236.9 294.69 237.06 294.59 237.24L294.29 237.74L293.99 238.24L293.67 238.76C293.55 238.93 293.42 239.1 293.31 239.27C292.94 239.81 292.56 240.34 292.16 240.85L291.76 241.35C291.62 241.52 291.49 241.69 291.35 241.85C286.539 247.598 279.936 251.564 272.6 253.11L271.81 253.26L271.04 253.39C269.281 253.678 267.503 253.825 265.72 253.83H256.85C253.259 253.85 249.728 252.902 246.63 251.086C243.531 249.27 240.979 246.653 239.24 243.51C238.921 242.939 238.63 242.351 238.37 241.75C238.25 241.64 238.19 241.47 238.12 241.3ZM329.5 164.3C329.39 164.92 329.28 165.55 329.18 166.18L328.88 168.18L329.18 166.18C329.25 165.52 329.39 164.89 329.5 164.27V164.3ZM334.7 219.98C335.674 210.276 337.362 200.656 339.75 191.2C339.92 190.56 340.08 189.92 340.25 189.3C340.42 188.68 340.58 188.08 340.75 187.49C341.75 183.91 342.75 180.86 343.68 178.35C347.33 168.35 350.93 160.99 354.41 156.53C356.834 165.417 358.008 174.599 357.9 183.81C357.9 185.34 357.9 186.93 357.81 188.51C357.24 202.96 354.13 215.32 349.88 221.95C348.56 221.153 347.132 220.55 345.64 220.16C344.04 219.778 342.395 219.613 340.75 219.67H340.25H339.75C338.06 219.76 336.4 219.99 334.84 220.21C334.789 220.143 334.743 220.073 334.7 220V219.98ZM363.3 189.98C362.63 205.12 359.3 218.38 354.68 226.98C353.786 225.146 352.401 223.596 350.68 222.5C355.07 215.69 358.2 203.31 358.78 188.56C358.84 186.96 358.87 185.37 358.87 183.82C358.987 174.306 357.71 164.825 355.08 155.68L355.15 155.59L355.07 155.33C351.91 145.27 347.91 140.17 343.2 140.17H342.82C342.103 140.173 341.393 140.302 340.72 140.55C340.55 140.608 340.384 140.675 340.22 140.75L339.72 140.99C334.9 143.52 330.72 151.88 328.5 164.08C327.321 170.593 326.742 177.201 326.77 183.82C326.77 199.24 329.64 212.82 333.97 220.82C333.97 220.82 333.97 220.82 333.97 220.88C333.69 221.79 334.9 223.51 336.18 224.65C336.516 224.942 336.878 225.203 337.26 225.43C337.988 226.191 338.824 226.842 339.74 227.36C339.91 227.45 340.07 227.53 340.24 227.6C340.404 227.675 340.57 227.742 340.74 227.8C340.904 227.866 341.071 227.922 341.24 227.97C342.608 228.991 343.579 230.454 343.99 232.11L344.05 232.33C344.05 232.43 344.05 232.52 344.12 232.62L344.24 233.12C344.29 233.37 344.33 233.61 344.36 233.85C344.39 234.09 344.41 234.18 344.43 234.35L344.49 234.85C344.49 234.98 344.49 235.12 344.54 235.26C344.585 235.829 344.668 236.393 344.79 236.95C343.484 237.385 342.085 237.458 340.74 237.16L340.24 237.06L339.74 236.9C338.505 236.477 337.351 235.845 336.33 235.03C336.13 234.88 335.94 234.71 335.74 234.54L335.18 234.06C334.8 233.7 334.43 233.31 334.06 232.89C333.91 232.73 333.77 232.56 333.62 232.39L333.19 231.87C326.19 223.12 321.26 204.87 321.26 184.27C321.224 176.246 322.019 168.24 323.63 160.38C326.9 144.86 332.92 134.57 339.74 132.46L340.24 132.32L340.74 132.21C341.268 132.11 341.803 132.06 342.34 132.06C353.96 132.06 363.42 155.48 363.42 184.27C363.43 186 363.39 188 363.3 189.93V189.98Z" fill="#2B266D"/>
<path d="M342.351 132C341.814 132 341.278 132.05 340.751 132.15L340.251 132.26L339.751 132.4C332.931 134.51 326.911 144.8 323.641 160.32C322.029 168.18 321.235 176.186 321.271 184.21C321.271 204.78 326.211 223.06 333.201 231.81L333.631 232.33C333.781 232.5 333.92 232.67 334.07 232.83C334.44 233.25 334.811 233.64 335.191 234L335.751 234.48C335.951 234.65 336.141 234.82 336.34 234.97C337.361 235.784 338.515 236.417 339.751 236.84L340.251 237L340.751 237.1C342.095 237.398 343.494 237.325 344.8 236.89C344.678 236.333 344.595 235.768 344.55 235.2C344.55 235.06 344.551 234.92 344.501 234.79L344.441 234.29C344.441 234.12 344.441 233.96 344.371 233.79C344.301 233.62 344.301 233.31 344.251 233.06L344.131 232.56C344.131 232.46 344.131 232.37 344.061 232.27L344.001 232.05C343.589 230.394 342.618 228.931 341.251 227.91C341.081 227.862 340.914 227.806 340.751 227.74C340.581 227.682 340.414 227.615 340.251 227.54C340.081 227.47 339.921 227.39 339.751 227.3C338.834 226.782 337.998 226.131 337.271 225.37C336.888 225.143 336.527 224.882 336.191 224.59C334.911 223.45 333.701 221.73 333.981 220.82C333.981 220.82 333.981 220.82 333.981 220.76C329.651 212.81 326.78 199.21 326.78 183.76C326.752 177.141 327.331 170.533 328.51 164.02C330.76 151.82 334.911 143.46 339.731 140.93L340.231 140.69C340.394 140.615 340.561 140.548 340.731 140.49C341.403 140.242 342.114 140.113 342.831 140.11H343.211C347.921 140.11 351.921 145.21 355.081 155.27L355.161 155.53L355.09 155.62C357.72 164.765 358.997 174.245 358.881 183.76C358.881 185.31 358.881 186.9 358.791 188.5C358.211 203.25 355.081 215.63 350.691 222.44C352.412 223.536 353.796 225.086 354.691 226.92C359.351 218.32 362.641 205.06 363.311 189.92C363.401 187.97 363.441 186.03 363.441 184.18C363.431 155.4 353.971 132 342.351 132Z" fill="#FF5787"/>
<path d="M340.25 219.64H340.75C342.395 219.583 344.04 219.748 345.641 220.13C347.132 220.52 348.56 221.123 349.88 221.92C354.13 215.29 357.241 202.92 357.811 188.48C357.871 186.9 357.9 185.31 357.9 183.78C358.009 174.569 356.834 165.387 354.411 156.5C350.931 160.96 347.331 168.29 343.681 178.32C342.771 180.83 341.77 183.88 340.75 187.46C340.58 188.05 340.42 188.66 340.25 189.27C340.08 189.88 339.92 190.53 339.75 191.17C337.362 200.626 335.675 210.246 334.701 219.95C334.741 220.04 334.788 220.127 334.84 220.21C336.4 219.99 338.06 219.76 339.75 219.67L340.25 219.64Z" fill="#FF5787"/>
<path d="M256.82 253.89H265.69C267.473 253.885 269.251 253.738 271.01 253.45L271.78 253.32L272.57 253.17C279.905 251.624 286.509 247.658 291.32 241.91C291.46 241.75 291.59 241.58 291.73 241.41L292.13 240.91C292.53 240.4 292.91 239.91 293.28 239.33C293.39 239.16 293.521 238.99 293.641 238.82L293.96 238.3L294.26 237.8L294.56 237.3C294.66 237.12 294.771 236.96 294.871 236.78L295.35 235.92L295.63 235.42L295.911 234.91L296.65 233.59L296.931 233.09L297.21 232.6L303.21 221.88L303.46 221.42L303.721 220.96L304.06 220.36C304.421 219.703 304.69 219 304.86 218.27L305.34 218.4L305.83 218.53C305.638 219.341 305.335 220.121 304.931 220.85L304.42 221.75L309.42 227.41L314.29 231.34L314.94 231.86L315.58 232.37L316.02 232.73L316.641 233.23L317.27 233.74L318.1 234.41L318.71 234.89L319.31 235.38L321.69 237.3H338.09C336.873 236.704 335.745 235.94 334.741 235.03L334.23 234.54C334.06 234.38 333.89 234.22 333.73 234.05C333.57 233.88 333.23 233.51 332.98 233.22L332.69 232.89L332.63 232.82L332.23 232.32L331.82 231.8C324.92 222.65 320.221 204.8 320.221 184.23C320.187 176.136 320.988 168.06 322.61 160.13C325.73 145.3 331.42 135.13 338.02 132.02H268.67C257.644 132.001 246.891 135.447 237.93 141.872C228.969 148.297 222.253 157.376 218.733 167.825C215.212 178.274 215.064 189.566 218.31 200.103C221.556 210.641 228.031 219.893 236.82 226.55C237.318 225.202 237.949 223.905 238.701 222.68L245.08 212.25L245.59 212.38L246.1 212.51L239.55 223.2C238.784 224.463 238.154 225.804 237.67 227.2C237.61 227.37 237.55 227.55 237.5 227.72C237.45 227.89 237.39 228.03 237.34 228.19C236.895 229.734 236.637 231.325 236.57 232.93C236.57 233.09 236.57 233.26 236.57 233.43C236.57 233.6 236.57 233.76 236.57 233.93C236.598 236.3 237.045 238.646 237.891 240.86C237.951 241.03 238.02 241.2 238.09 241.36C238.16 241.52 238.23 241.7 238.31 241.87C238.57 242.471 238.861 243.059 239.181 243.63C240.929 246.766 243.489 249.374 246.593 251.179C249.697 252.985 253.23 253.921 256.82 253.89ZM262.82 215.89H263.19H263.28L263.701 215.95C263.566 216.248 263.416 216.539 263.25 216.82C263.328 219.939 263.968 223.019 265.141 225.91C266.143 228.31 267.546 230.521 269.29 232.45L269.73 232.95L270.201 233.45C270.951 234.23 271.68 234.92 272.35 235.51C273.584 234.963 274.749 234.271 275.82 233.45C276.03 233.29 276.22 233.11 276.42 232.94C276.62 232.77 276.8 232.62 276.98 232.45C278.223 231.285 279.278 229.936 280.11 228.45L288.21 213.95L288.71 214.07L289.221 214.19L280.991 228.94C280.272 230.213 279.398 231.392 278.391 232.45L277.911 232.94C277.731 233.11 277.56 233.29 277.38 233.45C276.122 234.568 274.711 235.5 273.19 236.22L272.681 236.46L272.15 236.68C271.65 236.88 271.15 237.05 270.63 237.21C269.914 237.418 269.187 237.582 268.451 237.7C267.532 237.852 266.602 237.929 265.67 237.93H256.8C256.072 237.948 255.353 237.773 254.715 237.421C254.077 237.07 253.544 236.555 253.17 235.93L253.07 235.76C252.891 235.445 252.75 235.109 252.65 234.76C252.545 234.386 252.498 233.998 252.51 233.61C252.5 233.44 252.5 233.27 252.51 233.1C252.538 232.935 252.575 232.772 252.621 232.61C252.732 232.213 252.897 231.833 253.11 231.48L258.661 222.41L260.48 219.41L262.29 216.46C262.41 216.26 262.511 216.06 262.621 215.86L262.82 215.89Z" fill="#FF5787"/>
<path d="M262.351 216.48L260.541 219.43L258.721 222.43L253.171 231.5C252.957 231.853 252.792 232.233 252.681 232.63C252.636 232.791 252.599 232.955 252.57 233.12C252.561 233.29 252.561 233.46 252.57 233.63C252.558 234.018 252.606 234.406 252.711 234.78C252.81 235.129 252.951 235.465 253.13 235.78L253.231 235.95C253.604 236.575 254.137 237.09 254.775 237.441C255.413 237.793 256.132 237.968 256.86 237.95H265.731C266.662 237.949 267.591 237.872 268.51 237.72C269.246 237.602 269.975 237.438 270.691 237.23C271.201 237.07 271.691 236.9 272.211 236.7L272.741 236.48L273.251 236.24C274.772 235.52 276.182 234.588 277.441 233.47C277.621 233.31 277.791 233.13 277.971 232.96L278.451 232.47C279.459 231.412 280.332 230.233 281.05 228.96L289.28 214.21L288.771 214.09L288.271 213.97L280.171 228.47C279.339 229.956 278.283 231.305 277.041 232.47C276.861 232.64 276.671 232.8 276.481 232.96C276.291 233.12 276.09 233.31 275.88 233.47C274.809 234.291 273.645 234.983 272.411 235.53C271.741 234.94 271.01 234.25 270.26 233.47L269.791 232.97L269.351 232.47C267.606 230.541 266.203 228.33 265.201 225.93C264.029 223.038 263.388 219.959 263.311 216.84C263.476 216.558 263.626 216.268 263.76 215.97L263.34 215.91H263.251H262.88H262.731C262.621 216.11 262.52 216.31 262.4 216.51L262.351 216.48Z" fill="#2B266D"/>
<path d="M582.891 238.59C581.587 238.089 580.197 237.844 578.8 237.87H578.59C577.118 237.866 575.66 238.155 574.3 238.72C573.3 239.18 572.75 239.72 572.76 240.29C572.77 240.86 573.761 241.36 574.311 241.55C577.168 242.248 580.156 242.203 582.991 241.42C583.681 241.18 584.491 240.75 584.481 240.12C584.471 239.58 583.891 239 582.891 238.59Z" fill="#5A51E7"/>
<path d="M583.251 237.68C581.751 237.097 580.149 236.822 578.541 236.87C576.925 236.88 575.329 237.22 573.851 237.87C572.471 238.51 571.721 239.39 571.731 240.36C571.731 241.03 572.141 241.96 573.981 242.55C575.383 242.94 576.835 243.122 578.291 243.09H578.661C580.233 243.108 581.799 242.879 583.3 242.41C585.1 241.77 585.461 240.83 585.451 240.15C585.471 239.14 584.691 238.27 583.251 237.68ZM584.451 240.12C584.451 240.75 583.651 241.18 582.961 241.42C580.126 242.203 577.137 242.248 574.28 241.55C573.71 241.36 572.741 240.96 572.731 240.29C572.721 239.62 573.281 239.18 574.271 238.72C575.63 238.155 577.088 237.866 578.561 237.87H578.771C580.168 237.844 581.556 238.089 582.86 238.59C583.86 239.02 584.441 239.59 584.451 240.12Z" fill="#2B266D"/>
<path d="M565.021 238.65C564.911 237.77 562.891 236.75 558.601 236.47C556.151 236.31 554.991 236.27 554.161 236.24C552.625 236.192 551.092 236.061 549.57 235.85C549.059 235.797 548.545 235.77 548.03 235.77C545.789 235.805 543.561 236.124 541.4 236.72C539.22 237.34 535.63 238.94 536.03 240.99C536.43 243.04 541.221 243.12 543.521 243.2H544.23C550.29 243.48 554.231 243.66 560.001 241.86C563.841 240.67 565.111 239.39 565.021 238.65Z" fill="#5A51E7"/>
<path d="M558.661 235.47C556.201 235.31 555.041 235.27 554.201 235.24C552.692 235.192 551.186 235.065 549.691 234.86C546.807 234.663 543.91 234.967 541.13 235.76C540 236.08 534.4 237.85 535.05 241.18C535.58 243.92 540.531 244.09 543.491 244.18H544.231C546.231 244.28 548.071 244.36 549.791 244.36C553.356 244.412 556.906 243.881 560.3 242.79C564.17 241.58 566.2 240.05 566.01 238.49C565.82 236.93 563.251 235.77 558.661 235.47ZM544.231 243.22H543.521C541.221 243.14 536.41 242.97 536.03 241.01C535.65 239.05 539.22 237.36 541.4 236.74C543.561 236.144 545.789 235.825 548.03 235.79C548.545 235.79 549.059 235.817 549.57 235.87C551.092 236.082 552.625 236.212 554.161 236.26C554.991 236.26 556.161 236.33 558.601 236.49C562.891 236.77 564.911 237.79 565.021 238.67C565.131 239.55 563.841 240.67 560.021 241.9C554.251 243.68 550.251 243.5 544.251 243.22H544.231Z" fill="#2B266D"/>
<path d="M377.63 265.36C377.453 264.651 377.004 264.04 376.38 263.66C375.31 263.16 374.142 262.904 372.96 262.91H372.4C370.814 262.925 369.285 262.318 368.141 261.22C367.932 260.964 367.741 260.693 367.57 260.41C367.432 260.168 367.275 259.937 367.1 259.72C366.309 258.875 365.249 258.33 364.1 258.18C364.045 258.246 363.974 258.297 363.893 258.327C363.812 258.357 363.725 258.365 363.641 258.35C360.732 257.914 357.765 258.074 354.92 258.82C354.11 259.03 352.73 259.54 352.59 260.55C352.47 261.39 353.3 262.2 354.19 262.55C354.62 262.72 355.061 262.86 355.51 262.97C356.203 263.12 356.875 263.355 357.51 263.67C358.321 264.172 359.047 264.8 359.661 265.53C360.079 266.011 360.537 266.456 361.03 266.86C362.76 268.17 365.031 268.3 367.681 268.32C370.487 268.506 373.305 268.226 376.02 267.49C376.586 267.349 377.096 267.039 377.48 266.6C377.591 266.415 377.661 266.209 377.687 265.996C377.713 265.782 377.693 265.566 377.63 265.36Z" fill="#5A51E7"/>
<path d="M376.88 262.8C375.683 262.211 374.365 261.91 373.03 261.92L372.48 261.87C371.16 261.893 369.881 261.414 368.9 260.53C368.725 260.311 368.565 260.08 368.42 259.84C367.79 258.741 366.822 257.876 365.659 257.373C364.497 256.87 363.203 256.757 361.971 257.05C361.898 257.059 361.827 257.08 361.76 257.11C359.358 256.967 356.949 257.203 354.621 257.81C352.781 258.3 351.72 259.18 351.55 260.37C351.35 261.79 352.55 262.94 353.77 263.45C354.241 263.638 354.726 263.788 355.221 263.9C355.823 264.039 356.406 264.247 356.96 264.52C357.677 264.966 358.315 265.527 358.851 266.18C359.311 266.705 359.816 267.191 360.36 267.63C362.49 269.25 365.441 269.27 367.601 269.29H369.061C371.493 269.384 373.924 269.083 376.26 268.4C377.042 268.205 377.742 267.767 378.26 267.15C378.463 266.863 378.601 266.536 378.667 266.191C378.733 265.846 378.724 265.491 378.641 265.15C378.524 264.659 378.307 264.197 378.004 263.792C377.702 263.388 377.319 263.05 376.88 262.8ZM375.951 267.46C373.236 268.196 370.417 268.476 367.61 268.29C364.99 268.29 362.69 268.14 360.96 266.83C360.467 266.426 360.009 265.981 359.59 265.5C358.977 264.77 358.251 264.142 357.44 263.64C356.805 263.325 356.133 263.09 355.44 262.94C354.991 262.83 354.551 262.69 354.121 262.52C353.231 262.16 352.4 261.35 352.52 260.52C352.66 259.52 354.041 259 354.851 258.79C357.695 258.043 360.662 257.884 363.57 258.32C363.655 258.335 363.742 258.326 363.823 258.297C363.904 258.267 363.975 258.216 364.03 258.15C365.178 258.3 366.239 258.845 367.03 259.69C367.205 259.907 367.363 260.138 367.5 260.38C367.671 260.663 367.861 260.934 368.07 261.19C369.215 262.288 370.744 262.895 372.331 262.88H372.891C374.072 262.874 375.24 263.13 376.311 263.63C376.934 264.01 377.383 264.621 377.561 265.33C377.609 265.536 377.614 265.75 377.577 265.958C377.539 266.166 377.458 266.364 377.34 266.54C376.979 266.978 376.495 267.298 375.951 267.46Z" fill="#2B266D"/>
</svg>
