<svg width="800" height="400" viewBox="0 0 800 400" fill="none" xmlns="http://www.w3.org/2000/svg">
<path d="M354.903 272.044H370.377L384.277 337.088L409.193 370.134L404.734 372.233C398.964 372.233 386.218 371.813 381.392 370.134C375.36 368.036 368.279 364.102 361.459 354.136C356.004 346.163 354.815 335.077 354.903 330.531V272.044Z" fill="#2B266D" stroke="#2B266D" stroke-width="1.0491"/>
<path d="M437.225 272.044L437.252 272.54C437.69 280.632 438.214 293.609 438.367 306.244C438.52 318.864 438.303 331.191 437.246 337.956C435.928 346.39 434.01 351.643 431.667 355.459C429.326 359.272 426.576 361.618 423.704 364.228C417.742 369.649 408.945 371.698 405.064 372.227L405.063 372.226C404.776 372.278 404.339 372.294 403.76 372.262C403.148 372.228 402.343 372.14 401.329 371.976C399.3 371.649 396.414 371.009 392.516 369.85C382.661 366.92 376.782 360.521 374.1 355.157C373.009 352.976 372.302 349.623 371.853 346.372C371.402 343.104 371.204 339.871 371.159 337.887V272.044H437.225Z" fill="#5A51E7" stroke="#2B266D" stroke-width="1.0491"/>
<path d="M437.777 291.714H403.157" stroke="#2B266D" stroke-width="1.0491"/>
<path d="M436.728 343.645H402.107" stroke="#2B266D" stroke-width="1.0491"/>
<path d="M390.043 315.319H371.159" stroke="#2B266D" stroke-width="1.0491"/>
<path d="M453.353 373.163C466.991 374.003 473.898 375.436 475.646 376.048L472.501 377.622C435.957 377.709 358.619 377.622 341.624 376.573C320.38 375.262 322.74 374.213 330.871 373.163C337.375 372.324 344.248 372.376 356.051 372.376C385.076 372.027 439.715 372.324 453.353 373.163Z" fill="#2B266D" stroke="#2B266D" stroke-width="1.0491"/>
<path d="M398.961 272.83V68.6859" stroke="#2B266D" stroke-width="3.1473"/>
<path d="M430.672 27.3298L427 28.6412L417.034 41.7549L409.952 30.2149L378.742 50.1477L391.855 102.078L408.903 103.652C412.75 102.778 419.203 102.241 425.689 93.1608C428.311 89.4889 430.672 81.3584 430.672 71.6542V27.3298Z" fill="#2B266D"/>
<mask id="mask0_3820_6817" style="mask-type:alpha" maskUnits="userSpaceOnUse" x="369" y="20" width="60" height="86">
<path d="M400.462 105.327C399.723 105.327 398.985 105.294 398.252 105.24L397.519 105.18L397.514 105.179C389.856 104.406 382.757 100.816 377.597 95.1052C372.436 89.3948 369.58 81.971 369.582 74.2742L369.582 27.9831L370.208 28.1062C374.204 28.8911 377.842 30.9366 380.59 33.9421L380.59 33.9431C383.797 37.4348 386.483 41.3721 388.562 45.6326C388.65 41.0049 389.875 36.4699 392.134 32.4285C396.159 24.8864 400.293 22.1527 401.338 21.5466L401.619 21.3826L401.891 21.5632C402.899 22.2319 406.848 25.1436 410.217 32.0076L410.541 32.6843L411.824 35.4353L411.957 35.7205L411.767 35.9724C411.403 36.4569 409.926 38.4324 408.339 40.7908C406.744 43.1607 405.067 45.8744 404.279 47.8484L404.278 47.8513C401.873 53.7921 399.804 59.8635 398.081 66.0369L397.676 67.49L397.676 67.5769L397.697 67.6414C398.087 68.8143 398.406 70.0101 398.652 71.2214C398.934 70.2796 399.232 69.3535 399.553 68.4519L399.555 68.446C403.068 58.9021 407.795 49.8502 413.621 41.5144L413.628 41.5056L414.516 40.2898L414.533 40.2654L414.554 40.2439C415.572 39.1387 418.083 36.452 421.274 33.5417C422.674 32.2655 424.18 31.1112 425.775 30.0906L426.536 29.6033L426.582 30.5056C426.793 34.6854 428.436 68.6886 427.836 78.5906L427.836 78.5925C427.238 87.9167 422.258 95.7255 420.988 97.571L420.952 97.6248L420.902 97.6677C415.506 102.41 408.623 105.119 401.442 105.327L400.462 105.327Z" fill="#FF5787" stroke="black" stroke-width="1.0491"/>
</mask>
<g mask="url(#mask0_3820_6817)">
<path d="M400.365 105.289C399.379 105.289 398.397 105.229 397.422 105.141L397.419 105.141C389.75 104.391 382.634 100.816 377.454 95.1122C372.274 89.4077 369.399 81.9807 369.389 74.2753L369.389 74.2733L369.486 28.5819L369.487 27.9452L370.112 28.0682C374.107 28.8532 377.746 30.8988 380.493 33.9042L380.493 33.9032C383.701 37.395 386.386 41.3329 388.465 45.5936C388.553 40.9662 389.778 36.4317 392.037 32.3905C396.061 24.8503 400.176 22.1137 401.245 21.5057L401.527 21.3456L401.796 21.5262C402.792 22.1936 406.75 25.1047 410.12 31.9696L410.444 32.6464L411.728 35.3973L411.862 35.6844L411.67 35.9364C411.306 36.4144 409.829 38.3888 408.242 40.7479C406.646 43.1192 404.97 45.8363 404.182 47.8104L404.181 47.8124C401.776 53.7532 399.708 59.8255 397.985 65.9989L397.579 67.453L397.579 67.5399L397.6 67.6034C397.991 68.7771 398.31 69.9733 398.556 71.1854C398.838 70.243 399.135 69.3161 399.456 68.4139L399.458 68.4081C402.971 58.8639 407.699 49.8124 413.525 41.4764L413.531 41.4676L414.419 40.2518L414.436 40.2274L414.457 40.205C415.475 39.0996 417.987 36.4139 421.178 33.5038C422.578 32.2276 424.083 31.0722 425.678 30.0516L426.44 29.5653L426.485 30.4677C426.696 34.649 428.34 68.6512 427.74 78.5526C427.171 87.8776 422.191 95.6876 420.889 97.538L420.853 97.5887L420.806 97.6298C415.41 102.372 408.526 105.081 401.345 105.289L400.365 105.289Z" fill="#FF5787" stroke="#2B266D" stroke-width="1.0491"/>
<path d="M388.18 45.689L388.704 45.1644L390.803 50.1476H390.016L388.18 45.689Z" fill="#2B266D"/>
</g>
<path d="M397.324 167.365C392.472 167.241 379.987 167.789 371.706 176.07C362.178 185.571 359.962 198.384 359.657 200.693L359.602 201.107L360.005 201.219C362.489 201.912 365.073 202.184 367.647 202.025V202.024C372.056 201.788 378.773 200.278 385.796 194.457C391.427 189.789 395.586 183.589 397.77 176.608L397.793 176.537V167.378L397.324 167.365Z" fill="#5ED7B1" stroke="#2B266D" stroke-width="0.962596"/>
</svg>
