<svg width="800" height="400" viewBox="0 0 800 400" fill="none" xmlns="http://www.w3.org/2000/svg">
<path d="M420.87 157.711C411.69 148.531 397.8 147.901 392.34 148.041V150.171L427.51 179.881L426.86 180.641L392.34 151.481V157.771C394.775 165.554 399.411 172.466 405.69 177.671C413.52 184.161 420.99 185.831 425.87 186.091C428.717 186.267 431.573 185.967 434.32 185.201C433.98 182.631 431.5 168.311 420.87 157.711Z" fill="#FF5787"/>
<path d="M388.37 258.311H364.87V302.121H382.99V303.121H364.87V324.731C364.87 341.881 369.23 353.051 386.92 358.511C390.361 359.545 393.874 360.323 397.43 360.841C405.4 359.59 412.834 356.048 418.826 350.647C424.819 345.246 429.111 338.218 431.18 330.421H397.87V329.421H431.34C432.106 326.248 432.492 322.995 432.49 319.731V278.901H397.87V277.901H432.49V258.311H388.37Z" fill="#2DC495"/>
<path d="M325.6 157.831C324.6 157.741 323.6 157.681 322.6 157.681H321.6C314.286 157.892 307.276 160.651 301.78 165.481C300.48 167.371 295.39 175.361 294.78 184.871C294.16 195.091 295.86 230.281 296.08 234.631C297.707 233.59 299.243 232.412 300.67 231.111C303.96 228.111 306.55 225.341 307.6 224.201L308.52 222.941C314.53 214.342 319.407 205.005 323.03 195.161C327.12 183.661 328.03 168.371 328.19 163.381C328.19 162.381 328.19 161.751 328.19 161.721H329.19C329.19 161.901 328.96 178.621 324.98 192.231C325.234 193.51 325.568 194.773 325.98 196.011C326.05 195.871 326.06 195.931 326.03 196.161V196.291C326.975 199.078 328.069 201.812 329.31 204.481C329.38 204.621 329.43 204.761 329.5 204.901C331.24 208.641 330.32 209.051 328.59 205.321C327.23 202.321 326.25 199.941 325.59 197.991C323.8 204.407 321.65 210.717 319.15 216.891C317.47 221.101 312.08 228.311 311.32 229.321L312.65 232.171C316.16 239.681 320.41 242.801 321.42 243.471C322.42 242.891 326.63 240.131 330.75 232.411C333.072 228.26 334.323 223.596 334.39 218.841L334.25 216.101L335.35 218.611C337.491 223.031 340.267 227.114 343.59 230.731C346.358 233.759 350.025 235.82 354.05 236.611V189.311C354.053 181.471 351.143 173.909 345.887 168.093C340.63 162.276 333.4 158.619 325.6 157.831Z" fill="#FF5787"/>
<path d="M440.23 359.741C436.49 359.741 422.17 359.281 407.59 358.891C413.592 356.328 418.927 352.425 423.188 347.482C427.449 342.538 430.521 336.685 432.17 330.371H432.32V329.751C433.121 326.454 433.527 323.074 433.53 319.681V257.311H392.37V160.811C395.02 167.697 399.397 173.785 405.08 178.491C413.6 185.551 421.79 187.141 427.46 187.141C430.041 187.186 432.613 186.822 435.08 186.061L435.44 185.921V185.541C435.44 185.371 433.52 168.931 421.64 157.051C412.22 147.631 398.04 146.951 392.41 147.051V124.991C392.254 115.709 388.457 106.86 381.838 100.352C375.219 93.8429 366.308 90.1956 357.025 90.1956C347.742 90.1956 338.831 93.8429 332.212 100.352C325.593 106.86 321.796 115.709 321.64 124.991V156.721C313.17 156.975 305.132 160.516 299.226 166.593C293.321 172.67 290.012 180.807 290 189.281V238.671L290.64 238.481C294.652 237.062 298.321 234.817 301.41 231.891C304.68 228.891 307.28 226.151 308.41 224.961C308.86 226.081 309.87 228.261 311.92 232.641C316.06 241.481 321.13 244.411 321.34 244.531L321.56 244.661L321.8 244.551C322 244.461 326.93 242.091 331.8 232.931C333.832 229.193 335.091 225.085 335.5 220.851C337.571 224.673 340.096 228.232 343.02 231.451C346.056 234.836 350.174 237.059 354.67 237.741H355.22V189.311C355.209 181.198 352.176 173.379 346.712 167.382C341.249 161.384 333.747 157.637 325.67 156.871V125.021C325.817 116.794 329.188 108.954 335.058 103.188C340.928 97.4216 348.827 94.1909 357.055 94.1909C365.283 94.1909 373.182 97.4216 379.052 103.188C384.922 108.954 388.293 116.794 388.44 125.021V257.311H348.38V319.731C348.388 327.871 350.725 335.838 355.114 342.694C359.503 349.549 365.761 355.006 373.15 358.421C356.87 358.331 319.21 358.211 311.68 358.911C302.01 359.791 295.24 360.631 302.97 362.401C310.7 364.171 446.76 364.181 451.6 364.181C456.44 364.181 458.25 359.741 440.23 359.741ZM354.15 236.651C350.124 235.86 346.458 233.799 343.69 230.771C340.367 227.154 337.591 223.071 335.45 218.651L334.35 216.141L334.49 218.881C334.423 223.636 333.172 228.3 330.85 232.451C326.73 240.171 322.54 242.931 321.52 243.511C320.52 242.841 316.26 239.721 312.75 232.211L311.42 229.361C312.18 228.361 317.57 221.141 319.25 216.931C321.75 210.757 323.9 204.446 325.69 198.031C326.38 200.031 327.36 202.411 328.69 205.361C330.42 209.091 332.33 213.431 333.24 215.521L334.66 219.901L335.21 218.251C334.29 216.161 331.34 208.681 329.6 204.941C329.53 204.801 329.48 204.661 329.41 204.521C328.169 201.852 327.074 199.118 326.13 196.331V196.201C326.13 195.971 326.13 195.911 326.08 196.051C325.668 194.813 325.334 193.55 325.08 192.271C329.08 178.661 329.29 161.941 329.29 161.761H328.29C328.29 161.761 328.29 162.391 328.29 163.421C328.1 168.421 327.22 183.701 323.13 195.201C319.506 205.045 314.63 214.382 308.62 222.981L307.7 224.241C306.65 225.381 304.06 228.151 300.77 231.151C299.343 232.452 297.807 233.63 296.18 234.671C295.96 230.321 294.26 195.131 294.88 184.911C295.46 175.401 300.55 167.411 301.88 165.521C307.376 160.691 314.387 157.932 321.7 157.721H322.7C323.7 157.721 324.7 157.781 325.7 157.871C333.512 158.635 340.76 162.276 346.036 168.087C351.313 173.897 354.24 181.462 354.25 189.311L354.15 236.651ZM425.9 186.091C421.02 185.831 413.55 184.161 405.72 177.671C399.442 172.466 394.805 165.554 392.37 157.771V151.481L426.89 180.641L427.54 179.881L392.37 150.171V148.041C397.83 147.901 411.72 148.531 420.9 157.711C431.5 168.311 433.98 182.631 434.35 185.201C431.593 185.97 428.727 186.271 425.87 186.091H425.9ZM432.53 277.851H397.87V278.851H432.49V319.681C432.492 322.945 432.106 326.198 431.34 329.371H397.87V330.371H431.09C429.021 338.168 424.729 345.196 418.736 350.597C412.744 355.998 405.31 359.54 397.34 360.791C393.784 360.273 390.271 359.495 386.83 358.461C369.14 353.001 364.78 341.831 364.78 324.681V303.071H382.9V302.071H364.87V258.311H432.58L432.53 277.851Z" fill="#2B266D"/>
</svg>
