<svg width="800" height="400" viewBox="0 0 800 400" fill="none" xmlns="http://www.w3.org/2000/svg">
<path d="M451.359 284.086C450.849 278.926 446.909 272.196 441.539 271.816C441.53 270.354 441.077 268.929 440.242 267.73C439.406 266.53 438.227 265.612 436.859 265.096C438.719 263.696 443.178 259.916 443.178 255.676V254.846C443.178 247.616 438.599 242.076 431.129 239.446L365.689 98.9561C365.689 98.9561 365.549 98.6561 365.499 98.5661C365.159 97.7861 364.318 97.7961 364.318 98.6961C364.238 114.276 363.899 256.406 363.899 257.416V257.666C363.874 259.898 364.464 262.093 365.603 264.012C366.742 265.931 368.388 267.499 370.359 268.546C367.469 269.686 365.568 272.616 365.408 276.296H364.769C358.769 276.296 354.449 279.296 353.309 284.016C342.049 284.186 332.629 284.376 330.209 284.506C324.469 284.816 314.209 287.946 318.669 287.946C322.599 287.946 423.219 287.946 450.329 287.056C450.329 287.056 455.999 286.816 456.689 286.696C463.029 285.516 458.689 284.646 451.359 284.086ZM366.359 277.296C369.109 277.876 373.788 278.666 376.238 279.066C373.338 276.456 372.139 272.566 371.579 269.216L371.899 269.136L373.738 268.806C376.315 267.173 379.209 266.106 382.229 265.676C383.019 265.586 383.819 265.516 384.629 265.476H386.899C389.204 265.501 391.483 265.973 393.609 266.866C395.237 267.646 396.788 268.581 398.238 269.656C399.128 270.266 400.049 270.906 400.999 271.476C402.95 272.741 405.205 273.459 407.528 273.556C408.284 273.562 409.035 273.454 409.758 273.236C411.345 272.648 412.812 271.777 414.089 270.666C415.374 269.505 416.905 268.65 418.568 268.166C420.324 267.953 422.106 268.141 423.778 268.716C425.655 269.371 427.666 269.55 429.629 269.236C430.906 268.848 432.112 268.253 433.198 267.476L435.789 265.806C437.212 266.172 438.464 267.022 439.331 268.209C440.197 269.397 440.624 270.849 440.539 272.316V272.816H441.039C445.649 272.816 449.779 278.816 450.329 284.016C450.376 284.401 450.4 284.788 450.399 285.176V286.076H369.448C368.28 285.412 367.158 284.671 366.089 283.856C363.923 282.214 362.053 280.216 360.559 277.946C361.919 277.525 363.335 277.313 364.758 277.316L366.359 277.296ZM442.149 255.676C442.149 259.316 438.089 263.036 435.729 264.676L435.059 265.106L432.649 266.656C431.657 267.372 430.556 267.922 429.388 268.286C427.584 268.559 425.74 268.383 424.019 267.776C422.253 267.018 420.298 266.815 418.414 267.194C416.53 267.573 414.805 268.515 413.468 269.896C412.29 270.932 410.935 271.749 409.468 272.306C406.638 273.166 403.588 271.876 401.468 270.636C400.548 270.086 399.639 269.456 398.769 268.856C397.263 267.744 395.656 266.776 393.968 265.966C393.521 265.769 393.064 265.596 392.599 265.446C389.253 264.459 385.733 264.2 382.278 264.686C379.488 262.005 377.231 258.819 375.629 255.296C375.189 254.296 374.788 253.206 374.428 252.086L429.879 240.086C437.529 242.406 442.129 247.706 442.129 254.876L442.149 255.676ZM365.669 101.996V101.776L367.579 106.236L365.988 108.666C365.898 106.286 365.789 104.086 365.689 101.946L365.669 101.996ZM393.309 160.926L392.948 160.856L371.589 148.686L380.919 134.406L393.309 160.926ZM429.618 238.656L411.359 228.136L419.198 216.136L429.618 238.656ZM368.359 147.946L370.169 148.946L370.089 149.076L369.979 149.236L369.649 149.746L368.528 151.456L368.359 147.946ZM401.158 195.086L388.158 214.936L384.459 212.826L371.079 205.186L370.678 196.766L379.749 182.876L401.158 195.086ZM379.019 239.256L379.629 239.606L392.629 247.046L374.169 251.046L372.809 251.336C372.689 248.786 372.559 246.036 372.419 243.116V242.506V241.936C372.419 241.636 372.419 241.346 372.419 241.046L372.798 240.466L375.068 236.976L378.499 238.976L379.019 239.256ZM372.729 238.616L372.579 235.616L373.129 235.926L374.129 236.496L373.019 238.206L372.729 238.616ZM370.638 195.066L369.778 177.166L377.859 181.776L378.919 182.386L370.638 195.066ZM374.638 235.636L372.488 234.406L371.138 206.406L385.448 214.576L387.609 215.806L374.638 235.636ZM404.698 238.206L405.028 237.706L410.718 228.986L427.079 238.326L428.508 239.146L428.689 239.246L427.689 239.456L399.919 245.456L404.329 238.706L404.698 238.206ZM403.829 237.706L403.508 238.206L403.178 238.706L398.568 245.766L394.079 246.766L381.008 239.296L380.339 238.916L379.718 238.556L375.508 236.156L388.508 216.306L409.879 228.516L403.829 237.706ZM378.218 180.856L369.678 175.976L368.589 153.206L371.019 149.486L392.388 161.696L379.388 181.546L378.218 180.856ZM418.499 215.246L410.399 227.646L389.028 215.436L402.028 195.586L411.798 201.166L418.499 215.246ZM402.499 194.746L406.329 188.886L411.459 199.886L402.499 194.746ZM405.729 187.976L401.629 194.246L380.359 182.026L393.359 162.176L405.729 187.976ZM380.359 133.446L370.769 148.136L369.999 147.696L368.109 146.626L367.839 146.466C367.359 136.466 366.909 127.006 366.499 118.466L375.629 123.676L380.359 133.446ZM366.718 117.446L366.448 117.286C366.318 114.596 366.448 109.776 366.448 109.776L368.178 107.126L375.309 122.376L366.718 117.446Z" fill="#2B266D"/>
<path d="M360.559 277.876C362.053 280.146 363.923 282.144 366.088 283.786C367.157 284.6 368.28 285.342 369.448 286.006H450.358V285.106C450.359 284.718 450.336 284.331 450.289 283.946C449.739 278.726 445.609 272.746 440.999 272.746H440.499V272.246C440.584 270.778 440.157 269.327 439.291 268.139C438.425 266.952 437.172 266.102 435.749 265.736L433.158 267.406C432.072 268.183 430.866 268.778 429.588 269.166C427.625 269.48 425.615 269.301 423.738 268.646C422.066 268.071 420.284 267.883 418.528 268.096C416.865 268.58 415.334 269.435 414.048 270.596C412.772 271.707 411.305 272.578 409.718 273.166C408.995 273.384 408.243 273.492 407.488 273.486C405.165 273.389 402.91 272.671 400.958 271.406C399.958 270.836 399.088 270.196 398.198 269.586C396.747 268.511 395.197 267.576 393.568 266.796C391.443 265.903 389.164 265.431 386.858 265.406H384.588C383.778 265.406 382.978 265.516 382.188 265.606C379.169 266.036 376.275 267.103 373.698 268.736L371.858 269.066L371.539 269.146C372.099 272.496 373.298 276.386 376.198 278.996C373.748 278.596 369.068 277.806 366.318 277.226H364.698C363.294 277.235 361.899 277.454 360.559 277.876ZM389.648 277.306C391.793 277.178 393.946 277.245 396.079 277.506C396.389 277.506 396.698 277.586 397.008 277.646C398.366 277.949 399.702 278.34 401.008 278.816C401.908 279.126 402.839 279.446 403.769 279.696C407.864 280.792 412.195 280.631 416.198 279.236C417.198 278.896 418.198 278.466 419.148 278.046C420.508 277.427 421.908 276.899 423.338 276.466C424.688 276.056 426.104 275.913 427.508 276.046C427.916 276.091 428.32 276.161 428.718 276.256C429.188 276.366 429.638 276.486 430.088 276.606C430.845 276.837 431.617 277.015 432.398 277.136C433.065 277.264 433.752 277.225 434.399 277.022C435.047 276.82 435.634 276.46 436.108 275.976C436.177 275.89 436.241 275.8 436.298 275.706L436.738 275.956L437.178 276.196C436.178 277.956 433.919 278.336 432.269 278.126C431.443 278.001 430.628 277.817 429.829 277.576C429.034 277.332 428.222 277.151 427.398 277.036C424.728 276.736 422.208 277.826 419.548 278.966C418.548 279.386 417.548 279.826 416.548 280.186C412.36 281.638 407.833 281.805 403.548 280.666C402.548 280.406 401.638 280.076 400.718 279.756C399.47 279.299 398.194 278.922 396.898 278.626C394.542 278.244 392.15 278.137 389.769 278.306L380.999 278.586V277.586L389.648 277.306Z" fill="#FF5787"/>
<path d="M429.918 240.006L374.468 252.006C374.828 253.126 375.228 254.206 375.668 255.216C377.271 258.739 379.527 261.925 382.318 264.606C385.773 264.12 389.292 264.379 392.638 265.366C393.103 265.516 393.561 265.689 394.008 265.886C395.696 266.696 397.303 267.663 398.809 268.776C399.679 269.376 400.588 270.006 401.508 270.556C403.578 271.796 406.628 273.086 409.508 272.226C410.975 271.668 412.33 270.852 413.508 269.816C414.845 268.435 416.569 267.493 418.454 267.114C420.338 266.736 422.292 266.939 424.059 267.696C425.78 268.304 427.623 268.479 429.428 268.206C430.596 267.843 431.697 267.292 432.688 266.576L435.099 265.026L435.769 264.596C438.129 262.976 442.188 259.256 442.188 255.596V254.766C442.168 247.626 437.568 242.326 429.918 240.006Z" fill="#FF5787"/>
<path d="M371.178 206.366L372.528 234.386L374.678 235.626L387.648 215.766L385.488 214.536L371.178 206.366Z" fill="#FBC63C"/>
<path d="M365.688 101.726V101.946C365.788 104.056 365.898 106.286 366.008 108.616L367.668 106.226L365.688 101.726Z" fill="#FBC63C"/>
<path d="M369.778 177.156L370.638 195.056L378.918 182.376L377.858 181.766L369.778 177.156Z" fill="#FBC63C"/>
<path d="M375.548 236.116L379.758 238.516L380.378 238.876L381.048 239.256L394.118 246.726L398.608 245.746L403.218 238.696L403.548 238.196L403.868 237.696L409.888 228.476L388.519 216.266L375.548 236.116Z" fill="#FBC63C"/>
<path d="M373.128 235.886L372.588 235.576L372.729 238.606L373.019 238.166L374.128 236.466L373.128 235.886Z" fill="#FBC63C"/>
<path d="M371.118 205.176L384.499 212.826L388.198 214.926L401.168 195.076L379.789 182.866L370.718 196.756L371.118 205.176Z" fill="#FBC63C"/>
<path d="M392.979 160.646L393.329 160.876L380.938 134.356L371.608 148.636L392.979 160.646Z" fill="#FBC63C"/>
<path d="M402.579 194.736L411.539 199.856L406.408 188.876L402.579 194.736Z" fill="#FBC63C"/>
<path d="M429.638 238.606L419.148 216.136L411.309 228.136L429.638 238.606Z" fill="#FBC63C"/>
<path d="M371.059 149.476L368.628 153.196L369.718 175.966L378.258 180.846L379.468 181.536L392.428 161.676L371.059 149.476Z" fill="#FBC63C"/>
<path d="M372.729 240.446L372.349 241.026C372.349 241.326 372.349 241.616 372.349 241.916V242.486V243.096C372.489 246.016 372.618 248.766 372.738 251.316L374.099 251.026L392.559 247.026L379.559 239.586L378.948 239.236L378.358 238.906L374.928 236.906L372.729 240.446Z" fill="#FBC63C"/>
<path d="M402.039 195.576L389.068 215.426L410.438 227.636L418.539 215.236L411.809 201.156L402.039 195.576Z" fill="#FBC63C"/>
<path d="M393.508 161.976L380.338 182.036L401.708 194.236L405.809 187.966L393.508 161.976Z" fill="#FBC63C"/>
<path d="M366.468 118.446C366.878 127.006 367.329 136.506 367.809 146.446L368.079 146.606L369.968 147.676L370.738 148.116L380.329 133.426L375.599 123.636L366.468 118.446Z" fill="#FBC63C"/>
<path d="M369.999 149.266L370.099 149.106L370.188 148.976L368.378 147.946L368.548 151.486L369.668 149.776L369.999 149.266Z" fill="#FBC63C"/>
<path d="M366.128 109.886C366.128 109.886 366.288 114.566 366.418 117.256L366.688 117.416L375.329 122.346L368.198 107.096L366.128 109.886Z" fill="#FBC63C"/>
<path d="M427.769 239.446L428.729 239.236L428.548 239.136L427.128 238.316L410.758 228.976L405.068 237.696L404.738 238.196L404.408 238.696L399.999 245.446L427.769 239.446Z" fill="#FBC63C"/>
<path d="M319.912 250.541L319.483 251.445L339.303 260.856L339.732 259.952L319.912 250.541Z" fill="#2B266D"/>
<path d="M315.068 267.51L315 268.507L336.8 269.99L336.868 268.992L315.068 267.51Z" fill="#2B266D"/>
<path d="M483.057 248.187L465.882 255.955L466.294 256.867L483.469 249.098L483.057 248.187Z" fill="#2B266D"/>
<path d="M485.148 263.486L468.132 265.629L468.257 266.621L485.273 264.478L485.148 263.486Z" fill="#2B266D"/>
<path d="M389.678 278.306C392.059 278.137 394.452 278.244 396.809 278.626C398.104 278.922 399.38 279.299 400.628 279.756C401.548 280.076 402.498 280.406 403.458 280.666C407.743 281.805 412.27 281.638 416.458 280.186C417.458 279.826 418.458 279.386 419.458 278.966C422.118 277.826 424.639 276.736 427.309 277.036C428.132 277.151 428.944 277.332 429.738 277.576C430.538 277.817 431.353 278.001 432.178 278.126C433.828 278.336 436.098 277.956 437.088 276.196L436.648 275.956L436.208 275.706C436.151 275.8 436.088 275.89 436.019 275.976C435.544 276.46 434.956 276.82 434.309 277.022C433.662 277.225 432.975 277.264 432.309 277.136C431.527 277.015 430.755 276.837 429.999 276.606C429.549 276.486 429.098 276.366 428.628 276.256C428.23 276.161 427.826 276.091 427.418 276.046C426.014 275.913 424.598 276.056 423.249 276.466C421.818 276.899 420.419 277.427 419.059 278.046C418.059 278.466 417.058 278.896 416.108 279.236C412.105 280.631 407.774 280.792 403.678 279.696C402.748 279.446 401.818 279.126 400.918 278.816C399.612 278.34 398.276 277.949 396.918 277.646C396.608 277.586 396.298 277.556 395.988 277.506C393.855 277.245 391.704 277.178 389.559 277.306L380.789 277.586V278.586L389.678 278.306Z" fill="#2B266D"/>
<path d="M444.468 298.856C444.468 296.276 440.988 294.176 436.708 294.176C432.428 294.176 428.948 296.276 428.948 298.856C428.948 301.096 431.798 301.526 436.708 301.526C441.618 301.526 444.468 301.086 444.468 298.856Z" fill="#FF5787"/>
<path d="M436.708 293.176C431.878 293.176 427.948 295.726 427.948 298.856C427.948 302.526 433.218 302.526 436.708 302.526C440.198 302.526 445.468 302.526 445.468 298.856C445.468 295.726 441.538 293.176 436.708 293.176ZM428.948 298.856C428.948 296.276 432.428 294.176 436.708 294.176C440.988 294.176 444.468 296.276 444.468 298.856C444.468 301.096 441.618 301.526 436.708 301.526C431.798 301.526 428.948 301.086 428.948 298.856Z" fill="#2B266D"/>
<path d="M464.358 289.806C460.938 289.806 458.038 291.356 458.038 293.196C458.026 293.324 458.042 293.453 458.085 293.574C458.128 293.695 458.198 293.805 458.288 293.896C458.908 294.506 460.698 294.476 462.768 294.446H464.358H465.958C468.028 294.446 469.818 294.506 470.438 293.896C470.529 293.805 470.599 293.695 470.642 293.574C470.685 293.453 470.701 293.324 470.688 293.196C470.668 291.356 467.768 289.806 464.358 289.806Z" fill="#FF5787"/>
<path d="M464.359 288.806C460.259 288.806 457.039 290.736 457.039 293.196C457.026 293.457 457.069 293.717 457.164 293.96C457.258 294.203 457.403 294.423 457.588 294.606C458.508 295.516 460.389 295.486 462.789 295.446C463.789 295.446 464.929 295.446 465.939 295.446H467.289C469.029 295.446 470.398 295.326 471.138 294.596C471.324 294.413 471.469 294.192 471.564 293.95C471.658 293.707 471.701 293.447 471.689 293.186C471.669 290.736 468.449 288.806 464.359 288.806ZM470.439 293.896C469.819 294.506 468.029 294.476 465.959 294.446H464.359H462.769C460.699 294.446 458.909 294.506 458.289 293.896C458.198 293.805 458.128 293.695 458.085 293.574C458.042 293.453 458.026 293.324 458.039 293.196C458.039 291.356 460.939 289.806 464.359 289.806C467.779 289.806 470.689 291.356 470.689 293.196C470.699 293.326 470.68 293.456 470.633 293.577C470.586 293.698 470.513 293.807 470.419 293.896H470.439Z" fill="#2B266D"/>
</svg>
