<svg width="800" height="400" viewBox="0 0 800 400" fill="none" xmlns="http://www.w3.org/2000/svg">
<path d="M393.529 385.032C410.357 385.032 467.038 385.703 473.286 386.042C479.535 386.382 486.872 389.72 482.071 389.72C477.269 389.72 319.026 389.72 311.34 388.378C303.653 387.036 310.372 386.042 319.985 385.371C329.597 384.7 393.529 385.032 393.529 385.032Z" fill="#2B266D"/>
<path d="M463.996 327.261H439.185L439.011 327.218C438.828 327.218 420.867 326.834 412.134 326.834C406.2 326.834 391.219 326.094 380.517 319.235C377.136 317.074 375.193 314.695 374.731 312.167C374.431 310.581 374.742 308.94 375.602 307.575C375.641 307.528 375.668 307.473 375.681 307.414C375.695 307.355 375.695 307.294 375.681 307.235C375.671 307.176 375.648 307.12 375.615 307.071C375.582 307.021 375.539 306.979 375.489 306.947L358.983 296.489C358.899 296.44 358.8 296.419 358.703 296.43C358.605 296.441 358.514 296.483 358.443 296.55C358.181 296.812 352.107 303.078 356.377 315.096C358.12 319.958 362.547 323.81 369.232 326.155C366.671 325.871 364.149 325.307 361.711 324.473C354.277 321.501 351.253 316.368 351.253 316.316L350.504 316.751C350.626 316.978 353.685 322.189 361.406 325.283C364.401 326.288 367.505 326.937 370.652 327.218H351.436V344.734H355.794V361.092H349.118V388.247H461.661V362.922H468.345V343.75H463.987L463.996 327.261ZM366.687 387.393H349.998V383.289L365.816 383.411H366.687L398.217 383.655V382.783L366.678 382.539H365.807L349.989 382.417V361.981H444.109V366.591L411.463 366.295V367.166L444.118 367.462V387.393H366.687ZM352.316 332.926L368.142 333.144H369.014L379.794 333.292V332.42L369.005 332.272H368.134L352.308 332.054V328.107H446.427V338.974L424.71 338.669V339.54L446.445 339.845V343.88H352.325L352.316 332.926ZM374.687 307.427C373.854 308.899 373.564 310.616 373.868 312.28C374.373 315.061 376.482 317.64 380.047 319.941C387.376 324.629 396.605 326.512 403.707 327.235H377.145C376.395 327.122 375.524 326.965 374.53 326.756C368.709 325.483 359.863 322.346 357.197 314.817C353.589 304.664 357.781 298.721 358.835 297.448L374.687 307.427ZM356.674 349.318L372.5 349.397H373.371L432.187 349.693V348.822L373.371 348.525H372.5L356.674 348.447V344.813H450.793V361.127H444.989H356.674V349.318Z" fill="#2B266D"/>
<path d="M357.231 314.843C359.898 322.372 368.744 325.51 374.565 326.782C375.524 326.991 376.395 327.148 377.18 327.261H403.681C396.579 326.538 387.35 324.647 380.021 319.967C376.421 317.666 374.347 315.087 373.842 312.307C373.538 310.643 373.828 308.925 374.661 307.453L358.844 297.474C357.815 298.746 353.623 304.69 357.231 314.843Z" fill="#7169EA"/>
<path d="M433.721 186.492C431.978 185.123 419.385 175.45 399.263 170.212C385.592 166.831 371.49 165.532 357.432 166.36L358.582 199.799C366.635 199.884 374.673 200.501 382.644 201.646C390.578 199.167 398.128 195.595 405.076 191.032L405.668 190.614L408.283 210.797C414.859 214.772 421.163 219.183 427.15 224L433.721 186.492Z" fill="#7169EA"/>
<path d="M368.578 343.906H369.014H372.5H446.427V343.767V339.872L424.693 339.566L424.71 338.695L446.427 338.991V328.133H432.187H399.681H381.52H377.04H369.014H368.578H368.142H352.316V332.081L368.142 332.298H368.578L369.014 332.307L379.812 332.455L379.794 333.327L369.014 333.179L368.578 333.17H368.142L352.316 332.952V343.906H368.142H368.578Z" fill="#5ED7B1"/>
<path d="M372.936 361.135H373.371H444.98V361.153H450.785V346.46V346.024V345.588V344.839H373.371H372.936H372.5H369.014H368.578H368.142H356.674V348.473L372.5 348.551L372.936 348.56H373.371L432.187 348.856L432.179 349.728L373.371 349.432H372.936L372.5 349.423L356.674 349.344V361.135H372.5H372.936Z" fill="#5ED7B1"/>
<path d="M411.455 367.192L411.464 366.321L444.109 366.617V362.966V362.53V362.242V362.094V362.024V362.007H373.371H372.936H372.5H366.251H365.816H355.802H349.998V382.443L365.816 382.565H366.251L366.687 382.574L398.226 382.818L398.217 383.689L366.687 383.445L366.251 383.437H365.816L349.998 383.315V387.419H365.816H366.251H366.687H444.109V367.489L411.455 367.192Z" fill="#5ED7B1"/>
<path d="M345.728 101.993C350.242 105.584 359.506 111.065 377.973 116.808C387.864 119.867 397.189 121.384 406.208 122.856C419.42 125.009 431.917 127.04 444.71 133.61C445.425 126.639 445.887 119.667 446.34 112.93C447.516 95.2304 448.449 80.4502 448.832 65.0948L447.717 64.5631C431.708 57.0161 414.601 53.2864 398.113 49.6872C370.661 43.6914 344.691 38.0267 332.926 14.9064L340.29 95.5965C340.29 95.5965 340.856 98.1239 345.728 101.993Z" fill="#5ED7B1"/>
<path d="M377.755 117.619C387.698 120.695 397.058 122.22 406.104 123.719C419.446 125.898 432.039 127.946 444.911 134.682L445.486 134.987L445.547 134.342C446.297 127.118 446.776 119.937 447.246 113C448.432 95.1781 449.364 80.3194 449.739 64.8507V64.5718L449.251 64.328L448.127 63.7963C432.03 56.2144 414.906 52.4672 398.339 48.8592C369.04 42.4626 343.741 36.9373 332.708 12.3791L331.645 10L339.488 95.7358C339.532 96.1193 341.649 106.446 377.755 117.619ZM398.147 49.6435C414.662 53.2427 431.743 56.9727 447.752 64.5197L448.867 65.0511C448.484 80.4066 447.551 95.1869 446.375 112.887C445.922 119.614 445.504 126.569 444.745 133.567C431.952 126.996 419.472 124.965 406.243 122.813C397.224 121.34 387.899 119.824 378.008 116.765C359.506 111.039 350.242 105.557 345.763 101.95C340.891 98.0802 340.36 95.5354 340.36 95.5354L332.996 14.8455C344.726 38.0093 370.696 43.6739 398.147 49.6697V49.6435Z" fill="#2B266D"/>
<path d="M471.927 210.065C476.475 205.444 480.028 199.942 482.369 193.896C484.711 187.85 485.789 181.388 485.539 174.91L483.726 127.458L483.535 122.429C483.535 122.682 483.465 122.943 483.421 123.205C483.282 124.233 483.099 125.305 482.89 126.412C481.426 133.942 478.227 142.97 471.317 150.125C470.082 151.356 468.757 152.492 467.351 153.524L467.011 153.785L466.663 154.047C455.874 162.021 435.481 172.417 432.675 173.838L434.531 186.038L434.601 186.5L440.702 226.484L440.824 227.285L440.946 228.07L441.163 229.508C442.61 228.88 446.95 226.954 452.188 224.096L452.597 223.878L452.989 223.651C459.133 220.253 466.349 215.642 471.595 210.396L471.927 210.065Z" fill="#5ED7B1"/>
<path d="M486.41 174.875L484.066 113.453C484.066 112.529 484.014 111.963 484.005 111.832C483.552 105.636 480.345 97.0169 475.822 89.8534C472.925 85.3165 469.405 81.2095 465.364 77.6527L464.693 77.1038L460.815 148.739V149.131L461.207 149.192C461.207 149.192 462.95 149.515 466.122 153.349C454.741 161.733 432.266 173.062 432.004 173.193L431.725 173.332L433.538 185.211C423.289 177.824 411.737 172.44 399.489 169.341C385.599 165.893 371.262 164.594 356.979 165.489C356.868 165.5 356.765 165.553 356.692 165.637C356.619 165.722 356.581 165.831 356.586 165.942L357.763 200.209C357.764 200.265 357.776 200.32 357.799 200.371C357.821 200.423 357.854 200.469 357.894 200.508C357.935 200.547 357.982 200.577 358.035 200.598C358.087 200.618 358.143 200.628 358.199 200.627C365.719 200.695 373.227 201.221 380.683 202.204C374.953 203.871 369.001 204.65 363.036 204.514C357.05 204.405 351.096 203.627 345.283 202.196L340.351 167.859L339.915 167.92C335.583 168.543 331.672 170.851 329.031 174.341C326.391 177.832 325.235 182.223 325.815 186.561C325.808 187.66 325.97 188.753 326.294 189.803L327.026 194.936C327.135 195.651 327.289 196.358 327.488 197.054L333.449 234.048C334.491 237.68 336.402 241.003 339.018 243.73C343.105 248.157 350.913 253.525 364.944 253.926C365.815 253.926 366.687 253.926 367.602 253.926C383.113 253.858 398.411 250.311 412.37 243.547L412.631 243.408L408.483 211.834C415.021 215.83 421.286 220.255 427.237 225.081C427.317 225.143 427.415 225.176 427.516 225.176C427.565 225.185 427.615 225.185 427.664 225.176C427.735 225.15 427.799 225.106 427.848 225.048C427.896 224.99 427.93 224.92 427.943 224.845L434.157 189.184L440.074 227.93C438.898 230.545 437.73 232.915 436.727 234.615C432.945 241.046 428.736 246.676 428.692 246.737L428.509 246.989L428.692 247.251C428.692 247.251 431.551 251.452 429.704 259.948C428.832 264.097 426.217 268.881 423.838 272.75C422.967 273.012 422.139 273.265 421.224 273.491C409.276 276.389 397.11 278.292 384.848 279.182C384.754 279.187 384.663 279.223 384.591 279.285C384.519 279.346 384.468 279.429 384.448 279.522L379.463 302.18C379.448 302.244 379.448 302.31 379.463 302.374C379.478 302.437 379.508 302.496 379.55 302.546C379.59 302.598 379.642 302.64 379.701 302.669C379.76 302.697 379.824 302.712 379.89 302.712C389.117 302.425 398.238 300.66 406.906 297.483C409.781 296.402 412.413 295.33 414.749 294.311C419.359 292.289 423.037 288.846 426.592 285.509C427.612 284.541 428.64 283.583 429.695 282.642C439.281 274.11 447.316 260.968 449.503 257.229C451.795 254.249 455.935 246.981 454.784 234.327C454.5 231.03 453.973 227.759 453.207 224.54C459.456 221.098 466.837 216.401 472.214 211.032L472.545 210.693C477.181 205.986 480.802 200.38 483.187 194.219C485.572 188.059 486.669 181.475 486.41 174.875ZM425.991 284.855C422.331 288.289 418.88 291.539 414.4 293.5C412.091 294.511 409.468 295.574 406.609 296.655C398.216 299.728 389.396 301.475 380.465 301.831L385.267 280.045C397.472 279.142 409.583 277.239 421.477 274.354C422.043 274.206 422.584 274.049 423.133 273.883L423.769 273.709L424.431 273.491C430.939 271.345 437.006 268.041 442.34 263.739C443.386 262.868 444.344 262.075 445.189 261.308C446.035 260.541 446.61 259.992 447.185 259.417L446.436 260.611C442.898 266.197 436.483 275.426 429.146 281.971C428.082 282.921 427.028 283.888 425.991 284.855ZM452.597 223.852L452.187 224.07C446.959 226.928 442.601 228.854 441.163 229.482L440.945 228.044L440.824 227.259L440.701 226.457L434.601 186.474L434.531 186.012L432.675 173.812C435.481 172.391 455.874 161.994 466.663 154.02L467.011 153.759L467.351 153.497C468.757 152.466 470.082 151.33 471.317 150.099C478.227 142.979 481.425 133.915 482.89 126.386C483.099 125.279 483.282 124.207 483.421 123.179C483.465 122.917 483.5 122.656 483.534 122.403L483.726 127.432L485.539 174.883C485.789 181.362 484.71 187.823 482.369 193.869C480.028 199.915 476.474 205.418 471.927 210.039L471.595 210.37C466.366 215.599 459.133 220.226 452.989 223.625L452.597 223.852ZM364.944 253.037C338.756 252.288 334.312 234.031 334.277 233.865L328.926 200.592L328.69 199.145L328.316 196.836L327.601 192.365L327.671 192.452C331.105 196.513 335.662 200.418 344.499 202.867L344.952 202.989L345.414 203.111C351.176 204.486 357.069 205.239 362.992 205.359C369.679 205.484 376.342 204.509 382.713 202.474L383.655 202.178L384.526 201.891C391.718 199.469 398.587 196.177 404.98 192.086L407.359 210.187L407.429 210.719L407.498 211.276L411.655 242.928C397.095 249.924 381.094 253.395 364.944 253.064V253.037ZM405.668 190.57L405.076 190.988C398.135 195.546 390.594 199.115 382.67 201.594C374.699 200.449 366.661 199.832 358.608 199.747L357.458 166.308C371.516 165.48 385.619 166.778 399.289 170.16C419.411 175.389 432.022 185.071 433.747 186.439L427.211 223.913C421.223 219.096 414.92 214.685 408.344 210.71L405.668 190.57Z" fill="#2B266D"/>
<path d="M407.507 211.311L407.437 210.753L407.368 210.222L404.988 192.121C398.588 196.214 391.71 199.506 384.509 201.925L383.637 202.213L382.696 202.509C376.324 204.544 369.662 205.519 362.975 205.394C357.052 205.274 351.159 204.52 345.397 203.145L344.935 203.023L344.482 202.901C335.645 200.453 331.087 196.548 327.654 192.487L327.584 192.4L328.298 196.871L328.673 199.18L328.908 200.627L334.259 233.9C334.259 234.057 338.739 252.314 364.927 253.072C381.077 253.416 397.081 249.956 411.646 242.972L407.507 211.311Z" fill="#5ED7B1"/>
<path d="M446.384 260.611L447.133 259.417C446.558 259.992 445.887 260.628 445.137 261.308C444.388 261.988 443.333 262.894 442.288 263.739C436.953 268.041 430.887 271.345 424.379 273.491L423.716 273.709L423.08 273.883C422.531 274.049 421.991 274.206 421.425 274.354C409.531 277.239 397.42 279.142 385.215 280.045L380.413 301.831C389.344 301.475 398.164 299.728 406.557 296.655C409.416 295.574 412.039 294.511 414.348 293.5C418.827 291.539 422.279 288.271 425.939 284.855C426.976 283.888 428.004 282.921 429.067 281.971C436.457 275.461 442.898 266.197 446.384 260.611Z" fill="#7169EA"/>
<path d="M411.952 251.312C401.796 256.78 390.465 259.702 378.931 259.826V260.698C390.604 260.564 402.071 257.607 412.352 252.079L411.952 251.312Z" fill="#2B266D"/>
<path d="M422.741 139.345C430.723 139.345 446.427 148.443 452.745 156.678L453.443 156.155C446.863 147.589 431.089 138.499 422.741 138.473V139.345Z" fill="#2B266D"/>
<path d="M444.144 140.852C435.124 133.828 423.673 131.893 412.596 130.011C406.881 129.166 401.223 127.97 395.655 126.429L395.402 127.301C401.009 128.848 406.704 130.053 412.457 130.909C423.926 132.852 434.758 134.691 443.612 141.576L444.144 140.852Z" fill="#2B266D"/>
<path d="M341.371 220.174C335.635 218.108 330.509 214.639 326.459 210.082C323.627 206.884 322.425 203.886 322.895 201.159L323.767 201.298C323.348 203.755 324.481 206.527 327.131 209.507C331.081 213.954 336.085 217.338 341.684 219.346L341.371 220.174Z" fill="#2B266D"/>
<path d="M360.526 230.815C338.991 230.815 329.013 220.845 325.667 216.496L326.355 215.965C329.649 220.279 339.654 230.283 361.563 229.909V230.78L360.526 230.815Z" fill="#2B266D"/>
<path d="M454.933 186.962L454.532 186.187C475.151 175.537 489.469 153.689 491.003 130.525L491.875 130.586C490.323 154.046 475.822 176.217 454.933 186.962Z" fill="#2B266D"/>
</svg>
