<svg width="800" height="400" viewBox="0 0 800 400" fill="none" xmlns="http://www.w3.org/2000/svg">
<path d="M160.023 378C156.935 378 155.519 374.153 157.87 372.151L191.183 343.792C191.784 343.281 192.547 343 193.335 343H602.093C602.821 343 603.53 343.24 604.109 343.683L641.206 372.042C643.729 373.97 642.365 378 639.189 378H160.023Z" fill="#2B266D"/>
<path d="M605.84 376.131H265.183C247.022 376.131 238.881 365.438 238.881 352.978V52.0252C238.881 45.289 245.992 39.0002 253.844 39.0002H607.734C615.037 39.0002 620.295 44.8533 620.295 51.1302V363.742C620.295 370.561 613.802 376.131 605.854 376.131H605.84Z" fill="#2B266D"/>
<path d="M608.658 39.8354H259.407C251.91 39.8354 245.832 45.1338 245.832 51.6697V364.297C245.832 370.833 251.91 376.131 259.407 376.131H608.658C616.155 376.131 622.232 370.833 622.232 364.297V51.6697C622.232 45.1338 616.155 39.8354 608.658 39.8354Z" fill="white" stroke="#2B266D" stroke-width="2" stroke-miterlimit="10"/>
<path d="M245.832 52.7198C245.832 46.0656 251.226 40.6714 257.88 40.6714H358.209V375.296H257.88C251.226 375.296 245.832 369.902 245.832 363.247V52.7198Z" fill="#FAFAFA"/>
<path d="M334.663 95.3977H266.781C264.901 95.3977 263.377 97.0446 263.377 99.0762V105.395C263.377 107.427 264.901 109.073 266.781 109.073H334.663C336.543 109.073 338.067 107.427 338.067 105.395V99.0762C338.067 97.0446 336.543 95.3977 334.663 95.3977Z" fill="#D5D2F9"/>
<rect x="263.377" y="119.073" width="81.4629" height="8" rx="4" fill="#D5D4D2"/>
<rect x="263.377" y="137.073" width="81.4629" height="8" rx="4" fill="#D5D4D2"/>
<rect x="266.581" y="162.455" width="74.2146" height="20.9679" rx="10.4839" fill="#FF5787" stroke="#FF5787" stroke-width="6.40841"/>
<path d="M279.428 178.12C278.478 178.12 277.608 177.915 276.818 177.505C276.028 177.095 275.393 176.485 274.913 175.675C274.443 174.865 274.208 173.89 274.208 172.75C274.208 171.61 274.448 170.635 274.928 169.825C275.408 169.015 276.043 168.405 276.833 167.995C277.623 167.585 278.488 167.38 279.428 167.38C280.258 167.38 281.003 167.525 281.663 167.815C282.323 168.095 282.863 168.5 283.283 169.03C283.703 169.56 283.973 170.175 284.093 170.875L282.068 171.295C281.938 170.625 281.633 170.1 281.153 169.72C280.683 169.33 280.108 169.135 279.428 169.135C278.828 169.135 278.288 169.275 277.808 169.555C277.338 169.835 276.963 170.25 276.683 170.8C276.413 171.34 276.278 171.99 276.278 172.75C276.278 173.51 276.413 174.165 276.683 174.715C276.953 175.255 277.328 175.665 277.808 175.945C278.288 176.215 278.828 176.35 279.428 176.35C280.108 176.35 280.673 176.175 281.123 175.825C281.573 175.475 281.868 174.99 282.008 174.37L284.063 174.82C283.803 175.85 283.263 176.66 282.443 177.25C281.633 177.83 280.628 178.12 279.428 178.12ZM285.396 167.5H287.436V176.23H292.311V178H285.396V167.5ZM293.482 167.5H295.522V178H293.482V167.5ZM297.495 167.5H304.515V169.255H299.535V171.565H303.525V173.335H299.535V176.23H304.68V178H297.495V167.5ZM306.197 167.5H308.267L312.767 174.79V167.5H314.672V178H312.602L308.117 170.725V178H306.197V167.5ZM319.085 169.255H315.92V167.5H324.29V169.255H321.125V178H319.085V169.255ZM328.895 178.12C328.215 178.12 327.58 177.98 326.99 177.7C326.4 177.41 325.915 177.015 325.535 176.515C325.155 176.015 324.925 175.45 324.845 174.82L326.66 174.265C326.74 174.885 326.995 175.395 327.425 175.795C327.865 176.185 328.38 176.38 328.97 176.38C329.52 176.38 329.96 176.26 330.29 176.02C330.62 175.78 330.785 175.46 330.785 175.06C330.785 174.75 330.685 174.495 330.485 174.295C330.295 174.095 330.05 173.935 329.75 173.815C329.45 173.695 329.045 173.56 328.535 173.41C327.835 173.2 327.265 172.995 326.825 172.795C326.385 172.585 326.005 172.275 325.685 171.865C325.375 171.455 325.22 170.92 325.22 170.26C325.22 169.71 325.38 169.215 325.7 168.775C326.02 168.335 326.455 167.995 327.005 167.755C327.565 167.505 328.185 167.38 328.865 167.38C329.525 167.38 330.13 167.49 330.68 167.71C331.23 167.93 331.685 168.245 332.045 168.655C332.415 169.055 332.655 169.515 332.765 170.035L330.935 170.785C330.825 170.275 330.585 169.87 330.215 169.57C329.855 169.27 329.405 169.12 328.865 169.12C328.365 169.12 327.97 169.225 327.68 169.435C327.39 169.635 327.245 169.91 327.245 170.26C327.245 170.5 327.33 170.695 327.5 170.845C327.67 170.995 327.88 171.115 328.13 171.205C328.38 171.295 328.745 171.405 329.225 171.535C329.965 171.715 330.58 171.915 331.07 172.135C331.56 172.345 331.98 172.68 332.33 173.14C332.68 173.6 332.855 174.225 332.855 175.015C332.855 175.625 332.69 176.165 332.36 176.635C332.03 177.105 331.565 177.47 330.965 177.73C330.365 177.99 329.675 178.12 328.895 178.12Z" fill="white"/>
<rect x="263.377" y="200.805" width="81.4629" height="8" rx="4" fill="#D5D4D2"/>
<rect x="263.377" y="218.805" width="81.4629" height="8" rx="4" fill="#D5D4D2"/>
<rect x="263.377" y="236.805" width="81.4629" height="8" rx="4" fill="#D5D4D2"/>
<rect x="263.377" y="254.805" width="81.4629" height="8" rx="4" fill="#D5D4D2"/>
<rect x="263.377" y="272.805" width="81.4629" height="8" rx="4" fill="#D5D4D2"/>
<rect x="263.377" y="290.805" width="81.4629" height="8" rx="4" fill="#D5D4D2"/>
<rect x="263.377" y="308.805" width="81.4629" height="8" rx="4" fill="#D5D4D2"/>
<rect x="263.377" y="326.805" width="81.4629" height="8" rx="4" fill="#D5D4D2"/>
<path d="M524.667 94.6233L535.066 93.3015" stroke="#2B266D" stroke-width="2" stroke-miterlimit="10" stroke-linecap="round"/>
<path d="M520.676 90.0392L529.934 77.9483" stroke="#2B266D" stroke-width="2" stroke-miterlimit="10" stroke-linecap="round"/>
<path d="M514.007 85.753L517.311 74.9201" stroke="#2B266D" stroke-width="2" stroke-miterlimit="10" stroke-linecap="round"/>
<rect x="394" y="95" width="128.203" height="23.8325" rx="11.9163" fill="#8EE9CC"/>
<path d="M432.11 101.5H436.235C437.225 101.5 438.02 101.74 438.62 102.22C439.23 102.69 439.535 103.35 439.535 104.2C439.535 104.66 439.41 105.075 439.16 105.445C438.91 105.815 438.61 106.09 438.26 106.27C438.79 106.47 439.22 106.79 439.55 107.23C439.88 107.67 440.045 108.22 440.045 108.88C440.045 109.85 439.71 110.615 439.04 111.175C438.38 111.725 437.495 112 436.385 112H432.11V101.5ZM436.175 110.23C437.465 110.23 438.11 109.75 438.11 108.79C438.11 107.81 437.465 107.32 436.175 107.32H434.15V110.23H436.175ZM436.085 105.595C436.595 105.595 436.98 105.49 437.24 105.28C437.5 105.07 437.63 104.765 437.63 104.365C437.63 103.545 437.105 103.135 436.055 103.135H434.15V105.595H436.085ZM441.559 101.5H443.599V112H441.559V101.5ZM445.572 101.5H447.612V110.23H452.487V112H445.572V101.5ZM453.658 101.5H455.698V110.23H460.573V112H453.658V101.5ZM461.744 101.5H463.784V112H461.744V101.5ZM465.758 101.5H467.828L472.328 108.79V101.5H474.233V112H472.163L467.678 104.725V112H465.758V101.5ZM480.911 112.12C479.991 112.12 479.141 111.915 478.361 111.505C477.581 111.095 476.951 110.49 476.471 109.69C476.001 108.88 475.766 107.9 475.766 106.75C475.766 105.6 476.006 104.625 476.486 103.825C476.976 103.015 477.621 102.405 478.421 101.995C479.231 101.585 480.106 101.38 481.046 101.38C482.306 101.38 483.356 101.69 484.196 102.31C485.036 102.93 485.556 103.785 485.756 104.875L483.746 105.295C483.616 104.635 483.306 104.11 482.816 103.72C482.326 103.33 481.731 103.135 481.031 103.135C480.401 103.135 479.841 103.28 479.351 103.57C478.871 103.85 478.496 104.265 478.226 104.815C477.956 105.355 477.821 106 477.821 106.75C477.821 107.5 477.956 108.145 478.226 108.685C478.496 109.225 478.871 109.64 479.351 109.93C479.831 110.21 480.381 110.35 481.001 110.35C481.791 110.35 482.436 110.14 482.936 109.72C483.436 109.29 483.711 108.73 483.761 108.04H480.641V106.39H485.651V112H483.806V110.725C483.576 111.145 483.196 111.485 482.666 111.745C482.136 111.995 481.551 112.12 480.911 112.12Z" fill="#2B266D"/>
<rect x="528.777" y="98.0818" width="73.9631" height="17.669" rx="8.83448" fill="#D5D4D2"/>
<rect x="394" y="131.16" width="11.0945" height="10.6836" rx="5.34178" fill="#8EE9CC"/>
<path d="M397.287 136.452C397.83 137.016 398.896 138.145 398.824 138.145C398.752 138.145 400.451 136.319 401.807 134.858" stroke="#2B276D" stroke-width="0.821812" stroke-linecap="round"/>
<rect x="413.312" y="132.502" width="27.9416" height="8" rx="4" fill="#D5D4D2"/>
<rect x="449.472" y="132.502" width="87.5229" height="8" rx="4" fill="#D5D4D2"/>
<rect x="545.213" y="132.502" width="25.8871" height="8" rx="4" fill="#FF5787"/>
<rect x="579.318" y="132.502" width="23.4216" height="8" rx="4" fill="#D5D4D2"/>
<rect x="394" y="154.17" width="11.0945" height="10.6836" rx="5.34178" fill="#8EE9CC"/>
<path d="M397.287 159.462C397.83 160.027 398.896 161.156 398.824 161.156C398.752 161.156 400.451 159.33 401.807 157.869" stroke="#2B276D" stroke-width="0.821812" stroke-linecap="round"/>
<rect x="413.312" y="155.512" width="27.9416" height="8" rx="4" fill="#D5D4D2"/>
<rect x="449.472" y="155.512" width="87.5229" height="8" rx="4" fill="#D5D4D2"/>
<rect x="545.213" y="155.512" width="25.8871" height="8" rx="4" fill="#FF5787"/>
<rect x="579.318" y="155.512" width="23.4216" height="8" rx="4" fill="#D5D4D2"/>
<rect x="394" y="177.181" width="11.0945" height="10.6836" rx="5.34178" fill="#8EE9CC"/>
<path d="M397.287 182.473C397.83 183.038 398.896 184.167 398.824 184.167C398.752 184.167 400.451 182.34 401.807 180.879" stroke="#2B276D" stroke-width="0.821812" stroke-linecap="round"/>
<rect x="413.312" y="178.523" width="27.9416" height="8" rx="4" fill="#D5D4D2"/>
<rect x="449.472" y="178.523" width="87.5229" height="8" rx="4" fill="#D5D4D2"/>
<rect x="545.213" y="178.523" width="25.8871" height="8" rx="4" fill="#FF5787"/>
<rect x="579.318" y="178.523" width="23.4216" height="8" rx="4" fill="#D5D4D2"/>
<rect x="394" y="200.192" width="11.0945" height="10.6836" rx="5.34178" fill="#8EE9CC"/>
<path d="M397.287 205.484C397.83 206.048 398.896 207.177 398.824 207.177C398.752 207.177 400.451 205.351 401.807 203.89" stroke="#2B276D" stroke-width="0.821812" stroke-linecap="round"/>
<rect x="413.312" y="201.534" width="27.9416" height="8" rx="4" fill="#D5D4D2"/>
<rect x="449.472" y="201.534" width="87.5229" height="8" rx="4" fill="#D5D4D2"/>
<rect x="545.213" y="201.534" width="25.8871" height="8" rx="4" fill="#FF5787"/>
<rect x="579.318" y="201.534" width="23.4216" height="8" rx="4" fill="#D5D4D2"/>
<rect x="394" y="223.203" width="11.0945" height="10.6836" rx="5.34178" fill="#8EE9CC"/>
<path d="M397.287 228.495C397.83 229.059 398.896 230.188 398.824 230.188C398.752 230.188 400.451 228.362 401.807 226.901" stroke="#2B276D" stroke-width="0.821812" stroke-linecap="round"/>
<rect x="413.312" y="224.544" width="27.9416" height="8" rx="4" fill="#D5D4D2"/>
<rect x="449.472" y="224.544" width="87.5229" height="8" rx="4" fill="#D5D4D2"/>
<rect x="545.213" y="224.544" width="25.8871" height="8" rx="4" fill="#FF5787"/>
<rect x="579.318" y="224.544" width="23.4216" height="8" rx="4" fill="#D5D4D2"/>
<rect x="394" y="246.213" width="11.0945" height="10.6836" rx="5.34178" fill="#D5D4D2"/>
<rect x="413.312" y="247.555" width="27.9416" height="8" rx="4" fill="#D5D4D2"/>
<rect x="449.472" y="247.555" width="87.5229" height="8" rx="4" fill="#D5D4D2"/>
<rect x="545.213" y="247.555" width="25.8871" height="8" rx="4" fill="#8EE9CC"/>
<rect x="579.318" y="247.555" width="23.4216" height="8" rx="4" fill="#D5D4D2"/>
<rect x="394" y="269.224" width="11.0945" height="10.6836" rx="5.34178" fill="#D5D4D2"/>
<rect x="413.312" y="270.566" width="27.9416" height="8" rx="4" fill="#D5D4D2"/>
<rect x="449.472" y="270.566" width="87.5229" height="8" rx="4" fill="#D5D4D2"/>
<rect x="545.213" y="270.566" width="25.8871" height="8" rx="4" fill="#8EE9CC"/>
<rect x="579.318" y="270.566" width="23.4216" height="8" rx="4" fill="#D5D4D2"/>
<rect x="394" y="292.235" width="11.0945" height="10.6836" rx="5.34178" fill="#D5D4D2"/>
<rect x="413.312" y="293.577" width="27.9416" height="8" rx="4" fill="#D5D4D2"/>
<rect x="449.472" y="293.577" width="87.5229" height="8" rx="4" fill="#D5D4D2"/>
<rect x="545.213" y="293.577" width="25.8871" height="8" rx="4" fill="#8EE9CC"/>
<rect x="579.318" y="293.577" width="23.4216" height="8" rx="4" fill="#D5D4D2"/>
<rect x="394" y="315.246" width="11.0945" height="10.6836" rx="5.34178" fill="#D5D4D2"/>
<rect x="413.312" y="316.587" width="27.9416" height="8" rx="4" fill="#D5D4D2"/>
<rect x="449.472" y="316.587" width="87.5229" height="8" rx="4" fill="#D5D4D2"/>
<rect x="545.213" y="316.587" width="25.8871" height="8" rx="4" fill="#8EE9CC"/>
<rect x="579.318" y="316.587" width="23.4216" height="8" rx="4" fill="#D5D4D2"/>
<path d="M556.332 139.868L542.295 145.082L554.395 161.001C554.597 161.26 554.523 161.623 554.225 161.795L538.475 171.439C538.188 171.621 537.783 171.554 537.592 171.286L525.609 155.51L515.201 165.46C514.658 165.986 513.679 165.708 513.562 164.991L506.028 117.185C505.751 115.625 507.603 114.468 509.124 115.252L556.428 138.328C557.13 138.672 557.077 139.6 556.332 139.868Z" fill="white" stroke="#2B266D" stroke-width="2" stroke-miterlimit="10"/>
</svg>
