<svg width="800" height="400" viewBox="0 0 800 400" fill="none" xmlns="http://www.w3.org/2000/svg">
<path d="M160.023 378C156.935 378 155.519 374.153 157.87 372.151L191.183 343.792C191.784 343.281 192.547 343 193.335 343H602.093C602.821 343 603.53 343.24 604.109 343.683L641.206 372.042C643.729 373.97 642.365 378 639.189 378H160.023Z" fill="#2B266D"/>
<path d="M605.84 376.131H265.183C247.022 376.131 238.881 365.438 238.881 352.978V52.0252C238.881 45.289 245.992 39.0002 253.844 39.0002H607.734C615.037 39.0002 620.295 44.8533 620.295 51.1302V363.742C620.295 370.561 613.802 376.131 605.854 376.131H605.84Z" fill="#2B266D"/>
<path d="M608.658 39.8354H259.407C251.91 39.8354 245.832 45.1338 245.832 51.6697V364.297C245.832 370.833 251.91 376.131 259.407 376.131H608.658C616.155 376.131 622.232 370.833 622.232 364.297V51.6697C622.232 45.1338 616.155 39.8354 608.658 39.8354Z" fill="white" stroke="#2B266D" stroke-width="2" stroke-miterlimit="10"/>
<path d="M245.832 52.7198C245.832 46.0656 251.226 40.6714 257.88 40.6714H358.209V375.296H257.88C251.226 375.296 245.832 369.902 245.832 363.247V52.7198Z" fill="#FAFAFA"/>
<path d="M334.663 95.3977H266.781C264.901 95.3977 263.377 97.0446 263.377 99.0762V105.395C263.377 107.427 264.901 109.073 266.781 109.073H334.663C336.543 109.073 338.067 107.427 338.067 105.395V99.0762C338.067 97.0446 336.543 95.3977 334.663 95.3977Z" fill="#D5D2F9"/>
<rect x="263.377" y="119.073" width="81.4629" height="8" rx="4" fill="#D5D4D2"/>
<rect x="263.377" y="137.073" width="81.4629" height="8" rx="4" fill="#D5D4D2"/>
<rect x="266.581" y="158.278" width="57.5916" height="7.59159" rx="3.79579" fill="#2B266D" stroke="#2B266D" stroke-width="6.40841"/>
<path d="M275.823 159.4H278.079C278.452 159.4 278.78 159.472 279.063 159.616C279.346 159.755 279.562 159.955 279.711 160.216C279.866 160.472 279.943 160.771 279.943 161.112C279.943 161.453 279.866 161.752 279.711 162.008C279.562 162.264 279.346 162.464 279.063 162.608C278.78 162.747 278.452 162.816 278.079 162.816H276.911V165H275.823V159.4ZM277.983 161.88C278.255 161.88 278.468 161.813 278.623 161.68C278.778 161.541 278.855 161.352 278.855 161.112C278.855 160.867 278.778 160.677 278.623 160.544C278.468 160.405 278.255 160.336 277.983 160.336H276.911V161.88H277.983ZM281.466 162.84H282.954L282.21 160.824L281.466 162.84ZM281.698 159.4H282.714L284.866 165H283.746L283.29 163.76H281.122L280.666 165H279.546L281.698 159.4ZM286.121 162.68L284.201 159.4H285.369L286.665 161.656L287.969 159.4H289.137L287.209 162.68V165H286.121V162.68ZM289.682 159.4H290.906L292.618 163.456L294.33 159.4H295.554V165H294.53V161.424L293.026 165H292.21L290.706 161.424V165H289.682V159.4ZM296.612 159.4H300.356V160.336H297.7V161.568H299.828V162.512H297.7V164.056H300.444V165H296.612V159.4ZM301.252 159.4H302.356L304.756 163.288V159.4H305.772V165H304.668L302.276 161.12V165H301.252V159.4ZM308.126 160.336H306.438V159.4H310.902V160.336H309.214V165H308.126V160.336ZM313.358 165.064C312.995 165.064 312.657 164.989 312.342 164.84C312.027 164.685 311.769 164.475 311.566 164.208C311.363 163.941 311.241 163.64 311.198 163.304L312.166 163.008C312.209 163.339 312.345 163.611 312.574 163.824C312.809 164.032 313.083 164.136 313.398 164.136C313.691 164.136 313.926 164.072 314.102 163.944C314.278 163.816 314.366 163.645 314.366 163.432C314.366 163.267 314.313 163.131 314.206 163.024C314.105 162.917 313.974 162.832 313.814 162.768C313.654 162.704 313.438 162.632 313.166 162.552C312.793 162.44 312.489 162.331 312.254 162.224C312.019 162.112 311.817 161.947 311.646 161.728C311.481 161.509 311.398 161.224 311.398 160.872C311.398 160.579 311.483 160.315 311.654 160.08C311.825 159.845 312.057 159.664 312.35 159.536C312.649 159.403 312.979 159.336 313.342 159.336C313.694 159.336 314.017 159.395 314.31 159.512C314.603 159.629 314.846 159.797 315.038 160.016C315.235 160.229 315.363 160.475 315.422 160.752L314.446 161.152C314.387 160.88 314.259 160.664 314.062 160.504C313.87 160.344 313.63 160.264 313.342 160.264C313.075 160.264 312.865 160.32 312.71 160.432C312.555 160.539 312.478 160.685 312.478 160.872C312.478 161 312.523 161.104 312.614 161.184C312.705 161.264 312.817 161.328 312.95 161.376C313.083 161.424 313.278 161.483 313.534 161.552C313.929 161.648 314.257 161.755 314.518 161.872C314.779 161.984 315.003 162.163 315.19 162.408C315.377 162.653 315.47 162.987 315.47 163.408C315.47 163.733 315.382 164.021 315.206 164.272C315.03 164.523 314.782 164.717 314.462 164.856C314.142 164.995 313.774 165.064 313.358 165.064Z" fill="white"/>
<rect x="266.581" y="178.278" width="74.2146" height="20.9679" rx="10.4839" fill="#FF5787" stroke="#FF5787" stroke-width="6.40841"/>
<path d="M279.428 194.12C278.478 194.12 277.608 193.915 276.818 193.505C276.028 193.095 275.393 192.485 274.913 191.675C274.443 190.865 274.208 189.89 274.208 188.75C274.208 187.61 274.448 186.635 274.928 185.825C275.408 185.015 276.043 184.405 276.833 183.995C277.623 183.585 278.488 183.38 279.428 183.38C280.258 183.38 281.003 183.525 281.663 183.815C282.323 184.095 282.863 184.5 283.283 185.03C283.703 185.56 283.973 186.175 284.093 186.875L282.068 187.295C281.938 186.625 281.633 186.1 281.153 185.72C280.683 185.33 280.108 185.135 279.428 185.135C278.828 185.135 278.288 185.275 277.808 185.555C277.338 185.835 276.963 186.25 276.683 186.8C276.413 187.34 276.278 187.99 276.278 188.75C276.278 189.51 276.413 190.165 276.683 190.715C276.953 191.255 277.328 191.665 277.808 191.945C278.288 192.215 278.828 192.35 279.428 192.35C280.108 192.35 280.673 192.175 281.123 191.825C281.573 191.475 281.868 190.99 282.008 190.37L284.063 190.82C283.803 191.85 283.263 192.66 282.443 193.25C281.633 193.83 280.628 194.12 279.428 194.12ZM285.396 183.5H287.436V192.23H292.311V194H285.396V183.5ZM293.482 183.5H295.522V194H293.482V183.5ZM297.495 183.5H304.515V185.255H299.535V187.565H303.525V189.335H299.535V192.23H304.68V194H297.495V183.5ZM306.197 183.5H308.267L312.767 190.79V183.5H314.672V194H312.602L308.117 186.725V194H306.197V183.5ZM319.085 185.255H315.92V183.5H324.29V185.255H321.125V194H319.085V185.255ZM328.895 194.12C328.215 194.12 327.58 193.98 326.99 193.7C326.4 193.41 325.915 193.015 325.535 192.515C325.155 192.015 324.925 191.45 324.845 190.82L326.66 190.265C326.74 190.885 326.995 191.395 327.425 191.795C327.865 192.185 328.38 192.38 328.97 192.38C329.52 192.38 329.96 192.26 330.29 192.02C330.62 191.78 330.785 191.46 330.785 191.06C330.785 190.75 330.685 190.495 330.485 190.295C330.295 190.095 330.05 189.935 329.75 189.815C329.45 189.695 329.045 189.56 328.535 189.41C327.835 189.2 327.265 188.995 326.825 188.795C326.385 188.585 326.005 188.275 325.685 187.865C325.375 187.455 325.22 186.92 325.22 186.26C325.22 185.71 325.38 185.215 325.7 184.775C326.02 184.335 326.455 183.995 327.005 183.755C327.565 183.505 328.185 183.38 328.865 183.38C329.525 183.38 330.13 183.49 330.68 183.71C331.23 183.93 331.685 184.245 332.045 184.655C332.415 185.055 332.655 185.515 332.765 186.035L330.935 186.785C330.825 186.275 330.585 185.87 330.215 185.57C329.855 185.27 329.405 185.12 328.865 185.12C328.365 185.12 327.97 185.225 327.68 185.435C327.39 185.635 327.245 185.91 327.245 186.26C327.245 186.5 327.33 186.695 327.5 186.845C327.67 186.995 327.88 187.115 328.13 187.205C328.38 187.295 328.745 187.405 329.225 187.535C329.965 187.715 330.58 187.915 331.07 188.135C331.56 188.345 331.98 188.68 332.33 189.14C332.68 189.6 332.855 190.225 332.855 191.015C332.855 191.625 332.69 192.165 332.36 192.635C332.03 193.105 331.565 193.47 330.965 193.73C330.365 193.99 329.675 194.12 328.895 194.12Z" fill="white"/>
<rect x="263.377" y="213.073" width="81.4629" height="8" rx="4" fill="#D5D4D2"/>
<rect x="263.377" y="231.073" width="81.4629" height="8" rx="4" fill="#D5D4D2"/>
<rect x="263.377" y="249.073" width="81.4629" height="8" rx="4" fill="#D5D4D2"/>
<rect x="263.377" y="267.073" width="81.4629" height="8" rx="4" fill="#D5D4D2"/>
<rect x="263.377" y="285.073" width="81.4629" height="8" rx="4" fill="#D5D4D2"/>
<rect x="263.377" y="303.073" width="81.4629" height="8" rx="4" fill="#D5D4D2"/>
<rect x="263.377" y="321.073" width="81.4629" height="8" rx="4" fill="#D5D4D2"/>
<rect x="263.377" y="339.073" width="81.4629" height="8" rx="4" fill="#D5D4D2"/>
<path d="M524.667 94.6233L535.066 93.3015" stroke="#2B266D" stroke-width="2" stroke-miterlimit="10" stroke-linecap="round"/>
<path d="M520.676 90.0392L529.934 77.9483" stroke="#2B266D" stroke-width="2" stroke-miterlimit="10" stroke-linecap="round"/>
<path d="M514.007 85.753L517.311 74.9201" stroke="#2B266D" stroke-width="2" stroke-miterlimit="10" stroke-linecap="round"/>
<rect x="394" y="95" width="128.203" height="23.8325" rx="11.9163" fill="#8EE9CC"/>
<path d="M410.05 101.5H412.09V112H410.05V101.5ZM414.063 101.5H416.133L420.633 108.79V101.5H422.538V112H420.468L415.983 104.725V112H414.063V101.5ZM423.652 101.5H425.737L428.452 109.57L431.197 101.5H433.267L429.442 112H427.477L423.652 101.5ZM438.787 112.12C437.777 112.12 436.867 111.89 436.057 111.43C435.247 110.96 434.612 110.32 434.152 109.51C433.692 108.69 433.462 107.77 433.462 106.75C433.462 105.73 433.692 104.815 434.152 104.005C434.612 103.185 435.247 102.545 436.057 102.085C436.867 101.615 437.777 101.38 438.787 101.38C439.797 101.38 440.702 101.615 441.502 102.085C442.312 102.545 442.947 103.185 443.407 104.005C443.867 104.815 444.097 105.73 444.097 106.75C444.097 107.77 443.867 108.69 443.407 109.51C442.947 110.32 442.312 110.96 441.502 111.43C440.702 111.89 439.797 112.12 438.787 112.12ZM435.517 106.75C435.517 107.44 435.657 108.06 435.937 108.61C436.217 109.15 436.602 109.575 437.092 109.885C437.592 110.195 438.157 110.35 438.787 110.35C439.417 110.35 439.977 110.195 440.467 109.885C440.957 109.575 441.342 109.15 441.622 108.61C441.902 108.06 442.042 107.44 442.042 106.75C442.042 106.06 441.902 105.44 441.622 104.89C441.342 104.34 440.957 103.91 440.467 103.6C439.977 103.29 439.417 103.135 438.787 103.135C438.157 103.135 437.592 103.29 437.092 103.6C436.602 103.91 436.217 104.34 435.937 104.89C435.657 105.44 435.517 106.06 435.517 106.75ZM445.616 101.5H447.656V112H445.616V101.5ZM454.385 112.12C453.435 112.12 452.565 111.915 451.775 111.505C450.985 111.095 450.35 110.485 449.87 109.675C449.4 108.865 449.165 107.89 449.165 106.75C449.165 105.61 449.405 104.635 449.885 103.825C450.365 103.015 451 102.405 451.79 101.995C452.58 101.585 453.445 101.38 454.385 101.38C455.215 101.38 455.96 101.525 456.62 101.815C457.28 102.095 457.82 102.5 458.24 103.03C458.66 103.56 458.93 104.175 459.05 104.875L457.025 105.295C456.895 104.625 456.59 104.1 456.11 103.72C455.64 103.33 455.065 103.135 454.385 103.135C453.785 103.135 453.245 103.275 452.765 103.555C452.295 103.835 451.92 104.25 451.64 104.8C451.37 105.34 451.235 105.99 451.235 106.75C451.235 107.51 451.37 108.165 451.64 108.715C451.91 109.255 452.285 109.665 452.765 109.945C453.245 110.215 453.785 110.35 454.385 110.35C455.065 110.35 455.63 110.175 456.08 109.825C456.53 109.475 456.825 108.99 456.965 108.37L459.02 108.82C458.76 109.85 458.22 110.66 457.4 111.25C456.59 111.83 455.585 112.12 454.385 112.12ZM460.353 101.5H467.373V103.255H462.393V105.565H466.383V107.335H462.393V110.23H467.538V112H460.353V101.5ZM472.657 101.5H474.727L479.227 108.79V101.5H481.132V112H479.062L474.577 104.725V112H472.657V101.5ZM487.991 112.12C486.981 112.12 486.071 111.89 485.261 111.43C484.451 110.96 483.816 110.32 483.356 109.51C482.896 108.69 482.666 107.77 482.666 106.75C482.666 105.73 482.896 104.815 483.356 104.005C483.816 103.185 484.451 102.545 485.261 102.085C486.071 101.615 486.981 101.38 487.991 101.38C489.001 101.38 489.906 101.615 490.706 102.085C491.516 102.545 492.151 103.185 492.611 104.005C493.071 104.815 493.301 105.73 493.301 106.75C493.301 107.77 493.071 108.69 492.611 109.51C492.151 110.32 491.516 110.96 490.706 111.43C489.906 111.89 489.001 112.12 487.991 112.12ZM484.721 106.75C484.721 107.44 484.861 108.06 485.141 108.61C485.421 109.15 485.806 109.575 486.296 109.885C486.796 110.195 487.361 110.35 487.991 110.35C488.621 110.35 489.181 110.195 489.671 109.885C490.161 109.575 490.546 109.15 490.826 108.61C491.106 108.06 491.246 107.44 491.246 106.75C491.246 106.06 491.106 105.44 490.826 104.89C490.546 104.34 490.161 103.91 489.671 103.6C489.181 103.29 488.621 103.135 487.991 103.135C487.361 103.135 486.796 103.29 486.296 103.6C485.806 103.91 485.421 104.34 485.141 104.89C484.861 105.44 484.721 106.06 484.721 106.75ZM493.674 101.5H495.774L497.799 109.57L499.854 101.5H502.164L504.234 109.57L506.259 101.5H508.359L505.329 112H503.169L501.024 104.305L498.864 112H496.734L493.674 101.5Z" fill="#2B266D"/>
<rect x="528.777" y="98.0818" width="73.9631" height="17.669" rx="8.83448" fill="#D5D4D2"/>
<rect x="394" y="131.16" width="11.0945" height="10.6836" rx="5.34178" fill="#8EE9CC"/>
<path d="M397.287 136.452C397.83 137.016 398.896 138.145 398.824 138.145C398.752 138.145 400.451 136.319 401.807 134.858" stroke="#2B276D" stroke-width="0.821812" stroke-linecap="round"/>
<rect x="413.312" y="132.502" width="27.9416" height="8" rx="4" fill="#D5D4D2"/>
<rect x="449.472" y="132.502" width="87.5229" height="8" rx="4" fill="#D5D4D2"/>
<rect x="545.213" y="132.502" width="25.8871" height="8" rx="4" fill="#FF5787"/>
<rect x="579.318" y="132.502" width="23.4216" height="8" rx="4" fill="#D5D4D2"/>
<rect x="394" y="154.17" width="11.0945" height="10.6836" rx="5.34178" fill="#8EE9CC"/>
<path d="M397.287 159.462C397.83 160.027 398.896 161.156 398.824 161.156C398.752 161.156 400.451 159.33 401.807 157.869" stroke="#2B276D" stroke-width="0.821812" stroke-linecap="round"/>
<rect x="413.312" y="155.512" width="27.9416" height="8" rx="4" fill="#D5D4D2"/>
<rect x="449.472" y="155.512" width="87.5229" height="8" rx="4" fill="#D5D4D2"/>
<rect x="545.213" y="155.512" width="25.8871" height="8" rx="4" fill="#FF5787"/>
<rect x="579.318" y="155.512" width="23.4216" height="8" rx="4" fill="#D5D4D2"/>
<rect x="394" y="177.181" width="11.0945" height="10.6836" rx="5.34178" fill="#8EE9CC"/>
<path d="M397.287 182.473C397.83 183.038 398.896 184.167 398.824 184.167C398.752 184.167 400.451 182.34 401.807 180.879" stroke="#2B276D" stroke-width="0.821812" stroke-linecap="round"/>
<rect x="413.312" y="178.523" width="27.9416" height="8" rx="4" fill="#D5D4D2"/>
<rect x="449.472" y="178.523" width="87.5229" height="8" rx="4" fill="#D5D4D2"/>
<rect x="545.213" y="178.523" width="25.8871" height="8" rx="4" fill="#FF5787"/>
<rect x="579.318" y="178.523" width="23.4216" height="8" rx="4" fill="#D5D4D2"/>
<rect x="394" y="200.192" width="11.0945" height="10.6836" rx="5.34178" fill="#8EE9CC"/>
<path d="M397.287 205.484C397.83 206.048 398.896 207.177 398.824 207.177C398.752 207.177 400.451 205.351 401.807 203.89" stroke="#2B276D" stroke-width="0.821812" stroke-linecap="round"/>
<rect x="413.312" y="201.534" width="27.9416" height="8" rx="4" fill="#D5D4D2"/>
<rect x="449.472" y="201.534" width="87.5229" height="8" rx="4" fill="#D5D4D2"/>
<rect x="545.213" y="201.534" width="25.8871" height="8" rx="4" fill="#FF5787"/>
<rect x="579.318" y="201.534" width="23.4216" height="8" rx="4" fill="#D5D4D2"/>
<rect x="394" y="223.203" width="11.0945" height="10.6836" rx="5.34178" fill="#8EE9CC"/>
<path d="M397.287 228.495C397.83 229.059 398.896 230.188 398.824 230.188C398.752 230.188 400.451 228.362 401.807 226.901" stroke="#2B276D" stroke-width="0.821812" stroke-linecap="round"/>
<rect x="413.312" y="224.544" width="27.9416" height="8" rx="4" fill="#D5D4D2"/>
<rect x="449.472" y="224.544" width="87.5229" height="8" rx="4" fill="#D5D4D2"/>
<rect x="545.213" y="224.544" width="25.8871" height="8" rx="4" fill="#FF5787"/>
<rect x="579.318" y="224.544" width="23.4216" height="8" rx="4" fill="#D5D4D2"/>
<rect x="394" y="246.213" width="11.0945" height="10.6836" rx="5.34178" fill="#D5D4D2"/>
<rect x="413.312" y="247.555" width="27.9416" height="8" rx="4" fill="#D5D4D2"/>
<rect x="449.472" y="247.555" width="87.5229" height="8" rx="4" fill="#D5D4D2"/>
<rect x="545.213" y="247.555" width="25.8871" height="8" rx="4" fill="#8EE9CC"/>
<rect x="579.318" y="247.555" width="23.4216" height="8" rx="4" fill="#D5D4D2"/>
<rect x="394" y="269.224" width="11.0945" height="10.6836" rx="5.34178" fill="#D5D4D2"/>
<rect x="413.312" y="270.566" width="27.9416" height="8" rx="4" fill="#D5D4D2"/>
<rect x="449.472" y="270.566" width="87.5229" height="8" rx="4" fill="#D5D4D2"/>
<rect x="545.213" y="270.566" width="25.8871" height="8" rx="4" fill="#8EE9CC"/>
<rect x="579.318" y="270.566" width="23.4216" height="8" rx="4" fill="#D5D4D2"/>
<rect x="394" y="292.235" width="11.0945" height="10.6836" rx="5.34178" fill="#D5D4D2"/>
<rect x="413.312" y="293.577" width="27.9416" height="8" rx="4" fill="#D5D4D2"/>
<rect x="449.472" y="293.577" width="87.5229" height="8" rx="4" fill="#D5D4D2"/>
<rect x="545.213" y="293.577" width="25.8871" height="8" rx="4" fill="#8EE9CC"/>
<rect x="579.318" y="293.577" width="23.4216" height="8" rx="4" fill="#D5D4D2"/>
<rect x="394" y="315.246" width="11.0945" height="10.6836" rx="5.34178" fill="#D5D4D2"/>
<rect x="413.312" y="316.587" width="27.9416" height="8" rx="4" fill="#D5D4D2"/>
<rect x="449.472" y="316.587" width="87.5229" height="8" rx="4" fill="#D5D4D2"/>
<rect x="545.213" y="316.587" width="25.8871" height="8" rx="4" fill="#8EE9CC"/>
<rect x="579.318" y="316.587" width="23.4216" height="8" rx="4" fill="#D5D4D2"/>
<path d="M556.332 139.868L542.295 145.082L554.395 161.001C554.597 161.26 554.523 161.623 554.225 161.795L538.475 171.439C538.188 171.621 537.783 171.554 537.592 171.286L525.609 155.51L515.201 165.46C514.658 165.986 513.679 165.708 513.562 164.991L506.028 117.185C505.751 115.625 507.603 114.468 509.124 115.252L556.428 138.328C557.13 138.672 557.077 139.6 556.332 139.868Z" fill="white" stroke="#2B266D" stroke-width="2" stroke-miterlimit="10"/>
</svg>
