<svg width="800" height="400" viewBox="0 0 800 400" fill="none" xmlns="http://www.w3.org/2000/svg">
<path d="M160.41 378C157.321 378 155.906 374.153 158.257 372.151L191.57 343.792C192.17 343.281 192.933 343 193.722 343H602.479C603.208 343 603.917 343.24 604.496 343.683L641.593 372.042C644.115 373.97 642.751 378 639.576 378H160.41Z" fill="#2B266D"/>
<path d="M606.227 376.131H265.57C247.409 376.131 239.269 365.438 239.269 352.978V52.0252C239.269 45.289 246.379 39.0002 254.231 39.0002H608.121C615.424 39.0002 620.682 44.8533 620.682 51.1302V363.742C620.682 370.561 614.189 376.131 606.241 376.131H606.227Z" fill="#2B266D"/>
<path d="M609.045 39.8354H259.793C252.296 39.8354 246.219 45.1338 246.219 51.6697V364.297C246.219 370.833 252.296 376.131 259.793 376.131H609.045C616.542 376.131 622.619 370.833 622.619 364.297V51.6697C622.619 45.1338 616.542 39.8354 609.045 39.8354Z" fill="white" stroke="#2B266D" stroke-width="2" stroke-miterlimit="10"/>
<path d="M246.219 52.7198C246.219 46.0656 251.613 40.6714 258.267 40.6714H358.596V375.296H258.267C251.613 375.296 246.219 369.902 246.219 363.247V52.7198Z" fill="#FAFAFA"/>
<path d="M335.05 95.3977H267.168C265.288 95.3977 263.764 97.0446 263.764 99.0762V105.395C263.764 107.427 265.288 109.073 267.168 109.073H335.05C336.93 109.073 338.454 107.427 338.454 105.395V99.0762C338.454 97.0446 336.93 95.3977 335.05 95.3977Z" fill="#D5D2F9"/>
<rect x="263.764" y="119.073" width="81.4629" height="8" rx="4" fill="#D5D4D2"/>
<rect x="266.968" y="144.455" width="102.209" height="20.9679" rx="10.4839" fill="#FF5787" stroke="#FF5787" stroke-width="6.40841"/>
<path d="M274.068 149.255H277.503C278.493 149.255 279.393 149.455 280.203 149.855C281.023 150.245 281.673 150.835 282.153 151.625C282.643 152.415 282.888 153.375 282.888 154.505C282.888 155.635 282.643 156.595 282.153 157.385C281.673 158.175 281.023 158.77 280.203 159.17C279.393 159.56 278.493 159.755 277.503 159.755H274.068V149.255ZM277.323 157.985C278.323 157.985 279.153 157.705 279.813 157.145C280.483 156.585 280.818 155.705 280.818 154.505C280.818 153.305 280.483 152.425 279.813 151.865C279.153 151.295 278.323 151.01 277.323 151.01H276.078V157.985H277.323ZM286.686 155.705H289.476L288.081 151.925L286.686 155.705ZM287.121 149.255H289.026L293.061 159.755H290.961L290.106 157.43H286.041L285.186 159.755H283.086L287.121 149.255ZM297.382 159.875C296.702 159.875 296.067 159.735 295.477 159.455C294.887 159.165 294.402 158.77 294.022 158.27C293.642 157.77 293.412 157.205 293.332 156.575L295.147 156.02C295.227 156.64 295.482 157.15 295.912 157.55C296.352 157.94 296.867 158.135 297.457 158.135C298.007 158.135 298.447 158.015 298.777 157.775C299.107 157.535 299.272 157.215 299.272 156.815C299.272 156.505 299.172 156.25 298.972 156.05C298.782 155.85 298.537 155.69 298.237 155.57C297.937 155.45 297.532 155.315 297.022 155.165C296.322 154.955 295.752 154.75 295.312 154.55C294.872 154.34 294.492 154.03 294.172 153.62C293.862 153.21 293.707 152.675 293.707 152.015C293.707 151.465 293.867 150.97 294.187 150.53C294.507 150.09 294.942 149.75 295.492 149.51C296.052 149.26 296.672 149.135 297.352 149.135C298.012 149.135 298.617 149.245 299.167 149.465C299.717 149.685 300.172 150 300.532 150.41C300.902 150.81 301.142 151.27 301.252 151.79L299.422 152.54C299.312 152.03 299.072 151.625 298.702 151.325C298.342 151.025 297.892 150.875 297.352 150.875C296.852 150.875 296.457 150.98 296.167 151.19C295.877 151.39 295.732 151.665 295.732 152.015C295.732 152.255 295.817 152.45 295.987 152.6C296.157 152.75 296.367 152.87 296.617 152.96C296.867 153.05 297.232 153.16 297.712 153.29C298.452 153.47 299.067 153.67 299.557 153.89C300.047 154.1 300.467 154.435 300.817 154.895C301.167 155.355 301.342 155.98 301.342 156.77C301.342 157.38 301.177 157.92 300.847 158.39C300.517 158.86 300.052 159.225 299.452 159.485C298.852 159.745 298.162 159.875 297.382 159.875ZM311.479 149.255V159.755H309.439V155.18H304.834V159.755H302.794V149.255H304.834V153.425H309.439V149.255H311.479ZM313.458 149.255H317.583C318.573 149.255 319.368 149.495 319.968 149.975C320.578 150.445 320.883 151.105 320.883 151.955C320.883 152.415 320.758 152.83 320.508 153.2C320.258 153.57 319.958 153.845 319.608 154.025C320.138 154.225 320.568 154.545 320.898 154.985C321.228 155.425 321.393 155.975 321.393 156.635C321.393 157.605 321.058 158.37 320.388 158.93C319.728 159.48 318.843 159.755 317.733 159.755H313.458V149.255ZM317.523 157.985C318.813 157.985 319.458 157.505 319.458 156.545C319.458 155.565 318.813 155.075 317.523 155.075H315.498V157.985H317.523ZM317.433 153.35C317.943 153.35 318.328 153.245 318.588 153.035C318.848 152.825 318.978 152.52 318.978 152.12C318.978 151.3 318.453 150.89 317.403 150.89H315.498V153.35H317.433ZM327.766 159.875C326.756 159.875 325.846 159.645 325.036 159.185C324.226 158.715 323.591 158.075 323.131 157.265C322.671 156.445 322.441 155.525 322.441 154.505C322.441 153.485 322.671 152.57 323.131 151.76C323.591 150.94 324.226 150.3 325.036 149.84C325.846 149.37 326.756 149.135 327.766 149.135C328.776 149.135 329.681 149.37 330.481 149.84C331.291 150.3 331.926 150.94 332.386 151.76C332.846 152.57 333.076 153.485 333.076 154.505C333.076 155.525 332.846 156.445 332.386 157.265C331.926 158.075 331.291 158.715 330.481 159.185C329.681 159.645 328.776 159.875 327.766 159.875ZM324.496 154.505C324.496 155.195 324.636 155.815 324.916 156.365C325.196 156.905 325.581 157.33 326.071 157.64C326.571 157.95 327.136 158.105 327.766 158.105C328.396 158.105 328.956 157.95 329.446 157.64C329.936 157.33 330.321 156.905 330.601 156.365C330.881 155.815 331.021 155.195 331.021 154.505C331.021 153.815 330.881 153.195 330.601 152.645C330.321 152.095 329.936 151.665 329.446 151.355C328.956 151.045 328.396 150.89 327.766 150.89C327.136 150.89 326.571 151.045 326.071 151.355C325.581 151.665 325.196 152.095 324.916 152.645C324.636 153.195 324.496 153.815 324.496 154.505ZM336.871 155.705H339.661L338.266 151.925L336.871 155.705ZM337.306 149.255H339.211L343.246 159.755H341.146L340.291 157.43H336.226L335.371 159.755H333.271L337.306 149.255ZM344.249 149.255H348.299C349.329 149.255 350.149 149.54 350.759 150.11C351.379 150.67 351.689 151.42 351.689 152.36C351.689 152.95 351.544 153.485 351.254 153.965C350.964 154.435 350.559 154.8 350.039 155.06L352.829 159.755H350.444L347.969 155.45H346.304V159.755H344.264L344.249 149.255ZM347.984 153.695C348.504 153.695 348.909 153.58 349.199 153.35C349.489 153.11 349.634 152.78 349.634 152.36C349.634 151.94 349.489 151.61 349.199 151.37C348.909 151.13 348.504 151.01 347.984 151.01H346.304V153.695H347.984ZM354.005 149.255H357.44C358.43 149.255 359.33 149.455 360.14 149.855C360.96 150.245 361.61 150.835 362.09 151.625C362.58 152.415 362.825 153.375 362.825 154.505C362.825 155.635 362.58 156.595 362.09 157.385C361.61 158.175 360.96 158.77 360.14 159.17C359.33 159.56 358.43 159.755 357.44 159.755H354.005V149.255ZM357.26 157.985C358.26 157.985 359.09 157.705 359.75 157.145C360.42 156.585 360.755 155.705 360.755 154.505C360.755 153.305 360.42 152.425 359.75 151.865C359.09 151.295 358.26 151.01 357.26 151.01H356.015V157.985H357.26Z" fill="white"/>
<rect x="263.764" y="182.805" width="81.4629" height="8" rx="4" fill="#D5D4D2"/>
<rect x="263.764" y="200.805" width="81.4629" height="8" rx="4" fill="#D5D4D2"/>
<rect x="263.764" y="218.805" width="81.4629" height="8" rx="4" fill="#D5D4D2"/>
<rect x="263.764" y="236.805" width="81.4629" height="8" rx="4" fill="#D5D4D2"/>
<rect x="263.764" y="254.805" width="81.4629" height="8" rx="4" fill="#D5D4D2"/>
<rect x="263.764" y="272.805" width="81.4629" height="8" rx="4" fill="#D5D4D2"/>
<rect x="263.764" y="290.805" width="81.4629" height="8" rx="4" fill="#D5D4D2"/>
<rect x="263.764" y="308.805" width="81.4629" height="8" rx="4" fill="#D5D4D2"/>
<rect x="263.764" y="326.805" width="81.4629" height="8" rx="4" fill="#D5D4D2"/>
<path d="M451.641 184.248H396.89C395.374 184.248 394.145 185.682 394.145 187.451V192.953C394.145 194.722 395.374 196.156 396.89 196.156H451.641C453.157 196.156 454.386 194.722 454.386 192.953V187.451C454.386 185.682 453.157 184.248 451.641 184.248Z" fill="#2B266D"/>
<path d="M395.651 204.898H452.881" stroke="#2B266D" stroke-width="2" stroke-miterlimit="10" stroke-linecap="round"/>
<path d="M395.651 213.64H452.881" stroke="#2B266D" stroke-width="2" stroke-miterlimit="10" stroke-linecap="round"/>
<path d="M395.651 222.382H452.881" stroke="#2B266D" stroke-width="2" stroke-miterlimit="10" stroke-linecap="round"/>
<path d="M525.259 184.248H470.508C468.992 184.248 467.763 185.682 467.763 187.451V192.953C467.763 194.722 468.992 196.156 470.508 196.156H525.259C526.775 196.156 528.005 194.722 528.005 192.953V187.451C528.005 185.682 526.775 184.248 525.259 184.248Z" fill="#2B266D"/>
<path d="M469.27 204.898H526.499" stroke="#2B266D" stroke-width="2" stroke-miterlimit="10" stroke-linecap="round"/>
<path d="M469.27 213.64H526.499" stroke="#2B266D" stroke-width="2" stroke-miterlimit="10" stroke-linecap="round"/>
<path d="M469.27 222.382H526.499" stroke="#2B266D" stroke-width="2" stroke-miterlimit="10" stroke-linecap="round"/>
<path d="M598.876 184.248H544.125C542.609 184.248 541.38 185.682 541.38 187.451V192.953C541.38 194.722 542.609 196.156 544.125 196.156H598.876C600.393 196.156 601.622 194.722 601.622 192.953V187.451C601.622 185.682 600.393 184.248 598.876 184.248Z" fill="#2B266D"/>
<path d="M542.887 204.898H600.117" stroke="#2B266D" stroke-width="2" stroke-miterlimit="10" stroke-linecap="round"/>
<path d="M542.887 213.64H600.117" stroke="#2B266D" stroke-width="2" stroke-miterlimit="10" stroke-linecap="round"/>
<path d="M542.887 222.382H600.117" stroke="#2B266D" stroke-width="2" stroke-miterlimit="10" stroke-linecap="round"/>
<path d="M395.651 239.942H452.881" stroke="#2B266D" stroke-width="2" stroke-miterlimit="10" stroke-linecap="round"/>
<path d="M451.641 248.684H396.89C395.374 248.684 394.145 250.118 394.145 251.887V257.389C394.145 259.158 395.374 260.592 396.89 260.592H451.641C453.157 260.592 454.386 259.158 454.386 257.389V251.887C454.386 250.118 453.157 248.684 451.641 248.684Z" fill="#2B266D"/>
<path d="M395.651 269.334H452.881" stroke="#2B266D" stroke-width="2" stroke-miterlimit="10" stroke-linecap="round"/>
<path d="M395.651 278.076H452.881" stroke="#2B266D" stroke-width="2" stroke-miterlimit="10" stroke-linecap="round"/>
<path d="M469.27 239.942H526.499" stroke="#2B266D" stroke-width="2" stroke-miterlimit="10" stroke-linecap="round"/>
<path d="M525.259 248.684H470.508C468.992 248.684 467.763 250.118 467.763 251.887V257.389C467.763 259.158 468.992 260.592 470.508 260.592H525.259C526.775 260.592 528.005 259.158 528.005 257.389V251.887C528.005 250.118 526.775 248.684 525.259 248.684Z" fill="#2B266D"/>
<path d="M469.27 269.334H526.499" stroke="#2B266D" stroke-width="2" stroke-miterlimit="10" stroke-linecap="round"/>
<path d="M469.27 278.076H526.499" stroke="#2B266D" stroke-width="2" stroke-miterlimit="10" stroke-linecap="round"/>
<path d="M542.887 239.942H600.117" stroke="#2B266D" stroke-width="2" stroke-miterlimit="10" stroke-linecap="round"/>
<path d="M598.876 248.684H544.125C542.609 248.684 541.38 250.118 541.38 251.887V257.389C541.38 259.158 542.609 260.592 544.125 260.592H598.876C600.393 260.592 601.622 259.158 601.622 257.389V251.887C601.622 250.118 600.393 248.684 598.876 248.684Z" fill="#2B266D"/>
<path d="M542.887 269.334H600.117" stroke="#2B266D" stroke-width="2" stroke-miterlimit="10" stroke-linecap="round"/>
<path d="M542.887 278.076H600.117" stroke="#2B266D" stroke-width="2" stroke-miterlimit="10" stroke-linecap="round"/>
<path d="M452.482 295.922H397.731C396.215 295.922 394.985 297.356 394.985 299.125V304.627C394.985 306.396 396.215 307.83 397.731 307.83H452.482C453.998 307.83 455.227 306.396 455.227 304.627V299.125C455.227 297.356 453.998 295.922 452.482 295.922Z" fill="#2B266D"/>
<path d="M396.492 316.572H453.722" stroke="#2B266D" stroke-width="2" stroke-miterlimit="10" stroke-linecap="round"/>
<path d="M396.492 325.314H453.722" stroke="#2B266D" stroke-width="2" stroke-miterlimit="10" stroke-linecap="round"/>
<path d="M396.492 334.056H453.722" stroke="#2B266D" stroke-width="2" stroke-miterlimit="10" stroke-linecap="round"/>
<path d="M526.1 295.922H471.349C469.833 295.922 468.604 297.356 468.604 299.125V304.627C468.604 306.396 469.833 307.83 471.349 307.83H526.1C527.616 307.83 528.845 306.396 528.845 304.627V299.125C528.845 297.356 527.616 295.922 526.1 295.922Z" fill="#2B266D"/>
<path d="M470.11 316.572H527.34" stroke="#2B266D" stroke-width="2" stroke-miterlimit="10" stroke-linecap="round"/>
<path d="M470.11 325.314H527.34" stroke="#2B266D" stroke-width="2" stroke-miterlimit="10" stroke-linecap="round"/>
<path d="M470.11 334.056H527.34" stroke="#2B266D" stroke-width="2" stroke-miterlimit="10" stroke-linecap="round"/>
<path d="M599.717 295.922H544.966C543.45 295.922 542.221 297.356 542.221 299.125V304.627C542.221 306.396 543.45 307.83 544.966 307.83H599.717C601.233 307.83 602.463 306.396 602.463 304.627V299.125C602.463 297.356 601.233 295.922 599.717 295.922Z" fill="#2B266D"/>
<path d="M543.728 316.572H600.957" stroke="#2B266D" stroke-width="2" stroke-miterlimit="10" stroke-linecap="round"/>
<path d="M543.728 325.314H600.957" stroke="#2B266D" stroke-width="2" stroke-miterlimit="10" stroke-linecap="round"/>
<path d="M543.728 334.056H600.957" stroke="#2B266D" stroke-width="2" stroke-miterlimit="10" stroke-linecap="round"/>
<rect x="395.849" y="163.163" width="18.4695" height="17.0685" rx="8.53427" transform="rotate(-90 395.849 163.163)" fill="#D5D2F9"/>
<rect x="417.095" y="163.163" width="32.129" height="16.0645" rx="8.03226" transform="rotate(-90 417.095 163.163)" fill="#D5D2F9"/>
<rect x="437.337" y="163.163" width="46.1855" height="17.0685" rx="8.53427" transform="rotate(-90 437.337 163.163)" fill="#D5D2F9"/>
<rect x="458.583" y="163.163" width="50.1563" height="17.0685" rx="8.53427" transform="rotate(-90 458.583 163.163)" fill="#5A51E7"/>
<rect x="479.829" y="163.163" width="59.347" height="17.0685" rx="8.53427" transform="rotate(-90 479.829 163.163)" fill="#5A51E7"/>
<rect x="501.075" y="163.163" width="50.2016" height="17.0685" rx="8.53427" transform="rotate(-90 501.075 163.163)" fill="#C5F6E6"/>
<rect x="522.321" y="163.163" width="41.1653" height="17.0685" rx="8.53427" transform="rotate(-90 522.321 163.163)" fill="#C5F6E6"/>
<rect x="543.568" y="163.163" width="50.2016" height="17.0685" rx="8.53427" transform="rotate(-90 543.568 163.163)" fill="#C5F6E6"/>
<rect x="564.814" y="163.163" width="59.2379" height="17.0685" rx="8.53427" transform="rotate(-90 564.814 163.163)" fill="#8EE9CC"/>
<rect x="586.061" y="163.163" width="77.3734" height="17.0685" rx="8.53427" transform="rotate(-90 586.061 163.163)" fill="#8EE9CC"/>
<path d="M416.03 185.854L401.994 191.068L414.094 206.987C414.296 207.245 414.221 207.609 413.923 207.781L398.173 217.425C397.886 217.606 397.481 217.54 397.29 217.272L385.307 201.496L374.899 211.445C374.357 211.972 373.377 211.694 373.26 210.977L365.726 163.171C365.449 161.611 367.301 160.454 368.823 161.238L416.126 184.314C416.828 184.658 416.775 185.586 416.03 185.854Z" fill="white" stroke="#2B266D" stroke-width="2" stroke-miterlimit="10"/>
<path d="M374.517 145.179L384.916 143.858" stroke="#2B266D" stroke-width="2" stroke-miterlimit="10" stroke-linecap="round"/>
<path d="M370.525 140.595L379.784 128.504" stroke="#2B266D" stroke-width="2" stroke-miterlimit="10" stroke-linecap="round"/>
<path d="M363.857 136.309L367.16 125.476" stroke="#2B266D" stroke-width="2" stroke-miterlimit="10" stroke-linecap="round"/>
</svg>
