<svg width="800" height="400" viewBox="0 0 800 400" fill="none" xmlns="http://www.w3.org/2000/svg">
<path d="M160.023 378C156.935 378 155.519 374.153 157.87 372.151L191.183 343.792C191.784 343.281 192.547 343 193.335 343H602.093C602.821 343 603.53 343.24 604.109 343.683L641.206 372.042C643.729 373.97 642.365 378 639.189 378H160.023Z" fill="#2B266D"/>
<path d="M605.84 376.131H265.183C247.022 376.131 238.882 365.438 238.882 352.978V52.0252C238.882 45.289 245.993 39.0002 253.845 39.0002H607.735C615.038 39.0002 620.295 44.8533 620.295 51.1302V363.742C620.295 370.561 613.802 376.131 605.854 376.131H605.84Z" fill="#2B266D"/>
<path d="M608.658 39.8354H259.407C251.91 39.8354 245.832 45.1338 245.832 51.6697V364.297C245.832 370.833 251.91 376.131 259.407 376.131H608.658C616.155 376.131 622.232 370.833 622.232 364.297V51.6697C622.232 45.1338 616.155 39.8354 608.658 39.8354Z" fill="white" stroke="#2B266D" stroke-width="2" stroke-miterlimit="10"/>
<path d="M245.832 52.7198C245.832 46.0656 251.226 40.6714 257.88 40.6714H358.209V375.296H257.88C251.226 375.296 245.832 369.902 245.832 363.247V52.7198Z" fill="#FAFAFA"/>
<path d="M334.663 95.3977H266.781C264.901 95.3977 263.377 97.0446 263.377 99.0762V105.395C263.377 107.427 264.901 109.073 266.781 109.073H334.663C336.543 109.073 338.067 107.427 338.067 105.395V99.0762C338.067 97.0446 336.543 95.3977 334.663 95.3977Z" fill="#D5D2F9"/>
<rect x="263.377" y="119.073" width="81.4629" height="8" rx="4" fill="#D5D4D2"/>
<rect x="263.377" y="137.073" width="81.4629" height="8" rx="4" fill="#D5D4D2"/>
<rect x="266.581" y="158.278" width="74.2146" height="20.9679" rx="10.4839" fill="#FF5787" stroke="#FF5787" stroke-width="6.40841"/>
<path d="M281.521 173.999V163.499H284.956C287.851 163.499 290.341 165.224 290.341 168.749C290.341 172.274 287.851 173.999 284.956 173.999H281.521ZM283.531 172.229H284.776C286.576 172.229 288.271 171.314 288.271 168.749C288.271 166.184 286.576 165.254 284.776 165.254H283.531V172.229ZM291.863 173.999V163.499H298.883V165.254H293.903V167.564H297.893V169.334H293.903V172.229H299.048V173.999H291.863ZM304.674 166.169L303.279 169.949H306.069L304.674 166.169ZM299.679 173.999L303.714 163.499H305.619L309.654 173.999H307.554L306.699 171.674H302.634L301.779 173.999H299.679ZM310.657 173.999V163.499H312.697V172.229H317.572V173.999H310.657ZM322.046 174.119C319.976 174.119 318.251 172.724 317.996 170.819L319.811 170.264C319.976 171.524 320.951 172.379 322.121 172.379C323.216 172.379 323.936 171.854 323.936 171.059C323.936 168.794 318.371 170.069 318.371 166.259C318.371 164.579 319.946 163.379 322.016 163.379C324.011 163.379 325.586 164.444 325.916 166.034L324.086 166.784C323.876 165.764 323.111 165.119 322.016 165.119C321.011 165.119 320.396 165.554 320.396 166.259C320.396 168.164 326.006 166.754 326.006 171.014C326.006 172.874 324.416 174.119 322.046 174.119Z" fill="white"/>
<rect x="263.377" y="192.073" width="81.4629" height="8" rx="4" fill="#D5D4D2"/>
<rect x="263.377" y="210.073" width="81.4629" height="8" rx="4" fill="#D5D4D2"/>
<rect x="263.377" y="228.073" width="81.4629" height="8" rx="4" fill="#D5D4D2"/>
<rect x="263.377" y="246.073" width="81.4629" height="8" rx="4" fill="#D5D4D2"/>
<rect x="263.377" y="264.073" width="81.4629" height="8" rx="4" fill="#D5D4D2"/>
<rect x="263.377" y="282.073" width="81.4629" height="8" rx="4" fill="#D5D4D2"/>
<rect x="263.377" y="300.073" width="81.4629" height="8" rx="4" fill="#D5D4D2"/>
<rect x="263.377" y="318.073" width="81.4629" height="8" rx="4" fill="#D5D4D2"/>
<rect x="263.377" y="336.073" width="81.4629" height="8" rx="4" fill="#D5D4D2"/>
<path d="M384.04 93.9H385.834L389.734 100.218V93.9H391.385V103H389.591L385.704 96.695V103H384.04V93.9ZM393.377 93.9H399.461V95.421H395.145V97.423H398.603V98.957H395.145V101.466H399.604V103H393.377V93.9ZM400.515 93.9H402.335L404.09 100.894L405.871 93.9H407.873L409.667 100.894L411.422 93.9H413.242L410.616 103H408.744L406.885 96.331L405.013 103H403.167L400.515 93.9ZM380.368 107.9H382.136V115.466H386.361V117H380.368V107.9ZM387.636 107.9H393.72V109.421H389.404V111.423H392.862V112.957H389.404V115.466H393.863V117H387.636V107.9ZM397.79 113.49H400.208L398.999 110.214L397.79 113.49ZM398.167 107.9H399.818L403.315 117H401.495L400.754 114.985H397.231L396.49 117H394.67L398.167 107.9ZM404.444 107.9H407.421C408.279 107.9 409.059 108.073 409.761 108.42C410.472 108.758 411.035 109.269 411.451 109.954C411.876 110.639 412.088 111.471 412.088 112.45C412.088 113.429 411.876 114.261 411.451 114.946C411.035 115.631 410.472 116.146 409.761 116.493C409.059 116.831 408.279 117 407.421 117H404.444V107.9ZM407.265 115.466C408.132 115.466 408.851 115.223 409.423 114.738C410.004 114.253 410.294 113.49 410.294 112.45C410.294 111.41 410.004 110.647 409.423 110.162C408.851 109.668 408.132 109.421 407.265 109.421H406.186V115.466H407.265ZM416.657 117.104C416.068 117.104 415.517 116.983 415.006 116.74C414.495 116.489 414.074 116.146 413.745 115.713C413.416 115.28 413.216 114.79 413.147 114.244L414.72 113.763C414.789 114.3 415.01 114.742 415.383 115.089C415.764 115.427 416.211 115.596 416.722 115.596C417.199 115.596 417.58 115.492 417.866 115.284C418.152 115.076 418.295 114.799 418.295 114.452C418.295 114.183 418.208 113.962 418.035 113.789C417.87 113.616 417.658 113.477 417.398 113.373C417.138 113.269 416.787 113.152 416.345 113.022C415.738 112.84 415.244 112.662 414.863 112.489C414.482 112.307 414.152 112.038 413.875 111.683C413.606 111.328 413.472 110.864 413.472 110.292C413.472 109.815 413.611 109.386 413.888 109.005C414.165 108.624 414.542 108.329 415.019 108.121C415.504 107.904 416.042 107.796 416.631 107.796C417.203 107.796 417.727 107.891 418.204 108.082C418.681 108.273 419.075 108.546 419.387 108.901C419.708 109.248 419.916 109.646 420.011 110.097L418.425 110.747C418.33 110.305 418.122 109.954 417.801 109.694C417.489 109.434 417.099 109.304 416.631 109.304C416.198 109.304 415.855 109.395 415.604 109.577C415.353 109.75 415.227 109.989 415.227 110.292C415.227 110.5 415.301 110.669 415.448 110.799C415.595 110.929 415.777 111.033 415.994 111.111C416.211 111.189 416.527 111.284 416.943 111.397C417.584 111.553 418.117 111.726 418.542 111.917C418.967 112.099 419.331 112.389 419.634 112.788C419.937 113.187 420.089 113.728 420.089 114.413C420.089 114.942 419.946 115.41 419.66 115.817C419.374 116.224 418.971 116.541 418.451 116.766C417.931 116.991 417.333 117.104 416.657 117.104Z" fill="#2B266D"/>
<path d="M559.05 103.104C558.226 103.104 557.472 102.926 556.788 102.571C556.103 102.216 555.553 101.687 555.137 100.985C554.729 100.283 554.526 99.438 554.526 98.45C554.526 97.462 554.734 96.617 555.15 95.915C555.566 95.213 556.116 94.6843 556.801 94.329C557.485 93.9737 558.235 93.796 559.05 93.796C559.769 93.796 560.415 93.9217 560.987 94.173C561.559 94.4157 562.027 94.7667 562.391 95.226C562.755 95.6853 562.989 96.2183 563.093 96.825L561.338 97.189C561.225 96.6083 560.961 96.1533 560.545 95.824C560.137 95.486 559.639 95.317 559.05 95.317C558.53 95.317 558.062 95.4383 557.646 95.681C557.238 95.9237 556.913 96.2833 556.671 96.76C556.437 97.228 556.32 97.7913 556.32 98.45C556.32 99.1087 556.437 99.6763 556.671 100.153C556.905 100.621 557.23 100.976 557.646 101.219C558.062 101.453 558.53 101.57 559.05 101.57C559.639 101.57 560.129 101.418 560.519 101.115C560.909 100.812 561.164 100.391 561.286 99.854L563.067 100.244C562.841 101.137 562.373 101.839 561.663 102.35C560.961 102.853 560.09 103.104 559.05 103.104ZM564.482 93.9H566.25V101.466H570.475V103H564.482V93.9ZM575.644 103.104C574.769 103.104 573.98 102.905 573.278 102.506C572.576 102.099 572.026 101.544 571.627 100.842C571.228 100.131 571.029 99.334 571.029 98.45C571.029 97.566 571.228 96.773 571.627 96.071C572.026 95.3603 572.576 94.8057 573.278 94.407C573.98 93.9997 574.769 93.796 575.644 93.796C576.519 93.796 577.304 93.9997 577.997 94.407C578.699 94.8057 579.249 95.3603 579.648 96.071C580.047 96.773 580.246 97.566 580.246 98.45C580.246 99.334 580.047 100.131 579.648 100.842C579.249 101.544 578.699 102.099 577.997 102.506C577.304 102.905 576.519 103.104 575.644 103.104ZM572.81 98.45C572.81 99.048 572.931 99.5853 573.174 100.062C573.417 100.53 573.75 100.898 574.175 101.167C574.608 101.436 575.098 101.57 575.644 101.57C576.19 101.57 576.675 101.436 577.1 101.167C577.525 100.898 577.858 100.53 578.101 100.062C578.344 99.5853 578.465 99.048 578.465 98.45C578.465 97.852 578.344 97.3147 578.101 96.838C577.858 96.3613 577.525 95.9887 577.1 95.72C576.675 95.4513 576.19 95.317 575.644 95.317C575.098 95.317 574.608 95.4513 574.175 95.72C573.75 95.9887 573.417 96.3613 573.174 96.838C572.931 97.3147 572.81 97.852 572.81 98.45ZM584.813 103.104C584.224 103.104 583.673 102.983 583.162 102.74C582.651 102.489 582.23 102.146 581.901 101.713C581.572 101.28 581.372 100.79 581.303 100.244L582.876 99.763C582.945 100.3 583.166 100.742 583.539 101.089C583.92 101.427 584.367 101.596 584.878 101.596C585.355 101.596 585.736 101.492 586.022 101.284C586.308 101.076 586.451 100.799 586.451 100.452C586.451 100.183 586.364 99.9623 586.191 99.789C586.026 99.6157 585.814 99.477 585.554 99.373C585.294 99.269 584.943 99.152 584.501 99.022C583.894 98.84 583.4 98.6623 583.019 98.489C582.638 98.307 582.308 98.0383 582.031 97.683C581.762 97.3277 581.628 96.864 581.628 96.292C581.628 95.8153 581.767 95.3863 582.044 95.005C582.321 94.6237 582.698 94.329 583.175 94.121C583.66 93.9043 584.198 93.796 584.787 93.796C585.359 93.796 585.883 93.8913 586.36 94.082C586.837 94.2727 587.231 94.5457 587.543 94.901C587.864 95.2477 588.072 95.6463 588.167 96.097L586.581 96.747C586.486 96.305 586.278 95.954 585.957 95.694C585.645 95.434 585.255 95.304 584.787 95.304C584.354 95.304 584.011 95.395 583.76 95.577C583.509 95.7503 583.383 95.9887 583.383 96.292C583.383 96.5 583.457 96.669 583.604 96.799C583.751 96.929 583.933 97.033 584.15 97.111C584.367 97.189 584.683 97.2843 585.099 97.397C585.74 97.553 586.273 97.7263 586.698 97.917C587.123 98.099 587.487 98.3893 587.79 98.788C588.093 99.1867 588.245 99.7283 588.245 100.413C588.245 100.942 588.102 101.41 587.816 101.817C587.53 102.224 587.127 102.541 586.607 102.766C586.087 102.991 585.489 103.104 584.813 103.104ZM589.764 93.9H595.848V95.421H591.532V97.423H594.99V98.957H591.532V101.466H595.991V103H589.764V93.9ZM597.565 93.9H600.542C601.4 93.9 602.18 94.0733 602.882 94.42C603.592 94.758 604.156 95.2693 604.572 95.954C604.996 96.6387 605.209 97.4707 605.209 98.45C605.209 99.4293 604.996 100.261 604.572 100.946C604.156 101.631 603.592 102.146 602.882 102.493C602.18 102.831 601.4 103 600.542 103H597.565V93.9ZM600.386 101.466C601.252 101.466 601.972 101.223 602.544 100.738C603.124 100.253 603.415 99.49 603.415 98.45C603.415 97.41 603.124 96.6473 602.544 96.162C601.972 95.668 601.252 95.421 600.386 95.421H599.307V101.466H600.386ZM560.432 107.9H563.409C564.267 107.9 565.047 108.073 565.749 108.42C566.459 108.758 567.023 109.269 567.439 109.954C567.863 110.639 568.076 111.471 568.076 112.45C568.076 113.429 567.863 114.261 567.439 114.946C567.023 115.631 566.459 116.146 565.749 116.493C565.047 116.831 564.267 117 563.409 117H560.432V107.9ZM563.253 115.466C564.119 115.466 564.839 115.223 565.411 114.738C565.991 114.253 566.282 113.49 566.282 112.45C566.282 111.41 565.991 110.647 565.411 110.162C564.839 109.668 564.119 109.421 563.253 109.421H562.174V115.466H563.253ZM569.655 107.9H575.739V109.421H571.423V111.423H574.881V112.957H571.423V115.466H575.882V117H569.655V107.9ZM579.809 113.49H582.227L581.018 110.214L579.809 113.49ZM580.186 107.9H581.837L585.334 117H583.514L582.773 114.985H579.25L578.509 117H576.689L580.186 107.9ZM586.463 107.9H588.231V115.466H592.456V117H586.463V107.9ZM596.594 117.104C596.004 117.104 595.454 116.983 594.943 116.74C594.431 116.489 594.011 116.146 593.682 115.713C593.352 115.28 593.153 114.79 593.084 114.244L594.657 113.763C594.726 114.3 594.947 114.742 595.32 115.089C595.701 115.427 596.147 115.596 596.659 115.596C597.135 115.596 597.517 115.492 597.803 115.284C598.089 115.076 598.232 114.799 598.232 114.452C598.232 114.183 598.145 113.962 597.972 113.789C597.807 113.616 597.595 113.477 597.335 113.373C597.075 113.269 596.724 113.152 596.282 113.022C595.675 112.84 595.181 112.662 594.8 112.489C594.418 112.307 594.089 112.038 593.812 111.683C593.543 111.328 593.409 110.864 593.409 110.292C593.409 109.815 593.547 109.386 593.825 109.005C594.102 108.624 594.479 108.329 594.956 108.121C595.441 107.904 595.978 107.796 596.568 107.796C597.14 107.796 597.664 107.891 598.141 108.082C598.617 108.273 599.012 108.546 599.324 108.901C599.644 109.248 599.852 109.646 599.948 110.097L598.362 110.747C598.266 110.305 598.058 109.954 597.738 109.694C597.426 109.434 597.036 109.304 596.568 109.304C596.134 109.304 595.792 109.395 595.541 109.577C595.289 109.75 595.164 109.989 595.164 110.292C595.164 110.5 595.237 110.669 595.385 110.799C595.532 110.929 595.714 111.033 595.931 111.111C596.147 111.189 596.464 111.284 596.88 111.397C597.521 111.553 598.054 111.726 598.479 111.917C598.903 112.099 599.267 112.389 599.571 112.788C599.874 113.187 600.026 113.728 600.026 114.413C600.026 114.942 599.883 115.41 599.597 115.817C599.311 116.224 598.908 116.541 598.388 116.766C597.868 116.991 597.27 117.104 596.594 117.104Z" fill="#2B266D"/>
<rect x="374" y="128" width="51.9943" height="29" rx="4" fill="#D5D2F9"/>
<rect x="374" y="162" width="51.9943" height="29" rx="4" fill="#ECEBEA"/>
<rect x="374" y="196" width="51.9943" height="29" rx="4" fill="#ECEBEA"/>
<rect x="374" y="230" width="51.9943" height="29" rx="4" fill="#ECEBEA"/>
<rect x="433.994" y="128" width="51.9943" height="29" rx="4" fill="#7169EA"/>
<rect x="433.994" y="162" width="51.9943" height="29" rx="4" fill="#ECEBEA"/>
<rect x="433.994" y="196" width="51.9943" height="29" rx="4" fill="#ECEBEA"/>
<rect x="433.994" y="230" width="51.9943" height="29" rx="4" fill="#ECEBEA"/>
<rect x="433.994" y="264" width="51.9943" height="29" rx="4" fill="#ECEBEA"/>
<rect x="433.994" y="298" width="51.9943" height="29" rx="4" fill="#ECEBEA"/>
<rect x="493.988" y="128" width="51.9943" height="29" rx="4" fill="#ECEBEA"/>
<rect x="493.988" y="162" width="51.9943" height="29" rx="4" fill="#ECEBEA"/>
<rect x="493.988" y="196" width="51.9943" height="29" rx="4" fill="#ECEBEA"/>
<rect x="493.988" y="230" width="51.9943" height="29" rx="4" fill="#ECEBEA"/>
<rect x="493.988" y="264" width="51.9943" height="29" rx="4" fill="#ECEBEA"/>
<rect x="553.983" y="128" width="51.9943" height="29" rx="4" fill="#C5F6E6"/>
<rect x="553.983" y="162" width="51.9943" height="29" rx="4" fill="#C5F6E6"/>
<rect x="553.983" y="196" width="51.9943" height="29" rx="4" fill="#C5F6E6"/>
<rect x="553.983" y="230" width="51.9943" height="29" rx="4" fill="#C5F6E6"/>
<rect x="553.983" y="264" width="51.9943" height="29" rx="4" fill="#C5F6E6"/>
<rect x="553.983" y="298" width="51.9943" height="29" rx="4" fill="#C5F6E6"/>
<rect x="553.983" y="332" width="51.9943" height="29" rx="4" fill="#C5F6E6"/>
<rect x="410.561" y="105.562" width="60.2908" height="38.9378" rx="5.02424" fill="#2B276D"/>
<rect x="413.7" y="106.19" width="56.5227" height="35.1697" rx="4.39621" fill="#8EE9CC" stroke="#2B266D" stroke-width="1.25606"/>
<path d="M475.359 105.52L481.011 105.19" stroke="#2B266D" stroke-width="1.08718" stroke-miterlimit="10" stroke-linecap="round"/>
<path d="M473.378 102.903L478.81 96.7285" stroke="#2B266D" stroke-width="1.08718" stroke-miterlimit="10" stroke-linecap="round"/>
<path d="M469.941 100.348L472.119 94.633" stroke="#2B266D" stroke-width="1.08718" stroke-miterlimit="10" stroke-linecap="round"/>
<path d="M479.672 140.046L473.009 142.799L478.753 151.205C478.849 151.342 478.813 151.534 478.672 151.624L471.195 156.717C471.059 156.813 470.867 156.777 470.776 156.636L465.088 148.305L460.147 153.559C459.889 153.837 459.425 153.691 459.369 153.312L455.792 128.068C455.661 127.245 456.54 126.633 457.262 127.048L479.718 139.233C480.051 139.414 480.026 139.904 479.672 140.046Z" fill="white" stroke="#2B266D" stroke-width="1.01035" stroke-miterlimit="10"/>
<rect x="420.609" y="113.098" width="42.3999" height="3.26153" rx="1.63077" fill="#2B266D"/>
<rect x="420.609" y="119.079" width="32.0717" height="3.26153" rx="1.63077" fill="#2B266D"/>
</svg>
