<svg width="800" height="400" viewBox="0 0 800 400" fill="none" xmlns="http://www.w3.org/2000/svg">
<path d="M160.023 374C156.935 374 155.519 370.153 157.87 368.151L191.183 339.792C191.784 339.281 192.547 339 193.335 339H602.093C602.821 339 603.53 339.24 604.109 339.683L641.206 368.042C643.729 369.97 642.365 374 639.189 374H160.023Z" fill="#2B266D"/>
<path d="M605.84 372.131H265.183C247.022 372.131 238.882 361.438 238.882 348.978V48.0252C238.882 41.289 245.993 35.0002 253.845 35.0002H607.735C615.038 35.0002 620.295 40.8533 620.295 47.1302V359.742C620.295 366.561 613.802 372.131 605.854 372.131H605.84Z" fill="#2B266D"/>
<path d="M608.658 35.8354H259.407C251.91 35.8354 245.832 41.1338 245.832 47.6697V360.297C245.832 366.833 251.91 372.131 259.407 372.131H608.658C616.155 372.131 622.232 366.833 622.232 360.297V47.6697C622.232 41.1338 616.155 35.8354 608.658 35.8354Z" fill="white" stroke="#2B266D" stroke-width="2" stroke-miterlimit="10"/>
<path d="M374 127C374 124.791 375.791 123 378 123H596C598.209 123 600 124.791 600 127V371H374V127Z" fill="#ECEBEA"/>
<path d="M245.832 48.7198C245.832 42.0656 251.226 36.6714 257.88 36.6714H358.209V371.296H257.88C251.226 371.296 245.832 365.902 245.832 359.247V48.7198Z" fill="#FAFAFA"/>
<rect x="387" y="141" width="77" height="3" rx="1.5" fill="#D5D4D2"/>
<path d="M583.5 151H389.745C388.229 151 387 152.686 387 154.766V161.234C387 163.314 388.229 165 389.745 165H583.5C585.016 165 586.245 163.314 586.245 161.234V154.766C586.245 152.686 585.016 151 583.5 151Z" fill="white"/>
<rect x="396" y="156" width="97" height="4" rx="2" fill="#2D2A5E"/>
<rect x="387" y="180" width="41" height="3" rx="1.5" fill="#D5D4D2"/>
<rect x="388" y="191" width="196" height="76" rx="5.82632" fill="#D5D2F9" stroke="#2D2A5E" stroke-width="2"/>
<rect x="396" y="199.815" width="177" height="4" rx="2" fill="#2D2A5E"/>
<rect x="396" y="209.815" width="97" height="4" rx="2" fill="#2D2A5E"/>
<rect x="387" y="283" width="83" height="3" rx="1.5" fill="#D5D4D2"/>
<path d="M583.5 293H389.745C388.229 293 387 294.686 387 296.766V303.234C387 305.314 388.229 307 389.745 307H583.5C585.016 307 586.245 305.314 586.245 303.234V296.766C586.245 294.686 585.016 293 583.5 293Z" fill="white"/>
<rect x="396" y="298" width="97" height="4" rx="2" fill="#2D2A5E"/>
<rect x="387" y="317" width="13" height="12.5185" rx="6.25926" fill="#8EE9CC"/>
<path d="M515 317.306H409.745C408.229 317.306 407 318.74 407 320.509V326.01C407 327.779 408.229 329.213 409.745 329.213L515 329.213C516.516 329.213 517.745 327.779 517.745 326.01V320.509C517.745 318.74 516.516 317.306 515 317.306Z" fill="white"/>
<rect x="524.745" y="317.918" width="11.0945" height="10.6836" rx="5.34178" fill="#D5D4D2"/>
<rect x="387" y="337.519" width="13" height="12.5185" rx="6.25926" fill="#8EE9CC"/>
<path d="M515 337.824H409.745C408.229 337.824 407 339.258 407 341.027V346.529C407 348.298 408.229 349.732 409.745 349.732L515 349.732C516.516 349.732 517.745 348.298 517.745 346.529V341.027C517.745 339.258 516.516 337.824 515 337.824Z" fill="white"/>
<rect x="524.745" y="338.436" width="11.0945" height="10.6836" rx="5.34178" fill="#D5D4D2"/>
<rect x="387" y="358.037" width="13" height="12.5185" rx="6.25926" fill="#8EE9CC"/>
<path d="M515 358.343H409.745C408.229 358.343 407 359.777 407 361.546V367.047C407 368.816 408.229 370.25 409.745 370.25L515 370.25C516.516 370.25 517.745 368.816 517.745 367.047V361.546C517.745 359.777 516.516 358.343 515 358.343Z" fill="white"/>
<rect x="524.745" y="358.955" width="11.0945" height="10.6836" rx="5.34178" fill="#D5D4D2"/>
<path d="M334.663 91.3977H266.781C264.901 91.3977 263.377 93.0446 263.377 95.0762V101.395C263.377 103.427 264.901 105.073 266.781 105.073H334.663C336.543 105.073 338.067 103.427 338.067 101.395V95.0762C338.067 93.0446 336.543 91.3977 334.663 91.3977Z" fill="#D5D2F9"/>
<rect x="263.377" y="115.073" width="81.4629" height="8" rx="4" fill="#D5D4D2"/>
<rect x="263.377" y="133.073" width="81.4629" height="8" rx="4" fill="#D5D4D2"/>
<rect x="263.377" y="151.073" width="81.4629" height="8" rx="4" fill="#D5D4D2"/>
<rect x="266.581" y="172.278" width="74.2146" height="20.9679" rx="10.4839" fill="#FF5787" stroke="#FF5787" stroke-width="6.40841"/>
<path d="M278.789 177.499H285.899V179.254H280.829V181.684H284.924V183.454H280.829V187.999H278.789V177.499ZM291.75 188.119C290.74 188.119 289.83 187.889 289.02 187.429C288.21 186.959 287.575 186.319 287.115 185.509C286.655 184.689 286.425 183.769 286.425 182.749C286.425 181.729 286.655 180.814 287.115 180.004C287.575 179.184 288.21 178.544 289.02 178.084C289.83 177.614 290.74 177.379 291.75 177.379C292.76 177.379 293.665 177.614 294.465 178.084C295.275 178.544 295.91 179.184 296.37 180.004C296.83 180.814 297.06 181.729 297.06 182.749C297.06 183.769 296.83 184.689 296.37 185.509C295.91 186.319 295.275 186.959 294.465 187.429C293.665 187.889 292.76 188.119 291.75 188.119ZM288.48 182.749C288.48 183.439 288.62 184.059 288.9 184.609C289.18 185.149 289.565 185.574 290.055 185.884C290.555 186.194 291.12 186.349 291.75 186.349C292.38 186.349 292.94 186.194 293.43 185.884C293.92 185.574 294.305 185.149 294.585 184.609C294.865 184.059 295.005 183.439 295.005 182.749C295.005 182.059 294.865 181.439 294.585 180.889C294.305 180.339 293.92 179.909 293.43 179.599C292.94 179.289 292.38 179.134 291.75 179.134C291.12 179.134 290.555 179.289 290.055 179.599C289.565 179.909 289.18 180.339 288.9 180.889C288.62 181.439 288.48 182.059 288.48 182.749ZM298.579 177.499H302.629C303.659 177.499 304.479 177.784 305.089 178.354C305.709 178.914 306.019 179.664 306.019 180.604C306.019 181.194 305.874 181.729 305.584 182.209C305.294 182.679 304.889 183.044 304.369 183.304L307.159 187.999H304.774L302.299 183.694H300.634V187.999H298.594L298.579 177.499ZM302.314 181.939C302.834 181.939 303.239 181.824 303.529 181.594C303.819 181.354 303.964 181.024 303.964 180.604C303.964 180.184 303.819 179.854 303.529 179.614C303.239 179.374 302.834 179.254 302.314 179.254H300.634V181.939H302.314ZM308.335 177.499H310.63L313.84 185.104L317.05 177.499H319.345V187.999H317.425V181.294L314.605 187.999H313.075L310.255 181.294V187.999H308.335V177.499ZM324.778 188.119C324.098 188.119 323.463 187.979 322.873 187.699C322.283 187.409 321.798 187.014 321.418 186.514C321.038 186.014 320.808 185.449 320.728 184.819L322.543 184.264C322.623 184.884 322.878 185.394 323.308 185.794C323.748 186.184 324.263 186.379 324.853 186.379C325.403 186.379 325.843 186.259 326.173 186.019C326.503 185.779 326.668 185.459 326.668 185.059C326.668 184.749 326.568 184.494 326.368 184.294C326.178 184.094 325.933 183.934 325.633 183.814C325.333 183.694 324.928 183.559 324.418 183.409C323.718 183.199 323.148 182.994 322.708 182.794C322.268 182.584 321.888 182.274 321.568 181.864C321.258 181.454 321.103 180.919 321.103 180.259C321.103 179.709 321.263 179.214 321.583 178.774C321.903 178.334 322.338 177.994 322.888 177.754C323.448 177.504 324.068 177.379 324.748 177.379C325.408 177.379 326.013 177.489 326.563 177.709C327.113 177.929 327.568 178.244 327.928 178.654C328.298 179.054 328.538 179.514 328.648 180.034L326.818 180.784C326.708 180.274 326.468 179.869 326.098 179.569C325.738 179.269 325.288 179.119 324.748 179.119C324.248 179.119 323.853 179.224 323.563 179.434C323.273 179.634 323.128 179.909 323.128 180.259C323.128 180.499 323.213 180.694 323.383 180.844C323.553 180.994 323.763 181.114 324.013 181.204C324.263 181.294 324.628 181.404 325.108 181.534C325.848 181.714 326.463 181.914 326.953 182.134C327.443 182.344 327.863 182.679 328.213 183.139C328.563 183.599 328.738 184.224 328.738 185.014C328.738 185.624 328.573 186.164 328.243 186.634C327.913 187.104 327.448 187.469 326.848 187.729C326.248 187.989 325.558 188.119 324.778 188.119Z" fill="white"/>
<rect x="263.377" y="210.627" width="81.4629" height="8" rx="4" fill="#D5D4D2"/>
<rect x="263.377" y="228.627" width="81.4629" height="8" rx="4" fill="#D5D4D2"/>
<rect x="263.377" y="246.627" width="81.4629" height="8" rx="4" fill="#D5D4D2"/>
<rect x="263.377" y="264.627" width="81.4629" height="8" rx="4" fill="#D5D4D2"/>
<rect x="263.377" y="282.627" width="81.4629" height="8" rx="4" fill="#D5D4D2"/>
<rect x="263.377" y="300.627" width="81.4629" height="8" rx="4" fill="#D5D4D2"/>
<rect x="263.377" y="318.627" width="81.4629" height="8" rx="4" fill="#D5D4D2"/>
<rect x="263.377" y="336.627" width="81.4629" height="8" rx="4" fill="#D5D4D2"/>
<rect x="443" y="81.0002" width="72" height="24" rx="12" fill="#8EE9CC"/>
<path d="M459.402 98.1202C458.722 98.1202 458.087 97.9802 457.497 97.7002C456.907 97.4102 456.422 97.0152 456.042 96.5152C455.662 96.0152 455.432 95.4502 455.352 94.8202L457.167 94.2652C457.247 94.8852 457.502 95.3952 457.932 95.7952C458.372 96.1852 458.887 96.3802 459.477 96.3802C460.027 96.3802 460.467 96.2602 460.797 96.0202C461.127 95.7802 461.292 95.4602 461.292 95.0602C461.292 94.7502 461.192 94.4952 460.992 94.2952C460.802 94.0952 460.557 93.9352 460.257 93.8152C459.957 93.6952 459.552 93.5602 459.042 93.4102C458.342 93.2002 457.772 92.9952 457.332 92.7952C456.892 92.5852 456.512 92.2752 456.192 91.8652C455.882 91.4552 455.727 90.9202 455.727 90.2602C455.727 89.7102 455.887 89.2152 456.207 88.7752C456.527 88.3352 456.962 87.9952 457.512 87.7552C458.072 87.5052 458.692 87.3802 459.372 87.3802C460.032 87.3802 460.637 87.4902 461.187 87.7102C461.737 87.9302 462.192 88.2452 462.552 88.6552C462.922 89.0552 463.162 89.5152 463.272 90.0352L461.442 90.7852C461.332 90.2752 461.092 89.8702 460.722 89.5702C460.362 89.2702 459.912 89.1202 459.372 89.1202C458.872 89.1202 458.477 89.2252 458.187 89.4352C457.897 89.6352 457.752 89.9102 457.752 90.2602C457.752 90.5002 457.837 90.6952 458.007 90.8452C458.177 90.9952 458.387 91.1152 458.637 91.2052C458.887 91.2952 459.252 91.4052 459.732 91.5352C460.472 91.7152 461.087 91.9152 461.577 92.1352C462.067 92.3452 462.487 92.6802 462.837 93.1402C463.187 93.6002 463.362 94.2252 463.362 95.0152C463.362 95.6252 463.197 96.1652 462.867 96.6352C462.537 97.1052 462.072 97.4702 461.472 97.7302C460.872 97.9902 460.182 98.1202 459.402 98.1202ZM473.499 87.5002V98.0002H471.459V93.4252H466.854V98.0002H464.814V87.5002H466.854V91.6702H471.459V87.5002H473.499ZM478.193 93.9502H480.983L479.588 90.1702L478.193 93.9502ZM478.628 87.5002H480.533L484.568 98.0002H482.468L481.613 95.6752H477.548L476.693 98.0002H474.593L478.628 87.5002ZM485.571 87.5002H489.621C490.651 87.5002 491.471 87.7852 492.081 88.3552C492.701 88.9152 493.011 89.6652 493.011 90.6052C493.011 91.1952 492.866 91.7302 492.576 92.2102C492.286 92.6802 491.881 93.0452 491.361 93.3052L494.151 98.0002H491.766L489.291 93.6952H487.626V98.0002H485.586L485.571 87.5002ZM489.306 91.9402C489.826 91.9402 490.231 91.8252 490.521 91.5952C490.811 91.3552 490.956 91.0252 490.956 90.6052C490.956 90.1852 490.811 89.8552 490.521 89.6152C490.231 89.3752 489.826 89.2552 489.306 89.2552H487.626V91.9402H489.306ZM495.327 87.5002H502.347V89.2552H497.367V91.5652H501.357V93.3352H497.367V96.2302H502.512V98.0002H495.327V87.5002Z" fill="#2B266D"/>
<rect x="521.574" y="84.1658" width="73.9631" height="17.669" rx="8.83448" fill="#D5D4D2"/>
<path d="M520.667 81.6223L531.066 80.3005" stroke="#2B266D" stroke-width="2" stroke-miterlimit="10" stroke-linecap="round"/>
<path d="M516.676 77.0383L525.934 64.9473" stroke="#2B266D" stroke-width="2" stroke-miterlimit="10" stroke-linecap="round"/>
<path d="M510.007 72.752L513.311 61.9191" stroke="#2B266D" stroke-width="2" stroke-miterlimit="10" stroke-linecap="round"/>
</svg>
