<svg width="800" height="400" viewBox="0 0 800 400" fill="none" xmlns="http://www.w3.org/2000/svg">
<path d="M133.023 378C129.935 378 128.519 374.153 130.87 372.151L164.183 343.792C164.784 343.281 165.547 343 166.335 343H575.093C575.821 343 576.53 343.24 577.109 343.683L614.206 372.042C616.729 373.97 615.365 378 612.189 378H133.023Z" fill="#2B266D"/>
<path d="M578.84 376.131H238.183C220.022 376.131 211.881 365.438 211.881 352.978V52.0252C211.881 45.289 218.992 39.0002 226.844 39.0002H580.734C588.037 39.0002 593.295 44.8533 593.295 51.1302V363.742C593.295 370.561 586.802 376.131 578.854 376.131H578.84Z" fill="#2B266D"/>
<path d="M581.658 39.8354H232.407C224.91 39.8354 218.832 45.1338 218.832 51.6697V364.297C218.832 370.833 224.91 376.131 232.407 376.131H581.658C589.155 376.131 595.232 370.833 595.232 364.297V51.6697C595.232 45.1338 589.155 39.8354 581.658 39.8354Z" fill="white" stroke="#2B266D" stroke-width="2" stroke-miterlimit="10"/>
<path d="M218.832 52.7198C218.832 46.0656 224.226 40.6714 230.88 40.6714H331.209V375.296H230.88C224.226 375.296 218.832 369.902 218.832 363.247V52.7198Z" fill="#FAFAFA"/>
<path d="M307.663 95.3977H239.781C237.901 95.3977 236.377 97.0446 236.377 99.0762V105.395C236.377 107.427 237.901 109.073 239.781 109.073H307.663C309.543 109.073 311.067 107.427 311.067 105.395V99.0762C311.067 97.0446 309.543 95.3977 307.663 95.3977Z" fill="#D5D2F9"/>
<rect x="236.377" y="119.073" width="81.4629" height="8" rx="4" fill="#D5D4D2"/>
<rect x="236.377" y="137.073" width="81.4629" height="8" rx="4" fill="#D5D4D2"/>
<rect x="236.377" y="155.073" width="81.4629" height="8" rx="4" fill="#D5D4D2"/>
<rect x="236.377" y="173.073" width="81.4629" height="8" rx="4" fill="#D5D4D2"/>
<rect x="236.377" y="191.073" width="81.4629" height="8" rx="4" fill="#D5D4D2"/>
<rect x="236.377" y="209.073" width="81.4629" height="8" rx="4" fill="#D5D4D2"/>
<rect x="236.377" y="227.073" width="81.4629" height="8" rx="4" fill="#D5D4D2"/>
<rect x="236.377" y="245.073" width="81.4629" height="8" rx="4" fill="#D5D4D2"/>
<rect x="239.581" y="270.455" width="74.2146" height="20.9679" rx="10.4839" fill="#FF5787" stroke="#FF5787" stroke-width="6.40841"/>
<path d="M261.704 281.95H264.494L263.099 278.17L261.704 281.95ZM262.139 275.5H264.044L268.079 286H265.979L265.124 283.675H261.059L260.204 286H258.104L262.139 275.5ZM269.097 275.5H273.327C274.027 275.5 274.642 275.635 275.172 275.905C275.702 276.165 276.107 276.54 276.387 277.03C276.677 277.51 276.822 278.07 276.822 278.71C276.822 279.35 276.677 279.91 276.387 280.39C276.107 280.87 275.702 281.245 275.172 281.515C274.642 281.775 274.027 281.905 273.327 281.905H271.137V286H269.097V275.5ZM273.147 280.15C273.657 280.15 274.057 280.025 274.347 279.775C274.637 279.515 274.782 279.16 274.782 278.71C274.782 278.25 274.637 277.895 274.347 277.645C274.057 277.385 273.657 277.255 273.147 277.255H271.137V280.15H273.147ZM278.12 275.5H282.35C283.05 275.5 283.665 275.635 284.195 275.905C284.725 276.165 285.13 276.54 285.41 277.03C285.7 277.51 285.845 278.07 285.845 278.71C285.845 279.35 285.7 279.91 285.41 280.39C285.13 280.87 284.725 281.245 284.195 281.515C283.665 281.775 283.05 281.905 282.35 281.905H280.16V286H278.12V275.5ZM282.17 280.15C282.68 280.15 283.08 280.025 283.37 279.775C283.66 279.515 283.805 279.16 283.805 278.71C283.805 278.25 283.66 277.895 283.37 277.645C283.08 277.385 282.68 277.255 282.17 277.255H280.16V280.15H282.17ZM290.579 286.12C289.899 286.12 289.264 285.98 288.674 285.7C288.084 285.41 287.599 285.015 287.219 284.515C286.839 284.015 286.609 283.45 286.529 282.82L288.344 282.265C288.424 282.885 288.679 283.395 289.109 283.795C289.549 284.185 290.064 284.38 290.654 284.38C291.204 284.38 291.644 284.26 291.974 284.02C292.304 283.78 292.469 283.46 292.469 283.06C292.469 282.75 292.369 282.495 292.169 282.295C291.979 282.095 291.734 281.935 291.434 281.815C291.134 281.695 290.729 281.56 290.219 281.41C289.519 281.2 288.949 280.995 288.509 280.795C288.069 280.585 287.689 280.275 287.369 279.865C287.059 279.455 286.904 278.92 286.904 278.26C286.904 277.71 287.064 277.215 287.384 276.775C287.704 276.335 288.139 275.995 288.689 275.755C289.249 275.505 289.869 275.38 290.549 275.38C291.209 275.38 291.814 275.49 292.364 275.71C292.914 275.93 293.369 276.245 293.729 276.655C294.099 277.055 294.339 277.515 294.449 278.035L292.619 278.785C292.509 278.275 292.269 277.87 291.899 277.57C291.539 277.27 291.089 277.12 290.549 277.12C290.049 277.12 289.654 277.225 289.364 277.435C289.074 277.635 288.929 277.91 288.929 278.26C288.929 278.5 289.014 278.695 289.184 278.845C289.354 278.995 289.564 279.115 289.814 279.205C290.064 279.295 290.429 279.405 290.909 279.535C291.649 279.715 292.264 279.915 292.754 280.135C293.244 280.345 293.664 280.68 294.014 281.14C294.364 281.6 294.539 282.225 294.539 283.015C294.539 283.625 294.374 284.165 294.044 284.635C293.714 285.105 293.249 285.47 292.649 285.73C292.049 285.99 291.359 286.12 290.579 286.12Z" fill="white"/>
<rect x="236.377" y="308.805" width="81.4629" height="8" rx="4" fill="#D5D4D2"/>
<rect x="236.377" y="326.805" width="81.4629" height="8" rx="4" fill="#D5D4D2"/>
<path d="M533.199 308.03L522.734 308.641" stroke="#2B266D" stroke-width="2" stroke-miterlimit="10" stroke-linecap="round"/>
<path d="M536.869 312.875L526.81 324.308" stroke="#2B266D" stroke-width="2" stroke-miterlimit="10" stroke-linecap="round"/>
<path d="M543.231 317.605L539.199 328.188" stroke="#2B266D" stroke-width="2" stroke-miterlimit="10" stroke-linecap="round"/>
<rect x="368" y="96" width="59.7282" height="59.7282" rx="5.67332" fill="white" stroke="#D5D4D2" stroke-width="2"/>
<rect x="382.016" y="138.377" width="31.6982" height="8" rx="4" fill="#D5D4D2"/>
<circle cx="397.863" cy="118.523" r="10.5105" fill="#D5D2F9"/>
<rect x="441.899" y="96" width="59.7282" height="59.7282" rx="5.67332" fill="white" stroke="#D5D4D2" stroke-width="2"/>
<rect x="455.915" y="138.377" width="31.6982" height="8" rx="4" fill="#D5D4D2"/>
<circle cx="471.762" cy="118.523" r="10.5105" fill="#D5D2F9"/>
<rect x="515.8" y="96" width="59.7282" height="59.7282" rx="5.67332" fill="white" stroke="#D5D4D2" stroke-width="2"/>
<rect x="529.815" y="138.377" width="31.6982" height="8" rx="4" fill="#D5D4D2"/>
<circle cx="545.663" cy="118.523" r="10.5105" fill="#D5D2F9"/>
<rect x="368" y="169.9" width="59.7282" height="59.7282" rx="5.67332" fill="white" stroke="#D5D4D2" stroke-width="2"/>
<rect x="382.016" y="212.277" width="31.6982" height="8" rx="4" fill="#D5D4D2"/>
<circle cx="397.863" cy="192.423" r="10.5105" fill="#D5D2F9"/>
<rect x="441.899" y="169.9" width="59.7282" height="59.7282" rx="5.67332" fill="white" stroke="#D5D4D2" stroke-width="2"/>
<rect x="455.915" y="212.277" width="31.6982" height="8" rx="4" fill="#D5D4D2"/>
<circle cx="471.762" cy="192.423" r="10.5105" fill="#D5D2F9"/>
<rect x="515.8" y="169.9" width="59.7282" height="59.7282" rx="5.67332" fill="white" stroke="#D5D4D2" stroke-width="2"/>
<rect x="529.815" y="212.277" width="31.6982" height="8" rx="4" fill="#D5D4D2"/>
<circle cx="545.663" cy="192.423" r="10.5105" fill="#D5D2F9"/>
<rect x="368" y="243.8" width="59.7282" height="59.7282" rx="5.67332" fill="white" stroke="#D5D4D2" stroke-width="2"/>
<rect x="382.016" y="286.176" width="31.6982" height="8" rx="4" fill="#D5D4D2"/>
<circle cx="397.863" cy="266.323" r="10.5105" fill="#D5D2F9"/>
<rect x="441.899" y="243.8" width="59.7282" height="59.7282" rx="5.67332" fill="white" stroke="#2B266D" stroke-width="2"/>
<rect x="455.915" y="286.176" width="31.6982" height="8" rx="4" fill="#2B266D"/>
<circle cx="471.762" cy="266.323" r="10.5105" fill="#2B266D"/>
<path d="M471.881 260.493V271.561" stroke="white" stroke-width="1.56673" stroke-linecap="round"/>
<path d="M477.414 266.026L466.346 266.026" stroke="white" stroke-width="1.56673" stroke-linecap="round"/>
<rect x="610.928" y="39.7221" width="65.5528" height="64.9284" rx="6.28842" fill="#2B266D" stroke="#2B266D" stroke-width="1.26206"/>
<rect x="614.105" y="40" width="62.0049" height="62.0049" rx="5.91945" fill="#B8B4F5" stroke="#2B266D" stroke-width="2"/>
<rect x="628.677" y="83.9761" width="32.8674" height="8" rx="4" fill="white"/>
<circle cx="645.109" cy="63.3908" r="10.8981" fill="white"/>
<rect x="610.928" y="119.43" width="65.5528" height="64.9284" rx="6.28842" fill="#2B266D" stroke="#2B266D" stroke-width="1.26206"/>
<rect x="614.105" y="119.708" width="62.0049" height="62.0049" rx="5.91945" fill="#B8B4F5" stroke="#2B266D" stroke-width="2"/>
<rect x="628.677" y="163.684" width="32.8674" height="8" rx="4" fill="white"/>
<circle cx="645.109" cy="143.099" r="10.8981" fill="white"/>
<rect x="610.928" y="199.138" width="65.6085" height="64.9835" rx="6.29376" fill="#2B266D" stroke="#2B266D" stroke-width="1.26313"/>
<rect x="614.108" y="199.416" width="62.0592" height="62.0592" rx="5.92532" fill="#ECEBEA" stroke="#2B266D" stroke-width="2"/>
<rect x="542.798" y="225.89" width="82.6961" height="81.9084" rx="7.95339" fill="#2B266D" stroke="#2B266D" stroke-width="1.59621"/>
<rect x="547" y="226" width="78.7474" height="78.7474" rx="7.75149" fill="#5ED7B1" stroke="#2B266D" stroke-width="2"/>
<rect x="565.187" y="281.718" width="41.4649" height="8" rx="4" fill="white"/>
<circle cx="585.919" cy="255.748" r="13.7489" fill="white"/>
<path d="M660.332 315.868L646.295 321.082L658.395 337.001C658.597 337.26 658.523 337.623 658.225 337.795L642.475 347.439C642.188 347.621 641.783 347.554 641.592 347.286L629.609 331.51L619.201 341.46C618.658 341.986 617.679 341.708 617.562 340.991L610.028 293.185C609.751 291.625 611.603 290.468 613.124 291.252L660.428 314.328C661.13 314.672 661.077 315.6 660.332 315.868Z" fill="white" stroke="#2B266D" stroke-width="2" stroke-miterlimit="10"/>
<path d="M634 376L677 376" stroke="#2B266D" stroke-width="2" stroke-linecap="round"/>
</svg>
