<svg width="800" height="400" viewBox="0 0 800 400" fill="none" xmlns="http://www.w3.org/2000/svg">
<path d="M160.023 390C156.935 390 155.519 386.153 157.87 384.151L191.183 355.792C191.784 355.281 192.547 355 193.335 355H602.093C602.821 355 603.53 355.24 604.109 355.683L641.206 384.042C643.729 385.97 642.365 390 639.189 390H160.023Z" fill="#2B266D"/>
<path d="M605.84 388.131H265.183C247.022 388.131 238.882 377.438 238.882 364.978V64.0252C238.882 57.289 245.993 51.0002 253.845 51.0002H607.735C615.038 51.0002 620.295 56.8533 620.295 63.1302V375.742C620.295 382.561 613.802 388.131 605.854 388.131H605.84Z" fill="#2B266D"/>
<path d="M608.658 51.8354H259.407C251.91 51.8354 245.832 57.1338 245.832 63.6697V376.297C245.832 382.833 251.91 388.131 259.407 388.131H608.658C616.155 388.131 622.232 382.833 622.232 376.297V63.6697C622.232 57.1338 616.155 51.8354 608.658 51.8354Z" fill="white" stroke="#2B266D" stroke-width="2" stroke-miterlimit="10"/>
<path d="M245.832 64.7198C245.832 58.0656 251.226 52.6714 257.88 52.6714H358.209V387.296H257.88C251.226 387.296 245.832 381.902 245.832 375.247V64.7198Z" fill="#FAFAFA"/>
<path d="M334.663 107.398H266.781C264.901 107.398 263.377 109.045 263.377 111.076V117.395C263.377 119.427 264.901 121.073 266.781 121.073H334.663C336.543 121.073 338.067 119.427 338.067 117.395V111.076C338.067 109.045 336.543 107.398 334.663 107.398Z" fill="#D5D2F9"/>
<rect x="263.377" y="131.073" width="81.4629" height="8" rx="4" fill="#D5D4D2"/>
<rect x="263.377" y="149.073" width="81.4629" height="8" rx="4" fill="#D5D4D2"/>
<rect x="266.581" y="174.455" width="102.209" height="20.9679" rx="10.4839" fill="#FF5787" stroke="#FF5787" stroke-width="6.40841"/>
<path d="M280.933 179.255H285.163C285.863 179.255 286.478 179.39 287.008 179.66C287.538 179.92 287.943 180.295 288.223 180.785C288.513 181.265 288.658 181.825 288.658 182.465C288.658 183.105 288.513 183.665 288.223 184.145C287.943 184.625 287.538 185 287.008 185.27C286.478 185.53 285.863 185.66 285.163 185.66H282.973V189.755H280.933V179.255ZM284.983 183.905C285.493 183.905 285.893 183.78 286.183 183.53C286.473 183.27 286.618 182.915 286.618 182.465C286.618 182.005 286.473 181.65 286.183 181.4C285.893 181.14 285.493 181.01 284.983 181.01H282.973V183.905H284.983ZM291.514 185.705H294.304L292.909 181.925L291.514 185.705ZM291.949 179.255H293.854L297.889 189.755H295.789L294.934 187.43H290.869L290.014 189.755H287.914L291.949 179.255ZM300.243 185.405L296.643 179.255H298.833L301.263 183.485L303.708 179.255H305.898L302.283 185.405V189.755H300.243V185.405ZM306.919 179.255H309.214L312.424 186.86L315.634 179.255H317.929V189.755H316.009V183.05L313.189 189.755H311.659L308.839 183.05V189.755H306.919V179.255ZM319.912 179.255H326.932V181.01H321.952V183.32H325.942V185.09H321.952V187.985H327.097V189.755H319.912V179.255ZM328.613 179.255H330.683L335.183 186.545V179.255H337.088V189.755H335.018L330.533 182.48V189.755H328.613V179.255ZM341.502 181.01H338.337V179.255H346.707V181.01H343.542V189.755H341.502V181.01ZM351.311 189.875C350.631 189.875 349.996 189.735 349.406 189.455C348.816 189.165 348.331 188.77 347.951 188.27C347.571 187.77 347.341 187.205 347.261 186.575L349.076 186.02C349.156 186.64 349.411 187.15 349.841 187.55C350.281 187.94 350.796 188.135 351.386 188.135C351.936 188.135 352.376 188.015 352.706 187.775C353.036 187.535 353.201 187.215 353.201 186.815C353.201 186.505 353.101 186.25 352.901 186.05C352.711 185.85 352.466 185.69 352.166 185.57C351.866 185.45 351.461 185.315 350.951 185.165C350.251 184.955 349.681 184.75 349.241 184.55C348.801 184.34 348.421 184.03 348.101 183.62C347.791 183.21 347.636 182.675 347.636 182.015C347.636 181.465 347.796 180.97 348.116 180.53C348.436 180.09 348.871 179.75 349.421 179.51C349.981 179.26 350.601 179.135 351.281 179.135C351.941 179.135 352.546 179.245 353.096 179.465C353.646 179.685 354.101 180 354.461 180.41C354.831 180.81 355.071 181.27 355.181 181.79L353.351 182.54C353.241 182.03 353.001 181.625 352.631 181.325C352.271 181.025 351.821 180.875 351.281 180.875C350.781 180.875 350.386 180.98 350.096 181.19C349.806 181.39 349.661 181.665 349.661 182.015C349.661 182.255 349.746 182.45 349.916 182.6C350.086 182.75 350.296 182.87 350.546 182.96C350.796 183.05 351.161 183.16 351.641 183.29C352.381 183.47 352.996 183.67 353.486 183.89C353.976 184.1 354.396 184.435 354.746 184.895C355.096 185.355 355.271 185.98 355.271 186.77C355.271 187.38 355.106 187.92 354.776 188.39C354.446 188.86 353.981 189.225 353.381 189.485C352.781 189.745 352.091 189.875 351.311 189.875Z" fill="white"/>
<rect x="263.377" y="212.805" width="81.4629" height="8" rx="4" fill="#D5D4D2"/>
<rect x="263.377" y="230.805" width="81.4629" height="8" rx="4" fill="#D5D4D2"/>
<rect x="263.377" y="248.805" width="81.4629" height="8" rx="4" fill="#D5D4D2"/>
<rect x="263.377" y="266.805" width="81.4629" height="8" rx="4" fill="#D5D4D2"/>
<rect x="263.377" y="284.805" width="81.4629" height="8" rx="4" fill="#D5D4D2"/>
<rect x="263.377" y="302.805" width="81.4629" height="8" rx="4" fill="#D5D4D2"/>
<rect x="263.377" y="320.805" width="81.4629" height="8" rx="4" fill="#D5D4D2"/>
<rect x="263.377" y="338.805" width="81.4629" height="8" rx="4" fill="#D5D4D2"/>
<rect x="394" y="107" width="128.203" height="23.8325" rx="11.9163" fill="#2B266D"/>
<path d="M413.772 124.12C412.822 124.12 411.952 123.915 411.162 123.505C410.372 123.095 409.737 122.485 409.257 121.675C408.787 120.865 408.552 119.89 408.552 118.75C408.552 117.61 408.792 116.635 409.272 115.825C409.752 115.015 410.387 114.405 411.177 113.995C411.967 113.585 412.832 113.38 413.772 113.38C414.602 113.38 415.347 113.525 416.007 113.815C416.667 114.095 417.207 114.5 417.627 115.03C418.047 115.56 418.317 116.175 418.437 116.875L416.412 117.295C416.282 116.625 415.977 116.1 415.497 115.72C415.027 115.33 414.452 115.135 413.772 115.135C413.172 115.135 412.632 115.275 412.152 115.555C411.682 115.835 411.307 116.25 411.027 116.8C410.757 117.34 410.622 117.99 410.622 118.75C410.622 119.51 410.757 120.165 411.027 120.715C411.297 121.255 411.672 121.665 412.152 121.945C412.632 122.215 413.172 122.35 413.772 122.35C414.452 122.35 415.017 122.175 415.467 121.825C415.917 121.475 416.212 120.99 416.352 120.37L418.407 120.82C418.147 121.85 417.607 122.66 416.787 123.25C415.977 123.83 414.972 124.12 413.772 124.12ZM424.834 124.12C423.824 124.12 422.914 123.89 422.104 123.43C421.294 122.96 420.659 122.32 420.199 121.51C419.739 120.69 419.509 119.77 419.509 118.75C419.509 117.73 419.739 116.815 420.199 116.005C420.659 115.185 421.294 114.545 422.104 114.085C422.914 113.615 423.824 113.38 424.834 113.38C425.844 113.38 426.749 113.615 427.549 114.085C428.359 114.545 428.994 115.185 429.454 116.005C429.914 116.815 430.144 117.73 430.144 118.75C430.144 119.77 429.914 120.69 429.454 121.51C428.994 122.32 428.359 122.96 427.549 123.43C426.749 123.89 425.844 124.12 424.834 124.12ZM421.564 118.75C421.564 119.44 421.704 120.06 421.984 120.61C422.264 121.15 422.649 121.575 423.139 121.885C423.639 122.195 424.204 122.35 424.834 122.35C425.464 122.35 426.024 122.195 426.514 121.885C427.004 121.575 427.389 121.15 427.669 120.61C427.949 120.06 428.089 119.44 428.089 118.75C428.089 118.06 427.949 117.44 427.669 116.89C427.389 116.34 427.004 115.91 426.514 115.6C426.024 115.29 425.464 115.135 424.834 115.135C424.204 115.135 423.639 115.29 423.139 115.6C422.649 115.91 422.264 116.34 421.984 116.89C421.704 117.44 421.564 118.06 421.564 118.75ZM431.664 113.5H433.704V122.23H438.579V124H431.664V113.5ZM439.749 113.5H441.789V122.23H446.664V124H439.749V113.5ZM447.835 113.5H454.855V115.255H449.875V117.565H453.865V119.335H449.875V122.23H455.02V124H447.835V113.5ZM460.925 124.12C459.975 124.12 459.105 123.915 458.315 123.505C457.525 123.095 456.89 122.485 456.41 121.675C455.94 120.865 455.705 119.89 455.705 118.75C455.705 117.61 455.945 116.635 456.425 115.825C456.905 115.015 457.54 114.405 458.33 113.995C459.12 113.585 459.985 113.38 460.925 113.38C461.755 113.38 462.5 113.525 463.16 113.815C463.82 114.095 464.36 114.5 464.78 115.03C465.2 115.56 465.47 116.175 465.59 116.875L463.565 117.295C463.435 116.625 463.13 116.1 462.65 115.72C462.18 115.33 461.605 115.135 460.925 115.135C460.325 115.135 459.785 115.275 459.305 115.555C458.835 115.835 458.46 116.25 458.18 116.8C457.91 117.34 457.775 117.99 457.775 118.75C457.775 119.51 457.91 120.165 458.18 120.715C458.45 121.255 458.825 121.665 459.305 121.945C459.785 122.215 460.325 122.35 460.925 122.35C461.605 122.35 462.17 122.175 462.62 121.825C463.07 121.475 463.365 120.99 463.505 120.37L465.56 120.82C465.3 121.85 464.76 122.66 463.94 123.25C463.13 123.83 462.125 124.12 460.925 124.12ZM469.323 115.255H466.158V113.5H474.528V115.255H471.363V124H469.323V115.255ZM475.565 113.5H477.605V124H475.565V113.5ZM484.439 124.12C483.429 124.12 482.519 123.89 481.709 123.43C480.899 122.96 480.264 122.32 479.804 121.51C479.344 120.69 479.114 119.77 479.114 118.75C479.114 117.73 479.344 116.815 479.804 116.005C480.264 115.185 480.899 114.545 481.709 114.085C482.519 113.615 483.429 113.38 484.439 113.38C485.449 113.38 486.354 113.615 487.154 114.085C487.964 114.545 488.599 115.185 489.059 116.005C489.519 116.815 489.749 117.73 489.749 118.75C489.749 119.77 489.519 120.69 489.059 121.51C488.599 122.32 487.964 122.96 487.154 123.43C486.354 123.89 485.449 124.12 484.439 124.12ZM481.169 118.75C481.169 119.44 481.309 120.06 481.589 120.61C481.869 121.15 482.254 121.575 482.744 121.885C483.244 122.195 483.809 122.35 484.439 122.35C485.069 122.35 485.629 122.195 486.119 121.885C486.609 121.575 486.994 121.15 487.274 120.61C487.554 120.06 487.694 119.44 487.694 118.75C487.694 118.06 487.554 117.44 487.274 116.89C486.994 116.34 486.609 115.91 486.119 115.6C485.629 115.29 485.069 115.135 484.439 115.135C483.809 115.135 483.244 115.29 482.744 115.6C482.254 115.91 481.869 116.34 481.589 116.89C481.309 117.44 481.169 118.06 481.169 118.75ZM491.268 113.5H493.338L497.838 120.79V113.5H499.743V124H497.673L493.188 116.725V124H491.268V113.5ZM505.192 124.12C504.512 124.12 503.877 123.98 503.287 123.7C502.697 123.41 502.212 123.015 501.832 122.515C501.452 122.015 501.222 121.45 501.142 120.82L502.957 120.265C503.037 120.885 503.292 121.395 503.722 121.795C504.162 122.185 504.677 122.38 505.267 122.38C505.817 122.38 506.257 122.26 506.587 122.02C506.917 121.78 507.082 121.46 507.082 121.06C507.082 120.75 506.982 120.495 506.782 120.295C506.592 120.095 506.347 119.935 506.047 119.815C505.747 119.695 505.342 119.56 504.832 119.41C504.132 119.2 503.562 118.995 503.122 118.795C502.682 118.585 502.302 118.275 501.982 117.865C501.672 117.455 501.517 116.92 501.517 116.26C501.517 115.71 501.677 115.215 501.997 114.775C502.317 114.335 502.752 113.995 503.302 113.755C503.862 113.505 504.482 113.38 505.162 113.38C505.822 113.38 506.427 113.49 506.977 113.71C507.527 113.93 507.982 114.245 508.342 114.655C508.712 115.055 508.952 115.515 509.062 116.035L507.232 116.785C507.122 116.275 506.882 115.87 506.512 115.57C506.152 115.27 505.702 115.12 505.162 115.12C504.662 115.12 504.267 115.225 503.977 115.435C503.687 115.635 503.542 115.91 503.542 116.26C503.542 116.5 503.627 116.695 503.797 116.845C503.967 116.995 504.177 117.115 504.427 117.205C504.677 117.295 505.042 117.405 505.522 117.535C506.262 117.715 506.877 117.915 507.367 118.135C507.857 118.345 508.277 118.68 508.627 119.14C508.977 119.6 509.152 120.225 509.152 121.015C509.152 121.625 508.987 122.165 508.657 122.635C508.327 123.105 507.862 123.47 507.262 123.73C506.662 123.99 505.972 124.12 505.192 124.12Z" fill="white"/>
<rect x="394" y="143.16" width="73.9631" height="17.669" rx="4" fill="#F5F5F4"/>
<path d="M403.969 150.941C403.969 149.939 403.424 149.025 402.562 148.515C401.684 148.005 400.611 148.005 399.75 148.515C398.871 149.025 398.344 149.939 398.344 150.941C398.344 151.96 398.871 152.875 399.75 153.384C400.611 153.894 401.684 153.894 402.562 153.384C403.424 152.875 403.969 151.96 403.969 150.941ZM403.424 153.824C402.791 154.316 402 154.597 401.156 154.597C399.135 154.597 397.5 152.962 397.5 150.941C397.5 148.937 399.135 147.285 401.156 147.285C403.16 147.285 404.812 148.937 404.812 150.941C404.812 151.802 404.514 152.593 404.021 153.226L406.377 155.564C406.535 155.74 406.535 156.003 406.377 156.162C406.201 156.337 405.938 156.337 405.779 156.162L403.424 153.824Z" fill="#D5D4D2"/>
<rect x="479.963" y="143.16" width="73.9631" height="17.669" rx="4" fill="#D5D2F9"/>
<path d="M485.406 148.777C485.406 148.51 485.611 148.285 485.898 148.285H494.102C494.368 148.285 494.594 148.51 494.594 148.777C494.594 149.064 494.368 149.269 494.102 149.269H485.898C485.611 149.269 485.406 149.064 485.406 148.777ZM486.719 152.058C486.719 151.792 486.924 151.566 487.211 151.566H492.789C493.056 151.566 493.281 151.792 493.281 152.058C493.281 152.345 493.056 152.55 492.789 152.55H487.211C486.924 152.55 486.719 152.345 486.719 152.058ZM491.312 155.339C491.312 155.626 491.087 155.832 490.82 155.832H489.18C488.893 155.832 488.688 155.626 488.688 155.339C488.688 155.073 488.893 154.847 489.18 154.847H490.82C491.087 154.847 491.312 155.073 491.312 155.339Z" fill="white"/>
<rect x="394" y="173.16" width="200" height="18" rx="4" fill="#F5F5F4"/>
<rect x="394" y="204.494" width="27.9416" height="8" rx="4" fill="#D5D4D2"/>
<rect x="430.16" y="203.152" width="11.0945" height="10.6836" rx="5.34178" fill="#8EE9CC"/>
<rect x="449.473" y="204.494" width="65" height="8" rx="4" fill="#D5D4D2"/>
<rect x="522.69" y="204.494" width="40" height="8" rx="4" fill="#ECEBEA"/>
<rect x="522.69" y="204.494" width="18" height="8" rx="4" fill="#8EE9CC"/>
<rect x="570.908" y="204.494" width="23.4216" height="8" rx="4" fill="#D5D4D2"/>
<rect x="394" y="227.504" width="27.9416" height="8" rx="4" fill="#D5D4D2"/>
<rect x="430.16" y="226.163" width="11.0945" height="10.6836" rx="5.34178" fill="#8EE9CC"/>
<rect x="449.473" y="227.504" width="65" height="8" rx="4" fill="#D5D4D2"/>
<rect x="522.69" y="227.504" width="40" height="8" rx="4" fill="#ECEBEA"/>
<rect x="523" y="227.504" width="31" height="8" rx="4" fill="#8EE9CC"/>
<rect x="570.908" y="227.504" width="23.4216" height="8" rx="4" fill="#D5D4D2"/>
<rect x="394" y="250.515" width="27.9416" height="8" rx="4" fill="#D5D4D2"/>
<rect x="430.16" y="249.173" width="11.0945" height="10.6836" rx="5.34178" fill="#8EE9CC"/>
<rect x="449.473" y="250.515" width="65" height="8" rx="4" fill="#D5D4D2"/>
<rect x="522.69" y="250.515" width="40" height="8" rx="4" fill="#ECEBEA"/>
<rect x="522.69" y="250.515" width="18" height="8" rx="4" fill="#FBC63C"/>
<rect x="570.908" y="250.515" width="23.4216" height="8" rx="4" fill="#D5D4D2"/>
<rect x="394" y="273.526" width="27.9416" height="8" rx="4" fill="#D5D4D2"/>
<rect x="430.16" y="272.184" width="11.0945" height="10.6836" rx="5.34178" fill="#DD2222"/>
<rect x="449.473" y="273.526" width="65" height="8" rx="4" fill="#D5D4D2"/>
<rect x="522.69" y="273.526" width="40" height="8" rx="4" fill="#ECEBEA"/>
<rect x="522.69" y="273.526" width="18" height="8" rx="4" fill="#DD2222"/>
<rect x="570.908" y="273.526" width="23.4216" height="8" rx="4" fill="#D5D4D2"/>
<rect x="394" y="296.537" width="27.9416" height="8" rx="4" fill="#D5D4D2"/>
<rect x="430.16" y="295.195" width="11.0945" height="10.6836" rx="5.34178" fill="#B8B4F5"/>
<rect x="449.473" y="296.537" width="65" height="8" rx="4" fill="#D5D4D2"/>
<rect x="522.69" y="296.537" width="40" height="8" rx="4" fill="#ECEBEA"/>
<rect x="522.69" y="296.537" width="18" height="8" rx="4" fill="#8EE9CC"/>
<rect x="570.908" y="296.537" width="23.4216" height="8" rx="4" fill="#D5D4D2"/>
<rect x="394" y="319.547" width="27.9416" height="8" rx="4" fill="#D5D4D2"/>
<rect x="430.16" y="318.206" width="11.0945" height="10.6836" rx="5.34178" fill="#8EE9CC"/>
<rect x="449.473" y="319.547" width="65" height="8" rx="4" fill="#D5D4D2"/>
<rect x="522.69" y="319.547" width="40" height="8" rx="4" fill="#8EE9CC"/>
<rect x="570.908" y="319.547" width="23.4216" height="8" rx="4" fill="#D5D4D2"/>
<rect x="394" y="342.558" width="27.9416" height="8" rx="4" fill="#D5D4D2"/>
<rect x="430.16" y="341.216" width="11.0945" height="10.6836" rx="5.34178" fill="#B8B4F5"/>
<rect x="449.473" y="342.558" width="65" height="8" rx="4" fill="#D5D4D2"/>
<rect x="522.69" y="342.558" width="40" height="8" rx="4" fill="#ECEBEA"/>
<rect x="522.69" y="342.558" width="18" height="8" rx="4" fill="#FBC63C"/>
<rect x="570.908" y="342.558" width="23.4216" height="8" rx="4" fill="#D5D4D2"/>
<path d="M411.332 211.868L397.295 217.082L409.395 233.001C409.597 233.26 409.523 233.623 409.225 233.795L393.475 243.439C393.188 243.621 392.783 243.554 392.592 243.286L380.609 227.51L370.201 237.46C369.658 237.986 368.679 237.708 368.562 236.991L361.028 189.185C360.751 187.625 362.603 186.468 364.124 187.252L411.428 210.328C412.13 210.672 412.077 211.6 411.332 211.868Z" fill="white" stroke="#2B266D" stroke-width="2" stroke-miterlimit="10"/>
<path d="M379.664 181.083L397.278 189.135" stroke="#2B266D" stroke-width="2" stroke-miterlimit="10" stroke-linecap="round"/>
<path d="M380.01 171.504L398.155 164.746" stroke="#2B266D" stroke-width="2" stroke-miterlimit="10" stroke-linecap="round"/>
<path d="M363.904 164.145L357.146 146" stroke="#2B266D" stroke-width="2" stroke-miterlimit="10" stroke-linecap="round"/>
<path d="M373.481 164.489L381.534 146.876" stroke="#2B266D" stroke-width="2" stroke-miterlimit="10" stroke-linecap="round"/>
</svg>
