<svg width="844" height="400" viewBox="0 0 844 400" fill="none" xmlns="http://www.w3.org/2000/svg">
<path d="M140.41 363C137.321 363 135.906 359.153 138.257 357.151L171.57 328.792C172.17 328.281 172.933 328 173.722 328H582.479C583.208 328 583.917 328.24 584.496 328.683L621.593 357.042C624.115 358.97 622.751 363 619.576 363H140.41Z" fill="#2B266D"/>
<path d="M586.227 361.131H245.57C227.409 361.131 219.269 350.438 219.269 337.978V37.0252C219.269 30.289 226.379 24.0002 234.231 24.0002H588.121C595.424 24.0002 600.682 29.8533 600.682 36.1302V348.742C600.682 355.561 594.189 361.131 586.241 361.131H586.227Z" fill="#2B266D"/>
<path d="M589.045 24.8354H239.793C232.296 24.8354 226.219 30.1338 226.219 36.6697V349.297C226.219 355.833 232.296 361.131 239.793 361.131H589.045C596.542 361.131 602.619 355.833 602.619 349.297V36.6697C602.619 30.1338 596.542 24.8354 589.045 24.8354Z" fill="white" stroke="#2B266D" stroke-width="2" stroke-miterlimit="10"/>
<path d="M226.219 37.7198C226.219 31.0656 231.613 25.6714 238.267 25.6714H338.596V360.296H238.267C231.613 360.296 226.219 354.902 226.219 348.247V37.7198Z" fill="#FAFAFA"/>
<path d="M315.05 80.3977H247.168C245.288 80.3977 243.764 82.0446 243.764 84.0762V90.3949C243.764 92.4266 245.288 94.0735 247.168 94.0735H315.05C316.93 94.0735 318.454 92.4266 318.454 90.3949V84.0762C318.454 82.0446 316.93 80.3977 315.05 80.3977Z" fill="#D5D2F9"/>
<rect x="243.764" y="104.073" width="81.4629" height="8" rx="4" fill="#D5D4D2"/>
<rect x="243.764" y="122.073" width="81.4629" height="8" rx="4" fill="#D5D4D2"/>
<rect x="243.764" y="140.073" width="81.4629" height="8" rx="4" fill="#D5D4D2"/>
<rect x="243.764" y="158.073" width="81.4629" height="8" rx="4" fill="#D5D4D2"/>
<rect x="243.764" y="176.073" width="81.4629" height="8" rx="4" fill="#D5D4D2"/>
<rect x="243.764" y="194.073" width="81.4629" height="8" rx="4" fill="#D5D4D2"/>
<rect x="243.764" y="212.073" width="81.4629" height="8" rx="4" fill="#D5D4D2"/>
<rect x="243.764" y="230.073" width="81.4629" height="8" rx="4" fill="#D5D4D2"/>
<rect x="243.764" y="248.073" width="81.4629" height="8" rx="4" fill="#D5D4D2"/>
<rect x="243.764" y="266.073" width="81.4629" height="8" rx="4" fill="#D5D4D2"/>
<rect x="243.764" y="284.073" width="81.4629" height="8" rx="4" fill="#D5D4D2"/>
<path d="M431.641 169.248H376.89C375.374 169.248 374.145 170.682 374.145 172.451V177.953C374.145 179.722 375.374 181.156 376.89 181.156H431.641C433.157 181.156 434.386 179.722 434.386 177.953V172.451C434.386 170.682 433.157 169.248 431.641 169.248Z" fill="#D5D4D2"/>
<path d="M375.651 189.898H432.881" stroke="#D5D4D2" stroke-width="2" stroke-miterlimit="10" stroke-linecap="round"/>
<path d="M375.651 198.64H432.881" stroke="#D5D4D2" stroke-width="2" stroke-miterlimit="10" stroke-linecap="round"/>
<path d="M375.651 207.382H432.881" stroke="#D5D4D2" stroke-width="2" stroke-miterlimit="10" stroke-linecap="round"/>
<path d="M505.259 169.248H450.508C448.992 169.248 447.763 170.682 447.763 172.451V177.953C447.763 179.722 448.992 181.156 450.508 181.156H505.259C506.775 181.156 508.005 179.722 508.005 177.953V172.451C508.005 170.682 506.775 169.248 505.259 169.248Z" fill="#D5D4D2"/>
<path d="M449.27 189.898H506.499" stroke="#D5D4D2" stroke-width="2" stroke-miterlimit="10" stroke-linecap="round"/>
<path d="M449.27 198.64H506.499" stroke="#D5D4D2" stroke-width="2" stroke-miterlimit="10" stroke-linecap="round"/>
<path d="M449.27 207.382H506.499" stroke="#D5D4D2" stroke-width="2" stroke-miterlimit="10" stroke-linecap="round"/>
<path d="M578.876 169.248H524.125C522.609 169.248 521.38 170.682 521.38 172.451V177.953C521.38 179.722 522.609 181.156 524.125 181.156H578.876C580.393 181.156 581.622 179.722 581.622 177.953V172.451C581.622 170.682 580.393 169.248 578.876 169.248Z" fill="#D5D4D2"/>
<path d="M522.887 189.898H580.117" stroke="#D5D4D2" stroke-width="2" stroke-miterlimit="10" stroke-linecap="round"/>
<path d="M522.887 198.64H580.117" stroke="#D5D4D2" stroke-width="2" stroke-miterlimit="10" stroke-linecap="round"/>
<path d="M522.887 207.382H580.117" stroke="#D5D4D2" stroke-width="2" stroke-miterlimit="10" stroke-linecap="round"/>
<path d="M375.651 224.942H432.881" stroke="#D5D4D2" stroke-width="2" stroke-miterlimit="10" stroke-linecap="round"/>
<path d="M431.641 233.684H376.89C375.374 233.684 374.145 235.118 374.145 236.887V242.389C374.145 244.158 375.374 245.592 376.89 245.592H431.641C433.157 245.592 434.386 244.158 434.386 242.389V236.887C434.386 235.118 433.157 233.684 431.641 233.684Z" fill="#D5D4D2"/>
<path d="M375.651 254.334H432.881" stroke="#D5D4D2" stroke-width="2" stroke-miterlimit="10" stroke-linecap="round"/>
<path d="M375.651 263.076H432.881" stroke="#D5D4D2" stroke-width="2" stroke-miterlimit="10" stroke-linecap="round"/>
<path d="M449.27 224.942H506.499" stroke="#D5D4D2" stroke-width="2" stroke-miterlimit="10" stroke-linecap="round"/>
<path d="M505.259 233.684H450.508C448.992 233.684 447.763 235.118 447.763 236.887V242.389C447.763 244.158 448.992 245.592 450.508 245.592H505.259C506.775 245.592 508.005 244.158 508.005 242.389V236.887C508.005 235.118 506.775 233.684 505.259 233.684Z" fill="#D5D4D2"/>
<path d="M449.27 254.334H506.499" stroke="#D5D4D2" stroke-width="2" stroke-miterlimit="10" stroke-linecap="round"/>
<path d="M449.27 263.076H506.499" stroke="#D5D4D2" stroke-width="2" stroke-miterlimit="10" stroke-linecap="round"/>
<path d="M522.887 224.942H580.117" stroke="#D5D4D2" stroke-width="2" stroke-miterlimit="10" stroke-linecap="round"/>
<path d="M578.876 233.684H524.125C522.609 233.684 521.38 235.118 521.38 236.887V242.389C521.38 244.158 522.609 245.592 524.125 245.592H578.876C580.393 245.592 581.622 244.158 581.622 242.389V236.887C581.622 235.118 580.393 233.684 578.876 233.684Z" fill="#D5D4D2"/>
<path d="M522.887 254.334H580.117" stroke="#D5D4D2" stroke-width="2" stroke-miterlimit="10" stroke-linecap="round"/>
<path d="M522.887 263.076H580.117" stroke="#D5D4D2" stroke-width="2" stroke-miterlimit="10" stroke-linecap="round"/>
<path d="M432.482 280.922H377.731C376.215 280.922 374.985 282.356 374.985 284.125V289.627C374.985 291.396 376.215 292.83 377.731 292.83H432.482C433.998 292.83 435.227 291.396 435.227 289.627V284.125C435.227 282.356 433.998 280.922 432.482 280.922Z" fill="#D5D4D2"/>
<path d="M376.492 301.572H433.722" stroke="#D5D4D2" stroke-width="2" stroke-miterlimit="10" stroke-linecap="round"/>
<path d="M376.492 310.314H433.722" stroke="#D5D4D2" stroke-width="2" stroke-miterlimit="10" stroke-linecap="round"/>
<path d="M376.492 319.056H433.722" stroke="#D5D4D2" stroke-width="2" stroke-miterlimit="10" stroke-linecap="round"/>
<path d="M506.1 280.922H451.349C449.833 280.922 448.604 282.356 448.604 284.125V289.627C448.604 291.396 449.833 292.83 451.349 292.83H506.1C507.616 292.83 508.845 291.396 508.845 289.627V284.125C508.845 282.356 507.616 280.922 506.1 280.922Z" fill="#D5D4D2"/>
<path d="M450.11 301.572H507.34" stroke="#D5D4D2" stroke-width="2" stroke-miterlimit="10" stroke-linecap="round"/>
<path d="M450.11 310.314H507.34" stroke="#D5D4D2" stroke-width="2" stroke-miterlimit="10" stroke-linecap="round"/>
<path d="M450.11 319.056H507.34" stroke="#D5D4D2" stroke-width="2" stroke-miterlimit="10" stroke-linecap="round"/>
<path d="M579.717 280.922H524.966C523.45 280.922 522.221 282.356 522.221 284.125V289.627C522.221 291.396 523.45 292.83 524.966 292.83H579.717C581.233 292.83 582.463 291.396 582.463 289.627V284.125C582.463 282.356 581.233 280.922 579.717 280.922Z" fill="#D5D4D2"/>
<path d="M523.728 301.572H580.957" stroke="#D5D4D2" stroke-width="2" stroke-miterlimit="10" stroke-linecap="round"/>
<path d="M523.728 310.314H580.957" stroke="#D5D4D2" stroke-width="2" stroke-miterlimit="10" stroke-linecap="round"/>
<path d="M523.728 319.056H580.957" stroke="#D5D4D2" stroke-width="2" stroke-miterlimit="10" stroke-linecap="round"/>
<rect x="375.849" y="148.163" width="18.4695" height="17.0685" rx="8.53427" transform="rotate(-90 375.849 148.163)" fill="#D5D2F9"/>
<rect x="397.095" y="148.163" width="32.129" height="16.0645" rx="8.03226" transform="rotate(-90 397.095 148.163)" fill="#D5D2F9"/>
<rect x="417.337" y="148.163" width="46.1855" height="17.0685" rx="8.53427" transform="rotate(-90 417.337 148.163)" fill="#D5D2F9"/>
<rect x="438.583" y="148.163" width="50.1563" height="17.0685" rx="8.53427" transform="rotate(-90 438.583 148.163)" fill="#5A51E7"/>
<rect x="459.829" y="148.163" width="59.347" height="17.0685" rx="8.53427" transform="rotate(-90 459.829 148.163)" fill="#5A51E7"/>
<rect x="481.075" y="148.163" width="50.2016" height="17.0685" rx="8.53427" transform="rotate(-90 481.075 148.163)" fill="#C5F6E6"/>
<rect x="502.321" y="148.163" width="41.1653" height="17.0685" rx="8.53427" transform="rotate(-90 502.321 148.163)" fill="#C5F6E6"/>
<rect x="523.568" y="148.163" width="50.2016" height="17.0685" rx="8.53427" transform="rotate(-90 523.568 148.163)" fill="#C5F6E6"/>
<rect x="544.814" y="148.163" width="59.2379" height="17.0685" rx="8.53427" transform="rotate(-90 544.814 148.163)" fill="#8EE9CC"/>
<rect x="566.061" y="148.163" width="77.3734" height="17.0685" rx="8.53427" transform="rotate(-90 566.061 148.163)" fill="#8EE9CC"/>
<circle cx="558.786" cy="230.623" r="87.1851" fill="#2B266D"/>
<circle cx="568.986" cy="230.623" r="86.1851" fill="white" stroke="#2B266D" stroke-width="2"/>
<path d="M608.329 154.067C595.7 147.267 579.751 144.822 569.472 144.822V232.752L633.441 173.981C626.155 165.481 616.841 158.651 608.329 154.067Z" fill="#FF5787"/>
<rect x="563.4" y="147.324" width="11.6571" height="22.3427" rx="5.82853" fill="#9C96F0"/>
<rect x="563.4" y="290.609" width="11.6571" height="22.3427" rx="5.82853" fill="#9C96F0"/>
<rect x="652.042" y="224.309" width="11.6571" height="22.3427" rx="5.82853" transform="rotate(90 652.042 224.309)" fill="#9C96F0"/>
<rect x="508.758" y="224.309" width="11.6571" height="22.3427" rx="5.82853" transform="rotate(90 508.758 224.309)" fill="#9C96F0"/>
<rect x="605.422" y="155.423" width="11.6571" height="22.3427" rx="5.82853" transform="rotate(29.8714 605.422 155.423)" fill="#9C96F0"/>
<rect x="534.059" y="279.672" width="11.6571" height="22.3427" rx="5.82853" transform="rotate(29.8714 534.059 279.672)" fill="#9C96F0"/>
<rect x="643.944" y="266.329" width="11.6571" height="22.3427" rx="5.82853" transform="rotate(119.871 643.944 266.329)" fill="#9C96F0"/>
<rect x="519.696" y="194.965" width="11.6571" height="22.3427" rx="5.82853" transform="rotate(119.871 519.696 194.965)" fill="#9C96F0"/>
<rect x="636.886" y="182.028" width="11.6571" height="22.3427" rx="5.82853" transform="rotate(58.6103 636.886 182.028)" fill="#9C96F0"/>
<rect x="514.571" y="256.659" width="11.6571" height="22.3427" rx="5.82853" transform="rotate(58.6103 514.571 256.659)" fill="#9C96F0"/>
<rect x="617.341" y="297.795" width="11.6571" height="22.3427" rx="5.82853" transform="rotate(148.61 617.341 297.795)" fill="#9C96F0"/>
<rect x="542.71" y="175.481" width="11.6571" height="22.3427" rx="5.82853" transform="rotate(148.61 542.71 175.481)" fill="#9C96F0"/>
<circle cx="569.715" cy="229.895" r="10.6856" fill="#2DC495"/>
<path d="M636.45 393.54H491.9" stroke="#2B266D" stroke-width="2" stroke-miterlimit="10" stroke-linecap="round"/>
</svg>
