<svg width="800" height="400" viewBox="0 0 800 400" fill="none" xmlns="http://www.w3.org/2000/svg">
<path d="M533.329 163.804C531.585 163.813 529.841 163.978 528.123 164.299C527.42 157.418 524.193 151.041 519.065 146.39C513.937 141.748 507.273 139.162 500.357 139.136C494.457 139.119 488.696 140.975 483.924 144.455C479.151 147.926 475.611 152.828 473.815 158.451C469.572 156.594 464.93 155.83 460.314 156.221C455.698 156.611 451.255 158.138 447.386 160.68C443.507 163.214 440.323 166.676 438.127 170.746C435.924 174.824 434.77 179.379 434.77 184.012V195.535H561.234V191.743C561.234 188.073 560.514 184.446 559.117 181.054C557.711 177.67 555.655 174.589 553.069 171.995C550.475 169.401 547.403 167.344 544.01 165.939C540.626 164.533 537 163.804 533.329 163.804Z" fill="#C5F6E6" stroke="#2B266D" stroke-miterlimit="10"/>
<path d="M298.672 100.217C297.651 100.223 296.631 100.328 295.625 100.533C295.214 96.1408 293.325 92.07 290.325 89.1014C287.324 86.1383 283.425 84.4879 279.378 84.4713C275.926 84.4602 272.555 85.6454 269.762 87.8663C266.97 90.0817 264.898 93.2109 263.847 96.7999C261.365 95.6146 258.648 95.1272 255.947 95.3765C253.246 95.6257 250.647 96.6005 248.382 98.2232C246.113 99.8405 244.249 102.05 242.965 104.648C241.675 107.251 241 110.159 241 113.116V120.471H315V118.051C315 115.708 314.579 113.393 313.761 111.228C312.939 109.068 311.735 107.101 310.222 105.445C308.704 103.789 306.907 102.477 304.922 101.58C302.942 100.682 300.819 100.217 298.672 100.217Z" fill="#C5F6E6" stroke="#2B266D" stroke-miterlimit="10"/>
<path d="M334.931 263.376L467.77 172.235L447.725 84.0378L368.307 158.366L334.931 263.376Z" fill="#2B266D"/>
<path d="M344.17 150.255L334.814 263.33L400.175 158.812L344.17 150.255Z" fill="#FF5787" stroke="#2B266D" stroke-width="2" stroke-linejoin="round"/>
<path d="M335.38 262.291L456.361 166.79L400.445 158.246L335.38 262.291Z" fill="#FF5787" stroke="#2B266D" stroke-width="2" stroke-linejoin="round"/>
<path d="M446.276 84.9886L344.389 150.348L400.071 158.854L446.276 84.9886Z" fill="#FF5787" stroke="#2B266D" stroke-width="2" stroke-linejoin="round"/>
<path d="M400.672 158.23L456.644 166.788L446.93 84.2798L400.672 158.23Z" fill="#FF5787" stroke="#2B266D" stroke-width="2" stroke-linejoin="round"/>
<path d="M335.873 262.624C329.056 262.861 317.223 266.89 324.422 281.108C333.42 298.882 325.236 307.413 317.055 310.256C308.873 313.1 289.241 310.967 280.241 327.318C271.241 343.669 249.148 331.584 238.512 332.295" stroke="#2B266D" stroke-width="2"/>
<path d="M448.468 84.5138L448.717 84.6692L448.683 84.3779L448.468 84.5138Z" fill="#FF5787"/>
<path d="M328.621 297.426L328.571 297.486L335.713 306.826L343.552 296.713L328.621 297.426Z" fill="#7169EA" stroke="#2B266D" stroke-width="2" stroke-linejoin="round"/>
<path d="M272.393 335.751L272.315 335.744L268.706 346.934L281.483 347.617L272.393 335.751Z" fill="#7169EA" stroke="#2B266D" stroke-width="2" stroke-linejoin="round"/>
<path d="M303.461 313.186L303.396 313.207L304.221 323.516L314.775 319.774L303.461 313.186Z" fill="#7169EA" stroke="#2B266D" stroke-width="2" stroke-linejoin="round"/>
<path d="M327.319 296.826L327.268 296.766L320.192 287.456L312.354 297.569L327.218 296.826L327.319 296.826Z" fill="#7169EA" stroke="#2B266D" stroke-width="2" stroke-linejoin="round"/>
<path d="M272.143 334.339L272.163 334.263L275.785 323.145L263.008 322.462L272.086 334.256L272.143 334.339Z" fill="#7169EA" stroke="#2B266D" stroke-width="2" stroke-linejoin="round"/>
<path d="M302.789 312.018L302.78 311.95L301.99 301.695L291.435 305.437L302.715 311.97L302.789 312.018Z" fill="#7169EA" stroke="#2B266D" stroke-width="2" stroke-linejoin="round"/>
<path d="M333.304 262.533L328.528 248.877L322.382 260.056L333.257 262.621L333.304 262.533Z" fill="#7169EA" stroke="#2B266D" stroke-width="2" stroke-linejoin="round"/>
<path d="M334.365 263.569L339.099 277.175L345.236 266.005L334.421 263.49L334.358 263.497L334.366 263.588L334.365 263.569Z" fill="#7169EA" stroke="#2B266D" stroke-width="2" stroke-linejoin="round"/>
<path d="M373.235 353.113L452.915 353.113" stroke="#2B266D" stroke-width="2" stroke-miterlimit="10" stroke-linecap="round" stroke-linejoin="round"/>
<path d="M337.018 353.113L365.992 353.113" stroke="#2B266D" stroke-width="2" stroke-miterlimit="10" stroke-linecap="round" stroke-linejoin="round"/>
</svg>
