<svg width="800" height="400" viewBox="0 0 800 400" fill="none" xmlns="http://www.w3.org/2000/svg">
<path d="M241.093 207.922V208.922H583.553V208.422V207.922H241.093Z" fill="#2B266D"/>
<path d="M326.273 297.482L474.313 339.092L559.443 300.782L446.493 277.662L326.273 297.482Z" fill="#2B266D"/>
<path d="M474.353 339.632L474.183 339.582L323.962 297.352L446.502 277.162L561.062 300.602L474.353 339.632ZM328.573 297.632L474.272 338.582L557.823 300.982L446.482 278.192L328.573 297.632Z" fill="#2B266D"/>
<path d="M435.183 223.032L324.933 279.902L459.713 279.922L435.183 223.032Z" fill="#FF5787"/>
<path d="M325.973 280.902L484.633 337.702L460.143 280.922L325.973 280.902Z" fill="#FF5787"/>
<path d="M556.063 279.932L436.413 223.362L460.803 279.922L556.063 279.932Z" fill="#FF5787"/>
<path d="M461.233 280.922L485.743 337.762L556.603 280.932L461.233 280.922Z" fill="#FF5787"/>
<path d="M556.933 280.342V280.662L557.183 280.462L556.933 280.342Z" fill="#FF5787"/>
<path d="M435.643 221.852L435.423 221.742L321.713 280.392L321.903 280.462C312.733 286.852 309.843 288.612 298.523 290.542C295.863 290.992 293.133 291.392 290.523 291.782C284.173 292.571 277.882 293.784 271.693 295.412H271.643L264.253 283.682C264.214 283.614 264.159 283.557 264.093 283.516C264.026 283.474 263.951 283.449 263.873 283.442C263.798 283.439 263.722 283.451 263.652 283.479C263.581 283.507 263.517 283.548 263.463 283.602L252.773 295.142C252.707 295.211 252.662 295.298 252.644 295.392C252.626 295.486 252.636 295.583 252.673 295.672C252.711 295.759 252.772 295.834 252.85 295.888C252.927 295.943 253.018 295.975 253.113 295.982L268.113 296.552C266.713 297.042 265.313 297.552 263.953 298.172C261.703 299.172 258.763 301.282 257.883 303.912C257.672 304.489 257.587 305.105 257.635 305.717C257.684 306.33 257.864 306.925 258.163 307.462C258.907 308.599 259.943 309.514 261.163 310.112C270.993 315.872 282.213 318.002 293.563 319.182L279.903 322.512C279.808 322.534 279.722 322.583 279.655 322.653C279.588 322.723 279.542 322.811 279.524 322.906C279.506 323.002 279.516 323.1 279.553 323.19C279.591 323.28 279.653 323.357 279.733 323.412L292.733 332.262C292.819 332.32 292.92 332.351 293.023 332.352H293.183C293.255 332.327 293.321 332.286 293.374 332.233C293.428 332.179 293.469 332.114 293.493 332.042L297.663 319.602C300.213 319.832 302.753 320.022 305.293 320.212C318.983 321.212 333.133 322.322 345.473 328.162C346.773 328.772 350.953 331.022 350.233 334.162C349.923 335.452 348.833 336.532 346.783 337.572C344.863 338.53 342.854 339.297 340.783 339.862L333.523 328.312C333.479 328.249 333.423 328.196 333.358 328.157C333.292 328.117 333.219 328.092 333.143 328.082C333.067 328.077 332.991 328.089 332.921 328.116C332.85 328.144 332.786 328.187 332.733 328.242L322.033 339.782C321.968 339.852 321.925 339.939 321.909 340.033C321.893 340.128 321.905 340.224 321.943 340.312C321.979 340.4 322.04 340.476 322.118 340.531C322.196 340.586 322.288 340.617 322.383 340.622L334.903 341.102C330.803 341.722 326.573 341.942 322.413 342.162C312.193 342.692 301.623 343.242 293.753 349.802C291.453 351.712 290.373 353.752 290.613 355.682C290.923 358.262 293.403 359.852 295.523 360.962C301.804 364.226 308.397 366.849 315.203 368.792L315.483 367.792C308.739 365.866 302.206 363.267 295.983 360.032C294.083 359.032 291.863 357.632 291.603 355.522C291.343 353.412 292.983 351.702 294.393 350.522C302.013 344.182 311.943 343.662 322.463 343.112C328.124 342.979 333.763 342.346 339.313 341.222H340.103L347.563 352.992C347.602 353.058 347.656 353.114 347.72 353.156C347.784 353.197 347.857 353.223 347.933 353.232H347.983C348.052 353.231 348.121 353.217 348.184 353.189C348.248 353.162 348.305 353.122 348.353 353.072L359.043 341.532C359.108 341.461 359.152 341.374 359.169 341.28C359.186 341.185 359.175 341.088 359.138 340.999C359.102 340.911 359.04 340.835 358.961 340.78C358.882 340.726 358.789 340.695 358.693 340.692L343.203 340.072C344.572 339.596 345.908 339.032 347.203 338.382C348.673 337.642 350.683 336.382 351.203 334.312C352.103 330.472 347.373 327.902 345.903 327.202C333.393 321.292 319.143 320.202 305.363 319.202L300.443 318.812L314.443 315.372C314.536 315.347 314.621 315.296 314.686 315.225C314.752 315.155 314.796 315.067 314.813 314.972C314.834 314.877 314.825 314.778 314.788 314.688C314.75 314.599 314.686 314.523 314.603 314.472L301.603 305.622C301.54 305.578 301.467 305.549 301.39 305.539C301.314 305.529 301.236 305.536 301.163 305.562C301.09 305.584 301.023 305.623 300.969 305.677C300.915 305.732 300.875 305.798 300.853 305.872L296.594 318.452H296.473C284.263 317.322 272.123 315.362 261.633 309.222C260.581 308.713 259.684 307.933 259.033 306.962C258.802 306.546 258.663 306.085 258.625 305.611C258.587 305.136 258.651 304.659 258.813 304.212C259.553 302.032 262.123 300.062 264.353 299.072C266.471 298.136 268.645 297.334 270.863 296.672L278.303 308.422C278.345 308.486 278.401 308.54 278.467 308.58C278.533 308.62 278.607 308.645 278.683 308.652C278.753 308.652 278.821 308.637 278.885 308.61C278.948 308.582 279.006 308.542 279.053 308.492L289.743 296.952C289.81 296.883 289.855 296.796 289.873 296.702C289.891 296.608 289.881 296.51 289.844 296.422C289.805 296.335 289.744 296.26 289.666 296.206C289.589 296.151 289.498 296.118 289.403 296.112L275.063 295.532C280.193 294.302 285.463 293.532 290.643 292.762C293.293 292.372 296.023 291.972 298.703 291.512C310.253 289.512 313.183 287.762 322.533 281.242L322.013 280.492L485.383 338.982L485.653 339.082L559.073 280.192L435.643 221.852ZM348.013 351.922L341.123 341.062C341.123 341.062 341.123 341.062 341.183 341.002L357.523 341.662L348.013 351.922ZM333.013 329.332L339.763 340.062L339.203 340.192L323.503 339.592L333.013 329.332ZM313.103 314.642L297.733 318.422H297.653L301.573 306.852L313.103 314.642ZM296.573 319.542L292.713 331.052L281.193 323.212L296.493 319.482H296.594L296.573 319.542ZM278.793 307.342L271.913 296.482L271.973 296.432L288.303 297.092L278.793 307.342ZM263.793 284.752L270.603 295.572L270.653 295.642H270.543L254.283 295.012L263.793 284.752ZM326.053 280.862H460.223L484.713 337.642L326.053 280.862ZM435.263 222.992L459.793 279.882H325.013L435.263 222.992ZM557.013 280.302L557.263 280.422L557.013 280.622V280.302ZM556.143 279.892H460.853L436.463 223.332L556.143 279.892ZM461.313 280.892H556.683L485.823 337.722L461.313 280.892Z" fill="#2B266D"/>
<path d="M354.208 61.1605C352.01 61.1608 349.818 61.3887 347.668 61.8404L347.108 61.9503V61.3905C346.454 53.3982 342.823 45.9426 336.934 40.4998C331.045 35.0571 323.327 32.0237 315.308 32.0003C308.459 31.969 301.784 34.1569 296.282 38.2364C290.78 42.3159 286.747 48.0676 284.788 54.6305L284.618 55.1805L284.098 54.9405C279.936 53.0274 275.408 52.0412 270.828 52.0504C262.371 52.061 254.263 55.4252 248.283 61.4054C242.303 67.3855 238.938 75.4931 238.928 83.9503V96.5304H386.138V93.0704C386.13 84.6063 382.763 76.4915 376.776 70.5084C370.789 64.5252 362.672 61.1631 354.208 61.1605Z" fill="#C5F6E6" stroke="#2B266D" stroke-width="2"/>
<path d="M271.933 296.472L271.873 296.522L278.753 307.382L288.263 297.122L271.933 296.462V296.472Z" fill="#7169EA"/>
<path d="M270.573 295.682L270.523 295.612L263.713 284.792L254.203 295.052L270.463 295.682H270.573Z" fill="#7169EA"/>
<path d="M341.183 341.042C341.183 341.042 341.183 341.042 341.123 341.102L348.013 351.962L357.523 341.702L341.183 341.042Z" fill="#7169EA"/>
<path d="M339.723 340.102L332.973 329.372L323.463 339.632L339.163 340.232L339.723 340.102Z" fill="#7169EA"/>
<path d="M297.693 318.452L313.063 314.672L301.533 306.822L297.613 318.392L297.693 318.452Z" fill="#7169EA"/>
<path d="M296.453 319.522L281.153 323.252L292.673 331.092L296.533 319.582V319.512H296.433L296.453 319.522Z" fill="#7169EA"/>
<path d="M222.935 319.279L222.494 327.638L223.493 327.691L223.934 319.332L222.935 319.279Z" fill="#2B266D"/>
<path d="M217.999 318.032L217 318.079L217.442 327.319L218.441 327.271L217.999 318.032Z" fill="#2B266D"/>
<path d="M290.824 271.142L289.826 271.192L290.268 280.111L291.267 280.061L290.824 271.142Z" fill="#2B266D"/>
<path d="M295.824 269.529L294.825 269.583L295.325 278.88L296.324 278.826L295.824 269.529Z" fill="#2B266D"/>
<path d="M556.185 333.417L555.744 341.775L556.742 341.828L557.183 333.469L556.185 333.417Z" fill="#2B266D"/>
<path d="M553.233 332.802H552.233V341.722H553.233V332.802Z" fill="#2B266D"/>
</svg>
