<svg width="800" height="400" viewBox="0 0 800 400" fill="none" xmlns="http://www.w3.org/2000/svg">
<rect x="210.6" y="38.2118" width="281.771" height="328.18" rx="16.5747" fill="#2B266D"/>
<path d="M197.387 375.016C194.411 375.016 192.942 371.399 195.075 369.325L224.235 340.955C224.854 340.353 225.683 340.016 226.547 340.016H583.673C584.475 340.016 585.25 340.306 585.854 340.834L618.326 369.204C620.632 371.219 619.207 375.016 616.145 375.016H197.387Z" fill="#2B266D"/>
<rect x="218.229" y="39.2118" width="279.771" height="332.81" rx="15.5747" fill="white" stroke="#2B266D" stroke-width="2"/>
<path d="M249.219 309.893C248.564 309.893 247.953 309.758 247.385 309.488C246.817 309.209 246.35 308.829 245.984 308.347C245.618 307.866 245.397 307.322 245.32 306.716L247.067 306.181C247.144 306.778 247.39 307.269 247.804 307.654C248.227 308.03 248.723 308.217 249.291 308.217C249.82 308.217 250.244 308.102 250.562 307.871C250.879 307.64 251.038 307.332 251.038 306.947C251.038 306.648 250.942 306.403 250.75 306.21C250.567 306.018 250.331 305.864 250.042 305.748C249.753 305.633 249.363 305.503 248.872 305.358C248.198 305.156 247.65 304.959 247.226 304.766C246.802 304.564 246.437 304.266 246.128 303.871C245.83 303.476 245.681 302.961 245.681 302.326C245.681 301.796 245.835 301.32 246.143 300.896C246.451 300.472 246.87 300.145 247.399 299.914C247.938 299.673 248.535 299.553 249.19 299.553C249.825 299.553 250.408 299.659 250.937 299.871C251.467 300.083 251.905 300.386 252.251 300.781C252.608 301.166 252.839 301.608 252.945 302.109L251.183 302.831C251.077 302.34 250.846 301.95 250.49 301.661C250.143 301.373 249.71 301.228 249.19 301.228C248.709 301.228 248.328 301.329 248.049 301.531C247.77 301.724 247.63 301.989 247.63 302.326C247.63 302.557 247.712 302.744 247.876 302.889C248.039 303.033 248.242 303.149 248.482 303.235C248.723 303.322 249.074 303.428 249.536 303.553C250.249 303.726 250.841 303.919 251.313 304.131C251.784 304.333 252.189 304.655 252.526 305.098C252.863 305.541 253.031 306.143 253.031 306.903C253.031 307.491 252.872 308.011 252.555 308.463C252.237 308.915 251.789 309.267 251.212 309.517C250.634 309.767 249.97 309.893 249.219 309.893ZM254.357 302.499H256.177V309.777H254.357V302.499ZM255.267 301.387C254.94 301.387 254.67 301.281 254.458 301.069C254.246 300.848 254.14 300.578 254.14 300.261C254.14 299.943 254.246 299.678 254.458 299.466C254.68 299.255 254.949 299.149 255.267 299.149C255.594 299.149 255.869 299.259 256.09 299.481C256.311 299.693 256.422 299.953 256.422 300.261C256.422 300.578 256.311 300.848 256.09 301.069C255.869 301.281 255.594 301.387 255.267 301.387ZM260.943 309.56C259.884 309.56 259.051 309.233 258.445 308.579C257.848 307.924 257.549 307.057 257.549 305.979C257.549 305.267 257.684 304.641 257.954 304.102C258.223 303.553 258.608 303.13 259.109 302.831C259.619 302.533 260.216 302.383 260.899 302.383C261.333 302.383 261.727 302.46 262.084 302.614C262.449 302.769 262.738 302.976 262.95 303.235V302.499H264.755V309.315C264.755 309.95 264.606 310.509 264.307 310.99C264.009 311.481 263.585 311.857 263.037 312.116C262.488 312.386 261.857 312.521 261.145 312.521C260.288 312.521 259.552 312.309 258.935 311.885C258.319 311.471 257.949 310.928 257.824 310.254L259.513 309.979C259.552 310.316 259.725 310.581 260.033 310.774C260.341 310.966 260.712 311.062 261.145 311.062C261.694 311.062 262.132 310.918 262.459 310.629C262.796 310.35 262.964 309.974 262.964 309.503V308.708C262.782 308.968 262.507 309.175 262.141 309.329C261.776 309.483 261.376 309.56 260.943 309.56ZM259.354 305.979C259.354 306.586 259.523 307.072 259.86 307.438C260.197 307.804 260.644 307.986 261.203 307.986C261.761 307.986 262.209 307.804 262.546 307.438C262.892 307.072 263.066 306.586 263.066 305.979C263.066 305.363 262.897 304.872 262.56 304.506C262.223 304.14 261.771 303.957 261.203 303.957C260.644 303.957 260.197 304.14 259.86 304.506C259.523 304.872 259.354 305.363 259.354 305.979ZM266.527 302.499H268.347V303.596C268.588 303.231 268.905 302.937 269.3 302.716C269.704 302.494 270.157 302.383 270.657 302.383C271.456 302.383 272.097 302.624 272.578 303.105C273.069 303.587 273.315 304.222 273.315 305.012V309.777H271.495V305.445C271.495 305.012 271.37 304.665 271.12 304.405C270.869 304.136 270.532 304.001 270.109 304.001C269.55 304.001 269.117 304.227 268.809 304.68C268.501 305.132 268.347 305.767 268.347 306.586V309.777H266.527V302.499ZM279.319 305.098C279.319 304.684 279.189 304.362 278.929 304.131C278.669 303.89 278.318 303.77 277.875 303.77C277.48 303.77 277.148 303.885 276.878 304.116C276.619 304.347 276.469 304.655 276.431 305.041L274.813 304.752C274.929 304.039 275.271 303.466 275.839 303.033C276.416 302.6 277.095 302.383 277.875 302.383C278.847 302.383 279.622 302.643 280.2 303.163C280.787 303.673 281.081 304.4 281.081 305.344V309.777H279.319V308.723C279.117 309.079 278.814 309.363 278.409 309.575C278.014 309.787 277.591 309.893 277.138 309.893C276.667 309.893 276.248 309.801 275.882 309.618C275.516 309.426 275.227 309.166 275.016 308.838C274.813 308.511 274.712 308.14 274.712 307.727C274.712 307.014 274.982 306.461 275.521 306.066C276.06 305.671 276.874 305.416 277.962 305.3L279.319 305.171V305.098ZM276.474 307.669C276.474 307.929 276.57 308.14 276.763 308.304C276.955 308.468 277.215 308.55 277.543 308.55C278.091 308.55 278.525 308.367 278.842 308.001C279.16 307.635 279.319 307.178 279.319 306.629V306.47L277.933 306.629C277.461 306.687 277.1 306.807 276.85 306.99C276.599 307.173 276.474 307.399 276.474 307.669ZM287.049 309.705C286.702 309.83 286.312 309.893 285.879 309.893C285.109 309.893 284.488 309.681 284.016 309.257C283.544 308.834 283.309 308.213 283.309 307.394V304.03H282.081V302.499H283.309V300.362H285.128V302.499H286.962V304.03H285.128V307.221C285.128 307.558 285.21 307.823 285.374 308.015C285.547 308.198 285.778 308.29 286.067 308.29C286.404 308.29 286.688 308.232 286.919 308.116L287.049 309.705ZM295.018 309.777H293.198V308.68C292.958 309.045 292.635 309.339 292.231 309.56C291.836 309.782 291.389 309.893 290.888 309.893C290.089 309.893 289.444 309.652 288.953 309.171C288.471 308.689 288.231 308.054 288.231 307.264V302.499H290.05V306.831C290.05 307.264 290.175 307.616 290.426 307.885C290.676 308.145 291.013 308.275 291.437 308.275C291.995 308.275 292.428 308.049 292.736 307.597C293.044 307.144 293.198 306.509 293.198 305.69V302.499H295.018V309.777ZM301.47 304.261C301.21 304.145 300.902 304.087 300.546 304.087C299.987 304.087 299.521 304.338 299.145 304.838C298.779 305.329 298.596 306.085 298.596 307.106V309.777H296.777V302.499H298.596V303.828C298.779 303.414 299.078 303.072 299.492 302.802C299.915 302.523 300.348 302.383 300.791 302.383C301.09 302.383 301.354 302.422 301.586 302.499L301.47 304.261ZM302 306.138C302 305.483 302.134 304.872 302.404 304.304C302.683 303.726 303.092 303.264 303.631 302.918C304.171 302.562 304.825 302.383 305.595 302.383C306.375 302.383 307.039 302.552 307.588 302.889C308.137 303.226 308.551 303.664 308.83 304.203C309.109 304.742 309.249 305.305 309.249 305.893C309.249 306.181 309.239 306.422 309.22 306.615H303.819C303.896 307.163 304.103 307.592 304.44 307.9C304.777 308.208 305.205 308.362 305.725 308.362C306.149 308.362 306.505 308.266 306.794 308.073C307.083 307.881 307.275 307.606 307.372 307.25L309.076 307.712C308.873 308.396 308.474 308.93 307.877 309.315C307.28 309.7 306.553 309.893 305.696 309.893C304.926 309.893 304.262 309.719 303.704 309.373C303.145 309.017 302.722 308.55 302.433 307.972C302.144 307.394 302 306.783 302 306.138ZM307.299 305.286C307.251 304.834 307.083 304.468 306.794 304.189C306.505 303.909 306.106 303.77 305.595 303.77C305.143 303.77 304.763 303.9 304.455 304.16C304.156 304.42 303.959 304.795 303.862 305.286H307.299ZM318.788 304.261C318.528 304.145 318.22 304.087 317.863 304.087C317.305 304.087 316.838 304.338 316.463 304.838C316.097 305.329 315.914 306.085 315.914 307.106V309.777H314.094V302.499H315.914V303.828C316.097 303.414 316.395 303.072 316.809 302.802C317.233 302.523 317.666 302.383 318.109 302.383C318.407 302.383 318.672 302.422 318.903 302.499L318.788 304.261ZM319.317 306.138C319.317 305.483 319.452 304.872 319.722 304.304C320.001 303.726 320.41 303.264 320.949 302.918C321.488 302.562 322.143 302.383 322.913 302.383C323.693 302.383 324.357 302.552 324.906 302.889C325.455 303.226 325.868 303.664 326.148 304.203C326.427 304.742 326.566 305.305 326.566 305.893C326.566 306.181 326.557 306.422 326.538 306.615H321.137C321.214 307.163 321.421 307.592 321.758 307.9C322.095 308.208 322.523 308.362 323.043 308.362C323.466 308.362 323.823 308.266 324.112 308.073C324.4 307.881 324.593 307.606 324.689 307.25L326.393 307.712C326.191 308.396 325.791 308.93 325.195 309.315C324.598 309.7 323.871 309.893 323.014 309.893C322.244 309.893 321.58 309.719 321.021 309.373C320.463 309.017 320.039 308.55 319.75 307.972C319.462 307.394 319.317 306.783 319.317 306.138ZM324.617 305.286C324.569 304.834 324.4 304.468 324.112 304.189C323.823 303.909 323.423 303.77 322.913 303.77C322.46 303.77 322.08 303.9 321.772 304.16C321.474 304.42 321.276 304.795 321.18 305.286H324.617ZM333.098 312.405V309.055C332.886 309.315 332.598 309.522 332.232 309.676C331.876 309.82 331.486 309.893 331.062 309.893C330.359 309.893 329.743 309.739 329.214 309.431C328.684 309.113 328.275 308.67 327.986 308.102C327.697 307.534 327.553 306.879 327.553 306.138C327.553 305.397 327.688 304.742 327.957 304.174C328.236 303.606 328.631 303.168 329.141 302.86C329.652 302.542 330.249 302.383 330.932 302.383C331.404 302.383 331.827 302.47 332.203 302.643C332.588 302.817 332.886 303.048 333.098 303.337V302.499H334.918V312.405H333.098ZM329.358 306.138C329.358 306.793 329.531 307.322 329.878 307.727C330.234 308.121 330.701 308.319 331.279 308.319C331.866 308.319 332.333 308.121 332.679 307.727C333.036 307.322 333.214 306.793 333.214 306.138C333.214 305.483 333.036 304.959 332.679 304.564C332.333 304.16 331.866 303.957 331.279 303.957C330.701 303.957 330.234 304.16 329.878 304.564C329.531 304.959 329.358 305.483 329.358 306.138ZM343.473 309.777H341.654V308.68C341.413 309.045 341.091 309.339 340.686 309.56C340.292 309.782 339.844 309.893 339.343 309.893C338.544 309.893 337.899 309.652 337.408 309.171C336.927 308.689 336.686 308.054 336.686 307.264V302.499H338.506V306.831C338.506 307.264 338.631 307.616 338.881 307.885C339.132 308.145 339.468 308.275 339.892 308.275C340.45 308.275 340.884 308.049 341.192 307.597C341.5 307.144 341.654 306.509 341.654 305.69V302.499H343.473V309.777ZM345.232 302.499H347.052V309.777H345.232V302.499ZM346.142 301.387C345.815 301.387 345.545 301.281 345.333 301.069C345.122 300.848 345.016 300.578 345.016 300.261C345.016 299.943 345.122 299.678 345.333 299.466C345.555 299.255 345.824 299.149 346.142 299.149C346.469 299.149 346.744 299.259 346.965 299.481C347.187 299.693 347.297 299.953 347.297 300.261C347.297 300.578 347.187 300.848 346.965 301.069C346.744 301.281 346.469 301.387 346.142 301.387ZM353.507 304.261C353.248 304.145 352.939 304.087 352.583 304.087C352.025 304.087 351.558 304.338 351.182 304.838C350.817 305.329 350.634 306.085 350.634 307.106V309.777H348.814V302.499H350.634V303.828C350.817 303.414 351.115 303.072 351.529 302.802C351.953 302.523 352.386 302.383 352.829 302.383C353.127 302.383 353.392 302.422 353.623 302.499L353.507 304.261ZM354.037 306.138C354.037 305.483 354.172 304.872 354.441 304.304C354.721 303.726 355.13 303.264 355.669 302.918C356.208 302.562 356.863 302.383 357.633 302.383C358.413 302.383 359.077 302.552 359.626 302.889C360.174 303.226 360.588 303.664 360.867 304.203C361.147 304.742 361.286 305.305 361.286 305.893C361.286 306.181 361.277 306.422 361.257 306.615H355.857C355.934 307.163 356.141 307.592 356.477 307.9C356.814 308.208 357.243 308.362 357.763 308.362C358.186 308.362 358.543 308.266 358.831 308.073C359.12 307.881 359.313 307.606 359.409 307.25L361.113 307.712C360.911 308.396 360.511 308.93 359.914 309.315C359.318 309.7 358.591 309.893 357.734 309.893C356.964 309.893 356.299 309.719 355.741 309.373C355.183 309.017 354.759 308.55 354.47 307.972C354.181 307.394 354.037 306.783 354.037 306.138ZM359.337 305.286C359.289 304.834 359.12 304.468 358.831 304.189C358.543 303.909 358.143 303.77 357.633 303.77C357.18 303.77 356.8 303.9 356.492 304.16C356.193 304.42 355.996 304.795 355.9 305.286H359.337ZM365.739 309.893C365.026 309.893 364.405 309.739 363.876 309.431C363.356 309.113 362.956 308.67 362.677 308.102C362.408 307.534 362.273 306.879 362.273 306.138C362.273 305.397 362.408 304.742 362.677 304.174C362.956 303.606 363.356 303.168 363.876 302.86C364.396 302.542 365.007 302.383 365.71 302.383C366.152 302.383 366.562 302.47 366.937 302.643C367.313 302.807 367.606 303.028 367.818 303.308V299.553H369.638V309.777H367.818V308.94C367.635 309.228 367.356 309.459 366.98 309.633C366.605 309.806 366.191 309.893 365.739 309.893ZM364.078 306.138C364.078 306.793 364.251 307.322 364.598 307.727C364.954 308.121 365.421 308.319 365.998 308.319C366.586 308.319 367.053 308.121 367.399 307.727C367.755 307.322 367.934 306.793 367.934 306.138C367.934 305.483 367.755 304.959 367.399 304.564C367.053 304.16 366.586 303.957 365.998 303.957C365.421 303.957 364.954 304.16 364.598 304.564C364.251 304.959 364.078 305.483 364.078 306.138Z" fill="#2B266D"/>
<path d="M248.758 92.16C247.851 92.16 247.005 91.9733 246.218 91.6C245.431 91.2133 244.785 90.6867 244.278 90.02C243.771 89.3533 243.465 88.6 243.358 87.76L245.778 87.02C245.885 87.8467 246.225 88.5267 246.798 89.06C247.385 89.58 248.071 89.84 248.858 89.84C249.591 89.84 250.178 89.68 250.618 89.36C251.058 89.04 251.278 88.6133 251.278 88.08C251.278 87.6667 251.145 87.3267 250.878 87.06C250.625 86.7933 250.298 86.58 249.898 86.42C249.498 86.26 248.958 86.08 248.278 85.88C247.345 85.6 246.585 85.3267 245.998 85.06C245.411 84.78 244.905 84.3667 244.478 83.82C244.065 83.2733 243.858 82.56 243.858 81.68C243.858 80.9467 244.071 80.2867 244.498 79.7C244.925 79.1133 245.505 78.66 246.238 78.34C246.985 78.0067 247.811 77.84 248.718 77.84C249.598 77.84 250.405 77.9867 251.138 78.28C251.871 78.5733 252.478 78.9933 252.958 79.54C253.451 80.0733 253.771 80.6867 253.918 81.38L251.478 82.38C251.331 81.7 251.011 81.16 250.518 80.76C250.038 80.36 249.438 80.16 248.718 80.16C248.051 80.16 247.525 80.3 247.138 80.58C246.751 80.8467 246.558 81.2133 246.558 81.68C246.558 82 246.671 82.26 246.898 82.46C247.125 82.66 247.405 82.82 247.738 82.94C248.071 83.06 248.558 83.2067 249.198 83.38C250.185 83.62 251.005 83.8867 251.658 84.18C252.311 84.46 252.871 84.9067 253.338 85.52C253.805 86.1333 254.038 86.9667 254.038 88.02C254.038 88.8333 253.818 89.5533 253.378 90.18C252.938 90.8067 252.318 91.2933 251.518 91.64C250.718 91.9867 249.798 92.16 248.758 92.16ZM255.974 78H265.334V80.34H258.694V83.42H264.014V85.78H258.694V89.64H265.554V92H255.974V78ZM267.576 78H272.976C274.349 78 275.443 78.38 276.256 79.14C277.083 79.8867 277.496 80.8867 277.496 82.14C277.496 82.9267 277.303 83.64 276.916 84.28C276.529 84.9067 275.989 85.3933 275.296 85.74L279.016 92H275.836L272.536 86.26H270.316V92H267.596L267.576 78ZM272.556 83.92C273.249 83.92 273.789 83.7667 274.176 83.46C274.563 83.14 274.756 82.7 274.756 82.14C274.756 81.58 274.563 81.14 274.176 80.82C273.789 80.5 273.249 80.34 272.556 80.34H270.316V83.92H272.556ZM278.427 78H281.207L284.827 88.76L288.487 78H291.247L286.147 92H283.527L278.427 78ZM292.713 78H295.433V92H292.713V78ZM304.404 92.16C303.137 92.16 301.977 91.8867 300.924 91.34C299.871 90.7933 299.024 89.98 298.384 88.9C297.757 87.82 297.444 86.52 297.444 85C297.444 83.48 297.764 82.18 298.404 81.1C299.044 80.02 299.891 79.2067 300.944 78.66C301.997 78.1133 303.151 77.84 304.404 77.84C305.511 77.84 306.504 78.0333 307.384 78.42C308.264 78.7933 308.984 79.3333 309.544 80.04C310.104 80.7467 310.464 81.5667 310.624 82.5L307.924 83.06C307.751 82.1667 307.344 81.4667 306.704 80.96C306.077 80.44 305.311 80.18 304.404 80.18C303.604 80.18 302.884 80.3667 302.244 80.74C301.617 81.1133 301.117 81.6667 300.744 82.4C300.384 83.12 300.204 83.9867 300.204 85C300.204 86.0133 300.384 86.8867 300.744 87.62C301.104 88.34 301.604 88.8867 302.244 89.26C302.884 89.62 303.604 89.8 304.404 89.8C305.311 89.8 306.064 89.5667 306.664 89.1C307.264 88.6333 307.657 87.9867 307.844 87.16L310.584 87.76C310.237 89.1333 309.517 90.2133 308.424 91C307.344 91.7733 306.004 92.16 304.404 92.16ZM312.361 78H321.721V80.34H315.081V83.42H320.401V85.78H315.081V89.64H321.941V92H312.361V78ZM328.563 92.16C327.656 92.16 326.809 91.9733 326.023 91.6C325.236 91.2133 324.589 90.6867 324.083 90.02C323.576 89.3533 323.269 88.6 323.163 87.76L325.583 87.02C325.689 87.8467 326.029 88.5267 326.603 89.06C327.189 89.58 327.876 89.84 328.663 89.84C329.396 89.84 329.983 89.68 330.423 89.36C330.863 89.04 331.083 88.6133 331.083 88.08C331.083 87.6667 330.949 87.3267 330.683 87.06C330.429 86.7933 330.103 86.58 329.703 86.42C329.303 86.26 328.763 86.08 328.083 85.88C327.149 85.6 326.389 85.3267 325.803 85.06C325.216 84.78 324.709 84.3667 324.283 83.82C323.869 83.2733 323.663 82.56 323.663 81.68C323.663 80.9467 323.876 80.2867 324.303 79.7C324.729 79.1133 325.309 78.66 326.043 78.34C326.789 78.0067 327.616 77.84 328.523 77.84C329.403 77.84 330.209 77.9867 330.943 78.28C331.676 78.5733 332.283 78.9933 332.763 79.54C333.256 80.0733 333.576 80.6867 333.723 81.38L331.283 82.38C331.136 81.7 330.816 81.16 330.323 80.76C329.843 80.36 329.243 80.16 328.523 80.16C327.856 80.16 327.329 80.3 326.943 80.58C326.556 80.8467 326.363 81.2133 326.363 81.68C326.363 82 326.476 82.26 326.703 82.46C326.929 82.66 327.209 82.82 327.543 82.94C327.876 83.06 328.363 83.2067 329.003 83.38C329.989 83.62 330.809 83.8867 331.463 84.18C332.116 84.46 332.676 84.9067 333.143 85.52C333.609 86.1333 333.843 86.9667 333.843 88.02C333.843 88.8333 333.623 89.5533 333.183 90.18C332.743 90.8067 332.123 91.2933 331.323 91.64C330.523 91.9867 329.603 92.16 328.563 92.16Z" fill="#2B266D"/>
<path d="M249.715 327.114L246.726 322.464H247.736L250.22 326.334L252.718 322.464H253.729L250.726 327.114L254.235 332.572H253.224L250.22 327.908L247.217 332.572H246.206L249.715 327.114Z" fill="#2B266D"/>
<rect x="245.838" y="339" width="203" height="4" rx="2" fill="#9C96F0"/>
<rect x="245" y="111" width="162.294" height="23.4" rx="11.7" fill="#D5D2F9"/>
<rect x="245" y="144.4" width="162.294" height="23.4" rx="11.7" fill="#D5D2F9"/>
<rect x="245" y="177.8" width="162.294" height="23.4" rx="11.7" fill="#D5D2F9"/>
<rect x="245" y="211.2" width="217" height="3" rx="1.5" fill="white"/>
<rect x="245" y="224.2" width="217" height="7" rx="3.5" fill="#D5D4D2"/>
<rect x="245" y="241.2" width="190" height="7" rx="3.5" fill="#D5D4D2"/>
<rect x="245" y="258.2" width="230" height="7" rx="3.5" fill="#D5D4D2"/>
<rect x="245" y="275.2" width="162" height="7" rx="3.5" fill="#D5D4D2"/>
<rect x="517.049" y="196.662" width="137.609" height="23.2112" rx="11.6056" fill="#2B266D"/>
<rect x="523.022" y="197.662" width="135.609" height="21.4042" rx="10.7021" fill="white" stroke="#2B266D" stroke-width="2"/>
<rect x="533.838" y="207" width="111" height="5" rx="2.5" fill="#9C96F0"/>
<rect x="517.049" y="165.953" width="137.609" height="23.2112" rx="11.6056" fill="#2B266D"/>
<rect x="523.022" y="166.953" width="135.609" height="21.4042" rx="10.7021" fill="#9C96F0" stroke="#2B266D" stroke-width="2"/>
<rect x="517.05" y="227.37" width="137.609" height="23.2112" rx="11.6056" fill="#2B266D"/>
<rect x="523.023" y="228.37" width="135.609" height="21.4042" rx="10.7021" fill="white" stroke="#2B266D" stroke-width="2"/>
<rect x="533.838" y="237" width="111" height="5" rx="2.5" fill="#9C96F0"/>
<rect x="417.838" y="116.347" width="137.609" height="23.2112" rx="11.6056" fill="#2B266D"/>
<rect x="423.812" y="117.347" width="135.609" height="21.4042" rx="10.7021" fill="#FF5787" stroke="#2B266D" stroke-width="2"/>
<rect x="435.838" y="126" width="110" height="5" rx="2.5" fill="#2B266D"/>
<path d="M543.631 145.601L533.583 149.754L542.245 162.432C542.39 162.638 542.336 162.927 542.123 163.065L530.848 170.745C530.643 170.89 530.353 170.836 530.216 170.623L521.638 158.059L514.188 165.983C513.8 166.402 513.099 166.181 513.015 165.609L507.621 127.535C507.423 126.293 508.749 125.371 509.838 125.996L543.7 144.374C544.203 144.649 544.165 145.388 543.631 145.601Z" fill="white" stroke="#2B266D" stroke-width="2" stroke-miterlimit="10"/>
<path d="M570.276 123.082L587.89 131.135" stroke="#2B266D" stroke-width="2" stroke-miterlimit="10" stroke-linecap="round"/>
<path d="M570.622 113.504L588.767 106.746" stroke="#2B266D" stroke-width="2" stroke-miterlimit="10" stroke-linecap="round"/>
<path d="M554.516 106.145L547.759 88" stroke="#2B266D" stroke-width="2" stroke-miterlimit="10" stroke-linecap="round"/>
<path d="M564.094 106.489L572.146 88.8756" stroke="#2B266D" stroke-width="2" stroke-miterlimit="10" stroke-linecap="round"/>
</svg>
