<svg width="800" height="400" viewBox="0 0 800 400" fill="none" xmlns="http://www.w3.org/2000/svg">
<path d="M159.317 339.945H454.558C455.004 339.945 455.431 340.127 455.739 340.449L482.684 368.601C483.678 369.64 482.941 371.365 481.502 371.365H135.121C133.724 371.365 132.971 369.725 133.882 368.665L158.077 340.515C158.388 340.153 158.841 339.945 159.317 339.945Z" fill="#2B266D" stroke="#2B266D" stroke-width="3.26944"/>
<path d="M218.235 38.5938H453.653C455.822 38.5938 457.747 39.889 459.158 42.0156C460.568 44.1412 461.416 47.038 461.416 50.0537V360.689C461.416 367.283 457.233 372.406 452.402 372.406H225.778C219.941 372.406 215.747 369.853 212.989 365.806C210.214 361.731 208.875 356.109 208.875 349.993V50.9424C208.875 47.73 210.012 44.6207 211.771 42.3223C213.535 40.0165 215.867 38.5938 218.235 38.5938Z" fill="#2B266D" stroke="#2B266D" stroke-width="1.18688"/>
<path d="M457.967 38.9912H225.011C220.011 38.9912 215.957 44.2082 215.957 50.6437V358.468C215.957 364.904 220.011 370.121 225.011 370.121H457.967C462.967 370.121 467.021 364.904 467.021 358.468V50.6437C467.021 44.2082 462.967 38.9912 457.967 38.9912Z" fill="white" stroke="#2B266D" stroke-width="1.98225" stroke-miterlimit="10"/>
<path d="M241.481 65.4715H249.869C251.257 65.4715 252.476 65.7392 253.527 66.2746C254.578 66.7902 255.381 67.5338 255.936 68.5054C256.511 69.4572 256.799 70.5676 256.799 71.8367C256.799 73.1057 256.511 74.2161 255.936 75.1679C255.381 76.1197 254.578 76.8633 253.527 77.3987C252.476 77.9142 251.257 78.172 249.869 78.172H245.526V86.292H241.481V65.4715ZM249.512 74.692C250.523 74.692 251.316 74.4442 251.891 73.9484C252.466 73.4329 252.754 72.729 252.754 71.8367C252.754 70.9245 252.466 70.2206 251.891 69.7249C251.316 69.2093 250.523 68.9515 249.512 68.9515H245.526V74.692H249.512ZM259.344 65.4715H267.375C269.417 65.4715 271.043 66.0367 272.253 67.1669C273.482 68.2773 274.097 69.7645 274.097 71.6284C274.097 72.7984 273.809 73.8592 273.234 74.811C272.659 75.743 271.856 76.4667 270.825 76.9823L276.357 86.292H271.628L266.72 77.7556H263.419V86.292H259.374L259.344 65.4715ZM266.75 74.2756C267.781 74.2756 268.584 74.0476 269.159 73.5915C269.734 73.1156 270.022 72.4613 270.022 71.6284C270.022 70.7956 269.734 70.1413 269.159 69.6654C268.584 69.1895 267.781 68.9515 266.75 68.9515H263.419V74.2756H266.75ZM287.222 86.5299C285.219 86.5299 283.415 86.0739 281.809 85.1617C280.202 84.2298 278.943 82.9607 278.031 81.3546C277.119 79.7286 276.663 77.9043 276.663 75.8818C276.663 73.8592 277.119 72.0449 278.031 70.4387C278.943 68.8127 280.202 67.5437 281.809 66.6315C283.415 65.6996 285.219 65.2336 287.222 65.2336C289.225 65.2336 291.019 65.6996 292.606 66.6315C294.212 67.5437 295.471 68.8127 296.383 70.4387C297.295 72.0449 297.751 73.8592 297.751 75.8818C297.751 77.9043 297.295 79.7286 296.383 81.3546C295.471 82.9607 294.212 84.2298 292.606 85.1617C291.019 86.0739 289.225 86.5299 287.222 86.5299ZM280.738 75.8818C280.738 77.25 281.015 78.4794 281.571 79.57C282.126 80.6407 282.889 81.4835 283.861 82.0982C284.852 82.7129 285.973 83.0202 287.222 83.0202C288.471 83.0202 289.582 82.7129 290.553 82.0982C291.525 81.4835 292.288 80.6407 292.843 79.57C293.399 78.4794 293.676 77.25 293.676 75.8818C293.676 74.5136 293.399 73.2842 292.843 72.1936C292.288 71.103 291.525 70.2503 290.553 69.6356C289.582 69.0209 288.471 68.7136 287.222 68.7136C285.973 68.7136 284.852 69.0209 283.861 69.6356C282.889 70.2503 282.126 71.103 281.571 72.1936C281.015 73.2842 280.738 74.5136 280.738 75.8818ZM300.794 65.4715H309.181C310.57 65.4715 311.789 65.7392 312.84 66.2746C313.891 66.7902 314.694 67.5338 315.249 68.5054C315.824 69.4572 316.112 70.5676 316.112 71.8367C316.112 73.1057 315.824 74.2161 315.249 75.1679C314.694 76.1197 313.891 76.8633 312.84 77.3987C311.789 77.9142 310.57 78.172 309.181 78.172H304.839V86.292H300.794V65.4715ZM308.825 74.692C309.836 74.692 310.629 74.4442 311.204 73.9484C311.779 73.4329 312.067 72.729 312.067 71.8367C312.067 70.9245 311.779 70.2206 311.204 69.7249C310.629 69.2093 309.836 68.9515 308.825 68.9515H304.839V74.692H308.825ZM328.294 86.5299C326.291 86.5299 324.486 86.0739 322.88 85.1617C321.274 84.2298 320.015 82.9607 319.103 81.3546C318.191 79.7286 317.735 77.9043 317.735 75.8818C317.735 73.8592 318.191 72.0449 319.103 70.4387C320.015 68.8127 321.274 67.5437 322.88 66.6315C324.486 65.6996 326.291 65.2336 328.294 65.2336C330.296 65.2336 332.091 65.6996 333.677 66.6315C335.283 67.5437 336.542 68.8127 337.455 70.4387C338.367 72.0449 338.823 73.8592 338.823 75.8818C338.823 77.9043 338.367 79.7286 337.455 81.3546C336.542 82.9607 335.283 84.2298 333.677 85.1617C332.091 86.0739 330.296 86.5299 328.294 86.5299ZM321.809 75.8818C321.809 77.25 322.087 78.4794 322.642 79.57C323.197 80.6407 323.961 81.4835 324.933 82.0982C325.924 82.7129 327.044 83.0202 328.294 83.0202C329.543 83.0202 330.653 82.7129 331.625 82.0982C332.596 81.4835 333.36 80.6407 333.915 79.57C334.47 78.4794 334.748 77.25 334.748 75.8818C334.748 74.5136 334.47 73.2842 333.915 72.1936C333.36 71.103 332.596 70.2503 331.625 69.6356C330.653 69.0209 329.543 68.7136 328.294 68.7136C327.044 68.7136 325.924 69.0209 324.933 69.6356C323.961 70.2503 323.197 71.103 322.642 72.1936C322.087 73.2842 321.809 74.5136 321.809 75.8818ZM348.677 86.5299C347.328 86.5299 346.069 86.2523 344.899 85.6971C343.729 85.1221 342.768 84.3388 342.014 83.3474C341.261 82.3559 340.805 81.2356 340.646 79.9864L344.245 78.8859C344.404 80.1153 344.909 81.1265 345.762 81.9197C346.634 82.693 347.655 83.0797 348.825 83.0797C349.916 83.0797 350.788 82.8417 351.443 82.3659C352.097 81.89 352.424 81.2554 352.424 80.4623C352.424 79.8476 352.226 79.3419 351.829 78.9453C351.453 78.5488 350.967 78.2315 350.372 77.9936C349.777 77.7556 348.974 77.4879 347.963 77.1905C346.575 76.7741 345.445 76.3676 344.572 75.971C343.7 75.5546 342.946 74.9399 342.312 74.1269C341.697 73.3139 341.389 72.2531 341.389 70.9443C341.389 69.8538 341.707 68.8722 342.341 67.9997C342.976 67.1273 343.838 66.4531 344.929 65.9772C346.039 65.4815 347.269 65.2336 348.617 65.2336C349.926 65.2336 351.126 65.4517 352.216 65.888C353.307 66.3242 354.209 66.9488 354.923 67.7618C355.656 68.555 356.132 69.4671 356.35 70.4982L352.722 71.9854C352.504 70.9741 352.028 70.171 351.294 69.5761C350.58 68.9813 349.688 68.6838 348.617 68.6838C347.626 68.6838 346.842 68.892 346.267 69.3085C345.692 69.705 345.405 70.2503 345.405 70.9443C345.405 71.4202 345.573 71.8069 345.911 72.1043C346.248 72.4018 346.664 72.6397 347.16 72.8182C347.655 72.9966 348.379 73.2148 349.331 73.4725C350.798 73.8295 352.018 74.226 352.989 74.6623C353.961 75.0787 354.794 75.743 355.488 76.6551C356.182 77.5672 356.529 78.8065 356.529 80.373C356.529 81.5826 356.202 82.6534 355.547 83.5853C354.893 84.5173 353.971 85.2411 352.781 85.7566C351.592 86.2722 350.223 86.5299 348.677 86.5299ZM364.618 78.2612H370.15L367.384 70.7659L364.618 78.2612ZM365.481 65.4715H369.258L377.259 86.292H373.095L371.4 81.6817H363.339L361.644 86.292H357.48L365.481 65.4715ZM379.247 65.4715H383.293V82.7823H392.959V86.292H379.247V65.4715Z" fill="#2B266D"/>
<rect x="239.488" y="109.029" width="201.042" height="7.92899" rx="3.9645" fill="#D5D4D2"/>
<rect x="239.488" y="128.958" width="201.042" height="7.92899" rx="3.9645" fill="#D5D4D2"/>
<rect x="240.105" y="149.504" width="201.557" height="56.3537" rx="6.14873" fill="#ECEBEA" stroke="#ECEBEA" stroke-width="1.23402"/>
<rect x="240.105" y="219.092" width="201.557" height="56.3537" rx="6.14873" fill="#ECEBEA" stroke="#ECEBEA" stroke-width="1.23402"/>
<rect x="240.479" y="289.053" width="200.809" height="55.6055" rx="5.77461" fill="#D5D2F9" stroke="#2B266D" stroke-width="1.98225"/>
<path d="M639.976 206.533H501.791C499.171 206.533 497.048 208.414 497.048 210.735V277.875C497.048 280.196 499.171 282.077 501.791 282.077H639.976C642.596 282.077 644.719 280.196 644.719 277.875V210.735C644.719 208.414 642.596 206.533 639.976 206.533Z" fill="#2B266D" stroke="#2B266D" stroke-width="1.98225" stroke-miterlimit="10"/>
<path d="M640.108 206.533H505.762C503.215 206.533 501.15 208.368 501.15 210.632V274.218C501.15 276.482 503.215 278.318 505.762 278.318H640.108C642.655 278.318 644.72 276.482 644.72 274.218V210.632C644.72 208.368 642.655 206.533 640.108 206.533Z" fill="#ECEBEA" stroke="#2B266D" stroke-width="1.98225" stroke-miterlimit="10"/>
<path d="M639.976 122.762H501.791C499.171 122.762 497.048 124.644 497.048 126.965V194.104C497.048 196.425 499.171 198.307 501.791 198.307H639.976C642.596 198.307 644.719 196.425 644.719 194.104V126.965C644.719 124.644 642.596 122.762 639.976 122.762Z" fill="#2B266D" stroke="#2B266D" stroke-width="1.72806" stroke-miterlimit="10"/>
<path d="M640.108 122.761H505.762C503.215 122.761 501.15 124.597 501.15 126.861V190.447C501.15 192.711 503.215 194.546 505.762 194.546H640.108C642.655 194.546 644.72 192.711 644.72 190.447V126.861C644.72 124.597 642.655 122.761 640.108 122.761Z" fill="#B8B4F5" stroke="#2B266D" stroke-width="1.98225" stroke-miterlimit="10"/>
<rect x="515.178" y="140.56" width="111.997" height="7.92899" rx="3.9645" fill="#2B266D"/>
<rect x="515.178" y="156.507" width="111.997" height="7.92899" rx="3.9645" fill="#2B266D"/>
<rect x="515.178" y="172.455" width="111.997" height="7.92899" rx="3.9645" fill="#2B266D"/>
<path d="M566.283 262.985H428.098C425.478 262.985 423.354 264.867 423.354 267.188V334.327C423.354 336.648 425.478 338.53 428.098 338.53H566.283C568.902 338.53 571.026 336.648 571.026 334.327V267.188C571.026 264.867 568.902 262.985 566.283 262.985Z" fill="#2B266D" stroke="#2B266D" stroke-width="1.72806" stroke-miterlimit="10"/>
<path d="M566.415 262.984H432.069C429.522 262.984 427.457 264.82 427.457 267.084V330.67C427.457 332.934 429.522 334.769 432.069 334.769H566.415C568.962 334.769 571.026 332.934 571.026 330.67V267.084C571.026 264.82 568.962 262.984 566.415 262.984Z" fill="#5ED7B1" stroke="#2B266D" stroke-width="1.98225" stroke-miterlimit="10"/>
<rect x="441.178" y="280.56" width="111.997" height="7.92899" rx="3.9645" fill="#2B266D"/>
<rect x="441.178" y="296.507" width="111.997" height="7.92899" rx="3.9645" fill="#2B266D"/>
<rect x="441.178" y="312.455" width="111.997" height="7.92899" rx="3.9645" fill="#2B266D"/>
<path d="M639.976 38.99H501.791C499.171 38.99 497.048 40.8716 497.048 43.1926V110.332C497.048 112.653 499.171 114.535 501.791 114.535H639.976C642.596 114.535 644.719 112.653 644.719 110.332V43.1926C644.719 40.8716 642.596 38.99 639.976 38.99Z" fill="#2B266D" stroke="#2B266D" stroke-width="1.72806" stroke-miterlimit="10"/>
<path d="M640.108 38.99H505.762C503.215 38.99 501.15 40.8253 501.15 43.0893V106.675C501.15 108.939 503.215 110.775 505.762 110.775H640.108C642.655 110.775 644.72 108.939 644.72 106.675V43.0893C644.72 40.8253 642.655 38.99 640.108 38.99Z" fill="#FF5787" stroke="#2B266D" stroke-width="1.98225" stroke-miterlimit="10"/>
<rect x="515.178" y="57.3062" width="111.997" height="7.92899" rx="3.9645" fill="#2B266D"/>
<rect x="515.178" y="73.2533" width="111.997" height="7.92899" rx="3.9645" fill="#2B266D"/>
<rect x="515.178" y="89.2006" width="111.997" height="7.92899" rx="3.9645" fill="#2B266D"/>
<path d="M608.155 328.033L595.314 333.151L606.383 348.778C606.568 349.032 606.5 349.389 606.227 349.558L591.82 359.024C591.557 359.203 591.187 359.137 591.012 358.874L580.05 343.388L570.53 353.155C570.033 353.671 569.138 353.399 569.031 352.694L562.139 305.766C561.886 304.235 563.579 303.099 564.971 303.869L608.242 326.521C608.885 326.859 608.836 327.77 608.155 328.033Z" fill="white" stroke="#2B266D" stroke-width="1.98225" stroke-miterlimit="10"/>
<path d="M609.169 373H571.033" stroke="#2B266D" stroke-width="1.98225" stroke-miterlimit="10" stroke-linecap="round"/>
<path d="M408.947 241.368L408.345 231.064" stroke="#2B266D" stroke-width="1.98225" stroke-miterlimit="10" stroke-linecap="round"/>
<path d="M404.175 244.98L392.918 235.076" stroke="#2B266D" stroke-width="1.98225" stroke-miterlimit="10" stroke-linecap="round"/>
<path d="M399.519 251.246L389.099 247.275" stroke="#2B266D" stroke-width="1.98225" stroke-miterlimit="10" stroke-linecap="round"/>
</svg>
