<svg width="800" height="400" viewBox="0 0 800 400" fill="none" xmlns="http://www.w3.org/2000/svg">
<path d="M171.598 341.649H469.482C469.932 341.649 470.363 341.833 470.674 342.158L497.859 370.561C498.863 371.61 498.12 373.351 496.668 373.351H147.186C145.775 373.351 145.015 371.695 145.935 370.626L170.347 342.224C170.66 341.859 171.117 341.649 171.598 341.649Z" fill="#2B266D" stroke="#2B266D" stroke-width="3.29872"/>
<path d="M231.043 37.5986H468.569C470.757 37.5986 472.701 38.9059 474.124 41.0518C475.547 43.1963 476.401 46.1185 476.401 49.1611V362.579C476.401 369.231 472.182 374.401 467.308 374.401H238.653C232.764 374.401 228.532 371.825 225.75 367.741C222.95 363.631 221.599 357.958 221.599 351.787V50.0586C221.599 46.8172 222.746 43.6794 224.521 41.3604C226.3 39.034 228.653 37.5986 231.043 37.5986Z" fill="#2B266D" stroke="#2B266D" stroke-width="1.1975"/>
<path d="M472.921 38H237.88C232.835 38 228.745 43.2637 228.745 49.7568V360.338C228.745 366.831 232.835 372.095 237.88 372.095H472.921C477.967 372.095 482.057 366.831 482.057 360.338V49.7568C482.057 43.2637 477.967 38 472.921 38Z" fill="white" stroke="#2B266D" stroke-width="2" stroke-miterlimit="10"/>
<path d="M252.799 68.7383H262.392C263.979 68.7383 265.374 69.0444 266.576 69.6568C267.778 70.2464 268.696 71.0968 269.331 72.2081C269.989 73.2966 270.318 74.5666 270.318 76.018C270.318 77.4694 269.989 78.7394 269.331 79.828C268.696 80.9166 267.778 81.767 266.576 82.3793C265.374 82.9689 263.979 83.2638 262.392 83.2638H257.425V92.5505H252.799V68.7383ZM261.983 79.2837C263.14 79.2837 264.047 79.0002 264.705 78.4333C265.362 77.8436 265.691 77.0386 265.691 76.018C265.691 74.9748 265.362 74.1698 264.705 73.6028C264.047 73.0132 263.14 72.7183 261.983 72.7183H257.425V79.2837H261.983ZM273.228 68.7383H282.413C284.749 68.7383 286.609 69.3846 287.992 70.6773C289.398 71.9473 290.101 73.6482 290.101 75.7799C290.101 77.1179 289.772 78.3312 289.115 79.4198C288.457 80.4857 287.538 81.3134 286.359 81.9031L292.686 92.5505H287.278L281.665 82.7875H277.889V92.5505H273.262L273.228 68.7383ZM281.699 78.8075C282.878 78.8075 283.796 78.5467 284.454 78.0251C285.112 77.4808 285.441 76.7324 285.441 75.7799C285.441 74.8274 285.112 74.079 284.454 73.5348C283.796 72.9905 282.878 72.7183 281.699 72.7183H277.889V78.8075H281.699ZM305.112 92.8227C302.822 92.8227 300.758 92.3011 298.921 91.2579C297.084 90.192 295.644 88.7406 294.601 86.9036C293.558 85.044 293.036 82.9576 293.036 80.6444C293.036 78.3312 293.558 76.2562 294.601 74.4192C295.644 72.5596 297.084 71.1082 298.921 70.065C300.758 68.9991 302.822 68.4662 305.112 68.4662C307.403 68.4662 309.455 68.9991 311.269 70.065C313.106 71.1082 314.546 72.5596 315.59 74.4192C316.633 76.2562 317.154 78.3312 317.154 80.6444C317.154 82.9576 316.633 85.044 315.59 86.9036C314.546 88.7406 313.106 90.192 311.269 91.2579C309.455 92.3011 307.403 92.8227 305.112 92.8227ZM297.696 80.6444C297.696 82.2092 298.014 83.6153 298.649 84.8626C299.284 86.0872 300.157 87.051 301.268 87.7541C302.402 88.4571 303.684 88.8086 305.112 88.8086C306.541 88.8086 307.811 88.4571 308.922 87.7541C310.033 87.051 310.907 86.0872 311.542 84.8626C312.177 83.6153 312.494 82.2092 312.494 80.6444C312.494 79.0796 312.177 77.6736 311.542 76.4262C310.907 75.1789 310.033 74.2038 308.922 73.5007C307.811 72.7977 306.541 72.4462 305.112 72.4462C303.684 72.4462 302.402 72.7977 301.268 73.5007C300.157 74.2038 299.284 75.1789 298.649 76.4262C298.014 77.6736 297.696 79.0796 297.696 80.6444ZM320.634 68.7383H330.227C331.815 68.7383 333.209 69.0444 334.411 69.6568C335.613 70.2464 336.532 71.0968 337.167 72.2081C337.825 73.2966 338.153 74.5666 338.153 76.018C338.153 77.4694 337.825 78.7394 337.167 79.828C336.532 80.9166 335.613 81.767 334.411 82.3793C333.209 82.9689 331.815 83.2638 330.227 83.2638H325.261V92.5505H320.634V68.7383ZM329.819 79.2837C330.976 79.2837 331.883 79.0002 332.54 78.4333C333.198 77.8436 333.527 77.0386 333.527 76.018C333.527 74.9748 333.198 74.1698 332.54 73.6028C331.883 73.0132 330.976 72.7183 329.819 72.7183H325.261V79.2837H329.819ZM352.086 92.8227C349.795 92.8227 347.731 92.3011 345.894 91.2579C344.058 90.192 342.617 88.7406 341.574 86.9036C340.531 85.044 340.009 82.9576 340.009 80.6444C340.009 78.3312 340.531 76.2562 341.574 74.4192C342.617 72.5596 344.058 71.1082 345.894 70.065C347.731 68.9991 349.795 68.4662 352.086 68.4662C354.376 68.4662 356.429 68.9991 358.243 70.065C360.08 71.1082 361.52 72.5596 362.563 74.4192C363.606 76.2562 364.128 78.3312 364.128 80.6444C364.128 82.9576 363.606 85.044 362.563 86.9036C361.52 88.7406 360.08 90.192 358.243 91.2579C356.429 92.3011 354.376 92.8227 352.086 92.8227ZM344.67 80.6444C344.67 82.2092 344.987 83.6153 345.622 84.8626C346.257 86.0872 347.13 87.051 348.242 87.7541C349.376 88.4571 350.657 88.8086 352.086 88.8086C353.514 88.8086 354.784 88.4571 355.896 87.7541C357.007 87.051 357.88 86.0872 358.515 84.8626C359.15 83.6153 359.467 82.2092 359.467 80.6444C359.467 79.0796 359.15 77.6736 358.515 76.4262C357.88 75.1789 357.007 74.2038 355.896 73.5007C354.784 72.7977 353.514 72.4462 352.086 72.4462C350.657 72.4462 349.376 72.7977 348.242 73.5007C347.13 74.2038 346.257 75.1789 345.622 76.4262C344.987 77.6736 344.67 79.0796 344.67 80.6444ZM375.398 92.8227C373.856 92.8227 372.416 92.5052 371.078 91.8702C369.739 91.2125 368.64 90.3167 367.778 89.1828C366.916 88.0489 366.394 86.7676 366.213 85.3388L370.329 84.0802C370.511 85.4862 371.089 86.6428 372.064 87.55C373.062 88.4344 374.23 88.8766 375.568 88.8766C376.815 88.8766 377.813 88.6045 378.561 88.0602C379.31 87.5159 379.684 86.7902 379.684 85.8831C379.684 85.1801 379.457 84.6018 379.004 84.1482C378.573 83.6946 378.017 83.3318 377.337 83.0597C376.656 82.7875 375.738 82.4814 374.581 82.1412C372.994 81.6649 371.701 81.2 370.703 80.7465C369.705 80.2702 368.844 79.5672 368.118 78.6374C367.415 77.7076 367.063 76.4943 367.063 74.9975C367.063 73.7502 367.426 72.6276 368.152 71.6298C368.878 70.6319 369.864 69.8609 371.112 69.3166C372.382 68.7496 373.788 68.4662 375.33 68.4662C376.826 68.4662 378.199 68.7156 379.446 69.2145C380.693 69.7135 381.725 70.4278 382.541 71.3576C383.381 72.2648 383.925 73.308 384.174 74.4872L380.024 76.1881C379.775 75.0315 379.23 74.1131 378.391 73.4327C377.575 72.7524 376.554 72.4122 375.33 72.4122C374.196 72.4122 373.3 72.6503 372.642 73.1265C371.985 73.5801 371.656 74.2038 371.656 74.9975C371.656 75.5418 371.849 75.984 372.234 76.3242C372.62 76.6644 373.096 76.9365 373.663 77.1406C374.23 77.3447 375.058 77.5942 376.146 77.889C377.824 78.2972 379.219 78.7508 380.33 79.2497C381.442 79.7259 382.394 80.4857 383.188 81.5289C383.981 82.5721 384.378 83.9895 384.378 85.7811C384.378 87.1644 384.004 88.3891 383.256 89.4549C382.507 90.5208 381.453 91.3486 380.092 91.9382C378.731 92.5279 377.167 92.8227 375.398 92.8227ZM393.63 83.3658H399.957L396.793 74.7934L393.63 83.3658ZM394.616 68.7383H398.937L408.087 92.5505H403.325L401.386 87.2778H392.167L390.228 92.5505H385.466L394.616 68.7383ZM410.361 68.7383H414.988V88.5365H426.043V92.5505H410.361V68.7383Z" fill="#2B266D"/>
<rect x="252.151" y="111.874" width="202.843" height="8" rx="4" fill="#D5D4D2"/>
<rect x="252.151" y="130.665" width="202.843" height="8" rx="4" fill="#D5D4D2"/>
<rect x="251.009" y="150.078" width="203.362" height="56.8584" rx="6.20379" fill="#ECEBEA" stroke="#ECEBEA" stroke-width="1.24507"/>
<rect x="251.009" y="218.972" width="203.362" height="56.8584" rx="6.20379" fill="#ECEBEA" stroke="#ECEBEA" stroke-width="1.24507"/>
<rect x="251.387" y="288.244" width="202.607" height="56.1034" rx="5.82632" fill="#D5D2F9" stroke="#2B266D" stroke-width="2"/>
<path d="M656.562 207.043H517.139C514.496 207.043 512.354 208.941 512.354 211.283V279.024C512.354 281.366 514.496 283.264 517.139 283.264H656.562C659.205 283.264 661.347 281.366 661.347 279.024V211.283C661.347 208.941 659.205 207.043 656.562 207.043Z" fill="#2B266D" stroke="#2B266D" stroke-width="2" stroke-miterlimit="10"/>
<path d="M656.695 207.043H521.145C518.576 207.043 516.493 208.895 516.493 211.179V275.335C516.493 277.619 518.576 279.471 521.145 279.471H656.695C659.265 279.471 661.348 277.619 661.348 275.335V211.179C661.348 208.895 659.265 207.043 656.695 207.043Z" fill="#ECEBEA" stroke="#2B266D" stroke-width="2" stroke-miterlimit="10"/>
<path d="M656.562 122.522H517.139C514.496 122.522 512.354 124.42 512.354 126.762V194.503C512.354 196.845 514.496 198.743 517.139 198.743H656.562C659.205 198.743 661.347 196.845 661.347 194.503V126.762C661.347 124.42 659.205 122.522 656.562 122.522Z" fill="#2B266D" stroke="#2B266D" stroke-width="1.74353" stroke-miterlimit="10"/>
<path d="M656.695 122.521H521.145C518.576 122.521 516.493 124.373 516.493 126.657V190.813C516.493 193.097 518.576 194.949 521.145 194.949H656.695C659.265 194.949 661.348 193.097 661.348 190.813V126.657C661.348 124.373 659.265 122.521 656.695 122.521Z" fill="#B8B4F5" stroke="#2B266D" stroke-width="2" stroke-miterlimit="10"/>
<rect x="528.539" y="155.687" width="121.602" height="8" rx="4" fill="#2B266D"/>
<rect x="528.539" y="173.778" width="121.602" height="8" rx="4" fill="#2B266D"/>
<path d="M533.186 144.964C532.475 144.964 531.81 144.818 531.192 144.525C530.575 144.221 530.067 143.808 529.669 143.284C529.272 142.761 529.031 142.17 528.947 141.51L530.847 140.929C530.931 141.578 531.198 142.112 531.648 142.531C532.108 142.939 532.647 143.143 533.265 143.143C533.841 143.143 534.301 143.018 534.647 142.766C534.992 142.515 535.165 142.18 535.165 141.761C535.165 141.437 535.06 141.17 534.851 140.961C534.652 140.751 534.395 140.584 534.081 140.458C533.767 140.333 533.343 140.191 532.81 140.034C532.077 139.815 531.48 139.6 531.02 139.391C530.559 139.171 530.161 138.846 529.826 138.417C529.502 137.988 529.34 137.428 529.34 136.737C529.34 136.162 529.507 135.644 529.842 135.183C530.177 134.722 530.632 134.367 531.208 134.115C531.794 133.854 532.443 133.723 533.155 133.723C533.846 133.723 534.479 133.838 535.055 134.068C535.63 134.299 536.107 134.628 536.483 135.057C536.871 135.476 537.122 135.958 537.237 136.502L535.322 137.287C535.206 136.753 534.955 136.329 534.568 136.015C534.191 135.701 533.72 135.544 533.155 135.544C532.632 135.544 532.218 135.654 531.915 135.874C531.611 136.083 531.459 136.371 531.459 136.737C531.459 136.989 531.548 137.193 531.726 137.35C531.904 137.507 532.124 137.632 532.386 137.726C532.647 137.821 533.029 137.936 533.532 138.072C534.306 138.26 534.95 138.47 535.463 138.7C535.976 138.92 536.415 139.27 536.782 139.752C537.148 140.233 537.331 140.887 537.331 141.714C537.331 142.353 537.159 142.918 536.813 143.41C536.468 143.902 535.981 144.284 535.353 144.556C534.725 144.828 534.003 144.964 533.186 144.964ZM538.349 140.882C538.349 140.17 538.496 139.506 538.789 138.888C539.092 138.26 539.537 137.758 540.123 137.381C540.709 136.994 541.421 136.8 542.258 136.8C543.106 136.8 543.828 136.983 544.425 137.35C545.022 137.716 545.472 138.192 545.775 138.778C546.079 139.365 546.231 139.977 546.231 140.615C546.231 140.929 546.22 141.191 546.199 141.4H540.327C540.411 141.997 540.636 142.463 541.002 142.798C541.369 143.133 541.834 143.3 542.4 143.3C542.86 143.3 543.247 143.195 543.562 142.986C543.876 142.777 544.085 142.478 544.19 142.091L546.042 142.594C545.822 143.337 545.388 143.918 544.739 144.336C544.09 144.755 543.3 144.964 542.368 144.964C541.531 144.964 540.809 144.776 540.202 144.399C539.595 144.012 539.134 143.504 538.82 142.876C538.506 142.248 538.349 141.584 538.349 140.882ZM544.111 139.956C544.059 139.464 543.876 139.066 543.562 138.763C543.247 138.459 542.813 138.307 542.258 138.307C541.766 138.307 541.353 138.449 541.018 138.731C540.694 139.014 540.479 139.422 540.374 139.956H544.111ZM552.83 138.841C552.547 138.716 552.212 138.653 551.825 138.653C551.218 138.653 550.71 138.925 550.302 139.469C549.904 140.003 549.705 140.825 549.705 141.934V144.839H547.727V136.926H549.705V138.37C549.904 137.92 550.229 137.549 550.679 137.255C551.139 136.952 551.61 136.8 552.092 136.8C552.416 136.8 552.704 136.842 552.955 136.926L552.83 138.841ZM553.273 136.926H555.267L557.073 142.546L558.878 136.926H560.888L557.999 144.839H556.162L553.273 136.926ZM561.971 136.926H563.949V144.839H561.971V136.926ZM562.96 135.717C562.604 135.717 562.311 135.602 562.081 135.371C561.85 135.131 561.735 134.838 561.735 134.492C561.735 134.147 561.85 133.859 562.081 133.629C562.321 133.398 562.615 133.283 562.96 133.283C563.316 133.283 563.614 133.404 563.855 133.644C564.096 133.875 564.216 134.157 564.216 134.492C564.216 134.838 564.096 135.131 563.855 135.371C563.614 135.602 563.316 135.717 562.96 135.717ZM569.461 144.964C568.676 144.964 567.98 144.792 567.372 144.446C566.765 144.101 566.289 143.619 565.944 143.002C565.609 142.384 565.441 141.678 565.441 140.882C565.441 140.087 565.609 139.38 565.944 138.763C566.289 138.145 566.765 137.664 567.372 137.318C567.98 136.973 568.676 136.8 569.461 136.8C570.476 136.8 571.313 137.046 571.973 137.538C572.643 138.03 573.046 138.695 573.182 139.532L571.25 139.909C571.177 139.49 570.984 139.155 570.67 138.904C570.366 138.642 569.984 138.511 569.523 138.511C568.906 138.511 568.414 138.726 568.048 139.155C567.681 139.584 567.498 140.16 567.498 140.882C567.498 141.604 567.681 142.18 568.048 142.609C568.414 143.038 568.906 143.253 569.523 143.253C569.984 143.253 570.361 143.138 570.654 142.908C570.957 142.667 571.156 142.332 571.25 141.903L573.182 142.295C573.035 143.122 572.627 143.776 571.957 144.258C571.298 144.729 570.465 144.964 569.461 144.964ZM574.242 140.882C574.242 140.17 574.389 139.506 574.682 138.888C574.985 138.26 575.43 137.758 576.016 137.381C576.602 136.994 577.314 136.8 578.152 136.8C578.999 136.8 579.722 136.983 580.318 137.35C580.915 137.716 581.365 138.192 581.668 138.778C581.972 139.365 582.124 139.977 582.124 140.615C582.124 140.929 582.113 141.191 582.092 141.4H576.22C576.304 141.997 576.529 142.463 576.895 142.798C577.262 143.133 577.728 143.3 578.293 143.3C578.753 143.3 579.141 143.195 579.455 142.986C579.769 142.777 579.978 142.478 580.083 142.091L581.935 142.594C581.716 143.337 581.281 143.918 580.632 144.336C579.983 144.755 579.193 144.964 578.261 144.964C577.424 144.964 576.702 144.776 576.095 144.399C575.488 144.012 575.027 143.504 574.713 142.876C574.399 142.248 574.242 141.584 574.242 140.882ZM580.004 139.956C579.952 139.464 579.769 139.066 579.455 138.763C579.141 138.459 578.706 138.307 578.152 138.307C577.66 138.307 577.246 138.449 576.911 138.731C576.587 139.014 576.372 139.422 576.267 139.956H580.004ZM586.307 144.964C585.417 144.964 584.674 144.739 584.077 144.289C583.481 143.829 583.072 143.274 582.853 142.625L584.47 141.966C584.595 142.395 584.815 142.745 585.129 143.018C585.443 143.29 585.836 143.426 586.307 143.426C586.673 143.426 586.966 143.342 587.186 143.175C587.416 142.997 587.531 142.782 587.531 142.531C587.531 142.259 587.401 142.055 587.139 141.918C586.877 141.772 586.474 141.631 585.93 141.495C585.365 141.338 584.899 141.186 584.533 141.039C584.177 140.882 583.868 140.642 583.606 140.317C583.345 139.993 583.214 139.558 583.214 139.014C583.214 138.595 583.329 138.218 583.559 137.883C583.789 137.549 584.114 137.287 584.533 137.098C584.962 136.9 585.459 136.8 586.024 136.8C586.799 136.8 587.479 136.978 588.065 137.334C588.662 137.69 589.044 138.156 589.211 138.731L587.61 139.406C587.505 139.051 587.306 138.773 587.013 138.574C586.72 138.365 586.401 138.26 586.056 138.26C585.742 138.26 585.485 138.328 585.286 138.464C585.098 138.59 585.004 138.763 585.004 138.983C585.004 139.223 585.119 139.401 585.349 139.516C585.59 139.631 585.977 139.757 586.511 139.893C587.087 140.019 587.563 140.16 587.94 140.317C588.327 140.474 588.657 140.73 588.929 141.086C589.211 141.432 589.353 141.903 589.353 142.499C589.353 142.949 589.222 143.363 588.96 143.74C588.709 144.117 588.353 144.415 587.893 144.635C587.432 144.854 586.903 144.964 586.307 144.964Z" fill="#2B266D"/>
<path d="M656.562 38H517.139C514.496 38 512.354 39.8984 512.354 42.2403V109.981C512.354 112.323 514.496 114.221 517.139 114.221H656.562C659.205 114.221 661.347 112.323 661.347 109.981V42.2403C661.347 39.8984 659.205 38 656.562 38Z" fill="#2B266D" stroke="#2B266D" stroke-width="1.74353" stroke-miterlimit="10"/>
<path d="M656.695 38H521.145C518.576 38 516.493 39.8518 516.493 42.1361V106.291C516.493 108.576 518.576 110.428 521.145 110.428H656.695C659.265 110.428 661.348 108.576 661.348 106.291V42.1361C661.348 39.8518 659.265 38 656.695 38Z" fill="#FF5787" stroke="#2B266D" stroke-width="2" stroke-miterlimit="10"/>
<path d="M596.239 252.568H428.466C425.285 252.568 422.707 254.852 422.707 257.67V339.186C422.707 342.004 425.285 344.288 428.466 344.288H596.239C599.419 344.288 601.998 342.004 601.998 339.186V257.67C601.998 254.852 599.419 252.568 596.239 252.568Z" fill="#2B266D" stroke="#2B266D" stroke-width="2.09807" stroke-miterlimit="10"/>
<path d="M596.399 252.567H433.286C430.194 252.567 427.688 254.795 427.688 257.544V334.745C427.688 337.494 430.194 339.722 433.286 339.722H596.399C599.491 339.722 601.998 337.494 601.998 334.745V257.544C601.998 254.795 599.491 252.567 596.399 252.567Z" fill="#5ED7B1" stroke="#2B266D" stroke-width="2" stroke-miterlimit="10"/>
<rect x="504.468" y="290.891" width="85.4951" height="7.88547" rx="3.94273" fill="#2B266D"/>
<rect x="504.468" y="308.868" width="85.4951" height="7.88547" rx="3.94273" fill="#2B266D"/>
<path d="M443.786 264.472H448.214C448.946 264.472 449.59 264.613 450.145 264.896C450.7 265.168 451.124 265.56 451.417 266.073C451.72 266.576 451.872 267.162 451.872 267.832C451.872 268.502 451.72 269.088 451.417 269.59C451.124 270.093 450.7 270.485 450.145 270.768C449.59 271.04 448.946 271.176 448.214 271.176H445.922V275.462H443.786V264.472ZM448.025 269.339C448.559 269.339 448.978 269.208 449.281 268.946C449.585 268.674 449.737 268.303 449.737 267.832C449.737 267.35 449.585 266.979 449.281 266.717C448.978 266.445 448.559 266.309 448.025 266.309H445.922V269.339H448.025ZM457.4 270.375C457.4 269.925 457.259 269.574 456.976 269.323C456.694 269.062 456.312 268.931 455.83 268.931C455.401 268.931 455.04 269.056 454.747 269.307C454.464 269.559 454.302 269.894 454.26 270.312L452.502 269.998C452.627 269.224 452.999 268.601 453.616 268.13C454.244 267.659 454.982 267.423 455.83 267.423C456.887 267.423 457.73 267.706 458.358 268.271C458.996 268.826 459.316 269.616 459.316 270.642V275.462H457.4V274.316C457.18 274.703 456.851 275.012 456.411 275.242C455.982 275.473 455.521 275.588 455.029 275.588C454.516 275.588 454.061 275.488 453.663 275.289C453.266 275.08 452.952 274.797 452.721 274.442C452.502 274.086 452.392 273.683 452.392 273.233C452.392 272.458 452.685 271.856 453.271 271.427C453.857 270.998 454.742 270.721 455.924 270.595L457.4 270.454V270.375ZM454.307 273.17C454.307 273.452 454.412 273.683 454.621 273.861C454.83 274.039 455.113 274.128 455.469 274.128C456.066 274.128 456.537 273.929 456.882 273.531C457.227 273.133 457.4 272.636 457.4 272.039V271.867L455.893 272.039C455.38 272.102 454.988 272.233 454.715 272.432C454.443 272.631 454.307 272.877 454.307 273.17ZM468.117 267.549L463.941 278.32H461.931L463.156 275.148L460.078 267.549H462.229L464.129 272.636L466.092 267.549H468.117ZM469.205 267.549H471.183V268.758C471.414 268.339 471.717 268.015 472.094 267.785C472.481 267.544 472.937 267.423 473.46 267.423C474.088 267.423 474.611 267.554 475.03 267.816C475.449 268.067 475.747 268.433 475.925 268.915C476.155 268.486 476.501 268.13 476.961 267.847C477.422 267.565 477.95 267.423 478.547 267.423C479.395 267.423 480.075 267.675 480.588 268.177C481.111 268.669 481.373 269.307 481.373 270.093V275.462H479.395V270.642C479.395 270.161 479.269 269.784 479.018 269.512C478.767 269.239 478.411 269.103 477.95 269.103C477.427 269.103 477.014 269.313 476.71 269.731C476.417 270.15 476.27 270.715 476.27 271.427V275.462H474.292V270.642C474.292 270.161 474.167 269.784 473.915 269.512C473.675 269.239 473.329 269.103 472.879 269.103C472.345 269.103 471.927 269.318 471.623 269.747C471.33 270.166 471.183 270.731 471.183 271.443V275.462H469.205V267.549ZM482.872 271.506C482.872 270.794 483.018 270.129 483.311 269.512C483.615 268.884 484.06 268.381 484.646 268.004C485.232 267.617 485.944 267.423 486.781 267.423C487.629 267.423 488.351 267.607 488.948 267.973C489.544 268.339 489.995 268.816 490.298 269.402C490.602 269.988 490.753 270.6 490.753 271.239C490.753 271.553 490.743 271.814 490.722 272.024H484.85C484.934 272.62 485.159 273.086 485.525 273.421C485.891 273.756 486.357 273.923 486.922 273.923C487.383 273.923 487.77 273.819 488.084 273.609C488.398 273.4 488.608 273.102 488.712 272.714L490.565 273.217C490.345 273.96 489.911 274.541 489.262 274.96C488.613 275.378 487.823 275.588 486.891 275.588C486.054 275.588 485.332 275.399 484.724 275.022C484.117 274.635 483.657 274.128 483.343 273.499C483.029 272.871 482.872 272.207 482.872 271.506ZM488.634 270.579C488.581 270.087 488.398 269.69 488.084 269.386C487.77 269.082 487.336 268.931 486.781 268.931C486.289 268.931 485.876 269.072 485.541 269.355C485.216 269.637 485.002 270.045 484.897 270.579H488.634ZM492.25 267.549H494.228V268.742C494.49 268.345 494.835 268.025 495.264 267.785C495.704 267.544 496.196 267.423 496.74 267.423C497.609 267.423 498.305 267.685 498.828 268.208C499.362 268.732 499.629 269.423 499.629 270.281V275.462H497.651V270.752C497.651 270.281 497.515 269.904 497.243 269.621C496.97 269.328 496.604 269.182 496.144 269.182C495.536 269.182 495.065 269.428 494.73 269.92C494.396 270.412 494.228 271.103 494.228 271.992V275.462H492.25V267.549ZM505.975 275.384C505.598 275.52 505.174 275.588 504.703 275.588C503.866 275.588 503.191 275.357 502.678 274.897C502.165 274.436 501.909 273.761 501.909 272.871V269.213H500.574V267.549H501.909V265.225H503.887V267.549H505.881V269.213H503.887V272.683C503.887 273.049 503.976 273.337 504.154 273.547C504.342 273.745 504.593 273.845 504.907 273.845C505.274 273.845 505.583 273.782 505.834 273.656L505.975 275.384ZM511.109 267.549H513.087V268.758C513.317 268.339 513.621 268.015 513.998 267.785C514.385 267.544 514.84 267.423 515.363 267.423C515.991 267.423 516.515 267.554 516.934 267.816C517.352 268.067 517.651 268.433 517.828 268.915C518.059 268.486 518.404 268.13 518.865 267.847C519.325 267.565 519.854 267.423 520.45 267.423C521.298 267.423 521.979 267.675 522.491 268.177C523.015 268.669 523.276 269.307 523.276 270.093V275.462H521.298V270.642C521.298 270.161 521.173 269.784 520.921 269.512C520.67 269.239 520.314 269.103 519.854 269.103C519.33 269.103 518.917 269.313 518.613 269.731C518.32 270.15 518.174 270.715 518.174 271.427V275.462H516.196V270.642C516.196 270.161 516.07 269.784 515.819 269.512C515.578 269.239 515.233 269.103 514.783 269.103C514.249 269.103 513.83 269.318 513.527 269.747C513.233 270.166 513.087 270.731 513.087 271.443V275.462H511.109V267.549ZM524.775 271.506C524.775 270.794 524.922 270.129 525.215 269.512C525.518 268.884 525.963 268.381 526.549 268.004C527.136 267.617 527.847 267.423 528.685 267.423C529.532 267.423 530.255 267.607 530.851 267.973C531.448 268.339 531.898 268.816 532.202 269.402C532.505 269.988 532.657 270.6 532.657 271.239C532.657 271.553 532.646 271.814 532.625 272.024H526.753C526.837 272.62 527.062 273.086 527.429 273.421C527.795 273.756 528.261 273.923 528.826 273.923C529.286 273.923 529.674 273.819 529.988 273.609C530.302 273.4 530.511 273.102 530.616 272.714L532.468 273.217C532.249 273.96 531.814 274.541 531.165 274.96C530.516 275.378 529.726 275.588 528.795 275.588C527.957 275.588 527.235 275.399 526.628 275.022C526.021 274.635 525.56 274.128 525.246 273.499C524.932 272.871 524.775 272.207 524.775 271.506ZM530.537 270.579C530.485 270.087 530.302 269.69 529.988 269.386C529.674 269.082 529.239 268.931 528.685 268.931C528.193 268.931 527.779 269.072 527.444 269.355C527.12 269.637 526.905 270.045 526.801 270.579H530.537ZM538.71 275.384C538.333 275.52 537.909 275.588 537.438 275.588C536.601 275.588 535.926 275.357 535.413 274.897C534.9 274.436 534.643 273.761 534.643 272.871V269.213H533.309V267.549H534.643V265.225H536.622V267.549H538.615V269.213H536.622V272.683C536.622 273.049 536.711 273.337 536.888 273.547C537.077 273.745 537.328 273.845 537.642 273.845C538.008 273.845 538.317 273.782 538.568 273.656L538.71 275.384ZM540.47 264.346H542.448V268.774C542.71 268.345 543.056 268.015 543.485 267.785C543.924 267.544 544.416 267.423 544.961 267.423C545.85 267.423 546.562 267.685 547.096 268.208C547.64 268.732 547.912 269.423 547.912 270.281V275.462H545.934V270.768C545.934 270.276 545.793 269.888 545.51 269.606C545.227 269.323 544.845 269.182 544.364 269.182C543.757 269.182 543.286 269.433 542.951 269.936C542.616 270.427 542.448 271.123 542.448 272.024V275.462H540.47V264.346ZM553.528 275.588C552.743 275.588 552.037 275.415 551.409 275.07C550.781 274.714 550.289 274.227 549.933 273.609C549.577 272.981 549.399 272.28 549.399 271.506C549.399 270.731 549.577 270.035 549.933 269.417C550.289 268.789 550.781 268.303 551.409 267.957C552.037 267.601 552.743 267.423 553.528 267.423C554.313 267.423 555.02 267.601 555.648 267.957C556.276 268.303 556.768 268.789 557.124 269.417C557.48 270.035 557.657 270.731 557.657 271.506C557.657 272.28 557.48 272.981 557.124 273.609C556.768 274.227 556.276 274.714 555.648 275.07C555.02 275.415 554.313 275.588 553.528 275.588ZM551.393 271.506C551.393 272.217 551.587 272.793 551.974 273.233C552.372 273.662 552.89 273.876 553.528 273.876C554.167 273.876 554.68 273.656 555.067 273.217C555.465 272.777 555.664 272.207 555.664 271.506C555.664 270.804 555.465 270.234 555.067 269.794C554.68 269.355 554.167 269.135 553.528 269.135C552.89 269.135 552.372 269.355 551.974 269.794C551.587 270.223 551.393 270.794 551.393 271.506ZM562.489 275.588C561.715 275.588 561.04 275.42 560.464 275.085C559.899 274.74 559.464 274.258 559.161 273.641C558.868 273.023 558.721 272.311 558.721 271.506C558.721 270.7 558.868 269.988 559.161 269.37C559.464 268.753 559.899 268.276 560.464 267.942C561.029 267.596 561.694 267.423 562.458 267.423C562.939 267.423 563.384 267.518 563.792 267.706C564.201 267.884 564.52 268.125 564.75 268.428V264.346H566.728V275.462H564.75V274.551C564.551 274.865 564.248 275.117 563.84 275.305C563.431 275.493 562.981 275.588 562.489 275.588ZM560.684 271.506C560.684 272.217 560.872 272.793 561.249 273.233C561.636 273.662 562.144 273.876 562.772 273.876C563.41 273.876 563.918 273.662 564.295 273.233C564.682 272.793 564.876 272.217 564.876 271.506C564.876 270.794 564.682 270.223 564.295 269.794C563.918 269.355 563.41 269.135 562.772 269.135C562.144 269.135 561.636 269.355 561.249 269.794C560.872 270.223 560.684 270.794 560.684 271.506ZM571.414 275.588C570.525 275.588 569.782 275.363 569.185 274.913C568.588 274.452 568.18 273.897 567.96 273.248L569.578 272.589C569.703 273.018 569.923 273.369 570.237 273.641C570.551 273.913 570.943 274.049 571.414 274.049C571.781 274.049 572.074 273.965 572.294 273.798C572.524 273.62 572.639 273.405 572.639 273.154C572.639 272.882 572.508 272.678 572.247 272.542C571.985 272.395 571.582 272.254 571.038 272.118C570.472 271.961 570.007 271.809 569.64 271.663C569.284 271.506 568.976 271.265 568.714 270.94C568.452 270.616 568.321 270.181 568.321 269.637C568.321 269.219 568.437 268.842 568.667 268.507C568.897 268.172 569.222 267.91 569.64 267.722C570.069 267.523 570.567 267.423 571.132 267.423C571.906 267.423 572.587 267.601 573.173 267.957C573.77 268.313 574.152 268.779 574.319 269.355L572.718 270.03C572.613 269.674 572.414 269.396 572.121 269.198C571.828 268.988 571.509 268.884 571.163 268.884C570.849 268.884 570.593 268.952 570.394 269.088C570.206 269.213 570.111 269.386 570.111 269.606C570.111 269.847 570.226 270.024 570.457 270.14C570.697 270.255 571.085 270.38 571.619 270.516C572.194 270.642 572.67 270.783 573.047 270.94C573.435 271.097 573.764 271.354 574.036 271.71C574.319 272.055 574.46 272.526 574.46 273.123C574.46 273.573 574.329 273.986 574.068 274.363C573.817 274.74 573.461 275.038 573 275.258C572.54 275.478 572.011 275.588 571.414 275.588Z" fill="#2B266D"/>
<path d="M489.888 288.95H447.256C444.759 288.95 442.734 290.974 442.734 293.471V317.095C442.734 319.592 444.759 321.617 447.256 321.617H489.888C492.386 321.617 494.41 319.592 494.41 317.095V293.471C494.41 290.974 492.386 288.95 489.888 288.95Z" fill="white" stroke="#2B266D" stroke-width="2.09807" stroke-miterlimit="10"/>
<path d="M493.98 293.808H443.164C442.927 293.808 442.734 294 442.734 294.238V301.34C442.734 301.577 442.927 301.77 443.164 301.77H493.98C494.217 301.77 494.41 301.577 494.41 301.34V294.238C494.41 294 494.217 293.808 493.98 293.808Z" fill="#2B266D"/>
<path d="M447.518 310.213H471.425" stroke="#2B266D" stroke-width="2.09807" stroke-miterlimit="10" stroke-linecap="round"/>
<path d="M447.518 314.913H465.624" stroke="#2B266D" stroke-width="2.09807" stroke-miterlimit="10" stroke-linecap="round"/>
<path d="M645.36 329.981L631.415 335.161L643.436 350.976C643.637 351.233 643.563 351.594 643.267 351.765L627.62 361.345C627.334 361.526 626.933 361.459 626.742 361.193L614.838 345.521L604.498 355.405C603.959 355.928 602.986 355.652 602.87 354.939L595.385 307.446C595.11 305.897 596.95 304.747 598.461 305.526L645.455 328.451C646.153 328.793 646.1 329.715 645.36 329.981Z" fill="white" stroke="#2B266D" stroke-width="2" stroke-miterlimit="10"/>
<path d="M658.736 375H620.258" stroke="#2B266D" stroke-width="2" stroke-miterlimit="10" stroke-linecap="round"/>
<path d="M586.999 91.8368C596.823 91.8368 604.787 83.8728 604.787 74.0488C604.787 64.2248 596.823 56.2609 586.999 56.2609C577.175 56.2609 569.211 64.2248 569.211 74.0488C569.211 83.8728 577.175 91.8368 586.999 91.8368Z" fill="white" stroke="#FF5787" stroke-width="1.85872" stroke-miterlimit="10"/>
<path d="M594.787 73.3891L582.835 66.4933C582.333 66.2052 581.692 66.5676 581.692 67.1531V80.9541C581.692 81.5396 582.324 81.902 582.835 81.6139L594.787 74.7181C595.288 74.43 595.288 73.6958 594.787 73.3984V73.3891Z" fill="#2B266D"/>
<path d="M423.464 242.189L422.857 231.793" stroke="#2B266D" stroke-width="2" stroke-miterlimit="10" stroke-linecap="round"/>
<path d="M418.651 245.834L407.292 235.841" stroke="#2B266D" stroke-width="2" stroke-miterlimit="10" stroke-linecap="round"/>
<path d="M413.951 252.155L403.437 248.149" stroke="#2B266D" stroke-width="2" stroke-miterlimit="10" stroke-linecap="round"/>
</svg>
