<svg width="800" height="400" viewBox="0 0 800 400" fill="none" xmlns="http://www.w3.org/2000/svg">
<rect x="247.212" y="20" width="281.771" height="328.18" rx="16.5747" fill="#2B266D"/>
<path d="M144.406 354.788C141.398 354.788 139.945 351.104 142.144 349.05L170.379 322.68C170.993 322.107 171.802 321.788 172.642 321.788H523.446C524.225 321.788 524.979 322.062 525.576 322.563L557.019 348.933C559.39 350.922 557.984 354.788 554.889 354.788H144.406Z" fill="#2B266D"/>
<rect x="254.842" y="21" width="279.771" height="332.81" rx="15.5747" fill="white" stroke="#2B266D" stroke-width="2"/>
<rect x="284" y="324" width="203" height="4" rx="2" fill="#9C96F0"/>
<path d="M287.18 198.36C288.936 198.36 290.36 196.936 290.36 195.18C290.36 193.424 288.936 192 287.18 192C285.424 192 284 193.424 284 195.18C284 196.936 285.424 198.36 287.18 198.36Z" stroke="#D5D4D2" stroke-width="3" stroke-miterlimit="10"/>
<rect x="298.36" y="193.18" width="162" height="4" rx="2" fill="#D5D4D2"/>
<path d="M287.18 214.72C288.936 214.72 290.36 213.296 290.36 211.54C290.36 209.784 288.936 208.36 287.18 208.36C285.424 208.36 284 209.784 284 211.54C284 213.296 285.424 214.72 287.18 214.72Z" stroke="#D5D4D2" stroke-width="3" stroke-miterlimit="10"/>
<rect x="298.36" y="209.54" width="162" height="4" rx="2" fill="#D5D4D2"/>
<path d="M287.18 231.08C288.936 231.08 290.36 229.657 290.36 227.9C290.36 226.144 288.936 224.72 287.18 224.72C285.424 224.72 284 226.144 284 227.9C284 229.657 285.424 231.08 287.18 231.08Z" stroke="#D5D4D2" stroke-width="3" stroke-miterlimit="10"/>
<rect x="298.36" y="225.9" width="162" height="4" rx="2" fill="#D5D4D2"/>
<path d="M287.18 247.44C288.936 247.44 290.36 246.017 290.36 244.26C290.36 242.504 288.936 241.08 287.18 241.08C285.424 241.08 284 242.504 284 244.26C284 246.017 285.424 247.44 287.18 247.44Z" stroke="#D5D4D2" stroke-width="3" stroke-miterlimit="10"/>
<rect x="298.36" y="242.26" width="162" height="4" rx="2" fill="#D5D4D2"/>
<path d="M287.18 263.801C288.936 263.801 290.36 262.377 290.36 260.62C290.36 258.864 288.936 257.44 287.18 257.44C285.424 257.44 284 258.864 284 260.62C284 262.377 285.424 263.801 287.18 263.801Z" stroke="#D5D4D2" stroke-width="3" stroke-miterlimit="10"/>
<rect x="298.36" y="258.62" width="162" height="4" rx="2" fill="#D5D4D2"/>
<path d="M286.328 179.105C285.736 179.105 285.183 178.983 284.669 178.739C284.155 178.486 283.732 178.142 283.401 177.706C283.07 177.271 282.869 176.778 282.8 176.229L284.381 175.746C284.451 176.286 284.673 176.73 285.048 177.079C285.431 177.419 285.88 177.589 286.394 177.589C286.873 177.589 287.256 177.484 287.544 177.275C287.831 177.066 287.975 176.787 287.975 176.439C287.975 176.168 287.888 175.946 287.714 175.772C287.548 175.598 287.335 175.458 287.073 175.354C286.812 175.249 286.459 175.132 286.015 175.001C285.405 174.818 284.908 174.639 284.525 174.465C284.141 174.282 283.81 174.012 283.532 173.655C283.262 173.298 283.126 172.832 283.126 172.257C283.126 171.777 283.266 171.346 283.545 170.963C283.823 170.579 284.202 170.283 284.682 170.074C285.17 169.856 285.71 169.747 286.302 169.747C286.877 169.747 287.404 169.843 287.883 170.035C288.363 170.227 288.759 170.501 289.073 170.858C289.395 171.207 289.604 171.607 289.7 172.06L288.106 172.714C288.01 172.27 287.801 171.917 287.478 171.655C287.165 171.394 286.773 171.263 286.302 171.263C285.867 171.263 285.522 171.355 285.27 171.538C285.017 171.712 284.891 171.952 284.891 172.257C284.891 172.466 284.965 172.636 285.113 172.766C285.261 172.897 285.444 173.001 285.662 173.08C285.88 173.158 286.198 173.254 286.616 173.367C287.261 173.524 287.796 173.698 288.223 173.89C288.65 174.073 289.016 174.365 289.321 174.766C289.626 175.167 289.778 175.711 289.778 176.399C289.778 176.931 289.635 177.401 289.347 177.811C289.06 178.22 288.655 178.538 288.132 178.765C287.609 178.991 287.008 179.105 286.328 179.105ZM290.626 175.707C290.626 175.114 290.748 174.561 290.992 174.047C291.244 173.524 291.614 173.106 292.102 172.792C292.59 172.47 293.183 172.309 293.88 172.309C294.585 172.309 295.187 172.461 295.683 172.766C296.18 173.071 296.554 173.468 296.807 173.955C297.06 174.443 297.186 174.953 297.186 175.485C297.186 175.746 297.177 175.964 297.16 176.138H292.272C292.342 176.635 292.529 177.022 292.834 177.301C293.139 177.58 293.527 177.719 293.997 177.719C294.381 177.719 294.703 177.632 294.964 177.458C295.226 177.284 295.4 177.035 295.487 176.713L297.029 177.131C296.846 177.75 296.485 178.233 295.945 178.582C295.404 178.93 294.747 179.105 293.971 179.105C293.274 179.105 292.673 178.948 292.168 178.634C291.662 178.312 291.279 177.889 291.018 177.366C290.756 176.844 290.626 176.29 290.626 175.707ZM295.422 174.936C295.378 174.526 295.226 174.195 294.964 173.942C294.703 173.69 294.341 173.563 293.88 173.563C293.47 173.563 293.126 173.681 292.847 173.916C292.577 174.151 292.399 174.491 292.311 174.936H295.422ZM302.679 174.008C302.444 173.903 302.165 173.851 301.843 173.851C301.337 173.851 300.915 174.077 300.575 174.53C300.244 174.975 300.078 175.659 300.078 176.582V179H298.432V172.413H300.078V173.616C300.244 173.241 300.514 172.932 300.889 172.688C301.272 172.435 301.664 172.309 302.065 172.309C302.335 172.309 302.574 172.344 302.784 172.413L302.679 174.008ZM303.048 172.413H304.708L306.211 177.092L307.714 172.413H309.387L306.982 179H305.453L303.048 172.413ZM310.288 172.413H311.935V179H310.288V172.413ZM311.111 171.407C310.815 171.407 310.571 171.311 310.38 171.12C310.188 170.919 310.092 170.675 310.092 170.388C310.092 170.1 310.188 169.861 310.38 169.669C310.58 169.477 310.824 169.381 311.111 169.381C311.408 169.381 311.656 169.482 311.856 169.682C312.057 169.874 312.157 170.109 312.157 170.388C312.157 170.675 312.057 170.919 311.856 171.12C311.656 171.311 311.408 171.407 311.111 171.407ZM316.522 179.105C315.869 179.105 315.29 178.961 314.784 178.673C314.279 178.386 313.883 177.985 313.595 177.471C313.316 176.957 313.177 176.369 313.177 175.707C313.177 175.045 313.316 174.456 313.595 173.942C313.883 173.428 314.279 173.028 314.784 172.74C315.29 172.453 315.869 172.309 316.522 172.309C317.368 172.309 318.065 172.514 318.613 172.923C319.171 173.333 319.506 173.886 319.62 174.583L318.012 174.896C317.951 174.548 317.79 174.269 317.529 174.06C317.276 173.842 316.958 173.733 316.575 173.733C316.061 173.733 315.651 173.912 315.346 174.269C315.041 174.626 314.889 175.106 314.889 175.707C314.889 176.308 315.041 176.787 315.346 177.144C315.651 177.501 316.061 177.68 316.575 177.68C316.958 177.68 317.272 177.584 317.516 177.393C317.768 177.192 317.934 176.913 318.012 176.556L319.62 176.883C319.498 177.571 319.158 178.116 318.6 178.516C318.051 178.909 317.359 179.105 316.522 179.105ZM320.502 175.707C320.502 175.114 320.624 174.561 320.868 174.047C321.121 173.524 321.491 173.106 321.979 172.792C322.467 172.47 323.06 172.309 323.757 172.309C324.462 172.309 325.063 172.461 325.56 172.766C326.057 173.071 326.431 173.468 326.684 173.955C326.937 174.443 327.063 174.953 327.063 175.485C327.063 175.746 327.054 175.964 327.037 176.138H322.149C322.219 176.635 322.406 177.022 322.711 177.301C323.016 177.58 323.404 177.719 323.874 177.719C324.258 177.719 324.58 177.632 324.841 177.458C325.103 177.284 325.277 177.035 325.364 176.713L326.906 177.131C326.723 177.75 326.362 178.233 325.821 178.582C325.281 178.93 324.623 179.105 323.848 179.105C323.151 179.105 322.55 178.948 322.045 178.634C321.539 178.312 321.156 177.889 320.895 177.366C320.633 176.844 320.502 176.29 320.502 175.707ZM325.299 174.936C325.255 174.526 325.103 174.195 324.841 173.942C324.58 173.69 324.218 173.563 323.757 173.563C323.347 173.563 323.003 173.681 322.724 173.916C322.454 174.151 322.275 174.491 322.188 174.936H325.299ZM330.545 179.105C329.804 179.105 329.186 178.917 328.689 178.543C328.193 178.159 327.853 177.697 327.67 177.157L329.016 176.608C329.12 176.966 329.303 177.258 329.565 177.484C329.826 177.711 330.153 177.824 330.545 177.824C330.85 177.824 331.094 177.754 331.277 177.615C331.468 177.467 331.564 177.288 331.564 177.079C331.564 176.852 331.455 176.682 331.238 176.569C331.02 176.447 330.684 176.33 330.231 176.216C329.761 176.086 329.373 175.959 329.068 175.837C328.772 175.707 328.515 175.506 328.297 175.236C328.079 174.966 327.97 174.605 327.97 174.151C327.97 173.803 328.066 173.489 328.258 173.211C328.45 172.932 328.72 172.714 329.068 172.557C329.425 172.392 329.839 172.309 330.31 172.309C330.954 172.309 331.521 172.457 332.009 172.753C332.505 173.049 332.823 173.437 332.963 173.916L331.63 174.478C331.542 174.182 331.377 173.951 331.133 173.786C330.889 173.611 330.623 173.524 330.336 173.524C330.074 173.524 329.861 173.581 329.695 173.694C329.539 173.799 329.46 173.942 329.46 174.125C329.46 174.326 329.556 174.474 329.748 174.57C329.948 174.666 330.27 174.77 330.715 174.883C331.194 174.988 331.59 175.106 331.904 175.236C332.226 175.367 332.501 175.58 332.727 175.877C332.963 176.164 333.08 176.556 333.08 177.053C333.08 177.427 332.971 177.772 332.754 178.085C332.544 178.399 332.248 178.647 331.865 178.83C331.481 179.013 331.041 179.105 330.545 179.105Z" fill="#2B266D"/>
<path d="M285.868 296.162C285.276 296.162 284.723 296.04 284.209 295.796C283.695 295.544 283.272 295.199 282.941 294.764C282.61 294.328 282.409 293.836 282.34 293.287L283.921 292.803C283.991 293.344 284.213 293.788 284.588 294.137C284.971 294.476 285.42 294.646 285.934 294.646C286.413 294.646 286.796 294.542 287.084 294.333C287.371 294.123 287.515 293.845 287.515 293.496C287.515 293.226 287.428 293.004 287.254 292.83C287.088 292.655 286.875 292.516 286.613 292.411C286.352 292.307 285.999 292.189 285.555 292.059C284.945 291.876 284.448 291.697 284.065 291.523C283.682 291.34 283.35 291.07 283.072 290.712C282.802 290.355 282.667 289.889 282.667 289.314C282.667 288.835 282.806 288.404 283.085 288.02C283.364 287.637 283.742 287.341 284.222 287.132C284.71 286.914 285.25 286.805 285.842 286.805C286.417 286.805 286.944 286.901 287.424 287.092C287.903 287.284 288.299 287.559 288.613 287.916C288.935 288.264 289.144 288.665 289.24 289.118L287.646 289.772C287.55 289.327 287.341 288.974 287.018 288.713C286.705 288.452 286.313 288.321 285.842 288.321C285.407 288.321 285.062 288.412 284.81 288.595C284.557 288.77 284.431 289.009 284.431 289.314C284.431 289.523 284.505 289.693 284.653 289.824C284.801 289.955 284.984 290.059 285.202 290.137C285.42 290.216 285.738 290.312 286.156 290.425C286.801 290.582 287.336 290.756 287.763 290.948C288.19 291.131 288.556 291.423 288.861 291.823C289.166 292.224 289.318 292.769 289.318 293.457C289.318 293.988 289.175 294.459 288.887 294.868C288.6 295.278 288.195 295.596 287.672 295.822C287.149 296.049 286.548 296.162 285.868 296.162ZM290.518 289.471H292.165V296.058H290.518V289.471ZM291.342 288.465C291.046 288.465 290.802 288.369 290.61 288.177C290.418 287.977 290.322 287.733 290.322 287.445C290.322 287.158 290.418 286.918 290.61 286.727C290.81 286.535 291.054 286.439 291.342 286.439C291.638 286.439 291.886 286.539 292.087 286.74C292.287 286.931 292.387 287.167 292.387 287.445C292.387 287.733 292.287 287.977 292.087 288.177C291.886 288.369 291.638 288.465 291.342 288.465ZM296.478 295.862C295.52 295.862 294.766 295.565 294.218 294.973C293.677 294.38 293.407 293.596 293.407 292.621C293.407 291.976 293.529 291.409 293.773 290.922C294.017 290.425 294.366 290.042 294.819 289.772C295.28 289.501 295.821 289.366 296.439 289.366C296.831 289.366 297.189 289.436 297.511 289.576C297.842 289.715 298.103 289.902 298.295 290.137V289.471H299.929V295.639C299.929 296.214 299.794 296.72 299.523 297.155C299.253 297.6 298.87 297.94 298.373 298.175C297.877 298.419 297.306 298.541 296.661 298.541C295.886 298.541 295.219 298.349 294.662 297.966C294.104 297.591 293.769 297.099 293.656 296.489L295.185 296.241C295.219 296.546 295.376 296.785 295.655 296.959C295.934 297.134 296.269 297.221 296.661 297.221C297.158 297.221 297.554 297.09 297.851 296.829C298.156 296.576 298.308 296.236 298.308 295.809V295.091C298.143 295.326 297.894 295.513 297.563 295.652C297.232 295.792 296.87 295.862 296.478 295.862ZM295.041 292.621C295.041 293.169 295.193 293.609 295.498 293.94C295.803 294.272 296.208 294.437 296.714 294.437C297.219 294.437 297.624 294.272 297.929 293.94C298.243 293.609 298.4 293.169 298.4 292.621C298.4 292.063 298.247 291.619 297.942 291.288C297.637 290.956 297.228 290.791 296.714 290.791C296.208 290.791 295.803 290.956 295.498 291.288C295.193 291.619 295.041 292.063 295.041 292.621ZM301.532 289.471H303.179V290.464C303.397 290.133 303.684 289.867 304.042 289.667C304.408 289.467 304.817 289.366 305.27 289.366C305.993 289.366 306.573 289.584 307.008 290.02C307.453 290.455 307.675 291.031 307.675 291.745V296.058H306.028V292.137C306.028 291.745 305.915 291.431 305.688 291.196C305.462 290.952 305.157 290.83 304.774 290.83C304.268 290.83 303.876 291.035 303.597 291.444C303.319 291.854 303.179 292.429 303.179 293.169V296.058H301.532V289.471ZM313.109 291.823C313.109 291.449 312.991 291.157 312.756 290.948C312.521 290.73 312.203 290.621 311.802 290.621C311.445 290.621 311.144 290.726 310.9 290.935C310.665 291.144 310.53 291.423 310.495 291.771L309.031 291.51C309.136 290.865 309.445 290.347 309.959 289.955C310.482 289.562 311.096 289.366 311.802 289.366C312.682 289.366 313.383 289.602 313.906 290.072C314.437 290.534 314.703 291.192 314.703 292.046V296.058H313.109V295.104C312.926 295.426 312.651 295.683 312.285 295.875C311.928 296.066 311.545 296.162 311.135 296.162C310.708 296.162 310.329 296.079 309.998 295.914C309.667 295.74 309.406 295.504 309.214 295.208C309.031 294.912 308.94 294.576 308.94 294.202C308.94 293.557 309.184 293.056 309.672 292.699C310.16 292.342 310.896 292.111 311.88 292.006L313.109 291.889V291.823ZM310.534 294.15C310.534 294.385 310.621 294.576 310.796 294.725C310.97 294.873 311.205 294.947 311.501 294.947C311.998 294.947 312.39 294.781 312.677 294.45C312.965 294.119 313.109 293.705 313.109 293.209V293.065L311.854 293.209C311.427 293.261 311.1 293.37 310.874 293.535C310.647 293.701 310.534 293.906 310.534 294.15ZM320.104 295.992C319.79 296.106 319.438 296.162 319.046 296.162C318.349 296.162 317.787 295.97 317.36 295.587C316.933 295.204 316.719 294.642 316.719 293.901V290.856H315.608V289.471H316.719V287.537H318.366V289.471H320.026V290.856H318.366V293.744C318.366 294.049 318.44 294.289 318.588 294.463C318.745 294.629 318.954 294.712 319.215 294.712C319.52 294.712 319.777 294.659 319.986 294.555L320.104 295.992ZM327.316 296.058H325.67V295.064C325.452 295.395 325.16 295.661 324.794 295.862C324.437 296.062 324.032 296.162 323.579 296.162C322.855 296.162 322.272 295.944 321.827 295.509C321.392 295.073 321.174 294.498 321.174 293.784V289.471H322.821V293.392C322.821 293.784 322.934 294.102 323.16 294.346C323.387 294.581 323.692 294.698 324.075 294.698C324.58 294.698 324.973 294.494 325.251 294.084C325.53 293.675 325.67 293.1 325.67 292.359V289.471H327.316V296.058ZM333.155 291.065C332.92 290.961 332.641 290.909 332.319 290.909C331.814 290.909 331.391 291.135 331.051 291.588C330.72 292.032 330.555 292.716 330.555 293.64V296.058H328.908V289.471H330.555V290.673C330.72 290.299 330.99 289.989 331.365 289.745C331.748 289.493 332.14 289.366 332.541 289.366C332.811 289.366 333.051 289.401 333.26 289.471L333.155 291.065ZM333.635 292.764C333.635 292.172 333.756 291.619 334 291.105C334.253 290.582 334.623 290.164 335.111 289.85C335.599 289.528 336.192 289.366 336.889 289.366C337.594 289.366 338.196 289.519 338.692 289.824C339.189 290.129 339.563 290.525 339.816 291.013C340.069 291.501 340.195 292.011 340.195 292.542C340.195 292.803 340.186 293.021 340.169 293.196H335.281C335.351 293.692 335.538 294.08 335.843 294.359C336.148 294.637 336.536 294.777 337.006 294.777C337.39 294.777 337.712 294.69 337.973 294.516C338.235 294.341 338.409 294.093 338.496 293.771L340.038 294.189C339.855 294.807 339.494 295.291 338.953 295.639C338.413 295.988 337.756 296.162 336.98 296.162C336.283 296.162 335.682 296.005 335.177 295.692C334.671 295.369 334.288 294.947 334.027 294.424C333.765 293.901 333.635 293.348 333.635 292.764ZM338.431 291.993C338.387 291.584 338.235 291.253 337.973 291C337.712 290.747 337.35 290.621 336.889 290.621C336.479 290.621 336.135 290.739 335.856 290.974C335.586 291.209 335.408 291.549 335.32 291.993H338.431ZM348.828 291.065C348.592 290.961 348.314 290.909 347.991 290.909C347.486 290.909 347.063 291.135 346.723 291.588C346.392 292.032 346.227 292.716 346.227 293.64V296.058H344.58V289.471H346.227V290.673C346.392 290.299 346.662 289.989 347.037 289.745C347.42 289.493 347.813 289.366 348.213 289.366C348.483 289.366 348.723 289.401 348.932 289.471L348.828 291.065ZM349.307 292.764C349.307 292.172 349.429 291.619 349.673 291.105C349.925 290.582 350.296 290.164 350.784 289.85C351.271 289.528 351.864 289.366 352.561 289.366C353.267 289.366 353.868 289.519 354.364 289.824C354.861 290.129 355.236 290.525 355.488 291.013C355.741 291.501 355.867 292.011 355.867 292.542C355.867 292.803 355.859 293.021 355.841 293.196H350.953C351.023 293.692 351.21 294.08 351.515 294.359C351.82 294.637 352.208 294.777 352.679 294.777C353.062 294.777 353.384 294.69 353.646 294.516C353.907 294.341 354.081 294.093 354.168 293.771L355.71 294.189C355.528 294.807 355.166 295.291 354.626 295.639C354.086 295.988 353.428 296.162 352.652 296.162C351.955 296.162 351.354 296.005 350.849 295.692C350.344 295.369 349.96 294.947 349.699 294.424C349.437 293.901 349.307 293.348 349.307 292.764ZM354.103 291.993C354.059 291.584 353.907 291.253 353.646 291C353.384 290.747 353.023 290.621 352.561 290.621C352.151 290.621 351.807 290.739 351.528 290.974C351.258 291.209 351.08 291.549 350.993 291.993H354.103ZM361.778 298.436V295.404C361.587 295.639 361.325 295.827 360.994 295.966C360.672 296.097 360.319 296.162 359.936 296.162C359.3 296.162 358.742 296.023 358.263 295.744C357.784 295.456 357.414 295.056 357.152 294.542C356.891 294.028 356.76 293.435 356.76 292.764C356.76 292.093 356.882 291.501 357.126 290.987C357.379 290.473 357.736 290.076 358.198 289.798C358.659 289.51 359.2 289.366 359.818 289.366C360.245 289.366 360.628 289.445 360.968 289.602C361.317 289.758 361.587 289.968 361.778 290.229V289.471H363.425V298.436H361.778ZM358.394 292.764C358.394 293.357 358.55 293.836 358.864 294.202C359.187 294.559 359.609 294.738 360.132 294.738C360.663 294.738 361.086 294.559 361.399 294.202C361.722 293.836 361.883 293.357 361.883 292.764C361.883 292.172 361.722 291.697 361.399 291.34C361.086 290.974 360.663 290.791 360.132 290.791C359.609 290.791 359.187 290.974 358.864 291.34C358.55 291.697 358.394 292.172 358.394 292.764ZM371.168 296.058H369.521V295.064C369.303 295.395 369.012 295.661 368.646 295.862C368.288 296.062 367.883 296.162 367.43 296.162C366.707 296.162 366.123 295.944 365.679 295.509C365.243 295.073 365.026 294.498 365.026 293.784V289.471H366.672V293.392C366.672 293.784 366.786 294.102 367.012 294.346C367.239 294.581 367.544 294.698 367.927 294.698C368.432 294.698 368.824 294.494 369.103 294.084C369.382 293.675 369.521 293.1 369.521 292.359V289.471H371.168V296.058ZM372.76 289.471H374.406V296.058H372.76V289.471ZM373.583 288.465C373.287 288.465 373.043 288.369 372.851 288.177C372.659 287.977 372.564 287.733 372.564 287.445C372.564 287.158 372.659 286.918 372.851 286.727C373.052 286.535 373.296 286.439 373.583 286.439C373.879 286.439 374.128 286.539 374.328 286.74C374.528 286.931 374.629 287.167 374.629 287.445C374.629 287.733 374.528 287.977 374.328 288.177C374.128 288.369 373.879 288.465 373.583 288.465ZM380.249 291.065C380.013 290.961 379.735 290.909 379.412 290.909C378.907 290.909 378.484 291.135 378.145 291.588C377.814 292.032 377.648 292.716 377.648 293.64V296.058H376.001V289.471H377.648V290.673C377.814 290.299 378.084 289.989 378.458 289.745C378.842 289.493 379.234 289.366 379.634 289.366C379.905 289.366 380.144 289.401 380.353 289.471L380.249 291.065ZM380.728 292.764C380.728 292.172 380.85 291.619 381.094 291.105C381.347 290.582 381.717 290.164 382.205 289.85C382.693 289.528 383.285 289.366 383.982 289.366C384.688 289.366 385.289 289.519 385.786 289.824C386.282 290.129 386.657 290.525 386.909 291.013C387.162 291.501 387.288 292.011 387.288 292.542C387.288 292.803 387.28 293.021 387.262 293.196H382.375C382.444 293.692 382.632 294.08 382.937 294.359C383.242 294.637 383.629 294.777 384.1 294.777C384.483 294.777 384.805 294.69 385.067 294.516C385.328 294.341 385.502 294.093 385.59 293.771L387.132 294.189C386.949 294.807 386.587 295.291 386.047 295.639C385.507 295.988 384.849 296.162 384.074 296.162C383.377 296.162 382.775 296.005 382.27 295.692C381.765 295.369 381.381 294.947 381.12 294.424C380.859 293.901 380.728 293.348 380.728 292.764ZM385.524 291.993C385.481 291.584 385.328 291.253 385.067 291C384.805 290.747 384.444 290.621 383.982 290.621C383.573 290.621 383.228 290.739 382.95 290.974C382.68 291.209 382.501 291.549 382.414 291.993H385.524ZM391.318 296.162C390.673 296.162 390.111 296.023 389.632 295.744C389.161 295.456 388.8 295.056 388.547 294.542C388.303 294.028 388.181 293.435 388.181 292.764C388.181 292.093 388.303 291.501 388.547 290.987C388.8 290.473 389.161 290.076 389.632 289.798C390.102 289.51 390.656 289.366 391.292 289.366C391.692 289.366 392.063 289.445 392.402 289.602C392.742 289.75 393.008 289.95 393.2 290.203V286.805H394.846V296.058H393.2V295.3C393.034 295.561 392.781 295.77 392.442 295.927C392.102 296.084 391.727 296.162 391.318 296.162ZM389.815 292.764C389.815 293.357 389.972 293.836 390.285 294.202C390.608 294.559 391.03 294.738 391.553 294.738C392.084 294.738 392.507 294.559 392.821 294.202C393.143 293.836 393.304 293.357 393.304 292.764C393.304 292.172 393.143 291.697 392.821 291.34C392.507 290.974 392.084 290.791 391.553 290.791C391.03 290.791 390.608 290.974 390.285 291.34C389.972 291.697 389.815 292.172 389.815 292.764Z" fill="#2B266D"/>
<path d="M283.135 316.686L286.311 311.746L283.605 307.537H284.52L286.768 311.04L289.029 307.537H289.944L287.225 311.746L290.401 316.686H289.486L286.768 312.464L284.05 316.686H283.135Z" fill="#2B266D"/>
<path d="M286.587 57.4118C289.138 57.4118 291.205 55.3444 291.205 52.7941C291.205 50.2439 289.138 48.1765 286.587 48.1765C284.037 48.1765 281.97 50.2439 281.97 52.7941C281.97 55.3444 284.037 57.4118 286.587 57.4118Z" fill="#2B266D"/>
<path d="M300.843 57.411C303.393 57.411 305.461 55.3437 305.461 52.7934C305.461 50.2432 303.393 48.1758 300.843 48.1758C298.293 48.1758 296.226 50.2432 296.226 52.7934C296.226 55.3437 298.293 57.411 300.843 57.411Z" fill="#2B266D"/>
<path d="M315.087 57.4118C317.638 57.4118 319.705 55.3444 319.705 52.7941C319.705 50.2439 317.638 48.1765 315.087 48.1765C312.537 48.1765 310.47 50.2439 310.47 52.7941C310.47 55.3444 312.537 57.4118 315.087 57.4118Z" fill="#2B266D"/>
<path d="M387.58 79.1191H285.867C283.939 79.1191 282.376 80.682 282.376 82.61V136.767C282.376 138.695 283.939 140.258 285.867 140.258H387.58C389.508 140.258 391.071 138.695 391.071 136.767V82.61C391.071 80.682 389.508 79.1191 387.58 79.1191Z" fill="#FF5787" stroke="#FF5787" stroke-width="2.54571" stroke-miterlimit="10"/>
<path d="M506.51 79.1191H404.796C402.869 79.1191 401.306 80.682 401.306 82.61V136.767C401.306 138.695 402.869 140.258 404.796 140.258H506.51C508.437 140.258 510 138.695 510 136.767V82.61C510 80.682 508.437 79.1191 506.51 79.1191Z" fill="#D5D2F9" stroke="#2B266D" stroke-width="2" stroke-miterlimit="10"/>
<path d="M336.621 125.241C345.248 125.241 352.241 118.248 352.241 109.621C352.241 100.994 345.248 94 336.621 94C327.994 94 321 100.994 321 109.621C321 118.248 327.994 125.241 336.621 125.241Z" fill="white" stroke="#FF5787" stroke-width="2.73182" stroke-miterlimit="10"/>
<path d="M343.455 109.041L332.96 102.985C332.519 102.732 331.956 103.051 331.956 103.565V115.684C331.956 116.198 332.511 116.517 332.96 116.264L343.455 110.208C343.896 109.955 343.896 109.31 343.455 109.049V109.041Z" fill="#2B266D"/>
<path d="M622.026 119.788H447.974C444.675 119.788 442 122.329 442 125.462V216.114C442 219.248 444.675 221.788 447.974 221.788H622.026C625.325 221.788 628 219.248 628 216.114V125.462C628 122.329 625.325 119.788 622.026 119.788Z" fill="#2B266D" stroke="#2B266D" stroke-width="2.17812" stroke-miterlimit="10"/>
<path d="M622.315 119.788H452.89C449.678 119.788 447.074 122.392 447.074 125.604V215.811C447.074 219.023 449.678 221.626 452.89 221.626H622.315C625.527 221.626 628.131 219.023 628.131 215.811V125.604C628.131 122.392 625.527 119.788 622.315 119.788Z" fill="#C5F6E6" stroke="#2B266D" stroke-width="2" stroke-miterlimit="10"/>
<path d="M463.668 134.435H467.353C467.963 134.435 468.499 134.553 468.96 134.788C469.422 135.014 469.775 135.341 470.019 135.768C470.272 136.186 470.398 136.674 470.398 137.232C470.398 137.789 470.272 138.277 470.019 138.695C469.775 139.113 469.422 139.44 468.96 139.675C468.499 139.902 467.963 140.015 467.353 140.015H465.445V143.583H463.668V134.435ZM467.196 138.486C467.64 138.486 467.989 138.377 468.242 138.159C468.494 137.933 468.621 137.624 468.621 137.232C468.621 136.831 468.494 136.522 468.242 136.304C467.989 136.077 467.64 135.964 467.196 135.964H465.445V138.486H467.196ZM475 139.349C475 138.974 474.882 138.682 474.647 138.473C474.411 138.255 474.093 138.146 473.693 138.146C473.335 138.146 473.035 138.251 472.791 138.46C472.556 138.669 472.421 138.948 472.386 139.296L470.922 139.035C471.027 138.39 471.336 137.872 471.85 137.48C472.373 137.088 472.987 136.892 473.693 136.892C474.573 136.892 475.274 137.127 475.797 137.598C476.328 138.059 476.594 138.717 476.594 139.571V143.583H475V142.629C474.817 142.951 474.542 143.208 474.176 143.4C473.819 143.592 473.436 143.688 473.026 143.688C472.599 143.688 472.22 143.605 471.889 143.439C471.558 143.265 471.297 143.03 471.105 142.734C470.922 142.437 470.831 142.102 470.831 141.727C470.831 141.083 471.075 140.582 471.562 140.224C472.05 139.867 472.787 139.636 473.771 139.532L475 139.414V139.349ZM472.425 141.675C472.425 141.91 472.512 142.102 472.686 142.25C472.861 142.398 473.096 142.472 473.392 142.472C473.889 142.472 474.281 142.307 474.568 141.976C474.856 141.644 475 141.231 475 140.734V140.59L473.745 140.734C473.318 140.786 472.991 140.895 472.765 141.061C472.538 141.226 472.425 141.431 472.425 141.675ZM483.92 136.996L480.444 145.962H478.771L479.79 143.322L477.229 136.996H479.019L480.601 141.231L482.234 136.996H483.92ZM484.826 136.996H486.473V138.003C486.664 137.654 486.917 137.384 487.231 137.192C487.553 136.992 487.932 136.892 488.368 136.892C488.89 136.892 489.326 137.001 489.674 137.219C490.023 137.428 490.271 137.733 490.419 138.133C490.611 137.776 490.899 137.48 491.282 137.245C491.665 137.009 492.105 136.892 492.602 136.892C493.308 136.892 493.874 137.101 494.301 137.519C494.736 137.929 494.954 138.46 494.954 139.113V143.583H493.308V139.571C493.308 139.17 493.203 138.856 492.994 138.63C492.785 138.403 492.489 138.29 492.105 138.29C491.67 138.29 491.325 138.464 491.073 138.813C490.829 139.161 490.707 139.632 490.707 140.224V143.583H489.06V139.571C489.06 139.17 488.956 138.856 488.747 138.63C488.546 138.403 488.259 138.29 487.884 138.29C487.44 138.29 487.091 138.469 486.838 138.826C486.595 139.174 486.473 139.645 486.473 140.237V143.583H484.826V136.996ZM496.202 140.29C496.202 139.697 496.324 139.144 496.568 138.63C496.82 138.107 497.191 137.689 497.678 137.375C498.166 137.053 498.759 136.892 499.456 136.892C500.162 136.892 500.763 137.044 501.259 137.349C501.756 137.654 502.131 138.051 502.383 138.538C502.636 139.026 502.762 139.536 502.762 140.068C502.762 140.329 502.754 140.547 502.736 140.721H497.848C497.918 141.218 498.105 141.605 498.41 141.884C498.715 142.163 499.103 142.302 499.573 142.302C499.957 142.302 500.279 142.215 500.541 142.041C500.802 141.867 500.976 141.618 501.063 141.296L502.605 141.714C502.422 142.333 502.061 142.816 501.521 143.165C500.981 143.513 500.323 143.688 499.547 143.688C498.85 143.688 498.249 143.531 497.744 143.217C497.239 142.895 496.855 142.472 496.594 141.949C496.332 141.427 496.202 140.873 496.202 140.29ZM500.998 139.519C500.954 139.109 500.802 138.778 500.541 138.525C500.279 138.273 499.918 138.146 499.456 138.146C499.046 138.146 498.702 138.264 498.423 138.499C498.153 138.735 497.975 139.074 497.888 139.519H500.998ZM504.008 136.996H505.655V137.99C505.872 137.659 506.16 137.393 506.517 137.192C506.883 136.992 507.292 136.892 507.746 136.892C508.469 136.892 509.048 137.11 509.484 137.545C509.928 137.981 510.15 138.556 510.15 139.27V143.583H508.504V139.662C508.504 139.27 508.39 138.957 508.164 138.721C507.937 138.477 507.632 138.356 507.249 138.356C506.744 138.356 506.352 138.56 506.073 138.97C505.794 139.379 505.655 139.954 505.655 140.695V143.583H504.008V136.996ZM515.432 143.518C515.119 143.631 514.766 143.688 514.374 143.688C513.677 143.688 513.115 143.496 512.688 143.113C512.261 142.729 512.048 142.167 512.048 141.427V138.382H510.937V136.996H512.048V135.062H513.694V136.996H515.354V138.382H513.694V141.27C513.694 141.575 513.768 141.814 513.917 141.989C514.073 142.154 514.282 142.237 514.544 142.237C514.849 142.237 515.106 142.185 515.315 142.08L515.432 143.518ZM519.706 136.996H521.352V138.003C521.544 137.654 521.797 137.384 522.11 137.192C522.433 136.992 522.812 136.892 523.247 136.892C523.77 136.892 524.206 137.001 524.554 137.219C524.903 137.428 525.151 137.733 525.299 138.133C525.491 137.776 525.778 137.48 526.162 137.245C526.545 137.009 526.985 136.892 527.482 136.892C528.187 136.892 528.754 137.101 529.181 137.519C529.616 137.929 529.834 138.46 529.834 139.113V143.583H528.187V139.571C528.187 139.17 528.083 138.856 527.874 138.63C527.665 138.403 527.368 138.29 526.985 138.29C526.549 138.29 526.205 138.464 525.953 138.813C525.709 139.161 525.587 139.632 525.587 140.224V143.583H523.94V139.571C523.94 139.17 523.835 138.856 523.626 138.63C523.426 138.403 523.138 138.29 522.764 138.29C522.319 138.29 521.971 138.469 521.718 138.826C521.474 139.174 521.352 139.645 521.352 140.237V143.583H519.706V136.996ZM531.081 140.29C531.081 139.697 531.203 139.144 531.447 138.63C531.7 138.107 532.07 137.689 532.558 137.375C533.046 137.053 533.639 136.892 534.336 136.892C535.041 136.892 535.642 137.044 536.139 137.349C536.636 137.654 537.01 138.051 537.263 138.538C537.516 139.026 537.642 139.536 537.642 140.068C537.642 140.329 537.633 140.547 537.616 140.721H532.728C532.798 141.218 532.985 141.605 533.29 141.884C533.595 142.163 533.983 142.302 534.453 142.302C534.837 142.302 535.159 142.215 535.42 142.041C535.682 141.867 535.856 141.618 535.943 141.296L537.485 141.714C537.302 142.333 536.941 142.816 536.4 143.165C535.86 143.513 535.203 143.688 534.427 143.688C533.73 143.688 533.129 143.531 532.624 143.217C532.118 142.895 531.735 142.472 531.474 141.949C531.212 141.427 531.081 140.873 531.081 140.29ZM535.878 139.519C535.834 139.109 535.682 138.778 535.42 138.525C535.159 138.273 534.797 138.146 534.336 138.146C533.926 138.146 533.582 138.264 533.303 138.499C533.033 138.735 532.854 139.074 532.767 139.519H535.878ZM542.68 143.518C542.367 143.631 542.014 143.688 541.622 143.688C540.925 143.688 540.363 143.496 539.936 143.113C539.509 142.729 539.296 142.167 539.296 141.427V138.382H538.185V136.996H539.296V135.062H540.942V136.996H542.602V138.382H540.942V141.27C540.942 141.575 541.016 141.814 541.164 141.989C541.321 142.154 541.53 142.237 541.792 142.237C542.097 142.237 542.354 142.185 542.563 142.08L542.68 143.518ZM544.146 134.33H545.792V138.016C546.01 137.659 546.298 137.384 546.655 137.192C547.021 136.992 547.43 136.892 547.883 136.892C548.624 136.892 549.216 137.11 549.661 137.545C550.114 137.981 550.34 138.556 550.34 139.27V143.583H548.694V139.675C548.694 139.266 548.576 138.944 548.341 138.708C548.106 138.473 547.788 138.356 547.387 138.356C546.881 138.356 546.489 138.565 546.211 138.983C545.932 139.392 545.792 139.972 545.792 140.721V143.583H544.146V134.33ZM555.015 143.688C554.362 143.688 553.774 143.544 553.251 143.256C552.728 142.96 552.319 142.555 552.022 142.041C551.726 141.518 551.578 140.934 551.578 140.29C551.578 139.645 551.726 139.066 552.022 138.552C552.319 138.029 552.728 137.624 553.251 137.336C553.774 137.04 554.362 136.892 555.015 136.892C555.669 136.892 556.257 137.04 556.779 137.336C557.302 137.624 557.712 138.029 558.008 138.552C558.304 139.066 558.452 139.645 558.452 140.29C558.452 140.934 558.304 141.518 558.008 142.041C557.712 142.555 557.302 142.96 556.779 143.256C556.257 143.544 555.669 143.688 555.015 143.688ZM553.238 140.29C553.238 140.882 553.399 141.361 553.721 141.727C554.052 142.084 554.484 142.263 555.015 142.263C555.547 142.263 555.973 142.08 556.296 141.714C556.627 141.348 556.792 140.873 556.792 140.29C556.792 139.706 556.627 139.231 556.296 138.865C555.973 138.499 555.547 138.316 555.015 138.316C554.484 138.316 554.052 138.499 553.721 138.865C553.399 139.222 553.238 139.697 553.238 140.29ZM562.474 143.688C561.829 143.688 561.267 143.548 560.788 143.269C560.318 142.982 559.956 142.581 559.703 142.067C559.46 141.553 559.338 140.961 559.338 140.29C559.338 139.619 559.46 139.026 559.703 138.512C559.956 137.998 560.318 137.602 560.788 137.323C561.259 137.036 561.812 136.892 562.448 136.892C562.849 136.892 563.219 136.97 563.559 137.127C563.899 137.275 564.164 137.476 564.356 137.728V134.33H566.003V143.583H564.356V142.825C564.19 143.086 563.938 143.295 563.598 143.452C563.258 143.609 562.884 143.688 562.474 143.688ZM560.971 140.29C560.971 140.882 561.128 141.361 561.442 141.727C561.764 142.084 562.187 142.263 562.709 142.263C563.241 142.263 563.663 142.084 563.977 141.727C564.299 141.361 564.461 140.882 564.461 140.29C564.461 139.697 564.299 139.222 563.977 138.865C563.663 138.499 563.241 138.316 562.709 138.316C562.187 138.316 561.764 138.499 561.442 138.865C561.128 139.222 560.971 139.697 560.971 140.29ZM569.903 143.688C569.163 143.688 568.544 143.5 568.047 143.126C567.551 142.742 567.211 142.28 567.028 141.74L568.374 141.191C568.479 141.549 568.662 141.841 568.923 142.067C569.184 142.294 569.511 142.407 569.903 142.407C570.208 142.407 570.452 142.337 570.635 142.198C570.827 142.05 570.923 141.871 570.923 141.662C570.923 141.435 570.814 141.265 570.596 141.152C570.378 141.03 570.043 140.913 569.59 140.799C569.119 140.669 568.731 140.542 568.426 140.42C568.13 140.29 567.873 140.089 567.655 139.819C567.438 139.549 567.329 139.188 567.329 138.735C567.329 138.386 567.425 138.072 567.616 137.794C567.808 137.515 568.078 137.297 568.426 137.14C568.784 136.975 569.198 136.892 569.668 136.892C570.313 136.892 570.879 137.04 571.367 137.336C571.864 137.632 572.182 138.02 572.321 138.499L570.988 139.061C570.901 138.765 570.735 138.534 570.491 138.369C570.247 138.194 569.982 138.107 569.694 138.107C569.433 138.107 569.219 138.164 569.054 138.277C568.897 138.382 568.819 138.525 568.819 138.708C568.819 138.909 568.914 139.057 569.106 139.153C569.306 139.249 569.629 139.353 570.073 139.466C570.552 139.571 570.949 139.689 571.262 139.819C571.585 139.95 571.859 140.163 572.086 140.46C572.321 140.747 572.439 141.139 572.439 141.636C572.439 142.01 572.33 142.355 572.112 142.668C571.903 142.982 571.607 143.23 571.223 143.413C570.84 143.596 570.4 143.688 569.903 143.688Z" fill="#2B266D"/>
<rect x="531" y="159" width="65" height="4" rx="2" fill="#2B266D"/>
<rect x="531" y="173" width="73" height="4" rx="2" fill="#2B266D"/>
<rect x="531" y="187" width="53" height="4" rx="2" fill="#2B266D"/>
<path d="M511.742 157.403H467.483C464.891 157.403 462.789 159.505 462.789 162.097V186.623C462.789 189.215 464.891 191.317 467.483 191.317H511.742C514.335 191.317 516.436 189.215 516.436 186.623V162.097C516.436 159.505 514.335 157.403 511.742 157.403Z" fill="white" stroke="#2B266D" stroke-width="2" stroke-miterlimit="10"/>
<path d="M515.99 162.446H463.236C462.989 162.446 462.789 162.646 462.789 162.893V170.266C462.789 170.512 462.989 170.712 463.236 170.712H515.99C516.236 170.712 516.436 170.512 516.436 170.266V162.893C516.436 162.646 516.236 162.446 515.99 162.446Z" fill="#2B266D"/>
<path d="M467.755 179.48H492.575" stroke="#2B266D" stroke-width="2" stroke-miterlimit="10" stroke-linecap="round"/>
<path d="M467.755 184.358H486.552" stroke="#2B266D" stroke-width="2" stroke-miterlimit="10" stroke-linecap="round"/>
<path d="M655.651 380.69H562.939" stroke="#2B266D" stroke-width="2" stroke-miterlimit="10" stroke-linecap="round"/>
<path d="M640.597 128.342L662.966 138.569" stroke="#2B266D" stroke-width="2" stroke-miterlimit="10" stroke-linecap="round"/>
<path d="M641.036 116.178L664.081 107.596" stroke="#2B266D" stroke-width="2" stroke-miterlimit="10" stroke-linecap="round"/>
<path d="M620.582 106.833L612 83.7881" stroke="#2B266D" stroke-width="2" stroke-miterlimit="10" stroke-linecap="round"/>
<path d="M632.745 107.269L642.971 84.8999" stroke="#2B266D" stroke-width="2" stroke-miterlimit="10" stroke-linecap="round"/>
<path d="M652.508 216.097L638.144 222.032L650.526 240.154C650.733 240.448 650.657 240.862 650.352 241.058L634.234 252.036C633.94 252.243 633.526 252.166 633.33 251.862L621.067 233.903L610.416 245.229C609.861 245.828 608.859 245.512 608.739 244.695L601.028 190.275C600.745 188.5 602.64 187.182 604.197 188.075L652.606 214.343C653.325 214.735 653.271 215.792 652.508 216.097Z" fill="white" stroke="#2B266D" stroke-width="2" stroke-miterlimit="10"/>
</svg>
