<svg width="800" height="400" viewBox="0 0 800 400" fill="none" xmlns="http://www.w3.org/2000/svg">
<path d="M159.317 339.945H454.558C455.004 339.945 455.431 340.127 455.739 340.449L482.684 368.601C483.678 369.64 482.941 371.365 481.502 371.365H135.121C133.724 371.365 132.971 369.725 133.882 368.665L158.077 340.515C158.388 340.153 158.841 339.945 159.317 339.945Z" fill="#2B266D" stroke="#2B266D" stroke-width="3.26944"/>
<path d="M218.235 38.5938H453.653C455.822 38.5938 457.747 39.889 459.158 42.0156C460.568 44.1412 461.416 47.038 461.416 50.0537V360.689C461.416 367.283 457.233 372.406 452.402 372.406H225.778C219.941 372.406 215.747 369.853 212.989 365.806C210.214 361.731 208.875 356.109 208.875 349.993V50.9424C208.875 47.73 210.012 44.6207 211.771 42.3223C213.535 40.0165 215.867 38.5938 218.235 38.5938Z" fill="#2B266D" stroke="#2B266D" stroke-width="1.18688"/>
<path d="M457.967 38.9912H225.011C220.011 38.9912 215.957 44.2082 215.957 50.6437V358.468C215.957 364.904 220.011 370.121 225.011 370.121H457.967C462.967 370.121 467.021 364.904 467.021 358.468V50.6437C467.021 44.2082 462.967 38.9912 457.967 38.9912Z" fill="white" stroke="#2B266D" stroke-width="1.98225" stroke-miterlimit="10"/>
<path d="M241.993 90V69.1796H250.38C254.604 69.1796 257.311 71.678 257.311 75.5447C257.311 79.3816 254.604 81.88 250.38 81.88H246.038V90H241.993ZM246.038 78.4H250.024C252.046 78.4 253.266 77.3293 253.266 75.5447C253.266 73.7303 252.046 72.6595 250.024 72.6595H246.038V78.4ZM259.885 90L259.856 69.1796H267.886C271.961 69.1796 274.608 71.5888 274.608 75.3365C274.608 77.6862 273.389 79.679 271.337 80.6903L276.869 90H272.14L267.232 81.4636H263.931V90H259.885ZM263.931 77.9836H267.262C269.344 77.9836 270.534 77.0021 270.534 75.3365C270.534 73.6708 269.344 72.6595 267.262 72.6595H263.931V77.9836ZM287.734 90.2379C281.636 90.2379 277.175 85.7467 277.175 79.5898C277.175 73.4329 281.636 68.9416 287.734 68.9416C293.801 68.9416 298.263 73.4329 298.263 79.5898C298.263 85.7467 293.801 90.2379 287.734 90.2379ZM281.25 79.5898C281.25 83.7241 283.956 86.7282 287.734 86.7282C291.511 86.7282 294.188 83.7241 294.188 79.5898C294.188 75.4554 291.511 72.4216 287.734 72.4216C283.956 72.4216 281.25 75.4554 281.25 79.5898ZM301.306 90V69.1796H309.693C313.917 69.1796 316.623 71.678 316.623 75.5447C316.623 79.3816 313.917 81.88 309.693 81.88H305.351V90H301.306ZM305.351 78.4H309.336C311.359 78.4 312.578 77.3293 312.578 75.5447C312.578 73.7303 311.359 72.6595 309.336 72.6595H305.351V78.4ZM328.805 90.2379C322.708 90.2379 318.246 85.7467 318.246 79.5898C318.246 73.4329 322.708 68.9416 328.805 68.9416C334.873 68.9416 339.334 73.4329 339.334 79.5898C339.334 85.7467 334.873 90.2379 328.805 90.2379ZM322.321 79.5898C322.321 83.7241 325.028 86.7282 328.805 86.7282C332.583 86.7282 335.26 83.7241 335.26 79.5898C335.26 75.4554 332.583 72.4216 328.805 72.4216C325.028 72.4216 322.321 75.4554 322.321 79.5898ZM349.188 90.2379C345.084 90.2379 341.663 87.4718 341.158 83.6944L344.757 82.5939C345.084 85.0923 347.017 86.7877 349.337 86.7877C351.508 86.7877 352.936 85.7467 352.936 84.1703C352.936 79.679 341.901 82.2072 341.901 74.6524C341.901 71.3211 345.024 68.9416 349.129 68.9416C353.085 68.9416 356.208 71.0534 356.862 74.2062L353.233 75.6934C352.817 73.6708 351.3 72.3918 349.129 72.3918C347.136 72.3918 345.917 73.2544 345.917 74.6524C345.917 78.4298 357.041 75.6339 357.041 84.081C357.041 87.7692 353.888 90.2379 349.188 90.2379ZM367.896 74.4739L365.13 81.9693H370.662L367.896 74.4739ZM357.991 90L365.992 69.1796H369.77L377.771 90H373.607L371.911 85.3898H363.851L362.155 90H357.991ZM379.759 90V69.1796H383.804V86.4903H393.471V90H379.759Z" fill="#2B266D"/>
<rect x="240" y="110.737" width="201.042" height="7.92899" rx="3.9645" fill="#D5D4D2"/>
<rect x="240" y="128.666" width="108" height="8" rx="4" fill="#D5D4D2"/>
<path d="M245.92 164.826C243.16 164.826 240.86 162.966 240.52 160.426L242.94 159.686C243.16 161.366 244.46 162.506 246.02 162.506C247.48 162.506 248.44 161.806 248.44 160.746C248.44 157.726 241.02 159.426 241.02 154.346C241.02 152.106 243.12 150.506 245.88 150.506C248.54 150.506 250.64 151.926 251.08 154.046L248.64 155.046C248.36 153.686 247.34 152.826 245.88 152.826C244.54 152.826 243.72 153.406 243.72 154.346C243.72 156.886 251.2 155.006 251.2 160.686C251.2 163.166 249.08 164.826 245.92 164.826ZM253.136 164.666V150.666H262.496V153.006H255.856V156.086H261.176V158.446H255.856V162.306H262.716V164.666H253.136ZM264.758 164.666L264.738 150.666H270.138C272.878 150.666 274.658 152.286 274.658 154.806C274.658 156.386 273.838 157.726 272.458 158.406L276.178 164.666H272.998L269.698 158.926H267.478V164.666H264.758ZM267.478 156.586H269.718C271.118 156.586 271.918 155.926 271.918 154.806C271.918 153.686 271.118 153.006 269.718 153.006H267.478V156.586ZM280.689 164.666L275.589 150.666H278.369L281.989 161.426L285.649 150.666H288.409L283.309 164.666H280.689ZM289.875 164.666V150.666H292.595V164.666H289.875ZM301.566 164.826C297.866 164.826 294.606 162.406 294.606 157.666C294.606 152.926 297.926 150.506 301.566 150.506C304.926 150.506 307.306 152.346 307.786 155.166L305.086 155.726C304.726 153.946 303.366 152.846 301.566 152.846C299.206 152.846 297.366 154.526 297.366 157.666C297.366 160.806 299.186 162.466 301.566 162.466C303.386 162.466 304.646 161.466 305.006 159.826L307.746 160.426C307.066 163.166 304.786 164.826 301.566 164.826ZM309.523 164.666V150.666H318.883V153.006H312.243V156.086H317.563V158.446H312.243V162.306H319.103V164.666H309.523ZM325.725 164.826C322.965 164.826 320.665 162.966 320.325 160.426L322.745 159.686C322.965 161.366 324.265 162.506 325.825 162.506C327.285 162.506 328.245 161.806 328.245 160.746C328.245 157.726 320.825 159.426 320.825 154.346C320.825 152.106 322.925 150.506 325.685 150.506C328.345 150.506 330.445 151.926 330.885 154.046L328.445 155.046C328.165 153.686 327.145 152.826 325.685 152.826C324.345 152.826 323.525 153.406 323.525 154.346C323.525 156.886 331.005 155.006 331.005 160.686C331.005 163.166 328.885 164.826 325.725 164.826Z" fill="#2B266D"/>
<rect x="241" y="236" width="109" height="12" rx="6" fill="#D5D4D2"/>
<rect x="364.754" y="236" width="43" height="12" rx="6" fill="#8EE9CC"/>
<rect x="422.508" y="236" width="22" height="12" rx="6" fill="#D5D4D2"/>
<rect x="241" y="258" width="109" height="12" rx="6" fill="#D5D4D2"/>
<rect x="364.754" y="258" width="43" height="12" rx="6" fill="#8EE9CC"/>
<rect x="422.508" y="258" width="22" height="12" rx="6" fill="#D5D4D2"/>
<rect x="241" y="280" width="109" height="12" rx="6" fill="#D5D4D2"/>
<rect x="364.754" y="280" width="43" height="12" rx="6" fill="#FECDCD"/>
<rect x="422.508" y="280" width="22" height="12" rx="6" fill="#D5D4D2"/>
<rect x="241" y="302" width="109" height="12" rx="6" fill="#D5D4D2"/>
<rect x="364.754" y="302" width="43" height="12" rx="6" fill="#8EE9CC"/>
<rect x="422.508" y="302" width="22" height="12" rx="6" fill="#D5D4D2"/>
<rect x="241" y="324" width="109" height="12" rx="6" fill="#D5D4D2"/>
<rect x="364.754" y="324" width="43" height="12" rx="6" fill="#FDEDAA"/>
<rect x="422.508" y="324" width="22" height="12" rx="6" fill="#D5D4D2"/>
<rect x="217" y="181" width="249" height="38" fill="#F1F0FD"/>
<rect x="241" y="194" width="109" height="12" rx="6" fill="#B8B4F5"/>
<rect x="364.754" y="194" width="43" height="12" rx="6" fill="#B8B4F5"/>
<rect x="422.508" y="194" width="22" height="12" rx="6" fill="#B8B4F5"/>
<path d="M607.518 156.082L625.131 164.135" stroke="#2B266D" stroke-width="2" stroke-miterlimit="10" stroke-linecap="round"/>
<path d="M607.863 146.504L626.009 139.746" stroke="#2B266D" stroke-width="2" stroke-miterlimit="10" stroke-linecap="round"/>
<path d="M591.757 139.145L585 121" stroke="#2B266D" stroke-width="2" stroke-miterlimit="10" stroke-linecap="round"/>
<path d="M601.335 139.489L609.387 121.876" stroke="#2B266D" stroke-width="2" stroke-miterlimit="10" stroke-linecap="round"/>
<rect x="341" y="151" width="259" height="32" rx="16" fill="#2B266D"/>
<rect x="347" y="152" width="252" height="29" rx="14.5" fill="white" stroke="#2B266D" stroke-width="2"/>
<rect x="370" y="161" width="82" height="12" rx="6" fill="#B8B4F5"/>
<rect x="458.75" y="161" width="99" height="12" rx="6" fill="#5ED7B1"/>
<rect x="564.5" y="161" width="16" height="12" rx="6" fill="#B8B4F5"/>
<path d="M624.03 183.806L613.982 187.958L622.643 200.637C622.788 200.843 622.735 201.132 622.521 201.269L611.247 208.95C611.041 209.094 610.752 209.041 610.615 208.828L602.037 196.263L594.586 204.187C594.198 204.606 593.497 204.386 593.413 203.814L588.02 165.74C587.822 164.498 589.147 163.576 590.237 164.201L624.098 182.579C624.601 182.853 624.563 183.592 624.03 183.806Z" fill="white" stroke="#2B266D" stroke-width="2" stroke-miterlimit="10"/>
<path d="M466.187 170.027C465.671 169.937 465.233 169.715 464.873 169.361C464.513 169.007 464.3 168.584 464.234 168.092L465.323 167.759C465.371 168.131 465.524 168.437 465.782 168.677C466.046 168.911 466.355 169.028 466.709 169.028C467.039 169.028 467.303 168.956 467.501 168.812C467.699 168.668 467.798 168.476 467.798 168.236C467.798 168.05 467.738 167.897 467.618 167.777C467.504 167.657 467.357 167.561 467.177 167.489C466.997 167.417 466.754 167.336 466.448 167.246C466.028 167.12 465.686 166.997 465.422 166.877C465.158 166.751 464.93 166.565 464.738 166.319C464.552 166.073 464.459 165.752 464.459 165.356C464.459 164.918 464.618 164.546 464.936 164.24C465.26 163.934 465.677 163.742 466.187 163.664V162.8H467.195V163.673C467.663 163.757 468.056 163.937 468.374 164.213C468.698 164.489 468.902 164.825 468.986 165.221L467.888 165.671C467.822 165.365 467.678 165.122 467.456 164.942C467.24 164.762 466.97 164.672 466.646 164.672C466.346 164.672 466.109 164.735 465.935 164.861C465.761 164.981 465.674 165.146 465.674 165.356C465.674 165.5 465.725 165.617 465.827 165.707C465.929 165.797 466.055 165.869 466.205 165.923C466.355 165.977 466.574 166.043 466.862 166.121C467.306 166.229 467.675 166.349 467.969 166.481C468.263 166.607 468.515 166.808 468.725 167.084C468.935 167.36 469.04 167.735 469.04 168.209C469.04 168.695 468.872 169.1 468.536 169.424C468.206 169.748 467.759 169.952 467.195 170.036V170.9L466.187 170.891V170.027ZM473.702 167.57H475.376L474.539 165.302L473.702 167.57ZM473.963 163.7H475.106L477.527 170H476.267L475.754 168.605H473.315L472.802 170H471.542L473.963 163.7ZM478.129 163.7H479.353V170H478.129V163.7ZM480.186 166.913H483.084V167.885H480.186V166.913ZM485.46 170.072C484.95 170.072 484.524 169.943 484.182 169.685C483.84 169.421 483.606 169.103 483.48 168.731L484.407 168.353C484.479 168.599 484.605 168.8 484.785 168.956C484.965 169.112 485.19 169.19 485.46 169.19C485.67 169.19 485.838 169.142 485.964 169.046C486.096 168.944 486.162 168.821 486.162 168.677C486.162 168.521 486.087 168.404 485.937 168.326C485.787 168.242 485.556 168.161 485.244 168.083C484.92 167.993 484.653 167.906 484.443 167.822C484.239 167.732 484.062 167.594 483.912 167.408C483.762 167.222 483.687 166.973 483.687 166.661C483.687 166.421 483.753 166.205 483.885 166.013C484.017 165.821 484.203 165.671 484.443 165.563C484.689 165.449 484.974 165.392 485.298 165.392C485.742 165.392 486.132 165.494 486.468 165.698C486.81 165.902 487.029 166.169 487.125 166.499L486.207 166.886C486.147 166.682 486.033 166.523 485.865 166.409C485.697 166.289 485.514 166.229 485.316 166.229C485.136 166.229 484.989 166.268 484.875 166.346C484.767 166.418 484.713 166.517 484.713 166.643C484.713 166.781 484.779 166.883 484.911 166.949C485.049 167.015 485.271 167.087 485.577 167.165C485.907 167.237 486.18 167.318 486.396 167.408C486.618 167.498 486.807 167.645 486.963 167.849C487.125 168.047 487.206 168.317 487.206 168.659C487.206 168.917 487.131 169.154 486.981 169.37C486.837 169.586 486.633 169.757 486.369 169.883C486.105 170.009 485.802 170.072 485.46 170.072ZM492.255 170H491.121V169.316C490.971 169.544 490.77 169.727 490.518 169.865C490.272 170.003 489.993 170.072 489.681 170.072C489.183 170.072 488.781 169.922 488.475 169.622C488.175 169.322 488.025 168.926 488.025 168.434V165.464H489.159V168.164C489.159 168.434 489.237 168.653 489.393 168.821C489.549 168.983 489.759 169.064 490.023 169.064C490.371 169.064 490.641 168.923 490.833 168.641C491.025 168.359 491.121 167.963 491.121 167.453V165.464H492.255V170ZM495.223 169.865C494.563 169.865 494.044 169.661 493.666 169.253C493.294 168.845 493.108 168.305 493.108 167.633C493.108 167.189 493.192 166.799 493.36 166.463C493.528 166.121 493.768 165.857 494.08 165.671C494.398 165.485 494.77 165.392 495.196 165.392C495.466 165.392 495.712 165.44 495.934 165.536C496.162 165.632 496.342 165.761 496.474 165.923V165.464H497.599V169.712C497.599 170.108 497.506 170.456 497.32 170.756C497.134 171.062 496.87 171.296 496.528 171.458C496.186 171.626 495.793 171.71 495.349 171.71C494.815 171.71 494.356 171.578 493.972 171.314C493.588 171.056 493.357 170.717 493.279 170.297L494.332 170.126C494.356 170.336 494.464 170.501 494.656 170.621C494.848 170.741 495.079 170.801 495.349 170.801C495.691 170.801 495.964 170.711 496.168 170.531C496.378 170.357 496.483 170.123 496.483 169.829V169.334C496.369 169.496 496.198 169.625 495.97 169.721C495.742 169.817 495.493 169.865 495.223 169.865ZM494.233 167.633C494.233 168.011 494.338 168.314 494.548 168.542C494.758 168.77 495.037 168.884 495.385 168.884C495.733 168.884 496.012 168.77 496.222 168.542C496.438 168.314 496.546 168.011 496.546 167.633C496.546 167.249 496.441 166.943 496.231 166.715C496.021 166.487 495.739 166.373 495.385 166.373C495.037 166.373 494.758 166.487 494.548 166.715C494.338 166.943 494.233 167.249 494.233 167.633ZM500.575 169.865C499.915 169.865 499.396 169.661 499.018 169.253C498.646 168.845 498.46 168.305 498.46 167.633C498.46 167.189 498.544 166.799 498.712 166.463C498.88 166.121 499.12 165.857 499.432 165.671C499.75 165.485 500.122 165.392 500.548 165.392C500.818 165.392 501.064 165.44 501.286 165.536C501.514 165.632 501.694 165.761 501.826 165.923V165.464H502.951V169.712C502.951 170.108 502.858 170.456 502.672 170.756C502.486 171.062 502.222 171.296 501.88 171.458C501.538 171.626 501.145 171.71 500.701 171.71C500.167 171.71 499.708 171.578 499.324 171.314C498.94 171.056 498.709 170.717 498.631 170.297L499.684 170.126C499.708 170.336 499.816 170.501 500.008 170.621C500.2 170.741 500.431 170.801 500.701 170.801C501.043 170.801 501.316 170.711 501.52 170.531C501.73 170.357 501.835 170.123 501.835 169.829V169.334C501.721 169.496 501.55 169.625 501.322 169.721C501.094 169.817 500.845 169.865 500.575 169.865ZM499.585 167.633C499.585 168.011 499.69 168.314 499.9 168.542C500.11 168.77 500.389 168.884 500.737 168.884C501.085 168.884 501.364 168.77 501.574 168.542C501.79 168.314 501.898 168.011 501.898 167.633C501.898 167.249 501.793 166.943 501.583 166.715C501.373 166.487 501.091 166.373 500.737 166.373C500.389 166.373 500.11 166.487 499.9 166.715C499.69 166.943 499.585 167.249 499.585 167.633ZM503.813 167.732C503.813 167.324 503.897 166.943 504.065 166.589C504.239 166.229 504.494 165.941 504.83 165.725C505.166 165.503 505.574 165.392 506.054 165.392C506.54 165.392 506.954 165.497 507.296 165.707C507.638 165.917 507.896 166.19 508.07 166.526C508.244 166.862 508.331 167.213 508.331 167.579C508.331 167.759 508.325 167.909 508.313 168.029H504.947C504.995 168.371 505.124 168.638 505.334 168.83C505.544 169.022 505.811 169.118 506.135 169.118C506.399 169.118 506.621 169.058 506.801 168.938C506.981 168.818 507.101 168.647 507.161 168.425L508.223 168.713C508.097 169.139 507.848 169.472 507.476 169.712C507.104 169.952 506.651 170.072 506.117 170.072C505.637 170.072 505.223 169.964 504.875 169.748C504.527 169.526 504.263 169.235 504.083 168.875C503.903 168.515 503.813 168.134 503.813 167.732ZM507.116 167.201C507.086 166.919 506.981 166.691 506.801 166.517C506.621 166.343 506.372 166.256 506.054 166.256C505.772 166.256 505.535 166.337 505.343 166.499C505.157 166.661 505.034 166.895 504.974 167.201H507.116ZM510.729 170.072C510.219 170.072 509.793 169.943 509.451 169.685C509.109 169.421 508.875 169.103 508.749 168.731L509.676 168.353C509.748 168.599 509.874 168.8 510.054 168.956C510.234 169.112 510.459 169.19 510.729 169.19C510.939 169.19 511.107 169.142 511.233 169.046C511.365 168.944 511.431 168.821 511.431 168.677C511.431 168.521 511.356 168.404 511.206 168.326C511.056 168.242 510.825 168.161 510.513 168.083C510.189 167.993 509.922 167.906 509.712 167.822C509.508 167.732 509.331 167.594 509.181 167.408C509.031 167.222 508.956 166.973 508.956 166.661C508.956 166.421 509.022 166.205 509.154 166.013C509.286 165.821 509.472 165.671 509.712 165.563C509.958 165.449 510.243 165.392 510.567 165.392C511.011 165.392 511.401 165.494 511.737 165.698C512.079 165.902 512.298 166.169 512.394 166.499L511.476 166.886C511.416 166.682 511.302 166.523 511.134 166.409C510.966 166.289 510.783 166.229 510.585 166.229C510.405 166.229 510.258 166.268 510.144 166.346C510.036 166.418 509.982 166.517 509.982 166.643C509.982 166.781 510.048 166.883 510.18 166.949C510.318 167.015 510.54 167.087 510.846 167.165C511.176 167.237 511.449 167.318 511.665 167.408C511.887 167.498 512.076 167.645 512.232 167.849C512.394 168.047 512.475 168.317 512.475 168.659C512.475 168.917 512.4 169.154 512.25 169.37C512.106 169.586 511.902 169.757 511.638 169.883C511.374 170.009 511.071 170.072 510.729 170.072ZM515.923 169.955C515.707 170.033 515.464 170.072 515.194 170.072C514.714 170.072 514.327 169.94 514.033 169.676C513.739 169.412 513.592 169.025 513.592 168.515V166.418H512.827V165.464H513.592V164.132H514.726V165.464H515.869V166.418H514.726V168.407C514.726 168.617 514.777 168.782 514.879 168.902C514.987 169.016 515.131 169.073 515.311 169.073C515.521 169.073 515.698 169.037 515.842 168.965L515.923 169.955ZM516.372 167.732C516.372 167.324 516.456 166.943 516.624 166.589C516.798 166.229 517.053 165.941 517.389 165.725C517.725 165.503 518.133 165.392 518.613 165.392C519.099 165.392 519.513 165.497 519.855 165.707C520.197 165.917 520.455 166.19 520.629 166.526C520.803 166.862 520.89 167.213 520.89 167.579C520.89 167.759 520.884 167.909 520.872 168.029H517.506C517.554 168.371 517.683 168.638 517.893 168.83C518.103 169.022 518.37 169.118 518.694 169.118C518.958 169.118 519.18 169.058 519.36 168.938C519.54 168.818 519.66 168.647 519.72 168.425L520.782 168.713C520.656 169.139 520.407 169.472 520.035 169.712C519.663 169.952 519.21 170.072 518.676 170.072C518.196 170.072 517.782 169.964 517.434 169.748C517.086 169.526 516.822 169.235 516.642 168.875C516.462 168.515 516.372 168.134 516.372 167.732ZM519.675 167.201C519.645 166.919 519.54 166.691 519.36 166.517C519.18 166.343 518.931 166.256 518.613 166.256C518.331 166.256 518.094 166.337 517.902 166.499C517.716 166.661 517.593 166.895 517.533 167.201H519.675ZM523.665 170.072C523.221 170.072 522.834 169.976 522.504 169.784C522.18 169.586 521.931 169.31 521.757 168.956C521.589 168.602 521.505 168.194 521.505 167.732C521.505 167.27 521.589 166.862 521.757 166.508C521.931 166.154 522.18 165.881 522.504 165.689C522.828 165.491 523.209 165.392 523.647 165.392C523.923 165.392 524.178 165.446 524.412 165.554C524.646 165.656 524.829 165.794 524.961 165.968V163.628H526.095V170H524.961V169.478C524.847 169.658 524.673 169.802 524.439 169.91C524.205 170.018 523.947 170.072 523.665 170.072ZM522.63 167.732C522.63 168.14 522.738 168.47 522.954 168.722C523.176 168.968 523.467 169.091 523.827 169.091C524.193 169.091 524.484 168.968 524.7 168.722C524.922 168.47 525.033 168.14 525.033 167.732C525.033 167.324 524.922 166.997 524.7 166.751C524.484 166.499 524.193 166.373 523.827 166.373C523.467 166.373 523.176 166.499 522.954 166.751C522.738 166.997 522.63 167.324 522.63 167.732ZM529.36 165.464H530.494V165.986C530.626 165.806 530.809 165.662 531.043 165.554C531.283 165.446 531.55 165.392 531.844 165.392C532.27 165.392 532.642 165.491 532.96 165.689C533.278 165.881 533.521 166.154 533.689 166.508C533.863 166.862 533.95 167.27 533.95 167.732C533.95 168.194 533.86 168.602 533.68 168.956C533.5 169.31 533.245 169.586 532.915 169.784C532.585 169.976 532.201 170.072 531.763 170.072C531.499 170.072 531.253 170.027 531.025 169.937C530.803 169.841 530.626 169.712 530.494 169.55V171.638H529.36V165.464ZM530.422 167.732C530.422 168.14 530.53 168.47 530.746 168.722C530.968 168.968 531.262 169.091 531.628 169.091C531.988 169.091 532.276 168.968 532.492 168.722C532.714 168.47 532.825 168.14 532.825 167.732C532.825 167.324 532.714 166.997 532.492 166.751C532.276 166.499 531.988 166.373 531.628 166.373C531.262 166.373 530.968 166.499 530.746 166.751C530.53 166.997 530.422 167.324 530.422 167.732ZM537.734 166.562C537.572 166.49 537.38 166.454 537.158 166.454C536.81 166.454 536.519 166.61 536.285 166.922C536.057 167.228 535.943 167.699 535.943 168.335V170H534.809V165.464H535.943V166.292C536.057 166.034 536.243 165.821 536.501 165.653C536.765 165.479 537.035 165.392 537.311 165.392C537.497 165.392 537.662 165.416 537.806 165.464L537.734 166.562ZM538.465 165.464H539.599V170H538.465V165.464ZM539.032 164.771C538.828 164.771 538.66 164.705 538.528 164.573C538.396 164.435 538.33 164.267 538.33 164.069C538.33 163.871 538.396 163.706 538.528 163.574C538.666 163.442 538.834 163.376 539.032 163.376C539.236 163.376 539.407 163.445 539.545 163.583C539.683 163.715 539.752 163.877 539.752 164.069C539.752 164.267 539.683 164.435 539.545 164.573C539.407 164.705 539.236 164.771 539.032 164.771ZM542.758 170.072C542.308 170.072 541.909 169.973 541.561 169.775C541.213 169.577 540.94 169.301 540.742 168.947C540.55 168.593 540.454 168.188 540.454 167.732C540.454 167.276 540.55 166.871 540.742 166.517C540.94 166.163 541.213 165.887 541.561 165.689C541.909 165.491 542.308 165.392 542.758 165.392C543.34 165.392 543.82 165.533 544.198 165.815C544.582 166.097 544.813 166.478 544.891 166.958L543.784 167.174C543.742 166.934 543.631 166.742 543.451 166.598C543.277 166.448 543.058 166.373 542.794 166.373C542.44 166.373 542.158 166.496 541.948 166.742C541.738 166.988 541.633 167.318 541.633 167.732C541.633 168.146 541.738 168.476 541.948 168.722C542.158 168.968 542.44 169.091 542.794 169.091C543.058 169.091 543.274 169.025 543.442 168.893C543.616 168.755 543.73 168.563 543.784 168.317L544.891 168.542C544.807 169.016 544.573 169.391 544.189 169.667C543.811 169.937 543.334 170.072 542.758 170.072ZM545.499 167.732C545.499 167.324 545.583 166.943 545.751 166.589C545.925 166.229 546.18 165.941 546.516 165.725C546.852 165.503 547.26 165.392 547.74 165.392C548.226 165.392 548.64 165.497 548.982 165.707C549.324 165.917 549.582 166.19 549.756 166.526C549.93 166.862 550.017 167.213 550.017 167.579C550.017 167.759 550.011 167.909 549.999 168.029H546.633C546.681 168.371 546.81 168.638 547.02 168.83C547.23 169.022 547.497 169.118 547.821 169.118C548.085 169.118 548.307 169.058 548.487 168.938C548.667 168.818 548.787 168.647 548.847 168.425L549.909 168.713C549.783 169.139 549.534 169.472 549.162 169.712C548.79 169.952 548.337 170.072 547.803 170.072C547.323 170.072 546.909 169.964 546.561 169.748C546.213 169.526 545.949 169.235 545.769 168.875C545.589 168.515 545.499 168.134 545.499 167.732ZM548.802 167.201C548.772 166.919 548.667 166.691 548.487 166.517C548.307 166.343 548.058 166.256 547.74 166.256C547.458 166.256 547.221 166.337 547.029 166.499C546.843 166.661 546.72 166.895 546.66 167.201H548.802Z" fill="#2B266D"/>
<path d="M611.712 373H519" stroke="#2B266D" stroke-width="2" stroke-miterlimit="10" stroke-linecap="round"/>
</svg>
