<svg width="800" height="400" viewBox="0 0 800 400" fill="none" xmlns="http://www.w3.org/2000/svg">
<rect x="160.555" y="97.5442" width="439.308" height="54.2775" rx="27.1387" fill="#2B266D"/>
<rect x="170.73" y="99.2404" width="427.435" height="49.1889" rx="24.5945" fill="white" stroke="#2B266D" stroke-width="3.39234"/>
<rect x="209.744" y="114.502" width="139.086" height="20.354" rx="10.177" fill="#B8B4F5"/>
<rect x="360.279" y="114.502" width="167.921" height="20.354" rx="10.177" fill="#5ED7B1"/>
<rect x="539.649" y="114.502" width="27.1387" height="20.354" rx="10.177" fill="#B8B4F5"/>
<path d="M559.733 173.936L542.69 180.979L557.381 202.484C557.627 202.833 557.536 203.324 557.174 203.557L538.051 216.584C537.702 216.83 537.211 216.739 536.978 216.377L522.429 195.066L509.792 208.507C509.133 209.218 507.944 208.843 507.802 207.874L498.654 143.293C498.318 141.187 500.566 139.623 502.414 140.683L559.849 171.855C560.702 172.32 560.637 173.574 559.733 173.936Z" fill="white" stroke="#2B266D" stroke-width="3.39234" stroke-miterlimit="10"/>
<path d="M372.891 131.711V130.246C371.151 129.941 369.808 128.643 369.579 126.964L371.426 126.399C371.594 127.681 372.586 128.551 373.777 128.551C374.891 128.551 375.624 128.017 375.624 127.208C375.624 124.903 369.96 126.201 369.96 122.323C369.96 120.827 371.181 119.713 372.891 119.453V117.988H374.601V119.468C376.173 119.743 377.349 120.735 377.639 122.094L375.776 122.857C375.563 121.819 374.784 121.163 373.67 121.163C372.647 121.163 372.021 121.606 372.021 122.323C372.021 124.262 377.73 122.827 377.73 127.162C377.73 128.811 376.509 129.986 374.601 130.261V131.727L372.891 131.711ZM387.058 122.231L385.639 126.078H388.478L387.058 122.231ZM381.975 130.2L386.081 119.514H388.02L392.127 130.2H389.989L389.119 127.834H384.982L384.112 130.2H381.975ZM393.147 130.2V119.514H395.223V130.2H393.147ZM396.636 126.613V124.964H401.552V126.613H396.636ZM405.582 130.322C403.719 130.322 402.605 129.177 402.223 128.048L403.796 127.406C404.025 128.185 404.62 128.826 405.582 128.826C406.299 128.826 406.772 128.445 406.772 127.956C406.772 126.506 402.574 127.452 402.574 124.537C402.574 123.331 403.628 122.384 405.307 122.384C406.803 122.384 408.07 123.147 408.406 124.262L406.849 124.918C406.635 124.185 405.963 123.804 405.337 123.804C404.727 123.804 404.315 124.063 404.315 124.506C404.315 125.865 408.543 124.781 408.543 127.926C408.543 129.254 407.353 130.322 405.582 130.322ZM417.106 122.506V130.2H415.183V129.04C414.694 129.788 413.824 130.322 412.74 130.322C411.061 130.322 409.931 129.223 409.931 127.544V122.506H411.855V127.086C411.855 127.987 412.42 128.612 413.32 128.612C414.496 128.612 415.183 127.605 415.183 125.88V122.506H417.106ZM422.141 129.971C419.881 129.971 418.553 128.445 418.553 126.185C418.553 123.911 419.881 122.384 422.095 122.384C423.041 122.384 423.835 122.75 424.263 123.285V122.506H426.171V129.712C426.171 131.742 424.644 133.101 422.354 133.101C420.553 133.101 419.103 132.139 418.843 130.704L420.629 130.414C420.721 131.131 421.454 131.559 422.354 131.559C423.515 131.559 424.278 130.902 424.278 129.91V129.07C423.896 129.62 423.057 129.971 422.141 129.971ZM420.462 126.185C420.462 127.468 421.24 128.307 422.416 128.307C423.606 128.307 424.385 127.468 424.385 126.185C424.385 124.888 423.606 124.048 422.416 124.048C421.24 124.048 420.462 124.888 420.462 126.185ZM431.22 129.971C428.96 129.971 427.632 128.445 427.632 126.185C427.632 123.911 428.96 122.384 431.174 122.384C432.12 122.384 432.914 122.75 433.341 123.285V122.506H435.25V129.712C435.25 131.742 433.723 133.101 431.433 133.101C429.632 133.101 428.182 132.139 427.922 130.704L429.708 130.414C429.8 131.131 430.533 131.559 431.433 131.559C432.593 131.559 433.357 130.902 433.357 129.91V129.07C432.975 129.62 432.136 129.971 431.22 129.971ZM429.54 126.185C429.54 127.468 430.319 128.307 431.494 128.307C432.685 128.307 433.464 127.468 433.464 126.185C433.464 124.888 432.685 124.048 431.494 124.048C430.319 124.048 429.54 124.888 429.54 126.185ZM436.711 126.353C436.711 124.353 437.963 122.384 440.512 122.384C443.107 122.384 444.374 124.308 444.374 126.094C444.374 126.368 444.359 126.704 444.344 126.857H438.634C438.802 128.017 439.55 128.704 440.65 128.704C441.55 128.704 442.191 128.277 442.39 127.529L444.191 128.017C443.764 129.467 442.42 130.322 440.619 130.322C438.07 130.322 436.711 128.353 436.711 126.353ZM438.68 125.452H442.313C442.222 124.537 441.627 123.85 440.512 123.85C439.566 123.85 438.894 124.414 438.68 125.452ZM448.441 130.322C446.579 130.322 445.465 129.177 445.083 128.048L446.655 127.406C446.884 128.185 447.48 128.826 448.441 128.826C449.159 128.826 449.632 128.445 449.632 127.956C449.632 126.506 445.434 127.452 445.434 124.537C445.434 123.331 446.488 122.384 448.167 122.384C449.663 122.384 450.93 123.147 451.266 124.262L449.709 124.918C449.495 124.185 448.823 123.804 448.197 123.804C447.587 123.804 447.174 124.063 447.174 124.506C447.174 125.865 451.403 124.781 451.403 127.926C451.403 129.254 450.212 130.322 448.441 130.322ZM457.251 130.124C456.87 130.261 456.457 130.322 456.015 130.322C454.458 130.322 453.297 129.483 453.297 127.681V124.124H452V122.506H453.297V120.247H455.221V122.506H457.16V124.124H455.221V127.498C455.221 128.231 455.618 128.628 456.213 128.628C456.503 128.628 456.839 128.582 457.114 128.445L457.251 130.124ZM458.014 126.353C458.014 124.353 459.266 122.384 461.815 122.384C464.41 122.384 465.677 124.308 465.677 126.094C465.677 126.368 465.662 126.704 465.647 126.857H459.938C460.106 128.017 460.854 128.704 461.953 128.704C462.853 128.704 463.495 128.277 463.693 127.529L465.494 128.017C465.067 129.467 463.723 130.322 461.922 130.322C459.373 130.322 458.014 128.353 458.014 126.353ZM459.983 125.452H463.617C463.525 124.537 462.93 123.85 461.815 123.85C460.869 123.85 460.197 124.414 459.983 125.452ZM470.384 130.322C468.079 130.322 466.72 128.704 466.72 126.353C466.72 124.002 468.079 122.384 470.353 122.384C471.315 122.384 472.14 122.781 472.582 123.361V119.392H474.506V130.2H472.582V129.315C472.201 129.925 471.346 130.322 470.384 130.322ZM468.628 126.353C468.628 127.742 469.438 128.658 470.659 128.658C471.895 128.658 472.704 127.742 472.704 126.353C472.704 124.964 471.895 124.048 470.659 124.048C469.438 124.048 468.628 124.964 468.628 126.353ZM480.043 132.978V122.506H481.966V123.392C482.393 122.796 483.233 122.384 484.256 122.384C486.469 122.384 487.828 124.002 487.828 126.353C487.828 128.704 486.378 130.322 484.118 130.322C483.233 130.322 482.409 129.986 481.966 129.437V132.978H480.043ZM481.844 126.353C481.844 127.742 482.653 128.658 483.889 128.658C485.111 128.658 485.92 127.742 485.92 126.353C485.92 124.964 485.111 124.048 483.889 124.048C482.653 124.048 481.844 124.964 481.844 126.353ZM494.247 124.369C493.972 124.247 493.606 124.185 493.27 124.185C492.186 124.185 491.209 125.086 491.209 127.376V130.2H489.285V122.506H491.209V123.911C491.59 123.041 492.598 122.384 493.529 122.384C493.804 122.384 494.14 122.43 494.369 122.506L494.247 124.369ZM495.487 130.2V122.506H497.41V130.2H495.487ZM495.258 120.14C495.258 119.484 495.762 118.965 496.449 118.965C497.151 118.965 497.67 119.484 497.67 120.14C497.67 120.812 497.151 121.331 496.449 121.331C495.762 121.331 495.258 120.812 495.258 120.14ZM502.769 130.322C500.464 130.322 498.861 128.704 498.861 126.353C498.861 124.002 500.464 122.384 502.769 122.384C504.739 122.384 506.128 123.407 506.387 125.04L504.51 125.407C504.372 124.598 503.731 124.048 502.83 124.048C501.64 124.048 500.861 124.949 500.861 126.353C500.861 127.758 501.64 128.658 502.83 128.658C503.731 128.658 504.326 128.17 504.51 127.345L506.387 127.727C506.097 129.345 504.708 130.322 502.769 130.322ZM507.418 126.353C507.418 124.353 508.67 122.384 511.22 122.384C513.815 122.384 515.082 124.308 515.082 126.094C515.082 126.368 515.066 126.704 515.051 126.857H509.342C509.51 128.017 510.258 128.704 511.357 128.704C512.258 128.704 512.899 128.277 513.097 127.529L514.899 128.017C514.471 129.467 513.128 130.322 511.326 130.322C508.777 130.322 507.418 128.353 507.418 126.353ZM509.388 125.452H513.021C512.929 124.537 512.334 123.85 511.22 123.85C510.273 123.85 509.601 124.414 509.388 125.452Z" fill="#2B266D"/>
<path d="M581.099 341.803H490.095" stroke="#2B266D" stroke-width="2.6263" stroke-miterlimit="10" stroke-linecap="round"/>
<path d="M610.86 110.645L638.616 123.333" stroke="#2B266D" stroke-width="3.15156" stroke-miterlimit="10" stroke-linecap="round"/>
<path d="M611.407 95.5505L640 84.9025" stroke="#2B266D" stroke-width="3.15156" stroke-miterlimit="10" stroke-linecap="round"/>
<path d="M586.025 83.9573L575.377 55.3643" stroke="#2B266D" stroke-width="3.15156" stroke-miterlimit="10" stroke-linecap="round"/>
<path d="M601.117 84.4968L613.806 56.7416" stroke="#2B266D" stroke-width="3.15156" stroke-miterlimit="10" stroke-linecap="round"/>
<path d="M409.522 277.963L346.406 341.079C341.354 346.131 333.163 346.131 328.111 341.079L254.837 267.751C253.301 266.216 252.223 264.276 251.738 262.16L240.098 197.589C238.805 190.382 239.788 182.797 246.726 175.873L247.535 176.398C252.721 171.211 258.878 170.309 266.086 171.615L330.657 183.255C332.772 183.74 334.712 184.818 336.248 186.354L409.522 259.682C414.574 264.734 414.574 272.925 409.522 277.977V277.963Z" fill="#2B266D"/>
<path d="M412.337 273.289L349.221 336.405C344.169 341.457 335.978 341.457 330.926 336.405L258.554 264.033C257.018 262.498 255.941 260.558 255.456 258.443L243.816 193.871C242.523 186.664 244.826 179.268 250.013 174.081C255.2 168.894 262.582 166.591 269.803 167.884L334.374 179.524C336.49 180.009 338.429 181.087 339.965 182.622L412.337 254.994C417.389 260.046 417.389 268.237 412.337 273.289Z" fill="white" stroke="#2B266D" stroke-width="2.6263" stroke-miterlimit="10"/>
<path d="M347.275 262.196C345.041 259.961 342.765 258.76 340.463 258.607C338.162 258.453 335.033 259.153 331.107 260.707C321.779 264.71 314.228 266.882 308.439 267.18C302.664 267.492 297.135 264.992 291.838 259.695C287.051 254.908 284.717 249.352 284.849 243.039C284.968 236.713 287.457 230.609 292.317 224.728L283.351 215.761L290.099 209.013L299.231 218.145C305.044 213.795 311.175 211.857 317.599 212.358C324.022 212.833 329.869 215.815 335.139 221.25L335.263 221.539L321.23 235.572C318.14 232.482 315.244 230.771 312.556 230.451C309.854 230.118 307.512 230.943 305.529 232.926C303.546 234.909 302.652 237.045 302.943 239.237C303.22 241.442 304.325 243.511 306.256 245.442C308.188 247.373 310.311 248.478 312.558 248.659C314.805 248.84 317.974 248.153 322.039 246.572C331.394 242.817 339.015 240.798 344.886 240.499C350.757 240.201 356.287 242.646 361.473 247.833C366.66 253.02 368.829 258.273 368.724 264.365C368.633 270.471 366.239 276.395 361.544 282.166L370.083 290.706L363.336 297.453L354.755 288.873C348.736 293.816 342.26 296.457 335.355 296.768C328.436 297.093 321.845 294 315.596 287.53L315.472 287.158L329.422 273.207C332.94 276.725 336.222 278.492 339.295 278.509C342.369 278.525 345.124 277.314 347.548 274.891C349.586 272.853 350.536 270.717 350.396 268.484C350.256 266.251 349.221 264.169 347.289 262.238L347.275 262.196Z" fill="#36318C"/>
<path d="M267.201 200.785C272.454 200.785 276.712 196.527 276.712 191.274C276.712 186.021 272.454 181.763 267.201 181.763C261.948 181.763 257.689 186.021 257.689 191.274C257.689 196.527 261.948 200.785 267.201 200.785Z" fill="#2B266D" stroke="#2B266D" stroke-width="2.6263" stroke-miterlimit="10"/>
<path d="M242.627 187.094C234.748 177.246 228.182 166.74 226.559 149.674M272.173 187.094C284.648 167.395 292.526 128.65 287.274 107.644C280.972 82.4422 243.94 82.2767 234.091 98.4503" stroke="#2B266D" stroke-width="3.93945"/>
</svg>
