<svg width="800" height="400" viewBox="0 0 800 400" fill="none" xmlns="http://www.w3.org/2000/svg">
<rect x="201.212" y="38.2118" width="281.771" height="328.18" rx="16.5747" fill="#2B266D"/>
<path d="M178.406 373C175.398 373 173.945 369.316 176.144 367.262L204.379 340.892C204.993 340.319 205.802 340 206.642 340H557.446C558.225 340 558.979 340.275 559.576 340.775L591.019 367.145C593.39 369.134 591.984 373 588.889 373H178.406Z" fill="#2B266D"/>
<rect x="208.842" y="39.2118" width="279.771" height="332.81" rx="15.5747" fill="white" stroke="#2B266D" stroke-width="2"/>
<rect x="375.388" y="131" width="83" height="8" rx="4" fill="#D5D4D2"/>
<rect x="375.388" y="149" width="94" height="8" rx="4" fill="#D5D4D2"/>
<rect x="375.388" y="167" width="68" height="8" rx="4" fill="#D5D4D2"/>
<rect x="241" y="213" width="208" height="8" rx="4" fill="#D5D4D2"/>
<rect x="241" y="231" width="223" height="8" rx="4" fill="#D5D4D2"/>
<rect x="241" y="249" width="176" height="8" rx="4" fill="#D5D4D2"/>
<path d="M243.437 71.7574H251.825C253.213 71.7574 254.432 72.0251 255.483 72.5605C256.534 73.0761 257.337 73.8196 257.892 74.7913C258.468 75.7431 258.755 76.8535 258.755 78.1225C258.755 79.3916 258.468 80.502 257.892 81.4538C257.337 82.4056 256.534 83.1492 255.483 83.6846C254.432 84.2001 253.213 84.4579 251.825 84.4579H247.482V92.5779H243.437V71.7574ZM251.468 80.9779C252.479 80.9779 253.272 80.7301 253.847 80.2343C254.422 79.7188 254.71 79.0148 254.71 78.1225C254.71 77.2104 254.422 76.5065 253.847 76.0108C253.272 75.4952 252.479 75.2374 251.468 75.2374H247.482V80.9779H251.468ZM261.3 71.7574H269.331C271.373 71.7574 272.999 72.3226 274.209 73.4528C275.438 74.5632 276.053 76.0504 276.053 77.9143C276.053 79.0842 275.765 80.1451 275.19 81.0969C274.615 82.0289 273.812 82.7526 272.781 83.2682L278.313 92.5779H273.584L268.676 84.0415H265.375V92.5779H261.33L261.3 71.7574ZM268.706 80.5615C269.737 80.5615 270.54 80.3335 271.115 79.8774C271.69 79.4015 271.978 78.7472 271.978 77.9143C271.978 77.0815 271.69 76.4272 271.115 75.9513C270.54 75.4754 269.737 75.2374 268.706 75.2374H265.375V80.5615H268.706ZM289.178 92.8158C287.175 92.8158 285.371 92.3598 283.765 91.4476C282.159 90.5157 280.899 89.2466 279.987 87.6405C279.075 86.0145 278.619 84.1902 278.619 82.1677C278.619 80.1451 279.075 78.3307 279.987 76.7246C280.899 75.0986 282.159 73.8296 283.765 72.9174C285.371 71.9855 287.175 71.5195 289.178 71.5195C291.181 71.5195 292.975 71.9855 294.562 72.9174C296.168 73.8296 297.427 75.0986 298.339 76.7246C299.251 78.3307 299.707 80.1451 299.707 82.1677C299.707 84.1902 299.251 86.0145 298.339 87.6405C297.427 89.2466 296.168 90.5157 294.562 91.4476C292.975 92.3598 291.181 92.8158 289.178 92.8158ZM282.694 82.1677C282.694 83.5359 282.972 84.7653 283.527 85.8559C284.082 86.9266 284.845 87.7693 285.817 88.384C286.808 88.9987 287.929 89.3061 289.178 89.3061C290.427 89.3061 291.538 88.9987 292.509 88.384C293.481 87.7693 294.244 86.9266 294.8 85.8559C295.355 84.7653 295.632 83.5359 295.632 82.1677C295.632 80.7995 295.355 79.5701 294.8 78.4795C294.244 77.3889 293.481 76.5362 292.509 75.9215C291.538 75.3068 290.427 74.9995 289.178 74.9995C287.929 74.9995 286.808 75.3068 285.817 75.9215C284.845 76.5362 284.082 77.3889 283.527 78.4795C282.972 79.5701 282.694 80.7995 282.694 82.1677ZM302.75 71.7574H311.138C312.526 71.7574 313.745 72.0251 314.796 72.5605C315.847 73.0761 316.65 73.8196 317.205 74.7913C317.78 75.7431 318.068 76.8535 318.068 78.1225C318.068 79.3916 317.78 80.502 317.205 81.4538C316.65 82.4056 315.847 83.1492 314.796 83.6846C313.745 84.2001 312.526 84.4579 311.138 84.4579H306.795V92.5779H302.75V71.7574ZM310.781 80.9779C311.792 80.9779 312.585 80.7301 313.16 80.2343C313.735 79.7188 314.023 79.0148 314.023 78.1225C314.023 77.2104 313.735 76.5065 313.16 76.0108C312.585 75.4952 311.792 75.2374 310.781 75.2374H306.795V80.9779H310.781ZM330.25 92.8158C328.247 92.8158 326.442 92.3598 324.836 91.4476C323.23 90.5157 321.971 89.2466 321.059 87.6405C320.147 86.0145 319.691 84.1902 319.691 82.1677C319.691 80.1451 320.147 78.3307 321.059 76.7246C321.971 75.0986 323.23 73.8296 324.836 72.9174C326.442 71.9855 328.247 71.5195 330.25 71.5195C332.252 71.5195 334.047 71.9855 335.633 72.9174C337.239 73.8296 338.498 75.0986 339.411 76.7246C340.323 78.3307 340.779 80.1451 340.779 82.1677C340.779 84.1902 340.323 86.0145 339.411 87.6405C338.498 89.2466 337.239 90.5157 335.633 91.4476C334.047 92.3598 332.252 92.8158 330.25 92.8158ZM323.766 82.1677C323.766 83.5359 324.043 84.7653 324.598 85.8559C325.154 86.9266 325.917 87.7693 326.889 88.384C327.88 88.9987 329 89.3061 330.25 89.3061C331.499 89.3061 332.609 88.9987 333.581 88.384C334.552 87.7693 335.316 86.9266 335.871 85.8559C336.426 84.7653 336.704 83.5359 336.704 82.1677C336.704 80.7995 336.426 79.5701 335.871 78.4795C335.316 77.3889 334.552 76.5362 333.581 75.9215C332.609 75.3068 331.499 74.9995 330.25 74.9995C329 74.9995 327.88 75.3068 326.889 75.9215C325.917 76.5362 325.154 77.3889 324.598 78.4795C324.043 79.5701 323.766 80.7995 323.766 82.1677ZM350.633 92.8158C349.284 92.8158 348.025 92.5382 346.855 91.983C345.685 91.408 344.724 90.6247 343.97 89.6333C343.217 88.6418 342.761 87.5215 342.602 86.2723L346.201 85.1717C346.36 86.4011 346.865 87.4124 347.718 88.2056C348.59 88.9789 349.612 89.3656 350.781 89.3656C351.872 89.3656 352.745 89.1276 353.399 88.6517C354.053 88.1758 354.38 87.5413 354.38 86.7482C354.38 86.1335 354.182 85.6278 353.786 85.2312C353.409 84.8347 352.923 84.5174 352.328 84.2794C351.733 84.0415 350.93 83.7738 349.919 83.4764C348.531 83.06 347.401 82.6535 346.528 82.2569C345.656 81.8405 344.902 81.2258 344.268 80.4128C343.653 79.5998 343.346 78.5389 343.346 77.2302C343.346 76.1396 343.663 75.1581 344.297 74.2856C344.932 73.4132 345.794 72.739 346.885 72.2631C347.995 71.7673 349.225 71.5195 350.573 71.5195C351.882 71.5195 353.082 71.7376 354.172 72.1738C355.263 72.6101 356.165 73.2347 356.879 74.0477C357.613 74.8408 358.088 75.753 358.307 76.7841L354.678 78.2713C354.46 77.26 353.984 76.4569 353.25 75.862C352.536 75.2672 351.644 74.9697 350.573 74.9697C349.582 74.9697 348.799 75.1779 348.223 75.5943C347.648 75.9909 347.361 76.5362 347.361 77.2302C347.361 77.7061 347.529 78.0928 347.867 78.3902C348.204 78.6877 348.62 78.9256 349.116 79.1041C349.612 79.2825 350.335 79.5007 351.287 79.7584C352.754 80.1154 353.974 80.5119 354.946 80.9482C355.917 81.3646 356.75 82.0289 357.444 82.941C358.138 83.8531 358.485 85.0924 358.485 86.6589C358.485 87.8685 358.158 88.9393 357.503 89.8712C356.849 90.8032 355.927 91.5269 354.737 92.0425C353.548 92.5581 352.179 92.8158 350.633 92.8158ZM366.574 84.5471H372.106L369.34 77.0518L366.574 84.5471ZM367.437 71.7574H371.214L379.215 92.5779H375.051L373.356 87.9676H365.295L363.6 92.5779H359.436L367.437 71.7574ZM381.203 71.7574H385.249V89.0681H394.915V92.5779H381.203V71.7574Z" fill="#2B266D"/>
<path d="M242.434 308.55C241.757 308.55 241.124 308.411 240.536 308.132C239.949 307.843 239.465 307.449 239.087 306.951C238.708 306.453 238.479 305.89 238.399 305.263L240.208 304.71C240.287 305.327 240.541 305.835 240.97 306.234C241.408 306.622 241.921 306.817 242.509 306.817C243.057 306.817 243.495 306.697 243.824 306.458C244.153 306.219 244.317 305.9 244.317 305.502C244.317 305.193 244.218 304.939 244.018 304.739C243.829 304.54 243.585 304.381 243.286 304.261C242.987 304.142 242.584 304.007 242.076 303.858C241.378 303.648 240.81 303.444 240.372 303.245C239.934 303.036 239.555 302.727 239.236 302.318C238.927 301.91 238.773 301.377 238.773 300.719C238.773 300.171 238.932 299.678 239.251 299.24C239.57 298.801 240.003 298.463 240.551 298.224C241.109 297.975 241.727 297.85 242.404 297.85C243.062 297.85 243.665 297.96 244.213 298.179C244.761 298.398 245.214 298.712 245.573 299.12C245.941 299.519 246.18 299.977 246.29 300.495L244.467 301.242C244.357 300.734 244.118 300.331 243.749 300.032C243.391 299.733 242.942 299.584 242.404 299.584C241.906 299.584 241.513 299.688 241.224 299.897C240.935 300.097 240.79 300.371 240.79 300.719C240.79 300.958 240.875 301.153 241.045 301.302C241.214 301.452 241.423 301.571 241.672 301.661C241.921 301.751 242.285 301.86 242.763 301.99C243.5 302.169 244.113 302.368 244.601 302.587C245.09 302.797 245.508 303.13 245.857 303.589C246.205 304.047 246.38 304.67 246.38 305.457C246.38 306.065 246.215 306.603 245.887 307.071C245.558 307.539 245.095 307.903 244.497 308.162C243.899 308.421 243.211 308.55 242.434 308.55ZM247.752 300.899H249.635V308.431H247.752V300.899ZM248.693 299.748C248.355 299.748 248.076 299.638 247.857 299.419C247.637 299.19 247.528 298.911 247.528 298.582C247.528 298.253 247.637 297.979 247.857 297.76C248.086 297.541 248.365 297.432 248.693 297.432C249.032 297.432 249.316 297.546 249.545 297.775C249.774 297.994 249.889 298.263 249.889 298.582C249.889 298.911 249.774 299.19 249.545 299.419C249.316 299.638 249.032 299.748 248.693 299.748ZM254.567 308.207C253.471 308.207 252.61 307.868 251.982 307.19C251.364 306.513 251.055 305.616 251.055 304.5C251.055 303.763 251.195 303.115 251.474 302.558C251.753 301.99 252.151 301.551 252.669 301.242C253.197 300.934 253.815 300.779 254.523 300.779C254.971 300.779 255.379 300.859 255.748 301.018C256.127 301.178 256.426 301.392 256.645 301.661V300.899H258.513V307.953C258.513 308.61 258.358 309.188 258.05 309.686C257.741 310.194 257.302 310.583 256.734 310.852C256.167 311.131 255.514 311.27 254.777 311.27C253.89 311.27 253.128 311.051 252.49 310.613C251.852 310.184 251.469 309.621 251.339 308.924L253.088 308.64C253.128 308.989 253.307 309.263 253.626 309.462C253.945 309.661 254.328 309.761 254.777 309.761C255.345 309.761 255.798 309.611 256.137 309.313C256.485 309.024 256.66 308.635 256.66 308.147V307.325C256.47 307.594 256.186 307.808 255.808 307.968C255.429 308.127 255.016 308.207 254.567 308.207ZM252.924 304.5C252.924 305.128 253.098 305.631 253.447 306.01C253.795 306.388 254.259 306.578 254.836 306.578C255.414 306.578 255.878 306.388 256.226 306.01C256.585 305.631 256.764 305.128 256.764 304.5C256.764 303.863 256.59 303.355 256.241 302.976C255.893 302.597 255.424 302.408 254.836 302.408C254.259 302.408 253.795 302.597 253.447 302.976C253.098 303.355 252.924 303.863 252.924 304.5ZM260.347 300.899H262.23V302.034C262.479 301.656 262.808 301.352 263.216 301.123C263.635 300.894 264.103 300.779 264.621 300.779C265.448 300.779 266.111 301.028 266.609 301.526C267.117 302.025 267.371 302.682 267.371 303.499V308.431H265.488V303.947C265.488 303.499 265.358 303.14 265.099 302.871C264.84 302.592 264.492 302.453 264.053 302.453C263.475 302.453 263.027 302.687 262.708 303.155C262.389 303.624 262.23 304.281 262.23 305.128V308.431H260.347V300.899ZM273.585 303.589C273.585 303.16 273.45 302.827 273.181 302.587C272.912 302.338 272.549 302.214 272.09 302.214C271.682 302.214 271.338 302.333 271.059 302.572C270.79 302.812 270.636 303.13 270.596 303.529L268.922 303.23C269.042 302.493 269.395 301.9 269.983 301.452C270.581 301.003 271.283 300.779 272.09 300.779C273.097 300.779 273.899 301.048 274.496 301.586C275.104 302.114 275.408 302.866 275.408 303.843V308.431H273.585V307.34C273.376 307.708 273.062 308.002 272.643 308.222C272.235 308.441 271.796 308.55 271.328 308.55C270.84 308.55 270.407 308.456 270.028 308.266C269.649 308.067 269.351 307.798 269.131 307.459C268.922 307.121 268.817 306.737 268.817 306.309C268.817 305.571 269.096 304.998 269.654 304.59C270.212 304.182 271.054 303.918 272.18 303.798L273.585 303.663V303.589ZM270.641 306.249C270.641 306.518 270.74 306.737 270.94 306.906C271.139 307.076 271.408 307.16 271.747 307.16C272.315 307.16 272.763 306.971 273.092 306.593C273.42 306.214 273.585 305.741 273.585 305.173V305.008L272.15 305.173C271.662 305.233 271.288 305.357 271.029 305.546C270.77 305.736 270.641 305.97 270.641 306.249ZM281.584 308.356C281.226 308.486 280.822 308.55 280.374 308.55C279.577 308.55 278.934 308.331 278.446 307.893C277.958 307.454 277.714 306.812 277.714 305.965V302.483H276.443V300.899H277.714V298.687H279.597V300.899H281.495V302.483H279.597V305.786C279.597 306.134 279.681 306.408 279.851 306.608C280.03 306.797 280.269 306.891 280.568 306.891C280.917 306.891 281.211 306.832 281.45 306.712L281.584 308.356ZM289.832 308.431H287.949V307.295C287.7 307.674 287.366 307.977 286.947 308.207C286.539 308.436 286.076 308.55 285.557 308.55C284.731 308.55 284.063 308.301 283.555 307.803C283.057 307.305 282.808 306.647 282.808 305.83V300.899H284.691V305.382C284.691 305.83 284.82 306.194 285.079 306.473C285.338 306.742 285.687 306.877 286.125 306.877C286.703 306.877 287.152 306.642 287.47 306.174C287.789 305.706 287.949 305.048 287.949 304.201V300.899H289.832V308.431ZM296.509 302.722C296.24 302.602 295.921 302.543 295.552 302.543C294.975 302.543 294.491 302.802 294.103 303.32C293.724 303.828 293.535 304.61 293.535 305.666V308.431H291.652V300.899H293.535V302.274C293.724 301.845 294.033 301.491 294.461 301.213C294.9 300.924 295.348 300.779 295.806 300.779C296.115 300.779 296.389 300.819 296.628 300.899L296.509 302.722ZM297.057 304.665C297.057 303.987 297.196 303.355 297.475 302.767C297.764 302.169 298.188 301.691 298.746 301.332C299.304 300.963 299.981 300.779 300.778 300.779C301.585 300.779 302.273 300.953 302.84 301.302C303.408 301.651 303.837 302.104 304.126 302.662C304.415 303.22 304.559 303.803 304.559 304.411C304.559 304.71 304.549 304.959 304.529 305.158H298.94C299.02 305.726 299.234 306.169 299.583 306.488C299.931 306.807 300.375 306.966 300.913 306.966C301.351 306.966 301.72 306.867 302.019 306.667C302.317 306.468 302.517 306.184 302.616 305.815L304.38 306.294C304.171 307.001 303.757 307.554 303.139 307.953C302.522 308.351 301.769 308.55 300.883 308.55C300.086 308.55 299.398 308.371 298.82 308.012C298.243 307.644 297.804 307.16 297.505 306.563C297.206 305.965 297.057 305.332 297.057 304.665ZM302.542 303.783C302.492 303.315 302.317 302.936 302.019 302.647C301.72 302.358 301.306 302.214 300.778 302.214C300.31 302.214 299.916 302.348 299.598 302.617C299.289 302.886 299.084 303.275 298.985 303.783H302.542ZM314.431 302.722C314.162 302.602 313.843 302.543 313.474 302.543C312.896 302.543 312.413 302.802 312.025 303.32C311.646 303.828 311.457 304.61 311.457 305.666V308.431H309.574V300.899H311.457V302.274C311.646 301.845 311.955 301.491 312.383 301.213C312.822 300.924 313.27 300.779 313.728 300.779C314.037 300.779 314.311 300.819 314.55 300.899L314.431 302.722ZM314.979 304.665C314.979 303.987 315.118 303.355 315.397 302.767C315.686 302.169 316.11 301.691 316.668 301.332C317.225 300.963 317.903 300.779 318.7 300.779C319.507 300.779 320.194 300.953 320.762 301.302C321.33 301.651 321.759 302.104 322.048 302.662C322.337 303.22 322.481 303.803 322.481 304.411C322.481 304.71 322.471 304.959 322.451 305.158H316.862C316.942 305.726 317.156 306.169 317.504 306.488C317.853 306.807 318.297 306.966 318.835 306.966C319.273 306.966 319.642 306.867 319.94 306.667C320.239 306.468 320.439 306.184 320.538 305.815L322.302 306.294C322.092 307.001 321.679 307.554 321.061 307.953C320.444 308.351 319.691 308.55 318.805 308.55C318.008 308.55 317.32 308.371 316.742 308.012C316.164 307.644 315.726 307.16 315.427 306.563C315.128 305.965 314.979 305.332 314.979 304.665ZM320.463 303.783C320.414 303.315 320.239 302.936 319.94 302.647C319.642 302.358 319.228 302.214 318.7 302.214C318.232 302.214 317.838 302.348 317.519 302.617C317.211 302.886 317.006 303.275 316.907 303.783H320.463ZM329.241 311.151V307.684C329.021 307.953 328.723 308.167 328.344 308.326C327.975 308.476 327.572 308.55 327.133 308.55C326.406 308.55 325.769 308.391 325.221 308.072C324.673 307.743 324.249 307.285 323.95 306.697C323.651 306.109 323.502 305.432 323.502 304.665C323.502 303.898 323.641 303.22 323.92 302.632C324.209 302.044 324.618 301.591 325.146 301.272C325.674 300.944 326.292 300.779 326.999 300.779C327.487 300.779 327.926 300.869 328.314 301.048C328.713 301.227 329.021 301.467 329.241 301.765V300.899H331.124V311.151H329.241ZM325.37 304.665C325.37 305.342 325.549 305.89 325.908 306.309C326.277 306.717 326.76 306.921 327.358 306.921C327.965 306.921 328.449 306.717 328.807 306.309C329.176 305.89 329.36 305.342 329.36 304.665C329.36 303.987 329.176 303.444 328.807 303.036C328.449 302.617 327.965 302.408 327.358 302.408C326.76 302.408 326.277 302.617 325.908 303.036C325.549 303.444 325.37 303.987 325.37 304.665ZM339.978 308.431H338.095V307.295C337.846 307.674 337.512 307.977 337.094 308.207C336.685 308.436 336.222 308.55 335.704 308.55C334.877 308.55 334.209 308.301 333.701 307.803C333.203 307.305 332.954 306.647 332.954 305.83V300.899H334.837V305.382C334.837 305.83 334.967 306.194 335.226 306.473C335.485 306.742 335.833 306.877 336.272 306.877C336.85 306.877 337.298 306.642 337.617 306.174C337.936 305.706 338.095 305.048 338.095 304.201V300.899H339.978V308.431ZM341.798 300.899H343.681V308.431H341.798V300.899ZM342.74 299.748C342.401 299.748 342.122 299.638 341.903 299.419C341.684 299.19 341.574 298.911 341.574 298.582C341.574 298.253 341.684 297.979 341.903 297.76C342.132 297.541 342.411 297.432 342.74 297.432C343.078 297.432 343.362 297.546 343.592 297.775C343.821 297.994 343.935 298.263 343.935 298.582C343.935 298.911 343.821 299.19 343.592 299.419C343.362 299.638 343.078 299.748 342.74 299.748ZM350.362 302.722C350.093 302.602 349.774 302.543 349.406 302.543C348.828 302.543 348.345 302.802 347.956 303.32C347.577 303.828 347.388 304.61 347.388 305.666V308.431H345.505V300.899H347.388V302.274C347.577 301.845 347.886 301.491 348.315 301.213C348.753 300.924 349.201 300.779 349.66 300.779C349.969 300.779 350.243 300.819 350.482 300.899L350.362 302.722ZM350.91 304.665C350.91 303.987 351.05 303.355 351.329 302.767C351.618 302.169 352.041 301.691 352.599 301.332C353.157 300.963 353.834 300.779 354.631 300.779C355.438 300.779 356.126 300.953 356.694 301.302C357.262 301.651 357.69 302.104 357.979 302.662C358.268 303.22 358.412 303.803 358.412 304.411C358.412 304.71 358.402 304.959 358.383 305.158H352.793C352.873 305.726 353.087 306.169 353.436 306.488C353.785 306.807 354.228 306.966 354.766 306.966C355.204 306.966 355.573 306.867 355.872 306.667C356.171 306.468 356.37 306.184 356.47 305.815L358.233 306.294C358.024 307.001 357.61 307.554 356.993 307.953C356.375 308.351 355.623 308.55 354.736 308.55C353.939 308.55 353.252 308.371 352.674 308.012C352.096 307.644 351.657 307.16 351.359 306.563C351.06 305.965 350.91 305.332 350.91 304.665ZM356.395 303.783C356.345 303.315 356.171 302.936 355.872 302.647C355.573 302.358 355.159 302.214 354.631 302.214C354.163 302.214 353.77 302.348 353.451 302.617C353.142 302.886 352.938 303.275 352.838 303.783H356.395ZM363.02 308.55C362.283 308.55 361.64 308.391 361.092 308.072C360.554 307.743 360.141 307.285 359.852 306.697C359.573 306.109 359.433 305.432 359.433 304.665C359.433 303.898 359.573 303.22 359.852 302.632C360.141 302.044 360.554 301.591 361.092 301.272C361.63 300.944 362.263 300.779 362.99 300.779C363.448 300.779 363.872 300.869 364.26 301.048C364.649 301.218 364.953 301.447 365.172 301.736V297.85H367.055V308.431H365.172V307.564C364.983 307.863 364.694 308.102 364.305 308.281C363.917 308.461 363.488 308.55 363.02 308.55ZM361.301 304.665C361.301 305.342 361.481 305.89 361.839 306.309C362.208 306.717 362.691 306.921 363.289 306.921C363.897 306.921 364.38 306.717 364.739 306.309C365.107 305.89 365.292 305.342 365.292 304.665C365.292 303.987 365.107 303.444 364.739 303.036C364.38 302.617 363.897 302.408 363.289 302.408C362.691 302.408 362.208 302.617 361.839 303.036C361.481 303.444 361.301 303.987 361.301 304.665Z" fill="#2B266D"/>
<path d="M239.304 332.023L242.935 326.374L239.842 321.562H240.888L243.458 325.567L246.044 321.562H247.09L243.981 326.374L247.613 332.023H246.567L243.458 327.196L240.35 332.023H239.304Z" fill="#2B266D"/>
<rect x="238" y="340" width="203" height="4" rx="2" fill="#9C96F0"/>
<path d="M354.335 127.331H245.185C243.117 127.331 241.439 129.008 241.439 131.077V189.193C241.439 191.262 243.117 192.939 245.185 192.939H354.335C356.403 192.939 358.081 191.262 358.081 189.193V131.077C358.081 129.008 356.403 127.331 354.335 127.331Z" fill="#FF5787" stroke="#FF5787" stroke-width="2.73182" stroke-miterlimit="10"/>
<path d="M299.763 175.761C308.39 175.761 315.384 168.767 315.384 160.14C315.384 151.513 308.39 144.52 299.763 144.52C291.136 144.52 284.142 151.513 284.142 160.14C284.142 168.767 291.136 175.761 299.763 175.761Z" fill="white" stroke="#FF5787" stroke-width="2.73182" stroke-miterlimit="10"/>
<path d="M306.598 159.561L296.102 153.505C295.662 153.252 295.099 153.57 295.099 154.084V166.204C295.099 166.718 295.654 167.036 296.102 166.783L306.598 160.728C307.039 160.475 307.039 159.83 306.598 159.569V159.561Z" fill="#2B266D"/>
<path d="M617.279 220.42L626.651 227.315" stroke="#2B266D" stroke-width="2" stroke-miterlimit="10" stroke-linecap="round" stroke-linejoin="round"/>
<path d="M618.661 214.829L630.162 213.083" stroke="#2B266D" stroke-width="2" stroke-miterlimit="10" stroke-linecap="round" stroke-linejoin="round"/>
<path d="M610.098 208.527L608.348 197.022" stroke="#2B266D" stroke-width="2" stroke-miterlimit="10" stroke-linecap="round" stroke-linejoin="round"/>
<path d="M615.684 209.905L622.584 200.533" stroke="#2B266D" stroke-width="2" stroke-miterlimit="10" stroke-linecap="round" stroke-linejoin="round"/>
<path d="M490.527 398.222H609.5" stroke="#2B266D" stroke-width="2" stroke-miterlimit="10" stroke-linejoin="round"/>
<path d="M493.693 341.221H503.502" stroke="#2B266D" stroke-width="2" stroke-miterlimit="10" stroke-linejoin="round"/>
<path d="M608.35 216.967L502.227 254.695L518.852 294.071L608.35 216.967Z" fill="white" stroke="#2B266D" stroke-width="2" stroke-miterlimit="10" stroke-linejoin="round"/>
<path d="M610.807 215.598L502.236 254.97L476.312 240.419L610.807 215.598Z" fill="#2DC495" stroke="#2B266D" stroke-width="2" stroke-miterlimit="10" stroke-linejoin="round"/>
<path d="M515.742 262.14L518.851 294.071L608.472 216.962L515.742 262.14Z" fill="#2B266D" stroke="#2B266D" stroke-width="2" stroke-miterlimit="10" stroke-linejoin="round"/>
<path d="M610.808 215.598L610.822 216.025L557.444 287.22L516.121 261.953L610.808 215.598Z" fill="#FF5787" stroke="#2B266D" stroke-width="2" stroke-miterlimit="10" stroke-linejoin="round"/>
<path d="M425 315.017C463.428 308.316 489.886 296.955 505.995 288.017" stroke="#2B266D" stroke-width="2" stroke-miterlimit="10" stroke-linejoin="round"/>
<path d="M454.634 293.48C476.718 287.613 493.445 280.416 505.32 274.132" stroke="#2B266D" stroke-width="2" stroke-miterlimit="10" stroke-linejoin="round"/>
<path d="M444.139 296.06C446.162 295.594 448.15 295.128 450.09 294.634" stroke="#2B266D" stroke-width="2" stroke-miterlimit="10" stroke-linejoin="round"/>
<path d="M437.423 297.514C438.924 297.205 440.414 296.892 441.887 296.562" stroke="#2B266D" stroke-width="2" stroke-miterlimit="10" stroke-linejoin="round"/>
</svg>
