<svg width="800" height="400" viewBox="0 0 800 400" fill="none" xmlns="http://www.w3.org/2000/svg">
<g clip-path="url(#clip0_3820_6622)">
<rect x="248.148" y="38.2118" width="281.771" height="328.18" rx="16.5747" fill="#2B266D"/>
<path d="M141.406 373C138.398 373 136.945 369.316 139.144 367.262L167.379 340.892C167.993 340.319 168.802 340 169.642 340H520.446C521.225 340 521.979 340.274 522.576 340.775L554.019 367.145C556.39 369.134 554.984 373 551.889 373H141.406Z" fill="#2B266D"/>
<rect x="255.779" y="39.2118" width="279.771" height="332.81" rx="15.5747" fill="white" stroke="#2B266D" stroke-width="2"/>
<rect x="286" y="340" width="203" height="4" rx="2" fill="#9C96F0"/>
<rect x="422.388" y="131" width="83" height="8" rx="4" fill="#D5D4D2"/>
<rect x="422.388" y="149" width="94" height="8" rx="4" fill="#D5D4D2"/>
<rect x="422.388" y="167" width="68" height="8" rx="4" fill="#D5D4D2"/>
<rect x="288" y="213" width="208" height="8" rx="4" fill="#D5D4D2"/>
<rect x="288" y="231" width="223" height="8" rx="4" fill="#D5D4D2"/>
<rect x="288" y="249" width="176" height="8" rx="4" fill="#D5D4D2"/>
<path d="M290.374 71.7574H298.761C300.149 71.7574 301.369 72.0251 302.42 72.5605C303.471 73.0761 304.274 73.8196 304.829 74.7913C305.404 75.7431 305.692 76.8535 305.692 78.1225C305.692 79.3916 305.404 80.502 304.829 81.4538C304.274 82.4056 303.471 83.1492 302.42 83.6846C301.369 84.2001 300.149 84.4579 298.761 84.4579H294.419V92.5779H290.374V71.7574ZM298.404 80.9779C299.416 80.9779 300.209 80.7301 300.784 80.2343C301.359 79.7188 301.646 79.0148 301.646 78.1225C301.646 77.2104 301.359 76.5065 300.784 76.0108C300.209 75.4952 299.416 75.2374 298.404 75.2374H294.419V80.9779H298.404ZM308.237 71.7574H316.267C318.31 71.7574 319.936 72.3226 321.145 73.4528C322.375 74.5632 322.989 76.0504 322.989 77.9143C322.989 79.0842 322.702 80.1451 322.127 81.0969C321.552 82.0289 320.749 82.7526 319.717 83.2682L325.25 92.5779H320.521L315.613 84.0415H312.311V92.5779H308.266L308.237 71.7574ZM315.643 80.5615C316.674 80.5615 317.477 80.3335 318.052 79.8774C318.627 79.4015 318.914 78.7472 318.914 77.9143C318.914 77.0815 318.627 76.4272 318.052 75.9513C317.477 75.4754 316.674 75.2374 315.643 75.2374H312.311V80.5615H315.643ZM336.115 92.8158C334.112 92.8158 332.307 92.3598 330.701 91.4476C329.095 90.5157 327.836 89.2466 326.924 87.6405C326.012 86.0145 325.556 84.1902 325.556 82.1677C325.556 80.1451 326.012 78.3307 326.924 76.7246C327.836 75.0986 329.095 73.8296 330.701 72.9174C332.307 71.9855 334.112 71.5195 336.115 71.5195C338.117 71.5195 339.912 71.9855 341.498 72.9174C343.104 73.8296 344.363 75.0986 345.276 76.7246C346.188 78.3307 346.644 80.1451 346.644 82.1677C346.644 84.1902 346.188 86.0145 345.276 87.6405C344.363 89.2466 343.104 90.5157 341.498 91.4476C339.912 92.3598 338.117 92.8158 336.115 92.8158ZM329.63 82.1677C329.63 83.5359 329.908 84.7653 330.463 85.8559C331.018 86.9266 331.782 87.7693 332.754 88.384C333.745 88.9987 334.865 89.3061 336.115 89.3061C337.364 89.3061 338.474 88.9987 339.446 88.384C340.417 87.7693 341.181 86.9266 341.736 85.8559C342.291 84.7653 342.569 83.5359 342.569 82.1677C342.569 80.7995 342.291 79.5701 341.736 78.4795C341.181 77.3889 340.417 76.5362 339.446 75.9215C338.474 75.3068 337.364 74.9995 336.115 74.9995C334.865 74.9995 333.745 75.3068 332.754 75.9215C331.782 76.5362 331.018 77.3889 330.463 78.4795C329.908 79.5701 329.63 80.7995 329.63 82.1677ZM349.686 71.7574H358.074C359.462 71.7574 360.682 72.0251 361.733 72.5605C362.783 73.0761 363.587 73.8196 364.142 74.7913C364.717 75.7431 365.004 76.8535 365.004 78.1225C365.004 79.3916 364.717 80.502 364.142 81.4538C363.587 82.4056 362.783 83.1492 361.733 83.6846C360.682 84.2001 359.462 84.4579 358.074 84.4579H353.732V92.5779H349.686V71.7574ZM357.717 80.9779C358.728 80.9779 359.522 80.7301 360.097 80.2343C360.672 79.7188 360.959 79.0148 360.959 78.1225C360.959 77.2104 360.672 76.5065 360.097 76.0108C359.522 75.4952 358.728 75.2374 357.717 75.2374H353.732V80.9779H357.717ZM377.186 92.8158C375.183 92.8158 373.379 92.3598 371.773 91.4476C370.167 90.5157 368.908 89.2466 367.995 87.6405C367.083 86.0145 366.627 84.1902 366.627 82.1677C366.627 80.1451 367.083 78.3307 367.995 76.7246C368.908 75.0986 370.167 73.8296 371.773 72.9174C373.379 71.9855 375.183 71.5195 377.186 71.5195C379.189 71.5195 380.983 71.9855 382.57 72.9174C384.176 73.8296 385.435 75.0986 386.347 76.7246C387.259 78.3307 387.715 80.1451 387.715 82.1677C387.715 84.1902 387.259 86.0145 386.347 87.6405C385.435 89.2466 384.176 90.5157 382.57 91.4476C380.983 92.3598 379.189 92.8158 377.186 92.8158ZM370.702 82.1677C370.702 83.5359 370.98 84.7653 371.535 85.8559C372.09 86.9266 372.853 87.7693 373.825 88.384C374.817 88.9987 375.937 89.3061 377.186 89.3061C378.435 89.3061 379.546 88.9987 380.517 88.384C381.489 87.7693 382.252 86.9266 382.808 85.8559C383.363 84.7653 383.64 83.5359 383.64 82.1677C383.64 80.7995 383.363 79.5701 382.808 78.4795C382.252 77.3889 381.489 76.5362 380.517 75.9215C379.546 75.3068 378.435 74.9995 377.186 74.9995C375.937 74.9995 374.817 75.3068 373.825 75.9215C372.853 76.5362 372.09 77.3889 371.535 78.4795C370.98 79.5701 370.702 80.7995 370.702 82.1677ZM397.569 92.8158C396.221 92.8158 394.962 92.5382 393.792 91.983C392.622 91.408 391.66 90.6247 390.907 89.6333C390.153 88.6418 389.697 87.5215 389.538 86.2723L393.137 85.1717C393.296 86.4011 393.802 87.4124 394.654 88.2056C395.527 88.9789 396.548 89.3656 397.718 89.3656C398.809 89.3656 399.681 89.1276 400.335 88.6517C400.99 88.1758 401.317 87.5413 401.317 86.7482C401.317 86.1335 401.119 85.6278 400.722 85.2312C400.345 84.8347 399.859 84.5174 399.265 84.2794C398.67 84.0415 397.867 83.7738 396.855 83.4764C395.467 83.06 394.337 82.6535 393.465 82.2569C392.592 81.8405 391.839 81.2258 391.204 80.4128C390.589 79.5998 390.282 78.5389 390.282 77.2302C390.282 76.1396 390.599 75.1581 391.234 74.2856C391.868 73.4132 392.731 72.739 393.822 72.2631C394.932 71.7673 396.161 71.5195 397.51 71.5195C398.818 71.5195 400.018 71.7376 401.109 72.1738C402.199 72.6101 403.102 73.2347 403.815 74.0477C404.549 74.8408 405.025 75.753 405.243 76.7841L401.614 78.2713C401.396 77.26 400.92 76.4569 400.187 75.862C399.473 75.2672 398.581 74.9697 397.51 74.9697C396.518 74.9697 395.735 75.1779 395.16 75.5943C394.585 75.9909 394.297 76.5362 394.297 77.2302C394.297 77.7061 394.466 78.0928 394.803 78.3902C395.14 78.6877 395.557 78.9256 396.052 79.1041C396.548 79.2825 397.272 79.5007 398.224 79.7584C399.691 80.1154 400.91 80.5119 401.882 80.9482C402.854 81.3646 403.686 82.0289 404.38 82.941C405.075 83.8531 405.422 85.0924 405.422 86.6589C405.422 87.8685 405.094 88.9393 404.44 89.8712C403.786 90.8032 402.864 91.5269 401.674 92.0425C400.484 92.5581 399.116 92.8158 397.569 92.8158ZM413.511 84.5471H419.043L416.277 77.0518L413.511 84.5471ZM414.373 71.7574H418.151L426.152 92.5779H421.987L420.292 87.9676H412.232L410.536 92.5779H406.372L414.373 71.7574ZM428.14 71.7574H432.185V89.0681H441.852V92.5779H428.14V71.7574Z" fill="#2B266D"/>
<path d="M289.371 308.55C288.693 308.55 288.061 308.411 287.473 308.132C286.885 307.843 286.402 307.449 286.023 306.951C285.645 306.453 285.416 305.89 285.336 305.263L287.144 304.71C287.224 305.327 287.478 305.835 287.906 306.234C288.345 306.622 288.858 306.817 289.446 306.817C289.994 306.817 290.432 306.697 290.761 306.458C291.09 306.219 291.254 305.9 291.254 305.502C291.254 305.193 291.154 304.939 290.955 304.739C290.766 304.54 290.522 304.381 290.223 304.261C289.924 304.142 289.52 304.007 289.012 303.858C288.315 303.648 287.747 303.444 287.309 303.245C286.87 303.036 286.492 302.727 286.173 302.318C285.864 301.91 285.709 301.377 285.709 300.719C285.709 300.171 285.869 299.678 286.188 299.24C286.506 298.801 286.94 298.463 287.488 298.224C288.046 297.975 288.664 297.85 289.341 297.85C289.999 297.85 290.601 297.96 291.149 298.179C291.697 298.398 292.151 298.712 292.509 299.12C292.878 299.519 293.117 299.977 293.227 300.495L291.403 301.242C291.294 300.734 291.055 300.331 290.686 300.032C290.327 299.733 289.879 299.584 289.341 299.584C288.843 299.584 288.449 299.688 288.16 299.897C287.871 300.097 287.727 300.371 287.727 300.719C287.727 300.958 287.812 301.153 287.981 301.302C288.15 301.452 288.36 301.571 288.609 301.661C288.858 301.751 289.221 301.86 289.7 301.99C290.437 302.169 291.05 302.368 291.538 302.587C292.026 302.797 292.444 303.13 292.793 303.589C293.142 304.047 293.316 304.67 293.316 305.457C293.316 306.065 293.152 306.603 292.823 307.071C292.494 307.539 292.031 307.903 291.433 308.162C290.835 308.421 290.148 308.55 289.371 308.55ZM294.688 300.899H296.572V308.431H294.688V300.899ZM295.63 299.748C295.291 299.748 295.012 299.638 294.793 299.419C294.574 299.19 294.464 298.911 294.464 298.582C294.464 298.253 294.574 297.979 294.793 297.76C295.022 297.541 295.301 297.432 295.63 297.432C295.969 297.432 296.253 297.546 296.482 297.775C296.711 297.994 296.826 298.263 296.826 298.582C296.826 298.911 296.711 299.19 296.482 299.419C296.253 299.638 295.969 299.748 295.63 299.748ZM301.504 308.207C300.408 308.207 299.546 307.868 298.919 307.19C298.301 306.513 297.992 305.616 297.992 304.5C297.992 303.763 298.131 303.115 298.41 302.558C298.689 301.99 299.088 301.551 299.606 301.242C300.134 300.934 300.752 300.779 301.459 300.779C301.907 300.779 302.316 300.859 302.685 301.018C303.063 301.178 303.362 301.392 303.581 301.661V300.899H305.449V307.953C305.449 308.61 305.295 309.188 304.986 309.686C304.677 310.194 304.239 310.583 303.671 310.852C303.103 311.131 302.45 311.27 301.713 311.27C300.826 311.27 300.064 311.051 299.427 310.613C298.789 310.184 298.405 309.621 298.276 308.924L300.024 308.64C300.064 308.989 300.244 309.263 300.562 309.462C300.881 309.661 301.265 309.761 301.713 309.761C302.281 309.761 302.734 309.611 303.073 309.313C303.422 309.024 303.596 308.635 303.596 308.147V307.325C303.407 307.594 303.123 307.808 302.744 307.968C302.366 308.127 301.952 308.207 301.504 308.207ZM299.86 304.5C299.86 305.128 300.034 305.631 300.383 306.01C300.732 306.388 301.195 306.578 301.773 306.578C302.351 306.578 302.814 306.388 303.163 306.01C303.521 305.631 303.701 305.128 303.701 304.5C303.701 303.863 303.526 303.355 303.178 302.976C302.829 302.597 302.361 302.408 301.773 302.408C301.195 302.408 300.732 302.597 300.383 302.976C300.034 303.355 299.86 303.863 299.86 304.5ZM307.283 300.899H309.166V302.034C309.416 301.656 309.744 301.352 310.153 301.123C310.571 300.894 311.04 300.779 311.558 300.779C312.385 300.779 313.047 301.028 313.545 301.526C314.053 302.025 314.307 302.682 314.307 303.499V308.431H312.424V303.947C312.424 303.499 312.295 303.14 312.036 302.871C311.777 302.592 311.428 302.453 310.99 302.453C310.412 302.453 309.964 302.687 309.645 303.155C309.326 303.624 309.166 304.281 309.166 305.128V308.431H307.283V300.899ZM320.521 303.589C320.521 303.16 320.387 302.827 320.118 302.587C319.849 302.338 319.485 302.214 319.027 302.214C318.618 302.214 318.275 302.333 317.996 302.572C317.727 302.812 317.572 303.13 317.532 303.529L315.859 303.23C315.978 302.493 316.332 301.9 316.92 301.452C317.517 301.003 318.22 300.779 319.027 300.779C320.033 300.779 320.835 301.048 321.433 301.586C322.041 302.114 322.345 302.866 322.345 303.843V308.431H320.521V307.34C320.312 307.708 319.998 308.002 319.58 308.222C319.171 308.441 318.733 308.55 318.265 308.55C317.777 308.55 317.343 308.456 316.965 308.266C316.586 308.067 316.287 307.798 316.068 307.459C315.859 307.121 315.754 306.737 315.754 306.309C315.754 305.571 316.033 304.998 316.591 304.59C317.149 304.182 317.991 303.918 319.117 303.798L320.521 303.663V303.589ZM317.577 306.249C317.577 306.518 317.677 306.737 317.876 306.906C318.075 307.076 318.344 307.16 318.683 307.16C319.251 307.16 319.699 306.971 320.028 306.593C320.357 306.214 320.521 305.741 320.521 305.173V305.008L319.087 305.173C318.598 305.233 318.225 305.357 317.966 305.546C317.707 305.736 317.577 305.97 317.577 306.249ZM328.521 308.356C328.162 308.486 327.759 308.55 327.31 308.55C326.513 308.55 325.871 308.331 325.382 307.893C324.894 307.454 324.65 306.812 324.65 305.965V302.483H323.38V300.899H324.65V298.687H326.533V300.899H328.431V302.483H326.533V305.786C326.533 306.134 326.618 306.408 326.787 306.608C326.967 306.797 327.206 306.891 327.505 306.891C327.853 306.891 328.147 306.832 328.386 306.712L328.521 308.356ZM336.768 308.431H334.885V307.295C334.636 307.674 334.302 307.977 333.884 308.207C333.475 308.436 333.012 308.55 332.494 308.55C331.667 308.55 331 308.301 330.491 307.803C329.993 307.305 329.744 306.647 329.744 305.83V300.899H331.627V305.382C331.627 305.83 331.757 306.194 332.016 306.473C332.275 306.742 332.624 306.877 333.062 306.877C333.64 306.877 334.088 306.642 334.407 306.174C334.726 305.706 334.885 305.048 334.885 304.201V300.899H336.768V308.431ZM343.445 302.722C343.176 302.602 342.858 302.543 342.489 302.543C341.911 302.543 341.428 302.802 341.039 303.32C340.661 303.828 340.471 304.61 340.471 305.666V308.431H338.588V300.899H340.471V302.274C340.661 301.845 340.97 301.491 341.398 301.213C341.836 300.924 342.285 300.779 342.743 300.779C343.052 300.779 343.326 300.819 343.565 300.899L343.445 302.722ZM343.993 304.665C343.993 303.987 344.133 303.355 344.412 302.767C344.701 302.169 345.124 301.691 345.682 301.332C346.24 300.963 346.918 300.779 347.715 300.779C348.522 300.779 349.209 300.953 349.777 301.302C350.345 301.651 350.773 302.104 351.062 302.662C351.351 303.22 351.496 303.803 351.496 304.411C351.496 304.71 351.486 304.959 351.466 305.158H345.876C345.956 305.726 346.17 306.169 346.519 306.488C346.868 306.807 347.311 306.966 347.849 306.966C348.288 306.966 348.656 306.867 348.955 306.667C349.254 306.468 349.453 306.184 349.553 305.815L351.316 306.294C351.107 307.001 350.694 307.554 350.076 307.953C349.458 308.351 348.706 308.55 347.819 308.55C347.022 308.55 346.335 308.371 345.757 308.012C345.179 307.644 344.741 307.16 344.442 306.563C344.143 305.965 343.993 305.332 343.993 304.665ZM349.478 303.783C349.428 303.315 349.254 302.936 348.955 302.647C348.656 302.358 348.243 302.214 347.715 302.214C347.246 302.214 346.853 302.348 346.534 302.617C346.225 302.886 346.021 303.275 345.921 303.783H349.478ZM361.367 302.722C361.098 302.602 360.779 302.543 360.411 302.543C359.833 302.543 359.35 302.802 358.961 303.32C358.583 303.828 358.393 304.61 358.393 305.666V308.431H356.51V300.899H358.393V302.274C358.583 301.845 358.891 301.491 359.32 301.213C359.758 300.924 360.207 300.779 360.665 300.779C360.974 300.779 361.248 300.819 361.487 300.899L361.367 302.722ZM361.915 304.665C361.915 303.987 362.055 303.355 362.334 302.767C362.623 302.169 363.046 301.691 363.604 301.332C364.162 300.963 364.84 300.779 365.637 300.779C366.444 300.779 367.131 300.953 367.699 301.302C368.267 301.651 368.695 302.104 368.984 302.662C369.273 303.22 369.418 303.803 369.418 304.411C369.418 304.71 369.408 304.959 369.388 305.158H363.798C363.878 305.726 364.092 306.169 364.441 306.488C364.79 306.807 365.233 306.966 365.771 306.966C366.209 306.966 366.578 306.867 366.877 306.667C367.176 306.468 367.375 306.184 367.475 305.815L369.238 306.294C369.029 307.001 368.616 307.554 367.998 307.953C367.38 308.351 366.628 308.55 365.741 308.55C364.944 308.55 364.257 308.371 363.679 308.012C363.101 307.644 362.663 307.16 362.364 306.563C362.065 305.965 361.915 305.332 361.915 304.665ZM367.4 303.783C367.35 303.315 367.176 302.936 366.877 302.647C366.578 302.358 366.165 302.214 365.637 302.214C365.168 302.214 364.775 302.348 364.456 302.617C364.147 302.886 363.943 303.275 363.843 303.783H367.4ZM376.177 311.151V307.684C375.958 307.953 375.659 308.167 375.281 308.326C374.912 308.476 374.508 308.55 374.07 308.55C373.343 308.55 372.705 308.391 372.157 308.072C371.609 307.743 371.186 307.285 370.887 306.697C370.588 306.109 370.438 305.432 370.438 304.665C370.438 303.898 370.578 303.22 370.857 302.632C371.146 302.044 371.554 301.591 372.082 301.272C372.61 300.944 373.228 300.779 373.936 300.779C374.424 300.779 374.862 300.869 375.251 301.048C375.649 301.227 375.958 301.467 376.177 301.765V300.899H378.06V311.151H376.177ZM372.307 304.665C372.307 305.342 372.486 305.89 372.845 306.309C373.213 306.717 373.696 306.921 374.294 306.921C374.902 306.921 375.385 306.717 375.744 306.309C376.112 305.89 376.297 305.342 376.297 304.665C376.297 303.987 376.112 303.444 375.744 303.036C375.385 302.617 374.902 302.408 374.294 302.408C373.696 302.408 373.213 302.617 372.845 303.036C372.486 303.444 372.307 303.987 372.307 304.665ZM386.914 308.431H385.031V307.295C384.782 307.674 384.449 307.977 384.03 308.207C383.622 308.436 383.158 308.55 382.64 308.55C381.813 308.55 381.146 308.301 380.638 307.803C380.14 307.305 379.89 306.647 379.89 305.83V300.899H381.774V305.382C381.774 305.83 381.903 306.194 382.162 306.473C382.421 306.742 382.77 306.877 383.208 306.877C383.786 306.877 384.234 306.642 384.553 306.174C384.872 305.706 385.031 305.048 385.031 304.201V300.899H386.914V308.431ZM388.735 300.899H390.618V308.431H388.735V300.899ZM389.676 299.748C389.337 299.748 389.058 299.638 388.839 299.419C388.62 299.19 388.511 298.911 388.511 298.582C388.511 298.253 388.62 297.979 388.839 297.76C389.068 297.541 389.347 297.432 389.676 297.432C390.015 297.432 390.299 297.546 390.528 297.775C390.757 297.994 390.872 298.263 390.872 298.582C390.872 298.911 390.757 299.19 390.528 299.419C390.299 299.638 390.015 299.748 389.676 299.748ZM397.299 302.722C397.03 302.602 396.711 302.543 396.342 302.543C395.764 302.543 395.281 302.802 394.893 303.32C394.514 303.828 394.325 304.61 394.325 305.666V308.431H392.442V300.899H394.325V302.274C394.514 301.845 394.823 301.491 395.251 301.213C395.69 300.924 396.138 300.779 396.596 300.779C396.905 300.779 397.179 300.819 397.418 300.899L397.299 302.722ZM397.847 304.665C397.847 303.987 397.986 303.355 398.265 302.767C398.554 302.169 398.978 301.691 399.535 301.332C400.093 300.963 400.771 300.779 401.568 300.779C402.375 300.779 403.062 300.953 403.63 301.302C404.198 301.651 404.627 302.104 404.916 302.662C405.204 303.22 405.349 303.803 405.349 304.411C405.349 304.71 405.339 304.959 405.319 305.158H399.73C399.809 305.726 400.024 306.169 400.372 306.488C400.721 306.807 401.164 306.966 401.702 306.966C402.141 306.966 402.509 306.867 402.808 306.667C403.107 306.468 403.306 306.184 403.406 305.815L405.17 306.294C404.96 307.001 404.547 307.554 403.929 307.953C403.311 308.351 402.559 308.55 401.673 308.55C400.875 308.55 400.188 308.371 399.61 308.012C399.032 307.644 398.594 307.16 398.295 306.563C397.996 305.965 397.847 305.332 397.847 304.665ZM403.331 303.783C403.282 303.315 403.107 302.936 402.808 302.647C402.509 302.358 402.096 302.214 401.568 302.214C401.1 302.214 400.706 302.348 400.387 302.617C400.078 302.886 399.874 303.275 399.775 303.783H403.331ZM409.957 308.55C409.219 308.55 408.577 308.391 408.029 308.072C407.491 307.743 407.077 307.285 406.788 306.697C406.509 306.109 406.37 305.432 406.37 304.665C406.37 303.898 406.509 303.22 406.788 302.632C407.077 302.044 407.491 301.591 408.029 301.272C408.567 300.944 409.199 300.779 409.927 300.779C410.385 300.779 410.808 300.869 411.197 301.048C411.586 301.218 411.889 301.447 412.109 301.736V297.85H413.992V308.431H412.109V307.564C411.919 307.863 411.63 308.102 411.242 308.281C410.853 308.461 410.425 308.55 409.957 308.55ZM408.238 304.665C408.238 305.342 408.417 305.89 408.776 306.309C409.145 306.717 409.628 306.921 410.226 306.921C410.833 306.921 411.316 306.717 411.675 306.309C412.044 305.89 412.228 305.342 412.228 304.665C412.228 303.987 412.044 303.444 411.675 303.036C411.316 302.617 410.833 302.408 410.226 302.408C409.628 302.408 409.145 302.617 408.776 303.036C408.417 303.444 408.238 303.987 408.238 304.665Z" fill="#2B266D"/>
<path d="M286.24 332.023L289.872 326.374L286.778 321.562H287.824L290.395 325.567L292.98 321.562H294.026L290.918 326.374L294.549 332.023H293.503L290.395 327.196L287.286 332.023H286.24Z" fill="#2B266D"/>
<path d="M401.271 127.331H292.122C290.053 127.331 288.376 129.008 288.376 131.077V189.193C288.376 191.262 290.053 192.939 292.122 192.939H401.271C403.34 192.939 405.017 191.262 405.017 189.193V131.077C405.017 129.008 403.34 127.331 401.271 127.331Z" fill="#FF5787" stroke="#FF5787" stroke-width="2.73182" stroke-miterlimit="10"/>
<path d="M346.699 175.761C355.326 175.761 362.32 168.767 362.32 160.14C362.32 151.513 355.326 144.52 346.699 144.52C338.072 144.52 331.079 151.513 331.079 160.14C331.079 168.767 338.072 175.761 346.699 175.761Z" fill="white" stroke="#FF5787" stroke-width="2.73182" stroke-miterlimit="10"/>
<path d="M353.534 159.561L343.039 153.505C342.598 153.252 342.035 153.57 342.035 154.084V166.204C342.035 166.718 342.59 167.036 343.039 166.783L353.534 160.728C353.975 160.475 353.975 159.83 353.534 159.569V159.561Z" fill="#2B266D"/>
<path d="M624.414 308.798L644.356 317.915" stroke="#2B266D" stroke-width="2" stroke-miterlimit="10" stroke-linecap="round"/>
<path d="M624.801 297.953L645.346 290.302" stroke="#2B266D" stroke-width="2" stroke-miterlimit="10" stroke-linecap="round"/>
<path d="M606.569 289.621L598.918 269.076" stroke="#2B266D" stroke-width="2" stroke-miterlimit="10" stroke-linecap="round"/>
<path d="M617.411 290.009L626.528 270.067" stroke="#2B266D" stroke-width="2" stroke-miterlimit="10" stroke-linecap="round"/>
<path d="M603.199 297.209H452.561C449.706 297.209 447.391 298.766 447.391 300.687V356.247C447.391 358.168 449.706 359.725 452.561 359.725H603.199C606.055 359.725 608.37 358.168 608.37 356.247V300.687C608.37 298.766 606.055 297.209 603.199 297.209Z" fill="#2B266D" stroke="#2B266D" stroke-width="1.94185" stroke-miterlimit="10"/>
<path d="M607.888 297.209H457.25C454.395 297.209 452.08 298.807 452.08 300.779V356.155C452.08 358.127 454.395 359.725 457.25 359.725H607.888C610.744 359.725 613.059 358.127 613.059 356.155V300.779C613.059 298.807 610.744 297.209 607.888 297.209Z" fill="#C5F6E6" stroke="#2B266D" stroke-miterlimit="10"/>
<path d="M644.436 346.281L631.629 351.572L642.668 367.728C642.853 367.991 642.785 368.36 642.513 368.534L628.143 378.321C627.881 378.506 627.512 378.438 627.337 378.166L616.405 362.155L606.909 372.253C606.414 372.787 605.521 372.505 605.414 371.777L598.54 323.26C598.287 321.678 599.977 320.503 601.365 321.299L644.523 344.718C645.164 345.067 645.115 346.009 644.436 346.281Z" fill="white" stroke="#2B266D" stroke-width="2" stroke-miterlimit="10"/>
<path d="M495.199 317.663C494.661 315.244 489.206 314.247 487.325 313.908C481.893 312.93 478.306 315.097 474.373 318.788C470.415 322.503 466.907 329.624 471.869 333.99C476.536 338.097 481.778 339.58 488.015 339.542C495.577 339.495 501.404 336.291 504.668 329.401C506.782 324.939 507.852 318.498 503.689 314.797C500.653 312.098 496.474 311.883 492.713 312.965C488.297 314.235 488.165 317.96 489.575 321.799C491.953 328.278 497.876 332.433 502.927 336.712C504.531 338.071 507.281 340.095 507.281 342.48C507.281 345.02 503.374 344.939 501.621 344.948C496.542 344.971 483.588 345.431 482.282 338.562C481.559 334.762 484.003 331.313 487.761 330.634C492.774 329.729 497.752 332.206 501.875 334.807C504.833 336.673 507.673 338.133 511.199 338.489C514.614 338.835 516.458 336.968 517.984 333.99C518.277 333.418 519.495 329.299 519.725 330.453C519.884 331.245 521.524 334.587 522.664 333.573C523.951 332.429 524.191 330.432 525.313 329.31C525.376 329.247 526.132 330.291 526.147 330.308C527.674 331.957 529.551 332.975 531.735 333.519C537.899 335.052 544.844 334.344 551.019 333.21C553.108 332.827 554.296 334.949 556.189 335.786C558.753 336.921 565.282 339.108 567.473 336.204C568.507 334.832 566.287 332.267 566.13 332.757C565.419 334.98 570.275 334.624 571.174 334.571C575.499 334.313 579.665 333.664 584.018 333.664" stroke="#2B266D" stroke-width="2.34435" stroke-linecap="round"/>
<path d="M610.718 400H528.063" stroke="#2B266D" stroke-width="2" stroke-miterlimit="10" stroke-linecap="round"/>
</g>
<defs>
<clipPath id="clip0_3820_6622">
<rect width="800" height="400" fill="white"/>
</clipPath>
</defs>
</svg>
