<svg width="800" height="400" viewBox="0 0 800 400" fill="none" xmlns="http://www.w3.org/2000/svg">
<path d="M159.317 339.945H454.558C455.004 339.945 455.431 340.127 455.739 340.449L482.684 368.601C483.678 369.64 482.941 371.365 481.502 371.365H135.121C133.724 371.365 132.971 369.725 133.882 368.665L158.077 340.515C158.388 340.153 158.841 339.945 159.317 339.945Z" fill="#2B266D" stroke="#2B266D" stroke-width="3.26944"/>
<path d="M218.235 38.5938H453.653C455.822 38.5938 457.747 39.889 459.158 42.0156C460.568 44.1412 461.416 47.038 461.416 50.0537V360.689C461.416 367.283 457.233 372.406 452.402 372.406H225.778C219.941 372.406 215.747 369.853 212.989 365.806C210.214 361.731 208.875 356.109 208.875 349.993V50.9424C208.875 47.73 210.012 44.6207 211.771 42.3223C213.535 40.0165 215.867 38.5938 218.235 38.5938Z" fill="#2B266D" stroke="#2B266D" stroke-width="1.18688"/>
<path d="M457.967 38.9912H225.011C220.011 38.9912 215.957 44.2082 215.957 50.6437V358.468C215.957 364.904 220.011 370.121 225.011 370.121H457.967C462.967 370.121 467.021 364.904 467.021 358.468V50.6437C467.021 44.2082 462.967 38.9912 457.967 38.9912Z" fill="white" stroke="#2B266D" stroke-width="1.98225" stroke-miterlimit="10"/>
<path d="M241.481 68.5743H249.869C251.257 68.5743 252.476 68.842 253.527 69.3774C254.578 69.893 255.381 70.6365 255.936 71.6082C256.511 72.56 256.799 73.6704 256.799 74.9394C256.799 76.2085 256.511 77.3189 255.936 78.2707C255.381 79.2225 254.578 79.9661 253.527 80.5015C252.476 81.017 251.257 81.2748 249.869 81.2748H245.526V89.3948H241.481V68.5743ZM249.512 77.7948C250.523 77.7948 251.316 77.5469 251.891 77.0512C252.466 76.5357 252.754 75.8317 252.754 74.9394C252.754 74.0273 252.466 73.3234 251.891 72.8276C251.316 72.3121 250.523 72.0543 249.512 72.0543H245.526V77.7948H249.512ZM259.344 68.5743H267.375C269.417 68.5743 271.043 69.1395 272.253 70.2697C273.482 71.3801 274.097 72.8673 274.097 74.7312C274.097 75.9011 273.809 76.962 273.234 77.9138C272.659 78.8457 271.856 79.5695 270.825 80.0851L276.357 89.3948H271.628L266.72 80.8584H263.419V89.3948H259.374L259.344 68.5743ZM266.75 77.3784C267.781 77.3784 268.584 77.1504 269.159 76.6943C269.734 76.2184 270.022 75.564 270.022 74.7312C270.022 73.8984 269.734 73.2441 269.159 72.7682C268.584 72.2923 267.781 72.0543 266.75 72.0543H263.419V77.3784H266.75ZM287.222 89.6327C285.219 89.6327 283.415 89.1767 281.809 88.2645C280.202 87.3326 278.943 86.0635 278.031 84.4574C277.119 82.8314 276.663 81.0071 276.663 78.9846C276.663 76.962 277.119 75.1476 278.031 73.5415C278.943 71.9155 280.202 70.6465 281.809 69.7343C283.415 68.8024 285.219 68.3364 287.222 68.3364C289.225 68.3364 291.019 68.8024 292.606 69.7343C294.212 70.6465 295.471 71.9155 296.383 73.5415C297.295 75.1476 297.751 76.962 297.751 78.9846C297.751 81.0071 297.295 82.8314 296.383 84.4574C295.471 86.0635 294.212 87.3326 292.606 88.2645C291.019 89.1767 289.225 89.6327 287.222 89.6327ZM280.738 78.9846C280.738 80.3528 281.015 81.5821 281.571 82.6727C282.126 83.7435 282.889 84.5862 283.861 85.2009C284.852 85.8156 285.973 86.123 287.222 86.123C288.471 86.123 289.582 85.8156 290.553 85.2009C291.525 84.5862 292.288 83.7435 292.843 82.6727C293.399 81.5821 293.676 80.3528 293.676 78.9846C293.676 77.6163 293.399 76.387 292.843 75.2964C292.288 74.2058 291.525 73.3531 290.553 72.7384C289.582 72.1237 288.471 71.8164 287.222 71.8164C285.973 71.8164 284.852 72.1237 283.861 72.7384C282.889 73.3531 282.126 74.2058 281.571 75.2964C281.015 76.387 280.738 77.6163 280.738 78.9846ZM300.794 68.5743H309.181C310.57 68.5743 311.789 68.842 312.84 69.3774C313.891 69.893 314.694 70.6365 315.249 71.6082C315.824 72.56 316.112 73.6704 316.112 74.9394C316.112 76.2085 315.824 77.3189 315.249 78.2707C314.694 79.2225 313.891 79.9661 312.84 80.5015C311.789 81.017 310.57 81.2748 309.181 81.2748H304.839V89.3948H300.794V68.5743ZM308.825 77.7948C309.836 77.7948 310.629 77.5469 311.204 77.0512C311.779 76.5357 312.067 75.8317 312.067 74.9394C312.067 74.0273 311.779 73.3234 311.204 72.8276C310.629 72.3121 309.836 72.0543 308.825 72.0543H304.839V77.7948H308.825ZM328.294 89.6327C326.291 89.6327 324.486 89.1767 322.88 88.2645C321.274 87.3326 320.015 86.0635 319.103 84.4574C318.191 82.8314 317.735 81.0071 317.735 78.9846C317.735 76.962 318.191 75.1476 319.103 73.5415C320.015 71.9155 321.274 70.6465 322.88 69.7343C324.486 68.8024 326.291 68.3364 328.294 68.3364C330.296 68.3364 332.091 68.8024 333.677 69.7343C335.283 70.6465 336.542 71.9155 337.455 73.5415C338.367 75.1476 338.823 76.962 338.823 78.9846C338.823 81.0071 338.367 82.8314 337.455 84.4574C336.542 86.0635 335.283 87.3326 333.677 88.2645C332.091 89.1767 330.296 89.6327 328.294 89.6327ZM321.809 78.9846C321.809 80.3528 322.087 81.5821 322.642 82.6727C323.197 83.7435 323.961 84.5862 324.933 85.2009C325.924 85.8156 327.044 86.123 328.294 86.123C329.543 86.123 330.653 85.8156 331.625 85.2009C332.596 84.5862 333.36 83.7435 333.915 82.6727C334.47 81.5821 334.748 80.3528 334.748 78.9846C334.748 77.6163 334.47 76.387 333.915 75.2964C333.36 74.2058 332.596 73.3531 331.625 72.7384C330.653 72.1237 329.543 71.8164 328.294 71.8164C327.044 71.8164 325.924 72.1237 324.933 72.7384C323.961 73.3531 323.197 74.2058 322.642 75.2964C322.087 76.387 321.809 77.6163 321.809 78.9846ZM348.677 89.6327C347.328 89.6327 346.069 89.3551 344.899 88.7999C343.729 88.2249 342.768 87.4416 342.014 86.4502C341.261 85.4587 340.805 84.3384 340.646 83.0892L344.245 81.9886C344.404 83.218 344.909 84.2293 345.762 85.0225C346.634 85.7958 347.655 86.1825 348.825 86.1825C349.916 86.1825 350.788 85.9445 351.443 85.4686C352.097 84.9927 352.424 84.3582 352.424 83.565C352.424 82.9504 352.226 82.4447 351.829 82.0481C351.453 81.6516 350.967 81.3343 350.372 81.0963C349.777 80.8584 348.974 80.5907 347.963 80.2933C346.575 79.8769 345.445 79.4704 344.572 79.0738C343.7 78.6574 342.946 78.0427 342.312 77.2297C341.697 76.4167 341.389 75.3558 341.389 74.0471C341.389 72.9565 341.707 71.975 342.341 71.1025C342.976 70.23 343.838 69.5559 344.929 69.08C346.039 68.5842 347.269 68.3364 348.617 68.3364C349.926 68.3364 351.126 68.5545 352.216 68.9907C353.307 69.427 354.209 70.0516 354.923 70.8646C355.656 71.6577 356.132 72.5699 356.35 73.601L352.722 75.0882C352.504 74.0769 352.028 73.2738 351.294 72.6789C350.58 72.0841 349.688 71.7866 348.617 71.7866C347.626 71.7866 346.842 71.9948 346.267 72.4112C345.692 72.8078 345.405 73.3531 345.405 74.0471C345.405 74.523 345.573 74.9097 345.911 75.2071C346.248 75.5046 346.664 75.7425 347.16 75.921C347.655 76.0994 348.379 76.3175 349.331 76.5753C350.798 76.9322 352.018 77.3288 352.989 77.7651C353.961 78.1815 354.794 78.8457 355.488 79.7579C356.182 80.67 356.529 81.9093 356.529 83.4758C356.529 84.6854 356.202 85.7562 355.547 86.6881C354.893 87.6201 353.971 88.3438 352.781 88.8594C351.592 89.3749 350.223 89.6327 348.677 89.6327ZM364.618 81.364H370.15L367.384 73.8687L364.618 81.364ZM365.481 68.5743H369.258L377.259 89.3948H373.095L371.4 84.7845H363.339L361.644 89.3948H357.48L365.481 68.5743ZM379.247 68.5743H383.293V85.885H392.959V89.3948H379.247V68.5743Z" fill="#2B266D"/>
<rect x="239.488" y="110.132" width="201.042" height="7.92899" rx="3.9645" fill="#D5D4D2"/>
<rect x="239.488" y="128.061" width="201.042" height="7.92899" rx="3.9645" fill="#D5D4D2"/>
<rect x="239.488" y="145.99" width="201.042" height="7.92899" rx="3.9645" fill="#D5D4D2"/>
<rect x="240.512" y="183.456" width="58" height="104" rx="7.72546" fill="white" stroke="#D5D2F9" stroke-width="2"/>
<rect x="247" y="207" width="45" height="20" rx="4" fill="#ECEBEA"/>
<rect x="247" y="233" width="45" height="20" rx="4" fill="#ECEBEA"/>
<rect x="247" y="259" width="45" height="20" rx="4" fill="#ECEBEA"/>
<path d="M239.512 190.152C239.512 185.734 243.093 182.152 247.512 182.152H291.512C295.93 182.152 299.512 185.734 299.512 190.152V200.152H239.512V190.152Z" fill="#9C96F0"/>
<rect x="240.488" y="183.456" width="58" height="104" rx="7.72546" stroke="#2B266D" stroke-width="2"/>
<rect x="304.642" y="172.138" width="72" height="127.2" rx="10.4706" fill="white"/>
<rect x="311.665" y="200" width="58.335" height="25.9266" rx="4.19" fill="#ECEBEA"/>
<rect x="311.665" y="232.117" width="58.335" height="25.9266" rx="4.19" fill="#ECEBEA"/>
<rect x="311.665" y="264.233" width="58.335" height="25.9266" rx="4.19" fill="#ECEBEA"/>
<path d="M305.023 181.6C305.023 176.298 309.322 172 314.623 172H367.423C372.725 172 377.023 176.298 377.023 181.6V192H305.023V181.6Z" fill="#2B266D"/>
<rect x="305.894" y="172.27" width="70" height="126" rx="7.72546" stroke="#2B266D" stroke-width="2"/>
<rect x="383.177" y="183.456" width="58" height="104" rx="7.72546" fill="white" stroke="#D5D2F9" stroke-width="2"/>
<rect x="389.665" y="207" width="45" height="20" rx="4" fill="#ECEBEA"/>
<rect x="389.665" y="233" width="45" height="20" rx="4" fill="#ECEBEA"/>
<rect x="389.665" y="259" width="45" height="20" rx="4" fill="#ECEBEA"/>
<path d="M382.177 190.152C382.177 185.734 385.758 182.152 390.177 182.152H434.177C438.595 182.152 442.177 185.734 442.177 190.152V200.152H382.177V190.152Z" fill="#9C96F0"/>
<rect x="383.153" y="183.456" width="58" height="104" rx="7.72546" stroke="#2B266D" stroke-width="2"/>
<rect x="239.488" y="316.689" width="201.042" height="7.92899" rx="3.9645" fill="#D5D4D2"/>
<rect x="239.488" y="334.618" width="201.042" height="7.92899" rx="3.9645" fill="#D5D4D2"/>
<path d="M644.948 208.043H505.526C502.883 208.043 500.74 209.941 500.74 212.283V280.024C500.74 282.366 502.883 284.264 505.526 284.264H644.948C647.591 284.264 649.734 282.366 649.734 280.024V212.283C649.734 209.941 647.591 208.043 644.948 208.043Z" fill="#2B266D" stroke="#2B266D" stroke-width="2" stroke-miterlimit="10"/>
<path d="M645.081 208.043H509.532C506.962 208.043 504.879 209.895 504.879 212.179V276.335C504.879 278.619 506.962 280.471 509.532 280.471H645.081C647.651 280.471 649.734 278.619 649.734 276.335V212.179C649.734 209.895 647.651 208.043 645.081 208.043Z" fill="#ECEBEA" stroke="#2B266D" stroke-width="2" stroke-miterlimit="10"/>
<path d="M644.948 123.522H505.526C502.883 123.522 500.74 125.42 500.74 127.762V195.503C500.74 197.845 502.883 199.743 505.526 199.743H644.948C647.591 199.743 649.734 197.845 649.734 195.503V127.762C649.734 125.42 647.591 123.522 644.948 123.522Z" fill="#2B266D" stroke="#2B266D" stroke-width="1.74353" stroke-miterlimit="10"/>
<path d="M645.081 123.521H509.532C506.962 123.521 504.879 125.373 504.879 127.657V191.813C504.879 194.097 506.962 195.949 509.532 195.949H645.081C647.651 195.949 649.734 194.097 649.734 191.813V127.657C649.734 125.373 647.651 123.521 645.081 123.521Z" fill="#B8B4F5" stroke="#2B266D" stroke-width="2" stroke-miterlimit="10"/>
<rect x="516.926" y="156.687" width="121.602" height="8" rx="4" fill="#2B266D"/>
<rect x="516.926" y="174.778" width="121.602" height="8" rx="4" fill="#2B266D"/>
<path d="M521.573 145.964C520.861 145.964 520.197 145.818 519.579 145.525C518.962 145.221 518.454 144.808 518.056 144.284C517.658 143.761 517.418 143.17 517.334 142.51L519.234 141.929C519.317 142.578 519.584 143.112 520.034 143.531C520.495 143.939 521.034 144.143 521.652 144.143C522.227 144.143 522.688 144.018 523.033 143.766C523.379 143.515 523.551 143.18 523.551 142.761C523.551 142.437 523.447 142.17 523.237 141.961C523.038 141.751 522.782 141.584 522.468 141.458C522.154 141.333 521.73 141.191 521.196 141.034C520.464 140.815 519.867 140.6 519.406 140.391C518.946 140.171 518.548 139.846 518.213 139.417C517.889 138.988 517.727 138.428 517.727 137.737C517.727 137.162 517.894 136.644 518.229 136.183C518.564 135.722 519.019 135.367 519.595 135.115C520.181 134.854 520.83 134.723 521.542 134.723C522.233 134.723 522.866 134.838 523.441 135.068C524.017 135.299 524.493 135.628 524.87 136.057C525.257 136.476 525.509 136.958 525.624 137.502L523.708 138.287C523.593 137.753 523.342 137.329 522.955 137.015C522.578 136.701 522.107 136.544 521.542 136.544C521.018 136.544 520.605 136.654 520.301 136.874C519.998 137.083 519.846 137.371 519.846 137.737C519.846 137.989 519.935 138.193 520.113 138.35C520.291 138.507 520.511 138.632 520.772 138.726C521.034 138.821 521.416 138.936 521.919 139.072C522.693 139.26 523.337 139.47 523.85 139.7C524.363 139.92 524.802 140.27 525.168 140.752C525.535 141.233 525.718 141.887 525.718 142.714C525.718 143.353 525.545 143.918 525.2 144.41C524.854 144.902 524.368 145.284 523.74 145.556C523.112 145.828 522.39 145.964 521.573 145.964ZM526.736 141.882C526.736 141.17 526.882 140.506 527.175 139.888C527.479 139.26 527.924 138.758 528.51 138.381C529.096 137.994 529.808 137.8 530.645 137.8C531.493 137.8 532.215 137.983 532.812 138.35C533.408 138.716 533.858 139.192 534.162 139.778C534.466 140.365 534.617 140.977 534.617 141.615C534.617 141.929 534.607 142.191 534.586 142.4H528.714C528.798 142.997 529.023 143.463 529.389 143.798C529.755 144.133 530.221 144.3 530.786 144.3C531.247 144.3 531.634 144.195 531.948 143.986C532.262 143.777 532.472 143.478 532.576 143.091L534.429 143.594C534.209 144.337 533.775 144.918 533.126 145.336C532.477 145.755 531.687 145.964 530.755 145.964C529.918 145.964 529.195 145.776 528.588 145.399C527.981 145.012 527.521 144.504 527.207 143.876C526.893 143.248 526.736 142.584 526.736 141.882ZM532.498 140.956C532.445 140.464 532.262 140.066 531.948 139.763C531.634 139.459 531.2 139.307 530.645 139.307C530.153 139.307 529.74 139.449 529.405 139.731C529.08 140.014 528.866 140.422 528.761 140.956H532.498ZM541.216 139.841C540.934 139.716 540.599 139.653 540.212 139.653C539.604 139.653 539.097 139.925 538.689 140.469C538.291 141.003 538.092 141.825 538.092 142.934V145.839H536.114V137.926H538.092V139.37C538.291 138.92 538.615 138.549 539.065 138.255C539.526 137.952 539.997 137.8 540.478 137.8C540.803 137.8 541.091 137.842 541.342 137.926L541.216 139.841ZM541.66 137.926H543.654L545.459 143.546L547.265 137.926H549.275L546.386 145.839H544.549L541.66 137.926ZM550.358 137.926H552.336V145.839H550.358V137.926ZM551.347 136.717C550.991 136.717 550.698 136.602 550.467 136.371C550.237 136.131 550.122 135.838 550.122 135.492C550.122 135.147 550.237 134.859 550.467 134.629C550.708 134.398 551.001 134.283 551.347 134.283C551.703 134.283 552.001 134.404 552.242 134.644C552.482 134.875 552.603 135.157 552.603 135.492C552.603 135.838 552.482 136.131 552.242 136.371C552.001 136.602 551.703 136.717 551.347 136.717ZM557.847 145.964C557.062 145.964 556.366 145.792 555.759 145.446C555.152 145.101 554.676 144.619 554.33 144.002C553.996 143.384 553.828 142.678 553.828 141.882C553.828 141.087 553.996 140.38 554.33 139.763C554.676 139.145 555.152 138.664 555.759 138.318C556.366 137.973 557.062 137.8 557.847 137.8C558.863 137.8 559.7 138.046 560.359 138.538C561.029 139.03 561.432 139.695 561.568 140.532L559.637 140.909C559.564 140.49 559.37 140.155 559.056 139.904C558.753 139.642 558.371 139.511 557.91 139.511C557.293 139.511 556.801 139.726 556.434 140.155C556.068 140.584 555.885 141.16 555.885 141.882C555.885 142.604 556.068 143.18 556.434 143.609C556.801 144.038 557.293 144.253 557.91 144.253C558.371 144.253 558.748 144.138 559.041 143.908C559.344 143.667 559.543 143.332 559.637 142.903L561.568 143.295C561.422 144.122 561.014 144.776 560.344 145.258C559.684 145.729 558.852 145.964 557.847 145.964ZM562.629 141.882C562.629 141.17 562.775 140.506 563.068 139.888C563.372 139.26 563.817 138.758 564.403 138.381C564.989 137.994 565.701 137.8 566.538 137.8C567.386 137.8 568.108 137.983 568.705 138.35C569.302 138.716 569.752 139.192 570.055 139.778C570.359 140.365 570.51 140.977 570.51 141.615C570.51 141.929 570.5 142.191 570.479 142.4H564.607C564.691 142.997 564.916 143.463 565.282 143.798C565.649 144.133 566.114 144.3 566.68 144.3C567.14 144.3 567.527 144.195 567.841 143.986C568.155 143.777 568.365 143.478 568.469 143.091L570.322 143.594C570.102 144.337 569.668 144.918 569.019 145.336C568.37 145.755 567.58 145.964 566.648 145.964C565.811 145.964 565.089 145.776 564.481 145.399C563.874 145.012 563.414 144.504 563.1 143.876C562.786 143.248 562.629 142.584 562.629 141.882ZM568.391 140.956C568.339 140.464 568.155 140.066 567.841 139.763C567.527 139.459 567.093 139.307 566.538 139.307C566.046 139.307 565.633 139.449 565.298 139.731C564.973 140.014 564.759 140.422 564.654 140.956H568.391ZM574.693 145.964C573.804 145.964 573.061 145.739 572.464 145.289C571.867 144.829 571.459 144.274 571.239 143.625L572.857 142.966C572.982 143.395 573.202 143.745 573.516 144.018C573.83 144.29 574.222 144.426 574.693 144.426C575.06 144.426 575.353 144.342 575.573 144.175C575.803 143.997 575.918 143.782 575.918 143.531C575.918 143.259 575.787 143.055 575.526 142.918C575.264 142.772 574.861 142.631 574.317 142.495C573.751 142.338 573.286 142.186 572.919 142.039C572.563 141.882 572.255 141.642 571.993 141.317C571.731 140.993 571.601 140.558 571.601 140.014C571.601 139.595 571.716 139.218 571.946 138.883C572.176 138.549 572.501 138.287 572.919 138.098C573.348 137.9 573.846 137.8 574.411 137.8C575.185 137.8 575.866 137.978 576.452 138.334C577.049 138.69 577.431 139.156 577.598 139.731L575.997 140.406C575.892 140.051 575.693 139.773 575.4 139.574C575.107 139.365 574.788 139.26 574.442 139.26C574.128 139.26 573.872 139.328 573.673 139.464C573.485 139.59 573.39 139.763 573.39 139.983C573.39 140.223 573.505 140.401 573.736 140.516C573.977 140.631 574.364 140.757 574.898 140.893C575.473 141.019 575.95 141.16 576.326 141.317C576.714 141.474 577.043 141.73 577.315 142.086C577.598 142.432 577.739 142.903 577.739 143.499C577.739 143.949 577.609 144.363 577.347 144.74C577.096 145.117 576.74 145.415 576.279 145.635C575.819 145.854 575.29 145.964 574.693 145.964Z" fill="#2B266D"/>
<path d="M644.948 39H505.526C502.883 39 500.74 40.8984 500.74 43.2403V110.981C500.74 113.323 502.883 115.221 505.526 115.221H644.948C647.591 115.221 649.734 113.323 649.734 110.981V43.2403C649.734 40.8984 647.591 39 644.948 39Z" fill="#2B266D" stroke="#2B266D" stroke-width="1.74353" stroke-miterlimit="10"/>
<path d="M645.081 39H509.532C506.962 39 504.879 40.8518 504.879 43.1361V107.291C504.879 109.576 506.962 111.428 509.532 111.428H645.081C647.651 111.428 649.734 109.576 649.734 107.291V43.1361C649.734 40.8518 647.651 39 645.081 39Z" fill="#FF5787" stroke="#2B266D" stroke-width="2" stroke-miterlimit="10"/>
<path d="M584.625 253.568H416.853C413.672 253.568 411.094 255.852 411.094 258.67V340.186C411.094 343.004 413.672 345.288 416.853 345.288H584.625C587.806 345.288 590.384 343.004 590.384 340.186V258.67C590.384 255.852 587.806 253.568 584.625 253.568Z" fill="#2B266D" stroke="#2B266D" stroke-width="2.09807" stroke-miterlimit="10"/>
<path d="M584.786 253.567H421.673C418.581 253.567 416.074 255.795 416.074 258.544V335.745C416.074 338.494 418.581 340.722 421.673 340.722H584.786C587.878 340.722 590.385 338.494 590.385 335.745V258.544C590.385 255.795 587.878 253.567 584.786 253.567Z" fill="#5ED7B1" stroke="#2B266D" stroke-width="2" stroke-miterlimit="10"/>
<rect x="492.854" y="291.891" width="85.4951" height="7.88547" rx="3.94273" fill="#2B266D"/>
<rect x="492.854" y="309.868" width="85.4951" height="7.88547" rx="3.94273" fill="#2B266D"/>
<path d="M432.173 265.472H436.601C437.333 265.472 437.977 265.613 438.532 265.896C439.086 266.168 439.51 266.56 439.803 267.073C440.107 267.576 440.259 268.162 440.259 268.832C440.259 269.502 440.107 270.088 439.803 270.59C439.51 271.093 439.086 271.485 438.532 271.768C437.977 272.04 437.333 272.176 436.601 272.176H434.308V276.462H432.173V265.472ZM436.412 270.339C436.946 270.339 437.365 270.208 437.668 269.946C437.972 269.674 438.123 269.303 438.123 268.832C438.123 268.35 437.972 267.979 437.668 267.717C437.365 267.445 436.946 267.309 436.412 267.309H434.308V270.339H436.412ZM445.787 271.375C445.787 270.925 445.646 270.574 445.363 270.323C445.08 270.062 444.698 269.931 444.217 269.931C443.788 269.931 443.427 270.056 443.133 270.307C442.851 270.559 442.689 270.894 442.647 271.312L440.888 270.998C441.014 270.224 441.386 269.601 442.003 269.13C442.631 268.659 443.369 268.423 444.217 268.423C445.274 268.423 446.117 268.706 446.745 269.271C447.383 269.826 447.702 270.616 447.702 271.642V276.462H445.787V275.316C445.567 275.703 445.237 276.012 444.798 276.242C444.369 276.473 443.908 276.588 443.416 276.588C442.903 276.588 442.448 276.488 442.05 276.289C441.652 276.08 441.338 275.797 441.108 275.442C440.888 275.086 440.778 274.683 440.778 274.233C440.778 273.458 441.071 272.856 441.658 272.427C442.244 271.998 443.128 271.721 444.311 271.595L445.787 271.454V271.375ZM442.694 274.17C442.694 274.452 442.799 274.683 443.008 274.861C443.217 275.039 443.5 275.128 443.856 275.128C444.452 275.128 444.923 274.929 445.269 274.531C445.614 274.133 445.787 273.636 445.787 273.039V272.867L444.28 273.039C443.767 273.102 443.374 273.233 443.102 273.432C442.83 273.631 442.694 273.877 442.694 274.17ZM456.504 268.549L452.327 279.32H450.318L451.542 276.148L448.465 268.549H450.616L452.516 273.636L454.478 268.549H456.504ZM457.592 268.549H459.57V269.758C459.8 269.339 460.104 269.015 460.481 268.785C460.868 268.544 461.323 268.423 461.847 268.423C462.475 268.423 462.998 268.554 463.417 268.816C463.835 269.067 464.134 269.433 464.312 269.915C464.542 269.486 464.887 269.13 465.348 268.847C465.808 268.565 466.337 268.423 466.934 268.423C467.781 268.423 468.462 268.675 468.975 269.177C469.498 269.669 469.76 270.307 469.76 271.093V276.462H467.781V271.642C467.781 271.161 467.656 270.784 467.405 270.512C467.153 270.239 466.798 270.103 466.337 270.103C465.814 270.103 465.4 270.313 465.097 270.731C464.804 271.15 464.657 271.715 464.657 272.427V276.462H462.679V271.642C462.679 271.161 462.553 270.784 462.302 270.512C462.061 270.239 461.716 270.103 461.266 270.103C460.732 270.103 460.313 270.318 460.01 270.747C459.717 271.166 459.57 271.731 459.57 272.443V276.462H457.592V268.549ZM471.259 272.506C471.259 271.794 471.405 271.129 471.698 270.512C472.002 269.884 472.447 269.381 473.033 269.004C473.619 268.617 474.331 268.423 475.168 268.423C476.016 268.423 476.738 268.607 477.335 268.973C477.931 269.339 478.381 269.816 478.685 270.402C478.988 270.988 479.14 271.6 479.14 272.239C479.14 272.553 479.13 272.814 479.109 273.024H473.237C473.32 273.62 473.546 274.086 473.912 274.421C474.278 274.756 474.744 274.923 475.309 274.923C475.77 274.923 476.157 274.819 476.471 274.609C476.785 274.4 476.994 274.102 477.099 273.714L478.952 274.217C478.732 274.96 478.298 275.541 477.649 275.96C477 276.378 476.209 276.588 475.278 276.588C474.44 276.588 473.718 276.399 473.111 276.022C472.504 275.635 472.044 275.128 471.73 274.499C471.416 273.871 471.259 273.207 471.259 272.506ZM477.021 271.579C476.968 271.087 476.785 270.69 476.471 270.386C476.157 270.082 475.723 269.931 475.168 269.931C474.676 269.931 474.263 270.072 473.928 270.355C473.603 270.637 473.389 271.045 473.284 271.579H477.021ZM480.637 268.549H482.615V269.742C482.876 269.345 483.222 269.025 483.651 268.785C484.091 268.544 484.583 268.423 485.127 268.423C485.996 268.423 486.692 268.685 487.215 269.208C487.749 269.732 488.016 270.423 488.016 271.281V276.462H486.037V271.752C486.037 271.281 485.901 270.904 485.629 270.621C485.357 270.328 484.991 270.182 484.53 270.182C483.923 270.182 483.452 270.428 483.117 270.92C482.782 271.412 482.615 272.103 482.615 272.992V276.462H480.637V268.549ZM494.362 276.384C493.985 276.52 493.561 276.588 493.09 276.588C492.253 276.588 491.578 276.357 491.065 275.897C490.552 275.436 490.295 274.761 490.295 273.871V270.213H488.961V268.549H490.295V266.225H492.274V268.549H494.268V270.213H492.274V273.683C492.274 274.049 492.363 274.337 492.54 274.547C492.729 274.745 492.98 274.845 493.294 274.845C493.66 274.845 493.969 274.782 494.22 274.656L494.362 276.384ZM499.495 268.549H501.474V269.758C501.704 269.339 502.007 269.015 502.384 268.785C502.772 268.544 503.227 268.423 503.75 268.423C504.378 268.423 504.902 268.554 505.32 268.816C505.739 269.067 506.037 269.433 506.215 269.915C506.445 269.486 506.791 269.13 507.251 268.847C507.712 268.565 508.241 268.423 508.837 268.423C509.685 268.423 510.365 268.675 510.878 269.177C511.402 269.669 511.663 270.307 511.663 271.093V276.462H509.685V271.642C509.685 271.161 509.559 270.784 509.308 270.512C509.057 270.239 508.701 270.103 508.241 270.103C507.717 270.103 507.304 270.313 507 270.731C506.707 271.15 506.561 271.715 506.561 272.427V276.462H504.582V271.642C504.582 271.161 504.457 270.784 504.206 270.512C503.965 270.239 503.619 270.103 503.169 270.103C502.635 270.103 502.217 270.318 501.913 270.747C501.62 271.166 501.474 271.731 501.474 272.443V276.462H499.495V268.549ZM513.162 272.506C513.162 271.794 513.309 271.129 513.602 270.512C513.905 269.884 514.35 269.381 514.936 269.004C515.522 268.617 516.234 268.423 517.071 268.423C517.919 268.423 518.641 268.607 519.238 268.973C519.835 269.339 520.285 269.816 520.588 270.402C520.892 270.988 521.044 271.6 521.044 272.239C521.044 272.553 521.033 272.814 521.012 273.024H515.14C515.224 273.62 515.449 274.086 515.815 274.421C516.182 274.756 516.647 274.923 517.213 274.923C517.673 274.923 518.06 274.819 518.374 274.609C518.688 274.4 518.898 274.102 519.003 273.714L520.855 274.217C520.635 274.96 520.201 275.541 519.552 275.96C518.903 276.378 518.113 276.588 517.181 276.588C516.344 276.588 515.622 276.399 515.015 276.022C514.408 275.635 513.947 275.128 513.633 274.499C513.319 273.871 513.162 273.207 513.162 272.506ZM518.924 271.579C518.872 271.087 518.688 270.69 518.374 270.386C518.06 270.082 517.626 269.931 517.071 269.931C516.579 269.931 516.166 270.072 515.831 270.355C515.507 270.637 515.292 271.045 515.187 271.579H518.924ZM527.096 276.384C526.72 276.52 526.296 276.588 525.825 276.588C524.987 276.588 524.312 276.357 523.799 275.897C523.286 275.436 523.03 274.761 523.03 273.871V270.213H521.695V268.549H523.03V266.225H525.008V268.549H527.002V270.213H525.008V273.683C525.008 274.049 525.097 274.337 525.275 274.547C525.464 274.745 525.715 274.845 526.029 274.845C526.395 274.845 526.704 274.782 526.955 274.656L527.096 276.384ZM528.857 265.346H530.835V269.774C531.097 269.345 531.442 269.015 531.871 268.785C532.311 268.544 532.803 268.423 533.347 268.423C534.237 268.423 534.949 268.685 535.483 269.208C536.027 269.732 536.299 270.423 536.299 271.281V276.462H534.321V271.768C534.321 271.276 534.179 270.888 533.897 270.606C533.614 270.323 533.232 270.182 532.751 270.182C532.144 270.182 531.673 270.433 531.338 270.936C531.003 271.427 530.835 272.123 530.835 273.024V276.462H528.857V265.346ZM541.915 276.588C541.13 276.588 540.423 276.415 539.795 276.07C539.167 275.714 538.675 275.227 538.32 274.609C537.964 273.981 537.786 273.28 537.786 272.506C537.786 271.731 537.964 271.035 538.32 270.417C538.675 269.789 539.167 269.303 539.795 268.957C540.423 268.601 541.13 268.423 541.915 268.423C542.7 268.423 543.407 268.601 544.035 268.957C544.663 269.303 545.155 269.789 545.51 270.417C545.866 271.035 546.044 271.731 546.044 272.506C546.044 273.28 545.866 273.981 545.51 274.609C545.155 275.227 544.663 275.714 544.035 276.07C543.407 276.415 542.7 276.588 541.915 276.588ZM539.78 272.506C539.78 273.217 539.973 273.793 540.361 274.233C540.758 274.662 541.277 274.876 541.915 274.876C542.553 274.876 543.066 274.656 543.454 274.217C543.851 273.777 544.05 273.207 544.05 272.506C544.05 271.804 543.851 271.234 543.454 270.794C543.066 270.355 542.553 270.135 541.915 270.135C541.277 270.135 540.758 270.355 540.361 270.794C539.973 271.223 539.78 271.794 539.78 272.506ZM550.876 276.588C550.101 276.588 549.426 276.42 548.851 276.085C548.285 275.74 547.851 275.258 547.548 274.641C547.254 274.023 547.108 273.311 547.108 272.506C547.108 271.7 547.254 270.988 547.548 270.37C547.851 269.753 548.285 269.276 548.851 268.942C549.416 268.596 550.081 268.423 550.845 268.423C551.326 268.423 551.771 268.518 552.179 268.706C552.587 268.884 552.907 269.125 553.137 269.428V265.346H555.115V276.462H553.137V275.551C552.938 275.865 552.634 276.117 552.226 276.305C551.818 276.493 551.368 276.588 550.876 276.588ZM549.07 272.506C549.07 273.217 549.259 273.793 549.636 274.233C550.023 274.662 550.531 274.876 551.159 274.876C551.797 274.876 552.305 274.662 552.682 274.233C553.069 273.793 553.262 273.217 553.262 272.506C553.262 271.794 553.069 271.223 552.682 270.794C552.305 270.355 551.797 270.135 551.159 270.135C550.531 270.135 550.023 270.355 549.636 270.794C549.259 271.223 549.07 271.794 549.07 272.506ZM559.801 276.588C558.911 276.588 558.168 276.363 557.572 275.913C556.975 275.452 556.567 274.897 556.347 274.248L557.964 273.589C558.09 274.018 558.31 274.369 558.624 274.641C558.938 274.913 559.33 275.049 559.801 275.049C560.168 275.049 560.461 274.965 560.68 274.798C560.911 274.62 561.026 274.405 561.026 274.154C561.026 273.882 560.895 273.678 560.633 273.542C560.372 273.395 559.969 273.254 559.424 273.118C558.859 272.961 558.393 272.809 558.027 272.663C557.671 272.506 557.362 272.265 557.101 271.94C556.839 271.616 556.708 271.181 556.708 270.637C556.708 270.219 556.823 269.842 557.054 269.507C557.284 269.172 557.608 268.91 558.027 268.722C558.456 268.523 558.953 268.423 559.519 268.423C560.293 268.423 560.973 268.601 561.56 268.957C562.156 269.313 562.538 269.779 562.706 270.355L561.104 271.03C561 270.674 560.801 270.396 560.508 270.198C560.215 269.988 559.895 269.884 559.55 269.884C559.236 269.884 558.98 269.952 558.781 270.088C558.592 270.213 558.498 270.386 558.498 270.606C558.498 270.847 558.613 271.024 558.843 271.14C559.084 271.255 559.471 271.38 560.005 271.516C560.581 271.642 561.057 271.783 561.434 271.94C561.821 272.097 562.151 272.354 562.423 272.71C562.706 273.055 562.847 273.526 562.847 274.123C562.847 274.573 562.716 274.986 562.455 275.363C562.203 275.74 561.847 276.038 561.387 276.258C560.926 276.478 560.398 276.588 559.801 276.588Z" fill="#2B266D"/>
<path d="M478.275 289.95H435.642C433.145 289.95 431.121 291.974 431.121 294.471V318.095C431.121 320.592 433.145 322.617 435.642 322.617H478.275C480.772 322.617 482.797 320.592 482.797 318.095V294.471C482.797 291.974 480.772 289.95 478.275 289.95Z" fill="white" stroke="#2B266D" stroke-width="2.09807" stroke-miterlimit="10"/>
<path d="M482.366 294.808H431.551C431.314 294.808 431.121 295 431.121 295.238V302.34C431.121 302.577 431.314 302.77 431.551 302.77H482.366C482.604 302.77 482.797 302.577 482.797 302.34V295.238C482.797 295 482.604 294.808 482.366 294.808Z" fill="#2B266D"/>
<path d="M435.904 311.213H459.812" stroke="#2B266D" stroke-width="2.09807" stroke-miterlimit="10" stroke-linecap="round"/>
<path d="M435.904 315.913H454.011" stroke="#2B266D" stroke-width="2.09807" stroke-miterlimit="10" stroke-linecap="round"/>
<path d="M575.386 92.8368C585.21 92.8368 593.174 84.8728 593.174 75.0488C593.174 65.2248 585.21 57.2609 575.386 57.2609C565.562 57.2609 557.598 65.2248 557.598 75.0488C557.598 84.8728 565.562 92.8368 575.386 92.8368Z" fill="white" stroke="#FF5787" stroke-width="1.85872" stroke-miterlimit="10"/>
<path d="M583.174 74.3891L571.222 67.4933C570.72 67.2052 570.079 67.5676 570.079 68.1531V81.9541C570.079 82.5396 570.711 82.902 571.222 82.6139L583.174 75.7181C583.676 75.43 583.676 74.6958 583.174 74.3984V74.3891Z" fill="#2B266D"/>
<path d="M608.155 328.033L595.314 333.151L606.383 348.778C606.568 349.032 606.5 349.389 606.227 349.558L591.82 359.024C591.557 359.203 591.187 359.137 591.012 358.874L580.05 343.388L570.53 353.155C570.033 353.671 569.138 353.399 569.031 352.694L562.139 305.766C561.886 304.235 563.579 303.099 564.971 303.869L608.242 326.521C608.885 326.859 608.836 327.77 608.155 328.033Z" fill="white" stroke="#2B266D" stroke-width="1.98225" stroke-miterlimit="10"/>
<path d="M609.169 373H571.033" stroke="#2B266D" stroke-width="1.98225" stroke-miterlimit="10" stroke-linecap="round"/>
</svg>
