<svg width="800" height="400" viewBox="0 0 800 400" fill="none" xmlns="http://www.w3.org/2000/svg">
<rect x="247.212" y="20" width="281.771" height="328.18" rx="16.5747" fill="#2B266D"/>
<path d="M144.406 354.788C141.398 354.788 139.945 351.104 142.144 349.05L170.379 322.68C170.993 322.107 171.802 321.788 172.642 321.788H523.446C524.225 321.788 524.979 322.062 525.576 322.563L557.019 348.933C559.39 350.922 557.984 354.788 554.889 354.788H144.406Z" fill="#2B266D"/>
<rect x="254.842" y="21" width="279.771" height="332.81" rx="15.5747" fill="white" stroke="#2B266D" stroke-width="2"/>
<path d="M286.587 57.4118C289.138 57.4118 291.205 55.3444 291.205 52.7941C291.205 50.2439 289.138 48.1765 286.587 48.1765C284.037 48.1765 281.97 50.2439 281.97 52.7941C281.97 55.3444 284.037 57.4118 286.587 57.4118Z" fill="#2B266D"/>
<path d="M300.843 57.411C303.393 57.411 305.461 55.3437 305.461 52.7934C305.461 50.2432 303.393 48.1758 300.843 48.1758C298.293 48.1758 296.226 50.2432 296.226 52.7934C296.226 55.3437 298.293 57.411 300.843 57.411Z" fill="#2B266D"/>
<path d="M315.087 57.4118C317.638 57.4118 319.705 55.3444 319.705 52.7941C319.705 50.2439 317.638 48.1765 315.087 48.1765C312.537 48.1765 310.47 50.2439 310.47 52.7941C310.47 55.3444 312.537 57.4118 315.087 57.4118Z" fill="#2B266D"/>
<path d="M496.87 78.7881H289.13C285.192 78.7881 282 81.4722 282 84.7832V177.793C282 181.104 285.192 183.788 289.13 183.788H496.87C500.808 183.788 504 181.104 504 177.793V84.7832C504 81.4722 500.808 78.7881 496.87 78.7881Z" fill="#FF5787" stroke="#FF5787" stroke-width="2.17812" stroke-miterlimit="10"/>
<path d="M392.845 152.477C404.357 152.477 413.689 143.145 413.689 131.633C413.689 120.121 404.357 110.788 392.845 110.788C381.332 110.788 372 120.121 372 131.633C372 143.145 381.332 152.477 392.845 152.477Z" fill="white" stroke="#FF5787" stroke-width="2.17812" stroke-miterlimit="10"/>
<path d="M401.97 130.86L387.965 122.779C387.376 122.441 386.625 122.866 386.625 123.552V139.725C386.625 140.411 387.366 140.836 387.965 140.498L401.97 132.417C402.558 132.08 402.558 131.219 401.97 130.871V130.86Z" fill="#2B266D"/>
<rect x="458.5" y="171.288" width="150" height="165" rx="7.5" fill="#2B266D" stroke="#2B266D" stroke-width="3"/>
<rect x="464" y="170.788" width="151.391" height="162.348" rx="8" fill="white" stroke="#2B266D" stroke-width="2"/>
<rect x="481" y="268" width="96" height="8" rx="4" fill="#D5D4D2"/>
<rect x="481" y="286" width="118" height="8" rx="4" fill="#D5D4D2"/>
<rect x="481" y="304" width="76" height="8" rx="4" fill="#D5D4D2"/>
<rect x="482" y="188.788" width="115" height="64" rx="5" fill="#8EE9CC" stroke="#2B266D" stroke-width="2"/>
<path d="M655.651 380.69H562.939" stroke="#2B266D" stroke-width="2" stroke-miterlimit="10" stroke-linecap="round"/>
<path d="M633.508 318.097L619.144 324.032L631.526 342.154C631.733 342.448 631.657 342.862 631.352 343.058L615.234 354.036C614.94 354.243 614.526 354.166 614.33 353.862L602.067 335.903L591.416 347.229C590.861 347.828 589.859 347.512 589.739 346.695L582.028 292.275C581.745 290.5 583.64 289.182 585.197 290.075L633.606 316.343C634.325 316.735 634.271 317.792 633.508 318.097Z" fill="white" stroke="#2B266D" stroke-width="2" stroke-miterlimit="10"/>
<path d="M640.597 178.342L662.966 188.569" stroke="#2B266D" stroke-width="2" stroke-miterlimit="10" stroke-linecap="round"/>
<path d="M641.036 166.178L664.081 157.596" stroke="#2B266D" stroke-width="2" stroke-miterlimit="10" stroke-linecap="round"/>
<path d="M620.582 156.833L612 133.788" stroke="#2B266D" stroke-width="2" stroke-miterlimit="10" stroke-linecap="round"/>
<path d="M632.745 157.269L642.971 134.9" stroke="#2B266D" stroke-width="2" stroke-miterlimit="10" stroke-linecap="round"/>
</svg>
