<svg width="800" height="400" viewBox="0 0 800 400" fill="none" xmlns="http://www.w3.org/2000/svg">
<rect x="297.212" y="38.2119" width="281.771" height="328.18" rx="16.5747" fill="#2B266D"/>
<path d="M194.406 373C191.398 373 189.945 369.316 192.144 367.262L220.379 340.892C220.993 340.319 221.802 340 222.642 340H573.446C574.225 340 574.979 340.274 575.576 340.775L607.019 367.145C609.39 369.134 607.984 373 604.889 373H194.406Z" fill="#2B266D"/>
<rect x="304.842" y="39.2119" width="279.771" height="332.81" rx="15.5747" fill="white" stroke="#2B266D" stroke-width="2"/>
<rect x="337" y="149" width="210" height="8" rx="4" fill="#D5D4D2"/>
<rect x="337" y="167" width="178" height="8" rx="4" fill="#D5D4D2"/>
<rect x="337" y="185" width="123" height="8" rx="4" fill="#D5D4D2"/>
<rect x="337" y="203" width="210" height="8" rx="4" fill="#D5D4D2"/>
<rect x="337" y="221" width="182" height="8" rx="4" fill="#D5D4D2"/>
<rect x="337" y="239" width="210" height="8" rx="4" fill="#D5D4D2"/>
<rect x="337" y="257" width="175" height="8" rx="4" fill="#D5D4D2"/>
<rect x="337" y="275" width="139" height="8" rx="4" fill="#D5D4D2"/>
<rect x="337" y="293" width="192" height="8" rx="4" fill="#D5D4D2"/>
<rect x="337" y="311" width="210" height="8" rx="4" fill="#D5D4D2"/>
<rect x="337" y="329" width="159" height="8" rx="4" fill="#D5D4D2"/>
<rect x="331" y="64" width="126" height="57" rx="15" fill="#ECEBEA"/>
<rect x="160" y="106" width="126" height="57" rx="15" fill="#2B266D"/>
<rect x="164" y="107" width="124" height="54.6" rx="14" fill="#9C96F0" stroke="#2B266D" stroke-width="2"/>
<rect x="159.622" y="175" width="56.3296" height="56" rx="15" fill="#2B266D"/>
<rect x="163.622" y="176" width="54.3296" height="54" rx="14" fill="#4EA298" stroke="#2B266D" stroke-width="2"/>
<rect x="229" y="175" width="56.3296" height="56" rx="15" fill="#2B266D"/>
<rect x="233" y="176" width="54.3296" height="54" rx="14" fill="#FBC63C" stroke="#2B266D" stroke-width="2"/>
<rect x="238" y="82" width="126" height="57" rx="15" fill="#2B266D"/>
<rect x="242" y="83" width="124" height="55" rx="14" fill="#FF5787" stroke="#2B266D" stroke-width="2"/>
<path d="M281.248 107V101.78L276.928 94.4H279.556L282.472 99.476L285.406 94.4H288.034L283.696 101.78V107H281.248ZM294.089 107.144C290.399 107.144 287.699 104.426 287.699 100.7C287.699 96.974 290.399 94.256 294.089 94.256C297.761 94.256 300.461 96.974 300.461 100.7C300.461 104.426 297.761 107.144 294.089 107.144ZM290.165 100.7C290.165 103.202 291.803 105.02 294.089 105.02C296.375 105.02 297.995 103.202 297.995 100.7C297.995 98.198 296.375 96.362 294.089 96.362C291.803 96.362 290.165 98.198 290.165 100.7ZM307.253 107.144C304.301 107.144 302.285 105.524 302.285 102.428V94.4H304.589V102.446C304.589 104.156 305.687 105.002 307.253 105.002C308.837 105.002 309.935 104.156 309.935 102.446V94.4H312.221V102.428C312.221 105.524 310.205 107.144 307.253 107.144ZM314.607 107L314.589 94.4H319.449C321.915 94.4 323.517 95.858 323.517 98.126C323.517 99.548 322.779 100.754 321.537 101.366L324.885 107H322.023L319.053 101.834H317.055V107H314.607ZM317.055 99.728H319.071C320.331 99.728 321.051 99.134 321.051 98.126C321.051 97.118 320.331 96.506 319.071 96.506H317.055V99.728ZM276.761 127V114.4H279.209V124.876H285.059V127H276.761ZM291.857 127.144C288.167 127.144 285.467 124.426 285.467 120.7C285.467 116.974 288.167 114.256 291.857 114.256C295.529 114.256 298.229 116.974 298.229 120.7C298.229 124.426 295.529 127.144 291.857 127.144ZM287.933 120.7C287.933 123.202 289.571 125.02 291.857 125.02C294.143 125.02 295.763 123.202 295.763 120.7C295.763 118.198 294.143 116.362 291.857 116.362C289.571 116.362 287.933 118.198 287.933 120.7ZM305.668 127.144C302.464 127.144 299.494 125.002 299.494 120.7C299.494 116.398 302.536 114.256 305.83 114.256C308.854 114.256 310.996 115.84 311.482 118.45L309.07 118.954C308.764 117.37 307.504 116.362 305.812 116.362C303.562 116.362 301.96 117.946 301.96 120.7C301.96 123.454 303.562 125.02 305.776 125.02C307.684 125.02 308.962 123.886 309.088 122.248H305.344V120.268H311.356V127H309.142V125.47C308.584 126.496 307.198 127.144 305.668 127.144ZM319.419 127.144C315.729 127.144 313.029 124.426 313.029 120.7C313.029 116.974 315.729 114.256 319.419 114.256C323.091 114.256 325.791 116.974 325.791 120.7C325.791 124.426 323.091 127.144 319.419 127.144ZM315.495 120.7C315.495 123.202 317.133 125.02 319.419 125.02C321.705 125.02 323.325 123.202 323.325 120.7C323.325 118.198 321.705 116.362 319.419 116.362C317.133 116.362 315.495 118.198 315.495 120.7Z" fill="white"/>
<path d="M396.407 133.709L382.349 139.518L394.467 157.256C394.67 157.544 394.595 157.949 394.297 158.141L378.523 168.886C378.236 169.089 377.831 169.014 377.639 168.716L365.638 151.138L355.215 162.224C354.671 162.81 353.691 162.501 353.573 161.702L346.028 108.434C345.751 106.697 347.605 105.407 349.129 106.281L396.503 131.993C397.206 132.376 397.153 133.41 396.407 133.709Z" fill="white" stroke="#2B266D" stroke-width="3" stroke-miterlimit="10"/>
</svg>
