<svg width="800" height="400" viewBox="0 0 800 400" fill="none" xmlns="http://www.w3.org/2000/svg">
<g clip-path="url(#clip0_3820_6616)">
<rect x="297.212" y="38.2119" width="281.771" height="328.18" rx="16.5747" fill="#2B266D"/>
<path d="M194.406 373C191.398 373 189.945 369.316 192.144 367.262L220.379 340.892C220.993 340.319 221.802 340 222.642 340H573.446C574.225 340 574.979 340.274 575.576 340.775L607.019 367.145C609.39 369.134 607.984 373 604.889 373H194.406Z" fill="#2B266D"/>
<rect x="304.842" y="39.2119" width="279.771" height="332.81" rx="15.5747" fill="white" stroke="#2B266D" stroke-width="2"/>
<rect x="337" y="149" width="210" height="8" rx="4" fill="#D5D4D2"/>
<rect x="337" y="167" width="178" height="8" rx="4" fill="#D5D4D2"/>
<rect x="337" y="185" width="123" height="8" rx="4" fill="#D5D4D2"/>
<rect x="337" y="203" width="210" height="8" rx="4" fill="#D5D4D2"/>
<rect x="337" y="221" width="182" height="8" rx="4" fill="#D5D4D2"/>
<rect x="337" y="239" width="210" height="8" rx="4" fill="#D5D4D2"/>
<rect x="337" y="257" width="175" height="8" rx="4" fill="#D5D4D2"/>
<rect x="337" y="275" width="139" height="8" rx="4" fill="#D5D4D2"/>
<rect x="337" y="293" width="192" height="8" rx="4" fill="#D5D4D2"/>
<rect x="337" y="311" width="210" height="8" rx="4" fill="#D5D4D2"/>
<rect x="337" y="329" width="159" height="8" rx="4" fill="#D5D4D2"/>
<rect x="431" y="64" width="126" height="57" rx="15" fill="#ECEBEA"/>
<rect x="522" y="82" width="126" height="57" rx="15" fill="#2B266D"/>
<rect x="526" y="83" width="124" height="55" rx="14" fill="#FF5787" stroke="#2B266D" stroke-width="2"/>
<path d="M565.248 107V101.78L560.928 94.4H563.556L566.472 99.476L569.406 94.4H572.034L567.696 101.78V107H565.248ZM578.089 107.144C574.399 107.144 571.699 104.426 571.699 100.7C571.699 96.974 574.399 94.256 578.089 94.256C581.761 94.256 584.461 96.974 584.461 100.7C584.461 104.426 581.761 107.144 578.089 107.144ZM574.165 100.7C574.165 103.202 575.803 105.02 578.089 105.02C580.375 105.02 581.995 103.202 581.995 100.7C581.995 98.198 580.375 96.362 578.089 96.362C575.803 96.362 574.165 98.198 574.165 100.7ZM591.253 107.144C588.301 107.144 586.285 105.524 586.285 102.428V94.4H588.589V102.446C588.589 104.156 589.687 105.002 591.253 105.002C592.837 105.002 593.935 104.156 593.935 102.446V94.4H596.221V102.428C596.221 105.524 594.205 107.144 591.253 107.144ZM598.607 107L598.589 94.4H603.449C605.915 94.4 607.517 95.858 607.517 98.126C607.517 99.548 606.779 100.754 605.537 101.366L608.885 107H606.023L603.053 101.834H601.055V107H598.607ZM601.055 99.728H603.071C604.331 99.728 605.051 99.134 605.051 98.126C605.051 97.118 604.331 96.506 603.071 96.506H601.055V99.728ZM560.761 127V114.4H563.209V124.876H569.059V127H560.761ZM575.857 127.144C572.167 127.144 569.467 124.426 569.467 120.7C569.467 116.974 572.167 114.256 575.857 114.256C579.529 114.256 582.229 116.974 582.229 120.7C582.229 124.426 579.529 127.144 575.857 127.144ZM571.933 120.7C571.933 123.202 573.571 125.02 575.857 125.02C578.143 125.02 579.763 123.202 579.763 120.7C579.763 118.198 578.143 116.362 575.857 116.362C573.571 116.362 571.933 118.198 571.933 120.7ZM589.668 127.144C586.464 127.144 583.494 125.002 583.494 120.7C583.494 116.398 586.536 114.256 589.83 114.256C592.854 114.256 594.996 115.84 595.482 118.45L593.07 118.954C592.764 117.37 591.504 116.362 589.812 116.362C587.562 116.362 585.96 117.946 585.96 120.7C585.96 123.454 587.562 125.02 589.776 125.02C591.684 125.02 592.962 123.886 593.088 122.248H589.344V120.268H595.356V127H593.142V125.47C592.584 126.496 591.198 127.144 589.668 127.144ZM603.419 127.144C599.729 127.144 597.029 124.426 597.029 120.7C597.029 116.974 599.729 114.256 603.419 114.256C607.091 114.256 609.791 116.974 609.791 120.7C609.791 124.426 607.091 127.144 603.419 127.144ZM599.495 120.7C599.495 123.202 601.133 125.02 603.419 125.02C605.705 125.02 607.325 123.202 607.325 120.7C607.325 118.198 605.705 116.362 603.419 116.362C601.133 116.362 599.495 118.198 599.495 120.7Z" fill="white"/>
<path d="M680.407 133.709L666.349 139.518L678.467 157.256C678.67 157.544 678.595 157.949 678.297 158.141L662.523 168.886C662.236 169.089 661.831 169.014 661.639 168.716L649.638 151.138L639.215 162.224C638.671 162.81 637.691 162.501 637.573 161.702L630.028 108.434C629.751 106.697 631.605 105.407 633.129 106.281L680.503 131.993C681.206 132.376 681.153 133.41 680.407 133.709Z" fill="white" stroke="#2B266D" stroke-width="3" stroke-miterlimit="10"/>
<path d="M685 399L613 399" stroke="#2B266D" stroke-width="2.17812" stroke-miterlimit="10" stroke-linecap="round"/>
</g>
<defs>
<clipPath id="clip0_3820_6616">
<rect width="800" height="400" fill="white"/>
</clipPath>
</defs>
</svg>
