<svg width="800" height="400" viewBox="0 0 800 400" fill="none" xmlns="http://www.w3.org/2000/svg">
<path d="M180.087 374.202C176.984 374.202 175.491 370.397 177.767 368.287L208.156 340.112C208.787 339.527 209.615 339.202 210.476 339.202H585.376C586.174 339.202 586.947 339.481 587.56 339.992L621.401 368.167C623.854 370.21 622.41 374.202 619.217 374.202H180.087Z" fill="#2B266D"/>
<path d="M451.769 371.653H222.931C214.834 371.653 208.278 365.097 208.278 357V43.3268C208.278 35.2301 214.834 28.674 222.931 28.674H451.769C459.865 28.674 466.422 35.2301 466.422 43.3268V356.989C466.422 365.086 459.865 371.642 451.769 371.642V371.653Z" fill="#2B266D"/>
<path d="M459.182 371.017H230.344C222.248 371.017 215.691 364.461 215.691 356.364V44.4858C215.691 36.3891 222.248 29.833 230.344 29.833H459.182C467.279 29.833 473.835 36.3891 473.835 44.4858V356.364C473.835 364.461 467.279 371.017 459.182 371.017Z" fill="white" stroke="#2B266D" stroke-width="2" stroke-miterlimit="10"/>
<rect x="242.613" y="144" width="210" height="8" rx="4" fill="#D5D4D2"/>
<rect x="242.613" y="162" width="107" height="8" rx="4" fill="#D5D4D2"/>
<rect x="242.613" y="180" width="107" height="8" rx="4" fill="#D5D4D2"/>
<rect x="242.613" y="198" width="107" height="8" rx="4" fill="#D5D4D2"/>
<rect x="242.613" y="216" width="107" height="8" rx="4" fill="#D5D4D2"/>
<rect x="242.613" y="234" width="107" height="8" rx="4" fill="#D5D4D2"/>
<rect x="242.613" y="252" width="141" height="8" rx="4" fill="#D5D4D2"/>
<rect x="242.613" y="270" width="107" height="8" rx="4" fill="#D5D4D2"/>
<path d="M244.27 65.1532H248.395V86.3859H244.27V65.1532ZM252.386 65.1532H256.572L265.671 79.8948V65.1532H269.524V86.3859H265.338L256.268 71.6747V86.3859H252.386V65.1532ZM271.776 65.1532H275.992L281.482 81.4721L287.033 65.1532H291.219L283.484 86.3859H279.51L271.776 65.1532ZM302.38 86.6286C300.338 86.6286 298.498 86.1635 296.86 85.2333C295.222 84.2829 293.938 82.9887 293.008 81.3507C292.077 79.6926 291.612 77.8322 291.612 75.7696C291.612 73.707 292.077 71.8567 293.008 70.2187C293.938 68.5605 295.222 67.2664 296.86 66.3362C298.498 65.3857 300.338 64.9105 302.38 64.9105C304.423 64.9105 306.253 65.3857 307.871 66.3362C309.509 67.2664 310.793 68.5605 311.723 70.2187C312.653 71.8567 313.118 73.707 313.118 75.7696C313.118 77.8322 312.653 79.6926 311.723 81.3507C310.793 82.9887 309.509 84.2829 307.871 85.2333C306.253 86.1635 304.423 86.6286 302.38 86.6286ZM295.768 75.7696C295.768 77.1649 296.051 78.4186 296.617 79.5308C297.183 80.6228 297.962 81.4822 298.953 82.109C299.964 82.7359 301.106 83.0494 302.38 83.0494C303.654 83.0494 304.787 82.7359 305.778 82.109C306.768 81.4822 307.547 80.6228 308.113 79.5308C308.679 78.4186 308.963 77.1649 308.963 75.7696C308.963 74.3743 308.679 73.1205 308.113 72.0083C307.547 70.8961 306.768 70.0266 305.778 69.3997C304.787 68.7729 303.654 68.4594 302.38 68.4594C301.106 68.4594 299.964 68.7729 298.953 69.3997C297.962 70.0266 297.183 70.8961 296.617 72.0083C296.051 73.1205 295.768 74.3743 295.768 75.7696ZM316.191 65.1532H320.316V86.3859H316.191V65.1532ZM333.922 86.6286C332.001 86.6286 330.242 86.214 328.645 85.385C327.047 84.5559 325.763 83.3223 324.792 81.6844C323.842 80.0464 323.367 78.0748 323.367 75.7696C323.367 73.4643 323.852 71.4927 324.823 69.8547C325.793 68.2168 327.077 66.9833 328.675 66.1542C330.272 65.3251 332.022 64.9105 333.922 64.9105C335.601 64.9105 337.107 65.2037 338.442 65.7902C339.777 66.3564 340.868 67.1754 341.718 68.2471C342.567 69.3189 343.113 70.5625 343.356 71.978L339.261 72.8273C338.998 71.4725 338.381 70.4108 337.411 69.6424C336.46 68.8538 335.297 68.4594 333.922 68.4594C332.709 68.4594 331.617 68.7425 330.646 69.3087C329.696 69.8749 328.938 70.7141 328.372 71.8263C327.826 72.9183 327.553 74.2327 327.553 75.7696C327.553 77.3064 327.826 78.6309 328.372 79.7431C328.918 80.8351 329.676 81.6642 330.646 82.2304C331.617 82.7764 332.709 83.0494 333.922 83.0494C335.297 83.0494 336.44 82.6955 337.35 81.9877C338.26 81.28 338.856 80.2992 339.14 79.0455L343.295 79.9554C342.769 82.0383 341.677 83.6762 340.019 84.8693C338.381 86.0422 336.349 86.6286 333.922 86.6286ZM345.99 65.1532H360.186V68.7021H350.115V73.3733H358.184V76.9525H350.115V82.8067H360.519V86.3859H345.99V65.1532Z" fill="#2B266D"/>
<path d="M323.394 118.516H246.47C244.34 118.516 242.613 120.243 242.613 122.373V128.999C242.613 131.129 244.34 132.856 246.47 132.856H323.394C325.525 132.856 327.251 131.129 327.251 128.999V122.373C327.251 120.243 325.525 118.516 323.394 118.516Z" fill="#FF5787"/>
<path d="M445.668 324.729H368.744C366.614 324.729 364.887 326.456 364.887 328.586V338.687C364.887 340.817 366.614 342.544 368.744 342.544H445.668C447.798 342.544 449.525 340.817 449.525 338.687V328.586C449.525 326.456 447.798 324.729 445.668 324.729Z" fill="#8EE9CC" stroke="#8EE9CC" stroke-width="2" stroke-miterlimit="10"/>
<path d="M421.073 206.665L432.714 206.572L439.954 219.904L452.695 265.646L447.17 279.21C447.17 279.21 323.809 310.033 322.303 308.921C320.797 307.809 309.874 304.138 309.874 304.138C309.874 304.138 302.426 287.145 302.334 287.597C302.241 288.048 295.534 246.812 295.534 246.812L297.272 234.036L421.073 206.676V206.665Z" fill="white"/>
<rect x="282.005" y="233.908" width="160.11" height="88.1945" rx="17.062" transform="rotate(-14.201 282.005 233.908)" fill="#2B266D"/>
<path d="M443.488 284.063L325.026 313.635C314.694 316.218 304.188 309.928 301.605 299.596L289.732 252.221C287.149 241.888 293.439 231.382 303.771 228.799L422.233 199.227C432.565 196.644 443.071 202.934 445.654 213.266L457.527 260.642C460.11 270.974 453.82 281.48 443.488 284.063Z" fill="#5A51E7" stroke="#2B266D" stroke-width="2" stroke-miterlimit="10"/>
<path d="M306.902 241.289C303.461 242.158 301.353 245.656 302.222 249.096L314.095 296.472C314.964 299.912 318.462 302.02 321.902 301.151L440.364 271.579C443.804 270.711 445.912 267.212 445.043 263.772L433.17 216.397C432.302 212.957 428.803 210.848 425.363 211.717L306.902 241.289Z" fill="white"/>
<path d="M321.786 252.108L335.644 248.635C337.937 248.06 340.063 247.998 342.021 248.447C343.97 248.864 345.605 249.76 346.925 251.135C348.269 252.469 349.204 254.185 349.729 256.282C350.255 258.378 350.24 260.332 349.684 262.143C349.16 263.945 348.142 265.506 346.627 266.826C345.104 268.113 343.196 269.044 340.903 269.618L333.728 271.417L337.09 284.832L330.407 286.507L321.786 252.108ZM338.872 264.017C340.543 263.598 341.751 262.86 342.495 261.803C343.232 260.713 343.416 259.431 343.046 257.957C342.668 256.45 341.902 255.406 340.747 254.825C339.583 254.211 338.166 254.114 336.495 254.532L329.91 256.183L332.287 265.667L338.872 264.017ZM361.746 264.551L370.886 262.261L363.212 251.022L361.746 264.551ZM357.875 243.063L364.116 241.499L385.956 272.585L379.076 274.309L374.366 267.395L361.049 270.732L360.157 279.051L353.277 280.775L357.875 243.063ZM380.62 237.363L387.303 235.688L395.925 270.087L389.241 271.762L380.62 237.363ZM393.769 234.067L405.023 231.247C408.266 230.434 411.379 230.35 414.361 230.996C417.367 231.6 419.981 232.999 422.203 235.193C424.456 237.379 426.047 240.323 426.975 244.025C427.903 247.727 427.889 251.073 426.932 254.064C426.008 257.046 424.367 259.529 422.009 261.513C419.676 263.455 416.887 264.833 413.644 265.646L402.391 268.466L393.769 234.067ZM411.601 259.995C414.877 259.174 417.366 257.575 419.069 255.199C420.804 252.814 421.179 249.656 420.194 245.725C419.208 241.793 417.388 239.185 414.734 237.901C412.103 236.575 409.15 236.323 405.874 237.144L401.795 238.166L407.522 261.017L411.601 259.995Z" fill="#5A51E7"/>
</svg>
