<svg width="800" height="400" viewBox="0 0 800 400" fill="none" xmlns="http://www.w3.org/2000/svg">
<rect x="297.212" y="38.2119" width="281.771" height="328.18" rx="16.5747" fill="#2B266D"/>
<path d="M194.406 373C191.398 373 189.945 369.316 192.144 367.262L220.379 340.892C220.993 340.319 221.802 340 222.642 340H573.446C574.225 340 574.979 340.274 575.576 340.775L607.019 367.145C609.39 369.134 607.984 373 604.889 373H194.406Z" fill="#2B266D"/>
<rect x="304.842" y="39.2119" width="279.771" height="332.81" rx="15.5747" fill="white" stroke="#2B266D" stroke-width="2"/>
<path d="M434.278 131H338.849C336.206 131 334.063 133.168 334.063 135.842V144.158C334.063 146.832 336.206 149 338.849 149H434.278C436.921 149 439.063 146.832 439.063 144.158V135.842C439.063 133.168 436.921 131 434.278 131Z" fill="#2B266D"/>
<rect x="334.063" y="164" width="208" height="8" rx="4" fill="#D5D4D2"/>
<rect x="334.063" y="182" width="140" height="8" rx="4" fill="#D5D4D2"/>
<rect x="334.063" y="200" width="176" height="8" rx="4" fill="#D5D4D2"/>
<rect x="334.063" y="218" width="140" height="8" rx="4" fill="#D5D4D2"/>
<rect x="334.063" y="236" width="176" height="8" rx="4" fill="#D5D4D2"/>
<rect x="339.831" y="264.768" width="146.401" height="37.7421" rx="18.8711" fill="#FF5787" stroke="#FF5787" stroke-width="11.5351"/>
<path d="M355.185 272.936H362.799C364.059 272.936 365.166 273.179 366.12 273.665C367.074 274.133 367.803 274.808 368.307 275.69C368.829 276.554 369.09 277.562 369.09 278.714C369.09 279.866 368.829 280.874 368.307 281.738C367.803 282.602 367.074 283.277 366.12 283.763C365.166 284.231 364.059 284.465 362.799 284.465H358.857V291.836H355.185V272.936ZM362.475 281.306C363.393 281.306 364.113 281.081 364.635 280.631C365.157 280.163 365.418 279.524 365.418 278.714C365.418 277.886 365.157 277.247 364.635 276.797C364.113 276.329 363.393 276.095 362.475 276.095H358.857V281.306H362.475ZM374.23 284.546H379.252L376.741 277.742L374.23 284.546ZM375.013 272.936H378.442L385.705 291.836H381.925L380.386 287.651H373.069L371.53 291.836H367.75L375.013 272.936ZM389.942 284.006L383.462 272.936H387.404L391.778 280.55L396.179 272.936H400.121L393.614 284.006V291.836H389.942V284.006ZM408.446 272.936H412.172L420.272 286.058V272.936H423.701V291.836H419.975L411.902 278.741V291.836H408.446V272.936ZM436.047 292.052C434.229 292.052 432.591 291.638 431.133 290.81C429.675 289.964 428.532 288.812 427.704 287.354C426.876 285.878 426.462 284.222 426.462 282.386C426.462 280.55 426.876 278.903 427.704 277.445C428.532 275.969 429.675 274.817 431.133 273.989C432.591 273.143 434.229 272.72 436.047 272.72C437.865 272.72 439.494 273.143 440.934 273.989C442.392 274.817 443.535 275.969 444.363 277.445C445.191 278.903 445.605 280.55 445.605 282.386C445.605 284.222 445.191 285.878 444.363 287.354C443.535 288.812 442.392 289.964 440.934 290.81C439.494 291.638 437.865 292.052 436.047 292.052ZM430.161 282.386C430.161 283.628 430.413 284.744 430.917 285.734C431.421 286.706 432.114 287.471 432.996 288.029C433.896 288.587 434.913 288.866 436.047 288.866C437.181 288.866 438.189 288.587 439.071 288.029C439.953 287.471 440.646 286.706 441.15 285.734C441.654 284.744 441.906 283.628 441.906 282.386C441.906 281.144 441.654 280.028 441.15 279.038C440.646 278.048 439.953 277.274 439.071 276.716C438.189 276.158 437.181 275.879 436.047 275.879C434.913 275.879 433.896 276.158 432.996 276.716C432.114 277.274 431.421 278.048 430.917 279.038C430.413 280.028 430.161 281.144 430.161 282.386ZM446.277 272.936H450.057L453.702 287.462L457.401 272.936H461.559L465.285 287.462L468.93 272.936H472.71L467.256 291.836H463.368L459.507 277.985L455.619 291.836H451.785L446.277 272.936Z" fill="white"/>
<path d="M552.215 322H456.785C454.142 322 452 324.168 452 326.842V335.158C452 337.832 454.142 340 456.785 340H552.215C554.858 340 557 337.832 557 335.158V326.842C557 324.168 554.858 322 552.215 322Z" fill="#D5D4D2"/>
<path d="M336.963 75.1796H341.008V96H336.963V75.1796ZM344.922 75.1796H349.026L357.949 89.6349V75.1796H361.727V96H357.622L348.729 81.5744V96H344.922V75.1796ZM363.935 75.1796H368.069L373.453 91.1816L378.896 75.1796H383.001L375.416 96H371.52L363.935 75.1796ZM393.946 96.2379C391.943 96.2379 390.138 95.7819 388.532 94.8697C386.926 93.9378 385.667 92.6687 384.755 91.0626C383.843 89.4366 383.387 87.6123 383.387 85.5898C383.387 83.5672 383.843 81.7529 384.755 80.1467C385.667 78.5207 386.926 77.2517 388.532 76.3395C390.138 75.4076 391.943 74.9416 393.946 74.9416C395.948 74.9416 397.743 75.4076 399.329 76.3395C400.935 77.2517 402.194 78.5207 403.107 80.1467C404.019 81.7529 404.475 83.5672 404.475 85.5898C404.475 87.6123 404.019 89.4366 403.107 91.0626C402.194 92.6687 400.935 93.9378 399.329 94.8697C397.743 95.7819 395.948 96.2379 393.946 96.2379ZM387.461 85.5898C387.461 86.958 387.739 88.1874 388.294 89.278C388.85 90.3487 389.613 91.1915 390.585 91.8062C391.576 92.4209 392.696 92.7282 393.946 92.7282C395.195 92.7282 396.305 92.4209 397.277 91.8062C398.248 91.1915 399.012 90.3487 399.567 89.278C400.122 88.1874 400.4 86.958 400.4 85.5898C400.4 84.2216 400.122 82.9922 399.567 81.9016C399.012 80.811 398.248 79.9583 397.277 79.3436C396.305 78.7289 395.195 78.4216 393.946 78.4216C392.696 78.4216 391.576 78.7289 390.585 79.3436C389.613 79.9583 388.85 80.811 388.294 81.9016C387.739 82.9922 387.461 84.2216 387.461 85.5898ZM407.488 75.1796H411.533V96H407.488V75.1796ZM424.875 96.2379C422.991 96.2379 421.266 95.8315 419.7 95.0185C418.133 94.2055 416.874 92.9959 415.922 91.3898C414.99 89.7836 414.524 87.8503 414.524 85.5898C414.524 83.3293 415 81.3959 415.952 79.7898C416.904 78.1836 418.163 76.9741 419.729 76.1611C421.296 75.3481 423.011 74.9416 424.875 74.9416C426.521 74.9416 427.998 75.2291 429.307 75.8042C430.616 76.3594 431.686 77.1625 432.519 78.2134C433.352 79.2643 433.887 80.4838 434.125 81.8718L430.11 82.7047C429.852 81.3761 429.247 80.3351 428.296 79.5816C427.364 78.8083 426.223 78.4216 424.875 78.4216C423.685 78.4216 422.615 78.6992 421.663 79.2544C420.731 79.8096 419.987 80.6325 419.432 81.7231C418.897 82.7939 418.629 84.0828 418.629 85.5898C418.629 87.0968 418.897 88.3956 419.432 89.4862C419.967 90.5569 420.711 91.3699 421.663 91.9251C422.615 92.4605 423.685 92.7282 424.875 92.7282C426.223 92.7282 427.344 92.3812 428.236 91.6872C429.128 90.9932 429.713 90.0315 429.991 88.8021L434.066 89.6944C433.55 91.7368 432.48 93.3429 430.854 94.5128C429.247 95.6629 427.255 96.2379 424.875 96.2379ZM436.708 75.1796H450.628V78.6595H440.753V83.24H448.665V86.7498H440.753V92.4903H450.955V96H436.708V75.1796Z" fill="#2B266D"/>
</svg>
