<svg width="800" height="400" viewBox="0 0 800 400" fill="none" xmlns="http://www.w3.org/2000/svg">
<rect x="232.212" y="38.2119" width="281.771" height="328.18" rx="16.5747" fill="#2B266D"/>
<path d="M129.406 373C126.398 373 124.945 369.316 127.144 367.262L155.379 340.892C155.993 340.319 156.802 340 157.642 340H508.446C509.225 340 509.979 340.274 510.576 340.775L542.019 367.145C544.39 369.134 542.984 373 539.889 373H129.406Z" fill="#2B266D"/>
<rect x="239.842" y="39.2119" width="279.771" height="332.81" rx="15.5747" fill="white" stroke="#2B266D" stroke-width="2"/>
<path d="M278.019 332.099C276.127 331.769 274.521 330.955 273.201 329.657C271.881 328.359 271.1 326.808 270.858 325.004L274.851 323.783C275.027 325.147 275.588 326.269 276.534 327.149C277.502 328.007 278.635 328.436 279.933 328.436C281.143 328.436 282.111 328.172 282.837 327.644C283.563 327.116 283.926 326.412 283.926 325.532C283.926 324.85 283.706 324.289 283.266 323.849C282.848 323.409 282.309 323.057 281.649 322.793C280.989 322.529 280.098 322.232 278.976 321.902C277.436 321.44 276.182 320.989 275.214 320.549C274.246 320.087 273.41 319.405 272.706 318.503C272.024 317.601 271.683 316.424 271.683 314.972C271.683 313.366 272.266 312.002 273.432 310.88C274.62 309.758 276.149 309.054 278.019 308.768V305.6H281.715V308.801C283.431 309.109 284.872 309.769 286.038 310.781C287.226 311.793 287.974 313.025 288.282 314.477L284.256 316.127C284.014 315.005 283.486 314.114 282.672 313.454C281.88 312.794 280.89 312.464 279.702 312.464C278.602 312.464 277.733 312.695 277.095 313.157C276.457 313.597 276.138 314.202 276.138 314.972C276.138 315.5 276.325 315.929 276.699 316.259C277.073 316.589 277.535 316.853 278.085 317.051C278.635 317.249 279.438 317.491 280.494 317.777C282.122 318.173 283.475 318.613 284.553 319.097C285.631 319.559 286.555 320.296 287.325 321.308C288.095 322.32 288.48 323.695 288.48 325.433C288.48 327.215 287.864 328.7 286.632 329.888C285.422 331.076 283.783 331.824 281.715 332.132V335.3L278.019 335.267V332.099ZM295.668 313.85C294.084 315.104 292.313 315.918 290.355 316.292V312.299C291.433 312.057 292.5 311.639 293.556 311.045C294.612 310.451 295.558 309.736 296.394 308.9H299.826V332H295.668V313.85ZM304.971 327.644H309.921L305.532 336.125H302.793L304.971 327.644ZM322.422 332.264C320.486 332.264 318.814 331.78 317.406 330.812C315.998 329.844 314.92 328.469 314.172 326.687C313.424 324.905 313.05 322.826 313.05 320.45C313.05 318.074 313.424 315.995 314.172 314.213C314.92 312.431 315.998 311.056 317.406 310.088C318.814 309.12 320.486 308.636 322.422 308.636C324.358 308.636 326.03 309.12 327.438 310.088C328.846 311.056 329.924 312.431 330.672 314.213C331.42 315.995 331.794 318.074 331.794 320.45C331.794 322.826 331.42 324.905 330.672 326.687C329.924 328.469 328.846 329.844 327.438 330.812C326.03 331.78 324.358 332.264 322.422 332.264ZM317.571 320.45C317.571 322.958 317.989 324.905 318.825 326.291C319.661 327.677 320.86 328.37 322.422 328.37C323.984 328.37 325.183 327.677 326.019 326.291C326.877 324.905 327.306 322.958 327.306 320.45C327.306 317.942 326.877 315.995 326.019 314.609C325.183 313.201 323.984 312.497 322.422 312.497C320.86 312.497 319.661 313.201 318.825 314.609C317.989 315.995 317.571 317.942 317.571 320.45ZM343.498 332.264C341.562 332.264 339.89 331.78 338.482 330.812C337.074 329.844 335.996 328.469 335.248 326.687C334.5 324.905 334.126 322.826 334.126 320.45C334.126 318.074 334.5 315.995 335.248 314.213C335.996 312.431 337.074 311.056 338.482 310.088C339.89 309.12 341.562 308.636 343.498 308.636C345.434 308.636 347.106 309.12 348.514 310.088C349.922 311.056 351 312.431 351.748 314.213C352.496 315.995 352.87 318.074 352.87 320.45C352.87 322.826 352.496 324.905 351.748 326.687C351 328.469 349.922 329.844 348.514 330.812C347.106 331.78 345.434 332.264 343.498 332.264ZM338.647 320.45C338.647 322.958 339.065 324.905 339.901 326.291C340.737 327.677 341.936 328.37 343.498 328.37C345.06 328.37 346.259 327.677 347.095 326.291C347.953 324.905 348.382 322.958 348.382 320.45C348.382 317.942 347.953 315.995 347.095 314.609C346.259 313.201 345.06 312.497 343.498 312.497C341.936 312.497 340.737 313.201 339.901 314.609C339.065 315.995 338.647 317.942 338.647 320.45ZM364.574 332.264C362.638 332.264 360.966 331.78 359.558 330.812C358.15 329.844 357.072 328.469 356.324 326.687C355.576 324.905 355.202 322.826 355.202 320.45C355.202 318.074 355.576 315.995 356.324 314.213C357.072 312.431 358.15 311.056 359.558 310.088C360.966 309.12 362.638 308.636 364.574 308.636C366.51 308.636 368.182 309.12 369.59 310.088C370.998 311.056 372.076 312.431 372.824 314.213C373.572 315.995 373.946 318.074 373.946 320.45C373.946 322.826 373.572 324.905 372.824 326.687C372.076 328.469 370.998 329.844 369.59 330.812C368.182 331.78 366.51 332.264 364.574 332.264ZM359.723 320.45C359.723 322.958 360.141 324.905 360.977 326.291C361.813 327.677 363.012 328.37 364.574 328.37C366.136 328.37 367.335 327.677 368.171 326.291C369.029 324.905 369.458 322.958 369.458 320.45C369.458 317.942 369.029 315.995 368.171 314.609C367.335 313.201 366.136 312.497 364.574 312.497C363.012 312.497 361.813 313.201 360.977 314.609C360.141 315.995 359.723 317.942 359.723 320.45Z" fill="#ECEBEA"/>
<path d="M270 323.75H289.503V325.4H270V323.75ZM289.497 323.75H302.004V325.4H289.497V323.75ZM302.001 323.75H311.901V325.4H302.001V323.75ZM311.895 323.75H332.982V325.4H311.895V323.75ZM332.971 323.75H354.058V325.4H332.971V323.75ZM354.047 323.75H375.134V325.4H354.047V323.75Z" fill="#ECEBEA"/>
<path d="M397.019 332.099C395.127 331.769 393.521 330.955 392.201 329.657C390.881 328.359 390.1 326.808 389.858 325.004L393.851 323.783C394.027 325.147 394.588 326.269 395.534 327.149C396.502 328.007 397.635 328.436 398.933 328.436C400.143 328.436 401.111 328.172 401.837 327.644C402.563 327.116 402.926 326.412 402.926 325.532C402.926 324.85 402.706 324.289 402.266 323.849C401.848 323.409 401.309 323.057 400.649 322.793C399.989 322.529 399.098 322.232 397.976 321.902C396.436 321.44 395.182 320.989 394.214 320.549C393.246 320.087 392.41 319.405 391.706 318.503C391.024 317.601 390.683 316.424 390.683 314.972C390.683 313.366 391.266 312.002 392.432 310.88C393.62 309.758 395.149 309.054 397.019 308.768V305.6H400.715V308.801C402.431 309.109 403.872 309.769 405.038 310.781C406.226 311.793 406.974 313.025 407.282 314.477L403.256 316.127C403.014 315.005 402.486 314.114 401.672 313.454C400.88 312.794 399.89 312.464 398.702 312.464C397.602 312.464 396.733 312.695 396.095 313.157C395.457 313.597 395.138 314.202 395.138 314.972C395.138 315.5 395.325 315.929 395.699 316.259C396.073 316.589 396.535 316.853 397.085 317.051C397.635 317.249 398.438 317.491 399.494 317.777C401.122 318.173 402.475 318.613 403.553 319.097C404.631 319.559 405.555 320.296 406.325 321.308C407.095 322.32 407.48 323.695 407.48 325.433C407.48 327.215 406.864 328.7 405.632 329.888C404.422 331.076 402.783 331.824 400.715 332.132V335.3L397.019 335.267V332.099ZM414.668 313.85C413.084 315.104 411.313 315.918 409.355 316.292V312.299C410.433 312.057 411.5 311.639 412.556 311.045C413.612 310.451 414.558 309.736 415.394 308.9H418.826V332H414.668V313.85ZM423.971 327.644H428.921L424.532 336.125H421.793L423.971 327.644ZM431.819 328.37L440.036 321.44C441.29 320.384 442.203 319.427 442.775 318.569C443.347 317.689 443.633 316.809 443.633 315.929C443.633 314.895 443.303 314.07 442.643 313.454C442.005 312.816 441.136 312.497 440.036 312.497C438.76 312.497 437.77 312.959 437.066 313.883C436.384 314.807 436.109 316.028 436.241 317.546L431.984 317.249C431.962 317.051 431.951 316.776 431.951 316.424C431.951 314.95 432.303 313.619 433.007 312.431C433.711 311.243 434.679 310.319 435.911 309.659C437.143 308.977 438.518 308.636 440.036 308.636C441.642 308.636 443.061 308.944 444.293 309.56C445.525 310.176 446.471 311.034 447.131 312.134C447.813 313.234 448.154 314.499 448.154 315.929C448.154 317.381 447.714 318.789 446.834 320.153C445.954 321.495 444.568 322.914 442.676 324.41L438.122 328.106H448.121V332H431.852L431.819 328.37ZM460.371 332.264C458.435 332.264 456.763 331.78 455.355 330.812C453.947 329.844 452.869 328.469 452.121 326.687C451.373 324.905 450.999 322.826 450.999 320.45C450.999 318.074 451.373 315.995 452.121 314.213C452.869 312.431 453.947 311.056 455.355 310.088C456.763 309.12 458.435 308.636 460.371 308.636C462.307 308.636 463.979 309.12 465.387 310.088C466.795 311.056 467.873 312.431 468.621 314.213C469.369 315.995 469.743 318.074 469.743 320.45C469.743 322.826 469.369 324.905 468.621 326.687C467.873 328.469 466.795 329.844 465.387 330.812C463.979 331.78 462.307 332.264 460.371 332.264ZM455.52 320.45C455.52 322.958 455.938 324.905 456.774 326.291C457.61 327.677 458.809 328.37 460.371 328.37C461.933 328.37 463.132 327.677 463.968 326.291C464.826 324.905 465.255 322.958 465.255 320.45C465.255 317.942 464.826 315.995 463.968 314.609C463.132 313.201 461.933 312.497 460.371 312.497C458.809 312.497 457.61 313.201 456.774 314.609C455.938 315.995 455.52 317.942 455.52 320.45ZM481.447 332.264C479.511 332.264 477.839 331.78 476.431 330.812C475.023 329.844 473.945 328.469 473.197 326.687C472.449 324.905 472.075 322.826 472.075 320.45C472.075 318.074 472.449 315.995 473.197 314.213C473.945 312.431 475.023 311.056 476.431 310.088C477.839 309.12 479.511 308.636 481.447 308.636C483.383 308.636 485.055 309.12 486.463 310.088C487.871 311.056 488.949 312.431 489.697 314.213C490.445 315.995 490.819 318.074 490.819 320.45C490.819 322.826 490.445 324.905 489.697 326.687C488.949 328.469 487.871 329.844 486.463 330.812C485.055 331.78 483.383 332.264 481.447 332.264ZM476.596 320.45C476.596 322.958 477.014 324.905 477.85 326.291C478.686 327.677 479.885 328.37 481.447 328.37C483.009 328.37 484.208 327.677 485.044 326.291C485.902 324.905 486.331 322.958 486.331 320.45C486.331 317.942 485.902 315.995 485.044 314.609C484.208 313.201 483.009 312.497 481.447 312.497C479.885 312.497 478.686 313.201 477.85 314.609C477.014 315.995 476.596 317.942 476.596 320.45Z" fill="#2B266D"/>
<path d="M369.278 131H273.849C271.206 131 269.063 133.168 269.063 135.842V144.158C269.063 146.832 271.206 149 273.849 149H369.278C371.921 149 374.063 146.832 374.063 144.158V135.842C374.063 133.168 371.921 131 369.278 131Z" fill="#2B266D"/>
<rect x="269.063" y="169" width="208" height="8" rx="4" fill="#D5D4D2"/>
<rect x="269.063" y="187" width="140" height="8" rx="4" fill="#D5D4D2"/>
<rect x="269.063" y="205" width="176" height="8" rx="4" fill="#D5D4D2"/>
<rect x="269.063" y="223" width="140" height="8" rx="4" fill="#D5D4D2"/>
<rect x="269.063" y="241" width="176" height="8" rx="4" fill="#D5D4D2"/>
<rect x="269.063" y="259" width="140" height="8" rx="4" fill="#D5D4D2"/>
<path d="M271.963 96V75.1796H276.008V96H271.963ZM279.922 96V75.1796H284.026L292.949 89.6349V75.1796H296.727V96H292.622L283.729 81.5744V96H279.922ZM306.52 96L298.935 75.1796H303.069L308.453 91.1816L313.896 75.1796H318.001L310.416 96H306.52ZM328.946 96.2379C322.848 96.2379 318.387 91.7467 318.387 85.5898C318.387 79.4329 322.848 74.9416 328.946 74.9416C335.013 74.9416 339.475 79.4329 339.475 85.5898C339.475 91.7467 335.013 96.2379 328.946 96.2379ZM322.461 85.5898C322.461 89.7241 325.168 92.7282 328.946 92.7282C332.723 92.7282 335.4 89.7241 335.4 85.5898C335.4 81.4554 332.723 78.4216 328.946 78.4216C325.168 78.4216 322.461 81.4554 322.461 85.5898ZM342.488 96V75.1796H346.533V96H342.488ZM359.875 96.2379C354.373 96.2379 349.524 92.639 349.524 85.5898C349.524 78.5406 354.462 74.9416 359.875 74.9416C364.872 74.9416 368.411 77.678 369.125 81.8718L365.11 82.7047C364.575 80.0575 362.552 78.4216 359.875 78.4216C356.365 78.4216 353.629 80.92 353.629 85.5898C353.629 90.2595 356.336 92.7282 359.875 92.7282C362.582 92.7282 364.456 91.241 364.991 88.8021L369.066 89.6944C368.055 93.7692 364.664 96.2379 359.875 96.2379ZM371.708 96V75.1796H385.628V78.6595H375.753V83.24H383.665V86.7498H375.753V92.4903H385.955V96H371.708Z" fill="#2B266D"/>
<path d="M638.532 133.001H470.759C467.578 133.001 465 135.285 465 138.103V219.619C465 222.437 467.578 224.721 470.759 224.721H638.532C641.712 224.721 644.291 222.437 644.291 219.619V138.103C644.291 135.285 641.712 133.001 638.532 133.001Z" fill="#2B266D" stroke="#2B266D" stroke-width="2.09807" stroke-miterlimit="10"/>
<path d="M638.692 133H475.579C472.487 133 469.98 135.228 469.98 137.977V215.178C469.98 217.927 472.487 220.155 475.579 220.155H638.692C641.784 220.155 644.291 217.927 644.291 215.178V137.977C644.291 135.228 641.784 133 638.692 133Z" fill="#8EE9CC" stroke="#2B266D" stroke-width="2" stroke-miterlimit="10"/>
<rect x="483" y="173" width="54" height="31" rx="15.5" fill="#2B276D"/>
<rect x="507" y="174" width="29" height="29" rx="14.5" fill="white" stroke="#2B276D" stroke-width="2"/>
<path d="M486.905 153.656H489.826L488.365 149.699L486.905 153.656ZM487.361 146.905H489.355L493.578 157.895H491.38L490.485 155.461H486.23L485.335 157.895H483.137L487.361 146.905ZM494.641 149.982H496.619V150.892C496.85 150.578 497.169 150.327 497.577 150.139C497.996 149.95 498.462 149.856 498.974 149.856C499.718 149.856 500.366 150.029 500.921 150.374C501.476 150.709 501.9 151.186 502.193 151.803C502.497 152.421 502.648 153.132 502.648 153.938C502.648 154.744 502.491 155.456 502.177 156.074C501.863 156.691 501.418 157.173 500.843 157.518C500.267 157.853 499.597 158.02 498.833 158.02C498.373 158.02 497.943 157.942 497.546 157.785C497.158 157.617 496.85 157.392 496.619 157.11V160.752H494.641V149.982ZM496.494 153.938C496.494 154.65 496.682 155.226 497.059 155.665C497.446 156.095 497.959 156.309 498.598 156.309C499.226 156.309 499.728 156.095 500.105 155.665C500.492 155.226 500.686 154.65 500.686 153.938C500.686 153.227 500.492 152.656 500.105 152.227C499.728 151.787 499.226 151.568 498.598 151.568C497.959 151.568 497.446 151.787 497.059 152.227C496.682 152.656 496.494 153.227 496.494 153.938ZM504.147 149.982H506.125V150.892C506.356 150.578 506.675 150.327 507.083 150.139C507.502 149.95 507.968 149.856 508.48 149.856C509.224 149.856 509.873 150.029 510.427 150.374C510.982 150.709 511.406 151.186 511.699 151.803C512.003 152.421 512.154 153.132 512.154 153.938C512.154 154.744 511.997 155.456 511.683 156.074C511.369 156.691 510.925 157.173 510.349 157.518C509.773 157.853 509.103 158.02 508.339 158.02C507.879 158.02 507.449 157.942 507.052 157.785C506.664 157.617 506.356 157.392 506.125 157.11V160.752H504.147V149.982ZM506 153.938C506 154.65 506.188 155.226 506.565 155.665C506.952 156.095 507.465 156.309 508.104 156.309C508.732 156.309 509.234 156.095 509.611 155.665C509.998 155.226 510.192 154.65 510.192 153.938C510.192 153.227 509.998 152.656 509.611 152.227C509.234 151.787 508.732 151.568 508.104 151.568C507.465 151.568 506.952 151.787 506.565 152.227C506.188 152.656 506 153.227 506 153.938ZM513.653 146.779H515.632V157.895H513.653V146.779ZM524.754 149.982L520.578 160.752H518.568L519.793 157.581L516.716 149.982H518.867L520.766 155.069L522.729 149.982H524.754ZM529.614 149.982H531.593V150.892C531.823 150.578 532.142 150.327 532.55 150.139C532.969 149.95 533.435 149.856 533.948 149.856C534.691 149.856 535.34 150.029 535.894 150.374C536.449 150.709 536.873 151.186 537.166 151.803C537.47 152.421 537.621 153.132 537.621 153.938C537.621 154.744 537.464 155.456 537.15 156.074C536.836 156.691 536.392 157.173 535.816 157.518C535.24 157.853 534.57 158.02 533.806 158.02C533.346 158.02 532.917 157.942 532.519 157.785C532.132 157.617 531.823 157.392 531.593 157.11V160.752H529.614V149.982ZM531.467 153.938C531.467 154.65 531.655 155.226 532.032 155.665C532.419 156.095 532.932 156.309 533.571 156.309C534.199 156.309 534.701 156.095 535.078 155.665C535.465 155.226 535.659 154.65 535.659 153.938C535.659 153.227 535.465 152.656 535.078 152.227C534.701 151.787 534.199 151.568 533.571 151.568C532.932 151.568 532.419 151.787 532.032 152.227C531.655 152.656 531.467 153.227 531.467 153.938ZM544.223 151.897C543.94 151.772 543.605 151.709 543.218 151.709C542.611 151.709 542.103 151.981 541.695 152.525C541.298 153.059 541.099 153.881 541.099 154.99V157.895H539.12V149.982H541.099V151.426C541.298 150.976 541.622 150.605 542.072 150.312C542.533 150.008 543.004 149.856 543.485 149.856C543.81 149.856 544.097 149.898 544.349 149.982L544.223 151.897ZM545.499 149.982H547.477V157.895H545.499V149.982ZM546.488 148.773C546.132 148.773 545.839 148.658 545.609 148.428C545.378 148.187 545.263 147.894 545.263 147.548C545.263 147.203 545.378 146.915 545.609 146.685C545.849 146.454 546.142 146.339 546.488 146.339C546.844 146.339 547.142 146.46 547.383 146.7C547.623 146.931 547.744 147.213 547.744 147.548C547.744 147.894 547.623 148.187 547.383 148.428C547.142 148.658 546.844 148.773 546.488 148.773ZM552.988 158.02C552.203 158.02 551.507 157.848 550.9 157.502C550.293 157.157 549.817 156.675 549.472 156.058C549.137 155.44 548.969 154.734 548.969 153.938C548.969 153.143 549.137 152.436 549.472 151.819C549.817 151.201 550.293 150.72 550.9 150.374C551.507 150.029 552.203 149.856 552.988 149.856C554.004 149.856 554.841 150.102 555.501 150.594C556.17 151.086 556.573 151.751 556.709 152.588L554.778 152.965C554.705 152.546 554.511 152.211 554.197 151.96C553.894 151.698 553.512 151.568 553.051 151.568C552.434 151.568 551.942 151.782 551.575 152.211C551.209 152.64 551.026 153.216 551.026 153.938C551.026 154.661 551.209 155.236 551.575 155.665C551.942 156.095 552.434 156.309 553.051 156.309C553.512 156.309 553.889 156.194 554.182 155.964C554.485 155.723 554.684 155.388 554.778 154.959L556.709 155.351C556.563 156.178 556.155 156.832 555.485 157.314C554.825 157.785 553.993 158.02 552.988 158.02ZM557.77 153.938C557.77 153.227 557.917 152.562 558.21 151.944C558.513 151.316 558.958 150.814 559.544 150.437C560.13 150.05 560.842 149.856 561.679 149.856C562.527 149.856 563.249 150.039 563.846 150.406C564.443 150.772 564.893 151.248 565.196 151.834C565.5 152.421 565.652 153.033 565.652 153.671C565.652 153.985 565.641 154.247 565.62 154.456H559.748C559.832 155.053 560.057 155.519 560.423 155.854C560.79 156.189 561.255 156.356 561.821 156.356C562.281 156.356 562.669 156.252 562.983 156.042C563.297 155.833 563.506 155.535 563.611 155.147L565.463 155.65C565.243 156.393 564.809 156.974 564.16 157.392C563.511 157.811 562.721 158.02 561.789 158.02C560.952 158.02 560.23 157.832 559.623 157.455C559.016 157.068 558.555 156.56 558.241 155.932C557.927 155.304 557.77 154.64 557.77 153.938ZM563.532 153.012C563.48 152.52 563.297 152.122 562.983 151.819C562.669 151.515 562.234 151.363 561.679 151.363C561.187 151.363 560.774 151.505 560.439 151.787C560.115 152.07 559.9 152.478 559.795 153.012H563.532ZM570.92 149.982H572.898V157.895H570.92V149.982ZM571.909 148.773C571.553 148.773 571.26 148.658 571.03 148.428C570.799 148.187 570.684 147.894 570.684 147.548C570.684 147.203 570.799 146.915 571.03 146.685C571.27 146.454 571.564 146.339 571.909 146.339C572.265 146.339 572.563 146.46 572.804 146.7C573.045 146.931 573.165 147.213 573.165 147.548C573.165 147.894 573.045 148.187 572.804 148.428C572.563 148.658 572.265 148.773 571.909 148.773ZM574.814 149.982H576.792V151.175C577.054 150.777 577.4 150.458 577.829 150.217C578.268 149.977 578.76 149.856 579.305 149.856C580.173 149.856 580.869 150.118 581.393 150.641C581.926 151.165 582.193 151.855 582.193 152.714V157.895H580.215V153.185C580.215 152.714 580.079 152.337 579.807 152.054C579.535 151.761 579.168 151.615 578.708 151.615C578.101 151.615 577.63 151.861 577.295 152.353C576.96 152.845 576.792 153.535 576.792 154.425V157.895H574.814V149.982ZM587.701 158.02C586.916 158.02 586.22 157.848 585.613 157.502C585.006 157.157 584.53 156.675 584.184 156.058C583.849 155.44 583.682 154.734 583.682 153.938C583.682 153.143 583.849 152.436 584.184 151.819C584.53 151.201 585.006 150.72 585.613 150.374C586.22 150.029 586.916 149.856 587.701 149.856C588.716 149.856 589.554 150.102 590.213 150.594C590.883 151.086 591.286 151.751 591.422 152.588L589.491 152.965C589.418 152.546 589.224 152.211 588.91 151.96C588.606 151.698 588.224 151.568 587.764 151.568C587.146 151.568 586.654 151.782 586.288 152.211C585.922 152.64 585.738 153.216 585.738 153.938C585.738 154.661 585.922 155.236 586.288 155.665C586.654 156.095 587.146 156.309 587.764 156.309C588.224 156.309 588.601 156.194 588.894 155.964C589.198 155.723 589.397 155.388 589.491 154.959L591.422 155.351C591.275 156.178 590.867 156.832 590.197 157.314C589.538 157.785 588.706 158.02 587.701 158.02ZM598.009 151.897C597.726 151.772 597.392 151.709 597.004 151.709C596.397 151.709 595.89 151.981 595.481 152.525C595.084 153.059 594.885 153.881 594.885 154.99V157.895H592.906V149.982H594.885V151.426C595.084 150.976 595.408 150.605 595.858 150.312C596.319 150.008 596.79 149.856 597.271 149.856C597.596 149.856 597.883 149.898 598.135 149.982L598.009 151.897ZM598.585 153.938C598.585 153.227 598.731 152.562 599.024 151.944C599.328 151.316 599.773 150.814 600.359 150.437C600.945 150.05 601.657 149.856 602.494 149.856C603.342 149.856 604.064 150.039 604.661 150.406C605.258 150.772 605.708 151.248 606.011 151.834C606.315 152.421 606.466 153.033 606.466 153.671C606.466 153.985 606.456 154.247 606.435 154.456H600.563C600.647 155.053 600.872 155.519 601.238 155.854C601.605 156.189 602.07 156.356 602.636 156.356C603.096 156.356 603.483 156.252 603.797 156.042C604.111 155.833 604.321 155.535 604.425 155.147L606.278 155.65C606.058 156.393 605.624 156.974 604.975 157.392C604.326 157.811 603.536 158.02 602.604 158.02C601.767 158.02 601.045 157.832 600.437 157.455C599.83 157.068 599.37 156.56 599.056 155.932C598.742 155.304 598.585 154.64 598.585 153.938ZM604.347 153.012C604.295 152.52 604.111 152.122 603.797 151.819C603.483 151.515 603.049 151.363 602.494 151.363C602.002 151.363 601.589 151.505 601.254 151.787C600.929 152.07 600.715 152.478 600.61 153.012H604.347ZM612.548 152.808C612.548 152.358 612.407 152.007 612.124 151.756C611.842 151.494 611.46 151.363 610.978 151.363C610.549 151.363 610.188 151.489 609.895 151.74C609.612 151.991 609.45 152.326 609.408 152.745L607.65 152.431C607.775 151.657 608.147 151.034 608.764 150.563C609.392 150.092 610.13 149.856 610.978 149.856C612.035 149.856 612.878 150.139 613.506 150.704C614.144 151.259 614.464 152.049 614.464 153.075V157.895H612.548V156.749C612.328 157.136 611.999 157.445 611.559 157.675C611.13 157.905 610.669 158.02 610.177 158.02C609.664 158.02 609.209 157.921 608.811 157.722C608.414 157.513 608.1 157.23 607.869 156.874C607.65 156.518 607.54 156.115 607.54 155.665C607.54 154.891 607.833 154.289 608.419 153.86C609.005 153.431 609.89 153.153 611.072 153.028L612.548 152.886V152.808ZM609.455 155.603C609.455 155.885 609.56 156.115 609.769 156.293C609.979 156.471 610.261 156.56 610.617 156.56C611.214 156.56 611.685 156.361 612.03 155.964C612.375 155.566 612.548 155.069 612.548 154.472V154.299L611.041 154.472C610.528 154.535 610.136 154.666 609.863 154.865C609.591 155.064 609.455 155.31 609.455 155.603ZM619.159 158.02C618.269 158.02 617.526 157.795 616.93 157.345C616.333 156.885 615.925 156.33 615.705 155.681L617.322 155.022C617.448 155.451 617.667 155.801 617.981 156.074C618.295 156.346 618.688 156.482 619.159 156.482C619.525 156.482 619.818 156.398 620.038 156.231C620.268 156.053 620.384 155.838 620.384 155.587C620.384 155.315 620.253 155.111 619.991 154.975C619.729 154.828 619.326 154.687 618.782 154.551C618.217 154.394 617.751 154.242 617.385 154.095C617.029 153.938 616.72 153.698 616.458 153.373C616.197 153.049 616.066 152.614 616.066 152.07C616.066 151.651 616.181 151.275 616.411 150.94C616.642 150.605 616.966 150.343 617.385 150.155C617.814 149.956 618.311 149.856 618.876 149.856C619.651 149.856 620.331 150.034 620.917 150.39C621.514 150.746 621.896 151.212 622.064 151.787L620.462 152.463C620.357 152.107 620.159 151.829 619.865 151.63C619.572 151.421 619.253 151.316 618.908 151.316C618.594 151.316 618.337 151.384 618.138 151.52C617.95 151.646 617.856 151.819 617.856 152.039C617.856 152.279 617.971 152.457 618.201 152.572C618.442 152.688 618.829 152.813 619.363 152.949C619.939 153.075 620.415 153.216 620.792 153.373C621.179 153.53 621.509 153.787 621.781 154.142C622.064 154.488 622.205 154.959 622.205 155.555C622.205 156.006 622.074 156.419 621.812 156.796C621.561 157.173 621.205 157.471 620.745 157.691C620.284 157.911 619.756 158.02 619.159 158.02ZM623.178 153.938C623.178 153.227 623.325 152.562 623.618 151.944C623.921 151.316 624.366 150.814 624.952 150.437C625.538 150.05 626.25 149.856 627.087 149.856C627.935 149.856 628.657 150.039 629.254 150.406C629.851 150.772 630.301 151.248 630.604 151.834C630.908 152.421 631.06 153.033 631.06 153.671C631.06 153.985 631.049 154.247 631.028 154.456H625.156C625.24 155.053 625.465 155.519 625.831 155.854C626.198 156.189 626.664 156.356 627.229 156.356C627.689 156.356 628.077 156.252 628.391 156.042C628.705 155.833 628.914 155.535 629.019 155.147L630.871 155.65C630.651 156.393 630.217 156.974 629.568 157.392C628.919 157.811 628.129 158.02 627.197 158.02C626.36 158.02 625.638 157.832 625.031 157.455C624.424 157.068 623.963 156.56 623.649 155.932C623.335 155.304 623.178 154.64 623.178 153.938ZM628.94 153.012C628.888 152.52 628.705 152.122 628.391 151.819C628.077 151.515 627.642 151.363 627.087 151.363C626.595 151.363 626.182 151.505 625.847 151.787C625.523 152.07 625.308 152.478 625.203 153.012H628.94Z" fill="#2B266D"/>
<path d="M577.003 216.705L563.058 221.885L575.079 237.7C575.279 237.957 575.205 238.318 574.909 238.489L559.262 248.07C558.977 248.25 558.575 248.184 558.385 247.917L546.481 232.245L536.141 242.129C535.602 242.652 534.629 242.376 534.513 241.664L527.028 194.17C526.753 192.621 528.592 191.471 530.104 192.251L577.098 215.175C577.796 215.517 577.743 216.439 577.003 216.705Z" fill="white" stroke="#2B266D" stroke-width="2" stroke-miterlimit="10"/>
</svg>
