<svg width="800" height="400" viewBox="0 0 800 400" fill="none" xmlns="http://www.w3.org/2000/svg">
<rect x="297.212" y="38.2119" width="281.771" height="328.18" rx="16.5747" fill="#2B266D"/>
<path d="M194.406 373C191.398 373 189.945 369.316 192.144 367.262L220.379 340.892C220.993 340.319 221.802 340 222.642 340H573.446C574.225 340 574.979 340.274 575.576 340.775L607.019 367.145C609.39 369.134 607.984 373 604.889 373H194.406Z" fill="#2B266D"/>
<rect x="304.842" y="39.2119" width="279.771" height="332.81" rx="15.5747" fill="white" stroke="#2B266D" stroke-width="2"/>
<path d="M434.278 131H338.849C336.206 131 334.063 133.168 334.063 135.842V144.158C334.063 146.832 336.206 149 338.849 149H434.278C436.921 149 439.063 146.832 439.063 144.158V135.842C439.063 133.168 436.921 131 434.278 131Z" fill="#2B266D"/>
<rect x="334.063" y="169" width="208" height="8" rx="4" fill="#D5D4D2"/>
<rect x="334.063" y="187" width="140" height="8" rx="4" fill="#D5D4D2"/>
<rect x="334.063" y="205" width="176" height="8" rx="4" fill="#D5D4D2"/>
<rect x="334.063" y="223" width="140" height="8" rx="4" fill="#D5D4D2"/>
<rect x="334.063" y="241" width="176" height="8" rx="4" fill="#D5D4D2"/>
<rect x="334.063" y="259" width="140" height="8" rx="4" fill="#D5D4D2"/>
<path d="M552.215 322H456.785C454.142 322 452 324.168 452 326.842V335.158C452 337.832 454.142 340 456.785 340H552.215C554.858 340 557 337.832 557 335.158V326.842C557 324.168 554.858 322 552.215 322Z" fill="#5ED7B1"/>
<path d="M336.963 75.1796H341.008V96H336.963V75.1796ZM344.922 75.1796H349.026L357.949 89.6349V75.1796H361.727V96H357.622L348.729 81.5744V96H344.922V75.1796ZM363.935 75.1796H368.069L373.453 91.1816L378.896 75.1796H383.001L375.416 96H371.52L363.935 75.1796ZM393.946 96.2379C391.943 96.2379 390.138 95.7819 388.532 94.8697C386.926 93.9378 385.667 92.6687 384.755 91.0626C383.843 89.4366 383.387 87.6123 383.387 85.5898C383.387 83.5672 383.843 81.7529 384.755 80.1467C385.667 78.5207 386.926 77.2517 388.532 76.3395C390.138 75.4076 391.943 74.9416 393.946 74.9416C395.948 74.9416 397.743 75.4076 399.329 76.3395C400.935 77.2517 402.194 78.5207 403.107 80.1467C404.019 81.7529 404.475 83.5672 404.475 85.5898C404.475 87.6123 404.019 89.4366 403.107 91.0626C402.194 92.6687 400.935 93.9378 399.329 94.8697C397.743 95.7819 395.948 96.2379 393.946 96.2379ZM387.461 85.5898C387.461 86.958 387.739 88.1874 388.294 89.278C388.85 90.3487 389.613 91.1915 390.585 91.8062C391.576 92.4209 392.696 92.7282 393.946 92.7282C395.195 92.7282 396.305 92.4209 397.277 91.8062C398.248 91.1915 399.012 90.3487 399.567 89.278C400.122 88.1874 400.4 86.958 400.4 85.5898C400.4 84.2216 400.122 82.9922 399.567 81.9016C399.012 80.811 398.248 79.9583 397.277 79.3436C396.305 78.7289 395.195 78.4216 393.946 78.4216C392.696 78.4216 391.576 78.7289 390.585 79.3436C389.613 79.9583 388.85 80.811 388.294 81.9016C387.739 82.9922 387.461 84.2216 387.461 85.5898ZM407.488 75.1796H411.533V96H407.488V75.1796ZM424.875 96.2379C422.991 96.2379 421.266 95.8315 419.7 95.0185C418.133 94.2055 416.874 92.9959 415.922 91.3898C414.99 89.7836 414.524 87.8503 414.524 85.5898C414.524 83.3293 415 81.3959 415.952 79.7898C416.904 78.1836 418.163 76.9741 419.729 76.1611C421.296 75.3481 423.011 74.9416 424.875 74.9416C426.521 74.9416 427.998 75.2291 429.307 75.8042C430.616 76.3594 431.686 77.1625 432.519 78.2134C433.352 79.2643 433.887 80.4838 434.125 81.8718L430.11 82.7047C429.852 81.3761 429.247 80.3351 428.296 79.5816C427.364 78.8083 426.223 78.4216 424.875 78.4216C423.685 78.4216 422.615 78.6992 421.663 79.2544C420.731 79.8096 419.987 80.6325 419.432 81.7231C418.897 82.7939 418.629 84.0828 418.629 85.5898C418.629 87.0968 418.897 88.3956 419.432 89.4862C419.967 90.5569 420.711 91.3699 421.663 91.9251C422.615 92.4605 423.685 92.7282 424.875 92.7282C426.223 92.7282 427.344 92.3812 428.236 91.6872C429.128 90.9932 429.713 90.0315 429.991 88.8021L434.066 89.6944C433.55 91.7368 432.48 93.3429 430.854 94.5128C429.247 95.6629 427.255 96.2379 424.875 96.2379ZM436.708 75.1796H450.628V78.6595H440.753V83.24H448.665V86.7498H440.753V92.4903H450.955V96H436.708V75.1796Z" fill="#2B266D"/>
<path d="M525.444 202.693L537.987 202.594L545.788 216.959L559.518 266.248L553.564 280.864C553.564 280.864 420.639 314.076 419.016 312.878C417.393 311.68 405.624 307.723 405.624 307.723C405.624 307.723 397.598 289.413 397.498 289.9C397.399 290.387 390.172 245.953 390.172 245.953L392.044 232.187L525.444 202.706V202.693Z" fill="white"/>
<path d="M549.597 286.094L421.951 317.959C410.818 320.742 399.497 313.965 396.714 302.832L383.921 251.783C381.137 240.65 387.915 229.329 399.048 226.546L526.694 194.681C537.827 191.898 549.148 198.675 551.931 209.809L564.724 260.857C567.508 271.99 560.73 283.311 549.597 286.094Z" fill="#FF5787" stroke="#2B266D" stroke-width="1.86322" stroke-miterlimit="10"/>
<path d="M402.417 240.003C398.71 240.939 396.439 244.709 397.375 248.415L410.168 299.464C411.104 303.171 414.874 305.442 418.58 304.506L546.226 272.642C549.933 271.706 552.205 267.936 551.269 264.229L538.475 213.181C537.539 209.474 533.77 207.202 530.063 208.138L402.417 240.003Z" fill="white"/>
<path d="M418.315 251.112L433.247 247.37C435.718 246.751 438.009 246.683 440.118 247.167C442.219 247.616 443.981 248.582 445.403 250.064C446.851 251.502 447.859 253.35 448.425 255.609C448.991 257.869 448.975 259.974 448.376 261.925C447.812 263.867 446.714 265.549 445.082 266.971C443.441 268.358 441.385 269.361 438.914 269.98L431.183 271.918L434.806 286.374L427.605 288.178L418.315 251.112ZM436.726 263.944C438.526 263.493 439.828 262.698 440.63 261.559C441.424 260.384 441.622 259.003 441.223 257.414C440.816 255.79 439.991 254.665 438.746 254.04C437.492 253.378 435.965 253.273 434.164 253.724L427.069 255.503L429.63 265.722L436.726 263.944ZM461.373 264.52L471.222 262.052L462.953 249.942L461.373 264.52ZM457.202 241.366L463.927 239.681L487.46 273.177L480.047 275.035L474.972 267.584L460.622 271.18L459.661 280.144L452.248 282.002L457.202 241.366ZM481.711 235.224L488.912 233.419L498.202 270.485L491 272.29L481.711 235.224ZM495.879 231.673L508.005 228.634C511.5 227.758 514.854 227.667 518.067 228.363C521.307 229.014 524.123 230.522 526.517 232.886C528.946 235.241 530.66 238.413 531.66 242.402C532.659 246.391 532.644 249.997 531.613 253.219C530.617 256.433 528.849 259.108 526.309 261.246C523.794 263.339 520.79 264.824 517.295 265.7L505.169 268.739L495.879 231.673ZM515.093 259.611C518.624 258.726 521.306 257.003 523.14 254.442C525.01 251.873 525.414 248.47 524.352 244.234C523.291 239.998 521.329 237.188 518.469 235.803C515.635 234.375 512.452 234.103 508.922 234.988L504.527 236.09L510.698 260.712L515.093 259.611Z" fill="#FF5787"/>
</svg>
