<svg width="800" height="400" viewBox="0 0 800 400" fill="none" xmlns="http://www.w3.org/2000/svg">
<path d="M180.087 374.202C176.984 374.202 175.491 370.397 177.767 368.287L208.156 340.112C208.787 339.527 209.615 339.202 210.476 339.202H585.376C586.174 339.202 586.947 339.481 587.56 339.992L621.401 368.167C623.854 370.21 622.41 374.202 619.217 374.202H180.087Z" fill="#2B266D"/>
<path d="M451.769 371.653H222.931C214.834 371.653 208.278 365.097 208.278 357V43.3267C208.278 35.2301 214.834 28.674 222.931 28.674H451.769C459.866 28.674 466.422 35.2301 466.422 43.3267V356.989C466.422 365.086 459.866 371.642 451.769 371.642V371.653Z" fill="#2B266D"/>
<path d="M459.919 371.438H230.486C222.369 371.438 215.795 364.865 215.795 356.747V44.0587C215.795 35.941 222.369 29.3678 230.486 29.3678L459.919 29.3678C468.037 29.3678 474.61 35.941 474.61 44.0587V356.747C474.61 364.865 468.037 371.438 459.919 371.438Z" fill="white" stroke="#2B266D" stroke-width="2" stroke-miterlimit="10"/>
<path d="M244.447 85.9972V64.7093H248.583V85.9972H244.447ZM252.584 85.9972V64.7093H256.781L265.904 79.4892V64.7093H269.766V85.9972H265.57L256.477 71.2477V85.9972H252.584ZM279.779 85.9972L272.024 64.7093H276.251L281.756 81.0706L287.321 64.7093H291.518L283.763 85.9972H279.779ZM302.708 86.2405C296.474 86.2405 291.912 81.6484 291.912 75.3532C291.912 69.0581 296.474 64.466 302.708 64.466C308.912 64.466 313.474 69.0581 313.474 75.3532C313.474 81.6484 308.912 86.2405 302.708 86.2405ZM296.079 75.3532C296.079 79.5804 298.846 82.652 302.708 82.652C306.571 82.652 309.308 79.5804 309.308 75.3532C309.308 71.1261 306.571 68.0241 302.708 68.0241C298.846 68.0241 296.079 71.1261 296.079 75.3532ZM316.555 85.9972V64.7093H320.691V85.9972H316.555ZM334.332 86.2405C328.706 86.2405 323.749 82.5607 323.749 75.3532C323.749 68.1458 328.798 64.466 334.332 64.466C339.441 64.466 343.06 67.2638 343.79 71.5518L339.685 72.4033C339.137 69.6967 337.069 68.0241 334.332 68.0241C330.744 68.0241 327.946 70.5787 327.946 75.3532C327.946 80.1278 330.713 82.652 334.332 82.652C337.1 82.652 339.016 81.1314 339.563 78.6377L343.729 79.55C342.695 83.7163 339.229 86.2405 334.332 86.2405ZM346.431 85.9972V64.7093H360.664V68.2674H350.567V72.9507H358.657V76.5393H350.567V82.4087H360.998V85.9972H346.431Z" fill="#2B266D"/>
<path d="M323.431 118.281H246.307C244.171 118.281 242.439 120.013 242.439 122.148V128.791C242.439 130.927 244.171 132.659 246.307 132.659H323.431C325.567 132.659 327.298 130.927 327.298 128.791V122.148C327.298 120.013 325.567 118.281 323.431 118.281Z" fill="#FF5787"/>
<path d="M446.369 325.03H369.245C367.109 325.03 365.377 326.762 365.377 328.897V339.024C365.377 341.16 367.109 342.891 369.245 342.891H446.369C448.505 342.891 450.236 341.16 450.236 339.024V328.897C450.236 326.762 448.505 325.03 446.369 325.03Z" fill="#2B266D" stroke="#2B266D" stroke-width="2" stroke-miterlimit="10"/>
<rect x="242" y="147" width="210" height="8" rx="4" fill="#D5D4D2"/>
<rect x="242" y="165" width="133" height="8" rx="4" fill="#D5D4D2"/>
<rect x="242" y="183" width="210" height="8" rx="4" fill="#D5D4D2"/>
<rect x="242" y="201" width="210" height="8" rx="4" fill="#D5D4D2"/>
<rect x="242" y="219" width="210" height="8" rx="4" fill="#D5D4D2"/>
<rect x="242" y="237" width="210" height="8" rx="4" fill="#D5D4D2"/>
<rect x="242" y="255" width="107" height="8" rx="4" fill="#D5D4D2"/>
<rect x="242" y="273" width="141" height="8" rx="4" fill="#D5D4D2"/>
<rect x="242" y="291" width="107" height="8" rx="4" fill="#D5D4D2"/>
<path d="M421.712 178.903L433.384 178.81L440.642 192.177L453.417 238.038L447.877 251.637C447.877 251.637 324.195 282.54 322.686 281.425C321.176 280.31 310.224 276.629 310.224 276.629C310.224 276.629 302.757 259.592 302.664 260.045C302.571 260.498 295.847 219.155 295.847 219.155L297.589 206.345L421.712 178.914V178.903Z" fill="#DDEEEB"/>
<rect x="282.28" y="206.217" width="160.526" height="88.4236" rx="17.1063" transform="rotate(-14.201 282.28 206.217)" fill="#2B266D"/>
<path d="M444.182 256.503L325.412 286.152C315.053 288.741 304.52 282.435 301.93 272.076L290.027 224.578C287.437 214.219 293.743 203.685 304.102 201.096L422.871 171.447C433.231 168.857 443.764 175.163 446.354 185.522L458.257 233.021C460.847 243.38 454.541 253.913 444.182 256.503Z" fill="#B81414" stroke="#2B266D" stroke-width="2" stroke-miterlimit="10"/>
<path d="M307.241 213.617C303.792 214.488 301.679 217.995 302.55 221.445L314.453 268.943C315.324 272.392 318.831 274.506 322.281 273.635L441.05 243.986C444.499 243.115 446.613 239.608 445.742 236.159L433.838 188.66C432.967 185.211 429.46 183.097 426.011 183.968L307.241 213.617Z" fill="white"/>
<path d="M324.727 258.85L316.083 224.362L322.784 222.682L329.971 251.357L345.983 247.344L347.44 253.158L324.727 258.85ZM358.34 223.092L356.87 236.656L366.034 234.359L358.34 223.092ZM348.379 252.922L352.989 215.112L359.246 213.544L381.144 244.711L374.246 246.439L369.524 239.506L356.172 242.853L355.277 251.193L348.379 252.922ZM388.087 242.97L380.888 214.246L370.493 216.852L369.048 211.087L396.54 204.197L397.985 209.962L387.589 212.567L394.788 241.291L388.087 242.97ZM408.591 237.832L399.947 203.343L423.005 197.564L424.45 203.329L408.092 207.428L409.994 215.016L423.1 211.731L424.557 217.545L411.451 220.83L413.834 230.339L430.734 226.103L432.191 231.917L408.591 237.832Z" fill="#B81414"/>
</svg>
