<svg width="800" height="400" viewBox="0 0 800 400" fill="none" xmlns="http://www.w3.org/2000/svg">
<rect x="264.212" y="38.2119" width="281.771" height="328.18" rx="16.5747" fill="#2B266D"/>
<path d="M161.406 373C158.398 373 156.945 369.316 159.144 367.262L187.379 340.892C187.993 340.319 188.802 340 189.642 340H540.446C541.225 340 541.979 340.274 542.576 340.775L574.019 367.145C576.39 369.134 574.984 373 571.889 373H161.406Z" fill="#2B266D"/>
<rect x="271.842" y="39.2119" width="279.771" height="332.81" rx="15.5747" fill="white" stroke="#2B266D" stroke-width="2"/>
<rect x="302" y="340" width="203" height="4" rx="2" fill="#9C96F0"/>
<path d="M303.963 75.1796H308.008V96H303.963V75.1796ZM311.922 75.1796H316.026L324.949 89.6349V75.1796H328.727V96H324.622L315.729 81.5744V96H311.922V75.1796ZM330.935 75.1796H335.069L340.453 91.1816L345.896 75.1796H350.001L342.416 96H338.52L330.935 75.1796ZM360.946 96.2379C358.943 96.2379 357.138 95.7819 355.532 94.8697C353.926 93.9378 352.667 92.6687 351.755 91.0626C350.843 89.4366 350.387 87.6123 350.387 85.5898C350.387 83.5672 350.843 81.7529 351.755 80.1467C352.667 78.5207 353.926 77.2517 355.532 76.3395C357.138 75.4076 358.943 74.9416 360.946 74.9416C362.948 74.9416 364.743 75.4076 366.329 76.3395C367.935 77.2517 369.194 78.5207 370.107 80.1467C371.019 81.7529 371.475 83.5672 371.475 85.5898C371.475 87.6123 371.019 89.4366 370.107 91.0626C369.194 92.6687 367.935 93.9378 366.329 94.8697C364.743 95.7819 362.948 96.2379 360.946 96.2379ZM354.461 85.5898C354.461 86.958 354.739 88.1874 355.294 89.278C355.85 90.3487 356.613 91.1915 357.585 91.8062C358.576 92.4209 359.696 92.7282 360.946 92.7282C362.195 92.7282 363.305 92.4209 364.277 91.8062C365.248 91.1915 366.012 90.3487 366.567 89.278C367.122 88.1874 367.4 86.958 367.4 85.5898C367.4 84.2216 367.122 82.9922 366.567 81.9016C366.012 80.811 365.248 79.9583 364.277 79.3436C363.305 78.7289 362.195 78.4216 360.946 78.4216C359.696 78.4216 358.576 78.7289 357.585 79.3436C356.613 79.9583 355.85 80.811 355.294 81.9016C354.739 82.9922 354.461 84.2216 354.461 85.5898ZM374.488 75.1796H378.533V96H374.488V75.1796ZM391.875 96.2379C389.991 96.2379 388.266 95.8315 386.7 95.0185C385.133 94.2055 383.874 92.9959 382.922 91.3898C381.99 89.7836 381.524 87.8503 381.524 85.5898C381.524 83.3293 382 81.3959 382.952 79.7898C383.904 78.1836 385.163 76.9741 386.729 76.1611C388.296 75.3481 390.011 74.9416 391.875 74.9416C393.521 74.9416 394.998 75.2291 396.307 75.8042C397.616 76.3594 398.686 77.1625 399.519 78.2134C400.352 79.2643 400.887 80.4838 401.125 81.8718L397.11 82.7047C396.852 81.3761 396.247 80.3351 395.296 79.5816C394.364 78.8083 393.223 78.4216 391.875 78.4216C390.685 78.4216 389.615 78.6992 388.663 79.2544C387.731 79.8096 386.987 80.6325 386.432 81.7231C385.897 82.7939 385.629 84.0828 385.629 85.5898C385.629 87.0968 385.897 88.3956 386.432 89.4862C386.967 90.5569 387.711 91.3699 388.663 91.9251C389.615 92.4605 390.685 92.7282 391.875 92.7282C393.223 92.7282 394.344 92.3812 395.236 91.6872C396.128 90.9932 396.713 90.0315 396.991 88.8021L401.066 89.6944C400.55 91.7368 399.48 93.3429 397.854 94.5128C396.247 95.6629 394.255 96.2379 391.875 96.2379ZM403.708 75.1796H417.628V78.6595H407.753V83.24H415.665V86.7498H407.753V92.4903H417.955V96H403.708V75.1796Z" fill="#2B266D"/>
<path d="M401.278 131H305.849C303.206 131 301.063 133.168 301.063 135.842V144.158C301.063 146.832 303.206 149 305.849 149H401.278C403.921 149 406.063 146.832 406.063 144.158V135.842C406.063 133.168 403.921 131 401.278 131Z" fill="#2B266D"/>
<rect x="301.063" y="169" width="208" height="8" rx="4" fill="#D5D4D2"/>
<rect x="301.063" y="187" width="140" height="8" rx="4" fill="#D5D4D2"/>
<rect x="301.063" y="205" width="176" height="8" rx="4" fill="#D5D4D2"/>
<rect x="301.063" y="223" width="140" height="8" rx="4" fill="#D5D4D2"/>
<rect x="301.063" y="241" width="176" height="8" rx="4" fill="#D5D4D2"/>
<rect x="301.063" y="259" width="140" height="8" rx="4" fill="#D5D4D2"/>
<path d="M305.434 308.551C304.757 308.551 304.124 308.411 303.536 308.132C302.949 307.843 302.465 307.45 302.087 306.951C301.708 306.453 301.479 305.89 301.399 305.263L303.208 304.71C303.287 305.327 303.541 305.836 303.97 306.234C304.408 306.623 304.921 306.817 305.509 306.817C306.057 306.817 306.495 306.697 306.824 306.458C307.153 306.219 307.317 305.9 307.317 305.502C307.317 305.193 307.218 304.939 307.018 304.74C306.829 304.54 306.585 304.381 306.286 304.261C305.987 304.142 305.584 304.007 305.076 303.858C304.378 303.649 303.81 303.444 303.372 303.245C302.934 303.036 302.555 302.727 302.236 302.319C301.927 301.91 301.773 301.377 301.773 300.72C301.773 300.172 301.932 299.678 302.251 299.24C302.57 298.802 303.003 298.463 303.551 298.224C304.109 297.975 304.727 297.85 305.404 297.85C306.062 297.85 306.665 297.96 307.213 298.179C307.761 298.398 308.214 298.712 308.573 299.12C308.941 299.519 309.18 299.977 309.29 300.495L307.467 301.243C307.357 300.734 307.118 300.331 306.749 300.032C306.391 299.733 305.942 299.584 305.404 299.584C304.906 299.584 304.513 299.688 304.224 299.898C303.935 300.097 303.79 300.371 303.79 300.72C303.79 300.959 303.875 301.153 304.045 301.302C304.214 301.452 304.423 301.571 304.672 301.661C304.921 301.751 305.285 301.86 305.763 301.99C306.5 302.169 307.113 302.368 307.601 302.588C308.09 302.797 308.508 303.131 308.857 303.589C309.205 304.047 309.38 304.67 309.38 305.457C309.38 306.065 309.215 306.603 308.887 307.071C308.558 307.539 308.095 307.903 307.497 308.162C306.899 308.421 306.211 308.551 305.434 308.551ZM310.752 300.899H312.635V308.431H310.752V300.899ZM311.693 299.748C311.355 299.748 311.076 299.639 310.857 299.419C310.637 299.19 310.528 298.911 310.528 298.582C310.528 298.254 310.637 297.98 310.857 297.76C311.086 297.541 311.365 297.432 311.693 297.432C312.032 297.432 312.316 297.546 312.545 297.775C312.774 297.995 312.889 298.264 312.889 298.582C312.889 298.911 312.774 299.19 312.545 299.419C312.316 299.639 312.032 299.748 311.693 299.748ZM317.567 308.207C316.471 308.207 315.61 307.868 314.982 307.191C314.364 306.513 314.055 305.616 314.055 304.501C314.055 303.763 314.195 303.116 314.474 302.558C314.753 301.99 315.151 301.551 315.669 301.243C316.197 300.934 316.815 300.779 317.523 300.779C317.971 300.779 318.379 300.859 318.748 301.018C319.127 301.178 319.426 301.392 319.645 301.661V300.899H321.513V307.953C321.513 308.61 321.358 309.188 321.05 309.686C320.741 310.194 320.302 310.583 319.734 310.852C319.167 311.131 318.514 311.27 317.777 311.27C316.89 311.27 316.128 311.051 315.49 310.613C314.852 310.184 314.469 309.622 314.339 308.924L316.088 308.64C316.128 308.989 316.307 309.263 316.626 309.462C316.945 309.661 317.328 309.761 317.777 309.761C318.345 309.761 318.798 309.612 319.137 309.313C319.485 309.024 319.66 308.635 319.66 308.147V307.325C319.47 307.594 319.186 307.808 318.808 307.968C318.429 308.127 318.016 308.207 317.567 308.207ZM315.924 304.501C315.924 305.128 316.098 305.631 316.447 306.01C316.795 306.389 317.259 306.578 317.836 306.578C318.414 306.578 318.878 306.389 319.226 306.01C319.585 305.631 319.764 305.128 319.764 304.501C319.764 303.863 319.59 303.355 319.241 302.976C318.893 302.598 318.424 302.408 317.836 302.408C317.259 302.408 316.795 302.598 316.447 302.976C316.098 303.355 315.924 303.863 315.924 304.501ZM323.347 300.899H325.23V302.035C325.479 301.656 325.808 301.352 326.216 301.123C326.635 300.894 327.103 300.779 327.621 300.779C328.448 300.779 329.111 301.028 329.609 301.527C330.117 302.025 330.371 302.682 330.371 303.499V308.431H328.488V303.948C328.488 303.499 328.358 303.141 328.099 302.872C327.84 302.593 327.492 302.453 327.053 302.453C326.475 302.453 326.027 302.687 325.708 303.156C325.389 303.624 325.23 304.281 325.23 305.128V308.431H323.347V300.899ZM336.585 303.589C336.585 303.16 336.45 302.827 336.181 302.588C335.912 302.339 335.549 302.214 335.09 302.214C334.682 302.214 334.338 302.334 334.059 302.573C333.79 302.812 333.636 303.131 333.596 303.529L331.922 303.23C332.042 302.493 332.395 301.9 332.983 301.452C333.581 301.003 334.283 300.779 335.09 300.779C336.097 300.779 336.899 301.048 337.496 301.586C338.104 302.114 338.408 302.867 338.408 303.843V308.431H336.585V307.34C336.376 307.709 336.062 308.003 335.643 308.222C335.235 308.441 334.796 308.551 334.328 308.551C333.84 308.551 333.407 308.456 333.028 308.267C332.649 308.067 332.351 307.798 332.131 307.46C331.922 307.121 331.817 306.737 331.817 306.309C331.817 305.572 332.096 304.999 332.654 304.59C333.212 304.182 334.054 303.918 335.18 303.798L336.585 303.664V303.589ZM333.641 306.249C333.641 306.518 333.74 306.737 333.94 306.907C334.139 307.076 334.408 307.161 334.747 307.161C335.315 307.161 335.763 306.971 336.092 306.593C336.42 306.214 336.585 305.741 336.585 305.173V305.009L335.15 305.173C334.662 305.233 334.288 305.357 334.029 305.547C333.77 305.736 333.641 305.97 333.641 306.249ZM344.584 308.356C344.226 308.486 343.822 308.551 343.374 308.551C342.577 308.551 341.934 308.331 341.446 307.893C340.958 307.455 340.714 306.812 340.714 305.965V302.483H339.443V300.899H340.714V298.687H342.597V300.899H344.495V302.483H342.597V305.786C342.597 306.134 342.681 306.408 342.851 306.608C343.03 306.797 343.269 306.892 343.568 306.892C343.917 306.892 344.211 306.832 344.45 306.712L344.584 308.356ZM352.832 308.431H350.949V307.295C350.7 307.674 350.366 307.978 349.947 308.207C349.539 308.436 349.076 308.551 348.557 308.551C347.731 308.551 347.063 308.301 346.555 307.803C346.057 307.305 345.808 306.648 345.808 305.831V300.899H347.691V305.382C347.691 305.831 347.82 306.194 348.079 306.473C348.338 306.742 348.687 306.877 349.125 306.877C349.703 306.877 350.152 306.643 350.47 306.174C350.789 305.706 350.949 305.048 350.949 304.202V300.899H352.832V308.431ZM359.509 302.722C359.24 302.603 358.921 302.543 358.552 302.543C357.975 302.543 357.491 302.802 357.103 303.32C356.724 303.828 356.535 304.61 356.535 305.666V308.431H354.652V300.899H356.535V302.274C356.724 301.845 357.033 301.492 357.461 301.213C357.9 300.924 358.348 300.779 358.806 300.779C359.115 300.779 359.389 300.819 359.628 300.899L359.509 302.722ZM360.057 304.665C360.057 303.987 360.196 303.355 360.475 302.767C360.764 302.169 361.188 301.691 361.746 301.332C362.304 300.964 362.981 300.779 363.778 300.779C364.585 300.779 365.273 300.954 365.84 301.302C366.408 301.651 366.837 302.104 367.126 302.662C367.415 303.22 367.559 303.803 367.559 304.411C367.559 304.71 367.549 304.959 367.529 305.158H361.94C362.02 305.726 362.234 306.169 362.583 306.488C362.931 306.807 363.375 306.966 363.913 306.966C364.351 306.966 364.72 306.867 365.019 306.668C365.317 306.468 365.517 306.184 365.616 305.816L367.38 306.294C367.171 307.001 366.757 307.554 366.139 307.953C365.522 308.351 364.769 308.551 363.883 308.551C363.086 308.551 362.398 308.371 361.82 308.013C361.243 307.644 360.804 307.161 360.505 306.563C360.206 305.965 360.057 305.332 360.057 304.665ZM365.542 303.783C365.492 303.315 365.317 302.936 365.019 302.647C364.72 302.358 364.306 302.214 363.778 302.214C363.31 302.214 362.916 302.348 362.598 302.618C362.289 302.887 362.084 303.275 361.985 303.783H365.542ZM377.431 302.722C377.162 302.603 376.843 302.543 376.474 302.543C375.896 302.543 375.413 302.802 375.025 303.32C374.646 303.828 374.457 304.61 374.457 305.666V308.431H372.574V300.899H374.457V302.274C374.646 301.845 374.955 301.492 375.383 301.213C375.822 300.924 376.27 300.779 376.728 300.779C377.037 300.779 377.311 300.819 377.55 300.899L377.431 302.722ZM377.979 304.665C377.979 303.987 378.118 303.355 378.397 302.767C378.686 302.169 379.11 301.691 379.668 301.332C380.225 300.964 380.903 300.779 381.7 300.779C382.507 300.779 383.194 300.954 383.762 301.302C384.33 301.651 384.759 302.104 385.048 302.662C385.337 303.22 385.481 303.803 385.481 304.411C385.481 304.71 385.471 304.959 385.451 305.158H379.862C379.942 305.726 380.156 306.169 380.504 306.488C380.853 306.807 381.297 306.966 381.835 306.966C382.273 306.966 382.642 306.867 382.94 306.668C383.239 306.468 383.439 306.184 383.538 305.816L385.302 306.294C385.092 307.001 384.679 307.554 384.061 307.953C383.444 308.351 382.691 308.551 381.805 308.551C381.008 308.551 380.32 308.371 379.742 308.013C379.164 307.644 378.726 307.161 378.427 306.563C378.128 305.965 377.979 305.332 377.979 304.665ZM383.463 303.783C383.414 303.315 383.239 302.936 382.94 302.647C382.642 302.358 382.228 302.214 381.7 302.214C381.232 302.214 380.838 302.348 380.519 302.618C380.211 302.887 380.006 303.275 379.907 303.783H383.463ZM392.241 311.151V307.684C392.021 307.953 391.723 308.167 391.344 308.326C390.975 308.476 390.572 308.551 390.133 308.551C389.406 308.551 388.769 308.391 388.221 308.072C387.673 307.744 387.249 307.285 386.95 306.697C386.651 306.11 386.502 305.432 386.502 304.665C386.502 303.898 386.641 303.22 386.92 302.632C387.209 302.045 387.618 301.591 388.146 301.272C388.674 300.944 389.292 300.779 389.999 300.779C390.487 300.779 390.926 300.869 391.314 301.048C391.713 301.228 392.021 301.467 392.241 301.766V300.899H394.124V311.151H392.241ZM388.37 304.665C388.37 305.342 388.549 305.89 388.908 306.309C389.277 306.717 389.76 306.922 390.358 306.922C390.965 306.922 391.449 306.717 391.807 306.309C392.176 305.89 392.36 305.342 392.36 304.665C392.36 303.987 392.176 303.444 391.807 303.036C391.449 302.618 390.965 302.408 390.358 302.408C389.76 302.408 389.277 302.618 388.908 303.036C388.549 303.444 388.37 303.987 388.37 304.665ZM402.978 308.431H401.095V307.295C400.846 307.674 400.512 307.978 400.094 308.207C399.685 308.436 399.222 308.551 398.704 308.551C397.877 308.551 397.209 308.301 396.701 307.803C396.203 307.305 395.954 306.648 395.954 305.831V300.899H397.837V305.382C397.837 305.831 397.967 306.194 398.226 306.473C398.485 306.742 398.833 306.877 399.272 306.877C399.85 306.877 400.298 306.643 400.617 306.174C400.936 305.706 401.095 305.048 401.095 304.202V300.899H402.978V308.431ZM404.798 300.899H406.681V308.431H404.798V300.899ZM405.74 299.748C405.401 299.748 405.122 299.639 404.903 299.419C404.684 299.19 404.574 298.911 404.574 298.582C404.574 298.254 404.684 297.98 404.903 297.76C405.132 297.541 405.411 297.432 405.74 297.432C406.078 297.432 406.362 297.546 406.592 297.775C406.821 297.995 406.935 298.264 406.935 298.582C406.935 298.911 406.821 299.19 406.592 299.419C406.362 299.639 406.078 299.748 405.74 299.748ZM413.362 302.722C413.093 302.603 412.774 302.543 412.406 302.543C411.828 302.543 411.345 302.802 410.956 303.32C410.577 303.828 410.388 304.61 410.388 305.666V308.431H408.505V300.899H410.388V302.274C410.577 301.845 410.886 301.492 411.315 301.213C411.753 300.924 412.201 300.779 412.66 300.779C412.969 300.779 413.243 300.819 413.482 300.899L413.362 302.722ZM413.91 304.665C413.91 303.987 414.05 303.355 414.329 302.767C414.618 302.169 415.041 301.691 415.599 301.332C416.157 300.964 416.834 300.779 417.631 300.779C418.438 300.779 419.126 300.954 419.694 301.302C420.262 301.651 420.69 302.104 420.979 302.662C421.268 303.22 421.412 303.803 421.412 304.411C421.412 304.71 421.402 304.959 421.383 305.158H415.793C415.873 305.726 416.087 306.169 416.436 306.488C416.785 306.807 417.228 306.966 417.766 306.966C418.204 306.966 418.573 306.867 418.872 306.668C419.171 306.468 419.37 306.184 419.47 305.816L421.233 306.294C421.024 307.001 420.61 307.554 419.993 307.953C419.375 308.351 418.623 308.551 417.736 308.551C416.939 308.551 416.252 308.371 415.674 308.013C415.096 307.644 414.657 307.161 414.359 306.563C414.06 305.965 413.91 305.332 413.91 304.665ZM419.395 303.783C419.345 303.315 419.171 302.936 418.872 302.647C418.573 302.358 418.159 302.214 417.631 302.214C417.163 302.214 416.77 302.348 416.451 302.618C416.142 302.887 415.938 303.275 415.838 303.783H419.395ZM426.02 308.551C425.283 308.551 424.64 308.391 424.092 308.072C423.554 307.744 423.141 307.285 422.852 306.697C422.573 306.11 422.433 305.432 422.433 304.665C422.433 303.898 422.573 303.22 422.852 302.632C423.141 302.045 423.554 301.591 424.092 301.272C424.63 300.944 425.263 300.779 425.99 300.779C426.448 300.779 426.872 300.869 427.26 301.048C427.649 301.218 427.953 301.447 428.172 301.736V297.85H430.055V308.431H428.172V307.564C427.983 307.863 427.694 308.102 427.305 308.282C426.917 308.461 426.488 308.551 426.02 308.551ZM424.301 304.665C424.301 305.342 424.481 305.89 424.839 306.309C425.208 306.717 425.691 306.922 426.289 306.922C426.897 306.922 427.38 306.717 427.739 306.309C428.107 305.89 428.292 305.342 428.292 304.665C428.292 303.987 428.107 303.444 427.739 303.036C427.38 302.618 426.897 302.408 426.289 302.408C425.691 302.408 425.208 302.618 424.839 303.036C424.481 303.444 424.301 303.987 424.301 304.665Z" fill="#2B266D"/>
<path d="M302.304 332.023L305.935 326.374L302.842 321.562H303.888L306.458 325.567L309.044 321.562H310.09L306.981 326.374L310.613 332.023H309.567L306.458 327.196L303.35 332.023H302.304Z" fill="#2B266D"/>
<path d="M526.527 398.2H645.5" stroke="#2B266D" stroke-width="2" stroke-miterlimit="10" stroke-linecap="round" stroke-linejoin="round"/>
<rect x="520" y="182" width="123.128" height="130.607" rx="5.47815" fill="#2B266D" stroke="#2B266D" stroke-width="4"/>
<rect x="521.494" y="181" width="125.454" height="134.557" rx="6.47815" fill="#8EE9CC" stroke="#2B266D" stroke-width="2"/>
<rect x="533.642" y="229.565" width="22.2538" height="20.2307" rx="4.98543" fill="white"/>
<rect x="559.944" y="229.565" width="22.2538" height="20.2307" rx="4.98543" fill="white"/>
<rect x="586.244" y="229.565" width="22.2538" height="20.2307" rx="4.98543" fill="white"/>
<rect x="612.542" y="229.565" width="22.2538" height="20.2307" rx="4.98543" fill="white"/>
<rect x="533.642" y="253.842" width="22.2538" height="20.2307" rx="4.98543" fill="white"/>
<rect x="559.944" y="253.842" width="22.2538" height="20.2307" rx="4.98543" fill="white"/>
<rect x="586.244" y="253.842" width="22.2538" height="20.2307" rx="4.98543" fill="white"/>
<rect x="533.642" y="278.119" width="22.2538" height="20.2307" rx="4.98543" fill="white"/>
<rect x="559.944" y="278.119" width="22.2538" height="20.2307" rx="4.98543" fill="white"/>
<rect x="586.244" y="278.119" width="22.2538" height="20.2307" rx="4.98543" fill="white"/>
<rect x="534.888" y="196.203" width="98.6609" height="17.738" rx="3.73907" fill="white" stroke="white" stroke-width="2.49272"/>
<rect x="612.542" y="253.842" width="22.2538" height="44.5076" rx="4.98543" fill="#FF5787"/>
</svg>
