<svg width="800" height="400" viewBox="0 0 800 400" fill="none" xmlns="http://www.w3.org/2000/svg">
<g opacity="0.8">
<path d="M165.083 228.703C162.914 228.703 161.871 226.042 163.462 224.568L180.363 208.907C180.804 208.499 181.383 208.272 181.985 208.272H400.665C401.223 208.272 401.763 208.467 402.191 208.823L421.012 224.484C422.728 225.912 421.718 228.703 419.486 228.703H165.083Z" fill="#2B266D"/>
<path d="M391.69 227.215H258.028C253.299 227.215 249.47 223.388 249.47 218.662V35.5536C249.47 30.8271 253.299 27 258.028 27H391.69C396.42 27 400.249 30.8271 400.249 35.5536V218.655C400.249 223.381 396.42 227.208 391.69 227.208V227.215Z" fill="#2B266D"/>
<path d="M396.02 226.844H262.357C257.628 226.844 253.799 223.017 253.799 218.291V36.2305C253.799 31.5041 257.628 27.6769 262.357 27.6769H396.02C400.749 27.6769 404.578 31.5041 404.578 36.2305V218.291C404.578 223.017 400.749 226.844 396.02 226.844Z" fill="white"/>
<path fill-rule="evenodd" clip-rule="evenodd" d="M262.358 28.3759C258.015 28.3759 254.499 31.8905 254.499 36.2305V218.29C254.499 222.631 258.015 226.145 262.358 226.145H396.02C400.364 226.145 403.88 222.631 403.88 218.29V36.2305C403.88 31.8905 400.364 28.3759 396.02 28.3759H262.358ZM253.101 36.2305C253.101 31.1176 257.243 26.9779 262.358 26.9779H396.02C401.135 26.9779 405.278 31.1176 405.278 36.2305V218.29C405.278 223.403 401.135 227.543 396.02 227.543H262.358C257.243 227.543 253.101 223.403 253.101 218.29V36.2305Z" fill="#2B266D"/>
<path d="M269.525 96.657C269.525 95.3674 270.571 94.322 271.86 94.322H389.849C391.139 94.322 392.184 95.3674 392.184 96.657C392.184 97.9466 391.139 98.992 389.849 98.992H271.86C270.571 98.992 269.525 97.9466 269.525 96.657Z" fill="#D5D4D2"/>
<path d="M269.525 107.165C269.525 105.875 270.571 104.83 271.86 104.83H329.688C330.978 104.83 332.023 105.875 332.023 107.165C332.023 108.454 330.978 109.5 329.688 109.5H271.86C270.571 109.5 269.525 108.454 269.525 107.165Z" fill="#D5D4D2"/>
<path d="M269.525 117.672C269.525 116.383 270.571 115.337 271.86 115.337H329.688C330.978 115.337 332.023 116.383 332.023 117.672C332.023 118.962 330.978 120.007 329.688 120.007H271.86C270.571 120.007 269.525 118.962 269.525 117.672Z" fill="#D5D4D2"/>
<path d="M269.525 128.18C269.525 126.89 270.571 125.845 271.86 125.845H329.688C330.978 125.845 332.023 126.89 332.023 128.18C332.023 129.469 330.978 130.515 329.688 130.515H271.86C270.571 130.515 269.525 129.469 269.525 128.18Z" fill="#D5D4D2"/>
<path d="M269.525 138.687C269.525 137.398 270.571 136.352 271.86 136.352H329.688C330.978 136.352 332.023 137.398 332.023 138.687C332.023 139.977 330.978 141.022 329.688 141.022H271.86C270.571 141.022 269.525 139.977 269.525 138.687Z" fill="#D5D4D2"/>
<path d="M269.525 149.195C269.525 147.905 270.571 146.86 271.86 146.86H329.688C330.978 146.86 332.023 147.905 332.023 149.195C332.023 150.484 330.978 151.53 329.688 151.53H271.86C270.571 151.53 269.525 150.484 269.525 149.195Z" fill="#D5D4D2"/>
<path d="M269.525 159.702C269.525 158.413 270.571 157.367 271.86 157.367H349.547C350.837 157.367 351.882 158.413 351.882 159.702C351.882 160.992 350.837 162.037 349.547 162.037H271.86C270.571 162.037 269.525 160.992 269.525 159.702Z" fill="#D5D4D2"/>
<path d="M269.525 170.21C269.525 168.92 270.571 167.875 271.86 167.875H329.688C330.978 167.875 332.023 168.92 332.023 170.21C332.023 171.5 330.978 172.545 329.688 172.545H271.86C270.571 172.545 269.525 171.5 269.525 170.21Z" fill="#D5D4D2"/>
<path d="M329.906 60.7951V48.4005H338.198V50.4721H332.316V53.199H337.028V55.2884H332.316V58.7057H338.393V60.7951H329.906Z" fill="#2B266D"/>
<path d="M322.859 60.9368C319.581 60.9368 316.693 58.7943 316.693 54.5978C316.693 50.4013 319.634 48.2588 322.859 48.2588C325.835 48.2588 327.944 49.8878 328.369 52.3845L325.977 52.8803C325.658 51.3044 324.453 50.3305 322.859 50.3305C320.768 50.3305 319.138 51.8179 319.138 54.5978C319.138 57.3778 320.751 58.8474 322.859 58.8474C324.471 58.8474 325.587 57.9621 325.906 56.5101L328.333 57.0413C327.731 59.4671 325.711 60.9368 322.859 60.9368Z" fill="#2B266D"/>
<path d="M312.502 60.7951V48.4005H314.911V60.7951H312.502Z" fill="#2B266D"/>
<path d="M304.435 60.9368C300.803 60.9368 298.146 58.2631 298.146 54.5978C298.146 50.9325 300.803 48.2588 304.435 48.2588C308.049 48.2588 310.707 50.9325 310.707 54.5978C310.707 58.2631 308.049 60.9368 304.435 60.9368ZM300.573 54.5978C300.573 57.059 302.185 58.8474 304.435 58.8474C306.685 58.8474 308.28 57.059 308.28 54.5978C308.28 52.1366 306.685 50.3305 304.435 50.3305C302.185 50.3305 300.573 52.1366 300.573 54.5978Z" fill="#2B266D"/>
<path d="M291.077 60.7951L286.56 48.4005H289.022L292.229 57.9266L295.471 48.4005H297.916L293.398 60.7951H291.077Z" fill="#2B266D"/>
<path d="M275.234 60.7951V48.4005H277.679L282.994 57.0059V48.4005H285.244V60.7951H282.799L277.502 52.2074V60.7951H275.234Z" fill="#2B266D"/>
<path d="M270.493 60.7951V48.4005H272.903V60.7951H270.493Z" fill="#2B266D"/>
<path d="M316.709 79.4457H271.778C270.534 79.4457 269.525 80.4538 269.525 81.6974V85.5651C269.525 86.8087 270.534 87.8168 271.778 87.8168H316.709C317.953 87.8168 318.962 86.8087 318.962 85.5651V81.6974C318.962 80.4538 317.953 79.4457 316.709 79.4457Z" fill="#D5D4D2"/>
<path d="M388.127 199.823H343.196C341.952 199.823 340.943 200.832 340.943 202.075V207.971C340.943 209.215 341.952 210.223 343.196 210.223H388.127C389.371 210.223 390.38 209.215 390.38 207.971V202.075C390.38 200.832 389.371 199.823 388.127 199.823Z" fill="#D5D4D2"/>
</g>
<path fill-rule="evenodd" clip-rule="evenodd" d="M574.126 85.4579C573.574 85.4579 573.126 85.0102 573.126 84.4579L573.126 77.6507C573.126 77.0984 573.574 76.6507 574.126 76.6506C574.678 76.6506 575.126 77.0984 575.126 77.6506L575.126 84.4579C575.126 85.0102 574.678 85.4579 574.126 85.4579ZM574.126 65.0362C573.574 65.0362 573.126 64.5885 573.126 64.0362L573.126 57.2289C573.126 56.6767 573.574 56.2289 574.126 56.2289C574.678 56.2289 575.126 56.6767 575.126 57.2289L575.126 64.0362C575.126 64.5885 574.678 65.0362 574.126 65.0362Z" fill="#2B266D"/>
<path fill-rule="evenodd" clip-rule="evenodd" d="M404.665 56.8992C404.665 56.3469 405.113 55.8992 405.665 55.8992L411.682 55.8992C412.234 55.8992 412.682 56.3469 412.682 56.8992C412.682 57.4515 412.234 57.8992 411.682 57.8992L405.665 57.8992C405.113 57.8992 404.665 57.4515 404.665 56.8992ZM422.714 56.8992C422.714 56.3469 423.162 55.8992 423.714 55.8992L435.747 55.8992C436.3 55.8992 436.747 56.3469 436.747 56.8992C436.747 57.4515 436.3 57.8992 435.747 57.8992L423.714 57.8992C423.162 57.8992 422.714 57.4515 422.714 56.8992ZM446.78 56.8992C446.78 56.3469 447.228 55.8992 447.78 55.8992L459.813 55.8992C460.366 55.8992 460.813 56.3469 460.813 56.8992C460.813 57.4515 460.366 57.8992 459.813 57.8992L447.78 57.8992C447.228 57.8992 446.78 57.4515 446.78 56.8992ZM470.846 56.8992C470.846 56.3469 471.294 55.8992 471.846 55.8992L483.879 55.8992C484.432 55.8992 484.879 56.3469 484.879 56.8992C484.879 57.4515 484.432 57.8992 483.879 57.8992L471.846 57.8992C471.294 57.8992 470.846 57.4515 470.846 56.8992ZM494.912 56.8992C494.912 56.3469 495.36 55.8992 495.912 55.8992L507.945 55.8992C508.497 55.8992 508.945 56.3469 508.945 56.8992C508.945 57.4515 508.497 57.8992 507.945 57.8992L495.912 57.8992C495.36 57.8992 494.912 57.4515 494.912 56.8992ZM518.978 56.8992C518.978 56.3469 519.426 55.8992 519.978 55.8992L532.011 55.8992C532.563 55.8992 533.011 56.3469 533.011 56.8992C533.011 57.4515 532.563 57.8992 532.011 57.8992L519.978 57.8992C519.426 57.8992 518.978 57.4515 518.978 56.8992ZM543.044 56.8992C543.044 56.3469 543.492 55.8992 544.044 55.8992L556.077 55.8992C556.629 55.8992 557.077 56.3469 557.077 56.8992C557.077 57.4515 556.629 57.8992 556.077 57.8992L544.044 57.8992C543.492 57.8992 543.044 57.4515 543.044 56.8992ZM567.11 56.8992C567.11 56.3469 567.558 55.8992 568.11 55.8992L574.126 55.8992C574.679 55.8992 575.126 56.3469 575.126 56.8992C575.126 57.4515 574.679 57.8992 574.126 57.8992L568.11 57.8992C567.558 57.8992 567.11 57.4515 567.11 56.8992Z" fill="#2B266D"/>
<path d="M267.975 373.178C264.872 373.178 263.379 369.372 265.656 367.262L289.834 344.858C290.465 344.274 291.293 343.949 292.153 343.949H604.996C605.794 343.949 606.566 344.228 607.179 344.738L634.104 367.142C636.558 369.185 635.114 373.178 631.922 373.178H267.975Z" fill="#2B266D"/>
<path d="M592.156 371.049H400.94C394.175 371.049 388.696 365.574 388.696 358.812V96.8595C388.696 90.0979 394.175 84.6228 400.94 84.6228H592.156C598.922 84.6228 604.4 90.0979 604.4 96.8595V358.803C604.4 365.564 598.922 371.039 592.156 371.039V371.049Z" fill="#2B266D"/>
<path d="M598.351 370.518H407.135C400.37 370.518 394.892 365.043 394.892 358.281V97.8275C394.892 91.0659 400.37 85.5908 407.135 85.5908H598.351C605.117 85.5908 610.595 91.0659 610.595 97.8275V358.281C610.595 365.043 605.117 370.518 598.351 370.518Z" fill="white"/>
<path fill-rule="evenodd" clip-rule="evenodd" d="M407.135 86.5908C400.922 86.5908 395.892 91.6187 395.892 97.8275V358.281C395.892 364.49 400.922 369.518 407.135 369.518H598.351C604.565 369.518 609.595 364.49 609.595 358.281V97.8275C609.595 91.6187 604.565 86.5908 598.351 86.5908H407.135ZM393.892 97.8275C393.892 90.5131 399.818 84.5908 407.135 84.5908H598.351C605.669 84.5908 611.595 90.5131 611.595 97.8275V358.281C611.595 365.596 605.669 371.518 598.351 371.518H407.135C399.818 371.518 393.892 365.596 393.892 358.281V97.8275Z" fill="#2B266D"/>
<path d="M417.388 184.273C417.388 182.429 418.883 180.933 420.728 180.933H589.522C591.367 180.933 592.863 182.429 592.863 184.273C592.863 186.118 591.367 187.614 589.522 187.614H420.728C418.883 187.614 417.388 186.118 417.388 184.273Z" fill="#D5D4D2"/>
<path d="M417.388 199.305C417.388 197.461 418.883 195.965 420.728 195.965H503.456C505.301 195.965 506.796 197.461 506.796 199.305C506.796 201.15 505.301 202.646 503.456 202.646H420.728C418.883 202.646 417.388 201.15 417.388 199.305Z" fill="#D5D4D2"/>
<path d="M417.388 214.337C417.388 212.493 418.883 210.997 420.728 210.997H503.456C505.301 210.997 506.796 212.493 506.796 214.337C506.796 216.182 505.301 217.678 503.456 217.678H420.728C418.883 217.678 417.388 216.182 417.388 214.337Z" fill="#D5D4D2"/>
<path d="M417.388 229.369C417.388 227.525 418.883 226.029 420.728 226.029H503.456C505.301 226.029 506.796 227.525 506.796 229.369C506.796 231.214 505.301 232.71 503.456 232.71H420.728C418.883 232.71 417.388 231.214 417.388 229.369Z" fill="#D5D4D2"/>
<path d="M417.388 244.401C417.388 242.557 418.883 241.061 420.728 241.061H503.456C505.301 241.061 506.796 242.557 506.796 244.401C506.796 246.246 505.301 247.742 503.456 247.742H420.728C418.883 247.742 417.388 246.246 417.388 244.401Z" fill="#D5D4D2"/>
<path d="M417.388 259.434C417.388 257.589 418.883 256.093 420.728 256.093H503.456C505.301 256.093 506.796 257.589 506.796 259.434C506.796 261.278 505.301 262.774 503.456 262.774H420.728C418.883 262.774 417.388 261.278 417.388 259.434Z" fill="#D5D4D2"/>
<path d="M417.388 274.466C417.388 272.621 418.883 271.125 420.728 271.125H531.866C533.711 271.125 535.207 272.621 535.207 274.466C535.207 276.31 533.711 277.806 531.866 277.806H420.728C418.883 277.806 417.388 276.31 417.388 274.466Z" fill="#D5D4D2"/>
<path d="M417.388 289.498C417.388 287.653 418.883 286.157 420.728 286.157H503.456C505.301 286.157 506.796 287.653 506.796 289.498C506.796 291.342 505.301 292.838 503.456 292.838H420.728C418.883 292.838 417.388 291.342 417.388 289.498Z" fill="#D5D4D2"/>
<path d="M503.77 132.819V115.087H515.631V118.051H507.217V121.952H513.958V124.941H507.217V129.83H515.91V132.819H503.77Z" fill="#2B266D"/>
<path d="M493.686 133.021C488.997 133.021 484.865 129.956 484.865 123.953C484.865 117.949 489.073 114.884 493.686 114.884C497.944 114.884 500.96 117.215 501.568 120.786L498.146 121.496C497.69 119.241 495.967 117.848 493.686 117.848C490.695 117.848 488.363 119.976 488.363 123.953C488.363 127.93 490.669 130.032 493.686 130.032C495.992 130.032 497.589 128.766 498.045 126.689L501.517 127.449C500.656 130.919 497.766 133.021 493.686 133.021Z" fill="#2B266D"/>
<path d="M478.869 132.819V115.087H482.316V132.819H478.869Z" fill="#2B266D"/>
<path d="M467.33 133.021C462.134 133.021 458.332 129.196 458.332 123.953C458.332 118.709 462.134 114.884 467.33 114.884C472.5 114.884 476.302 118.709 476.302 123.953C476.302 129.196 472.5 133.021 467.33 133.021ZM461.804 123.953C461.804 127.474 464.111 130.032 467.33 130.032C470.549 130.032 472.83 127.474 472.83 123.953C472.83 120.432 470.549 117.848 467.33 117.848C464.111 117.848 461.804 120.432 461.804 123.953Z" fill="#2B266D"/>
<path d="M448.22 132.819L441.757 115.087H445.28L449.867 128.715L454.506 115.087H458.003L451.54 132.819H448.22Z" fill="#2B266D"/>
<path d="M425.555 132.819V115.087H429.052L436.656 127.398V115.087H439.875V132.819H436.377L428.799 120.533V132.819H425.555Z" fill="#2B266D"/>
<path d="M418.772 132.819V115.087H422.219V132.819H418.772Z" fill="#2B266D"/>
<path d="M484.888 159.651H420.611C418.831 159.651 417.388 161.093 417.388 162.872V168.405C417.388 170.184 418.831 171.626 420.611 171.626H484.888C486.668 171.626 488.111 170.184 488.111 168.405V162.872C488.111 161.093 486.668 159.651 484.888 159.651Z" fill="#D5D4D2"/>
<path d="M587.059 331.862H522.782C521.002 331.862 519.559 333.304 519.559 335.083V343.518C519.559 345.297 521.002 346.739 522.782 346.739H587.059C588.839 346.739 590.282 345.297 590.282 343.518V335.083C590.282 333.304 588.839 331.862 587.059 331.862Z" fill="#D5D4D2"/>
<path d="M566.509 233.265L576.236 233.187L582.286 244.321L592.932 282.521L588.316 293.848C588.316 293.848 485.236 319.589 483.977 318.66C482.719 317.732 473.592 314.665 473.592 314.665C473.592 314.665 467.368 300.475 467.291 300.852C467.213 301.229 461.609 266.792 461.609 266.792L463.061 256.123L566.509 233.274V233.265Z" fill="white"/>
<path d="M454.492 272.557C452.179 263.422 457.709 254.144 466.845 251.833L563.461 227.398C572.597 225.087 581.878 230.62 584.191 239.754L593.894 278.076C596.207 287.211 590.676 296.489 581.54 298.799L484.924 323.235C475.789 325.545 466.508 320.013 464.195 310.878L454.492 272.557Z" fill="#2B266D"/>
<path d="M585.237 297.901L486.251 322.597C477.618 324.754 468.839 319.502 466.681 310.873L456.76 271.309C454.602 262.681 459.857 253.907 468.491 251.75L567.477 227.054C576.11 224.897 584.889 230.15 587.047 238.778L596.968 278.342C599.127 286.971 593.871 295.744 585.237 297.901Z" fill="#FF5787"/>
<path fill-rule="evenodd" clip-rule="evenodd" d="M586.077 239.021C584.053 230.929 575.819 226.001 567.719 228.024L468.733 252.72C468.733 252.72 468.733 252.72 468.733 252.72C460.637 254.743 455.706 262.973 457.73 271.066C457.73 271.066 457.73 271.066 457.73 271.066L467.651 310.63C469.675 318.721 477.91 323.651 486.009 321.627L584.995 296.931C593.092 294.908 598.023 286.678 595.998 278.585C595.998 278.585 595.998 278.585 595.998 278.585L586.077 239.021ZM588.018 238.535C585.725 229.37 576.402 223.793 567.234 226.084L468.249 250.78C459.079 253.071 453.498 262.388 455.79 271.552L465.711 311.116C465.711 311.116 465.711 311.116 465.711 311.116C468.004 320.281 477.326 325.858 486.494 323.568C486.494 323.568 486.494 323.567 486.494 323.568L585.48 298.872C594.65 296.58 600.231 287.263 597.939 278.099L588.018 238.535Z" fill="#2B266D"/>
<path d="M471.107 262.18C468.232 262.906 466.471 265.827 467.197 268.7L477.117 308.264C477.843 311.137 480.766 312.898 483.641 312.172L582.627 287.476C585.502 286.751 587.263 283.829 586.537 280.956L576.616 241.393C575.891 238.52 572.967 236.759 570.093 237.484L471.107 262.18Z" fill="white"/>
<path d="M550.897 284.876L543.693 256.149L553.097 253.794C561.022 251.808 569.022 254.821 571.44 264.465C573.859 274.109 568.226 280.536 560.301 282.521L550.897 284.876ZM555.185 278.655L558.593 277.802C563.521 276.567 567.533 272.902 565.773 265.884C564.014 258.866 558.735 257.484 553.808 258.718L550.4 259.572L555.185 278.655Z" fill="#FF5787"/>
<path d="M539.91 287.628L532.706 258.901L538.291 257.502L545.494 286.229L539.91 287.628Z" fill="#FF5787"/>
<path d="M518.159 270.308L516.934 281.607L524.571 279.693L518.159 270.308ZM509.857 295.156L513.699 263.662L518.914 262.355L537.164 288.316L531.415 289.756L527.479 283.981L516.351 286.768L515.606 293.716L509.857 295.156Z" fill="#FF5787"/>
<path d="M490.748 299.942L483.544 271.215L495.124 268.315C500.954 266.854 505.556 269.365 506.893 274.7C508.221 279.994 505.349 284.378 499.518 285.838L493.523 287.34L496.332 298.543L490.748 299.942ZM492.319 282.538L497.821 281.16C500.613 280.461 501.926 278.562 501.309 276.099C500.681 273.596 498.627 272.54 495.835 273.24L490.333 274.618L492.319 282.538Z" fill="#FF5787"/>
<path d="M358.882 135.074L365.681 135.02L369.91 142.803L377.352 169.505L374.125 177.423C374.125 177.423 302.071 195.416 301.191 194.767C300.312 194.117 293.932 191.974 293.932 191.974C293.932 191.974 289.581 182.054 289.527 182.318C289.473 182.582 285.556 158.51 285.556 158.51L286.571 151.052L358.882 135.081V135.074Z" fill="white"/>
<path d="M280.581 162.539C278.964 156.154 282.83 149.668 289.216 148.053L356.752 130.972C363.138 129.357 369.625 133.225 371.242 139.61L378.024 166.397C379.641 172.782 375.775 179.268 369.389 180.883L301.853 197.964C295.468 199.579 288.98 195.712 287.363 189.326L280.581 162.539Z" fill="#2B266D"/>
<path d="M371.975 180.255L302.783 197.518C296.748 199.026 290.611 195.354 289.103 189.323L282.168 161.667C280.659 155.636 284.333 149.503 290.368 147.995L359.56 130.732C365.595 129.225 371.731 132.896 373.24 138.928L380.175 166.583C381.684 172.615 378.01 178.748 371.975 180.255Z" fill="#5ED7B1"/>
<path fill-rule="evenodd" clip-rule="evenodd" d="M372.562 139.097C371.147 133.441 365.391 129.996 359.729 131.411L290.537 148.673C290.537 148.673 290.537 148.673 290.537 148.673C284.877 150.088 281.431 155.841 282.846 161.498L289.781 189.153C291.195 194.809 296.952 198.255 302.613 196.84L371.806 179.577C371.805 179.577 371.806 179.577 371.806 179.577C377.465 178.163 380.912 172.41 379.497 166.753L372.562 139.097ZM373.918 138.758C372.316 132.351 365.799 128.453 359.391 130.054C359.391 130.054 359.391 130.054 359.391 130.054L290.198 147.317C283.788 148.919 279.887 155.431 281.49 161.837L288.424 189.493C288.424 189.492 288.424 189.493 288.424 189.493C290.027 195.899 296.544 199.797 302.952 198.196L372.144 180.934C378.554 179.332 382.455 172.819 380.853 166.414L373.918 138.758Z" fill="#2B266D"/>
<path d="M292.194 155.286C290.185 155.793 288.953 157.835 289.461 159.843L296.396 187.499C296.903 189.507 298.946 190.738 300.956 190.231L370.148 172.968C372.157 172.461 373.389 170.419 372.881 168.411L365.947 140.755C365.439 138.747 363.396 137.516 361.387 138.023L292.194 155.286Z" fill="white"/>
<path d="M347.938 171.026L342.902 150.945L349.475 149.299C355.015 147.911 360.607 150.016 362.298 156.758C363.988 163.499 360.051 167.992 354.511 169.379L347.938 171.026ZM350.935 166.677L353.318 166.08C356.762 165.218 359.567 162.655 358.337 157.75C357.106 152.845 353.417 151.878 349.973 152.741L347.59 153.338L350.935 166.677Z" fill="#5ED7B1"/>
<path d="M340.257 172.949L335.222 152.869L339.125 151.891L344.161 171.972L340.257 172.949Z" fill="#5ED7B1"/>
<path d="M325.054 160.843L324.198 168.74L329.537 167.403L325.054 160.843ZM319.251 178.211L321.937 156.197L325.582 155.283L338.339 173.43L334.321 174.437L331.569 170.4L323.791 172.348L323.27 177.205L319.251 178.211Z" fill="#5ED7B1"/>
<path d="M305.893 181.557L300.857 161.476L308.952 159.449C313.028 158.428 316.244 160.184 317.179 163.913C318.107 167.613 316.099 170.677 312.023 171.698L307.833 172.748L309.797 180.579L305.893 181.557ZM306.991 169.392L310.837 168.428C312.789 167.939 313.707 166.612 313.275 164.891C312.837 163.141 311.401 162.403 309.449 162.892L305.603 163.855L306.991 169.392Z" fill="#5ED7B1"/>
<g clip-path="url(#clip0_4593_10863)">
<path d="M570.991 146.567C570.991 146.616 570.991 146.713 570.991 146.762H574.248C574.248 146.713 574.248 146.616 574.248 146.567C574.248 136.509 582.416 128.347 592.48 128.347C592.528 128.347 592.625 128.347 592.674 128.347V125.091C592.625 125.091 592.528 125.091 592.48 125.091C582.416 125.091 574.248 116.928 574.248 106.87C574.248 106.822 574.248 106.725 574.248 106.676H570.991C570.991 106.725 570.991 106.822 570.991 106.87C570.991 116.928 562.823 125.091 552.76 125.091C552.711 125.091 552.614 125.091 552.565 125.091V128.347C552.614 128.347 552.711 128.347 552.76 128.347C562.823 128.347 570.991 136.509 570.991 146.567Z" fill="#F4502A"/>
</g>
<ellipse cx="372.077" cy="54.0641" rx="12.5339" ry="12.5267" fill="#2B266D"/>
<defs>
<clipPath id="clip0_4593_10863">
<rect width="40.1086" height="40.0854" fill="white" transform="translate(552.565 106.676)"/>
</clipPath>
</defs>
</svg>
