<svg width="800" height="400" viewBox="0 0 800 400" fill="none" xmlns="http://www.w3.org/2000/svg">
<path d="M195.419 337.93C192.316 337.93 190.824 334.124 193.1 332.015L217.278 309.611C217.909 309.026 218.738 308.701 219.598 308.701H532.441C533.238 308.701 534.01 308.98 534.623 309.49L561.548 331.895C564.003 333.937 562.559 337.93 559.366 337.93H195.419Z" fill="#2B266D"/>
<rect x="296.817" y="53" width="239.505" height="278.953" rx="14.0885" fill="#2B266D"/>
<rect x="303.303" y="53.8498" width="237.805" height="282.888" rx="13.2385" fill="white" stroke="#2B266D" stroke-width="1.7"/>
<path d="M325.36 87.5207H330.154C330.947 87.5207 331.644 87.6737 332.245 87.9797C332.845 88.2744 333.304 88.6994 333.622 89.2547C333.95 89.7987 334.115 90.4334 334.115 91.1587C334.115 91.884 333.95 92.5187 333.622 93.0627C333.304 93.6067 332.845 94.0317 332.245 94.3377C331.644 94.6324 330.947 94.7797 330.154 94.7797H327.672V99.4207H325.36V87.5207ZM329.95 92.7907C330.528 92.7907 330.981 92.649 331.31 92.3657C331.638 92.071 331.803 91.6687 331.803 91.1587C331.803 90.6374 331.638 90.235 331.31 89.9517C330.981 89.657 330.528 89.5097 329.95 89.5097H327.672V92.7907H329.95ZM337.351 94.8307H340.513L338.932 90.5467L337.351 94.8307ZM337.844 87.5207H340.003L344.576 99.4207H342.196L341.227 96.7857H336.62L335.651 99.4207H333.271L337.844 87.5207ZM347.244 94.4907L343.164 87.5207H345.646L348.4 92.3147L351.171 87.5207H353.653L349.556 94.4907V99.4207H347.244V94.4907ZM354.81 87.5207H357.411L361.049 96.1397L364.687 87.5207H367.288V99.4207H365.112V91.8217L361.916 99.4207H360.182L356.986 91.8217V99.4207H354.81V87.5207ZM369.536 87.5207H377.492V89.5097H371.848V92.1277H376.37V94.1337H371.848V97.4147H377.679V99.4207H369.536V87.5207ZM379.397 87.5207H381.743L386.843 95.7827V87.5207H389.002V99.4207H386.656L381.573 91.1757V99.4207H379.397V87.5207ZM394.005 89.5097H390.418V87.5207H399.904V89.5097H396.317V99.4207H394.005V89.5097ZM405.362 87.5207H409.255C410.377 87.5207 411.397 87.7474 412.315 88.2007C413.245 88.6427 413.981 89.3114 414.525 90.2067C415.081 91.102 415.358 92.19 415.358 93.4707C415.358 94.7514 415.081 95.8394 414.525 96.7347C413.981 97.63 413.245 98.3044 412.315 98.7577C411.397 99.1997 410.377 99.4207 409.255 99.4207H405.362V87.5207ZM409.051 97.4147C410.185 97.4147 411.125 97.0974 411.873 96.4627C412.633 95.828 413.012 94.8307 413.012 93.4707C413.012 92.1107 412.633 91.1134 411.873 90.4787C411.125 89.8327 410.185 89.5097 409.051 89.5097H407.64V97.4147H409.051ZM417.083 87.5207H425.039V89.5097H419.395V92.1277H423.917V94.1337H419.395V97.4147H425.226V99.4207H417.083V87.5207ZM429.681 89.5097H426.094V87.5207H435.58V89.5097H431.993V99.4207H429.681V89.5097ZM438.455 94.8307H441.617L440.036 90.5467L438.455 94.8307ZM438.948 87.5207H441.107L445.68 99.4207H443.3L442.331 96.7857H437.724L436.755 99.4207H434.375L438.948 87.5207ZM446.816 87.5207H449.128V99.4207H446.816V87.5207ZM451.365 87.5207H453.677V97.4147H459.202V99.4207H451.365V87.5207ZM464.273 99.5567C463.503 99.5567 462.783 99.398 462.114 99.0807C461.446 98.752 460.896 98.3044 460.465 97.7377C460.035 97.171 459.774 96.5307 459.683 95.8167L461.74 95.1877C461.831 95.8904 462.12 96.4684 462.607 96.9217C463.106 97.3637 463.69 97.5847 464.358 97.5847C464.982 97.5847 465.48 97.4487 465.854 97.1767C466.228 96.9047 466.415 96.542 466.415 96.0887C466.415 95.7374 466.302 95.4484 466.075 95.2217C465.86 94.995 465.582 94.8137 465.242 94.6777C464.902 94.5417 464.443 94.3887 463.865 94.2187C463.072 93.9807 462.426 93.7484 461.927 93.5217C461.429 93.2837 460.998 92.9324 460.635 92.4677C460.284 92.003 460.108 91.3967 460.108 90.6487C460.108 90.0254 460.29 89.4644 460.652 88.9657C461.015 88.467 461.508 88.0817 462.131 87.8097C462.766 87.5264 463.469 87.3847 464.239 87.3847C464.987 87.3847 465.673 87.5094 466.296 87.7587C466.92 88.008 467.435 88.365 467.843 88.8297C468.263 89.283 468.535 89.8044 468.659 90.3937L466.585 91.2437C466.461 90.6657 466.189 90.2067 465.769 89.8667C465.361 89.5267 464.851 89.3567 464.239 89.3567C463.673 89.3567 463.225 89.4757 462.896 89.7137C462.568 89.9404 462.403 90.252 462.403 90.6487C462.403 90.9207 462.5 91.1417 462.692 91.3117C462.885 91.4817 463.123 91.6177 463.406 91.7197C463.69 91.8217 464.103 91.9464 464.647 92.0937C465.486 92.2977 466.183 92.5244 466.738 92.7737C467.294 93.0117 467.77 93.3914 468.166 93.9127C468.563 94.434 468.761 95.1424 468.761 96.0377C468.761 96.729 468.574 97.341 468.2 97.8737C467.826 98.4064 467.299 98.82 466.619 99.1147C465.939 99.4094 465.157 99.5567 464.273 99.5567Z" fill="#2B266D"/>
<rect x="324.55" y="111.65" width="184.45" height="5.95" rx="2.975" fill="#D5D4D2"/>
<rect x="324.55" y="126.1" width="161.5" height="5.95" rx="2.975" fill="#D5D4D2"/>
<rect x="324.55" y="225.551" width="101.15" height="5.95" rx="2.975" fill="#D5D4D2"/>
<rect width="194.65" height="13.6" transform="translate(324.55 235.75)" fill="#F5F5F4"/>
<rect width="194.65" height="13.6" transform="translate(324.55 235.751)" fill="#F5F5F4"/>
<path fill-rule="evenodd" clip-rule="evenodd" d="M510.101 243.917L507.827 241.642H512.376L510.101 243.917Z" fill="#DB4437"/>
<mask id="mask0_4720_13276" style="mask-type:luminance" maskUnits="userSpaceOnUse" x="507" y="241" width="6" height="3">
<path fill-rule="evenodd" clip-rule="evenodd" d="M510.101 243.917L507.827 241.642H512.376L510.101 243.917Z" fill="white"/>
</mask>
<g mask="url(#mask0_4720_13276)">
<path fill-rule="evenodd" clip-rule="evenodd" d="M500.679 234.25H520.175V251.309H500.679V234.25Z" fill="#3A3D42"/>
</g>
<rect x="324.777" y="235.979" width="194.195" height="13.6476" rx="1.59222" fill="#F5F5F4"/>
<rect x="324.777" y="235.979" width="194.195" height="13.6476" rx="1.59222" stroke="#BDBAB7" stroke-width="0.45492"/>
<rect x="324.551" y="257.004" width="101.15" height="5.95" rx="2.975" fill="#D5D4D2"/>
<rect width="194.65" height="13.6" transform="translate(324.551 267.203)" fill="#F5F5F4"/>
<rect width="194.65" height="13.6" transform="translate(324.551 267.204)" fill="#F5F5F4"/>
<path fill-rule="evenodd" clip-rule="evenodd" d="M510.102 275.368L507.828 273.094H512.377L510.102 275.368Z" fill="#DB4437"/>
<mask id="mask1_4720_13276" style="mask-type:luminance" maskUnits="userSpaceOnUse" x="507" y="273" width="6" height="3">
<path fill-rule="evenodd" clip-rule="evenodd" d="M510.102 275.368L507.828 273.094H512.377L510.102 275.368Z" fill="white"/>
</mask>
<g mask="url(#mask1_4720_13276)">
<path fill-rule="evenodd" clip-rule="evenodd" d="M500.68 265.701H520.176V282.761H500.68V265.701Z" fill="#3A3D42"/>
</g>
<rect x="324.778" y="267.432" width="194.195" height="13.6476" rx="1.59222" fill="#F5F5F4"/>
<rect x="324.778" y="267.432" width="194.195" height="13.6476" rx="1.59222" stroke="#BDBAB7" stroke-width="0.45492"/>
<rect x="324.55" y="292.701" width="194.65" height="17" rx="3.4" fill="#4940CE"/>
<path d="M380.268 304.269C379.883 304.269 379.523 304.19 379.189 304.031C378.854 303.867 378.58 303.643 378.364 303.36C378.149 303.076 378.019 302.756 377.973 302.399L379.002 302.085C379.047 302.436 379.192 302.725 379.435 302.952C379.685 303.173 379.976 303.283 380.311 303.283C380.622 303.283 380.872 303.215 381.059 303.079C381.246 302.943 381.339 302.762 381.339 302.535C381.339 302.36 381.283 302.215 381.169 302.102C381.062 301.988 380.923 301.898 380.753 301.83C380.583 301.762 380.353 301.685 380.064 301.6C379.668 301.481 379.345 301.365 379.095 301.252C378.846 301.133 378.631 300.957 378.449 300.725C378.274 300.492 378.186 300.189 378.186 299.815C378.186 299.504 378.276 299.223 378.458 298.974C378.639 298.724 378.886 298.532 379.197 298.396C379.515 298.254 379.866 298.183 380.251 298.183C380.625 298.183 380.968 298.246 381.28 298.37C381.591 298.495 381.849 298.673 382.053 298.906C382.263 299.132 382.399 299.393 382.461 299.688L381.424 300.113C381.362 299.824 381.226 299.594 381.016 299.424C380.812 299.254 380.557 299.169 380.251 299.169C379.968 299.169 379.744 299.229 379.58 299.348C379.415 299.461 379.333 299.617 379.333 299.815C379.333 299.951 379.381 300.062 379.478 300.147C379.574 300.232 379.693 300.3 379.835 300.351C379.976 300.402 380.183 300.464 380.455 300.538C380.875 300.64 381.223 300.753 381.501 300.878C381.778 300.997 382.016 301.187 382.215 301.447C382.413 301.708 382.512 302.062 382.512 302.51C382.512 302.855 382.419 303.161 382.232 303.428C382.045 303.694 381.781 303.901 381.441 304.048C381.101 304.196 380.71 304.269 380.268 304.269ZM385.792 301.447C385.792 301.204 385.715 301.014 385.562 300.878C385.409 300.736 385.202 300.665 384.942 300.665C384.709 300.665 384.514 300.733 384.355 300.869C384.202 301.005 384.114 301.187 384.092 301.413L383.14 301.243C383.208 300.824 383.409 300.487 383.743 300.232C384.083 299.977 384.483 299.849 384.942 299.849C385.514 299.849 385.97 300.002 386.31 300.308C386.656 300.609 386.829 301.036 386.829 301.592V304.201H385.792V303.581C385.673 303.79 385.494 303.958 385.256 304.082C385.024 304.207 384.775 304.269 384.508 304.269C384.231 304.269 383.984 304.215 383.769 304.108C383.553 303.994 383.383 303.841 383.259 303.649C383.14 303.456 383.08 303.238 383.08 302.994C383.08 302.575 383.239 302.249 383.556 302.017C383.874 301.784 384.352 301.634 384.993 301.566L385.792 301.49V301.447ZM384.117 302.96C384.117 303.113 384.174 303.238 384.287 303.334C384.401 303.431 384.554 303.479 384.746 303.479C385.069 303.479 385.324 303.371 385.511 303.156C385.698 302.94 385.792 302.671 385.792 302.348V302.255L384.976 302.348C384.698 302.382 384.486 302.453 384.338 302.561C384.191 302.668 384.117 302.802 384.117 302.96ZM387.242 299.917H388.321L389.299 302.96L390.276 299.917H391.364L389.8 304.201H388.806L387.242 299.917ZM391.538 302.059C391.538 301.674 391.618 301.314 391.776 300.98C391.941 300.64 392.181 300.368 392.499 300.164C392.816 299.954 393.201 299.849 393.655 299.849C394.114 299.849 394.505 299.948 394.828 300.147C395.151 300.345 395.394 300.603 395.559 300.92C395.723 301.238 395.805 301.569 395.805 301.915C395.805 302.085 395.8 302.226 395.788 302.34H392.609C392.655 302.663 392.776 302.915 392.975 303.096C393.173 303.278 393.425 303.368 393.731 303.368C393.981 303.368 394.19 303.312 394.36 303.198C394.53 303.085 394.644 302.923 394.7 302.714L395.703 302.986C395.584 303.388 395.349 303.703 394.998 303.929C394.646 304.156 394.219 304.269 393.714 304.269C393.261 304.269 392.87 304.167 392.541 303.963C392.213 303.754 391.963 303.479 391.793 303.139C391.623 302.799 391.538 302.439 391.538 302.059ZM394.658 301.558C394.629 301.291 394.53 301.076 394.36 300.912C394.19 300.747 393.955 300.665 393.655 300.665C393.388 300.665 393.165 300.742 392.983 300.895C392.808 301.048 392.691 301.269 392.635 301.558H394.658ZM398.657 299.917H399.728V300.41C399.853 300.24 400.026 300.104 400.247 300.002C400.474 299.9 400.726 299.849 401.003 299.849C401.406 299.849 401.757 299.943 402.057 300.13C402.358 300.311 402.587 300.569 402.746 300.903C402.91 301.238 402.992 301.623 402.992 302.059C402.992 302.496 402.907 302.881 402.737 303.215C402.567 303.55 402.327 303.81 402.015 303.997C401.703 304.179 401.341 304.269 400.927 304.269C400.678 304.269 400.445 304.227 400.23 304.142C400.02 304.051 399.853 303.929 399.728 303.776V305.748H398.657V299.917ZM399.66 302.059C399.66 302.445 399.762 302.756 399.966 302.994C400.176 303.227 400.454 303.343 400.799 303.343C401.139 303.343 401.411 303.227 401.615 302.994C401.825 302.756 401.93 302.445 401.93 302.059C401.93 301.674 401.825 301.365 401.615 301.133C401.411 300.895 401.139 300.776 400.799 300.776C400.454 300.776 400.176 300.895 399.966 301.133C399.762 301.365 399.66 301.674 399.66 302.059ZM406.286 301.447C406.286 301.204 406.21 301.014 406.057 300.878C405.904 300.736 405.697 300.665 405.436 300.665C405.204 300.665 405.008 300.733 404.85 300.869C404.697 301.005 404.609 301.187 404.586 301.413L403.634 301.243C403.702 300.824 403.903 300.487 404.238 300.232C404.578 299.977 404.977 299.849 405.436 299.849C406.009 299.849 406.465 300.002 406.805 300.308C407.15 300.609 407.323 301.036 407.323 301.592V304.201H406.286V303.581C406.167 303.79 405.989 303.958 405.751 304.082C405.518 304.207 405.269 304.269 405.003 304.269C404.725 304.269 404.479 304.215 404.263 304.108C404.048 303.994 403.878 303.841 403.753 303.649C403.634 303.456 403.575 303.238 403.575 302.994C403.575 302.575 403.733 302.249 404.051 302.017C404.368 301.784 404.847 301.634 405.487 301.566L406.286 301.49V301.447ZM404.612 302.96C404.612 303.113 404.668 303.238 404.782 303.334C404.895 303.431 405.048 303.479 405.241 303.479C405.564 303.479 405.819 303.371 406.006 303.156C406.193 302.94 406.286 302.671 406.286 302.348V302.255L405.47 302.348C405.193 302.382 404.98 302.453 404.833 302.561C404.685 302.668 404.612 302.802 404.612 302.96ZM412.088 299.917L409.827 305.748H408.739L409.402 304.031L407.736 299.917H408.901L409.929 302.671L410.992 299.917H412.088ZM412.677 299.917H413.748V300.572C413.873 300.345 414.037 300.169 414.241 300.045C414.451 299.914 414.698 299.849 414.981 299.849C415.321 299.849 415.604 299.92 415.831 300.062C416.058 300.198 416.219 300.396 416.315 300.657C416.44 300.424 416.627 300.232 416.876 300.079C417.126 299.926 417.412 299.849 417.735 299.849C418.194 299.849 418.562 299.985 418.84 300.257C419.123 300.524 419.265 300.869 419.265 301.294V304.201H418.194V301.592C418.194 301.331 418.126 301.127 417.99 300.98C417.854 300.832 417.661 300.759 417.412 300.759C417.129 300.759 416.905 300.872 416.74 301.099C416.582 301.325 416.502 301.631 416.502 302.017V304.201H415.431V301.592C415.431 301.331 415.363 301.127 415.227 300.98C415.097 300.832 414.91 300.759 414.666 300.759C414.377 300.759 414.151 300.875 413.986 301.107C413.828 301.334 413.748 301.64 413.748 302.025V304.201H412.677V299.917ZM420.076 302.059C420.076 301.674 420.156 301.314 420.314 300.98C420.479 300.64 420.72 300.368 421.037 300.164C421.354 299.954 421.74 299.849 422.193 299.849C422.652 299.849 423.043 299.948 423.366 300.147C423.689 300.345 423.933 300.603 424.097 300.92C424.261 301.238 424.343 301.569 424.343 301.915C424.343 302.085 424.338 302.226 424.326 302.34H421.147C421.193 302.663 421.315 302.915 421.513 303.096C421.711 303.278 421.963 303.368 422.269 303.368C422.519 303.368 422.728 303.312 422.898 303.198C423.068 303.085 423.182 302.923 423.238 302.714L424.241 302.986C424.122 303.388 423.887 303.703 423.536 303.929C423.185 304.156 422.757 304.269 422.252 304.269C421.799 304.269 421.408 304.167 421.079 303.963C420.751 303.754 420.501 303.479 420.331 303.139C420.161 302.799 420.076 302.439 420.076 302.059ZM423.196 301.558C423.168 301.291 423.068 301.076 422.898 300.912C422.728 300.747 422.493 300.665 422.193 300.665C421.927 300.665 421.703 300.742 421.521 300.895C421.346 301.048 421.23 301.269 421.173 301.558H423.196ZM425.154 299.917H426.225V300.563C426.366 300.348 426.553 300.175 426.786 300.045C427.024 299.914 427.29 299.849 427.585 299.849C428.055 299.849 428.432 299.991 428.715 300.274C429.004 300.558 429.149 300.932 429.149 301.396V304.201H428.078V301.651C428.078 301.396 428.004 301.192 427.857 301.039C427.709 300.881 427.511 300.801 427.262 300.801C426.933 300.801 426.678 300.934 426.497 301.201C426.315 301.467 426.225 301.841 426.225 302.323V304.201H425.154V299.917ZM432.584 304.159C432.38 304.232 432.151 304.269 431.896 304.269C431.442 304.269 431.077 304.145 430.799 303.895C430.522 303.646 430.383 303.28 430.383 302.799V300.818H429.66V299.917H430.383V298.659H431.454V299.917H432.533V300.818H431.454V302.697C431.454 302.895 431.502 303.051 431.598 303.164C431.7 303.272 431.836 303.326 432.006 303.326C432.205 303.326 432.372 303.292 432.508 303.224L432.584 304.159ZM435.363 299.917H436.434V300.572C436.559 300.345 436.723 300.169 436.927 300.045C437.137 299.914 437.384 299.849 437.667 299.849C438.007 299.849 438.29 299.92 438.517 300.062C438.744 300.198 438.905 300.396 439.001 300.657C439.126 300.424 439.313 300.232 439.562 300.079C439.812 299.926 440.098 299.849 440.421 299.849C440.88 299.849 441.248 299.985 441.526 300.257C441.809 300.524 441.951 300.869 441.951 301.294V304.201H440.88V301.592C440.88 301.331 440.812 301.127 440.676 300.98C440.54 300.832 440.347 300.759 440.098 300.759C439.815 300.759 439.591 300.872 439.426 301.099C439.268 301.325 439.188 301.631 439.188 302.017V304.201H438.117V301.592C438.117 301.331 438.049 301.127 437.913 300.98C437.783 300.832 437.596 300.759 437.352 300.759C437.063 300.759 436.837 300.875 436.672 301.107C436.514 301.334 436.434 301.64 436.434 302.025V304.201H435.363V299.917ZM442.762 302.059C442.762 301.674 442.842 301.314 443 300.98C443.165 300.64 443.406 300.368 443.723 300.164C444.04 299.954 444.426 299.849 444.879 299.849C445.338 299.849 445.729 299.948 446.052 300.147C446.375 300.345 446.619 300.603 446.783 300.92C446.947 301.238 447.029 301.569 447.029 301.915C447.029 302.085 447.024 302.226 447.012 302.34H443.833C443.879 302.663 444.001 302.915 444.199 303.096C444.397 303.278 444.649 303.368 444.955 303.368C445.205 303.368 445.414 303.312 445.584 303.198C445.754 303.085 445.868 302.923 445.924 302.714L446.927 302.986C446.808 303.388 446.573 303.703 446.222 303.929C445.871 304.156 445.443 304.269 444.938 304.269C444.485 304.269 444.094 304.167 443.765 303.963C443.437 303.754 443.187 303.479 443.017 303.139C442.847 302.799 442.762 302.439 442.762 302.059ZM445.882 301.558C445.854 301.291 445.754 301.076 445.584 300.912C445.414 300.747 445.179 300.665 444.879 300.665C444.613 300.665 444.389 300.742 444.207 300.895C444.032 301.048 443.916 301.269 443.859 301.558H445.882ZM450.306 304.159C450.102 304.232 449.873 304.269 449.618 304.269C449.165 304.269 448.799 304.145 448.521 303.895C448.244 303.646 448.105 303.28 448.105 302.799V300.818H447.382V299.917H448.105V298.659H449.176V299.917H450.255V300.818H449.176V302.697C449.176 302.895 449.224 303.051 449.32 303.164C449.422 303.272 449.558 303.326 449.728 303.326C449.927 303.326 450.094 303.292 450.23 303.224L450.306 304.159ZM451.259 298.183H452.33V300.58C452.472 300.348 452.659 300.169 452.891 300.045C453.129 299.914 453.396 299.849 453.69 299.849C454.172 299.849 454.557 299.991 454.846 300.274C455.141 300.558 455.288 300.932 455.288 301.396V304.201H454.217V301.66C454.217 301.393 454.141 301.184 453.988 301.031C453.835 300.878 453.628 300.801 453.367 300.801C453.039 300.801 452.784 300.937 452.602 301.209C452.421 301.476 452.33 301.852 452.33 302.34V304.201H451.259V298.183ZM458.329 304.269C457.904 304.269 457.521 304.176 457.181 303.989C456.841 303.796 456.575 303.533 456.382 303.198C456.19 302.858 456.093 302.479 456.093 302.059C456.093 301.64 456.19 301.263 456.382 300.929C456.575 300.589 456.841 300.325 457.181 300.138C457.521 299.946 457.904 299.849 458.329 299.849C458.754 299.849 459.136 299.946 459.476 300.138C459.816 300.325 460.083 300.589 460.275 300.929C460.468 301.263 460.564 301.64 460.564 302.059C460.564 302.479 460.468 302.858 460.275 303.198C460.083 303.533 459.816 303.796 459.476 303.989C459.136 304.176 458.754 304.269 458.329 304.269ZM457.173 302.059C457.173 302.445 457.278 302.756 457.487 302.994C457.703 303.227 457.983 303.343 458.329 303.343C458.675 303.343 458.952 303.224 459.162 302.986C459.377 302.748 459.485 302.439 459.485 302.059C459.485 301.68 459.377 301.371 459.162 301.133C458.952 300.895 458.675 300.776 458.329 300.776C457.983 300.776 457.703 300.895 457.487 301.133C457.278 301.365 457.173 301.674 457.173 302.059ZM463.18 304.269C462.761 304.269 462.395 304.179 462.084 303.997C461.778 303.81 461.543 303.55 461.378 303.215C461.22 302.881 461.14 302.496 461.14 302.059C461.14 301.623 461.22 301.238 461.378 300.903C461.543 300.569 461.778 300.311 462.084 300.13C462.39 299.943 462.75 299.849 463.163 299.849C463.424 299.849 463.665 299.9 463.886 300.002C464.107 300.099 464.28 300.229 464.404 300.393V298.183H465.475V304.201H464.404V303.708C464.297 303.878 464.132 304.014 463.911 304.116C463.69 304.218 463.447 304.269 463.18 304.269ZM462.203 302.059C462.203 302.445 462.305 302.756 462.509 302.994C462.718 303.227 462.993 303.343 463.333 303.343C463.679 303.343 463.954 303.227 464.158 302.994C464.367 302.756 464.472 302.445 464.472 302.059C464.472 301.674 464.367 301.365 464.158 301.133C463.954 300.895 463.679 300.776 463.333 300.776C462.993 300.776 462.718 300.895 462.509 301.133C462.305 301.365 462.203 301.674 462.203 302.059Z" fill="white"/>
<rect x="323.7" y="146.5" width="195.5" height="67.15" rx="5.576" fill="#D5D2F9"/>
<path d="M382.802 160.1H240.195C237.491 160.1 235.3 162.041 235.3 164.437V233.725C235.3 236.12 237.491 238.062 240.195 238.062H382.802C385.505 238.062 387.697 236.12 387.697 233.725V164.437C387.697 162.041 385.505 160.1 382.802 160.1Z" fill="#2B266D" stroke="#2B266D" stroke-width="1.78336" stroke-miterlimit="10"/>
<path d="M382.938 160.1H244.292C241.664 160.1 239.533 161.994 239.533 164.33V229.951C239.533 232.287 241.664 234.182 244.292 234.182H382.938C385.566 234.182 387.697 232.287 387.697 229.951V164.33C387.697 161.994 385.566 160.1 382.938 160.1Z" fill="#5ED7B1" stroke="#2B266D" stroke-width="1.7" stroke-miterlimit="10"/>
<rect x="304.797" y="192.675" width="72.6708" height="6.70265" rx="3.35132" fill="#2B266D"/>
<rect x="304.797" y="207.956" width="72.6708" height="6.70265" rx="3.35132" fill="#2B266D"/>
<path d="M253.217 170.318H256.981C257.604 170.318 258.151 170.438 258.622 170.679C259.094 170.91 259.454 171.244 259.703 171.679C259.961 172.107 260.09 172.605 260.09 173.174C260.09 173.744 259.961 174.242 259.703 174.669C259.454 175.096 259.094 175.43 258.622 175.67C258.151 175.901 257.604 176.017 256.981 176.017H255.032V179.66H253.217V170.318ZM256.821 174.455C257.274 174.455 257.63 174.344 257.888 174.122C258.146 173.89 258.275 173.575 258.275 173.174C258.275 172.765 258.146 172.449 257.888 172.227C257.63 171.995 257.274 171.88 256.821 171.88H255.032V174.455H256.821ZM264.789 175.336C264.789 174.954 264.669 174.656 264.429 174.442C264.189 174.22 263.864 174.108 263.455 174.108C263.09 174.108 262.783 174.215 262.534 174.429C262.294 174.642 262.156 174.927 262.12 175.283L260.625 175.016C260.732 174.357 261.048 173.828 261.573 173.428C262.107 173.027 262.734 172.827 263.455 172.827C264.353 172.827 265.069 173.067 265.603 173.548C266.146 174.019 266.417 174.691 266.417 175.563V179.66H264.789V178.686C264.602 179.015 264.322 179.277 263.948 179.473C263.584 179.669 263.192 179.767 262.774 179.767C262.338 179.767 261.951 179.682 261.613 179.513C261.275 179.335 261.008 179.095 260.812 178.793C260.625 178.49 260.532 178.148 260.532 177.765C260.532 177.107 260.781 176.595 261.279 176.23C261.778 175.865 262.529 175.63 263.535 175.523L264.789 175.403V175.336ZM262.16 177.712C262.16 177.952 262.249 178.148 262.427 178.299C262.605 178.45 262.845 178.526 263.148 178.526C263.655 178.526 264.055 178.357 264.349 178.019C264.642 177.68 264.789 177.258 264.789 176.751V176.604L263.508 176.751C263.072 176.804 262.738 176.915 262.507 177.084C262.276 177.253 262.16 177.462 262.16 177.712ZM273.898 172.934L270.349 182.089H268.64L269.681 179.393L267.066 172.934H268.894L270.509 177.258L272.177 172.934H273.898ZM274.823 172.934H276.505V173.962C276.701 173.606 276.959 173.33 277.279 173.134C277.608 172.93 277.995 172.827 278.44 172.827C278.974 172.827 279.419 172.938 279.775 173.161C280.13 173.374 280.384 173.686 280.535 174.095C280.731 173.73 281.025 173.428 281.416 173.188C281.808 172.947 282.257 172.827 282.764 172.827C283.485 172.827 284.063 173.041 284.499 173.468C284.944 173.886 285.166 174.429 285.166 175.096V179.66H283.485V175.563C283.485 175.154 283.378 174.833 283.164 174.602C282.951 174.371 282.648 174.255 282.257 174.255C281.812 174.255 281.461 174.433 281.203 174.789C280.953 175.145 280.829 175.625 280.829 176.23V179.66H279.147V175.563C279.147 175.154 279.041 174.833 278.827 174.602C278.622 174.371 278.329 174.255 277.946 174.255C277.493 174.255 277.137 174.438 276.879 174.802C276.63 175.158 276.505 175.639 276.505 176.244V179.66H274.823V172.934ZM286.44 176.297C286.44 175.692 286.565 175.127 286.814 174.602C287.072 174.068 287.45 173.641 287.948 173.321C288.446 172.992 289.051 172.827 289.763 172.827C290.484 172.827 291.098 172.983 291.605 173.294C292.112 173.606 292.494 174.01 292.752 174.509C293.01 175.007 293.139 175.527 293.139 176.07C293.139 176.337 293.13 176.559 293.113 176.737H288.122C288.193 177.245 288.384 177.64 288.695 177.925C289.007 178.21 289.403 178.352 289.883 178.352C290.275 178.352 290.604 178.263 290.871 178.085C291.138 177.907 291.316 177.654 291.404 177.325L292.979 177.752C292.792 178.383 292.423 178.877 291.872 179.233C291.32 179.589 290.648 179.767 289.856 179.767C289.145 179.767 288.531 179.607 288.015 179.286C287.499 178.957 287.107 178.526 286.84 177.992C286.573 177.458 286.44 176.893 286.44 176.297ZM291.338 175.51C291.293 175.091 291.138 174.753 290.871 174.495C290.604 174.237 290.235 174.108 289.763 174.108C289.345 174.108 288.993 174.228 288.709 174.469C288.433 174.709 288.251 175.056 288.162 175.51H291.338ZM294.411 172.934H296.093V173.948C296.315 173.61 296.609 173.339 296.974 173.134C297.347 172.93 297.765 172.827 298.228 172.827C298.967 172.827 299.558 173.05 300.003 173.494C300.457 173.939 300.684 174.527 300.684 175.256V179.66H299.002V175.656C299.002 175.256 298.887 174.936 298.655 174.696C298.424 174.446 298.112 174.322 297.721 174.322C297.205 174.322 296.805 174.531 296.52 174.949C296.235 175.367 296.093 175.954 296.093 176.711V179.66H294.411V172.934ZM306.078 179.593C305.758 179.709 305.397 179.767 304.997 179.767C304.285 179.767 303.711 179.571 303.275 179.18C302.839 178.788 302.621 178.214 302.621 177.458V174.349H301.487V172.934H302.621V170.959H304.303V172.934H305.998V174.349H304.303V177.298C304.303 177.609 304.378 177.854 304.53 178.032C304.69 178.201 304.903 178.285 305.17 178.285C305.482 178.285 305.744 178.232 305.958 178.125L306.078 179.593ZM310.441 172.934H312.123V173.962C312.319 173.606 312.577 173.33 312.897 173.134C313.226 172.93 313.613 172.827 314.058 172.827C314.592 172.827 315.037 172.938 315.393 173.161C315.748 173.374 316.002 173.686 316.153 174.095C316.349 173.73 316.643 173.428 317.034 173.188C317.425 172.947 317.875 172.827 318.382 172.827C319.103 172.827 319.681 173.041 320.117 173.468C320.562 173.886 320.784 174.429 320.784 175.096V179.66H319.103V175.563C319.103 175.154 318.996 174.833 318.782 174.602C318.569 174.371 318.266 174.255 317.875 174.255C317.43 174.255 317.078 174.433 316.82 174.789C316.571 175.145 316.447 175.625 316.447 176.23V179.66H314.765V175.563C314.765 175.154 314.659 174.833 314.445 174.602C314.24 174.371 313.947 174.255 313.564 174.255C313.11 174.255 312.755 174.438 312.497 174.802C312.247 175.158 312.123 175.639 312.123 176.244V179.66H310.441V172.934ZM322.058 176.297C322.058 175.692 322.183 175.127 322.432 174.602C322.69 174.068 323.068 173.641 323.566 173.321C324.064 172.992 324.669 172.827 325.381 172.827C326.102 172.827 326.715 172.983 327.223 173.294C327.73 173.606 328.112 174.01 328.37 174.509C328.628 175.007 328.757 175.527 328.757 176.07C328.757 176.337 328.748 176.559 328.731 176.737H323.739C323.811 177.245 324.002 177.64 324.313 177.925C324.625 178.21 325.021 178.352 325.501 178.352C325.893 178.352 326.222 178.263 326.489 178.085C326.756 177.907 326.933 177.654 327.022 177.325L328.597 177.752C328.41 178.383 328.041 178.877 327.49 179.233C326.938 179.589 326.266 179.767 325.474 179.767C324.763 179.767 324.149 179.607 323.633 179.286C323.117 178.957 322.725 178.526 322.458 177.992C322.191 177.458 322.058 176.893 322.058 176.297ZM326.956 175.51C326.911 175.091 326.756 174.753 326.489 174.495C326.222 174.237 325.853 174.108 325.381 174.108C324.963 174.108 324.611 174.228 324.327 174.469C324.051 174.709 323.868 175.056 323.78 175.51H326.956ZM333.902 179.593C333.582 179.709 333.222 179.767 332.821 179.767C332.11 179.767 331.536 179.571 331.1 179.18C330.664 178.788 330.446 178.214 330.446 177.458V174.349H329.311V172.934H330.446V170.959H332.127V172.934H333.822V174.349H332.127V177.298C332.127 177.609 332.203 177.854 332.354 178.032C332.514 178.201 332.728 178.285 332.995 178.285C333.306 178.285 333.569 178.232 333.782 178.125L333.902 179.593ZM335.399 170.212H337.08V173.975C337.303 173.61 337.596 173.33 337.961 173.134C338.335 172.93 338.753 172.827 339.215 172.827C339.972 172.827 340.577 173.05 341.03 173.494C341.493 173.939 341.724 174.527 341.724 175.256V179.66H340.043V175.67C340.043 175.252 339.923 174.922 339.683 174.682C339.442 174.442 339.118 174.322 338.708 174.322C338.192 174.322 337.792 174.535 337.507 174.962C337.223 175.381 337.08 175.972 337.08 176.737V179.66H335.399V170.212ZM346.498 179.767C345.831 179.767 345.23 179.62 344.696 179.326C344.163 179.024 343.744 178.61 343.442 178.085C343.139 177.551 342.988 176.955 342.988 176.297C342.988 175.639 343.139 175.047 343.442 174.522C343.744 173.988 344.163 173.575 344.696 173.281C345.23 172.978 345.831 172.827 346.498 172.827C347.165 172.827 347.766 172.978 348.3 173.281C348.833 173.575 349.252 173.988 349.554 174.522C349.857 175.047 350.008 175.639 350.008 176.297C350.008 176.955 349.857 177.551 349.554 178.085C349.252 178.61 348.833 179.024 348.3 179.326C347.766 179.62 347.165 179.767 346.498 179.767ZM344.683 176.297C344.683 176.902 344.848 177.391 345.177 177.765C345.515 178.13 345.955 178.312 346.498 178.312C347.041 178.312 347.477 178.125 347.806 177.752C348.144 177.378 348.313 176.893 348.313 176.297C348.313 175.701 348.144 175.216 347.806 174.842C347.477 174.469 347.041 174.282 346.498 174.282C345.955 174.282 345.515 174.469 345.177 174.842C344.848 175.207 344.683 175.692 344.683 176.297ZM354.115 179.767C353.457 179.767 352.883 179.624 352.393 179.34C351.913 179.046 351.544 178.637 351.286 178.112C351.037 177.587 350.912 176.982 350.912 176.297C350.912 175.612 351.037 175.007 351.286 174.482C351.544 173.957 351.913 173.552 352.393 173.268C352.874 172.974 353.439 172.827 354.088 172.827C354.497 172.827 354.876 172.907 355.223 173.067C355.57 173.219 355.841 173.423 356.037 173.681V170.212H357.718V179.66H356.037V178.886C355.868 179.153 355.61 179.366 355.263 179.527C354.916 179.687 354.533 179.767 354.115 179.767ZM352.58 176.297C352.58 176.902 352.74 177.391 353.061 177.765C353.39 178.13 353.821 178.312 354.355 178.312C354.898 178.312 355.329 178.13 355.65 177.765C355.979 177.391 356.143 176.902 356.143 176.297C356.143 175.692 355.979 175.207 355.65 174.842C355.329 174.469 354.898 174.282 354.355 174.282C353.821 174.282 353.39 174.469 353.061 174.842C352.74 175.207 352.58 175.692 352.58 176.297ZM361.701 179.767C360.945 179.767 360.313 179.575 359.806 179.193C359.299 178.801 358.952 178.33 358.765 177.778L360.14 177.218C360.247 177.583 360.434 177.881 360.7 178.112C360.967 178.343 361.301 178.459 361.701 178.459C362.013 178.459 362.262 178.388 362.449 178.245C362.644 178.094 362.742 177.912 362.742 177.698C362.742 177.467 362.631 177.293 362.409 177.178C362.186 177.053 361.844 176.933 361.381 176.817C360.901 176.684 360.505 176.555 360.193 176.43C359.891 176.297 359.628 176.092 359.406 175.817C359.183 175.541 359.072 175.172 359.072 174.709C359.072 174.353 359.17 174.033 359.366 173.748C359.562 173.463 359.837 173.241 360.193 173.081C360.558 172.912 360.981 172.827 361.461 172.827C362.119 172.827 362.698 172.978 363.196 173.281C363.703 173.583 364.028 173.979 364.17 174.469L362.809 175.043C362.72 174.74 362.551 174.504 362.302 174.335C362.053 174.157 361.781 174.068 361.488 174.068C361.221 174.068 361.003 174.126 360.834 174.242C360.674 174.349 360.594 174.495 360.594 174.682C360.594 174.887 360.692 175.038 360.887 175.136C361.092 175.234 361.421 175.341 361.875 175.456C362.364 175.563 362.769 175.683 363.089 175.817C363.418 175.95 363.699 176.168 363.93 176.47C364.17 176.764 364.29 177.164 364.29 177.672C364.29 178.054 364.179 178.406 363.957 178.726C363.743 179.046 363.441 179.3 363.049 179.487C362.658 179.673 362.208 179.767 361.701 179.767Z" fill="#2B266D"/>
<path d="M292.403 191.022H256.165C254.043 191.022 252.322 192.743 252.322 194.866V214.946C252.322 217.069 254.043 218.789 256.165 218.789H292.403C294.526 218.789 296.246 217.069 296.246 214.946V194.866C296.246 192.743 294.526 191.022 292.403 191.022Z" fill="white" stroke="#2B266D" stroke-width="1.78336" stroke-miterlimit="10"/>
<path d="M295.881 195.152H252.688C252.486 195.152 252.322 195.316 252.322 195.518V201.554C252.322 201.756 252.486 201.92 252.688 201.92H295.881C296.083 201.92 296.246 201.756 296.246 201.554V195.518C296.246 195.316 296.083 195.152 295.881 195.152Z" fill="#2B266D"/>
<path d="M256.389 209.097H276.71" stroke="#2B266D" stroke-width="1.78336" stroke-miterlimit="10" stroke-linecap="round"/>
<path d="M256.389 213.091H271.779" stroke="#2B266D" stroke-width="1.78336" stroke-miterlimit="10" stroke-linecap="round"/>
<path d="M276.799 242.637L267.854 244.96L273.666 256.646C273.763 256.836 273.685 257.074 273.489 257.164L263.1 262.314C262.909 262.412 262.672 262.333 262.581 262.137L256.827 250.557L249.629 256.358C249.253 256.666 248.688 256.398 248.685 255.907L248.591 223.221C248.569 222.152 249.793 221.531 250.637 222.184L277 241.612C277.391 241.902 277.273 242.52 276.799 242.637Z" fill="white" stroke="#2B266D" stroke-width="1.7" stroke-miterlimit="10"/>
<path d="M238.77 147.767L245.614 132.795" stroke="#2B266D" stroke-width="1.7" stroke-miterlimit="10" stroke-linecap="round"/>
<path d="M230.628 147.473L224.884 132.049" stroke="#2B266D" stroke-width="1.7" stroke-miterlimit="10" stroke-linecap="round"/>
<path d="M224.373 161.163L208.949 166.906" stroke="#2B266D" stroke-width="1.7" stroke-miterlimit="10" stroke-linecap="round"/>
<path d="M224.665 153.02L209.693 146.176" stroke="#2B266D" stroke-width="1.7" stroke-miterlimit="10" stroke-linecap="round"/>
</svg>
