<svg width="800" height="400" viewBox="0 0 800 400" fill="none" xmlns="http://www.w3.org/2000/svg">
<g opacity="0.8">
<path d="M139.083 237.703C136.914 237.703 135.871 235.042 137.462 233.568L154.363 217.907C154.804 217.499 155.383 217.271 155.985 217.271L374.665 217.271C375.223 217.271 375.763 217.467 376.191 217.823L395.012 233.484C396.728 234.912 395.718 237.703 393.486 237.703L139.083 237.703Z" fill="#2B266D"/>
</g>
<rect x="210.594" y="40.3262" width="165.54" height="192.806" rx="9.73766" fill="white"/>
<g opacity="0.8">
<rect x="210.594" y="40.327" width="165.54" height="192.806" rx="9.73766" fill="#2B266D"/>
<rect x="215.077" y="40.9145" width="164.365" height="195.526" rx="9.15016" fill="white" stroke="#2B266D" stroke-width="1.175"/>
<path opacity="0.8" d="M233.012 72.4467C232.48 72.4467 231.982 72.337 231.52 72.1177C231.058 71.8905 230.678 71.5811 230.38 71.1894C230.083 70.7978 229.902 70.3552 229.84 69.8617L231.261 69.4269C231.324 69.9126 231.524 70.3121 231.861 70.6254C232.205 70.9309 232.609 71.0837 233.071 71.0837C233.502 71.0837 233.846 70.9897 234.105 70.8017C234.363 70.6137 234.493 70.363 234.493 70.0497C234.493 69.8069 234.414 69.6071 234.258 69.4504C234.109 69.2938 233.917 69.1684 233.682 69.0744C233.447 68.9804 233.13 68.8747 232.73 68.7572C232.182 68.5927 231.735 68.4321 231.391 68.2754C231.046 68.1109 230.748 67.8681 230.498 67.5469C230.255 67.2258 230.133 66.8067 230.133 66.2897C230.133 65.8589 230.259 65.4711 230.509 65.1264C230.76 64.7818 231.101 64.5154 231.532 64.3274C231.97 64.1316 232.456 64.0337 232.989 64.0337C233.506 64.0337 233.98 64.1199 234.41 64.2922C234.841 64.4645 235.198 64.7113 235.48 65.0324C235.77 65.3458 235.958 65.7061 236.044 66.1134L234.61 66.7009C234.524 66.3014 234.336 65.9842 234.046 65.7492C233.764 65.5142 233.412 65.3967 232.989 65.3967C232.597 65.3967 232.288 65.4789 232.06 65.6434C231.833 65.8001 231.72 66.0155 231.72 66.2897C231.72 66.4777 231.786 66.6304 231.919 66.7479C232.053 66.8654 232.217 66.9594 232.413 67.0299C232.609 67.1004 232.895 67.1866 233.271 67.2884C233.85 67.4294 234.332 67.5861 234.716 67.7584C235.1 67.9229 235.429 68.1854 235.703 68.5457C235.977 68.906 236.114 69.3956 236.114 70.0144C236.114 70.4923 235.985 70.9153 235.726 71.2834C235.468 71.6516 235.104 71.9375 234.634 72.1412C234.164 72.3449 233.623 72.4467 233.012 72.4467ZM237.252 64.1277H242.751V65.5024H238.85V67.3119H241.975V68.6984H238.85V70.9662H242.88V72.3527H237.252V64.1277ZM244.068 64.1277H247.24C248.047 64.1277 248.689 64.3509 249.167 64.7974C249.653 65.2361 249.896 65.8236 249.896 66.5599C249.896 67.0221 249.782 67.4412 249.555 67.8172C249.328 68.1854 249.011 68.4713 248.603 68.6749L250.789 72.3527H248.92L246.982 68.9804H245.677V72.3527H244.079L244.068 64.1277ZM246.993 67.6057C247.401 67.6057 247.718 67.5156 247.945 67.3354C248.172 67.1474 248.286 66.8889 248.286 66.5599C248.286 66.2309 248.172 65.9724 247.945 65.7844C247.718 65.5964 247.401 65.5024 246.993 65.5024H245.677V67.6057H246.993ZM250.443 64.1277H252.076L254.203 70.4492L256.353 64.1277H257.975L254.978 72.3527H253.439L250.443 64.1277ZM258.836 64.1277H260.434V72.3527H258.836V64.1277ZM265.704 72.4467C264.96 72.4467 264.279 72.2861 263.66 71.9649C263.041 71.6438 262.544 71.1659 262.168 70.5314C261.799 69.8969 261.615 69.1332 261.615 68.2402C261.615 67.3472 261.803 66.5834 262.179 65.9489C262.555 65.3144 263.053 64.8366 263.672 64.5154C264.29 64.1943 264.968 64.0337 265.704 64.0337C266.355 64.0337 266.938 64.1473 267.455 64.3744C267.972 64.5938 268.395 64.911 268.724 65.3262C269.053 65.7414 269.265 66.2231 269.359 66.7714L267.772 67.1004C267.671 66.5756 267.432 66.1644 267.056 65.8667C266.687 65.5612 266.237 65.4084 265.704 65.4084C265.234 65.4084 264.811 65.5181 264.435 65.7374C264.067 65.9568 263.773 66.2819 263.554 66.7127C263.343 67.1357 263.237 67.6449 263.237 68.2402C263.237 68.8355 263.343 69.3486 263.554 69.7794C263.766 70.2024 264.059 70.5236 264.435 70.7429C264.811 70.9544 265.234 71.0602 265.704 71.0602C266.237 71.0602 266.68 70.9231 267.032 70.6489C267.385 70.3748 267.616 69.9949 267.725 69.5092L269.335 69.8617C269.131 70.6685 268.708 71.303 268.066 71.7652C267.432 72.2195 266.644 72.4467 265.704 72.4467ZM270.379 64.1277H275.878V65.5024H271.977V67.3119H275.103V68.6984H271.977V70.9662H276.007V72.3527H270.379V64.1277ZM280.018 64.1277H281.616V70.9662H285.434V72.3527H280.018V64.1277ZM286.352 64.1277H287.95V72.3527H286.352V64.1277ZM289.496 64.1277H292.727C293.502 64.1277 294.125 64.3157 294.595 64.6917C295.073 65.0599 295.312 65.5769 295.312 66.2427C295.312 66.603 295.214 66.9281 295.018 67.2179C294.822 67.5078 294.587 67.7232 294.313 67.8642C294.728 68.0209 295.065 68.2715 295.324 68.6162C295.582 68.9609 295.711 69.3917 295.711 69.9087C295.711 70.6685 295.449 71.2678 294.924 71.7064C294.407 72.1373 293.714 72.3527 292.844 72.3527H289.496V64.1277ZM292.68 70.9662C293.69 70.9662 294.196 70.5902 294.196 69.8382C294.196 69.0705 293.69 68.6867 292.68 68.6867H291.094V70.9662H292.68ZM292.609 67.3354C293.009 67.3354 293.311 67.2532 293.514 67.0887C293.718 66.9242 293.82 66.6853 293.82 66.3719C293.82 65.7296 293.408 65.4084 292.586 65.4084H291.094V67.3354H292.609ZM296.897 64.1277H300.069C300.876 64.1277 301.519 64.3509 301.996 64.7974C302.482 65.2361 302.725 65.8236 302.725 66.5599C302.725 67.0221 302.611 67.4412 302.384 67.8172C302.157 68.1854 301.84 68.4713 301.432 68.6749L303.618 72.3527H301.75L299.811 68.9804H298.507V72.3527H296.909L296.897 64.1277ZM299.823 67.6057C300.23 67.6057 300.547 67.5156 300.774 67.3354C301.002 67.1474 301.115 66.8889 301.115 66.5599C301.115 66.2309 301.002 65.9724 300.774 65.7844C300.547 65.5964 300.23 65.5024 299.823 65.5024H298.507V67.6057H299.823ZM306.666 69.1802H308.851L307.758 66.2192L306.666 69.1802ZM307.006 64.1277H308.499L311.659 72.3527H310.014L309.345 70.5314H306.16L305.491 72.3527H303.846L307.006 64.1277ZM312.445 64.1277H315.617C316.424 64.1277 317.067 64.3509 317.544 64.7974C318.03 65.2361 318.273 65.8236 318.273 66.5599C318.273 67.0221 318.159 67.4412 317.932 67.8172C317.705 68.1854 317.388 68.4713 316.98 68.6749L319.166 72.3527H317.298L315.359 68.9804H314.055V72.3527H312.457L312.445 64.1277ZM315.371 67.6057C315.778 67.6057 316.095 67.5156 316.322 67.3354C316.55 67.1474 316.663 66.8889 316.663 66.5599C316.663 66.2309 316.55 65.9724 316.322 65.7844C316.095 65.5964 315.778 65.5024 315.371 65.5024H314.055V67.6057H315.371ZM321.409 68.9452L318.589 64.1277H320.305L322.208 67.4412L324.123 64.1277H325.839L323.007 68.9452V72.3527H321.409V68.9452Z" fill="#2B266D"/>
<path opacity="0.8" d="M230.31 165.775H231.931L235.456 171.485V165.775H236.948V174H235.327L231.814 168.301V174H230.31V165.775ZM238.514 165.775H244.013V167.15H240.112V168.959H243.238V170.346H240.112V172.613H244.142V174H238.514V165.775ZM244.731 165.775H246.376L247.962 172.096L249.572 165.775H251.381L253.003 172.096L254.589 165.775H256.234L253.86 174H252.168L250.488 167.972L248.796 174H247.128L244.731 165.775Z" fill="#FF5787"/>
<path d="M232.29 91.5793C233.554 91.5793 234.579 90.5542 234.579 89.2896C234.579 88.0251 233.554 87 232.29 87C231.025 87 230 88.0251 230 89.2896C230 90.5542 231.025 91.5793 232.29 91.5793Z" stroke="#D5D4D2" stroke-width="2.16" stroke-miterlimit="10"/>
<rect x="240.339" y="87.8496" width="116.64" height="2.88" rx="1.44" fill="#D5D4D2"/>
<path d="M232.29 103.359C233.554 103.359 234.579 102.333 234.579 101.069C234.579 99.8044 233.554 98.7793 232.29 98.7793C231.025 98.7793 230 99.8044 230 101.069C230 102.333 231.025 103.359 232.29 103.359Z" stroke="#D5D4D2" stroke-width="2.16" stroke-miterlimit="10"/>
<rect x="240.339" y="99.6289" width="116.64" height="2.88" rx="1.44" fill="#D5D4D2"/>
<path d="M232.29 115.138C233.554 115.138 234.579 114.113 234.579 112.848C234.579 111.584 233.554 110.559 232.29 110.559C231.025 110.559 230 111.584 230 112.848C230 114.113 231.025 115.138 232.29 115.138Z" stroke="#D5D4D2" stroke-width="2.16" stroke-miterlimit="10"/>
<rect x="240.339" y="111.408" width="116.64" height="2.88" rx="1.44" fill="#D5D4D2"/>
<path d="M232.29 126.917C233.554 126.917 234.579 125.892 234.579 124.628C234.579 123.363 233.554 122.338 232.29 122.338C231.025 122.338 230 123.363 230 124.628C230 125.892 231.025 126.917 232.29 126.917Z" stroke="#D5D4D2" stroke-width="2.16" stroke-miterlimit="10"/>
<rect x="240.339" y="123.188" width="116.64" height="2.88" rx="1.44" fill="#D5D4D2"/>
<path d="M232.29 138.696C233.554 138.696 234.579 137.671 234.579 136.407C234.579 135.142 233.554 134.117 232.29 134.117C231.025 134.117 230 135.142 230 136.407C230 137.671 231.025 138.696 232.29 138.696Z" stroke="#D5D4D2" stroke-width="2.16" stroke-miterlimit="10"/>
<rect x="240.339" y="134.967" width="116.64" height="2.88" rx="1.44" fill="#D5D4D2"/>
<path d="M232.29 150.476C233.554 150.476 234.579 149.451 234.579 148.186C234.579 146.922 233.554 145.896 232.29 145.896C231.025 145.896 230 146.922 230 148.186C230 149.451 231.025 150.476 232.29 150.476Z" stroke="#D5D4D2" stroke-width="2.16" stroke-miterlimit="10"/>
<rect x="240.339" y="146.746" width="116.64" height="2.88" rx="1.44" fill="#D5D4D2"/>
<path d="M232.29 189.579C233.554 189.579 234.579 188.554 234.579 187.29C234.579 186.025 233.554 185 232.29 185C231.025 185 230 186.025 230 187.29C230 188.554 231.025 189.579 232.29 189.579Z" stroke="#FF5787" stroke-width="2.16" stroke-miterlimit="10"/>
<rect x="240.339" y="185.85" width="116.64" height="2.88" rx="1.44" fill="#FF5787"/>
</g>
<g opacity="0.8">
<rect x="229.763" y="205.999" width="134.538" height="11.75" rx="2.35" fill="#4940CE"/>
<path d="M292.431 213.921C292.164 213.921 291.915 213.866 291.684 213.756C291.453 213.643 291.263 213.488 291.115 213.292C290.966 213.096 290.876 212.875 290.844 212.628L291.555 212.411C291.586 212.654 291.686 212.854 291.855 213.01C292.027 213.163 292.229 213.239 292.46 213.239C292.675 213.239 292.848 213.192 292.977 213.098C293.106 213.004 293.171 212.879 293.171 212.722C293.171 212.601 293.132 212.501 293.053 212.423C292.979 212.344 292.883 212.282 292.765 212.235C292.648 212.188 292.489 212.135 292.29 212.076C292.015 211.994 291.792 211.914 291.62 211.835C291.447 211.753 291.299 211.632 291.173 211.471C291.052 211.31 290.991 211.101 290.991 210.842C290.991 210.627 291.054 210.433 291.179 210.261C291.304 210.088 291.475 209.955 291.69 209.861C291.91 209.763 292.152 209.714 292.419 209.714C292.677 209.714 292.914 209.757 293.13 209.844C293.345 209.93 293.523 210.053 293.664 210.214C293.809 210.37 293.903 210.551 293.946 210.754L293.23 211.048C293.186 210.848 293.092 210.69 292.948 210.572C292.807 210.455 292.63 210.396 292.419 210.396C292.223 210.396 292.068 210.437 291.955 210.519C291.841 210.598 291.784 210.705 291.784 210.842C291.784 210.936 291.818 211.013 291.884 211.071C291.951 211.13 292.033 211.177 292.131 211.212C292.229 211.248 292.372 211.291 292.56 211.342C292.85 211.412 293.09 211.491 293.282 211.577C293.474 211.659 293.639 211.79 293.776 211.97C293.913 212.151 293.982 212.395 293.982 212.705C293.982 212.944 293.917 213.155 293.788 213.339C293.658 213.523 293.476 213.666 293.241 213.768C293.006 213.87 292.736 213.921 292.431 213.921ZM296.248 211.97C296.248 211.802 296.195 211.671 296.09 211.577C295.984 211.479 295.841 211.43 295.661 211.43C295.5 211.43 295.365 211.477 295.255 211.571C295.15 211.665 295.089 211.79 295.073 211.947L294.415 211.829C294.462 211.54 294.601 211.306 294.832 211.13C295.067 210.954 295.343 210.866 295.661 210.866C296.056 210.866 296.372 210.972 296.607 211.183C296.846 211.391 296.965 211.686 296.965 212.07V213.874H296.248V213.445C296.166 213.59 296.043 213.705 295.878 213.792C295.718 213.878 295.545 213.921 295.361 213.921C295.169 213.921 294.999 213.884 294.85 213.809C294.701 213.731 294.584 213.625 294.497 213.492C294.415 213.359 294.374 213.208 294.374 213.04C294.374 212.75 294.484 212.525 294.703 212.364C294.922 212.203 295.253 212.1 295.696 212.053L296.248 212V211.97ZM295.091 213.016C295.091 213.122 295.13 213.208 295.208 213.275C295.287 213.341 295.392 213.374 295.526 213.374C295.749 213.374 295.925 213.3 296.054 213.151C296.184 213.002 296.248 212.816 296.248 212.593V212.528L295.684 212.593C295.492 212.617 295.345 212.666 295.244 212.74C295.142 212.814 295.091 212.906 295.091 213.016ZM297.25 210.913H297.996L298.672 213.016L299.348 210.913H300.1L299.019 213.874H298.331L297.25 210.913ZM300.22 212.393C300.22 212.127 300.275 211.878 300.385 211.647C300.498 211.412 300.665 211.224 300.884 211.083C301.103 210.938 301.37 210.866 301.683 210.866C302 210.866 302.271 210.934 302.494 211.071C302.717 211.209 302.885 211.387 302.999 211.606C303.113 211.825 303.169 212.055 303.169 212.293C303.169 212.411 303.165 212.509 303.158 212.587H300.96C300.992 212.81 301.076 212.985 301.213 213.11C301.35 213.235 301.524 213.298 301.736 213.298C301.908 213.298 302.053 213.259 302.171 213.181C302.288 213.102 302.366 212.991 302.406 212.846L303.099 213.034C303.017 213.312 302.854 213.529 302.611 213.686C302.368 213.843 302.073 213.921 301.724 213.921C301.411 213.921 301.141 213.85 300.913 213.709C300.686 213.564 300.514 213.374 300.396 213.139C300.279 212.904 300.22 212.656 300.22 212.393ZM302.376 212.047C302.357 211.863 302.288 211.714 302.171 211.6C302.053 211.487 301.891 211.43 301.683 211.43C301.499 211.43 301.344 211.483 301.219 211.588C301.097 211.694 301.017 211.847 300.978 212.047H302.376Z" fill="white"/>
</g>
<path fill-rule="evenodd" clip-rule="evenodd" d="M548.127 94.4572C547.575 94.4572 547.127 94.0094 547.127 93.4572L547.127 86.6499C547.127 86.0976 547.575 85.6499 548.127 85.6499C548.679 85.6499 549.127 86.0976 549.127 86.6499L549.127 93.4572C549.127 94.0094 548.679 94.4572 548.127 94.4572ZM548.127 74.0354C547.575 74.0354 547.127 73.5877 547.127 73.0354L547.127 66.2282C547.127 65.6759 547.575 65.2282 548.127 65.2282C548.679 65.2282 549.127 65.6759 549.127 66.2282L549.127 73.0354C549.127 73.5877 548.679 74.0354 548.127 74.0354Z" fill="#2B266D"/>
<path fill-rule="evenodd" clip-rule="evenodd" d="M378.665 65.8984C378.665 65.3462 379.113 64.8984 379.665 64.8984L385.682 64.8984C386.234 64.8984 386.682 65.3462 386.682 65.8984C386.682 66.4507 386.234 66.8984 385.682 66.8984L379.665 66.8984C379.113 66.8984 378.665 66.4507 378.665 65.8984ZM396.714 65.8984C396.714 65.3462 397.162 64.8984 397.714 64.8984L409.747 64.8984C410.3 64.8984 410.747 65.3462 410.747 65.8984C410.747 66.4507 410.3 66.8984 409.747 66.8984L397.714 66.8984C397.162 66.8984 396.714 66.4507 396.714 65.8984ZM420.78 65.8984C420.78 65.3462 421.228 64.8984 421.78 64.8984L433.813 64.8984C434.366 64.8984 434.813 65.3462 434.813 65.8984C434.813 66.4507 434.366 66.8984 433.813 66.8984L421.78 66.8984C421.228 66.8984 420.78 66.4507 420.78 65.8984ZM444.846 65.8984C444.846 65.3462 445.294 64.8984 445.846 64.8984L457.879 64.8984C458.432 64.8984 458.879 65.3462 458.879 65.8984C458.879 66.4507 458.432 66.8984 457.879 66.8984L445.846 66.8984C445.294 66.8984 444.846 66.4507 444.846 65.8984ZM468.912 65.8985C468.912 65.3462 469.36 64.8985 469.912 64.8985L481.945 64.8985C482.497 64.8985 482.945 65.3462 482.945 65.8985C482.945 66.4507 482.497 66.8985 481.945 66.8985L469.912 66.8985C469.36 66.8985 468.912 66.4507 468.912 65.8985ZM492.978 65.8985C492.978 65.3462 493.426 64.8985 493.978 64.8985L506.011 64.8985C506.563 64.8985 507.011 65.3462 507.011 65.8985C507.011 66.4507 506.563 66.8985 506.011 66.8985L493.978 66.8985C493.426 66.8985 492.978 66.4507 492.978 65.8985ZM517.044 65.8985C517.044 65.3462 517.492 64.8985 518.044 64.8985L530.077 64.8985C530.629 64.8985 531.077 65.3462 531.077 65.8985C531.077 66.4507 530.629 66.8985 530.077 66.8985L518.044 66.8985C517.492 66.8985 517.044 66.4507 517.044 65.8985ZM541.11 65.8985C541.11 65.3462 541.558 64.8985 542.11 64.8985L548.126 64.8985C548.679 64.8985 549.126 65.3462 549.126 65.8985C549.126 66.4507 548.679 66.8985 548.126 66.8985L542.11 66.8985C541.558 66.8985 541.11 66.4507 541.11 65.8985Z" fill="#2B266D"/>
<path d="M241.975 382.176C238.872 382.176 237.379 378.37 239.656 376.261L263.834 353.857C264.465 353.272 265.293 352.947 266.153 352.947H578.996C579.794 352.947 580.566 353.227 581.179 353.737L608.104 376.141C610.558 378.183 609.114 382.176 605.922 382.176H241.975Z" fill="#2B266D"/>
<path d="M566.156 380.048H374.94C368.175 380.048 362.696 374.573 362.696 367.812V105.859C362.696 99.0971 368.175 93.622 374.94 93.622H566.156C572.922 93.622 578.4 99.0971 578.4 105.859V367.802C578.4 374.564 572.922 380.039 566.156 380.039V380.048Z" fill="#2B266D"/>
<path d="M572.351 379.517H381.135C374.37 379.517 368.892 374.042 368.892 367.28V106.827C368.892 100.065 374.37 94.5901 381.135 94.5901H572.351C579.117 94.5901 584.595 100.065 584.595 106.827V367.28C584.595 374.042 579.117 379.517 572.351 379.517Z" fill="white"/>
<path fill-rule="evenodd" clip-rule="evenodd" d="M381.135 95.5901C374.922 95.5901 369.892 100.618 369.892 106.827V367.28C369.892 373.489 374.922 378.517 381.135 378.517H572.351C578.565 378.517 583.595 373.489 583.595 367.28V106.827C583.595 100.618 578.565 95.5901 572.351 95.5901H381.135ZM367.892 106.827C367.892 99.5123 373.818 93.5901 381.135 93.5901H572.351C579.669 93.5901 585.595 99.5123 585.595 106.827V367.28C585.595 374.595 579.669 380.517 572.351 380.517H381.135C373.818 380.517 367.892 374.595 367.892 367.28V106.827Z" fill="#2B266D"/>
<path d="M473.997 141.818V124.086H485.859V127.05H477.444V130.951H484.186V133.94H477.444V138.829H486.138V141.818H473.997Z" fill="#2B266D"/>
<path d="M463.913 142.021C459.224 142.021 455.093 138.956 455.093 132.952C455.093 126.949 459.3 123.884 463.913 123.884C468.171 123.884 471.187 126.214 471.796 129.786L468.374 130.495C467.918 128.241 466.194 126.847 463.913 126.847C460.922 126.847 458.59 128.975 458.59 132.952C458.59 136.929 460.897 139.032 463.913 139.032C466.22 139.032 467.816 137.765 468.273 135.688L471.745 136.448C470.883 139.918 467.994 142.021 463.913 142.021Z" fill="#2B266D"/>
<path d="M449.097 141.818V124.086H452.544V141.818H449.097Z" fill="#2B266D"/>
<path d="M437.557 142.021C432.361 142.021 428.56 138.196 428.56 132.952C428.56 127.709 432.361 123.884 437.557 123.884C442.728 123.884 446.53 127.709 446.53 132.952C446.53 138.196 442.728 142.021 437.557 142.021ZM432.032 132.952C432.032 136.473 434.338 139.032 437.557 139.032C440.776 139.032 443.057 136.473 443.057 132.952C443.057 129.431 440.776 126.847 437.557 126.847C434.338 126.847 432.032 129.431 432.032 132.952Z" fill="#2B266D"/>
<path d="M418.448 141.818L411.984 124.086H415.507L420.095 137.714L424.733 124.086H428.231L421.768 141.818H418.448Z" fill="#2B266D"/>
<path d="M395.782 141.818V124.086H399.28L406.884 136.397V124.086H410.103V141.818H406.605L399.026 129.532V141.818H395.782Z" fill="#2B266D"/>
<path d="M389 141.818V124.086H392.447V141.818H389Z" fill="#2B266D"/>
<path d="M561.059 340.862H496.782C495.002 340.862 493.559 342.304 493.559 344.083V352.518C493.559 354.297 495.002 355.739 496.782 355.739H561.059C562.839 355.739 564.282 354.297 564.282 352.518V344.083C564.282 342.304 562.839 340.862 561.059 340.862Z" fill="#D5D4D2"/>
<path d="M392.868 172.105C392.276 172.105 391.723 171.983 391.209 171.739C390.695 171.486 390.272 171.142 389.941 170.706C389.61 170.271 389.409 169.778 389.34 169.229L390.921 168.746C390.991 169.286 391.213 169.73 391.588 170.079C391.971 170.419 392.42 170.589 392.934 170.589C393.413 170.589 393.796 170.484 394.084 170.275C394.371 170.066 394.515 169.787 394.515 169.439C394.515 169.168 394.428 168.946 394.254 168.772C394.088 168.598 393.875 168.458 393.613 168.354C393.352 168.249 392.999 168.132 392.555 168.001C391.945 167.818 391.448 167.639 391.065 167.465C390.682 167.282 390.35 167.012 390.072 166.655C389.802 166.298 389.667 165.832 389.667 165.257C389.667 164.777 389.806 164.346 390.085 163.963C390.364 163.579 390.742 163.283 391.222 163.074C391.71 162.856 392.25 162.747 392.842 162.747C393.417 162.747 393.944 162.843 394.424 163.035C394.903 163.227 395.299 163.501 395.613 163.858C395.935 164.207 396.144 164.607 396.24 165.06L394.646 165.714C394.55 165.27 394.341 164.917 394.018 164.655C393.705 164.394 393.313 164.263 392.842 164.263C392.407 164.263 392.062 164.355 391.81 164.538C391.557 164.712 391.431 164.952 391.431 165.257C391.431 165.466 391.505 165.636 391.653 165.766C391.801 165.897 391.984 166.001 392.202 166.08C392.42 166.158 392.738 166.254 393.156 166.367C393.801 166.524 394.336 166.698 394.763 166.89C395.19 167.073 395.556 167.365 395.861 167.766C396.166 168.167 396.318 168.711 396.318 169.399C396.318 169.931 396.175 170.401 395.887 170.811C395.6 171.22 395.195 171.538 394.672 171.765C394.149 171.991 393.548 172.105 392.868 172.105ZM397.166 168.707C397.166 168.114 397.288 167.561 397.532 167.047C397.784 166.524 398.154 166.106 398.642 165.792C399.13 165.47 399.723 165.309 400.42 165.309C401.125 165.309 401.727 165.461 402.223 165.766C402.72 166.071 403.094 166.468 403.347 166.955C403.6 167.443 403.726 167.953 403.726 168.485C403.726 168.746 403.717 168.964 403.7 169.138H398.812C398.882 169.635 399.069 170.022 399.374 170.301C399.679 170.58 400.067 170.719 400.537 170.719C400.921 170.719 401.243 170.632 401.504 170.458C401.766 170.284 401.94 170.035 402.027 169.713L403.569 170.131C403.386 170.75 403.025 171.233 402.485 171.582C401.944 171.93 401.287 172.105 400.511 172.105C399.814 172.105 399.213 171.948 398.708 171.634C398.202 171.312 397.819 170.889 397.558 170.366C397.296 169.844 397.166 169.29 397.166 168.707ZM401.962 167.936C401.918 167.526 401.766 167.195 401.504 166.942C401.243 166.69 400.881 166.563 400.42 166.563C400.01 166.563 399.666 166.681 399.387 166.916C399.117 167.151 398.939 167.491 398.851 167.936H401.962ZM409.219 167.008C408.984 166.903 408.705 166.851 408.383 166.851C407.877 166.851 407.455 167.077 407.115 167.53C406.784 167.975 406.618 168.659 406.618 169.582V172H404.972V165.413H406.618V166.616C406.784 166.241 407.054 165.932 407.429 165.688C407.812 165.435 408.204 165.309 408.605 165.309C408.875 165.309 409.115 165.344 409.324 165.413L409.219 167.008ZM409.588 165.413H411.248L412.751 170.092L414.254 165.413H415.927L413.522 172H411.993L409.588 165.413ZM416.828 165.413H418.475V172H416.828V165.413ZM417.651 164.407C417.355 164.407 417.111 164.311 416.92 164.12C416.728 163.919 416.632 163.675 416.632 163.388C416.632 163.1 416.728 162.861 416.92 162.669C417.12 162.477 417.364 162.381 417.651 162.381C417.948 162.381 418.196 162.482 418.396 162.682C418.597 162.874 418.697 163.109 418.697 163.388C418.697 163.675 418.597 163.919 418.396 164.12C418.196 164.311 417.948 164.407 417.651 164.407ZM423.062 172.105C422.409 172.105 421.83 171.961 421.324 171.673C420.819 171.386 420.423 170.985 420.135 170.471C419.856 169.957 419.717 169.369 419.717 168.707C419.717 168.045 419.856 167.456 420.135 166.942C420.423 166.428 420.819 166.028 421.324 165.74C421.83 165.453 422.409 165.309 423.062 165.309C423.908 165.309 424.605 165.514 425.153 165.923C425.711 166.333 426.046 166.886 426.16 167.583L424.552 167.896C424.491 167.548 424.33 167.269 424.069 167.06C423.816 166.842 423.498 166.733 423.115 166.733C422.601 166.733 422.191 166.912 421.886 167.269C421.581 167.626 421.429 168.106 421.429 168.707C421.429 169.308 421.581 169.787 421.886 170.144C422.191 170.501 422.601 170.68 423.115 170.68C423.498 170.68 423.812 170.584 424.056 170.393C424.308 170.192 424.474 169.913 424.552 169.556L426.16 169.883C426.038 170.571 425.698 171.116 425.14 171.516C424.592 171.909 423.899 172.105 423.062 172.105ZM427.043 168.707C427.043 168.114 427.164 167.561 427.408 167.047C427.661 166.524 428.031 166.106 428.519 165.792C429.007 165.47 429.6 165.309 430.297 165.309C431.002 165.309 431.604 165.461 432.1 165.766C432.597 166.071 432.971 166.468 433.224 166.955C433.477 167.443 433.603 167.953 433.603 168.485C433.603 168.746 433.594 168.964 433.577 169.138H428.689C428.759 169.635 428.946 170.022 429.251 170.301C429.556 170.58 429.944 170.719 430.414 170.719C430.798 170.719 431.12 170.632 431.381 170.458C431.643 170.284 431.817 170.035 431.904 169.713L433.446 170.131C433.263 170.75 432.902 171.233 432.361 171.582C431.821 171.93 431.164 172.105 430.388 172.105C429.691 172.105 429.09 171.948 428.585 171.634C428.079 171.312 427.696 170.889 427.435 170.366C427.173 169.844 427.043 169.29 427.043 168.707ZM431.839 167.936C431.795 167.526 431.643 167.195 431.381 166.942C431.12 166.69 430.758 166.563 430.297 166.563C429.887 166.563 429.543 166.681 429.264 166.916C428.994 167.151 428.816 167.491 428.728 167.936H431.839ZM437.085 172.105C436.344 172.105 435.726 171.917 435.229 171.543C434.733 171.159 434.393 170.697 434.21 170.157L435.556 169.608C435.66 169.966 435.843 170.258 436.105 170.484C436.366 170.711 436.693 170.824 437.085 170.824C437.39 170.824 437.634 170.754 437.817 170.615C438.008 170.467 438.104 170.288 438.104 170.079C438.104 169.852 437.995 169.682 437.778 169.569C437.56 169.447 437.224 169.33 436.771 169.216C436.301 169.086 435.913 168.959 435.608 168.837C435.312 168.707 435.055 168.506 434.837 168.236C434.619 167.966 434.51 167.605 434.51 167.151C434.51 166.803 434.606 166.489 434.798 166.211C434.99 165.932 435.26 165.714 435.608 165.557C435.965 165.392 436.379 165.309 436.85 165.309C437.494 165.309 438.061 165.457 438.549 165.753C439.045 166.049 439.363 166.437 439.503 166.916L438.17 167.478C438.083 167.182 437.917 166.951 437.673 166.786C437.429 166.611 437.163 166.524 436.876 166.524C436.614 166.524 436.401 166.581 436.235 166.694C436.079 166.799 436 166.942 436 167.125C436 167.326 436.096 167.474 436.288 167.57C436.488 167.666 436.81 167.77 437.255 167.883C437.734 167.988 438.13 168.106 438.444 168.236C438.766 168.367 439.041 168.58 439.267 168.877C439.503 169.164 439.62 169.556 439.62 170.053C439.62 170.427 439.511 170.772 439.294 171.085C439.084 171.399 438.788 171.647 438.405 171.83C438.022 172.013 437.582 172.105 437.085 172.105Z" fill="#2B266D"/>
<path d="M392.18 200.36C393.936 200.36 395.36 198.936 395.36 197.18C395.36 195.424 393.936 194 392.18 194C390.424 194 389 195.424 389 197.18C389 198.936 390.424 200.36 392.18 200.36Z" stroke="#D5D4D2" stroke-width="3" stroke-miterlimit="10"/>
<rect x="403.36" y="195.18" width="162" height="4" rx="2" fill="#D5D4D2"/>
<path d="M392.18 216.72C393.936 216.72 395.36 215.296 395.36 213.54C395.36 211.784 393.936 210.36 392.18 210.36C390.424 210.36 389 211.784 389 213.54C389 215.296 390.424 216.72 392.18 216.72Z" stroke="#D5D4D2" stroke-width="3" stroke-miterlimit="10"/>
<rect x="403.36" y="211.54" width="162" height="4" rx="2" fill="#D5D4D2"/>
<path d="M392.18 233.08C393.936 233.08 395.36 231.657 395.36 229.9C395.36 228.144 393.936 226.72 392.18 226.72C390.424 226.72 389 228.144 389 229.9C389 231.657 390.424 233.08 392.18 233.08Z" stroke="#D5D4D2" stroke-width="3" stroke-miterlimit="10"/>
<rect x="403.36" y="227.9" width="162" height="4" rx="2" fill="#D5D4D2"/>
<path d="M392.18 249.44C393.936 249.44 395.36 248.017 395.36 246.26C395.36 244.504 393.936 243.08 392.18 243.08C390.424 243.08 389 244.504 389 246.26C389 248.017 390.424 249.44 392.18 249.44Z" stroke="#D5D4D2" stroke-width="3" stroke-miterlimit="10"/>
<rect x="403.36" y="244.26" width="162" height="4" rx="2" fill="#D5D4D2"/>
<path d="M392.18 265.801C393.936 265.801 395.36 264.377 395.36 262.621C395.36 260.864 393.936 259.44 392.18 259.44C390.424 259.44 389 260.864 389 262.621C389 264.377 390.424 265.801 392.18 265.801Z" stroke="#FF5787" stroke-width="3" stroke-miterlimit="10"/>
<rect x="403.36" y="260.621" width="162" height="4" rx="2" fill="#FF5787"/>
<rect x="393.037" y="289.838" width="102.481" height="26.4195" rx="13.2098" fill="#FF5787" stroke="#FF5787" stroke-width="8.0746"/>
<path d="M403.784 296.055H409.114C409.996 296.055 410.771 296.226 411.439 296.566C412.107 296.893 412.617 297.366 412.97 297.983C413.335 298.588 413.518 299.294 413.518 300.1C413.518 300.906 413.335 301.612 412.97 302.217C412.617 302.822 412.107 303.294 411.439 303.634C410.771 303.962 409.996 304.126 409.114 304.126H406.355V309.285H403.784V296.055ZM408.887 301.914C409.53 301.914 410.034 301.757 410.399 301.442C410.765 301.114 410.947 300.667 410.947 300.1C410.947 299.52 410.765 299.073 410.399 298.758C410.034 298.431 409.53 298.267 408.887 298.267H406.355V301.914H408.887ZM417.116 304.182H420.632L418.874 299.42L417.116 304.182ZM417.664 296.055H420.065L425.149 309.285H422.503L421.425 306.356H416.303L415.226 309.285H412.58L417.664 296.055ZM428.114 303.804L423.578 296.055H426.338L429.399 301.385L432.48 296.055H435.24L430.685 303.804V309.285H428.114V303.804ZM441.067 296.055H443.675L449.345 305.241V296.055H451.745V309.285H449.137L443.486 300.119V309.285H441.067V296.055ZM460.387 309.437C459.115 309.437 457.968 309.147 456.948 308.567C455.927 307.975 455.127 307.169 454.547 306.148C453.968 305.115 453.678 303.956 453.678 302.67C453.678 301.385 453.968 300.232 454.547 299.212C455.127 298.179 455.927 297.372 456.948 296.793C457.968 296.2 459.115 295.904 460.387 295.904C461.66 295.904 462.8 296.2 463.808 296.793C464.829 297.372 465.629 298.179 466.209 299.212C466.788 300.232 467.078 301.385 467.078 302.67C467.078 303.956 466.788 305.115 466.209 306.148C465.629 307.169 464.829 307.975 463.808 308.567C462.8 309.147 461.66 309.437 460.387 309.437ZM456.267 302.67C456.267 303.54 456.444 304.321 456.796 305.014C457.149 305.694 457.634 306.23 458.252 306.621C458.882 307.011 459.594 307.206 460.387 307.206C461.181 307.206 461.887 307.011 462.504 306.621C463.122 306.23 463.607 305.694 463.959 305.014C464.312 304.321 464.489 303.54 464.489 302.67C464.489 301.801 464.312 301.02 463.959 300.327C463.607 299.634 463.122 299.092 462.504 298.701C461.887 298.311 461.181 298.116 460.387 298.116C459.594 298.116 458.882 298.311 458.252 298.701C457.634 299.092 457.149 299.634 456.796 300.327C456.444 301.02 456.267 301.801 456.267 302.67ZM467.549 296.055H470.195L472.746 306.224L475.335 296.055H478.246L480.854 306.224L483.406 296.055H486.052L482.234 309.285H479.512L476.81 299.59L474.088 309.285H471.404L467.549 296.055Z" fill="white"/>
</svg>
