<svg width="800" height="400" viewBox="0 0 800 400" fill="none" xmlns="http://www.w3.org/2000/svg">
<path d="M148.964 265.174C146.535 265.174 145.366 262.194 147.148 260.543L166.077 243.002C166.571 242.545 167.22 242.291 167.893 242.291H412.816C413.44 242.291 414.045 242.509 414.525 242.908L435.604 260.449C437.525 262.047 436.395 265.174 433.895 265.174H148.964Z" fill="#2B266D"/>
<path d="M402.764 263.507H253.062C247.765 263.507 243.477 259.221 243.477 253.927V48.8463C243.477 43.5527 247.765 39.2663 253.062 39.2663H402.764C408.061 39.2663 412.349 43.5527 412.349 48.8463V253.92C412.349 259.213 408.061 263.5 402.764 263.5V263.507Z" fill="#2B266D"/>
<path d="M407.612 263.092H257.911C252.614 263.092 248.325 258.805 248.325 253.512V49.6045C248.325 44.3108 252.614 40.0244 257.911 40.0244H407.612C412.909 40.0244 417.198 44.3108 417.198 49.6045V253.512C417.198 258.805 412.909 263.092 407.612 263.092Z" fill="white"/>
<path d="M320.325 98.6263H269.042C267.622 98.6263 266.471 99.7769 266.471 101.196V105.611C266.471 107.03 267.622 108.181 269.042 108.181H320.325C321.745 108.181 322.896 107.03 322.896 105.611V101.196C322.896 99.7769 321.745 98.6263 320.325 98.6263Z" fill="#D5D4D2"/>
<path d="M266.471 122.813C266.471 121.341 267.664 120.148 269.136 120.148H403.806C405.277 120.148 406.471 121.341 406.471 122.813C406.471 124.285 405.277 125.479 403.806 125.479H269.136C267.664 125.479 266.471 124.285 266.471 122.813Z" fill="#D5D4D2"/>
<path d="M266.471 134.526C266.471 133.054 267.664 131.861 269.136 131.861H335.139C336.611 131.861 337.804 133.054 337.804 134.526C337.804 135.998 336.611 137.191 335.139 137.191H269.136C267.664 137.191 266.471 135.998 266.471 134.526Z" fill="#D5D4D2"/>
<path d="M266.471 146.239C266.471 144.767 267.664 143.574 269.136 143.574H335.139C336.611 143.574 337.804 144.767 337.804 146.239C337.804 147.711 336.611 148.904 335.139 148.904H269.136C267.664 148.904 266.471 147.711 266.471 146.239Z" fill="#D5D4D2"/>
<path d="M266.471 157.952C266.471 156.48 267.664 155.287 269.136 155.287H335.139C336.611 155.287 337.804 156.48 337.804 157.952C337.804 159.424 336.611 160.617 335.139 160.617H269.136C267.664 160.617 266.471 159.424 266.471 157.952Z" fill="#D5D4D2"/>
<path d="M266.471 169.665C266.471 168.193 267.664 167 269.136 167H335.139C336.611 167 337.804 168.193 337.804 169.665C337.804 171.137 336.611 172.33 335.139 172.33H269.136C267.664 172.33 266.471 171.137 266.471 169.665Z" fill="#D5D4D2"/>
<path d="M266.471 181.378C266.471 179.906 267.664 178.713 269.136 178.713H335.139C336.611 178.713 337.804 179.906 337.804 181.378C337.804 182.85 336.611 184.043 335.139 184.043H269.136C267.664 184.043 266.471 182.85 266.471 181.378Z" fill="#D5D4D2"/>
<rect x="269.692" y="193.647" width="81.7629" height="21.0784" rx="10.5392" fill="#FF5787" stroke="#FF5787" stroke-width="6.4422"/>
<path d="M278.266 198.247H282.518C283.222 198.247 283.84 198.382 284.373 198.654C284.906 198.915 285.313 199.292 285.595 199.785C285.886 200.267 286.032 200.83 286.032 201.473C286.032 202.117 285.886 202.68 285.595 203.162C285.313 203.645 284.906 204.022 284.373 204.293C283.84 204.555 283.222 204.685 282.518 204.685H280.317V208.802H278.266V198.247ZM282.337 202.921C282.85 202.921 283.252 202.795 283.544 202.544C283.835 202.283 283.981 201.926 283.981 201.473C283.981 201.011 283.835 200.654 283.544 200.403C283.252 200.141 282.85 200.011 282.337 200.011H280.317V202.921H282.337ZM288.903 204.731H291.707L290.305 200.931L288.903 204.731ZM289.34 198.247H291.255L295.311 208.802H293.2L292.341 206.465H288.254L287.395 208.802H285.284L289.34 198.247ZM297.677 204.429L294.059 198.247H296.26L298.703 202.499L301.161 198.247H303.362L299.728 204.429V208.802H297.677V204.429ZM308.012 198.247H310.093L314.616 205.575V198.247H316.531V208.802H314.45L309.942 201.489V208.802H308.012V198.247ZM323.426 208.923C322.411 208.923 321.496 208.691 320.682 208.229C319.867 207.756 319.229 207.113 318.767 206.299C318.304 205.474 318.073 204.55 318.073 203.524C318.073 202.499 318.304 201.579 318.767 200.765C319.229 199.94 319.867 199.297 320.682 198.835C321.496 198.362 322.411 198.126 323.426 198.126C324.441 198.126 325.351 198.362 326.155 198.835C326.97 199.297 327.608 199.94 328.07 200.765C328.533 201.579 328.764 202.499 328.764 203.524C328.764 204.55 328.533 205.474 328.07 206.299C327.608 207.113 326.97 207.756 326.155 208.229C325.351 208.691 324.441 208.923 323.426 208.923ZM320.139 203.524C320.139 204.218 320.28 204.841 320.561 205.394C320.843 205.937 321.23 206.364 321.722 206.676C322.225 206.987 322.793 207.143 323.426 207.143C324.059 207.143 324.622 206.987 325.115 206.676C325.608 206.364 325.995 205.937 326.276 205.394C326.557 204.841 326.698 204.218 326.698 203.524C326.698 202.831 326.557 202.207 326.276 201.654C325.995 201.102 325.608 200.669 325.115 200.358C324.622 200.046 324.059 199.89 323.426 199.89C322.793 199.89 322.225 200.046 321.722 200.358C321.23 200.669 320.843 201.102 320.561 201.654C320.28 202.207 320.139 202.831 320.139 203.524ZM329.14 198.247H331.251L333.286 206.359L335.352 198.247H337.674L339.755 206.359L341.791 198.247H343.902L340.856 208.802H338.685L336.528 201.066L334.357 208.802H332.216L329.14 198.247Z" fill="white"/>
<path fill-rule="evenodd" clip-rule="evenodd" d="M257.911 40.8073C253.047 40.8073 249.109 44.7436 249.109 49.6045V253.512C249.109 258.372 253.047 262.309 257.911 262.309H407.613C412.478 262.309 416.416 258.372 416.416 253.512V49.6045C416.416 44.7436 412.478 40.8073 407.613 40.8073H257.911ZM247.543 49.6045C247.543 43.878 252.183 39.2415 257.911 39.2415H407.613C413.342 39.2415 417.982 43.878 417.982 49.6045V253.512C417.982 259.238 413.342 263.875 407.613 263.875H257.911C252.183 263.875 247.543 259.238 247.543 253.512V49.6045Z" fill="#2B266D"/>
<path d="M333.566 77.1168V63.2348H342.853V65.5551H336.265V68.6091H341.543V70.9492H336.265V74.7767H343.071V77.1168H333.566Z" fill="#2B266D"/>
<path d="M325.673 77.2755C322.002 77.2755 318.768 74.8759 318.768 70.1758C318.768 65.4757 322.062 63.0761 325.673 63.0761C329.007 63.0761 331.368 64.9006 331.844 67.6969L329.165 68.2522C328.808 66.4872 327.459 65.3964 325.673 65.3964C323.331 65.3964 321.506 67.0623 321.506 70.1758C321.506 73.2894 323.312 74.9354 325.673 74.9354C327.479 74.9354 328.729 73.9438 329.086 72.3176L331.804 72.9126C331.13 75.6295 328.868 77.2755 325.673 77.2755Z" fill="#2B266D"/>
<path d="M314.073 77.1168V63.2348H316.772V77.1168H314.073Z" fill="#2B266D"/>
<path d="M305.037 77.2755C300.97 77.2755 297.993 74.2809 297.993 70.1758C297.993 66.0707 300.97 63.0761 305.037 63.0761C309.085 63.0761 312.062 66.0707 312.062 70.1758C312.062 74.2809 309.085 77.2755 305.037 77.2755ZM300.712 70.1758C300.712 72.9324 302.517 74.9354 305.037 74.9354C307.557 74.9354 309.343 72.9324 309.343 70.1758C309.343 67.4192 307.557 65.3964 305.037 65.3964C302.517 65.3964 300.712 67.4192 300.712 70.1758Z" fill="#2B266D"/>
<path d="M290.078 77.1168L285.018 63.2348H287.776L291.367 73.9041L294.999 63.2348H297.737L292.677 77.1168H290.078Z" fill="#2B266D"/>
<path d="M272.334 77.1168V63.2348H275.072L281.025 72.8729V63.2348H283.545V77.1168H280.807L274.874 67.4985V77.1168H272.334Z" fill="#2B266D"/>
<path d="M267.023 77.1168V63.2348H269.722V77.1168H267.023Z" fill="#2B266D"/>
<path d="M398.773 232.829H348.451C347.057 232.829 345.928 233.958 345.928 235.35V241.954C345.928 243.347 347.057 244.476 348.451 244.476H398.773C400.167 244.476 401.297 243.347 401.297 241.954V235.35C401.297 233.958 400.167 232.829 398.773 232.829Z" fill="#D5D4D2"/>
<path d="M381.027 84.0702C389.244 84.0702 395.905 77.2999 395.905 68.9482C395.905 60.5966 389.244 53.8263 381.027 53.8263C372.81 53.8263 366.149 60.5966 366.149 68.9482C366.149 77.2999 372.81 84.0702 381.027 84.0702Z" fill="#1AB4D7"/>
<path d="M373.271 68.9045L375.81 66.3174C375.894 66.2302 375.941 66.1148 375.941 65.9923C375.941 65.7372 375.737 65.5299 375.486 65.5299C375.364 65.5299 375.249 65.5786 375.163 65.6676C375.162 65.6681 372.626 68.2447 372.626 68.2447L370.078 65.6637C369.992 65.5775 369.878 65.5299 369.757 65.5299C369.506 65.5299 369.302 65.7371 369.302 65.992C369.302 66.1163 369.351 66.233 369.438 66.3209L371.977 68.9009L369.44 71.4847C369.35 71.574 369.302 71.6909 369.302 71.8158C369.302 72.0709 369.506 72.2779 369.757 72.2779C369.878 72.2779 369.992 72.2301 370.078 72.1429L372.622 69.5605L375.156 72.1335C375.246 72.2279 375.362 72.2782 375.486 72.2782C375.737 72.2782 375.941 72.0709 375.941 71.8158C375.941 71.6927 375.894 71.5771 375.809 71.4899L373.271 68.9045Z" fill="white"/>
<path d="M388.365 68.9037C388.365 69.3671 388.736 69.744 389.192 69.744C389.648 69.744 390.018 69.3671 390.018 68.9037C390.018 68.4403 389.648 68.0634 389.192 68.0634C388.736 68.0634 388.365 68.4403 388.365 68.9037Z" fill="white"/>
<path d="M386.797 68.9041C386.797 67.5624 387.871 66.4707 389.191 66.4707C390.511 66.4707 391.585 67.5624 391.585 68.9041C391.585 70.2455 390.511 71.3368 389.191 71.3368C387.871 71.3368 386.797 70.2455 386.797 68.9041ZM385.855 68.9041C385.855 70.7734 387.352 72.2942 389.191 72.2942C391.031 72.2942 392.528 70.7734 392.528 68.9041C392.528 67.0346 391.031 65.5134 389.191 65.5134C387.352 65.5134 385.855 67.0346 385.855 68.9041Z" fill="white"/>
<path d="M385.619 65.5714L385.479 65.571C385.059 65.571 384.654 65.7056 384.315 65.9708C384.271 65.7633 384.088 65.6072 383.871 65.6072C383.621 65.6072 383.421 65.8109 383.42 66.0656C383.42 66.0665 383.421 71.7762 383.421 71.7762C383.422 72.0305 383.626 72.2372 383.876 72.2372C384.127 72.2372 384.331 72.0305 384.331 71.7757C384.331 71.7745 384.331 68.2644 384.331 68.2644C384.331 67.094 384.437 66.6214 385.423 66.4961C385.514 66.4846 385.613 66.4864 385.614 66.4864C385.884 66.477 386.075 66.2885 386.075 66.0337C386.075 65.7788 385.871 65.5714 385.619 65.5714Z" fill="white"/>
<path d="M376.884 68.3459C376.884 68.3333 376.885 68.3201 376.885 68.3071C377.149 67.2459 378.095 66.4606 379.221 66.4606C380.361 66.4606 381.315 67.2652 381.566 68.3459H376.884ZM382.497 68.2586C382.301 67.3152 381.793 66.5404 381.019 66.0427C379.888 65.3128 378.395 65.3532 377.302 66.1429C376.411 66.7872 375.896 67.8413 375.896 68.9272C375.896 69.1994 375.929 69.4743 375.996 69.7448C376.332 71.0902 377.47 72.1087 378.827 72.2775C379.23 72.3271 379.622 72.3033 380.027 72.1965C380.376 72.1103 380.714 71.9666 381.024 71.7641C381.347 71.5532 381.617 71.2752 381.878 70.9424C381.883 70.9363 381.888 70.9309 381.894 70.9245C382.075 70.696 382.041 70.3712 381.842 70.2161C381.674 70.0853 381.392 70.0323 381.17 70.321C381.123 70.3901 381.07 70.4611 381.011 70.5322C380.835 70.7303 380.616 70.9222 380.353 71.0711C380.02 71.2523 379.639 71.3559 379.235 71.3582C377.912 71.3432 377.204 70.4044 376.952 69.7343C376.908 69.6092 376.874 69.4794 376.85 69.3458C376.847 69.3208 376.845 69.2966 376.844 69.2744C377.118 69.2744 381.593 69.2736 381.593 69.2736C382.244 69.2597 382.594 68.7927 382.497 68.2586Z" fill="white"/>
<path d="M267.975 373.178C264.872 373.178 263.379 369.372 265.656 367.262L289.834 344.858C290.465 344.274 291.293 343.949 292.153 343.949H604.996C605.794 343.949 606.566 344.228 607.179 344.738L634.104 367.142C636.558 369.185 635.114 373.178 631.922 373.178H267.975Z" fill="#2B266D"/>
<path d="M592.156 371.049H400.94C394.175 371.049 388.696 365.574 388.696 358.812V96.8595C388.696 90.0979 394.175 84.6228 400.94 84.6228H592.156C598.922 84.6228 604.4 90.0979 604.4 96.8595V358.803C604.4 365.564 598.922 371.039 592.156 371.039V371.049Z" fill="#2B266D"/>
<path d="M598.351 370.518H407.135C400.37 370.518 394.892 365.043 394.892 358.281V97.8275C394.892 91.0659 400.37 85.5908 407.135 85.5908H598.351C605.117 85.5908 610.595 91.0659 610.595 97.8275V358.281C610.595 365.043 605.117 370.518 598.351 370.518Z" fill="white"/>
<path fill-rule="evenodd" clip-rule="evenodd" d="M407.135 86.5908C400.922 86.5908 395.892 91.6187 395.892 97.8275V358.281C395.892 364.49 400.922 369.518 407.135 369.518H598.351C604.565 369.518 609.595 364.49 609.595 358.281V97.8275C609.595 91.6187 604.565 86.5908 598.351 86.5908H407.135ZM393.892 97.8275C393.892 90.5131 399.818 84.5908 407.135 84.5908H598.351C605.669 84.5908 611.595 90.5131 611.595 97.8275V358.281C611.595 365.596 605.669 371.518 598.351 371.518H407.135C399.818 371.518 393.892 365.596 393.892 358.281V97.8275Z" fill="#2B266D"/>
<path d="M503.77 132.819V115.087H515.631V118.051H507.217V121.952H513.958V124.941H507.217V129.83H515.91V132.819H503.77Z" fill="#2B266D"/>
<path d="M493.686 133.021C488.997 133.021 484.865 129.956 484.865 123.953C484.865 117.949 489.073 114.884 493.686 114.884C497.944 114.884 500.96 117.215 501.568 120.786L498.146 121.496C497.69 119.241 495.967 117.848 493.686 117.848C490.695 117.848 488.363 119.976 488.363 123.953C488.363 127.93 490.669 130.032 493.686 130.032C495.992 130.032 497.589 128.766 498.045 126.689L501.517 127.449C500.656 130.919 497.766 133.021 493.686 133.021Z" fill="#2B266D"/>
<path d="M478.869 132.819V115.087H482.316V132.819H478.869Z" fill="#2B266D"/>
<path d="M467.33 133.021C462.134 133.021 458.332 129.196 458.332 123.953C458.332 118.709 462.134 114.884 467.33 114.884C472.5 114.884 476.302 118.709 476.302 123.953C476.302 129.196 472.5 133.021 467.33 133.021ZM461.804 123.953C461.804 127.474 464.111 130.032 467.33 130.032C470.549 130.032 472.83 127.474 472.83 123.953C472.83 120.432 470.549 117.848 467.33 117.848C464.111 117.848 461.804 120.432 461.804 123.953Z" fill="#2B266D"/>
<path d="M448.22 132.819L441.757 115.087H445.28L449.867 128.715L454.506 115.087H458.003L451.54 132.819H448.22Z" fill="#2B266D"/>
<path d="M425.555 132.819V115.087H429.052L436.656 127.398V115.087H439.875V132.819H436.377L428.799 120.533V132.819H425.555Z" fill="#2B266D"/>
<path d="M418.772 132.819V115.087H422.219V132.819H418.772Z" fill="#2B266D"/>
<path d="M484.888 159.651H420.611C418.831 159.651 417.388 161.093 417.388 162.872V168.405C417.388 170.184 418.831 171.626 420.611 171.626H484.888C486.668 171.626 488.111 170.184 488.111 168.405V162.872C488.111 161.093 486.668 159.651 484.888 159.651Z" fill="#D5D4D2"/>
<path d="M417.388 189.967C417.388 188.122 418.883 186.626 420.728 186.626H589.522C591.367 186.626 592.863 188.122 592.863 189.967C592.863 191.812 591.367 193.307 589.522 193.307H420.728C418.883 193.307 417.388 191.812 417.388 189.967Z" fill="#D5D4D2"/>
<path d="M417.388 204.648C417.388 202.803 418.883 201.307 420.728 201.307H503.456C505.301 201.307 506.796 202.803 506.796 204.648C506.796 206.493 505.301 207.988 503.456 207.988H420.728C418.883 207.988 417.388 206.493 417.388 204.648Z" fill="#D5D4D2"/>
<path d="M417.388 219.329C417.388 217.484 418.883 215.988 420.728 215.988H503.456C505.301 215.988 506.796 217.484 506.796 219.329C506.796 221.173 505.301 222.669 503.456 222.669H420.728C418.883 222.669 417.388 221.173 417.388 219.329Z" fill="#D5D4D2"/>
<path d="M417.388 234.009C417.388 232.165 418.883 230.669 420.728 230.669H503.456C505.301 230.669 506.796 232.165 506.796 234.009C506.796 235.854 505.301 237.35 503.456 237.35H420.728C418.883 237.35 417.388 235.854 417.388 234.009Z" fill="#D5D4D2"/>
<path d="M417.388 248.69C417.388 246.845 418.883 245.35 420.728 245.35H503.456C505.301 245.35 506.796 246.845 506.796 248.69C506.796 250.535 505.301 252.031 503.456 252.031H420.728C418.883 252.031 417.388 250.535 417.388 248.69Z" fill="#D5D4D2"/>
<path d="M417.388 263.371C417.388 261.526 418.883 260.031 420.728 260.031H503.456C505.301 260.031 506.796 261.526 506.796 263.371C506.796 265.216 505.301 266.712 503.456 266.712H420.728C418.883 266.712 417.388 265.216 417.388 263.371Z" fill="#D5D4D2"/>
<rect x="421.425" y="278.749" width="102.481" height="26.4195" rx="13.2098" fill="#FF5787" stroke="#FF5787" stroke-width="8.0746"/>
<path d="M432.172 284.967H437.502C438.384 284.967 439.159 285.137 439.826 285.477C440.494 285.804 441.005 286.277 441.357 286.894C441.723 287.499 441.905 288.205 441.905 289.011C441.905 289.818 441.723 290.523 441.357 291.128C441.005 291.733 440.494 292.205 439.826 292.545C439.159 292.873 438.384 293.037 437.502 293.037H434.742V298.197H432.172V284.967ZM437.275 290.826C437.918 290.826 438.422 290.668 438.787 290.353C439.152 290.025 439.335 289.578 439.335 289.011C439.335 288.432 439.152 287.984 438.787 287.669C438.422 287.342 437.918 287.178 437.275 287.178H434.742V290.826H437.275ZM445.504 293.094H449.019L447.261 288.331L445.504 293.094ZM446.052 284.967H448.452L453.536 298.197H450.89L449.813 295.267H444.691L443.614 298.197H440.968L446.052 284.967ZM456.502 292.716L451.966 284.967H454.725L457.787 290.296L460.868 284.967H463.627L459.072 292.716V298.197H456.502V292.716ZM469.455 284.967H472.063L477.733 294.152V284.967H480.133V298.197H477.525L471.874 289.03V298.197H469.455V284.967ZM488.775 298.348C487.502 298.348 486.356 298.058 485.335 297.478C484.315 296.886 483.515 296.08 482.935 295.059C482.355 294.026 482.066 292.867 482.066 291.582C482.066 290.296 482.355 289.143 482.935 288.123C483.515 287.09 484.315 286.283 485.335 285.704C486.356 285.111 487.502 284.815 488.775 284.815C490.048 284.815 491.188 285.111 492.196 285.704C493.217 286.283 494.017 287.09 494.596 288.123C495.176 289.143 495.466 290.296 495.466 291.582C495.466 292.867 495.176 294.026 494.596 295.059C494.017 296.08 493.217 296.886 492.196 297.478C491.188 298.058 490.048 298.348 488.775 298.348ZM484.655 291.582C484.655 292.451 484.831 293.232 485.184 293.925C485.537 294.606 486.022 295.141 486.639 295.532C487.269 295.922 487.981 296.118 488.775 296.118C489.569 296.118 490.274 295.922 490.892 295.532C491.509 295.141 491.994 294.606 492.347 293.925C492.7 293.232 492.876 292.451 492.876 291.582C492.876 290.712 492.7 289.931 492.347 289.238C491.994 288.545 491.509 288.003 490.892 287.613C490.274 287.222 489.569 287.027 488.775 287.027C487.981 287.027 487.269 287.222 486.639 287.613C486.022 288.003 485.537 288.545 485.184 289.238C484.831 289.931 484.655 290.712 484.655 291.582ZM495.936 284.967H498.582L501.134 295.135L503.723 284.967H506.634L509.242 295.135L511.793 284.967H514.439L510.622 298.197H507.9L505.197 288.501L502.476 298.197H499.792L495.936 284.967Z" fill="white"/>
<path d="M587.059 331.862H522.782C521.002 331.862 519.559 333.304 519.559 335.083V343.518C519.559 345.297 521.002 346.739 522.782 346.739H587.059C588.839 346.739 590.282 345.297 590.282 343.518V335.083C590.282 333.304 588.839 331.862 587.059 331.862Z" fill="#D5D4D2"/>
<path d="M570.834 160.482C584.549 160.482 595.667 149.181 595.667 135.241C595.667 121.301 584.549 110 570.834 110C557.118 110 546 121.301 546 135.241C546 149.181 557.118 160.482 570.834 160.482Z" fill="#2CA01C"/>
<path d="M552.953 135.129C552.953 140.57 557.258 144.945 562.611 144.945H563.99V141.299H562.611C559.244 141.299 556.54 138.55 556.54 135.129C556.54 131.707 559.244 128.959 562.611 128.959H565.922V148.03C565.922 150.049 567.522 151.676 569.509 151.676V125.313H562.611C557.258 125.313 552.953 129.688 552.953 135.129ZM579.166 125.313H577.787V128.959H579.166C582.533 128.959 585.237 131.707 585.237 135.129C585.237 138.55 582.533 141.299 579.166 141.299H575.855V122.228C575.855 120.209 574.255 118.582 572.268 118.582V144.945H579.166C584.519 144.945 588.824 140.57 588.824 135.129C588.824 129.688 584.519 125.313 579.166 125.313Z" fill="white"/>
</svg>
