<svg width="84" height="58" viewBox="0 0 84 58" fill="none" xmlns="http://www.w3.org/2000/svg">
<rect x="0.5" y="0.5" width="83" height="57" rx="3.5" fill="white"/>
<rect x="0.5" y="0.5" width="83" height="57" rx="3.5" stroke="#FAFAFA"/>
<path fill-rule="evenodd" clip-rule="evenodd" d="M38.2906 29.3714L38.6563 27.0392L37.8417 27.0201H33.9517L36.6551 9.80928C36.6635 9.75716 36.6907 9.70878 36.7305 9.67437C36.7705 9.63995 36.8214 9.62107 36.8747 9.62107H43.4338C45.6115 9.62107 47.1143 10.076 47.8987 10.9739C48.2666 11.3952 48.5008 11.8355 48.6143 12.3199C48.7331 12.8283 48.7351 13.4356 48.6192 14.1764L48.6107 14.2303V14.7051L48.9786 14.9143C49.2883 15.0793 49.5345 15.2681 49.7233 15.4843C50.0379 15.8446 50.2414 16.3024 50.3274 16.845C50.4163 17.4031 50.3869 18.0675 50.2414 18.8195C50.0735 19.6845 49.8022 20.4379 49.4357 21.0542C49.0988 21.6222 48.6695 22.0934 48.1596 22.4584C47.6729 22.8053 47.0947 23.0687 46.4409 23.2372C45.8072 23.4028 45.0848 23.4864 44.2925 23.4864H43.7821C43.4172 23.4864 43.0627 23.6184 42.7843 23.8549C42.5052 24.0965 42.3207 24.4265 42.2641 24.7873L42.2255 24.9974L41.5793 29.1083L41.5501 29.2591C41.5423 29.3069 41.529 29.3307 41.5094 29.3468C41.492 29.3616 41.4669 29.3714 41.4424 29.3714H38.2906Z" fill="#28356A"/>
<path fill-rule="evenodd" clip-rule="evenodd" d="M49.3271 14.2852C49.3077 14.4109 49.2852 14.5393 49.2601 14.6712C48.3952 19.1304 45.4357 20.6709 41.6562 20.6709H39.7317C39.2695 20.6709 38.8799 21.0078 38.808 21.4657L37.5436 29.5181C37.4968 29.8188 37.7276 30.0896 38.0296 30.0896H41.4429C41.847 30.0896 42.1903 29.7948 42.254 29.3946L42.2875 29.2206L42.9301 25.1258L42.9715 24.9012C43.0343 24.4996 43.3785 24.2046 43.7826 24.2046H44.293C47.5999 24.2046 50.1888 22.8567 50.9454 18.9556C51.2614 17.326 51.0978 15.9653 50.2614 15.0083C50.0084 14.7198 49.6944 14.4803 49.3271 14.2852Z" fill="#298FC2"/>
<path fill-rule="evenodd" clip-rule="evenodd" d="M48.422 13.9229C48.2898 13.8842 48.1535 13.8492 48.0136 13.8175C47.873 13.7866 47.729 13.7593 47.5807 13.7353C47.0619 13.6511 46.4932 13.6112 45.8843 13.6112H40.7432C40.6165 13.6112 40.4962 13.6399 40.3887 13.6919C40.1515 13.8063 39.9754 14.0317 39.9327 14.3076L38.839 21.2629L38.8076 21.4657C38.8795 21.0078 39.2691 20.6709 39.7314 20.6709H41.6558C45.4353 20.6709 48.3948 19.1297 49.2597 14.6712C49.2856 14.5393 49.3073 14.4109 49.3267 14.2852C49.1079 14.1686 48.8709 14.0689 48.6157 13.9839C48.5526 13.9629 48.4876 13.9426 48.422 13.9229Z" fill="#22284F"/>
<path fill-rule="evenodd" clip-rule="evenodd" d="M39.9328 14.3076C39.9755 14.0317 40.1516 13.8063 40.3888 13.6926C40.4971 13.6405 40.6166 13.6118 40.7433 13.6118H45.8844C46.4934 13.6118 47.062 13.6519 47.5808 13.7361C47.7291 13.7599 47.8731 13.7874 48.0137 13.8183C48.1536 13.8498 48.2899 13.885 48.4221 13.9235C48.4877 13.9432 48.5528 13.9636 48.6164 13.9839C48.8716 14.0689 49.1088 14.1694 49.3276 14.2852C49.585 12.6373 49.3255 11.5154 48.4382 10.4994C47.4598 9.38075 45.6942 8.90206 43.4348 8.90206H36.8755C36.414 8.90206 36.0203 9.23895 35.949 9.69757L33.217 27.0854C33.1631 27.4293 33.4273 27.7397 33.7728 27.7397H37.8223L39.9328 14.3076Z" fill="#28356A"/>
<path fill-rule="evenodd" clip-rule="evenodd" d="M18.9648 34.1052H14.1824C13.8551 34.1052 13.5768 34.344 13.5257 34.6685L11.5914 46.9813C11.553 47.2244 11.7405 47.4433 11.9859 47.4433H14.269C14.5963 47.4433 14.8746 47.2047 14.9258 46.8796L15.4474 43.5585C15.4977 43.2334 15.7766 42.9947 16.1033 42.9947H17.6172C20.7675 42.9947 22.5855 41.464 23.0605 38.4311C23.2744 37.104 23.0695 36.0614 22.4506 35.3312C21.7709 34.5294 20.5653 34.1052 18.9648 34.1052ZM19.5163 38.6024C19.2548 40.3253 17.9436 40.3253 16.6759 40.3253H15.9542L16.4605 37.1075C16.4907 36.913 16.6583 36.7698 16.8542 36.7698H17.185C18.0486 36.7698 18.8633 36.7698 19.2842 37.2641C19.5353 37.5589 19.6121 37.997 19.5163 38.6024Z" fill="#28356A"/>
<path fill-rule="evenodd" clip-rule="evenodd" d="M33.3821 38.4538H31.092C30.8969 38.4538 30.7283 38.597 30.6983 38.7915L30.5968 39.4346L30.4368 39.2015C29.9411 38.479 28.8354 38.2375 27.732 38.2375C25.2012 38.2375 23.0397 40.1621 22.6188 42.8617C22.4 44.2083 22.711 45.496 23.472 46.394C24.1699 47.2196 25.1684 47.5638 26.3564 47.5638C28.3956 47.5638 29.5262 46.2473 29.5262 46.2473L29.4242 46.8862C29.3858 47.1305 29.5732 47.3496 29.8173 47.3496H31.88C32.2081 47.3496 32.485 47.1108 32.5368 46.7858L33.7745 38.9158C33.8136 38.6735 33.6268 38.4538 33.3821 38.4538ZM30.1898 42.9291C29.9689 44.2427 28.9305 45.1245 27.606 45.1245C26.9411 45.1245 26.4097 44.9103 26.0683 44.5046C25.7298 44.1017 25.6013 43.528 25.7088 42.889C25.9153 41.5867 26.971 40.6759 28.2753 40.6759C28.9256 40.6759 29.4543 40.8931 29.8026 41.3021C30.1514 41.7157 30.2899 42.2929 30.1898 42.9291Z" fill="#28356A"/>
<path fill-rule="evenodd" clip-rule="evenodd" d="M45.4031 38.6507H43.1016C42.882 38.6507 42.6758 38.7603 42.5514 38.9435L39.3773 43.6378L38.0318 39.1266C37.9472 38.8444 37.6879 38.6507 37.3941 38.6507H35.1327C34.8577 38.6507 34.667 38.9203 34.7543 39.1801L37.2893 46.6491L34.9061 50.027C34.7187 50.2931 34.9075 50.6589 35.2313 50.6589H37.5298C37.748 50.6589 37.9521 50.5521 38.0759 50.3726L45.7302 39.2791C45.9135 39.0138 45.7253 38.6507 45.4031 38.6507Z" fill="#28356A"/>
<path fill-rule="evenodd" clip-rule="evenodd" d="M53.075 34.1052H48.292C47.9655 34.1052 47.6871 34.344 47.636 34.6685L45.7018 46.9813C45.6634 47.2244 45.8508 47.4433 46.0949 47.4433H48.5494C48.7772 47.4433 48.9723 47.2763 49.0079 47.0488L49.5569 43.5585C49.6073 43.2334 49.8864 42.9947 50.2129 42.9947H51.7262C54.877 42.9947 56.6945 41.464 57.1701 38.4311C57.3848 37.104 57.1785 36.0614 56.5596 35.3312C55.8805 34.5294 54.6757 34.1052 53.075 34.1052ZM53.6268 38.6024C53.3659 40.3253 52.0548 40.3253 50.7863 40.3253H50.0655L50.5724 37.1075C50.6024 36.913 50.7689 36.7698 50.9653 36.7698H51.2962C52.159 36.7698 52.9744 36.7698 53.3953 37.2641C53.6464 37.5589 53.7226 37.997 53.6268 38.6024Z" fill="#298FC2"/>
<path fill-rule="evenodd" clip-rule="evenodd" d="M67.4894 38.4538H65.2006C65.0042 38.4538 64.8371 38.597 64.8077 38.7915L64.7063 39.4346L64.5455 39.2015C64.0497 38.479 62.9448 38.2375 61.8412 38.2375C59.3106 38.2375 57.1499 40.1621 56.729 42.8617C56.5108 44.2083 56.8205 45.496 57.5812 46.394C58.2807 47.2196 59.2777 47.5638 60.4658 47.5638C62.5049 47.5638 63.6356 46.2473 63.6356 46.2473L63.5336 46.8862C63.4952 47.1305 63.6824 47.3496 63.9281 47.3496H65.9902C66.3167 47.3496 66.5951 47.1108 66.6462 46.7858L67.8845 38.9158C67.9223 38.6735 67.7348 38.4538 67.4894 38.4538ZM64.2972 42.9291C64.0776 44.2427 63.0377 45.1245 61.7132 45.1245C61.0496 45.1245 60.5168 44.9103 60.1754 44.5046C59.8372 44.1017 59.7098 43.528 59.816 42.889C60.0238 41.5867 61.0782 40.6759 62.3825 40.6759C63.0328 40.6759 63.5615 40.8931 63.9097 41.3021C64.2599 41.7157 64.3984 42.2929 64.2972 42.9291Z" fill="#298FC2"/>
<path fill-rule="evenodd" clip-rule="evenodd" d="M69.9986 34.4437L68.0358 46.9819C67.9974 47.225 68.1846 47.4439 68.4287 47.4439H70.4021C70.7302 47.4439 71.0083 47.2053 71.0587 46.8802L72.9943 34.568C73.0329 34.3249 72.8454 34.1052 72.6014 34.1052H70.3917C70.1966 34.1058 70.0288 34.2492 69.9986 34.4437Z" fill="#298FC2"/>
</svg>
