<svg width="84" height="58" viewBox="0 0 84 58" fill="none" xmlns="http://www.w3.org/2000/svg">
<rect x="0.5" y="0.5" width="83" height="57" rx="3.5" fill="white"/>
<rect x="0.5" y="0.5" width="83" height="57" rx="3.5" stroke="#FAFAFA"/>
<path fill-rule="evenodd" clip-rule="evenodd" d="M55.5979 29.1614H55.6332H55.7014H55.7696H55.8379H55.9061H55.9742H56.0425H56.1107H56.1789H56.2471H56.3153H56.3836H56.4517H56.5199H56.5882H56.6564H56.7246H56.7928H56.861H56.9292H56.9974H57.0656H57.1338H57.2021H57.2703H57.3385H57.4067H57.4749H57.5431H57.6113H57.6795H57.7478H57.816H57.8841H57.9524H58.0206H58.0888H58.157H58.2252H58.2934H58.3617H58.4298H58.498H58.5663H58.6345H58.7027H58.7709H58.8391H58.9073H58.9755H59.0437H59.1119H59.1802H59.2484H59.3165H59.3848H59.453H59.5212H59.5894H59.6576H59.7144L59.7259 29.1617C59.7469 29.1622 59.7698 29.1631 59.794 29.1644C59.8159 29.1656 59.8388 29.1671 59.8622 29.1689C59.8847 29.1705 59.9076 29.1724 59.9305 29.1745C59.9534 29.1766 59.9763 29.1789 59.9987 29.1813C60.0221 29.1839 60.0451 29.1867 60.0669 29.1896C60.0913 29.1929 60.1143 29.1962 60.1351 29.1998C60.1501 29.2023 60.164 29.2049 60.1763 29.2075L60.2033 29.2136C60.2262 29.2189 60.2489 29.2246 60.2715 29.2308C60.2944 29.2371 60.3171 29.2437 60.3397 29.2509C60.3626 29.2582 60.3854 29.2659 60.4079 29.274C60.4308 29.2822 60.4536 29.291 60.4761 29.3001C60.4991 29.3094 60.5218 29.3193 60.5444 29.3295C60.5673 29.3399 60.5901 29.3508 60.6126 29.3622C60.6355 29.3737 60.6583 29.3859 60.6808 29.3984C60.7038 29.4113 60.7266 29.4248 60.749 29.4386C60.772 29.4529 60.7948 29.4676 60.8172 29.4828C60.8403 29.4986 60.863 29.5147 60.8854 29.5315C60.9085 29.5488 60.9313 29.5667 60.9536 29.5852C60.9768 29.6044 60.9995 29.6242 61.0218 29.6446C61.0451 29.6658 61.0679 29.6876 61.0901 29.71C61.1135 29.7337 61.1362 29.7581 61.1583 29.7831C61.1817 29.8096 61.2045 29.8369 61.2264 29.865C61.2501 29.8951 61.2729 29.926 61.2947 29.9578C61.3186 29.9926 61.3413 30.0284 61.3629 30.065C61.3872 30.1064 61.4099 30.1489 61.4311 30.1926C61.4562 30.2444 61.479 30.2977 61.4993 30.3526C61.5266 30.4263 61.5495 30.5027 61.5675 30.5816C61.5987 30.7184 61.6155 30.8624 61.6155 31.0128C61.6155 31.1639 61.5988 31.3085 61.5675 31.4457C61.5495 31.5248 61.5266 31.6015 61.4993 31.6753C61.479 31.7304 61.4562 31.7838 61.4311 31.8357C61.4099 31.8794 61.3872 31.922 61.3629 31.9634C61.3413 32.0001 61.3186 32.0358 61.2947 32.0707C61.2729 32.1024 61.2501 32.1334 61.2264 32.1636C61.2045 32.1916 61.1817 32.2188 61.1583 32.2454C61.1362 32.2704 61.1134 32.2948 61.0901 32.3184C61.0679 32.3409 61.0451 32.3626 61.0218 32.3838C60.9995 32.4041 60.9768 32.4238 60.9536 32.4429C60.9313 32.4613 60.9086 32.4792 60.8854 32.4965C60.863 32.5132 60.8403 32.5293 60.8172 32.545C60.7948 32.5602 60.772 32.5749 60.749 32.589C60.7266 32.6028 60.7038 32.6162 60.6808 32.629C60.6583 32.6415 60.6356 32.6535 60.6126 32.665C60.5901 32.6763 60.5673 32.6872 60.5444 32.6976C60.5218 32.7077 60.4991 32.7174 60.4761 32.7266C60.4536 32.7357 60.4308 32.7444 60.4079 32.7525C60.3854 32.7606 60.3626 32.7681 60.3397 32.7753C60.3171 32.7823 60.2944 32.7889 60.2715 32.7951C60.2489 32.8012 60.2262 32.8068 60.2033 32.8121L60.1763 32.8181C60.164 32.8209 60.1501 32.8236 60.1351 32.8263C60.1143 32.8299 60.0913 32.8334 60.0669 32.8367C60.0451 32.8396 60.0221 32.8424 59.9987 32.845C59.9763 32.8475 59.9534 32.8497 59.9305 32.8518C59.9076 32.8538 59.8847 32.8557 59.8622 32.8573C59.8388 32.8589 59.8159 32.8604 59.794 32.8615C59.7698 32.8628 59.7469 32.8637 59.7259 32.8642L59.6893 32.8646H59.6576H59.5894H59.5212H59.453H59.3848H59.3165H59.2484H59.1802H59.1119H59.0437H58.9755H58.9073H58.8391H58.7709H58.7027H58.6345H58.5663H58.498H58.4298H58.3617H58.2934H58.2252H58.157H58.0888H58.0206H57.9524H57.8841H57.816H57.7478H57.6795H57.6113H57.5431H57.4749H57.4067H57.3385H57.2703H57.2021H57.1338H57.0656H56.9974H56.9292H56.861H56.7928H56.7246H56.6564H56.5882H56.5199H56.4517H56.3836H56.3153H56.2471H56.1789H56.1107H56.0425H55.9742H55.9061H55.8379H55.7696H55.7014H55.6332H55.5979V29.1614ZM61.0903 24.9702C61.1177 25.0945 61.1324 25.2261 61.1324 25.3648C61.1324 25.5032 61.1177 25.6347 61.0903 25.759C61.0727 25.8388 61.0498 25.9155 61.022 25.989C61.0018 26.0427 60.979 26.0946 60.9539 26.1448C60.9328 26.1868 60.91 26.2277 60.8857 26.2671C60.8641 26.3021 60.8413 26.336 60.8174 26.3689C60.7956 26.3989 60.7729 26.428 60.7492 26.4562C60.7272 26.4825 60.7046 26.508 60.681 26.5328C60.6589 26.556 60.6362 26.5785 60.6128 26.6004C60.5906 26.6211 60.5679 26.6413 60.5446 26.6608C60.5223 26.6794 60.4996 26.6974 60.4764 26.7149C60.4541 26.7318 60.4313 26.748 60.4082 26.7637C60.3858 26.7789 60.363 26.7935 60.34 26.8076C60.3175 26.8213 60.2948 26.8345 60.2718 26.8471C60.2493 26.8595 60.2266 26.8714 60.2036 26.8827C60.1811 26.8938 60.1583 26.9044 60.1353 26.9146C60.1128 26.9245 60.0901 26.934 60.0672 26.943C60.0446 26.9518 60.0219 26.9601 59.999 26.9681C59.9764 26.9759 59.9537 26.9832 59.9308 26.9901C59.9082 26.9969 59.8854 27.0033 59.8625 27.0092C59.84 27.015 59.8172 27.0204 59.7943 27.0253C59.7718 27.0303 59.749 27.0346 59.7261 27.0387L59.7096 27.0417C59.6963 27.044 59.6786 27.0466 59.6579 27.0491C59.6378 27.0517 59.6146 27.0543 59.5897 27.0568C59.5681 27.059 59.5451 27.0611 59.5215 27.0631C59.4992 27.0649 59.4762 27.0665 59.4533 27.068C59.4304 27.0695 59.4074 27.0707 59.3851 27.0716C59.3614 27.0726 59.3385 27.0732 59.3169 27.0733L59.3061 27.0733H59.2487H59.1804H59.1123H59.0441H58.9758H58.9076H58.8394H58.7712H58.703H58.6348H58.5666H58.4984H58.4302H58.362H58.2937H58.2256H58.1574H58.0892H58.0209H57.9527H57.8845H57.8163H57.7481H57.6799H57.6117H57.5435H57.4753H57.4071H57.3388H57.2707H57.2025H57.1342H57.066H56.9978H56.9296H56.8614H56.7932H56.725H56.6568H56.5886H56.5204H56.4521H56.384H56.3158H56.2476H56.1793H56.1111H56.0429H55.9747H55.9065H55.8383H55.7701H55.7019H55.6337H55.5979V23.656H55.6337H55.7019H55.7701H55.8383H55.9065H55.9747H56.0429H56.1111H56.1793H56.2476H56.3158H56.384H56.4521H56.5204H56.5886H56.6568H56.725H56.7932H56.8614H56.9296H56.9978H57.066H57.1342H57.2025H57.2707H57.3388H57.4071H57.4753H57.5435H57.6117H57.6799H57.7481H57.8163H57.8845H57.9527H58.0209H58.0892H58.1574H58.2256H58.2937H58.362H58.4302H58.4984H58.5666H58.6348H58.703H58.7712H58.8394H58.9076H58.9758H59.0441H59.1123H59.1804H59.2487H59.3169H59.3456L59.3851 23.6573C59.4074 23.6582 59.4304 23.6595 59.4533 23.661C59.4762 23.6625 59.4992 23.6642 59.5215 23.666C59.5451 23.6679 59.5681 23.67 59.5897 23.6721C59.6146 23.6745 59.6378 23.6769 59.6579 23.6792C59.6786 23.6816 59.6963 23.6838 59.7096 23.6857L59.7261 23.6886C59.749 23.6927 59.7718 23.6973 59.7943 23.7023C59.8172 23.7073 59.84 23.7127 59.8625 23.7186C59.8854 23.7246 59.9082 23.731 59.9308 23.7378C59.9537 23.7448 59.9764 23.7522 59.999 23.76C60.0219 23.768 60.0446 23.7764 60.0672 23.7853C60.0901 23.7943 60.1128 23.8039 60.1353 23.8138C60.1583 23.824 60.1811 23.8346 60.2036 23.8458C60.2266 23.8572 60.2493 23.869 60.2718 23.8814C60.2948 23.894 60.3175 23.9073 60.34 23.921C60.363 23.9351 60.3858 23.9497 60.4082 23.9649C60.4313 23.9806 60.4541 23.997 60.4764 24.0138C60.4996 24.0313 60.5223 24.0493 60.5446 24.068C60.5679 24.0875 60.5906 24.1077 60.6128 24.1284C60.6362 24.1503 60.6589 24.1728 60.681 24.196C60.7046 24.2207 60.7272 24.2463 60.7492 24.2726C60.7729 24.3008 60.7956 24.33 60.8174 24.36C60.8413 24.3929 60.8641 24.4267 60.8857 24.4617C60.91 24.5012 60.9328 24.542 60.9539 24.5841C60.979 24.6342 61.0018 24.6863 61.022 24.7399C61.0498 24.8135 61.0727 24.8903 61.0903 24.9702ZM69.5492 7.25H69.5772L69.5772 42.347C69.5772 42.5566 69.5674 42.7641 69.5492 42.9691C69.5333 43.1495 69.5105 43.328 69.481 43.5042C69.4612 43.6227 69.4385 43.74 69.4128 43.8564C69.3919 43.951 69.3692 44.045 69.3446 44.1381C69.3232 44.2186 69.3005 44.2983 69.2764 44.3776C69.2546 44.4492 69.2321 44.5205 69.2081 44.5912C69.1864 44.6553 69.1635 44.7189 69.1399 44.7822C69.118 44.8411 69.0952 44.8996 69.0717 44.9578C69.0496 45.0124 69.0269 45.0666 69.0035 45.1206C68.9813 45.1717 68.9585 45.2225 68.9352 45.273C68.913 45.3211 68.8903 45.3689 68.8671 45.4164C68.8447 45.4618 68.8221 45.5072 68.7988 45.5521C68.7765 45.5952 68.7537 45.6381 68.7306 45.6806C68.7083 45.7215 68.6854 45.762 68.6624 45.8024C68.64 45.8416 68.6173 45.8804 68.5942 45.919C68.5717 45.9567 68.549 45.9941 68.5259 46.0312C68.5034 46.0674 68.4808 46.1035 68.4577 46.1393C68.4353 46.1739 68.4124 46.2082 68.3894 46.2423C68.3671 46.2756 68.3442 46.3085 68.3213 46.3414C68.2987 46.3737 68.276 46.4059 68.253 46.4378C68.2305 46.4689 68.2078 46.4999 68.1848 46.5307C68.1624 46.5607 68.1395 46.5902 68.1166 46.6198C68.094 46.649 68.0713 46.6781 68.0484 46.7068C68.0258 46.7351 68.0031 46.7631 67.9801 46.7909C67.9576 46.8182 67.9348 46.8452 67.9119 46.8721C67.8893 46.8987 67.8668 46.9254 67.8437 46.9517C67.8212 46.9774 67.7983 47.0027 67.7755 47.028C67.7529 47.0531 67.7302 47.0779 67.7073 47.1026C67.6846 47.127 67.662 47.1513 67.6391 47.1754C67.6166 47.199 67.5937 47.2221 67.5708 47.2454C67.5481 47.2686 67.5256 47.2918 67.5026 47.3146C67.4801 47.3369 67.4572 47.3588 67.4344 47.3808C67.4117 47.4026 67.3891 47.4245 67.3661 47.4461C67.3436 47.4673 67.3208 47.4882 67.2979 47.5091C67.2753 47.5298 67.2525 47.5504 67.2297 47.5708C67.2071 47.591 67.1844 47.611 67.1615 47.6309C67.1389 47.6505 67.1161 47.67 67.0933 47.6893C67.0706 47.7085 67.048 47.7277 67.0251 47.7466C67.0025 47.7653 66.9797 47.7836 66.9568 47.802C66.9341 47.8202 66.9115 47.8385 66.8886 47.8565C66.8661 47.8743 66.8432 47.8916 66.8204 47.9091C66.7977 47.9264 66.7751 47.9438 66.7522 47.961C66.7296 47.9778 66.7067 47.9943 66.6839 48.0109C66.6612 48.0274 66.6386 48.0441 66.6157 48.0604C66.5931 48.0765 66.5703 48.0921 66.5475 48.1079C66.5248 48.1236 66.5022 48.1394 66.4793 48.1549C66.4566 48.1701 66.4339 48.185 66.4111 48.2001C66.3884 48.215 66.3657 48.23 66.3428 48.2447C66.3202 48.2592 66.2974 48.2735 66.2746 48.2878C66.252 48.302 66.2292 48.3162 66.2064 48.3301C66.1838 48.3439 66.161 48.3576 66.1382 48.3712L66.0699 48.4112C66.0473 48.4244 66.0246 48.4375 66.0018 48.4504C65.9791 48.4632 65.9563 48.4758 65.9335 48.4883C65.9108 48.5009 65.8882 48.5135 65.8653 48.5257C65.8427 48.5379 65.8199 48.5496 65.7971 48.5615C65.7743 48.5734 65.7517 48.5856 65.7288 48.5973C65.7063 48.6088 65.6834 48.6197 65.6606 48.631C65.6379 48.6423 65.6153 48.6537 65.5924 48.6647C65.5698 48.6756 65.5469 48.6862 65.5242 48.6969L65.4559 48.7286L65.3878 48.7593C65.3651 48.7693 65.3423 48.7791 65.3195 48.7889C65.2968 48.7987 65.2742 48.8088 65.2513 48.8183C65.2287 48.8278 65.2059 48.8367 65.1831 48.846C65.1603 48.8552 65.1377 48.8647 65.1149 48.8737C65.0922 48.8826 65.0694 48.8911 65.0466 48.8998C65.024 48.9084 65.0013 48.9171 64.9784 48.9255L64.9102 48.9505C64.8875 48.9586 64.8647 48.9665 64.8419 48.9744C64.8192 48.9823 64.7967 48.9905 64.7738 48.9982C64.7511 49.0057 64.7282 49.0128 64.7055 49.0202L64.6373 49.0421C64.6146 49.0493 64.5919 49.0561 64.5691 49.063L64.5009 49.0832C64.4781 49.0898 64.4555 49.0966 64.4326 49.103C64.41 49.1093 64.3872 49.1152 64.3644 49.1214C64.3417 49.1275 64.319 49.1338 64.2962 49.1397L64.228 49.1567L64.1598 49.1733L64.0916 49.1894C64.0689 49.1946 64.0461 49.1993 64.0233 49.2042C64.0006 49.2091 63.9779 49.2142 63.9551 49.219L63.8869 49.2325L63.8186 49.2455C63.7959 49.2497 63.7732 49.2542 63.7504 49.2582C63.7278 49.2622 63.7049 49.2657 63.6822 49.2694L63.614 49.2807L63.5458 49.2908L63.4776 49.3003C63.4548 49.3034 63.4322 49.3069 63.4093 49.3098C63.3866 49.3127 63.3638 49.3149 63.3411 49.3176C63.3184 49.3202 63.2957 49.3229 63.2729 49.3253C63.2502 49.3277 63.2275 49.3302 63.2047 49.3324C63.182 49.3346 63.1592 49.3364 63.1364 49.3384C63.1137 49.3404 63.091 49.3426 63.0682 49.3444C63.0455 49.3461 63.0227 49.3476 63 49.3491L62.9318 49.3534C62.909 49.3547 62.8864 49.3564 62.8636 49.3575C62.8409 49.3586 62.8181 49.3592 62.7953 49.3601L62.7271 49.3627L62.6589 49.3644C62.6362 49.3649 62.6134 49.365 62.5907 49.3653L62.5224 49.3661L62.5084 49.3663H62.4543H62.386H62.3178H62.2496H62.1813H62.1131H62.0449H61.9767H61.9084H61.8403H61.772H61.7038H61.6356H61.5674H61.4991H61.4309H61.3627H61.2944H61.2263H61.158H61.0898H61.0216H60.9534H60.8851H60.8169H60.7487H60.6805H60.6123H60.544H60.4758H60.4076H60.3394H60.2711H60.2029H60.1347H60.0665H59.9983H59.9301H59.8618H59.7936H59.7254H59.6571H59.5889H59.5207H59.4525H59.3843H59.3161H59.2478H59.1796H59.1114H59.0432H58.9749H58.9068H58.8385H58.7703H58.7021H58.6338H58.5656H58.4974H58.4292H58.361H58.2928H58.2245H58.1563H58.0881H58.0199H57.9516H57.8834H57.8152H57.747H57.6788H57.6105H57.5423H57.4741H57.4059H57.3376H57.2694H57.2012H57.133H57.0648H56.9965H56.9283H56.8601H56.7919H56.7236H56.6555H56.5872H56.519H56.4508H56.3826H56.3143H56.2461H56.1779H56.1096H56.0415H55.9732H55.905H55.8368H55.7686H55.7003H55.6321H55.5639H55.4957H55.4275H55.3593H55.291H55.2228H55.1546H55.0863H55.0181H54.9499H54.8817H54.8135H54.7453H54.677H54.6088H54.5406H54.4724H54.4041H54.3359H54.2677H54.1995H54.1313H54.063H53.9948H53.9266H53.8584H53.7901H53.722H53.6537H53.5855H53.5173H53.449H53.3808H53.3126H53.2444H53.1761H53.108H53.0397H52.9715H52.9033H52.8351H52.7668H52.6986H52.6304H52.5621H52.494H52.4257H52.3575H52.2893H52.1421V35.0561H52.2893H52.3575H52.4257H52.494H52.5621H52.6304H52.6986H52.7668H52.8351H52.9033H52.9715H53.0397H53.108H53.1761H53.2444H53.3126H53.3808H53.449H53.5173H53.5855H53.6537H53.722H53.7901H53.8584H53.9266H53.9948H54.063H54.1313H54.1995H54.2677H54.3359H54.4041H54.4724H54.5406H54.6088H54.677H54.7453H54.8135H54.8817H54.9499H55.0181H55.0863H55.1546H55.2228H55.291H55.3593H55.4275H55.4957H55.5639H55.6321H55.7003H55.7686H55.8368H55.905H55.9732H56.0415H56.1096H56.1779H56.2461H56.3143H56.3826H56.4508H56.519H56.5872H56.6555H56.7236H56.7919H56.8601H56.9283H56.9965H57.0648H57.133H57.2012H57.2694H57.3376H57.4059H57.4741H57.5423H57.6105H57.6788H57.747H57.8152H57.8834H57.9516H58.0199H58.0881H58.1563H58.2245H58.2928H58.361H58.4292H58.4974H58.5656H58.6338H58.7021H58.7703H58.8385H58.9068H58.9749H59.0432H59.1114H59.1796H59.2478H59.3161H59.3843H59.4525H59.5207H59.5889H59.6571H59.7254H59.7936H59.8618H59.9301H59.9983H60.0665H60.1347H60.2029H60.2711H60.3394H60.4076H60.4758H60.544H60.6123H60.6805H60.7487H60.8169H60.8851H60.9534H61.0216H61.0898H61.158H61.2263H61.2944H61.3627H61.4309H61.4991H61.5674H61.6356H61.7038H61.772H61.8403H61.9084H61.9767H62.0449H62.1131H62.1813H62.2496H62.3178H62.386H62.4543H62.5224H62.5907H62.6589H62.7271H62.7953H62.8636H62.9318H63H63.0682H63.1044L63.1364 35.0558L63.2047 35.0552L63.2729 35.0538C63.2957 35.0532 63.3185 35.0529 63.3411 35.0521C63.364 35.0513 63.3866 35.0503 63.4093 35.0493L63.4776 35.0461L63.5458 35.042L63.614 35.0374L63.6822 35.0321L63.7504 35.0258C63.7732 35.0237 63.796 35.0216 63.8186 35.0193C63.8415 35.0169 63.8641 35.0142 63.8869 35.0116L63.9551 35.0033C63.9779 35.0004 64.0006 34.9976 64.0233 34.9945C64.0462 34.9913 64.0688 34.9878 64.0916 34.9845C64.1144 34.981 64.1371 34.9777 64.1598 34.974L64.228 34.9626L64.2962 34.9504C64.319 34.9462 64.3418 34.9421 64.3644 34.9377C64.3873 34.9332 64.41 34.9284 64.4326 34.9236L64.5009 34.909C64.5237 34.9039 64.5465 34.8989 64.5691 34.8936C64.592 34.8883 64.6146 34.8826 64.6373 34.877C64.6601 34.8714 64.6829 34.8656 64.7055 34.8597C64.7283 34.8538 64.7511 34.8478 64.7738 34.8415C64.7966 34.8353 64.8193 34.8288 64.8419 34.8222C64.8648 34.8157 64.8876 34.809 64.9102 34.8021L64.9784 34.7809C65.0013 34.7737 65.024 34.7661 65.0466 34.7586C65.0695 34.7509 65.0923 34.7433 65.1149 34.7354C65.1377 34.7274 65.1605 34.7194 65.1831 34.7112C65.206 34.7028 65.2286 34.694 65.2513 34.6854C65.2742 34.6766 65.2969 34.6678 65.3195 34.6587C65.3423 34.6496 65.3652 34.6405 65.3878 34.631C65.4107 34.6215 65.4333 34.6117 65.4559 34.6018C65.4788 34.5918 65.5016 34.5816 65.5242 34.5713C65.547 34.5608 65.5698 34.5503 65.5924 34.5396C65.6152 34.5288 65.6381 34.5178 65.6606 34.5067C65.6836 34.4953 65.7062 34.4837 65.7288 34.4719C65.7517 34.4601 65.7744 34.4479 65.7971 34.4357C65.82 34.4233 65.8428 34.4107 65.8653 34.398C65.8882 34.3851 65.911 34.372 65.9335 34.3587C65.9564 34.3452 65.9792 34.3316 66.0018 34.3177C66.0247 34.3035 66.0474 34.2892 66.0699 34.2746C66.093 34.2598 66.1156 34.2447 66.1382 34.2295C66.1611 34.2141 66.1839 34.1984 66.2064 34.1825C66.2294 34.1662 66.2521 34.1499 66.2746 34.1332C66.2976 34.1163 66.3204 34.0991 66.3428 34.0817C66.3658 34.0638 66.3886 34.0459 66.4111 34.0276C66.4341 34.0089 66.4568 33.99 66.4793 33.9708C66.5023 33.9512 66.5251 33.9312 66.5475 33.911C66.5706 33.8903 66.5933 33.8693 66.6157 33.848C66.6388 33.8261 66.6615 33.8039 66.6839 33.7815C66.7071 33.7582 66.7298 33.7348 66.7522 33.711C66.7753 33.6864 66.798 33.6614 66.8204 33.6362C66.8436 33.6099 66.8663 33.5834 66.8886 33.5565C66.9119 33.5285 66.9346 33.5001 66.9568 33.4714C66.9801 33.4413 67.003 33.411 67.0251 33.3802C67.0485 33.3475 67.0711 33.3142 67.0933 33.2806C67.1167 33.245 67.1395 33.2089 67.1615 33.1724C67.1851 33.1332 67.2079 33.0934 67.2297 33.0531C67.2534 33.0092 67.2763 32.9648 67.2979 32.9198C67.3221 32.8694 67.3448 32.8182 67.3661 32.7663C67.3907 32.7068 67.4135 32.6465 67.4344 32.585C67.46 32.5093 67.4827 32.4321 67.5026 32.3536C67.5317 32.2387 67.5545 32.1209 67.5708 32.0001C67.5906 31.8536 67.601 31.7031 67.601 31.5484C67.601 31.3977 67.5907 31.2514 67.5708 31.1093C67.5545 30.9925 67.5316 30.8787 67.5026 30.7679C67.4827 30.6924 67.4599 30.6183 67.4344 30.5456C67.4135 30.4861 67.3907 30.4273 67.3661 30.3697C67.3448 30.3198 67.322 30.2706 67.2979 30.2222C67.2763 30.1786 67.2535 30.1357 67.2297 30.0933C67.2078 30.0544 67.1851 30.0158 67.1615 29.9779C67.1396 29.9427 67.1167 29.908 67.0933 29.8738C67.0711 29.8414 67.0485 29.8093 67.0251 29.7778C67.003 29.748 66.9801 29.7188 66.9568 29.6898C66.9346 29.6621 66.9119 29.6347 66.8886 29.6077C66.8663 29.5817 66.8436 29.556 66.8204 29.5307C66.798 29.5063 66.7754 29.4822 66.7522 29.4585C66.7299 29.4355 66.7071 29.413 66.6839 29.3906C66.6615 29.3689 66.6388 29.3476 66.6157 29.3264C66.5933 29.3059 66.5705 29.2857 66.5475 29.2657C66.5251 29.2463 66.5023 29.227 66.4793 29.208C66.4568 29.1895 66.4341 29.1712 66.4111 29.1531C66.3886 29.1355 66.3658 29.118 66.3428 29.1008C66.3203 29.084 66.2976 29.0674 66.2746 29.051C66.2521 29.0349 66.2293 29.019 66.2064 29.0033C66.1839 28.988 66.1611 28.9728 66.1382 28.9578C66.1156 28.9431 66.0929 28.9285 66.0699 28.9142C66.0474 28.9002 66.0247 28.8863 66.0018 28.8726C65.9792 28.8591 65.9565 28.8459 65.9335 28.8328C65.9109 28.8199 65.8882 28.8072 65.8653 28.7947C65.8428 28.7824 65.82 28.7702 65.7971 28.7583C65.7745 28.7464 65.7517 28.7348 65.7288 28.7232C65.7063 28.7118 65.6835 28.7006 65.6606 28.6895C65.638 28.6786 65.6153 28.6678 65.5924 28.6571C65.5698 28.6467 65.547 28.6365 65.5242 28.6264C65.5016 28.6164 65.4788 28.6066 65.4559 28.5969C65.4333 28.5873 65.4106 28.5779 65.3878 28.5685C65.3651 28.5593 65.3425 28.5501 65.3195 28.5412C65.2969 28.5324 65.2742 28.5237 65.2513 28.5151C65.2287 28.5067 65.2059 28.4986 65.1831 28.4904C65.1605 28.4823 65.1377 28.4744 65.1149 28.4666C65.0922 28.4588 65.0695 28.4511 65.0466 28.4436C65.024 28.4362 65.0013 28.4289 64.9784 28.4218C64.9558 28.4147 64.933 28.4079 64.9102 28.4011L64.8419 28.3812C64.8193 28.3748 64.7966 28.3683 64.7738 28.3621C64.7511 28.356 64.7283 28.3501 64.7055 28.3443C64.6829 28.3384 64.6602 28.3328 64.6373 28.3272C64.6146 28.3216 64.5919 28.3161 64.5691 28.3108C64.5465 28.3056 64.5237 28.3005 64.5009 28.2955C64.4783 28.2905 64.4555 28.2857 64.4326 28.281C64.41 28.2763 64.3873 28.2715 64.3644 28.2671L64.2962 28.2541L64.228 28.2421C64.2053 28.2381 64.1826 28.2342 64.1598 28.2305L64.0916 28.2199C64.0689 28.2165 64.0461 28.2133 64.0233 28.2101L63.9551 28.2008L63.8869 28.1923L63.8186 28.1847L63.7504 28.1775L63.6822 28.1713L63.614 28.1656L63.551 28.1608L63.551 28.0796L63.614 28.0698L63.6822 28.0587C63.705 28.0548 63.7278 28.0509 63.7504 28.0468L63.8186 28.0338C63.8415 28.0293 63.8643 28.0246 63.8869 28.0199L63.9551 28.0051C63.9779 28 64.0008 27.9948 64.0233 27.9894C64.0462 27.9839 64.0689 27.9782 64.0916 27.9725C64.1145 27.9667 64.1371 27.9606 64.1598 27.9546C64.1826 27.9484 64.2054 27.9421 64.228 27.9356C64.2508 27.9291 64.2736 27.9225 64.2962 27.9158C64.319 27.9089 64.3419 27.9018 64.3644 27.8946C64.3873 27.8873 64.41 27.8798 64.4326 27.8722C64.4556 27.8645 64.4783 27.8566 64.5009 27.8486C64.5238 27.8406 64.5465 27.8324 64.5691 27.8239C64.592 27.8154 64.6148 27.8068 64.6373 27.7979C64.6602 27.789 64.6829 27.7799 64.7055 27.7706C64.7285 27.7612 64.7512 27.7516 64.7738 27.7418C64.7967 27.7319 64.8194 27.7218 64.8419 27.7115C64.8649 27.7011 64.8876 27.6905 64.9102 27.6797C64.9331 27.6687 64.9559 27.6576 64.9784 27.6463C65.0013 27.6348 65.0241 27.6231 65.0466 27.6112C65.0696 27.5992 65.0924 27.5869 65.1149 27.5745C65.1378 27.5618 65.1606 27.5489 65.1831 27.5359C65.206 27.5226 65.2288 27.509 65.2513 27.4953C65.2743 27.4813 65.297 27.4672 65.3195 27.4528C65.3425 27.4382 65.3652 27.4232 65.3878 27.4081C65.4108 27.3926 65.4335 27.377 65.4559 27.3611C65.479 27.3448 65.5017 27.3283 65.5242 27.3117C65.5473 27.2945 65.57 27.2772 65.5924 27.2597C65.6154 27.2416 65.6382 27.2234 65.6606 27.2049C65.6837 27.1858 65.7064 27.1664 65.7288 27.1468C65.752 27.1266 65.7747 27.1061 65.7971 27.0854C65.8202 27.064 65.843 27.0423 65.8653 27.0204C65.8884 26.9977 65.9112 26.9748 65.9335 26.9516C65.9567 26.9273 65.9795 26.9029 66.0018 26.878C66.025 26.8522 66.0477 26.826 66.0699 26.7995C66.0932 26.7719 66.116 26.7438 66.1382 26.7154C66.1615 26.6855 66.1843 26.6552 66.2064 26.6245C66.2298 26.592 66.2526 26.5591 66.2746 26.5258C66.2981 26.4904 66.3209 26.4545 66.3428 26.4182C66.3665 26.3788 66.3893 26.339 66.4111 26.2988C66.435 26.2545 66.4577 26.2096 66.4793 26.1643C66.5035 26.1133 66.5262 26.0616 66.5475 26.0094C66.5723 25.9485 66.595 25.8868 66.6157 25.8243C66.6417 25.7458 66.6645 25.6659 66.6839 25.585C66.7154 25.4539 66.7382 25.3199 66.7522 25.1837C66.7633 25.0762 66.769 24.9673 66.769 24.8573C66.769 24.7411 66.7632 24.6279 66.7522 24.5174C66.7381 24.3762 66.7152 24.2399 66.6839 24.1083C66.6644 24.0261 66.6416 23.9457 66.6157 23.8673C66.5949 23.8046 66.5722 23.7431 66.5475 23.6828C66.5262 23.6309 66.5035 23.5798 66.4793 23.5297C66.4577 23.485 66.4349 23.4411 66.4111 23.3978C66.3892 23.3582 66.3665 23.3193 66.3428 23.2808C66.3208 23.2452 66.2981 23.21 66.2746 23.1755C66.2526 23.143 66.2298 23.1112 66.2064 23.0797C66.1843 23.0499 66.1615 23.0206 66.1382 22.9917C66.1159 22.964 66.0933 22.9367 66.0699 22.9098C66.0477 22.8842 66.0249 22.8591 66.0018 22.8343C65.9795 22.8103 65.9567 22.7868 65.9335 22.7635C65.9112 22.741 65.8884 22.7189 65.8653 22.697C65.8429 22.6759 65.8202 22.6549 65.7971 22.6344C65.7747 22.6144 65.7519 22.5947 65.7288 22.5753C65.7064 22.5564 65.6837 22.5378 65.6606 22.5194C65.6382 22.5016 65.6154 22.4839 65.5924 22.4665C65.5699 22.4496 65.5472 22.4329 65.5242 22.4164C65.5017 22.4003 65.479 22.3845 65.4559 22.3688C65.4334 22.3535 65.4108 22.3385 65.3878 22.3236C65.3652 22.309 65.3425 22.2946 65.3195 22.2805C65.297 22.2666 65.2742 22.253 65.2513 22.2395C65.2288 22.2262 65.206 22.2132 65.1831 22.2003C65.1606 22.1877 65.1378 22.1752 65.1149 22.163C65.0923 22.1509 65.0696 22.1391 65.0466 22.1274C65.0241 22.1159 65.0013 22.1045 64.9784 22.0934C64.9558 22.0824 64.9331 22.0714 64.9102 22.0608C64.8876 22.0503 64.8648 22.0399 64.8419 22.0298C64.8194 22.0198 64.7967 22.0102 64.7738 22.0004C64.7512 21.9909 64.7284 21.9815 64.7055 21.9722C64.6829 21.9632 64.6602 21.9542 64.6373 21.9454C64.6147 21.9366 64.592 21.928 64.5691 21.9196C64.5465 21.9113 64.5238 21.9031 64.5009 21.8951C64.4783 21.8872 64.4555 21.8795 64.4326 21.8718C64.41 21.8643 64.3873 21.857 64.3644 21.8497C64.3418 21.8425 64.3191 21.8355 64.2962 21.8286C64.2735 21.8217 64.2509 21.8149 64.228 21.8083C64.2054 21.8018 64.1826 21.7956 64.1598 21.7894C64.1371 21.7832 64.1144 21.7773 64.0916 21.7714L64.0233 21.7542C64.0006 21.7486 63.978 21.7431 63.9551 21.7379C63.9325 21.7326 63.9097 21.7276 63.8869 21.7226L63.8186 21.7082C63.796 21.7036 63.7733 21.6988 63.7504 21.6945C63.7278 21.6901 63.705 21.686 63.6822 21.6819L63.614 21.67C63.5913 21.6662 63.5687 21.6623 63.5458 21.6587L63.4776 21.6484L63.4093 21.6389L63.3411 21.6299L63.2729 21.6219L63.2047 21.6146L63.1364 21.6078L63.0682 21.6018L63 21.5966L62.9318 21.5918L62.8636 21.5879L62.8365 21.5864L62.7953 21.5838L62.7271 21.5798L62.6589 21.5761L62.5907 21.5725L62.5224 21.5693L62.4543 21.5664L62.386 21.5639L62.3178 21.5618L62.2496 21.5603L62.1813 21.5594L62.1437 21.5593H62.1131H62.0449H61.9767H61.9084H61.8403H61.772H61.7038H61.6356H61.5674H61.4991H61.4309H61.3627H61.2944H61.2263H61.158H61.0898H61.0216H60.9534H60.8851H60.8169H60.7487H60.6805H60.6123H60.544H60.4758H60.4076H60.3394H60.2711H60.2029H60.1347H60.0665H59.9983H59.9301H59.8618H59.7936H59.7254H59.6571H59.5889H59.5207H59.4525H59.3843H59.3161H59.2478H59.1796H59.1114H59.0432H58.9749H58.9068H58.8385H58.7703H58.7021H58.6338H58.5656H58.4974H58.4292H58.361H58.2928H58.2245H58.1563H58.0881H58.0199H57.9516H57.8834H57.8152H57.747H57.6788H57.6105H57.5423H57.4741H57.4059H57.3376H57.2694H57.2012H57.133H57.0648H56.9965H56.9283H56.8601H56.7919H56.7236H56.6555H56.5872H56.519H56.4508H56.3826H56.3143H56.2461H56.1779H56.1096H56.0415H55.9732H55.905H55.8368H55.7686H55.7003H55.6321H55.5639H55.4957H55.4275H55.3593H55.291H55.2228H55.1546H55.0863H55.0181H54.9499H54.8817H54.8135H54.7453H54.677H54.6088H54.5406H54.4724H54.4041H54.3359H54.2677H54.1995H54.1313H54.063H53.9948H53.9266H53.8584H53.7901H53.722H53.6537H53.5855H53.5173H53.449H53.3808H53.3126H53.2444H53.1761H53.108H53.0397H52.9715H52.9033H52.8351H52.7668H52.6986H52.6304H52.5621H52.494H52.4257H52.3575H52.2893H52.1421V14.27C52.1421 13.7796 52.1929 13.301 52.2893 12.839C52.31 12.7401 52.3328 12.642 52.3575 12.5447C52.3787 12.4614 52.4016 12.3787 52.4257 12.2967C52.4473 12.2234 52.47 12.1506 52.494 12.0784C52.5158 12.0123 52.5384 11.9466 52.5621 11.8815C52.5841 11.8211 52.6068 11.761 52.6304 11.7013C52.6525 11.6456 52.6752 11.5902 52.6986 11.5352C52.7208 11.4834 52.7435 11.4317 52.7668 11.3804C52.789 11.3317 52.8118 11.2834 52.8351 11.2353C52.8572 11.1894 52.8801 11.1439 52.9033 11.0986C52.9255 11.055 52.9484 11.0118 52.9715 10.9687C52.9938 10.9272 53.0166 10.886 53.0397 10.845C53.0621 10.8052 53.0848 10.7658 53.108 10.7266C53.1304 10.6885 53.153 10.6506 53.1761 10.613C53.1986 10.5766 53.2213 10.5404 53.2444 10.5044C53.2667 10.4696 53.2896 10.435 53.3126 10.4006C53.3351 10.3669 53.3578 10.3333 53.3808 10.3C53.4034 10.2674 53.4259 10.2348 53.449 10.2025C53.4715 10.1713 53.4944 10.1405 53.5173 10.1097C53.5397 10.0793 53.5626 10.0492 53.5855 10.0193C53.6081 9.98984 53.6306 9.96025 53.6537 9.93116C53.6762 9.90286 53.6991 9.875 53.722 9.84704C53.7445 9.81947 53.7672 9.79212 53.7901 9.76494C53.8128 9.7381 53.8354 9.71126 53.8584 9.68476C53.8808 9.65893 53.9037 9.63354 53.9266 9.60805C53.9493 9.58278 53.9718 9.55746 53.9948 9.53252C54.0173 9.5081 54.0402 9.4839 54.063 9.45975C54.0856 9.43594 54.1084 9.4123 54.1313 9.38877C54.1539 9.36558 54.1765 9.34239 54.1995 9.31948C54.222 9.29696 54.2449 9.27478 54.2677 9.2526C54.2904 9.23053 54.3129 9.20824 54.3359 9.18651C54.3584 9.16523 54.3814 9.14445 54.4041 9.12345C54.4268 9.10256 54.4494 9.08161 54.4724 9.061C54.4949 9.04073 54.5178 9.02085 54.5406 9.00092C54.5633 8.9811 54.5859 8.96128 54.6088 8.94173C54.6314 8.92247 54.6542 8.90349 54.677 8.88451C54.6997 8.8657 54.7224 8.84695 54.7453 8.82842C54.7679 8.81005 54.7906 8.79192 54.8135 8.77389L54.8817 8.7206L54.9499 8.66872C54.9726 8.6517 54.9953 8.6348 55.0181 8.61807C55.0408 8.6015 55.0635 8.58499 55.0863 8.56865L55.1546 8.52053C55.1772 8.50475 55.1999 8.48908 55.2228 8.47358L55.291 8.42771L55.3593 8.38306C55.3819 8.36841 55.4046 8.35381 55.4275 8.33943L55.4957 8.29709C55.5184 8.28311 55.541 8.26913 55.5639 8.25543C55.5865 8.24184 55.6094 8.22864 55.6321 8.21533C55.6549 8.20203 55.6774 8.1886 55.7003 8.17558C55.7229 8.16272 55.7458 8.15031 55.7686 8.13767C55.7913 8.12504 55.8139 8.11218 55.8368 8.09983C55.8594 8.08764 55.8823 8.07585 55.905 8.06389C55.9277 8.05193 55.9504 8.03991 55.9732 8.02817C55.9958 8.01655 56.0187 8.00526 56.0415 7.99392C56.0641 7.98263 56.0869 7.97129 56.1096 7.96023L56.1779 7.92749C56.2006 7.91677 56.2234 7.90632 56.2461 7.89582C56.2689 7.88538 56.2915 7.87476 56.3143 7.86454C56.3369 7.85444 56.3598 7.84478 56.3826 7.83489C56.4053 7.82501 56.4279 7.81496 56.4508 7.8053C56.4734 7.79576 56.4963 7.78666 56.519 7.77734C56.5417 7.76807 56.5644 7.75869 56.5872 7.74965L56.6555 7.72298L56.7236 7.69721C56.7464 7.68867 56.769 7.68002 56.7919 7.67177C56.8145 7.66357 56.8373 7.65588 56.8601 7.6479C56.8829 7.63993 56.9055 7.63179 56.9283 7.62404C56.9509 7.61634 56.9738 7.6091 56.9965 7.60163L57.0648 7.57968C57.0875 7.57249 57.1102 7.56525 57.133 7.55828C57.1556 7.55138 57.1785 7.54486 57.2012 7.53818C57.2239 7.53144 57.2466 7.52448 57.2694 7.51802C57.2921 7.51162 57.3149 7.50567 57.3376 7.49949C57.3604 7.49331 57.383 7.48708 57.4059 7.48113L57.4741 7.46361C57.4968 7.45794 57.5195 7.45255 57.5423 7.4471C57.5651 7.44165 57.5877 7.43581 57.6105 7.43059C57.6331 7.42542 57.656 7.42071 57.6788 7.41571L57.747 7.40094L57.8152 7.38696C57.8378 7.38247 57.8607 7.37825 57.8834 7.37399C57.9062 7.36966 57.9288 7.36506 57.9516 7.36096C57.9743 7.35686 57.9972 7.35338 58.0199 7.34956L58.0881 7.33833C58.1108 7.33474 58.1335 7.33103 58.1563 7.32766C58.179 7.32429 58.2018 7.32131 58.2245 7.31817C58.2473 7.31503 58.2699 7.3116 58.2928 7.30868C58.3154 7.30576 58.3382 7.30318 58.361 7.30048L58.4292 7.29273C58.4519 7.29026 58.4746 7.28751 58.4974 7.28526C58.5201 7.28302 58.5429 7.28128 58.5656 7.27926L58.6338 7.27325L58.7021 7.26814C58.7247 7.26651 58.7475 7.26522 58.7703 7.26381C58.793 7.26247 58.8157 7.26073 58.8385 7.25955C58.8612 7.25837 58.884 7.25769 58.9068 7.25674L58.9749 7.25421C58.9977 7.25348 59.0204 7.25253 59.0432 7.25202C59.0659 7.25152 59.0887 7.25146 59.1114 7.25112C59.1341 7.25079 59.1568 7.25039 59.1796 7.25028L59.1968 7.25006H59.2478H59.3161H59.3843H59.4525H59.5207H59.5889H59.6571H59.7254H59.7936H59.8618H59.9301H59.9983H60.0665H60.1347H60.2029H60.2711H60.3394H60.4076H60.4758H60.544H60.6123H60.6805H60.7487H60.8169H60.8851H60.9534H61.0216H61.0898H61.158H61.2263H61.2944H61.3627H61.4309H61.4991H61.5674H61.6356H61.7038H61.772H61.8403H61.9084H61.9767H62.0449H62.1131H62.1813H62.2496H62.3178H62.386H62.4543H62.5224H62.5907H62.6589H62.7271H62.7953H62.8636H62.9318H63H63.0682H63.1364H63.2047H63.2729H63.3411H63.4093H63.4776H63.5458H63.614H63.6822H63.7504H63.8186H63.8869H63.9551H64.0233H64.0916H64.1598H64.228H64.2962H64.3644H64.4326H64.5009H64.5691H64.6373H64.7055H64.7738H64.8419H64.9102H64.9784H65.0466H65.1149H65.1831H65.2513H65.3195H65.3878H65.4559H65.5242H65.5924H65.6606H65.7288H65.7971H65.8653H65.9335H66.0018H66.0699H66.1382H66.2064H66.2746H66.3428H66.4111H66.4793H66.5475H66.6157H66.6839H66.7522H66.8204H66.8886H66.9568H67.0251H67.0933H67.1615H67.2297H67.2979H67.3661H67.4344H67.5026H67.5708H67.6391H67.7073H67.7755H67.8437H67.9119H67.9801H68.0484H68.1166H68.1848H68.253H68.3213H68.3894H68.4577H68.5259H68.5942H68.6624H68.7306H68.7988H68.8671H68.9352H69.0035H69.0717H69.1399H69.2081H69.2764H69.3446H69.4128H69.481H69.5492V7.25V7.25Z" fill="#54B230"/>
<path fill-rule="evenodd" clip-rule="evenodd" d="M13.0347 31.6055V14.2699C13.0347 13.7809 13.0851 13.3036 13.1809 12.8428C13.2015 12.7439 13.2244 12.6458 13.2491 12.5485C13.2702 12.4651 13.293 12.3824 13.3172 12.3002C13.3387 12.227 13.3614 12.1543 13.3852 12.0821C13.4071 12.016 13.4296 11.9502 13.4534 11.885C13.4754 11.8246 13.4979 11.7646 13.5214 11.705C13.5434 11.6493 13.5662 11.5937 13.5896 11.5387C13.6117 11.4868 13.6344 11.4353 13.6577 11.3841C13.6798 11.3354 13.7026 11.2871 13.7257 11.239C13.7479 11.1931 13.7707 11.1475 13.7939 11.1021C13.8161 11.0586 13.8388 11.0153 13.8619 10.9723C13.8842 10.9308 13.907 10.8896 13.93 10.8486C13.9524 10.8089 13.975 10.7694 13.9982 10.7302C14.0205 10.6921 14.0431 10.6542 14.0662 10.6166C14.0886 10.5802 14.1114 10.5441 14.1344 10.5081C14.1566 10.4733 14.1795 10.4387 14.2024 10.4043C14.2249 10.3706 14.2475 10.337 14.2705 10.3037C14.2931 10.2711 14.3155 10.2384 14.3387 10.2061C14.361 10.175 14.3839 10.1442 14.4067 10.1134C14.4292 10.0831 14.4519 10.053 14.4749 10.023C14.4974 9.9936 14.5199 9.96395 14.5429 9.93486C14.5653 9.90662 14.5882 9.87882 14.611 9.85091C14.6335 9.82334 14.6562 9.79588 14.6792 9.76865C14.7017 9.74186 14.7243 9.71514 14.7472 9.68869C14.7697 9.6628 14.7925 9.63736 14.8154 9.61181C14.8379 9.58649 14.8605 9.56122 14.8834 9.53629C14.9059 9.51186 14.9287 9.48777 14.9515 9.46368C14.9741 9.43982 14.9968 9.41617 15.0197 9.39265C15.0422 9.36946 15.0648 9.34626 15.0877 9.32335C15.1102 9.30084 15.1331 9.27866 15.1559 9.25647C15.1785 9.23441 15.201 9.21217 15.2239 9.19044C15.2464 9.16916 15.2693 9.14838 15.292 9.12738C15.3147 9.10643 15.3372 9.08543 15.3602 9.06482C15.3827 9.04461 15.4055 9.02479 15.4282 9.00485C15.4509 8.98503 15.4735 8.96515 15.4964 8.94561C15.5189 8.92635 15.5417 8.90742 15.5644 8.88844C15.587 8.86963 15.6097 8.85082 15.6325 8.83229C15.6551 8.81399 15.6779 8.79585 15.7007 8.77777C15.7233 8.75985 15.7459 8.74211 15.7687 8.72448C15.7913 8.70701 15.8141 8.68977 15.8369 8.67259C15.8595 8.65558 15.8822 8.63862 15.905 8.62188L15.973 8.57258C15.9956 8.55635 16.0183 8.54024 16.0412 8.52429C16.0637 8.50851 16.0865 8.4929 16.1092 8.4774C16.1319 8.46196 16.1545 8.44663 16.1773 8.43147C16.1999 8.41648 16.2227 8.40171 16.2455 8.38694C16.2681 8.37228 16.2907 8.35751 16.3135 8.34308C16.3361 8.32882 16.3589 8.31489 16.3817 8.30086C16.4043 8.28687 16.4269 8.27272 16.4497 8.25902C16.4722 8.24549 16.4951 8.23235 16.5178 8.21904C16.5405 8.20573 16.5631 8.1922 16.586 8.17911C16.6085 8.16626 16.6314 8.15396 16.654 8.14132C16.6768 8.12869 16.6993 8.11589 16.7222 8.10348C16.7447 8.09123 16.7675 8.07944 16.7902 8.06748C16.8129 8.05552 16.8355 8.0435 16.8583 8.03177C16.8809 8.02014 16.9037 8.00875 16.9265 7.99735L16.9945 7.96377C17.0172 7.9527 17.0399 7.94164 17.0627 7.93086C17.0853 7.92014 17.108 7.90975 17.1307 7.89925C17.1535 7.88875 17.176 7.87802 17.1988 7.8678C17.2214 7.85764 17.2442 7.84809 17.267 7.83821C17.2896 7.82832 17.3122 7.81827 17.335 7.80861C17.3576 7.79907 17.3804 7.78986 17.4032 7.78054L17.4712 7.75291L17.5393 7.72607L17.6075 7.70035C17.6302 7.69182 17.6527 7.683 17.6755 7.67469C17.6981 7.66649 17.721 7.65885 17.7437 7.65088C17.7663 7.64291 17.789 7.63482 17.8117 7.62707L17.8798 7.60444L17.948 7.58248C17.9706 7.5753 17.9932 7.56794 18.016 7.56098C18.0386 7.55407 18.0614 7.5475 18.0841 7.54082C18.1068 7.53408 18.1295 7.52723 18.1522 7.52072C18.1749 7.51426 18.1976 7.50825 18.2203 7.50202L18.2885 7.48365C18.3111 7.4777 18.3337 7.47164 18.3565 7.46591C18.3792 7.46018 18.4019 7.45496 18.4246 7.44946C18.4473 7.44395 18.47 7.43823 18.4927 7.43295C18.5154 7.42773 18.5381 7.42284 18.5608 7.41784L18.629 7.40313C18.6516 7.3983 18.6742 7.39342 18.697 7.38887C18.7197 7.38438 18.7424 7.38022 18.7651 7.3759C18.7878 7.37157 18.8105 7.36708 18.8332 7.36298C18.8559 7.35888 18.8786 7.35518 18.9013 7.3513L18.9695 7.34007C18.9921 7.33648 19.0147 7.3326 19.0375 7.32918C19.0602 7.32575 19.0829 7.32289 19.1056 7.31969C19.1283 7.31654 19.151 7.31317 19.1737 7.3102L19.2418 7.30172L19.31 7.29402C19.3327 7.2915 19.3552 7.28858 19.378 7.28628C19.4007 7.28397 19.4234 7.28229 19.4461 7.28021L19.5142 7.27426C19.5369 7.27235 19.5596 7.2705 19.5823 7.26887C19.605 7.26724 19.6277 7.26595 19.6505 7.26454C19.6732 7.26314 19.6958 7.26151 19.7185 7.26028C19.7412 7.25904 19.7639 7.2582 19.7866 7.25719L19.8547 7.2546C19.8774 7.25382 19.9 7.25264 19.9228 7.25208C19.9454 7.25152 19.9682 7.25157 19.9909 7.25124C20.0136 7.2509 20.0363 7.25051 20.059 7.25039L20.1271 7.25H20.1952H20.2633H20.3314H20.3995H20.4676H20.5357H20.6038H20.6719H20.74H20.8081H20.8763H20.9443H21.0124H21.0805H21.1486H21.2168H21.2848H21.3529H21.421H21.4891H21.5573H21.6253H21.6934H21.7615H21.8296H21.8978H21.9658H22.0339H22.102H22.1701H22.2383H22.3063H22.3744H22.4425H22.5106H22.5787H22.6468H22.7149H22.783H22.8511H22.9192H22.9873H23.0554H23.1235H23.1916H23.2597H23.3278H23.3959H23.464H23.5321H23.6002H23.6683H23.7364H23.8045H23.8726H23.9407H24.0088H24.0769H24.145H24.2131H24.2812H24.3493H24.4174H24.4855H24.5536H24.6217H24.6898H24.7579H24.826H24.8941H24.9622H25.0303H25.0984H25.1665H25.2346H25.3027H25.3708H25.4389H25.507H25.5751H25.6432H25.7113H25.7794H25.8475H25.9156H25.9837H26.0518H26.1199H26.188H26.2561H26.3242H26.3923H26.4604H26.5285H26.5966H26.6647H26.7328H26.8009H26.869H26.9371H27.0052H27.0733H27.1414H27.2095H27.2776H27.3457H27.4138H27.4819H27.55H27.6181H27.6862H27.7543H27.8224H27.8905H27.9586H28.0267H28.0948H28.1629H28.231H28.2991H28.3672H28.4353H28.5034H28.5715H28.6396H28.7077H28.7758H28.8439H28.912H28.9801H29.0482H29.1163H29.1844H29.2525H29.3206H29.3887H29.4568H29.5249H29.593H29.6611H29.7292H29.7973H29.8654H29.9335H30.0016H30.0697H30.1378H30.2059H30.274H30.3421H30.4102H30.468V42.347C30.468 42.6523 30.4483 42.953 30.4102 43.2481C30.3919 43.3901 30.3688 43.5307 30.3421 43.6699C30.3217 43.7758 30.2991 43.881 30.274 43.9851C30.2529 44.0729 30.2302 44.16 30.2059 44.2465C30.1844 44.3224 30.1617 44.3977 30.1378 44.4724C30.1161 44.5401 30.0934 44.6074 30.0697 44.6742C30.0478 44.736 30.0252 44.7975 30.0016 44.8585C29.9796 44.9155 29.9569 44.9721 29.9335 45.0284C29.9115 45.0814 29.8887 45.1341 29.8654 45.1864C29.8433 45.236 29.8205 45.2853 29.7973 45.3344C29.7751 45.3812 29.7524 45.4276 29.7292 45.4738C29.7069 45.5182 29.6843 45.5623 29.6611 45.606C29.6388 45.6482 29.6161 45.6902 29.593 45.7318C29.5706 45.7722 29.5481 45.8123 29.5249 45.8521C29.5026 45.8905 29.4799 45.9287 29.4568 45.9667C29.4345 46.0034 29.4117 46.0397 29.3887 46.076C29.3663 46.1114 29.3436 46.1466 29.3206 46.1816C29.2981 46.2158 29.2756 46.25 29.2525 46.2837C29.2301 46.3164 29.2073 46.349 29.1844 46.3813C29.162 46.4129 29.1392 46.4443 29.1163 46.4755C29.0938 46.5062 29.0712 46.5368 29.0482 46.5672C29.0258 46.5968 29.003 46.6262 28.9801 46.6555C28.9576 46.6841 28.9348 46.7124 28.912 46.7406C28.8894 46.7685 28.8669 46.7964 28.8439 46.824C28.8215 46.8509 28.7986 46.8774 28.7758 46.904C28.7533 46.9301 28.7306 46.9561 28.7077 46.9819C28.6851 47.0074 28.6626 47.033 28.6396 47.0582C28.6172 47.0828 28.5943 47.1069 28.5715 47.1312C28.5489 47.1553 28.5264 47.1795 28.5034 47.2032C28.4809 47.2265 28.4581 47.2495 28.4353 47.2725C28.4127 47.2953 28.3901 47.3178 28.3672 47.3403C28.3447 47.3625 28.322 47.3845 28.2991 47.4064C28.2766 47.4279 28.2538 47.4491 28.231 47.4703C28.2084 47.4914 28.1858 47.5125 28.1629 47.5333C28.1404 47.5537 28.1176 47.5737 28.0948 47.5938C28.0721 47.6138 28.0497 47.634 28.0267 47.6537C28.0043 47.6731 27.9813 47.6919 27.9586 47.711C27.936 47.73 27.9134 47.7492 27.8905 47.768C27.868 47.7864 27.8452 47.8044 27.8224 47.8225C27.7997 47.8406 27.7772 47.8588 27.7543 47.8766C27.7318 47.8941 27.7089 47.9112 27.6862 47.9284C27.6635 47.9456 27.641 47.9629 27.6181 47.9798C27.5956 47.9965 27.5727 48.0127 27.55 48.0292C27.5273 48.0455 27.5048 48.062 27.4819 48.0781C27.4594 48.094 27.4366 48.1095 27.4138 48.125C27.3911 48.1406 27.3686 48.1564 27.3457 48.1718C27.3232 48.1868 27.3004 48.2015 27.2776 48.2163C27.2549 48.2311 27.2324 48.2462 27.2095 48.2608C27.187 48.2751 27.1641 48.2889 27.1414 48.303C27.1187 48.3171 27.0962 48.3314 27.0733 48.3452C27.0507 48.3589 27.0279 48.3721 27.0052 48.3855C26.9825 48.3988 26.96 48.4123 26.9371 48.4255C26.9145 48.4384 26.8918 48.4511 26.869 48.4639C26.8464 48.4766 26.8237 48.4892 26.8009 48.5017C26.7783 48.514 26.7556 48.5263 26.7328 48.5383L26.6647 48.574C26.642 48.5858 26.6194 48.5975 26.5966 48.609C26.574 48.6204 26.5513 48.6315 26.5285 48.6427C26.5058 48.6538 26.4833 48.6652 26.4604 48.6761C26.4379 48.6869 26.415 48.6972 26.3923 48.7077C26.3696 48.7183 26.3471 48.729 26.3242 48.7394C26.3016 48.7496 26.2788 48.7593 26.2561 48.7693L26.188 48.7989L26.1199 48.8276C26.0973 48.837 26.0745 48.8461 26.0518 48.8553C26.0291 48.8644 26.0065 48.8737 25.9837 48.8827C25.9611 48.8915 25.9384 48.8997 25.9156 48.9083C25.8929 48.9169 25.8703 48.9257 25.8475 48.934C25.8249 48.9423 25.8021 48.9503 25.7794 48.9584L25.7113 48.9822L25.6432 49.0054C25.6206 49.0129 25.5978 49.0201 25.5751 49.0273C25.5524 49.0346 25.5298 49.0422 25.507 49.0493C25.4844 49.0563 25.4616 49.0627 25.4389 49.0695L25.3708 49.0896L25.3027 49.1089C25.2801 49.1152 25.2574 49.1211 25.2346 49.1272C25.2119 49.1333 25.1893 49.1397 25.1665 49.1455C25.1439 49.1512 25.121 49.1564 25.0984 49.162C25.0757 49.1675 25.0531 49.1731 25.0303 49.1785L24.9622 49.194L24.8941 49.2088C24.8714 49.2137 24.8488 49.2189 24.826 49.2236C24.8034 49.2282 24.7806 49.2321 24.7579 49.2365C24.7352 49.2409 24.7126 49.2453 24.6898 49.2495L24.6217 49.2616C24.5991 49.2656 24.5764 49.2691 24.5536 49.2728C24.5309 49.2765 24.5083 49.2806 24.4855 49.284C24.4629 49.2875 24.4401 49.2904 24.4174 49.2937L24.3493 49.3032C24.3267 49.3062 24.304 49.3093 24.2812 49.3121C24.2586 49.3149 24.2358 49.3173 24.2131 49.3199C24.1904 49.3225 24.1678 49.3253 24.145 49.3276C24.1224 49.33 24.0996 49.332 24.0769 49.3341L24.0088 49.3401C23.9861 49.342 23.9635 49.3444 23.9407 49.3461C23.9181 49.3478 23.8953 49.3489 23.8726 49.3504L23.8045 49.3546L23.7364 49.3582C23.7138 49.3593 23.691 49.36 23.6683 49.3608C23.6456 49.3616 23.6229 49.3627 23.6002 49.3634C23.5776 49.364 23.5548 49.3642 23.5321 49.3647L23.464 49.3655C23.443 49.3657 23.422 49.3663 23.4009 49.3663H23.3278H23.2597H23.1916H23.1235H23.0554H22.9873H22.9192H22.8511H22.783H22.7149H22.6468H22.5787H22.5106H22.4425H22.3744H22.3063H22.2383H22.1701H22.102H22.0339H21.9658H21.8978H21.8296H21.7615H21.6934H21.6253H21.5573H21.4891H21.421H21.3529H21.2848H21.2168H21.1486H21.0805H21.0124H20.9443H20.8763H20.8081H20.74H20.6719H20.6038H20.5357H20.4676H20.3995H20.3314H20.2633H20.1952H20.1271H20.059H19.9909H19.9228H19.8547H19.7866H19.7185H19.6505H19.5823H19.5142H19.4461H19.378H19.31H19.2418H19.1737H19.1056H19.0375H18.9695H18.9013H18.8332H18.7651H18.697H18.629H18.5608H18.4927H18.4246H18.3565H18.2885H18.2203H18.1522H18.0841H18.016H17.948H17.8798H17.8117H17.7437H17.6755H17.6075H17.5393H17.4712H17.4032H17.335H17.267H17.1988H17.1307H17.0627H16.9945H16.9265H16.8583H16.7902H16.7222H16.654H16.586H16.5178H16.4497H16.3817H16.3135H16.2455H16.1773H16.1092H16.0412H15.973H15.905H15.8369H15.7687H15.7007H15.6325H15.5644H15.4964H15.4282H15.3602H15.292H15.2239H15.1559H15.0877H15.0197H14.9515H14.8834H14.8154H14.7472H14.6792H14.611H14.5429H14.4749H14.4067H14.3387H14.2705H14.2024H14.1344H14.0662H13.9982H13.93H13.8619H13.7939H13.7257H13.6577H13.5896H13.5214H13.4534H13.3852H13.3172H13.2491H13.1809H13.0347V34.5733C13.0347 34.5733 13.085 34.5871 13.1809 34.6111L13.2491 34.628L13.3172 34.6445L13.3852 34.6607L13.4534 34.6767L13.5214 34.6925L13.5896 34.708L13.6577 34.7232L13.7257 34.7383L13.7939 34.7531L13.8619 34.7678L13.93 34.7822L13.9982 34.7965L14.0662 34.8106L14.1344 34.8244L14.2024 34.8381L14.2705 34.8516L14.3387 34.865L14.4067 34.8781L14.4749 34.8912L14.5429 34.904L14.611 34.9167L14.6792 34.9292L14.7472 34.9416L14.8154 34.9537L14.8834 34.9658L14.9515 34.9777L15.0197 34.9894L15.0877 35.0009L15.1559 35.0123L15.2239 35.0235L15.292 35.0347L15.3602 35.0456L15.4282 35.0564L15.4964 35.0671L15.5644 35.0776L15.6325 35.0879L15.7007 35.0981L15.7687 35.1082L15.8369 35.118L15.905 35.1278L15.973 35.1374L16.0412 35.1469L16.1092 35.1562L16.1773 35.1654L16.2455 35.1744L16.3135 35.1832L16.3817 35.192L16.4497 35.2005L16.5178 35.209L16.586 35.2173L16.654 35.2255L16.7222 35.2334L16.7902 35.2413L16.8583 35.2489L16.9265 35.2566L16.9945 35.264L17.0627 35.2712L17.1307 35.2784L17.1988 35.2853L17.267 35.2922L17.335 35.2989L17.4032 35.3054L17.4712 35.3119L17.5393 35.3181L17.6075 35.3243L17.6755 35.3301L17.7437 35.336L17.8117 35.3417L17.8798 35.3472L17.948 35.3526L18.016 35.3577L18.0841 35.3629L18.1522 35.3678L18.2203 35.3725L18.2885 35.3773L18.3565 35.3816L18.4246 35.386L18.4927 35.3902L18.5608 35.3942L18.629 35.3982L18.697 35.4018L18.7651 35.4054L18.8332 35.4089L18.9013 35.4121L18.9695 35.4153L19.0375 35.4182L19.1056 35.4211L19.1737 35.4239L19.2418 35.4262L19.31 35.4286L19.378 35.4309L19.4461 35.4328L19.5142 35.4349L19.5823 35.4366L19.6505 35.4381L19.7185 35.4396L19.7866 35.4408L19.8547 35.4419L19.9228 35.4429L19.9909 35.4436L20.059 35.4443L20.1271 35.4448L20.1952 35.445L20.2633 35.4452L20.3314 35.4451L20.3995 35.4446L20.4676 35.4442L20.5357 35.4439L20.6038 35.4435L20.6719 35.4422L20.74 35.441L20.8081 35.4398L20.8763 35.4385L20.9443 35.4368L21.0124 35.4347L21.0805 35.4326L21.1486 35.4305L21.2168 35.4283L21.2848 35.4253L21.3529 35.4223L21.421 35.4193L21.4891 35.4163L21.5573 35.4126L21.6253 35.4087L21.6934 35.4048L21.7615 35.4008L21.8296 35.3963L21.8978 35.3915L21.9658 35.3866L22.0339 35.3817L22.102 35.3764L22.1701 35.3705L22.2383 35.3647L22.3063 35.3588L22.3744 35.3524L22.4425 35.3455L22.5106 35.3387L22.5787 35.3318L22.6468 35.3242L22.7149 35.3163L22.783 35.3084L22.8511 35.3004L22.9192 35.2916L22.9873 35.2826L23.0554 35.2735L23.1235 35.2643C23.1465 35.2611 23.1688 35.2575 23.1916 35.2542L23.2597 35.244L23.3278 35.2338L23.3959 35.2231C23.4188 35.2194 23.4413 35.2154 23.464 35.2117L23.5321 35.2003C23.5547 35.1965 23.5778 35.1928 23.6002 35.1889C23.6232 35.1849 23.6455 35.1805 23.6683 35.1764L23.7364 35.1638L23.8045 35.1511L23.8726 35.1379C23.8955 35.1334 23.918 35.1285 23.9407 35.1239L24.0088 35.11L24.0769 35.0959C24.0999 35.091 24.1222 35.0857 24.145 35.0806L24.2131 35.0654C24.2357 35.0602 24.2588 35.0554 24.2812 35.0502C24.3042 35.0448 24.3265 35.0391 24.3493 35.0336L24.4174 35.017C24.44 35.0114 24.4631 35.006 24.4855 35.0004C24.5084 34.9946 24.531 34.9885 24.5536 34.9826L24.6217 34.9645C24.6444 34.9585 24.6674 34.9526 24.6898 34.9464C24.7127 34.9402 24.7352 34.9336 24.7579 34.9272L24.826 34.9076C24.8487 34.9011 24.8717 34.8947 24.8941 34.888L24.9622 34.8673L25.0303 34.846C25.053 34.839 25.076 34.8321 25.0984 34.8248L25.1665 34.8023L25.2346 34.7794C25.2572 34.7717 25.2804 34.7643 25.3027 34.7565C25.3257 34.7484 25.3481 34.7401 25.3708 34.7319L25.4389 34.7073C25.4616 34.6989 25.4845 34.6907 25.507 34.6822C25.53 34.6736 25.5524 34.6646 25.5751 34.6558C25.5979 34.647 25.6208 34.6382 25.6432 34.6293L25.7113 34.6018L25.7794 34.5734C25.802 34.5639 25.8252 34.5547 25.8475 34.545C25.8706 34.5351 25.8928 34.5247 25.9156 34.5146L25.9837 34.4842L26.0518 34.4527C26.0747 34.442 26.0973 34.4311 26.1199 34.4202C26.1426 34.4093 26.1657 34.3985 26.188 34.3874C26.2111 34.376 26.2334 34.3642 26.2561 34.3526C26.2789 34.3411 26.3018 34.3296 26.3242 34.3179C26.3472 34.3058 26.3697 34.2935 26.3923 34.2813C26.4152 34.269 26.4379 34.2567 26.4604 34.2442C26.4833 34.2315 26.506 34.2187 26.5285 34.2058C26.5515 34.1928 26.5741 34.1794 26.5966 34.1661C26.6194 34.1527 26.6423 34.1393 26.6647 34.1257C26.6877 34.1117 26.7102 34.0976 26.7328 34.0834C26.7556 34.0692 26.7785 34.055 26.8009 34.0406C26.8239 34.0258 26.8464 34.0105 26.869 33.9955C26.8918 33.9803 26.9147 33.9652 26.9371 33.9498C26.9602 33.934 26.9826 33.9179 27.0052 33.9018C27.028 33.8856 27.051 33.8694 27.0733 33.853C27.0964 33.8361 27.1189 33.819 27.1414 33.8019C27.1643 33.7845 27.1871 33.7671 27.2095 33.7495C27.2325 33.7315 27.2551 33.7132 27.2776 33.6949C27.3006 33.6762 27.3233 33.6573 27.3457 33.6383C27.3686 33.619 27.3915 33.5998 27.4138 33.5802C27.437 33.56 27.4594 33.5394 27.4819 33.5189C27.5048 33.4981 27.5277 33.4774 27.55 33.4564C27.5731 33.4345 27.5957 33.4124 27.6181 33.3903C27.6411 33.3676 27.6638 33.3447 27.6862 33.3218C27.7091 33.2983 27.7321 33.2749 27.7543 33.2511C27.7775 33.2262 27.7999 33.2011 27.8224 33.1759C27.8455 33.15 27.8682 33.1239 27.8905 33.0976C27.9135 33.0706 27.9364 33.0436 27.9586 33.0162C27.9817 32.9877 28.0045 32.9592 28.0267 32.9304C28.0499 32.9003 28.0725 32.8698 28.0948 32.8393C28.118 32.8075 28.1406 32.7755 28.1629 32.7433C28.1862 32.7097 28.2088 32.6758 28.231 32.6417C28.2542 32.606 28.277 32.57 28.2991 32.5338C28.3224 32.4955 28.3452 32.457 28.3672 32.4181C28.3906 32.377 28.4133 32.3355 28.4353 32.2938C28.4588 32.2491 28.4815 32.2041 28.5034 32.1588C28.5271 32.11 28.5497 32.0608 28.5715 32.0114C28.5952 31.9576 28.618 31.9034 28.6396 31.8488C28.6635 31.7885 28.6863 31.7278 28.7077 31.6665C28.732 31.597 28.7546 31.5268 28.7758 31.4559C28.8006 31.3732 28.8232 31.2896 28.8439 31.2052C28.8696 31.1004 28.8924 30.9945 28.912 30.8874C28.9412 30.728 28.9637 30.5661 28.9801 30.402C29.003 30.1732 29.0141 29.9403 29.0141 29.7037V21.5594H28.912H28.8439H28.7758H28.7077H28.6396H28.5715H28.5034H28.4353H28.3672H28.2991H28.231H28.1629H28.0948H28.0267H27.9586H27.8905H27.8224H27.7543H27.6862H27.6181H27.55H27.4819H27.4138H27.3457H27.2776H27.2095H27.1414H27.0733H27.0052H26.9371H26.869H26.8009H26.7328H26.6647H26.5966H26.5285H26.4604H26.3923H26.3242H26.2561H26.188H26.1199H26.0518H25.9837H25.9156H25.8475H25.7794H25.7113H25.6432H25.5751H25.507H25.4389H25.3708H25.3027H25.2346H25.1665H25.0984H25.0303H24.9622H24.8941H24.826H24.7579H24.6898H24.6217H24.5536H24.4855H24.4174H24.3493H24.2812H24.2131H24.145H24.0769H24.0088H23.9407H23.8726H23.8045H23.7364H23.6683H23.6002H23.5321H23.464H23.3959H23.3278H23.2597H23.1916H23.1235H23.0554H22.9873L22.9357 29.7037C22.9357 29.8311 22.9301 29.9566 22.9192 30.0796C22.9053 30.2364 22.8825 30.3891 22.8511 30.5377C22.8317 30.6295 22.809 30.7195 22.783 30.8079C22.7624 30.8784 22.7397 30.9476 22.7149 31.0158C22.6938 31.0738 22.671 31.1308 22.6468 31.1871C22.6253 31.2373 22.6026 31.2867 22.5787 31.3354C22.5569 31.3798 22.5344 31.4237 22.5106 31.4667C22.4888 31.5064 22.466 31.5452 22.4425 31.5838C22.4205 31.62 22.3979 31.6557 22.3744 31.6909C22.3524 31.724 22.3296 31.7565 22.3063 31.7887C22.2842 31.8193 22.2616 31.8496 22.2383 31.8795C22.2161 31.9078 22.1933 31.9355 22.1701 31.963C22.1479 31.9893 22.1252 32.0153 22.102 32.041C22.0798 32.0657 22.0571 32.0901 22.0339 32.1141C22.0116 32.1372 21.989 32.1601 21.9658 32.1826C21.9435 32.2044 21.9208 32.2259 21.8978 32.247C21.8754 32.2675 21.8526 32.2875 21.8296 32.3074C21.8073 32.3267 21.7846 32.3457 21.7615 32.3644C21.7392 32.3826 21.7164 32.4005 21.6934 32.4182C21.671 32.4354 21.6483 32.4523 21.6253 32.4691C21.6029 32.4853 21.5802 32.5014 21.5573 32.5172C21.5348 32.5326 21.5121 32.5478 21.4891 32.5628C21.4667 32.5774 21.444 32.5918 21.421 32.6059C21.3986 32.6197 21.3759 32.6333 21.3529 32.6467C21.3305 32.6598 21.3077 32.6726 21.2848 32.6853C21.2624 32.6977 21.2397 32.7097 21.2168 32.7218C21.1942 32.7336 21.1716 32.7451 21.1486 32.7564C21.1261 32.7675 21.1034 32.7785 21.0805 32.7893C21.058 32.7998 21.0354 32.8103 21.0124 32.8205C20.9898 32.8305 20.9672 32.8404 20.9443 32.85C20.9219 32.8594 20.8991 32.8685 20.8763 32.8775C20.8537 32.8865 20.831 32.8952 20.8081 32.9037C20.7856 32.9121 20.7629 32.9204 20.74 32.9285C20.7175 32.9364 20.6948 32.9443 20.6719 32.9519C20.6494 32.9594 20.6267 32.9667 20.6038 32.9738C20.5813 32.9809 20.5585 32.9876 20.5357 32.9943C20.5132 33.0009 20.4905 33.0074 20.4676 33.0136C20.445 33.0198 20.4224 33.0261 20.3995 33.0319C20.377 33.0377 20.3542 33.0432 20.3314 33.0487C20.3089 33.0541 20.2862 33.0592 20.2633 33.0643C20.2408 33.0693 20.2181 33.0742 20.1952 33.0789C20.1726 33.0836 20.15 33.0882 20.1271 33.0925C20.1046 33.0968 20.0818 33.1007 20.059 33.1047C20.0364 33.1087 20.0137 33.1126 19.9909 33.1162L19.9228 33.1266C19.9003 33.1298 19.8775 33.1328 19.8547 33.1358C19.8321 33.1388 19.8095 33.1417 19.7866 33.1443L19.7185 33.1518C19.696 33.1541 19.6732 33.1562 19.6505 33.1582C19.6278 33.1603 19.6052 33.1623 19.5823 33.1641C19.5598 33.1658 19.537 33.1673 19.5142 33.1688C19.4916 33.1703 19.4689 33.1715 19.4461 33.1727C19.4234 33.1738 19.4009 33.175 19.378 33.1759C19.3555 33.1768 19.3327 33.1773 19.31 33.178L19.2418 33.1796C19.2193 33.18 19.1965 33.1801 19.1737 33.1803L19.1056 33.1803L19.0375 33.1799L18.9695 33.1789L18.9013 33.1775L18.8332 33.1757L18.7651 33.1735L18.697 33.1708L18.629 33.1676L18.5608 33.1642L18.4927 33.1601L18.4246 33.1558L18.3565 33.151L18.2885 33.1457L18.2203 33.14L18.1522 33.134L18.0841 33.1275L18.016 33.1206L17.948 33.1133L17.8798 33.1056L17.8117 33.0974L17.7437 33.0888L17.6755 33.0799L17.6075 33.0705L17.5393 33.0606L17.4712 33.0505L17.4032 33.04L17.335 33.029L17.267 33.0176L17.1988 33.0059L17.1307 32.9937L17.0627 32.9811L16.9945 32.9682L16.9265 32.9549L16.8583 32.9411L16.7902 32.9271L16.7222 32.9126L16.654 32.8977L16.586 32.8825L16.5178 32.8669L16.4497 32.8509L16.3817 32.8345L16.3135 32.8178L16.2455 32.8008L16.1773 32.7831L16.1092 32.7653L16.0412 32.7471L15.973 32.7285L15.905 32.7096L15.8369 32.6903L15.7687 32.6707L15.7007 32.6506L15.6325 32.6302L15.5644 32.6096L15.4964 32.5884L15.4282 32.567L15.3602 32.5453L15.292 32.5232L15.2239 32.5007L15.1559 32.4779L15.0877 32.4547L15.0197 32.4313L14.9515 32.4074L14.8834 32.3832L14.8154 32.3588L14.7472 32.3339L14.6792 32.3087L14.611 32.2833L14.5429 32.2575L14.4749 32.2313L14.4067 32.2049L14.3387 32.1781L14.2705 32.151L14.2024 32.1236L14.1344 32.0958L14.0662 32.0678L13.9982 32.0394L13.93 32.0107L13.8619 31.9817L13.7939 31.9525L13.7257 31.9227L13.6577 31.8929L13.5896 31.8627L13.5214 31.8322L13.4534 31.8014L13.3852 31.7703L13.3172 31.7389L13.2491 31.7072L13.1809 31.6752C13.1321 31.6521 13.0834 31.629 13.0347 31.6055Z" fill="#006CB9"/>
<path fill-rule="evenodd" clip-rule="evenodd" d="M32.7351 23.339C32.6854 23.3788 32.6366 23.419 32.5889 23.4598V14.27C32.5889 13.7813 32.6394 13.3042 32.7351 12.8436C32.7557 12.7447 32.7785 12.6467 32.8032 12.5494C32.8244 12.4659 32.8472 12.3831 32.8713 12.3008C32.8928 12.2276 32.9156 12.1548 32.9394 12.0825C32.9612 12.0165 32.9838 11.9508 33.0075 11.8856C33.0294 11.8253 33.0521 11.7652 33.0756 11.7056C33.0977 11.6499 33.1203 11.5945 33.1437 11.5394C33.1658 11.4876 33.1885 11.436 33.2118 11.3847C33.2339 11.3361 33.2568 11.2877 33.2799 11.2396C33.3021 11.1937 33.3249 11.1482 33.348 11.1029C33.3702 11.0593 33.393 11.016 33.4161 10.973C33.4384 10.9315 33.4612 10.8903 33.4842 10.8493C33.5066 10.8096 33.5292 10.77 33.5524 10.7308C33.5747 10.6928 33.5973 10.6549 33.6204 10.6172C33.6428 10.5809 33.6655 10.5448 33.6885 10.5089C33.7109 10.474 33.7337 10.4395 33.7566 10.405C33.7791 10.3712 33.8017 10.3377 33.8247 10.3044C33.8473 10.2717 33.8698 10.239 33.8929 10.2068C33.9152 10.1756 33.9381 10.1449 33.9609 10.1141C33.9834 10.0838 34.0061 10.0536 34.0291 10.0237C34.0516 9.99422 34.0741 9.96468 34.0971 9.93559C34.1195 9.90735 34.1425 9.87949 34.1653 9.85159C34.1878 9.82401 34.2105 9.79656 34.2334 9.76938C34.2559 9.74254 34.2785 9.71581 34.3015 9.68936C34.3239 9.66353 34.3468 9.63803 34.3696 9.61254C34.3921 9.58727 34.4147 9.56189 34.4377 9.5369C34.4602 9.51248 34.4829 9.48833 34.5057 9.46424C34.5282 9.44043 34.551 9.41679 34.5738 9.39326C34.5964 9.37007 34.619 9.34688 34.6419 9.32397C34.6644 9.30151 34.6872 9.27933 34.71 9.25715C34.7327 9.23508 34.7552 9.21284 34.7781 9.19105C34.8006 9.16977 34.8235 9.14899 34.8462 9.12799C34.8688 9.10705 34.8914 9.08605 34.9144 9.06544C34.9369 9.04522 34.9597 9.02534 34.9824 9.00541C35.0051 8.98553 35.0277 8.96571 35.0506 8.94617C35.0731 8.92691 35.0959 8.90798 35.1186 8.889C35.1413 8.87019 35.1639 8.85138 35.1868 8.83279C35.2093 8.81449 35.2321 8.79635 35.2549 8.77833C35.2775 8.76041 35.3002 8.74261 35.323 8.72498C35.3456 8.70757 35.3683 8.69033 35.3911 8.67315C35.4137 8.65614 35.4364 8.63918 35.4591 8.62244C35.4817 8.60582 35.5045 8.58943 35.5273 8.57308C35.5499 8.55691 35.5726 8.54074 35.5954 8.52479C35.618 8.50901 35.6407 8.49346 35.6635 8.4779C35.6861 8.46246 35.7088 8.44708 35.7316 8.43191C35.7541 8.41692 35.7769 8.40215 35.7997 8.38739C35.8223 8.37267 35.8449 8.35796 35.8678 8.34353C35.8904 8.32927 35.9131 8.31534 35.9359 8.3013C35.9586 8.28732 35.9812 8.27317 36.004 8.25947C36.0266 8.24588 36.0494 8.23274 36.0721 8.21943C36.0949 8.20612 36.1174 8.19253 36.1402 8.17951C36.1627 8.16665 36.1857 8.15429 36.2083 8.14166C36.2311 8.12902 36.2536 8.11628 36.2764 8.10392C36.299 8.09168 36.3218 8.07989 36.3445 8.06787C36.3672 8.05591 36.3898 8.04389 36.4126 8.03216L36.4807 7.99774L36.5488 7.9641C36.5715 7.95309 36.5941 7.94198 36.6169 7.93119C36.6395 7.92047 36.6623 7.91008 36.6851 7.89958C36.7078 7.88914 36.7303 7.87835 36.7531 7.86813C36.7757 7.85797 36.7985 7.84842 36.8213 7.83854C36.8439 7.82866 36.8666 7.81861 36.8893 7.80895C36.912 7.7994 36.9347 7.79014 36.9574 7.78082L37.0256 7.75319C37.0482 7.74415 37.0708 7.73511 37.0936 7.72629C37.1162 7.71753 37.139 7.70911 37.1618 7.70057C37.1845 7.69204 37.207 7.68322 37.2298 7.67491C37.2524 7.66671 37.2753 7.65907 37.298 7.6511C37.3207 7.64313 37.3433 7.63504 37.3661 7.62729C37.3887 7.61954 37.4115 7.61213 37.4342 7.60466L37.5023 7.58271C37.5249 7.57552 37.5476 7.56816 37.5704 7.56114C37.593 7.55424 37.6158 7.54772 37.6385 7.54104C37.6612 7.5343 37.6838 7.5274 37.7066 7.52088C37.7292 7.51442 37.752 7.50842 37.7747 7.50218L37.8428 7.48382C37.8655 7.47787 37.8881 7.4718 37.9109 7.46608C37.9335 7.4604 37.9563 7.45507 37.979 7.44957C38.0017 7.44406 38.0243 7.43834 38.0471 7.43306C38.0697 7.42784 38.0925 7.42295 38.1152 7.41795L38.1833 7.40324C38.2061 7.39847 38.2286 7.39353 38.2514 7.38898C38.274 7.38443 38.2968 7.38033 38.3195 7.37601C38.3422 7.37168 38.3648 7.36713 38.3876 7.36303L38.4557 7.35135L38.5238 7.34018C38.5466 7.33653 38.5692 7.33266 38.592 7.32923C38.6146 7.3258 38.6374 7.32294 38.66 7.31974C38.6827 7.3166 38.7054 7.31328 38.7281 7.31031L38.7962 7.30183L38.8643 7.29408C38.8871 7.29155 38.9097 7.28863 38.9325 7.28633C38.9551 7.28403 38.9779 7.28234 39.0005 7.28026L39.0687 7.27431C39.0913 7.2724 39.114 7.27055 39.1367 7.26892C39.1594 7.26729 39.1822 7.266 39.2048 7.2646C39.2276 7.26319 39.2502 7.26156 39.273 7.26033C39.2956 7.25909 39.3184 7.25825 39.3411 7.25724L39.4092 7.25466C39.4319 7.25387 39.4545 7.25269 39.4773 7.25213C39.4999 7.25157 39.5227 7.25163 39.5454 7.25129C39.5681 7.25095 39.5908 7.25056 39.6135 7.25045L39.6435 7.25005H39.6816H39.7497H39.8178H39.8859H39.954H40.0221H40.0902H40.1583H40.2264H40.2945H40.3627H40.4307H40.4988H40.5669H40.635H40.7032H40.7712H40.8394H40.9074H40.9755H41.0437H41.1117H41.1799H41.2479H41.3161H41.3842H41.4523H41.5204H41.5885H41.6566H41.7247H41.7928H41.8609H41.929H41.9971H42.0652H42.1333H42.2014H42.2695H42.3376H42.4057H42.4738H42.5419H42.6101H42.6781H42.7462H42.8143H42.8824H42.9506H43.0186H43.0868H43.1549H43.223H43.2911H43.3591H43.4273H43.4954H43.5635H43.6316H43.6997H43.7678H43.8359H43.904H43.9721H44.0402H44.1083H44.1764H44.2445H44.3126H44.3808H44.4488H44.5169H44.585H44.6531H44.7213H44.7893H44.8575H44.9255H44.9937H45.0618H45.1298H45.198H45.266H45.3342H45.4023H45.4704H45.5385H45.6066H45.6747H45.7428H45.8109H45.879H45.9471H46.0152H46.0833H46.1514H46.2195H46.2876H46.3557H46.4238H46.4919H46.56H46.6282H46.6962H46.7644H46.8324H46.9005H46.9687H47.0367H47.1049H47.173H47.2411H47.3092H47.3773H47.4454H47.5135H47.5816H47.6497H47.7178H47.7859H47.854H47.9221H47.9902H48.0583H48.1264H48.1945H48.2626H48.3307H48.3989H48.4669H48.5351H48.6031H48.6712H48.7394H48.8074H48.8756H48.9436H49.0118H49.0799H49.1479H49.2161H49.2841H49.3523H49.4204H49.4885H49.5566H49.6247H49.6928H49.7609H49.829H49.8971H49.9652H50.0229V42.347C50.0229 42.6522 50.0033 42.9527 49.9652 43.2477C49.9469 43.3897 49.9239 43.5302 49.8971 43.6694C49.8768 43.7753 49.8541 43.8805 49.829 43.9847C49.8078 44.0725 49.7853 44.1597 49.7609 44.2462C49.7394 44.322 49.7167 44.3973 49.6928 44.4721C49.6711 44.5399 49.6483 44.607 49.6247 44.6738C49.6028 44.7357 49.5801 44.7972 49.5566 44.8582C49.5346 44.9151 49.512 44.9717 49.4885 45.028C49.4664 45.081 49.4437 45.1337 49.4204 45.186C49.3982 45.2357 49.3755 45.2849 49.3523 45.3339C49.3301 45.3808 49.3074 45.4273 49.2841 45.4735C49.2619 45.5178 49.2392 45.5619 49.2161 45.6057C49.1937 45.6479 49.1711 45.6899 49.1479 45.7316C49.1255 45.7719 49.103 45.8121 49.0799 45.8519C49.0576 45.8902 49.0348 45.9284 49.0118 45.9663C48.9894 46.0031 48.9667 46.0394 48.9436 46.0757C48.9213 46.1111 48.8986 46.1463 48.8756 46.1812C48.8531 46.2154 48.8306 46.2497 48.8074 46.2834C48.785 46.3162 48.7623 46.3486 48.7394 46.381C48.717 46.4126 48.6942 46.4439 48.6712 46.4752C48.6487 46.5059 48.6261 46.5366 48.6031 46.5669C48.5807 46.5965 48.558 46.6258 48.5351 46.6551C48.5126 46.6837 48.4898 46.712 48.4669 46.7403C48.4444 46.7682 48.4219 46.7961 48.3989 46.8236C48.3764 46.8505 48.3536 46.8771 48.3307 46.9037C48.3082 46.9299 48.2855 46.9558 48.2626 46.9816C48.24 47.0071 48.2175 47.0326 48.1945 47.0578C48.1721 47.0824 48.1492 47.1066 48.1264 47.1309C48.1038 47.155 48.0813 47.1792 48.0583 47.203C48.0358 47.2263 48.013 47.2492 47.9902 47.2722C47.9677 47.2949 47.945 47.3175 47.9221 47.34C47.8996 47.3621 47.8769 47.3841 47.854 47.406C47.8315 47.4276 47.8087 47.4488 47.7859 47.47C47.7633 47.4911 47.7407 47.5123 47.7178 47.5331C47.6953 47.5535 47.6725 47.5734 47.6497 47.5935C47.627 47.6136 47.6045 47.6338 47.5816 47.6535C47.5591 47.6729 47.5362 47.6918 47.5135 47.7108C47.4908 47.7298 47.4683 47.749 47.4454 47.7677C47.4229 47.7862 47.4 47.8041 47.3773 47.8222C47.3546 47.8403 47.3321 47.8585 47.3092 47.8763C47.2867 47.8939 47.2638 47.9109 47.2411 47.9282C47.2184 47.9453 47.1959 47.9626 47.173 47.9796C47.1504 47.9963 47.1276 48.0126 47.1049 48.029C47.0822 48.0453 47.0596 48.0619 47.0367 48.0779C47.0142 48.0938 46.9914 48.1092 46.9687 48.1248C46.946 48.1404 46.9234 48.1562 46.9005 48.1715C46.878 48.1866 46.8552 48.2012 46.8324 48.2161C46.8098 48.2309 46.7873 48.246 46.7644 48.2605C46.7418 48.2749 46.7189 48.2887 46.6962 48.3028C46.6736 48.3169 46.651 48.3312 46.6282 48.345C46.6056 48.3586 46.5828 48.3718 46.56 48.3853C46.5374 48.3986 46.5147 48.4121 46.4919 48.4252C46.4693 48.4382 46.4466 48.451 46.4238 48.4637L46.3557 48.5015L46.2876 48.5382L46.2195 48.5738C46.1969 48.5856 46.1742 48.5973 46.1514 48.6089C46.1288 48.6203 46.1061 48.6313 46.0833 48.6425C46.0606 48.6537 46.0381 48.6651 46.0152 48.676C45.9927 48.6867 45.9698 48.697 45.9471 48.7076C45.9244 48.7181 45.9018 48.7289 45.879 48.7392C45.8564 48.7494 45.8336 48.7592 45.8109 48.7692L45.7428 48.7988L45.6747 48.8275L45.6066 48.8551C45.5839 48.8643 45.5613 48.8736 45.5385 48.8825C45.5159 48.8914 45.4931 48.8996 45.4704 48.9082C45.4477 48.9168 45.4251 48.9256 45.4023 48.9339C45.3796 48.9422 45.3569 48.9502 45.3342 48.9582L45.266 48.9821L45.198 49.0052C45.1754 49.0128 45.1526 49.0199 45.1298 49.0272C45.1071 49.0345 45.0845 49.0421 45.0618 49.0492C45.0392 49.0562 45.0164 49.0626 44.9937 49.0694L44.9255 49.0895L44.8575 49.1088C44.8348 49.1151 44.8121 49.1211 44.7893 49.1271C44.7666 49.1332 44.7441 49.1396 44.7213 49.1454C44.6986 49.1512 44.6759 49.1564 44.6531 49.1619C44.6304 49.1675 44.6078 49.1731 44.585 49.1784L44.5169 49.194L44.4488 49.2087C44.4261 49.2136 44.4035 49.2188 44.3808 49.2235C44.3581 49.2281 44.3353 49.2321 44.3126 49.2365L44.2445 49.2494L44.1764 49.2616C44.1538 49.2655 44.1311 49.2691 44.1083 49.2728C44.0856 49.2765 44.063 49.2805 44.0402 49.284C44.0176 49.2875 43.9948 49.2904 43.9721 49.2937L43.904 49.3032C43.8813 49.3062 43.8586 49.3093 43.8359 49.3121C43.8133 49.3149 43.7905 49.3173 43.7678 49.3199C43.7451 49.3225 43.7225 49.3253 43.6997 49.3276C43.6771 49.33 43.6543 49.332 43.6316 49.3341L43.5635 49.3402C43.5408 49.3421 43.5182 49.3444 43.4954 49.3461C43.4728 49.3478 43.45 49.3489 43.4273 49.3504L43.3591 49.3547L43.2911 49.3583C43.2684 49.3593 43.2457 49.36 43.223 49.3608C43.2003 49.3616 43.1776 49.3627 43.1549 49.3634C43.1322 49.364 43.1095 49.3642 43.0868 49.3647L43.0186 49.3656C42.9974 49.3657 42.9763 49.3664 42.9551 49.3664H42.9506H42.8824H42.8143H42.7462H42.6781H42.6101H42.5419H42.4738H42.4057H42.3376H42.2695H42.2014H42.1333H42.0652H41.9971H41.929H41.8609H41.7928H41.7247H41.6566H41.5885H41.5204H41.4523H41.3842H41.3161H41.2479H41.1799H41.1117H41.0437H40.9755H40.9074H40.8394H40.7712H40.7032H40.635H40.5669H40.4988H40.4307H40.3627H40.2945H40.2264H40.1583H40.0902H40.0221H39.954H39.8859H39.8178H39.7497H39.6816H39.6135H39.5454H39.4773H39.4092H39.3411H39.273H39.2048H39.1367H39.0687H39.0005H38.9325H38.8643H38.7962H38.7281H38.66H38.592H38.5238H38.4557H38.3876H38.3195H38.2514H38.1833H38.1152H38.0471H37.979H37.9109H37.8428H37.7747H37.7066H37.6385H37.5704H37.5023H37.4342H37.3661H37.298H37.2298H37.1618H37.0936H37.0256H36.9574H36.8893H36.8213H36.7531H36.6851H36.6169H36.5488H36.4807H36.4126H36.3445H36.2764H36.2083H36.1402H36.0721H36.004H35.9359H35.8678H35.7997H35.7316H35.6635H35.5954H35.5273H35.4591H35.3911H35.323H35.2549H35.1868H35.1186H35.0506H34.9824H34.9144H34.8462H34.7781H34.71H34.6419H34.5738H34.5057H34.4377H34.3696H34.3015H34.2334H34.1653H34.0971H34.0291H33.9609H33.8929H33.8247H33.7566H33.6885H33.6204H33.5524H33.4842H33.4161H33.348H33.2799H33.2118H33.1437H33.0756H33.0075H32.9394H32.8713H32.8032H32.7351H32.5889V33.1595C32.6366 33.2001 32.6854 33.2403 32.7351 33.2801C32.7576 33.2982 32.7803 33.3162 32.8032 33.3341C32.8257 33.3517 32.8484 33.3693 32.8713 33.3867C32.8939 33.4039 32.9165 33.4211 32.9394 33.4382C32.9619 33.4548 32.9847 33.4713 33.0075 33.4878C33.03 33.5041 33.0528 33.5203 33.0756 33.5364C33.0982 33.5523 33.1208 33.5682 33.1437 33.584L33.2118 33.6303C33.2343 33.6454 33.2571 33.6604 33.2799 33.6754L33.348 33.7195C33.3706 33.734 33.3932 33.7484 33.4161 33.7627C33.4386 33.7768 33.4614 33.7907 33.4842 33.8046L33.5524 33.8458C33.575 33.8593 33.5976 33.8727 33.6204 33.886C33.6429 33.8992 33.6657 33.9121 33.6885 33.9251L33.7566 33.9635L33.8247 34.001L33.8929 34.0376C33.9155 34.0496 33.938 34.0617 33.9609 34.0736C33.9834 34.0854 34.0063 34.0969 34.0291 34.1085L34.0971 34.1428L34.1653 34.1765L34.2334 34.2092C34.256 34.2199 34.2786 34.2308 34.3015 34.2415L34.3696 34.2727L34.4377 34.3037L34.5057 34.3336L34.5738 34.3631L34.6419 34.392L34.71 34.4202L34.7781 34.4479L34.8462 34.4749L34.9144 34.5016L34.9824 34.5273C35.0051 34.5358 35.0277 34.5445 35.0506 34.5529L35.1186 34.5776C35.1413 34.5858 35.1639 34.5941 35.1868 34.6022C35.2093 34.6102 35.2322 34.6179 35.2549 34.6258L35.323 34.6493L35.3911 34.672C35.4137 34.6795 35.4362 34.6872 35.4591 34.6946C35.4817 34.702 35.5046 34.709 35.5273 34.7163L35.5954 34.7379L35.6635 34.7587L35.7316 34.7794L35.7997 34.7994L35.8678 34.8191L35.9359 34.8383L36.004 34.8573L36.0721 34.8757L36.1402 34.8937L36.2083 34.9115L36.2764 34.9286L36.3445 34.9457L36.4126 34.9621L36.4807 34.9785L36.5488 34.9941L36.6169 35.0096L36.6851 35.0246L36.7531 35.0394L36.8213 35.0539L36.8893 35.0678L36.9574 35.0818L37.0256 35.0951L37.0936 35.1083L37.1618 35.1211L37.2298 35.1335L37.298 35.1459L37.3661 35.1576L37.4342 35.1693L37.5023 35.1806L37.5704 35.1916L37.6385 35.2025L37.7066 35.2128L37.7747 35.2231L37.8428 35.233L37.9109 35.2426L37.979 35.2521L38.0471 35.2611L38.1152 35.27L38.1833 35.2786L38.2514 35.2869L38.3195 35.2952L38.3876 35.303L38.4557 35.3105L38.5238 35.3181L38.592 35.3251L38.66 35.332L38.7281 35.3388L38.7962 35.3451L38.8643 35.3515L38.9325 35.3574L39.0005 35.3632L39.0687 35.3689L39.1367 35.3741L39.2048 35.3792L39.273 35.3844L39.3411 35.3889L39.4092 35.3935L39.4773 35.398L39.5454 35.4019L39.6135 35.4058L39.6816 35.4097L39.7497 35.413L39.8178 35.4164L39.8859 35.4197L39.954 35.4225L40.0221 35.4253L40.0902 35.428L40.1583 35.4302L40.2264 35.4325L40.2945 35.4346L40.3627 35.4363L40.4307 35.438L40.4988 35.4397L40.5669 35.4409L40.635 35.442L40.7032 35.4432L40.7712 35.4438L40.8394 35.4445L40.9074 35.4451L40.9755 35.4454L41.0437 35.4455L41.1117 35.4456L41.1799 35.4454L41.2479 35.445L41.3161 35.4446L41.3842 35.4441L41.4523 35.4432L41.5204 35.4423L41.5885 35.4414L41.6566 35.44L41.7247 35.4386L41.7928 35.4372L41.8609 35.4355L41.929 35.4336L41.9971 35.4317L42.0652 35.4297L42.1333 35.4273L42.2014 35.425L42.2695 35.4227L42.3376 35.4199L42.4057 35.4171L42.4738 35.4143L42.5071 35.4129L42.5419 35.4112L42.6101 35.4079L42.6781 35.4043L42.7462 35.4006L42.8143 35.3965L42.8824 35.3924L42.9506 35.3878L43.0186 35.3832L43.0868 35.3782L43.1549 35.3732L43.223 35.3678L43.2911 35.3623L43.3591 35.3565L43.4273 35.3505L43.4954 35.3444L43.5635 35.338L43.6316 35.3315L43.6997 35.3247L43.7678 35.318L43.8359 35.3108L43.904 35.3035L43.9721 35.2961L44.0402 35.2884L44.1083 35.2806L44.1764 35.2726L44.2445 35.2645L44.3126 35.2562L44.3808 35.2477L44.4488 35.2391L44.5169 35.2304L44.585 35.2213L44.6531 35.2122L44.7213 35.203L44.7893 35.1935L44.8575 35.184L44.9255 35.1742L44.9937 35.1644L45.0618 35.1543L45.1298 35.1441L45.198 35.1338L45.266 35.1233L45.3342 35.1127L45.4023 35.1019L45.4704 35.0911L45.5385 35.0801L45.6066 35.0689L45.6747 35.0576L45.7428 35.0461L45.8109 35.0345L45.879 35.0228L45.9471 35.011L46.0152 34.9989L46.0833 34.9868L46.1514 34.9746L46.2195 34.9622L46.2876 34.9497L46.3557 34.937L46.4238 34.9242L46.4919 34.9113L46.56 34.8983L46.6282 34.8851L46.6962 34.8718L46.7644 34.8583L46.8324 34.8447L46.9005 34.831L46.9687 34.8172L47.0367 34.8031L47.1049 34.789L47.173 34.7748L47.2411 34.7604L47.3092 34.7459L47.3773 34.7312L47.4454 34.7163L47.5135 34.7013L47.5816 34.6862L47.6497 34.6709L47.7178 34.6554L47.7859 34.6397L47.854 34.6238L47.9221 34.6078L47.9902 34.5915L48.058 34.5749V31.6056L47.9902 31.6391L47.9221 31.6725L47.854 31.7055L47.7859 31.7383L47.7178 31.7709L47.6497 31.8031L47.5816 31.8349L47.5135 31.8664L47.4454 31.8976L47.3773 31.9285L47.3092 31.959L47.2411 31.9892L47.173 32.0189L47.1049 32.0484L47.0367 32.0775L46.9687 32.1063L46.9005 32.1347L46.8324 32.1628L46.7644 32.1904L46.6962 32.2177L46.6282 32.2446L46.56 32.2712L46.4919 32.2973L46.4238 32.3232L46.3557 32.3486L46.2876 32.3736L46.2195 32.3983L46.1514 32.4226L46.0833 32.4465L46.0152 32.47L45.9471 32.4931L45.879 32.5158L45.8109 32.5382L45.7428 32.5602L45.6747 32.5818L45.6066 32.603L45.5385 32.6238L45.4704 32.6443L45.4023 32.6644L45.3342 32.684L45.266 32.7033L45.198 32.7221L45.1298 32.7407L45.0618 32.7588L44.9937 32.7766L44.9255 32.7939L44.8575 32.8109L44.7893 32.8274L44.7213 32.8437L44.6531 32.8596L44.585 32.8749L44.5169 32.89L44.4488 32.9048L44.3808 32.9191L44.3126 32.9329L44.2445 32.9465L44.1764 32.9598L44.1083 32.9725L44.0402 32.9849L43.9721 32.997L43.904 33.0088L43.8359 33.02L43.7678 33.0309L43.6997 33.0416L43.6316 33.0518L43.5635 33.0616L43.4954 33.0711L43.4273 33.0802L43.3591 33.0889L43.2911 33.0974L43.223 33.1055L43.1549 33.1131L43.0868 33.1204L43.0186 33.1274L42.9506 33.1339L42.8824 33.1402L42.8143 33.1462L42.7462 33.1517L42.7049 33.1549L42.6781 33.1567L42.6101 33.1613L42.5419 33.1658L42.4738 33.1694L42.4057 33.1728L42.3376 33.176L42.2695 33.1782L42.2014 33.1804L42.1333 33.1818L42.0652 33.1828L41.9971 33.1837C41.9743 33.1838 41.9517 33.1835 41.929 33.1835L41.8609 33.1832L41.7928 33.1822L41.7247 33.1808L41.6566 33.179C41.6337 33.1783 41.6112 33.1772 41.5885 33.1763C41.5658 33.1754 41.543 33.1746 41.5204 33.1735L41.4523 33.1697L41.3842 33.1657L41.3161 33.161L41.2479 33.1557C41.2253 33.1538 41.2024 33.1522 41.1799 33.1502C41.157 33.1481 41.1345 33.1456 41.1117 33.1434L41.0437 33.1366L40.9755 33.1287L40.9074 33.1205L40.8394 33.1116L40.7712 33.102C40.7485 33.0987 40.7257 33.0955 40.7032 33.0919C40.6803 33.0884 40.6577 33.0845 40.635 33.0807C40.6123 33.077 40.5894 33.0735 40.5669 33.0695C40.544 33.0655 40.5215 33.061 40.4988 33.0568C40.4761 33.0526 40.4532 33.0486 40.4307 33.0442C40.4078 33.0397 40.3854 33.0348 40.3627 33.03C40.3399 33.0253 40.3171 33.0208 40.2945 33.0158C40.2717 33.0108 40.2491 33.0055 40.2264 33.0003L40.1583 32.9844C40.1355 32.9789 40.1128 32.973 40.0902 32.9673C40.0674 32.9615 40.0447 32.9558 40.0221 32.9498C39.9993 32.9437 39.9766 32.9374 39.954 32.9311C39.9312 32.9248 39.9084 32.9184 39.8859 32.9118C39.863 32.9051 39.8404 32.8982 39.8178 32.8913C39.795 32.8843 39.7723 32.8774 39.7497 32.8702C39.7269 32.8629 39.7042 32.8553 39.6816 32.8478C39.6589 32.8402 39.636 32.8327 39.6135 32.8249C39.5906 32.8169 39.5681 32.8087 39.5454 32.8005C39.5227 32.7922 39.4998 32.7841 39.4773 32.7756C39.4544 32.767 39.4318 32.758 39.4092 32.749C39.3864 32.7401 39.3636 32.7313 39.3411 32.7221C39.3181 32.7128 39.2956 32.7029 39.273 32.6933C39.2502 32.6836 39.2273 32.674 39.2048 32.664C39.1819 32.6538 39.1594 32.6433 39.1367 32.6328C39.114 32.6223 39.0912 32.6117 39.0687 32.6009C39.0458 32.5899 39.0231 32.5787 39.0005 32.5674C38.9777 32.556 38.955 32.5444 38.9325 32.5326C38.9097 32.5208 38.8868 32.509 38.8643 32.4969C38.8414 32.4845 38.8189 32.4716 38.7962 32.4589C38.7735 32.446 38.7506 32.4332 38.7281 32.42C38.7052 32.4066 38.6826 32.3929 38.66 32.3792C38.6371 32.3653 38.6145 32.351 38.592 32.3368C38.5692 32.3223 38.5462 32.308 38.5238 32.2932C38.5008 32.278 38.4784 32.2624 38.4557 32.2468C38.4328 32.2311 38.4101 32.2151 38.3876 32.199C38.3648 32.1827 38.3419 32.1663 38.3195 32.1496C38.2965 32.1324 38.274 32.1148 38.2514 32.0973C38.2285 32.0794 38.2058 32.0614 38.1833 32.0432C38.1605 32.0246 38.1376 32.0061 38.1152 31.9871C38.0922 31.9676 38.0696 31.9476 38.0471 31.9276C38.0241 31.9072 38.0015 31.8866 37.979 31.8657C37.9561 31.8444 37.9333 31.823 37.9109 31.8012C37.888 31.779 37.8651 31.7568 37.8428 31.734C37.8197 31.7105 37.7971 31.6866 37.7747 31.6625C37.7516 31.6379 37.729 31.6129 37.7066 31.5877C37.6835 31.5617 37.6608 31.5355 37.6385 31.509C37.6155 31.4817 37.5927 31.4541 37.5704 31.4262C37.5473 31.3974 37.5245 31.3682 37.5023 31.3386C37.4792 31.3081 37.4564 31.2773 37.4342 31.246C37.4111 31.2135 37.3883 31.1806 37.3661 31.1473C37.3429 31.1126 37.3202 31.0774 37.298 31.0419C37.2747 31.0046 37.252 30.9668 37.2298 30.9287C37.2065 30.8885 37.1839 30.8477 37.1618 30.8066C37.1383 30.763 37.1157 30.7187 37.0936 30.674C37.0702 30.6264 37.0474 30.5781 37.0256 30.5293C37.002 30.4768 36.9791 30.4238 36.9574 30.3699C36.9334 30.3103 36.9111 30.2495 36.8893 30.1882C36.8653 30.1202 36.8425 30.0514 36.8213 29.9813C36.7967 29.9 36.7739 29.8174 36.7531 29.7334C36.7273 29.6289 36.7048 29.5222 36.6851 29.4135C36.6557 29.2523 36.6329 29.0867 36.6169 28.9165C36.5986 28.72 36.5892 28.5176 36.5892 28.3093C36.5892 28.1009 36.5986 27.8984 36.6169 27.7018C36.6329 27.5316 36.6557 27.3658 36.6851 27.2046C36.7048 27.0959 36.7273 26.9889 36.7531 26.8844C36.7739 26.8004 36.7967 26.7178 36.8213 26.6365C36.8425 26.5664 36.8653 26.4974 36.8893 26.4294C36.9111 26.3681 36.9334 26.3073 36.9574 26.2477C36.9791 26.1937 37.002 26.1407 37.0256 26.0881C37.0474 26.0393 37.0702 25.991 37.0936 25.9434C37.1157 25.8987 37.1383 25.8544 37.1618 25.8107C37.1839 25.7696 37.2065 25.7288 37.2298 25.6886C37.252 25.6504 37.2747 25.6126 37.298 25.5753C37.3202 25.5397 37.3429 25.5046 37.3661 25.4698C37.3883 25.4365 37.4111 25.4037 37.4342 25.3711C37.4564 25.3398 37.4792 25.309 37.5023 25.2784C37.5245 25.2489 37.5473 25.2197 37.5704 25.1908C37.5927 25.1629 37.6155 25.1353 37.6385 25.108C37.6608 25.0815 37.6835 25.0552 37.7066 25.0293C37.729 25.0041 37.7516 24.979 37.7747 24.9543C37.7971 24.9304 37.8197 24.9063 37.8428 24.8828C37.8651 24.8601 37.888 24.8378 37.9109 24.8156C37.9333 24.7938 37.9561 24.7724 37.979 24.7511C38.0015 24.7303 38.0241 24.7095 38.0471 24.6891C38.0696 24.6692 38.0922 24.6492 38.1152 24.6297C38.1376 24.6107 38.1605 24.5921 38.1833 24.5736C38.2058 24.5553 38.2285 24.5373 38.2514 24.5194C38.274 24.5018 38.2965 24.4842 38.3195 24.467C38.3419 24.4503 38.3648 24.434 38.3876 24.4176C38.4101 24.4014 38.4328 24.3856 38.4557 24.3698C38.4784 24.3543 38.5008 24.3386 38.5238 24.3235C38.5462 24.3086 38.5692 24.2942 38.592 24.2798C38.6145 24.2655 38.6371 24.2513 38.66 24.2374C38.6826 24.2236 38.7052 24.21 38.7281 24.1965C38.7506 24.1833 38.7735 24.1705 38.7962 24.1577C38.8189 24.1449 38.8414 24.1321 38.8643 24.1197C38.8868 24.1075 38.9097 24.0957 38.9325 24.0839C38.955 24.0722 38.9777 24.0605 39.0005 24.0491C39.0231 24.0378 39.0458 24.0266 39.0687 24.0156C39.0912 24.0048 39.114 23.9942 39.1367 23.9837C39.1594 23.9732 39.1819 23.9627 39.2048 23.9525C39.2273 23.9425 39.2502 23.9329 39.273 23.9232C39.2956 23.9135 39.3181 23.9037 39.3411 23.8943C39.3636 23.8851 39.3864 23.8763 39.4092 23.8674C39.4318 23.8584 39.4544 23.8495 39.4773 23.8408C39.4998 23.8323 39.5227 23.8242 39.5454 23.8159C39.5681 23.8077 39.5906 23.7995 39.6135 23.7915C39.636 23.7837 39.6589 23.7761 39.6816 23.7685C39.7042 23.761 39.7269 23.7535 39.7497 23.7462C39.7723 23.739 39.795 23.732 39.8178 23.7251C39.8404 23.7182 39.863 23.7113 39.8859 23.7046L39.954 23.6853C39.9766 23.679 39.9993 23.6726 40.0221 23.6666C40.0447 23.6606 40.0674 23.6548 40.0902 23.649C40.1128 23.6433 40.1355 23.6375 40.1583 23.632L40.2264 23.6161C40.2491 23.6109 40.2717 23.6055 40.2945 23.6005C40.3171 23.5956 40.3399 23.591 40.3627 23.5863C40.3854 23.5816 40.4078 23.5766 40.4307 23.5721C40.4532 23.5677 40.4761 23.5637 40.4988 23.5595C40.5215 23.5553 40.544 23.5508 40.5669 23.5468C40.5894 23.5428 40.6123 23.5393 40.635 23.5356C40.6577 23.5318 40.6803 23.5279 40.7032 23.5244L40.7712 23.5143L40.8394 23.5047L40.9074 23.4957L40.9755 23.4875L41.0437 23.4797L41.1117 23.4729C41.1345 23.4706 41.157 23.4682 41.1799 23.4661C41.2024 23.464 41.2253 23.4624 41.2479 23.4606L41.3161 23.4552L41.3842 23.4505L41.4523 23.4465L41.5204 23.4427C41.543 23.4416 41.5658 23.4409 41.5885 23.44C41.6112 23.4391 41.6337 23.438 41.6566 23.4372L41.7247 23.4355L41.7928 23.434L41.8609 23.433L41.929 23.4328C41.9517 23.4327 41.9743 23.4325 41.9971 23.4326L42.0652 23.4334L42.1333 23.4344L42.2014 23.4359L42.2695 23.4381L42.3376 23.4403L42.4057 23.4434L42.4738 23.4468L42.5419 23.4505L42.6101 23.455L42.6781 23.4595L42.7049 23.4613L42.7462 23.4646L42.8143 23.47L42.8824 23.4758L42.9506 23.482L43.0186 23.4884L43.0868 23.4954L43.1549 23.5026L43.223 23.5101L43.2911 23.518L43.3591 23.5264L43.4273 23.5349L43.4954 23.5439L43.5635 23.5534L43.6316 23.563L43.6997 23.5731L43.7678 23.5836L43.8359 23.5944L43.904 23.6055L43.9721 23.6172L44.0402 23.6291L44.1083 23.6414L44.1764 23.654L44.2445 23.6671L44.3126 23.6805L44.3808 23.6944L44.4488 23.7086L44.5169 23.7232L44.585 23.7382L44.6531 23.7534L44.7213 23.7692L44.7893 23.7853L44.8575 23.8018L44.9255 23.8187L44.9937 23.836L45.0618 23.8537L45.1298 23.8717L45.198 23.8902L45.266 23.909L45.3342 23.9282L45.4023 23.9479L45.4704 23.9679L45.5385 23.9884L45.6066 24.0092L45.6747 24.0303L45.7428 24.0519L45.8109 24.074L45.879 24.0964L45.9471 24.1192L46.0152 24.1423L46.0833 24.1658L46.1514 24.1899L46.2195 24.2142L46.2876 24.2389L46.3557 24.2641L46.4238 24.2896L46.4919 24.3156L46.56 24.3419L46.6282 24.3685L46.6962 24.3956L46.7644 24.4231L46.8324 24.4509L46.9005 24.4792L46.9687 24.5077L47.0367 24.5367L47.1049 24.566L47.173 24.5957L47.2411 24.6257L47.3092 24.6562L47.3773 24.6869L47.4454 24.718L47.5135 24.7495L47.5816 24.7813L47.6497 24.8134L47.7178 24.8459L47.7859 24.8787L47.854 24.9118L47.9221 24.9452L47.9902 24.979L48.058 25.0128V22.0414L47.9902 22.0248L47.9221 22.0085L47.854 21.9924L47.7859 21.9765L47.7178 21.9608L47.6497 21.9454L47.5816 21.9301L47.5135 21.9149L47.4454 21.9L47.3773 21.8851L47.3092 21.8704L47.2411 21.856L47.173 21.8415L47.1049 21.8273L47.0367 21.8132L46.9687 21.7992L46.9005 21.7853L46.8324 21.7716L46.7644 21.758L46.6962 21.7446L46.6282 21.7313L46.56 21.7181L46.4919 21.7051L46.4238 21.6922L46.3557 21.6794L46.2876 21.6668L46.2195 21.6543L46.1514 21.6419L46.0833 21.6297L46.0152 21.6175L45.9471 21.6056L45.879 21.5937L45.8109 21.582L45.7428 21.5705L45.6747 21.559L45.6066 21.5477L45.5385 21.5366L45.4704 21.5255L45.4023 21.5147L45.3342 21.5039L45.266 21.4934L45.198 21.4829L45.1298 21.4726L45.0618 21.4624L44.9937 21.4524L44.9255 21.4426L44.8575 21.4328L44.7893 21.4233L44.7213 21.4139L44.6531 21.4046L44.585 21.3956L44.5169 21.3866L44.4488 21.3779L44.3808 21.3692L44.3126 21.3607L44.2445 21.3524L44.1764 21.3443L44.1083 21.3364L44.0402 21.3286L43.9721 21.321L43.904 21.3136L43.8359 21.3064L43.7678 21.2992L43.6997 21.2925L43.6316 21.2857L43.5635 21.2792L43.4954 21.2729L43.4273 21.2668L43.3591 21.2608L43.2911 21.2551L43.223 21.2496L43.1549 21.2443L43.0868 21.2393L43.0186 21.2343L42.9506 21.2297L42.8824 21.2252L42.8143 21.2211L42.7462 21.217L42.6781 21.2133L42.6101 21.2098L42.5419 21.2065L42.5071 21.2049L42.4738 21.2035L42.4057 21.2007L42.3376 21.1979L42.2695 21.1951L42.2014 21.1927L42.1333 21.1904L42.0652 21.1881L41.9971 21.186L41.929 21.1841L41.8609 21.1823L41.7928 21.1805L41.7247 21.1791L41.6566 21.1778L41.5885 21.1764L41.5204 21.1755L41.4523 21.1746L41.3842 21.1737L41.3161 21.1731L41.2479 21.1728L41.1799 21.1724L41.1117 21.1722L41.0437 21.1723L40.9755 21.1725L40.9074 21.1727L40.8394 21.1733L40.7712 21.174L40.7032 21.1746L40.635 21.1758L40.5669 21.1769L40.4988 21.1781L40.4307 21.1798L40.3627 21.1815L40.2945 21.1832L40.2264 21.1854L40.1583 21.1876L40.0902 21.1899L40.0221 21.1926L39.954 21.1954L39.8859 21.1982L39.8178 21.2015L39.7497 21.2049L39.6816 21.2082L39.6135 21.212L39.5454 21.216L39.4773 21.2199L39.4092 21.2244L39.3411 21.2289L39.273 21.2335L39.2048 21.2387L39.1367 21.2438L39.0687 21.249L39.0005 21.2548L38.9325 21.2604L38.8643 21.2665L38.7962 21.2728L38.7281 21.2791L38.66 21.2859L38.592 21.2929L38.5238 21.2999L38.4557 21.3074L38.3876 21.315L38.3195 21.3228L38.2514 21.3311L38.1833 21.3393L38.1152 21.348L38.0471 21.357L37.979 21.3659L37.9109 21.3755L37.8428 21.3851L37.7747 21.3949L37.7066 21.4053L37.6385 21.4155L37.5704 21.4264L37.5023 21.4375L37.4342 21.4488L37.3661 21.4605L37.298 21.4722L37.2298 21.4846L37.1618 21.4971L37.0936 21.5099L37.0256 21.5231L36.9574 21.5363L36.8893 21.5503L36.8213 21.5643L36.7531 21.5788L36.6851 21.5935L36.6169 21.6086L36.5488 21.6242L36.4807 21.6398L36.4126 21.6562L36.3445 21.6726L36.2764 21.6896L36.2083 21.7068L36.1402 21.7246L36.0721 21.7426L36.004 21.7611L35.9359 21.78L35.8678 21.7992L35.7997 21.819L35.7316 21.8389L35.6635 21.8597L35.5954 21.8805L35.5273 21.9022C35.5046 21.9094 35.4817 21.9165 35.4591 21.9238L35.3911 21.9465C35.3684 21.954 35.3455 21.9614 35.323 21.9691L35.2549 21.9927L35.1868 22.0163C35.1639 22.0244 35.1413 22.0327 35.1186 22.0409C35.0959 22.0491 35.0731 22.0572 35.0506 22.0656L34.9824 22.0912C34.9597 22.0998 34.9369 22.1083 34.9144 22.117L34.8462 22.1437L34.7781 22.1706L34.71 22.1984L34.6419 22.2266L34.5738 22.2555L34.5057 22.285L34.4377 22.315L34.3696 22.3459L34.3015 22.3772C34.2786 22.3878 34.256 22.3987 34.2334 22.4095L34.1653 22.4423L34.0971 22.4759L34.0291 22.5103C34.0063 22.5219 33.9834 22.5334 33.9609 22.5451C33.938 22.557 33.9155 22.5692 33.8929 22.5812L33.8247 22.6178L33.7566 22.6553C33.7337 22.668 33.7111 22.6809 33.6885 22.6938C33.6657 22.7068 33.6429 22.7197 33.6204 22.7328C33.5976 22.7462 33.575 22.7596 33.5524 22.7731C33.5295 22.7868 33.5068 22.8005 33.4842 22.8143C33.4614 22.8283 33.4386 22.8422 33.4161 22.8562C33.3932 22.8705 33.3706 22.885 33.348 22.8995L33.2799 22.9436C33.2571 22.9586 33.2343 22.9735 33.2118 22.9887L33.1437 23.0351C33.1208 23.0508 33.0982 23.0667 33.0756 23.0826C33.0528 23.0987 33.03 23.115 33.0075 23.1313C32.9847 23.1478 32.9619 23.1643 32.9394 23.181C32.9165 23.198 32.8939 23.2152 32.8713 23.2324C32.8484 23.2499 32.8257 23.2675 32.8032 23.2851C32.7803 23.303 32.7576 23.3209 32.7351 23.339V23.339Z" fill="#E10238"/>
</svg>
