<svg width="84" height="58" viewBox="0 0 84 58" fill="none" xmlns="http://www.w3.org/2000/svg">
<rect x="0.5" y="0.5" width="83" height="57" rx="3.5" stroke="#FAFAFA"/>
<path d="M13.9445 9.15624C13.2888 9.34261 12.6717 9.86196 12.3307 10.5006L12.0423 11.0597L12.0031 28.7386C11.9902 40.3736 12.016 46.6039 12.1078 46.9232C12.3043 47.6818 12.777 48.2943 13.4198 48.667L14.0101 49H70.0322L70.6224 48.667C70.9898 48.4539 71.3443 48.0949 71.6063 47.6818L72 47.0295V11.0603L71.7116 10.5012C71.3571 9.83587 70.7541 9.34323 70.0322 9.1432C69.3367 8.94378 14.6137 8.95683 13.9445 9.15624ZM52.7135 14.4684C58.3027 14.9473 62.5009 17.0241 64.5085 20.2856C64.705 20.6049 64.915 21.018 64.994 21.2044L65.125 21.5504L60.5332 21.3907L60.4021 22.0828C60.2185 23.0544 59.6019 26.6886 59.6019 26.8352C59.6019 26.9153 58.8544 26.9681 57.7652 26.9681C56.1513 26.9681 55.9284 26.9414 55.9284 26.755C55.9284 26.6221 56.1384 25.4237 56.4005 24.0657C56.6496 22.7214 56.8468 21.6032 56.8205 21.5765C56.7941 21.5634 55.7184 21.523 54.4198 21.4963L52.0712 21.4429L50.7855 28.9511C50.09 33.0916 49.5261 36.486 49.539 36.499C49.5518 36.5121 50.5755 36.499 51.822 36.4593L54.0653 36.3791L54.4853 34.1694C54.7082 32.958 54.9574 31.6801 55.0364 31.3204L55.1674 30.6949H58.9462L58.8807 30.9875C58.7625 31.5335 58.015 36.0592 57.9886 36.4052C57.9495 36.8444 55.8109 38.3093 53.1733 39.6667C47.9385 42.3827 42.743 43.7804 37.1011 43.9668C30.8825 44.1662 25.8706 42.6088 23.0365 39.5735C22.2626 38.7479 21.0289 36.7779 21.1869 36.6183C21.2132 36.5916 22.1181 36.5251 23.181 36.4717L25.123 36.3785L25.8449 35.2603L26.5532 34.1421L27.76 34.2222C28.4292 34.2756 29.0592 34.3421 29.1639 34.3688C29.282 34.3955 29.5839 34.9012 29.8459 35.487L30.318 36.5518H35.0935L35.028 36.1791C34.9888 35.9797 34.4378 32.6915 33.8078 28.8703L32.6402 21.9095L31.0661 21.8964C30.2004 21.8964 29.2294 21.843 28.9012 21.7902L28.311 21.697L29.8196 20.685C36.4319 16.2389 45.3401 13.8161 52.7135 14.4684ZM29.6096 28.5926C29.6488 28.8324 29.7143 29.4313 29.7541 29.9239L29.8459 30.8291H28.652C27.9302 30.8291 27.4581 30.7756 27.4581 30.6961C27.4581 30.616 27.681 30.0171 27.9437 29.3648L28.4157 28.1665H28.9802C29.5178 28.1665 29.5441 28.1932 29.6096 28.5926Z" fill="#201F1E"/>
<path d="M43.0133 20.8002C41.1007 21.3175 38.9093 23.0226 37.8624 24.7981C35.3075 29.1313 36.4801 34.5407 40.403 36.54C41.8127 37.2667 43.9488 37.4206 45.5539 36.9314L46.4477 36.6516L46.5454 35.9249C46.5871 35.5192 46.6294 34.7371 46.6431 34.2055C46.6431 33.6602 46.6992 32.8637 46.7545 32.4162C46.8386 31.7176 46.8242 31.6198 46.6431 31.7033C46.5174 31.7594 46.1545 31.8853 45.8334 32.0105C44.5351 32.458 42.9853 31.745 42.2596 30.3609C41.9104 29.6897 41.8688 29.4803 41.9248 28.7256C42.1482 25.832 45.5826 24.5881 47.3832 26.7407C47.5923 26.9781 47.774 27.1601 47.7883 27.132C47.9141 26.9363 49.5889 22.701 49.6032 22.5471C49.6449 22.2399 47.9701 21.1773 46.9649 20.8557C45.8614 20.5211 44.1442 20.493 43.0133 20.8002Z" fill="#201F1E"/>
</svg>
