<svg width="84" height="58" viewBox="0 0 84 58" fill="none" xmlns="http://www.w3.org/2000/svg">
<rect x="0.5" y="0.5" width="83" height="57" rx="3.5" fill="white"/>
<rect x="0.5" y="0.5" width="83" height="57" rx="3.5" stroke="#FAFAFA"/>
<path d="M37.2956 39.7782H31.7031L35.2011 19.4772H40.7933L37.2956 39.7782Z" fill="#1A1F71"/>
<path d="M57.5684 19.9735C56.4654 19.5627 54.7158 19.1092 52.5524 19.1092C47.0296 19.1092 43.1406 21.8734 43.1167 25.8255C43.0708 28.7413 45.9012 30.3608 48.018 31.333C50.1817 32.3265 50.9172 32.9749 50.9172 33.8605C50.8952 35.2205 49.1688 35.8474 47.5587 35.8474C45.3259 35.8474 44.1296 35.5242 42.3115 34.7675L41.5751 34.4432L40.7925 39.0003C42.1041 39.5612 44.5207 40.0589 47.0296 40.0807C52.8977 40.0807 56.718 37.3593 56.7632 33.1477C56.7855 30.8367 55.291 29.0659 52.0689 27.6189C50.1129 26.6901 48.915 26.0637 48.915 25.1133C48.9379 24.2493 49.9282 23.3643 52.1362 23.3643C53.9543 23.321 55.2901 23.7312 56.302 24.1417L56.8079 24.3572L57.5684 19.9735Z" fill="#1A1F71"/>
<path fill-rule="evenodd" clip-rule="evenodd" d="M67.5796 19.4772H71.9054L76.4171 39.7779H71.239C71.239 39.7779 70.7322 37.4454 70.5717 36.7326H63.3914C63.1837 37.2723 62.2176 39.7779 62.2176 39.7779H56.3496L64.6565 21.1616C65.2321 19.844 66.2456 19.4772 67.5796 19.4772ZM67.235 26.9062C67.235 26.9062 65.4628 31.42 65.0022 32.5863H69.6507C69.4207 31.5713 68.3616 26.7119 68.3616 26.7119L67.9708 24.9626C67.8062 25.4131 67.5682 26.0324 67.4077 26.4501C67.2988 26.7332 67.2256 26.9237 67.235 26.9062Z" fill="#1A1F71"/>
<path fill-rule="evenodd" clip-rule="evenodd" d="M7.47145 19.4772H16.4692C17.6888 19.5199 18.6785 19.8871 19.0005 21.1837L20.9557 30.5102C20.956 30.5111 20.9563 30.512 20.9566 30.5129L21.5551 33.3205L27.032 19.4772H32.9456L24.1551 39.7567H18.2412L13.2567 22.1169C11.5368 21.1732 9.57397 20.4141 7.37939 19.8874L7.47145 19.4772Z" fill="#1A1F71"/>
<rect x="1" y="1" width="82" height="8" fill="#1A1F71"/>
<rect x="1" y="49" width="82" height="8" fill="#F7B600"/>
</svg>
