<svg width="84" height="58" viewBox="0 0 84 58" fill="none" xmlns="http://www.w3.org/2000/svg">
<rect x="0.5" y="0.5" width="83" height="57" rx="3.5" stroke="#FAFAFA"/>
<path d="M29.75 12.625C29.2578 12.625 28.875 13.0625 28.875 13.5V27.5C28.875 27.9922 29.2578 28.375 29.75 28.375H54.25C54.6875 28.375 55.125 27.9922 55.125 27.5V13.5C55.125 13.0625 54.6875 12.625 54.25 12.625H29.75ZM26.25 13.5C26.25 11.5859 27.7812 10 29.75 10H54.25C56.1641 10 57.75 11.5859 57.75 13.5V27.5C57.75 29.4688 56.1641 31 54.25 31H29.75C27.7812 31 26.25 29.4688 26.25 27.5V13.5ZM32.8125 17.875H40.6875C41.3984 17.875 42 18.4766 42 19.1875C42 19.9531 41.3984 20.5 40.6875 20.5H32.8125C32.0469 20.5 31.5 19.9531 31.5 19.1875C31.5 18.4766 32.0469 17.875 32.8125 17.875ZM31.5 24.4375C31.5 23.7266 32.0469 23.125 32.8125 23.125H51.1875C51.8984 23.125 52.5 23.7266 52.5 24.4375C52.5 25.2031 51.8984 25.75 51.1875 25.75H32.8125C32.0469 25.75 31.5 25.2031 31.5 24.4375ZM46.8125 15.25H51.1875C51.8984 15.25 52.5 15.8516 52.5 16.5625V19.1875C52.5 19.9531 51.8984 20.5 51.1875 20.5H46.8125C46.0469 20.5 45.5 19.9531 45.5 19.1875V16.5625C45.5 15.8516 46.0469 15.25 46.8125 15.25Z" fill="#1E1E20"/>
<path d="M3.737 49H5.233V45.997H6.839C8.401 45.997 9.402 45.073 9.402 43.654C9.402 42.224 8.401 41.3 6.839 41.3H3.737V49ZM5.233 44.71V42.587H6.707C7.455 42.587 7.906 42.983 7.906 43.654C7.906 44.314 7.455 44.71 6.707 44.71H5.233ZM14.0632 44.798L14.1512 43.456C13.9862 43.401 13.7442 43.368 13.5462 43.368C12.8752 43.368 12.1492 43.841 11.8742 44.468V43.456H10.4882V49H11.8742V46.965C11.8742 45.315 12.5782 44.666 13.3592 44.666C13.6012 44.666 13.8652 44.71 14.0632 44.798ZM14.6666 46.228C14.6666 47.669 15.6456 49.088 17.4826 49.088C18.7806 49.088 19.7486 48.472 20.0566 47.427L18.7586 47.075C18.6156 47.614 18.1536 47.922 17.5046 47.922C16.7126 47.922 16.1736 47.427 16.0526 46.591H20.1666C20.1776 46.481 20.1886 46.239 20.1886 46.041C20.1886 44.754 19.2756 43.368 17.4056 43.368C15.5686 43.368 14.6666 44.787 14.6666 46.228ZM16.0856 45.579C16.2396 44.831 16.7236 44.424 17.4056 44.424C18.2086 44.424 18.6376 44.919 18.7036 45.579H16.0856ZM21.063 46.415H24.605V45.227H21.063V46.415ZM28.5087 43.258L29.5317 46.03H27.4857L28.5087 43.258ZM24.8457 49H26.3857L27.0127 47.295H29.9937L30.6207 49H32.1607L29.2017 41.3H27.8047L24.8457 49ZM38.1359 43.456H36.7499V45.887C36.7499 47.13 36.2549 47.856 35.4079 47.856C34.7589 47.856 34.3519 47.405 34.3519 46.756V43.456H32.9659V47.086C32.9659 48.296 33.7799 49.088 34.9899 49.088C35.7709 49.088 36.3979 48.703 36.7499 48.164V49H38.1359V43.456ZM42.9647 48.945L42.8657 47.735C42.6677 47.834 42.4257 47.867 42.2167 47.867C41.7877 47.867 41.5017 47.581 41.5017 47.053V44.622H42.8987V43.456H41.5017V41.828H40.1157V43.456H39.1807V44.622H40.1157V47.185C40.1157 48.483 40.9517 49.088 42.0737 49.088C42.3927 49.088 42.6897 49.044 42.9647 48.945ZM44.3982 49H45.7842V46.591C45.7842 45.337 46.2682 44.6 47.1262 44.6C47.8082 44.6 48.2262 45.029 48.2262 45.711V49H49.6122V45.37C49.6122 44.16 48.7872 43.368 47.5441 43.368C46.7742 43.368 46.1472 43.709 45.7842 44.314V41.212H44.3982V49ZM54.0485 49H56.5675C58.6905 49 60.5165 47.735 60.5165 45.15C60.5165 42.565 58.6905 41.3 56.5675 41.3H54.0485V49ZM55.5225 47.702V42.587H56.4355C57.7555 42.587 58.9985 43.269 58.9985 45.15C58.9985 47.031 57.7555 47.702 56.4355 47.702H55.5225ZM61.4804 46.228C61.4804 47.669 62.4594 49.088 64.2964 49.088C65.5944 49.088 66.5624 48.472 66.8704 47.427L65.5724 47.075C65.4294 47.614 64.9674 47.922 64.3184 47.922C63.5264 47.922 62.9874 47.427 62.8664 46.591H66.9804C66.9914 46.481 67.0024 46.239 67.0024 46.041C67.0024 44.754 66.0894 43.368 64.2194 43.368C62.3824 43.368 61.4804 44.787 61.4804 46.228ZM62.8994 45.579C63.0534 44.831 63.5374 44.424 64.2194 44.424C65.0224 44.424 65.4514 44.919 65.5174 45.579H62.8994ZM71.2209 49.088C72.8819 49.088 73.8609 47.922 73.8609 46.228C73.8609 44.534 72.8819 43.368 71.2429 43.368C70.5499 43.368 69.9559 43.654 69.6369 44.072V41.212H68.2509V49H69.6369V48.362C69.9119 48.802 70.5279 49.088 71.2209 49.088ZM69.5489 46.228C69.5489 45.227 70.1319 44.567 71.0229 44.567C71.9029 44.567 72.4859 45.227 72.4859 46.228C72.4859 47.229 71.9029 47.889 71.0229 47.889C70.1319 47.889 69.5489 47.229 69.5489 46.228ZM75.111 49H76.497V43.456H75.111V49ZM74.946 41.751C74.946 42.235 75.309 42.609 75.804 42.609C76.31 42.609 76.684 42.235 76.684 41.751C76.684 41.278 76.31 40.904 75.804 40.904C75.309 40.904 74.946 41.278 74.946 41.751ZM81.3286 48.945L81.2296 47.735C81.0316 47.834 80.7896 47.867 80.5806 47.867C80.1516 47.867 79.8656 47.581 79.8656 47.053V44.622H81.2626V43.456H79.8656V41.828H78.4796V43.456H77.5446V44.622H78.4796V47.185C78.4796 48.483 79.3156 49.088 80.4376 49.088C80.7566 49.088 81.0536 49.044 81.3286 48.945Z" fill="#201F1E"/>
</svg>
