<svg width="84" height="58" viewBox="0 0 84 58" fill="none" xmlns="http://www.w3.org/2000/svg">
<rect x="0.5" y="0.5" width="83" height="57" rx="3.5" fill="white"/>
<rect x="0.5" y="0.5" width="83" height="57" rx="3.5" stroke="#FAFAFA"/>
<path fill-rule="evenodd" clip-rule="evenodd" d="M27.617 29.4675C27.617 33.0085 30.3942 35.7541 33.9681 35.7541C34.9783 35.7541 35.8439 35.5553 36.9108 35.0522V32.2861C35.9727 33.2263 35.1415 33.6056 34.0774 33.6056C31.7135 33.6056 30.0357 31.8896 30.0357 29.4498C30.0357 27.1371 31.7665 25.3126 33.9681 25.3126C35.0876 25.3126 35.935 25.7124 36.9108 26.6679V23.9032C35.8807 23.3801 35.0336 23.1632 34.0235 23.1632C30.4676 23.1632 27.617 25.9646 27.617 29.4675ZM21.5937 26.5416C21.5937 27.1928 22.007 27.5367 23.4156 28.0585C26.0854 29.0363 26.8766 29.9025 26.8766 31.8168C26.8766 34.1487 25.1654 35.7725 22.7266 35.7725C20.9406 35.7725 19.6417 35.0683 18.5604 33.4789L20.0768 32.017C20.617 33.0633 21.5189 33.6241 22.6383 33.6241C23.6857 33.6241 24.4606 32.9008 24.4606 31.9248C24.4606 31.4189 24.2259 30.9846 23.7568 30.6779C23.5211 30.5327 23.0534 30.3167 22.1344 29.9919C19.9299 29.1979 19.174 28.348 19.174 26.6882C19.174 24.7167 20.7979 23.2366 22.927 23.2366C24.2463 23.2366 25.4536 23.6881 26.4629 24.5719L25.2347 26.1819C24.6233 25.4958 24.045 25.2063 23.3421 25.2063C22.3306 25.2063 21.5937 25.783 21.5937 26.5416ZM15.3293 35.4829H17.6765V23.4356H15.3293V35.4829ZM10.5318 32.4855C9.7945 33.1525 8.83639 33.4434 7.31995 33.4434H6.69004V25.4766H7.31995C8.83639 25.4766 9.75684 25.7484 10.5318 26.4512C11.3435 27.1745 11.8316 28.2962 11.8316 29.45C11.8316 30.6066 11.3435 31.7622 10.5318 32.4855ZM7.78994 23.4357H4.34473V35.4824H7.77181C9.59414 35.4824 10.9097 35.0524 12.065 34.0917C13.4378 32.9547 14.2494 31.2405 14.2494 29.4677C14.2494 25.9122 11.5964 23.4357 7.78994 23.4357ZM52.312 23.4356L55.5206 31.5276L58.771 23.4356H61.3153L56.1171 35.7919H54.854L49.7477 23.4356H52.312ZM62.3766 35.4826H69.0328V33.4431H64.7219V30.1911H68.8742V28.1507H64.7219V25.4768H69.0328V23.4354H62.3766V35.4826ZM72.9316 28.9818H73.6173C75.1165 28.9818 75.911 28.3297 75.911 27.1187C75.911 25.9463 75.1165 25.3333 73.6545 25.3333H72.9316V28.9818ZM74.0677 23.4352C76.7743 23.4352 78.326 24.7366 78.326 26.9921C78.326 28.8366 77.3526 30.0476 75.5846 30.4074L79.3729 35.4825H76.4865L73.2379 30.6429H72.9316V35.4825H70.5872V23.4352H74.0677Z" fill="#1D1D1B"/>
<path fill-rule="evenodd" clip-rule="evenodd" d="M49.4708 32.9539C51.3758 29.9715 50.5058 26.0095 47.5274 24.1025C44.549 22.1955 40.5909 23.0661 38.6859 26.0484C36.7814 29.03 37.6517 32.9932 40.6301 34.9003C43.6085 36.8073 47.5663 35.9354 49.4708 32.9539Z" fill="url(#paint0_linear_1653_9288)"/>
<defs>
<linearGradient id="paint0_linear_1653_9288" x1="52.9194" y1="27.555" x2="42.1271" y2="20.6612" gradientUnits="userSpaceOnUse">
<stop stop-color="#F6A000"/>
<stop offset="0.623918" stop-color="#E47E02"/>
<stop offset="1" stop-color="#D36002"/>
</linearGradient>
</defs>
</svg>
