<svg width="84" height="58" viewBox="0 0 84 58" fill="none" xmlns="http://www.w3.org/2000/svg">
<rect x="0.5" y="0.5" width="83" height="57" rx="3.5" stroke="#FAFAFA"/>
<path fill-rule="evenodd" clip-rule="evenodd" d="M39.8122 22.0388H43.6501C43.6501 22.0388 47.4502 21.962 47.4119 25.4232C47.374 28.0004 43.7276 28.3848 43.7276 28.3848H39.8126V22.0388H39.8122ZM51.294 34.4629C51.4018 34.9662 51.7652 35.5211 52.9774 35.5781C54.5892 35.616 55.5105 35.0004 55.5105 35.0004V36.1928C55.5105 36.1928 53.745 36.6165 52.9003 36.6165C52.0178 36.6165 49.4077 36.4236 49.4077 34.0008C49.4077 32.0397 51.5572 31.4241 52.785 31.4241C54.9345 31.5008 55.9707 32.2705 55.9324 34.4624C55.9324 34.4941 52.3959 34.4705 51.294 34.4629ZM51.2991 33.5004H54.2439C54.2439 33.5004 54.2439 32.3852 52.8237 32.3852C51.7555 32.3852 51.406 32.9624 51.2991 33.5004ZM60.6149 32.2962C61.0411 31.8329 61.7564 31.462 62.9565 31.462C65.3363 31.462 65.7203 33.462 65.682 34.0004C65.6436 34.5388 65.4516 36.5772 62.6887 36.5772C61.6449 36.5772 61.0061 36.2203 60.6154 35.7772V36.4232H58.7345V29.5H60.6154V32.2962H60.6149ZM62.2276 35.5004C63.3405 35.4616 63.8394 34.5008 63.8394 34.0392C63.8394 33.5776 63.5704 32.616 62.1501 32.616C61.0482 32.616 60.7126 33.4502 60.6149 33.8578V34.3595C60.7118 34.7751 61.0491 35.5004 62.2276 35.5004ZM78.4632 35.3084L78.5011 36.3857C78.5011 36.3857 77.6185 36.5776 77.0429 36.5776C76.4673 36.5776 74.9696 36.2316 74.9696 34.7696V32.5388H73.3966V31.5392H74.9696V30.3468H76.8892V31.5392H78.4632V32.5388H76.8892V34.4624C76.8892 34.4624 76.8892 35.424 77.6572 35.424C78.4244 35.424 78.4632 35.3084 78.4632 35.3084ZM72.629 23.0772H74.8551V28.4232H76.7351V23.0772H79V21.9616H72.629V23.0772ZM71.861 23.3464L72.0913 22.2308C72.0913 22.2308 71.1317 21.808 69.4433 21.808C67.7927 21.808 65.1447 22.7312 65.1447 25.2312C65.1447 27.6928 67.9464 28.5388 69.6736 28.5388C71.4008 28.5388 71.9763 28.2696 71.9763 28.2696L71.7848 27.0388C71.7848 27.0388 71.0168 27.2696 69.7115 27.2696C68.4449 27.2312 67.1409 26.2312 67.1409 25.116C67.1788 24.116 68.33 23.0004 69.8277 23.0004C70.9784 23.0004 71.861 23.3464 71.861 23.3464ZM54.8961 22.0004C54.8961 22.0004 58.0436 21.8468 58.0436 23.6928C58.0436 25.27 56.2402 25.3852 56.2402 25.3852C56.2402 25.3852 56.7387 25.462 56.9694 25.808C57.161 26.1156 58.4276 28.4236 58.4276 28.4236H56.508C56.508 28.4236 56.201 28.0388 56.0473 27.77C55.9324 27.5008 55.5867 26.9236 55.5867 26.9236C55.5867 26.9236 55.3185 25.962 54.3968 25.962C54.3736 25.962 53.9989 25.9477 53.7058 25.9367V28.4236H51.8637V22.0004H54.8961ZM53.7062 24.8852H54.7046C54.7046 24.8852 56.0861 24.808 56.1627 23.962C56.2014 23.1544 54.8199 23.0388 54.8199 23.0388H53.7062V24.8852ZM61.4209 25.8852H64.4916V24.6928H61.4209V23.2312H64.7607V22.0004H59.5413V28.4236H64.7994V27.2696H61.4213V25.8852H61.4209ZM68.9051 30.808H70.786V29.5H68.9051V30.808ZM68.9051 36.4236H70.786V31.5392H68.9051V36.4236ZM48.4102 28.4236H50.2523V22.0004H48.4102V28.4236ZM39.8122 30.0392H43.6501C43.6501 30.0392 47.4502 29.9616 47.4119 33.4236C47.374 36.0004 43.7276 36.3857 43.7276 36.3857H39.8126V30.0392H39.8122ZM41.6931 35.1932H42.9213C42.9213 35.1932 45.4544 35.0392 45.4544 33.0776C45.4544 31.116 42.7676 30.9236 42.7676 30.9236H41.6931V35.1932ZM41.6931 27.1928H42.9213C42.9213 27.1928 45.4544 27.0004 45.4544 25.0772C45.4544 23.0772 42.7676 22.9236 42.7676 22.9236H41.6931V27.1928ZM22.5787 25.8624V38.7316C22.5787 38.7316 15.1323 37.3852 15.1323 32.27C15.1327 28.1903 20.6448 26.392 22.5787 25.8624ZM22.5787 25.6224C18.1033 25.2979 7.9554 27.4 7.9554 32.0004C7.9554 35 13.3289 39.3852 22.0798 39.5004C22.425 39.5004 32.3658 39.1156 32.2125 28.4232C32.0837 19.4426 25.3762 17.8696 23.2314 17.5958V17.0485C31.7822 17.5924 38.5073 22.7456 38.5073 29C38.5073 35.6156 30.9843 41 21.7345 41C12.4847 41 5 35.6152 5 29C5 22.3848 12.4843 17 21.7345 17C22.0179 17 22.2996 17.0051 22.5791 17.0152V25.6224H22.5787Z" fill="#201F1E"/>
</svg>
