<svg width="84" height="58" viewBox="0 0 84 58" fill="none" xmlns="http://www.w3.org/2000/svg">
<rect x="0.5" y="0.5" width="83" height="57" rx="3.5" fill="white"/>
<rect x="0.5" y="0.5" width="83" height="57" rx="3.5" stroke="#FAFAFA"/>
<path fill-rule="evenodd" clip-rule="evenodd" d="M71.9362 8.71197L55.9281 8.70789C55.9262 8.70789 55.924 8.70789 55.924 8.70789C55.9116 8.70789 55.8995 8.71006 55.8874 8.71006C53.6883 8.7767 50.9493 10.5212 50.4504 12.6724L42.8801 45.8034C42.3812 47.9746 43.7383 49.7414 45.9215 49.7739H62.7387C64.8886 49.6687 66.9777 47.9442 67.4681 45.8175L75.0387 12.6863C75.5455 10.493 74.1557 8.71197 71.9362 8.71197Z" fill="#01798A"/>
<path fill-rule="evenodd" clip-rule="evenodd" d="M42.8802 45.8034L50.4506 12.6724C50.9494 10.5212 53.6884 8.7767 55.8875 8.71006L49.5227 8.70598L38.0554 8.7038C35.8501 8.74841 33.0754 10.5052 32.5768 12.6724L25.0042 45.8034C24.5035 47.9746 25.8626 49.7414 28.0444 49.7739H45.9217C43.7385 49.7414 42.3813 47.9746 42.8802 45.8034Z" fill="#024381"/>
<path fill-rule="evenodd" clip-rule="evenodd" d="M25.0041 45.8034L32.5767 12.6724C33.0753 10.5052 35.85 8.74841 38.0553 8.70381L23.3648 8.7C21.1472 8.7 18.304 10.4769 17.7972 12.6724L10.2246 45.8034C10.1785 46.0056 10.1529 46.2037 10.1377 46.3976V47.0122C10.2859 48.595 11.5081 49.7475 13.2648 49.7739H28.0443C25.8625 49.7414 24.5034 47.9746 25.0041 45.8034Z" fill="#DD0228"/>
<path fill-rule="evenodd" clip-rule="evenodd" d="M38.365 32.8452H38.643C38.8985 32.8452 39.0704 32.7604 39.151 32.5925L39.8734 31.5232H41.808L41.4046 32.2265H43.7242L43.4299 33.3042H40.6698C40.3519 33.7772 39.9606 33.9996 39.49 33.9732H38.0524L38.365 32.8452H38.365ZM38.0476 34.3897H43.1295L42.8055 35.5603H40.7618L40.4499 36.6902H42.4387L42.1148 37.8608H40.126L39.664 39.5304C39.5496 39.8095 39.7 39.935 40.1128 39.9065H41.7336L41.4333 40.9943H38.3214C37.7316 40.9943 37.5292 40.6605 37.7143 39.9915L38.3049 37.8608H37.0337L37.3566 36.6902H38.6281L38.9396 35.5603H37.7244L38.0476 34.3897H38.0476ZM46.1586 31.5152L46.0786 32.2005C46.0786 32.2005 47.0373 31.4886 47.9079 31.4886H51.1251L49.8948 35.8936C49.7927 36.3972 49.3552 36.6476 48.5825 36.6476H44.936L44.0819 39.7408C44.0326 39.9065 44.1022 39.9915 44.2862 39.9915H45.0037L44.7399 40.9516H42.9159C42.2157 40.9516 41.9245 40.7434 42.04 40.3251L44.4537 31.5152H46.1586H46.1586H46.1586ZM48.8832 32.7604H46.0117L45.6682 33.949C45.6682 33.949 46.1465 33.6075 46.9456 33.5953C47.7425 33.583 48.6522 33.5953 48.6522 33.5953L48.8832 32.7604ZM47.8429 35.5177C48.0552 35.5462 48.1739 35.4631 48.1882 35.267L48.364 34.6404H45.4881L45.2469 35.5177H47.8429ZM45.9029 36.9409H47.5606L47.5298 37.6504H47.9712C48.1942 37.6504 48.3048 37.5797 48.3048 37.4403L48.4354 36.9814H49.8131L49.6291 37.6504C49.4735 38.2084 49.061 38.4995 48.3905 38.528H47.5075L47.5034 39.7408C47.4872 39.935 47.6648 40.034 48.0306 40.034H48.8605L48.5927 40.9943H46.602C46.044 41.0205 45.7704 40.7575 45.7762 40.1997L45.9029 36.9409Z" fill="white"/>
<path fill-rule="evenodd" clip-rule="evenodd" d="M25.8157 25.6465C25.5908 26.7362 25.0696 27.5731 24.2612 28.1674C23.46 28.7517 22.4267 29.0447 21.1617 29.0447C19.9711 29.0447 19.0983 28.7455 18.5413 28.1451C18.1551 27.7185 17.9629 27.1768 17.9629 26.5218C17.9629 26.2509 17.9957 25.9598 18.0611 25.6465L19.409 19.2181H21.4447L20.1152 25.5737C20.0743 25.7497 20.0579 25.9134 20.0601 26.061C20.0579 26.3865 20.1397 26.6533 20.3052 26.8614C20.5464 27.1708 20.9378 27.3243 21.4825 27.3243C22.1089 27.3243 22.625 27.1728 23.0256 26.8675C23.4263 26.5643 23.6879 26.1338 23.8054 25.5737L25.1391 19.2181H27.1646L25.8157 25.6465Z" fill="white"/>
<path fill-rule="evenodd" clip-rule="evenodd" d="M34.3654 23.1175H35.9597L34.7108 28.8547H33.1196L34.3654 23.1175ZM34.8671 21.0274H36.4756L36.1752 22.42H34.5668L34.8671 21.0274Z" fill="white"/>
<path fill-rule="evenodd" clip-rule="evenodd" d="M37.3708 28.418C36.9538 28.0239 36.7432 27.4922 36.7412 26.817C36.7412 26.7017 36.7483 26.5704 36.7638 26.4268C36.7791 26.2812 36.7986 26.1397 36.8261 26.0084C37.0151 25.0765 37.4178 24.3366 38.0381 23.7907C38.6574 23.2429 39.4046 22.9679 40.2793 22.9679C40.9957 22.9679 41.5638 23.1661 41.9799 23.5623C42.3957 23.9606 42.6041 24.4982 42.6041 25.1817C42.6041 25.2988 42.5951 25.4342 42.5797 25.5798C42.5612 25.7274 42.539 25.8689 42.5131 26.0084C42.3283 26.9261 41.9268 27.658 41.3064 28.1938C40.686 28.7335 39.9411 29.0022 39.0724 29.0022C38.353 29.0022 37.7867 28.8082 37.3708 28.418M40.4092 27.2819C40.6902 26.9807 40.8915 26.5238 41.0142 25.9154C41.0326 25.8204 41.0488 25.7213 41.059 25.6223C41.0692 25.5252 41.0733 25.4342 41.0733 25.3514C41.0733 24.9976 40.9823 24.7227 40.7994 24.5286C40.6176 24.3325 40.3591 24.2355 40.025 24.2355C39.5834 24.2355 39.2237 24.389 38.9418 24.6963C38.6575 25.0037 38.4562 25.4686 38.3294 26.0872C38.3121 26.1822 38.2978 26.2773 38.2846 26.3703C38.2744 26.4652 38.2714 26.5542 38.2733 26.635C38.2733 26.9868 38.3643 27.2577 38.5472 27.4497C38.729 27.6418 38.9864 27.7368 39.3249 27.7368C39.7685 27.7368 40.1282 27.5852 40.4092 27.2819" fill="white"/>
<path fill-rule="evenodd" clip-rule="evenodd" d="M52.9486 32.8938L53.3331 31.5556H55.2768L55.1929 32.0466C55.1929 32.0466 56.1862 31.5556 56.9014 31.5556C57.617 31.5556 59.3049 31.5556 59.3049 31.5556L58.9229 32.8938H58.5448L56.7318 39.2051H57.1099L56.7502 40.4585H56.3721L56.2148 41.0022H54.3324L54.4894 40.4585H50.7759L51.1378 39.2051H51.5098L53.3245 32.8938H52.9486H52.9486ZM55.0457 32.8938L54.5509 34.6019C54.5509 34.6019 55.3974 34.2806 56.1269 34.1896C56.2881 33.5932 56.4987 32.8938 56.4987 32.8938H55.0457V32.8938ZM54.3218 35.4025L53.8255 37.1916C53.8255 37.1916 54.7635 36.7347 55.4072 36.6963C55.5931 36.0048 55.7793 35.4025 55.7793 35.4025H54.3218V35.4025ZM54.6857 39.2051L55.0577 37.9073H53.6068L53.2328 39.2051H54.6857ZM59.3867 31.4727H61.214L61.2916 32.1396C61.2795 32.3094 61.3815 32.3905 61.5982 32.3905H61.9211L61.5944 33.5204H60.2513C59.7384 33.5466 59.4747 33.3527 59.4502 32.9341L59.3867 31.4727ZM58.8514 33.8965H64.7704L64.4231 35.1095H62.5385L62.2154 36.2373H64.098L63.7485 37.4483H61.6517L61.1773 38.158H62.2036L62.4406 39.5791C62.469 39.7206 62.5957 39.7893 62.8124 39.7893H63.1312L62.7962 40.9596H61.6679C61.0833 40.9881 60.781 40.794 60.7563 40.3756L60.4843 39.0778L59.5504 40.4585C59.3296 40.8486 58.9903 41.0306 58.5327 41.0022H56.8095L57.1448 39.8316H57.6824C57.9032 39.8316 58.0869 39.7346 58.2524 39.5386L59.714 37.4483H57.8295L58.1787 36.2373H60.2228L60.5478 35.1095H58.5019L58.8514 33.8965Z" fill="white"/>
<path fill-rule="evenodd" clip-rule="evenodd" d="M27.6912 23.1155H29.129L28.9645 23.9443L29.1709 23.7078C29.637 23.2146 30.2031 22.97 30.8715 22.97C31.4765 22.97 31.9128 23.1439 32.1867 23.4935C32.4564 23.8433 32.53 24.3265 32.4024 24.9471L31.6103 28.8567H30.1326L30.8479 25.313C30.9216 24.9471 30.9012 24.6742 30.7876 24.4982C30.6753 24.3224 30.4606 24.2355 30.151 24.2355C29.7708 24.2355 29.4509 24.3526 29.1903 24.5852C28.9286 24.8197 28.756 25.1452 28.6712 25.5596L28.012 28.8567H26.5312L27.6912 23.1155Z" fill="white"/>
<path fill-rule="evenodd" clip-rule="evenodd" d="M44.1797 23.1155H45.6187L45.4554 23.9443L45.6594 23.7078C46.1258 23.2146 46.694 22.97 47.3603 22.97C47.9653 22.97 48.4025 23.1439 48.6742 23.4935C48.9423 23.8433 49.0199 24.3265 48.889 24.9471L48.1 28.8567H46.6203L47.3358 25.313C47.4092 24.9471 47.3889 24.6742 47.2764 24.4982C47.1598 24.3224 46.9492 24.2355 46.6409 24.2355C46.2606 24.2355 45.9419 24.3526 45.6781 24.5852C45.4163 24.8197 45.2428 25.1452 45.1611 25.5596L44.499 28.8567H43.02L44.1797 23.1155" fill="white"/>
<path fill-rule="evenodd" clip-rule="evenodd" d="M51.2929 19.5575H55.4707C56.2739 19.5575 56.8952 19.7376 57.3222 20.0912C57.7474 20.4491 57.9602 20.9626 57.9602 21.6317V21.6519C57.9602 21.7792 57.9517 21.9228 57.9396 22.0783C57.919 22.232 57.8923 22.3876 57.8579 22.5494C57.674 23.4349 57.2466 24.1465 56.5866 24.6863C55.9242 25.224 55.1396 25.4949 54.2362 25.4949H51.9958L51.3031 28.8567H49.3633L51.2929 19.5575M52.3373 23.8777H54.1954C54.6797 23.8777 55.0639 23.7664 55.3441 23.5461C55.6221 23.3238 55.8061 22.9842 55.9081 22.5233C55.9243 22.4382 55.9345 22.3615 55.9469 22.2908C55.9532 22.2241 55.9612 22.1572 55.9612 22.0928C55.9612 21.7631 55.8429 21.5246 55.6056 21.375C55.3685 21.2232 54.9968 21.1506 54.4814 21.1506H52.9035L52.3373 23.8777" fill="white"/>
<path fill-rule="evenodd" clip-rule="evenodd" d="M66.6426 29.9667C66.0294 31.2563 65.445 32.0082 65.1018 32.3579C64.7581 32.7038 64.0777 33.5084 62.4385 33.4476L62.5796 32.4632C63.9589 32.0427 64.705 30.1484 65.1301 29.3095L64.6233 23.1317L65.6903 23.1175H66.5854L66.6817 26.9929L68.3594 23.1175H70.0581L66.6426 29.9667" fill="white"/>
<path fill-rule="evenodd" clip-rule="evenodd" d="M61.8926 23.5845L61.2178 24.0435C60.5127 23.4977 59.8689 23.16 58.6265 23.7301C56.9339 24.5063 55.5196 30.4599 60.1796 28.4989L60.4453 28.8102L62.2787 28.8567L63.4826 23.447L61.8926 23.5845M60.8503 26.542C60.5557 27.4013 59.8979 27.9693 59.3829 27.8076C58.8678 27.6499 58.6838 26.8209 58.9822 25.9598C59.2765 25.0986 59.9386 24.5326 60.4496 24.6943C60.9647 24.852 61.1506 25.6808 60.8503 26.542Z" fill="white"/>
<path fill-rule="evenodd" clip-rule="evenodd" d="M55.9243 8.71866L49.5229 8.70599L55.8877 8.73316C55.8998 8.73316 55.9119 8.71866 55.9243 8.71866" fill="#E02F41"/>
<path fill-rule="evenodd" clip-rule="evenodd" d="M49.523 8.73987L38.1437 8.7C38.1151 8.7 38.0854 8.71267 38.0557 8.72537L49.523 8.73987" fill="#2E4F7D"/>
</svg>
