<svg width="84" height="58" viewBox="0 0 84 58" fill="none" xmlns="http://www.w3.org/2000/svg">
<rect x="0.5" y="0.5" width="83" height="57" rx="3.5" stroke="#FAFAFA"/>
<path d="M13.5354 40.5257C13.5354 41.5309 14.2573 41.6471 14.8994 41.6471C17.7322 41.6471 18.661 39.5219 18.661 37.5778C18.661 35.14 17.0887 33.3791 14.5584 33.3791C14.0206 33.3791 13.7729 33.4164 13.5354 33.4306V40.5257ZM12.2515 34.4076C12.2515 33.2348 11.6346 33.3121 11.0459 33.2989V32.9618C11.5562 32.9853 12.0805 32.9853 12.5924 32.9853C13.1426 32.9853 13.8904 32.9618 14.861 32.9618C18.255 32.9618 20.1041 35.2165 20.1041 37.5264C20.1041 38.8177 19.3446 42.0652 14.7033 42.0652C14.0362 42.0652 13.4178 42.0401 12.8026 42.0401C12.2123 42.0401 11.6346 42.0535 11.0459 42.0652V41.725C11.8306 41.6471 12.2123 41.6213 12.2515 40.7347V34.4076Z" fill="#231F20"/>
<path d="M21.9674 34.0962C21.6249 34.0962 21.3239 33.7825 21.3239 33.4441C21.3239 33.1174 21.6383 32.8164 21.9674 32.8164C22.3069 32.8164 22.6102 33.091 22.6102 33.4441C22.6102 33.7959 22.321 34.0962 21.9674 34.0962ZM20.5635 41.7254H20.8129C21.1797 41.7254 21.4415 41.7254 21.4415 41.2934V37.7607C21.4415 37.1867 21.2462 37.108 20.7595 36.8489V36.64C21.3765 36.456 22.1101 36.2102 22.1634 36.1689C22.2552 36.1181 22.3328 36.1049 22.3994 36.1049C22.4644 36.1049 22.4903 36.1822 22.4903 36.2868V41.2934C22.4903 41.7254 22.7803 41.7254 23.1455 41.7254H23.369V42.0654C22.923 42.0654 22.4644 42.0397 21.9926 42.0397C21.5206 42.0397 21.0488 42.0529 20.5635 42.0654V41.7254Z" fill="#231F20"/>
<path d="M24.6145 37.8382C24.6145 37.3571 24.4703 37.226 23.855 36.9796V36.7301C24.4178 36.5476 24.9547 36.3767 25.5849 36.1045C25.6241 36.1045 25.6625 36.1304 25.6625 36.2332V37.0833C26.411 36.5476 27.0539 36.1045 27.9326 36.1045C29.0464 36.1045 29.4399 36.9125 29.4399 37.9303V41.2937C29.4399 41.7258 29.7292 41.7258 30.0952 41.7258H30.3312V42.065C29.871 42.065 29.4126 42.0401 28.9421 42.0401C28.4695 42.0401 27.9976 42.0533 27.5258 42.065V41.7258H27.7617C28.1294 41.7258 28.3896 41.7258 28.3896 41.2937V37.9178C28.3896 37.173 27.9326 36.8088 27.184 36.8088C26.7647 36.8088 26.0967 37.1473 25.6625 37.4349V41.2937C25.6625 41.7258 25.9533 41.7258 26.3202 41.7258H26.5561V42.065C26.0967 42.065 25.6366 42.0401 25.1639 42.0401C24.6936 42.0401 24.221 42.0533 23.7491 42.065V41.7258H23.9867C24.3527 41.7258 24.6145 41.7258 24.6145 41.2937V37.8382Z" fill="#231F20"/>
<path d="M33.6497 38.0473C33.9758 38.0473 34.0141 37.8783 34.0141 37.7221C34.0141 37.0554 33.6082 36.5212 32.8745 36.5212C32.0757 36.5212 31.5248 37.1076 31.3672 38.0473H33.6497ZM31.3287 38.4661C31.3013 38.5831 31.3013 38.7782 31.3287 39.2217C31.4056 40.4618 32.2066 41.4787 33.2546 41.4787C33.9758 41.4787 34.5418 41.0864 35.0253 40.6045L35.2089 40.7869C34.6053 41.5825 33.8591 42.2601 32.7843 42.2601C30.6985 42.2601 30.2799 40.2521 30.2799 39.4176C30.2799 36.8612 32.0099 36.1047 32.9262 36.1047C33.9891 36.1047 35.1312 36.7692 35.1429 38.151C35.1429 38.2315 35.1429 38.3085 35.1312 38.3874L35.0112 38.4661H31.3287Z" fill="#231F20"/>
<path d="M35.444 41.7254H35.799C36.1658 41.7254 36.4262 41.7254 36.4262 41.2933V37.6297C36.4262 37.2266 35.9425 37.1478 35.7458 37.0424V36.8491C36.702 36.4435 37.2281 36.1052 37.3463 36.1052C37.4239 36.1052 37.4631 36.1424 37.4631 36.2743V37.4472H37.4913C37.8173 36.9394 38.3684 36.1052 39.168 36.1052C39.4956 36.1052 39.9142 36.3251 39.9142 36.7953C39.9142 37.1478 39.6673 37.462 39.299 37.462C38.8913 37.462 38.8913 37.1478 38.4336 37.1478C38.2109 37.1478 37.4764 37.4472 37.4764 38.2317V41.2933C37.4764 41.7254 37.7382 41.7254 38.1052 41.7254H38.8394V42.0656C38.1185 42.0531 37.569 42.0397 37.0053 42.0397C36.4669 42.0397 35.9166 42.0531 35.444 42.0656V41.7254Z" fill="#231F20"/>
<path d="M40.4911 40.2523C40.6627 41.1125 41.1872 41.8439 42.1444 41.8439C42.917 41.8439 43.2041 41.3738 43.2041 40.9174C43.2041 39.3789 40.3484 39.8724 40.3484 37.7739C40.3484 37.0424 40.9387 36.1049 42.381 36.1049C42.7996 36.1049 43.3632 36.2219 43.8744 36.4825L43.9668 37.8129H43.6658C43.5349 36.9918 43.0746 36.5206 42.236 36.5206C41.7109 36.5206 41.2138 36.8217 41.2138 37.3824C41.2138 38.9095 44.2544 38.439 44.2544 40.4869C44.2544 41.3471 43.5599 42.2602 42.0008 42.2602C41.4741 42.2602 40.8588 42.0786 40.4001 41.8183L40.2561 40.3177L40.4911 40.2523Z" fill="#231F20"/>
<path d="M56.0924 35.3213H55.7646C55.5161 33.7959 54.4274 33.183 52.9608 33.183C51.4511 33.183 49.261 34.1865 49.261 37.3153C49.261 39.9521 51.1525 41.8439 53.1694 41.8439C54.4673 41.8439 55.5429 40.9573 55.8054 39.587L56.1057 39.6642L55.8054 41.5695C55.2544 41.9095 53.7714 42.2602 52.906 42.2602C49.8387 42.2602 47.9001 40.2913 47.9001 37.3566C47.9001 34.6826 50.2981 32.7648 52.8682 32.7648C53.9305 32.7648 54.9519 33.1042 55.9615 33.4558L56.0924 35.3213Z" fill="#231F20"/>
<path d="M56.5643 41.7254H56.8144C57.1819 41.7254 57.4444 41.7254 57.4444 41.2933V34.0324C57.4444 33.183 57.2477 33.1565 56.7492 33.0138V32.8047C57.2729 32.6347 57.824 32.4017 58.0998 32.2432C58.2432 32.1653 58.3491 32.0989 58.3876 32.0989C58.4675 32.0989 58.4925 32.1777 58.4925 32.2829V41.2933C58.4925 41.7254 58.7818 41.7254 59.1487 41.7254H59.3712V42.0656C58.9276 42.0656 58.4675 42.0397 57.9941 42.0397C57.5236 42.0397 57.0518 42.0531 56.5643 42.0656V41.7254Z" fill="#231F20"/>
<path d="M64.9834 41.3469C64.9834 41.5833 65.1258 41.595 65.3499 41.595C65.5061 41.595 65.7045 41.5833 65.8752 41.5833V41.8577C65.3092 41.9092 64.2354 42.183 63.9845 42.2608L63.9203 42.2219V41.1669C63.135 41.8055 62.5298 42.2608 61.5979 42.2608C60.8908 42.2608 60.1579 41.8055 60.1579 40.7107V37.3705C60.1579 37.0303 60.1045 36.7036 59.3724 36.6398V36.3918C59.845 36.3777 60.8908 36.3012 61.0623 36.3012C61.2083 36.3012 61.2083 36.3918 61.2083 36.6787V40.0429C61.2083 40.4338 61.2083 41.5559 62.3478 41.5559C62.7923 41.5559 63.3825 41.2158 63.933 40.7628V37.2511C63.933 36.9914 63.3042 36.8487 62.833 36.717V36.4823C64.0129 36.4034 64.7481 36.3012 64.8781 36.3012C64.9834 36.3012 64.9834 36.3918 64.9834 36.536V41.3469Z" fill="#231F20"/>
<path d="M67.5908 40.5911C67.5908 41.087 68.0629 41.9215 68.9422 41.9215C70.3462 41.9215 70.9356 40.5511 70.9356 39.3899C70.9356 37.9824 69.8602 36.8087 68.8379 36.8087C68.3504 36.8087 67.9453 37.1222 67.5908 37.4233V40.5911ZM67.5908 37.0426C68.1151 36.6004 68.8248 36.1053 69.5451 36.1053C71.0657 36.1053 71.9836 37.4233 71.9836 38.8434C71.9836 40.5511 70.7254 42.2607 68.849 42.2607C67.8785 42.2607 67.3689 41.948 67.0272 41.8052L66.6345 42.104L66.3601 41.9612C66.4753 41.1924 66.5419 40.4343 66.5419 39.6395V34.0323C66.5419 33.1832 66.346 33.1559 65.8475 33.0132V32.8043C66.3736 32.6349 66.9221 32.4017 67.1981 32.2428C67.3417 32.1655 67.4466 32.0993 67.4873 32.0993C67.5658 32.0993 67.5908 32.1779 67.5908 32.2832V37.0426Z" fill="#231F20"/>
<path d="M11.0313 49.6482H11.1308C11.3871 49.6482 11.6592 49.6146 11.6592 49.2442V45.5267C11.6592 45.1563 11.3871 45.1227 11.1308 45.1227H11.0313V44.9066C11.3103 44.9066 11.7375 44.9363 12.0879 44.9363C12.4445 44.9363 12.8717 44.9066 13.2065 44.9066V45.1227H13.1069C12.8505 45.1227 12.5785 45.1563 12.5785 45.5267V49.2442C12.5785 49.6146 12.8505 49.6482 13.1069 49.6482H13.2065V49.8626C12.8647 49.8626 12.436 49.8345 12.0801 49.8345C11.7297 49.8345 11.3103 49.8626 11.0313 49.8626V49.6482Z" fill="#231F20"/>
<path d="M13.176 49.832L13.1767 49.6806H13.1078C12.853 49.6806 12.5489 49.6364 12.5474 49.244V45.5263C12.5489 45.1342 12.853 45.0905 13.1078 45.0905H13.176V44.9401C12.8468 44.9401 12.4337 44.9673 12.0879 44.9673C11.7494 44.9673 11.3387 44.9407 11.0627 44.9401V45.0905H11.1309C11.3848 45.0905 11.689 45.1342 11.689 45.5263V49.244C11.689 49.6364 11.3848 49.6806 11.1309 49.6806H11.0627V49.832C11.3387 49.8281 11.7423 49.8031 12.0802 49.8031C12.4274 49.8031 12.8406 49.8296 13.176 49.832ZM13.2065 49.8928C12.8624 49.8928 12.4344 49.8648 12.0802 49.8648C11.7306 49.8648 11.3112 49.8928 11.0314 49.8928H11V49.6191H11.1309C11.3896 49.6128 11.6255 49.5919 11.627 49.244V45.5263C11.6255 45.1794 11.3896 45.1559 11.1309 45.1514H11V44.8784H11.0314C11.3112 44.8784 11.7384 44.9057 12.0879 44.9057C12.4431 44.9057 12.8695 44.8784 13.2065 44.8784H13.2379V45.1514H13.1078C12.8483 45.1559 12.6108 45.1794 12.6101 45.5263V49.244C12.6108 49.5919 12.8483 49.6128 13.1078 49.6191H13.2379V49.8928H13.2065Z" fill="#231F20"/>
<path d="M18.1078 48.464L18.1219 48.45V45.7884C18.1219 45.2066 17.7151 45.1223 17.5003 45.1223H17.3443V44.9072C17.679 44.9072 18.0082 44.9361 18.343 44.9361C18.6345 44.9361 18.9285 44.9072 19.2193 44.9072V45.1223H19.1143C18.8133 45.1223 18.4769 45.1778 18.4769 46.0224V49.2525C18.4769 49.5005 18.4855 49.7484 18.5208 49.9683H18.2496L14.5757 45.8953V48.818C14.5757 49.4373 14.6964 49.6478 15.2459 49.6478H15.3666V49.8623C15.061 49.8623 14.7536 49.8342 14.4464 49.8342C14.1274 49.8342 13.7981 49.8623 13.4776 49.8623V49.6478H13.577C14.0694 49.6478 14.2198 49.3165 14.2198 48.7478V45.7595C14.2198 45.3618 13.8898 45.1223 13.5701 45.1223H13.4776V44.9072C13.7472 44.9072 14.0262 44.9361 14.2967 44.9361C14.5114 44.9361 14.7192 44.9072 14.9323 44.9072L18.1078 48.464Z" fill="#231F20"/>
<path d="M18.0912 48.4496V48.4473L18.0849 48.4427L18.0912 48.4496ZM18.2495 49.9375H18.4863C18.4541 49.7247 18.4487 49.4875 18.4487 49.2529V46.022C18.4487 45.1703 18.8069 45.0909 19.1141 45.0909H19.1894V44.9394C18.908 44.9411 18.6265 44.9676 18.3436 44.9676C18.0168 44.9676 17.6985 44.9411 17.3756 44.9394V45.0909H17.5002C17.7204 45.0909 18.1523 45.1875 18.1523 45.7888L18.1437 48.4715L18.1289 48.4848L18.1046 48.5073L14.9331 44.9394C14.7206 44.9394 14.5137 44.9676 14.2974 44.9676C14.0364 44.9676 13.7675 44.9411 13.5088 44.9394L13.508 45.0909H13.5707C13.9054 45.0909 14.2503 45.345 14.2503 45.7599V48.7482C14.2503 49.3169 14.0912 49.6786 13.5778 49.681L13.5088 49.6786V49.8322C13.8176 49.8284 14.1351 49.8027 14.4471 49.8027C14.7458 49.8027 15.042 49.8284 15.3359 49.8322V49.681H15.2458C14.6845 49.6786 14.5451 49.4369 14.5451 48.8184V45.8153L18.2495 49.9375ZM18.5208 50L18.2268 49.989L14.6061 45.9752V48.8184C14.6156 49.4369 14.7097 49.6116 15.2458 49.6193H15.3995V49.8923H15.3673C15.0593 49.8923 14.752 49.865 14.4471 49.865C14.1288 49.865 13.8012 49.8923 13.4766 49.8923H13.4453V49.6193H13.5778C14.0496 49.6156 14.1837 49.3145 14.19 48.7482V45.7599C14.1884 45.3824 13.8764 45.1523 13.5707 45.1515H13.4453V44.878H13.4766C13.7502 44.878 14.0285 44.9061 14.2974 44.9061C14.509 44.9061 14.716 44.878 14.9565 44.8889L18.0912 48.399V45.7888C18.0873 45.2241 17.7095 45.1563 17.5002 45.1515H17.3121V44.878H17.3442C17.6805 44.878 18.0097 44.9061 18.3436 44.9061C18.6329 44.9061 18.926 44.878 19.22 44.878H19.2521V45.1515H19.1141C18.8186 45.1603 18.5177 45.1867 18.509 46.022V49.2529C18.509 49.4993 18.5161 49.7472 18.5506 49.964L18.5568 50H18.5208Z" fill="#231F20"/>
<path d="M20.2881 45.2626C19.7527 45.2626 19.733 45.3905 19.6249 45.9082H19.4117C19.4407 45.7103 19.4753 45.5112 19.498 45.3047C19.5254 45.1067 19.5402 44.907 19.5402 44.7026H19.7119C19.7692 44.9156 19.9471 44.907 20.1399 44.907H23.821C24.013 44.907 24.1917 44.9008 24.2067 44.6878L24.3759 44.7175C24.35 44.907 24.321 45.0996 24.2991 45.2915C24.2841 45.4824 24.2841 45.6752 24.2841 45.8662L24.071 45.9457C24.0569 45.682 24.02 45.2626 23.5426 45.2626H22.3731V49.0386C22.3731 49.5869 22.6232 49.6484 22.965 49.6484H23.0998V49.862C22.8223 49.862 22.3222 49.8342 21.9372 49.8342C21.5101 49.8342 21.0092 49.862 20.731 49.862V49.6484H20.8666C21.2601 49.6484 21.4584 49.6142 21.4584 49.0542V45.2626H20.2881Z" fill="#231F20"/>
<path d="M23.1012 49.8924C22.8198 49.8924 22.3205 49.8644 21.9372 49.8644C21.51 49.8644 21.0122 49.8924 20.7308 49.8924H20.701V49.6187H20.8672C21.2607 49.6094 21.419 49.6047 21.4269 49.054V45.2929H20.2879L20.2881 45.2626L20.2879 45.2328H21.4896V49.054C21.4896 49.6227 21.2592 49.6812 20.8672 49.6812H20.7622V49.8308C21.0444 49.8284 21.5233 49.803 21.9372 49.803C22.3096 49.803 22.7861 49.8284 23.0683 49.8308V49.6812H22.9648C22.62 49.6812 22.3408 49.5976 22.3408 49.0386V45.2328H23.5425C24.0215 45.2336 24.0841 45.6376 24.0991 45.9012L24.2551 45.8443C24.2551 45.6603 24.2559 45.4747 24.2676 45.2866C24.2879 45.1057 24.3146 44.9241 24.3412 44.7424L24.2331 44.7244C24.1978 44.9304 23.9979 44.9421 23.82 44.9397H20.1029C19.9345 44.9397 19.7526 44.9312 19.6891 44.7337H19.5699C19.5699 44.9304 19.5558 45.1197 19.5276 45.31C19.5072 45.5044 19.4759 45.6921 19.4492 45.8777H19.6013C19.6962 45.385 19.7565 45.2243 20.2879 45.2328L20.2881 45.2626L20.2879 45.2929C19.7612 45.3037 19.773 45.3911 19.6553 45.916L19.6514 45.9402H19.3755L19.3802 45.9036C19.4077 45.7056 19.4453 45.5065 19.4673 45.3C19.4954 45.1035 19.5095 44.9061 19.5095 44.7025V44.6714H19.7362L19.7408 44.694C19.7902 44.8734 19.9211 44.8743 20.1029 44.878H23.82C24.0175 44.8743 24.1633 44.8711 24.175 44.6853L24.1774 44.6527L24.2095 44.659L24.4103 44.6901L24.4071 44.7205C24.3789 44.9116 24.3507 45.1035 24.3302 45.2929C24.3154 45.4832 24.3154 45.6751 24.3154 45.8661V45.8878L24.295 45.8965L24.0418 45.9886L24.0411 45.9455C24.0215 45.6796 23.9933 45.2929 23.5425 45.2929H22.4036V49.0386C22.4106 49.5743 22.6245 49.6118 22.9648 49.6187H23.1302V49.8924H23.1012Z" fill="#231F20"/>
<path d="M24.6051 49.6482H24.7046C24.9609 49.6482 25.2321 49.6146 25.2321 49.2442V45.5267C25.2321 45.1563 24.9609 45.1227 24.7046 45.1227H24.6051V44.9066C25.0385 44.9066 25.7833 44.9363 26.3805 44.9363C26.9809 44.9363 27.7217 44.9066 28.2053 44.9066C28.1935 45.213 28.2006 45.6826 28.2218 45.9946L28.0063 46.0515C27.9726 45.5905 27.8864 45.2217 27.1369 45.2217H26.1477V47.0793H26.9943C27.423 47.0793 27.5163 46.8399 27.5579 46.4563H27.7711C27.7577 46.733 27.7499 47.0091 27.7499 47.286C27.7499 47.5566 27.7577 47.8256 27.7711 48.0946L27.5579 48.1375C27.5163 47.7118 27.4943 47.435 27.0013 47.435H26.1477V49.0882C26.1477 49.5499 26.5599 49.5499 27.0154 49.5499C27.8729 49.5499 28.25 49.493 28.464 48.6842L28.663 48.7342C28.5706 49.1116 28.4851 49.4851 28.4209 49.8626C27.9654 49.8626 27.1441 49.8345 26.502 49.8345C25.8593 49.8345 25.0111 49.8626 24.6051 49.8626V49.6482Z" fill="#231F20"/>
<path d="M28.3951 49.8308C28.4562 49.4728 28.5377 49.1141 28.6264 48.7569L28.4852 48.7217C28.2712 49.5165 27.8581 49.5867 27.0154 49.5806C26.5655 49.5806 26.1164 49.5806 26.1141 49.0884V47.4046H27.0014C27.4999 47.3985 27.5493 47.6987 27.5846 48.1027L27.739 48.0707C27.7264 47.8094 27.7194 47.5459 27.7194 47.2862C27.7194 47.0201 27.7264 46.7543 27.739 46.4851H27.5846C27.5454 46.8565 27.4302 47.1153 26.9935 47.1107H26.1141V45.1891H27.137C27.8792 45.1851 28.0032 45.5666 28.0337 46.0109L28.1873 45.9696C28.1755 45.7692 28.1686 45.5143 28.1686 45.2772C28.1686 45.1533 28.1709 45.0401 28.174 44.9397C27.6897 44.9411 26.9669 44.9677 26.3805 44.9677C25.795 44.9677 25.0723 44.9411 24.6357 44.9397V45.0908H24.7047C24.9594 45.0908 25.2627 45.1345 25.2644 45.5259V49.2444C25.2627 49.6357 24.9594 49.678 24.7047 49.681H24.6357V49.8308C25.0503 49.8292 25.8757 49.8027 26.5021 49.8027C27.1315 49.8027 27.9342 49.8292 28.3951 49.8308ZM28.4209 49.8924C27.9632 49.8924 27.1432 49.8636 26.5021 49.8636C25.8594 49.8636 25.0128 49.8924 24.6051 49.8924H24.5738V49.6195H24.7047C24.9625 49.6148 25.1986 49.5914 25.2009 49.2444V45.5259C25.1986 45.1806 24.9625 45.1571 24.7047 45.1509H24.5738V44.878H24.6051C25.0393 44.878 25.7833 44.9061 26.3805 44.9061C26.9794 44.9061 27.7202 44.878 28.2054 44.878H28.2376V44.9092C28.2312 45.016 28.2289 45.1416 28.2289 45.2772C28.2289 45.5214 28.2376 45.7896 28.2508 45.9916V46.0173L28.2281 46.0244L27.9773 46.0898L27.9765 46.0525C27.9342 45.5931 27.873 45.2577 27.137 45.2516H26.1759V47.0482H26.9935C27.4058 47.0451 27.478 46.8354 27.5265 46.4525L27.5296 46.4252H27.804V46.4563C27.7891 46.7331 27.7805 47.0093 27.7805 47.2862C27.7805 47.5544 27.7891 47.8242 27.804 48.0948V48.1191L27.7782 48.1252L27.5296 48.1737L27.5265 48.1409C27.478 47.708 27.4756 47.471 27.0014 47.4655L26.1759 47.4639V49.0884C26.1767 49.5197 26.5499 49.5173 27.0154 49.5197C27.8754 49.515 28.2187 49.4728 28.4335 48.6757L28.4406 48.6468L28.4711 48.6532L28.6991 48.7117L28.6929 48.7413C28.6004 49.1157 28.5158 49.4924 28.4515 49.8666L28.4468 49.8924H28.4209Z" fill="#231F20"/>
<path d="M30.54 47.3066H30.8882C31.6022 47.3066 31.987 47.0384 31.987 46.2001C31.987 45.5698 31.5801 45.1636 30.9454 45.1636C30.7297 45.1636 30.6388 45.1861 30.54 45.1925V47.3066ZM29.6268 45.6603C29.6268 45.1417 29.3415 45.1221 29.1204 45.1221H28.9904V44.907C29.2184 44.907 29.6613 44.9359 30.0971 44.9359C30.5235 44.9359 30.8668 44.907 31.2462 44.907C32.143 44.907 32.9418 45.1488 32.9418 46.1578C32.9418 46.7959 32.5153 47.1856 31.9518 47.4079L33.1723 49.2226C33.3713 49.5236 33.5124 49.6071 33.8628 49.6484V49.862C33.6276 49.862 33.3995 49.8342 33.1643 49.8342C32.9418 49.8342 32.7143 49.862 32.4934 49.862C31.9447 49.1463 31.4729 48.3789 31.0096 47.5615H30.54V49.0807C30.54 49.629 30.7955 49.6484 31.1232 49.6484H31.2533V49.862C30.845 49.862 30.4319 49.8342 30.025 49.8342C29.6833 49.8342 29.3477 49.862 28.9904 49.862V49.6484H29.1204C29.3823 49.6484 29.6268 49.5292 29.6268 49.2655V45.6603Z" fill="#231F20"/>
<path d="M30.8881 47.2763C31.5936 47.2695 31.9502 47.0261 31.9564 46.2009C31.9534 45.5818 31.5654 45.1972 30.9446 45.1935C30.7517 45.1935 30.6616 45.2107 30.5706 45.2207V47.2763H30.8881ZM30.5079 47.3364V45.163L30.5345 45.1606C30.6326 45.1529 30.7282 45.1342 30.9446 45.1342C31.5936 45.1342 32.0168 45.5543 32.0184 46.2009C32.016 47.0479 31.6069 47.3364 30.8881 47.3364H30.5079ZM31.026 47.5313L31.0346 47.5469C31.4987 48.3634 31.9683 49.1293 32.4934 49.832C32.7113 49.832 32.941 49.8031 33.1621 49.8031C33.3902 49.8031 33.6105 49.8273 33.8322 49.8304V49.6745C33.4967 49.6346 33.3407 49.5349 33.1464 49.2408L31.9039 47.3925L31.9399 47.3777C32.4982 47.1595 32.9112 46.7804 32.912 46.1564C32.9112 45.1731 32.1415 44.943 31.2463 44.9401C30.8693 44.9401 30.5252 44.9673 30.0972 44.9673C29.6762 44.9673 29.2545 44.9407 29.0209 44.9401V45.0912H29.1197C29.3407 45.0912 29.6551 45.1271 29.6551 45.6605V49.2657C29.6551 49.5513 29.3886 49.6806 29.1197 49.6806H29.0209V49.8304C29.365 49.8296 29.6888 49.8031 30.0234 49.8031C30.4232 49.8031 30.8254 49.8296 31.2203 49.8304V49.6806H31.1232C30.7979 49.6806 30.5079 49.6408 30.5079 49.0809V47.5313H31.026ZM33.8628 49.8921C33.6238 49.8921 33.3971 49.8648 33.1621 49.8648C32.9456 49.8648 32.7169 49.8921 32.4676 49.8818C31.922 49.1667 31.4532 48.4047 30.9917 47.5929H30.5706V49.0809C30.5776 49.6152 30.7932 49.6104 31.1232 49.6191H31.2831V49.8921H31.2509C30.8426 49.8921 30.428 49.8648 30.0234 49.8648C29.6824 49.8648 29.3486 49.8921 28.9896 49.8921H28.9606V49.6191H29.1197C29.3768 49.6167 29.5916 49.5052 29.5939 49.2657V45.6605C29.5892 45.1575 29.3407 45.1582 29.1197 45.1514H28.9606V44.8784H28.9896C29.2224 44.8784 29.6621 44.9057 30.0972 44.9057C30.522 44.9057 30.8654 44.8784 31.2463 44.8784C32.1437 44.8784 32.9724 45.1271 32.9746 46.1564C32.9746 46.7976 32.5482 47.1976 31.9987 47.4206L33.1965 49.2058C33.3957 49.5005 33.5195 49.5747 33.8668 49.6191L33.8926 49.6215V49.8921H33.8628Z" fill="#231F20"/>
<path d="M38.7056 48.464L38.7189 48.45V45.7884C38.7189 45.2066 38.3128 45.1223 38.0996 45.1223H37.9421V44.9072C38.2785 44.9072 38.6045 44.9361 38.9416 44.9361C39.2346 44.9361 39.5263 44.9072 39.8195 44.9072V45.1223H39.7136C39.4134 45.1223 39.0771 45.1778 39.0771 46.0224V49.2525C39.0771 49.5005 39.0835 49.7484 39.1186 49.9683H38.849L35.1751 45.8953V48.818C35.1751 49.4373 35.2966 49.6478 35.8462 49.6478H35.9683V49.8623C35.6604 49.8623 35.3531 49.8342 35.0465 49.8342C34.7253 49.8342 34.3975 49.8623 34.0768 49.8623V49.6478H34.1748C34.6686 49.6478 34.8176 49.3165 34.8176 48.7478V45.7595C34.8176 45.3618 34.4892 45.1223 34.1694 45.1223H34.0768V44.9072C34.3466 44.9072 34.6271 44.9361 34.8969 44.9361C35.1101 44.9361 35.3171 44.9072 35.5311 44.9072L38.7056 48.464Z" fill="#231F20"/>
<path d="M38.6884 48.4496V48.4473L38.6844 48.4427L38.6884 48.4496ZM38.8491 49.9375H39.0819C39.0521 49.7254 39.0458 49.4875 39.0458 49.2529V46.022C39.0458 45.1703 39.4072 45.0925 39.7129 45.0909H39.7872V44.9394C39.5067 44.9411 39.2244 44.9676 38.9415 44.9676C38.6147 44.9676 38.2948 44.9411 37.9736 44.9394V45.0909H38.0997C38.3191 45.0925 38.752 45.1875 38.752 45.7888L38.7416 48.4715L38.7283 48.4848L38.7057 48.5089L35.5309 44.9394C35.3194 44.9394 35.1108 44.9676 34.8968 44.9676C34.632 44.9676 34.3654 44.9411 34.1067 44.9394V45.0909H34.1687C34.5042 45.0925 34.8483 45.3435 34.8483 45.7599V48.7474C34.8483 49.3169 34.686 49.6786 34.1742 49.681H34.1067V49.8308C34.4156 49.8284 34.7331 49.8027 35.0466 49.8027C35.3444 49.8027 35.6408 49.8284 35.9362 49.8308V49.681H35.8462C35.284 49.681 35.1437 49.4377 35.1422 48.8184V45.8153L38.8491 49.9375ZM39.1187 50L38.8255 49.989L35.2057 45.9752V48.8184C35.2143 49.4377 35.3084 49.6116 35.8462 49.6193H35.9974V49.8923H35.9668C35.6579 49.8923 35.3515 49.8634 35.0466 49.8634C34.7275 49.8634 34.3967 49.8923 34.0769 49.8923H34.0431V49.6193H34.1742C34.6453 49.6171 34.7816 49.3145 34.7863 48.7474V45.7599C34.7847 45.3808 34.4752 45.1523 34.1687 45.1515H34.0431V44.878H34.0769C34.3483 44.878 34.628 44.9061 34.8968 44.9061C35.107 44.9061 35.313 44.878 35.5522 44.8865L38.6884 48.399V45.7888C38.6876 45.2241 38.3065 45.1547 38.0997 45.1515H37.9108V44.878H37.9422C38.2799 44.878 38.6083 44.9061 38.9415 44.9061C39.2315 44.9061 39.5248 44.878 39.8186 44.878H39.8492V45.1515H39.7129C39.4189 45.1586 39.1155 45.1867 39.1078 46.022V49.2529C39.1078 49.4993 39.1139 49.7451 39.1501 49.964L39.1533 50H39.1187Z" fill="#231F20"/>
<path d="M42.0086 45.7028H41.9945L41.3305 47.7118H42.6638L42.0086 45.7028ZM40.9683 48.8473C40.8954 49.0882 40.8084 49.2746 40.8084 49.4001C40.8084 49.614 41.1102 49.6482 41.3446 49.6482H41.4237V49.8619C41.1368 49.8478 40.8454 49.8345 40.5591 49.8345C40.302 49.8345 40.0465 49.8478 39.7902 49.8619V49.6482H39.8317C40.1099 49.6482 40.3467 49.4851 40.451 49.1872L41.5937 45.9315C41.6863 45.6678 41.8164 45.3138 41.858 45.0494C42.0862 44.9723 42.3721 44.831 42.5078 44.7452C42.5297 44.7375 42.5408 44.7319 42.5642 44.7319C42.5847 44.7319 42.5996 44.7319 42.6145 44.7523C42.6356 44.8092 42.6568 44.873 42.6795 44.9299L43.9909 48.6421C44.0763 48.8902 44.1625 49.1536 44.2543 49.3667C44.3403 49.5648 44.4909 49.6482 44.7261 49.6482H44.7677V49.8619C44.4478 49.8478 44.1264 49.8345 43.7848 49.8345C43.436 49.8345 43.0786 49.8478 42.7156 49.8619V49.6482H42.7939C42.957 49.6482 43.2353 49.6217 43.2353 49.4438C43.2353 49.3511 43.1718 49.1592 43.0909 48.9323L42.8136 48.1086H41.1942L40.9683 48.8473Z" fill="#231F20"/>
<path d="M41.3719 47.6817H42.6205L41.9997 45.7787L41.3719 47.6817ZM41.2864 47.7432L41.9698 45.6728H42.0082H42.0295L42.7067 47.7432H41.2864ZM42.7451 49.8284C43.0971 49.8176 43.4444 49.803 43.7847 49.803C44.1169 49.803 44.4266 49.8176 44.7369 49.8284V49.6812H44.726C44.4828 49.6835 44.3151 49.5859 44.2257 49.3785C44.1332 49.1633 44.0463 48.8996 43.9625 48.6518L42.6495 44.9397C42.6274 44.8828 42.6056 44.8187 42.5883 44.7681C42.5814 44.761 42.5837 44.761 42.5774 44.761H42.5641C42.55 44.761 42.5414 44.765 42.5233 44.7704C42.3855 44.8584 42.0984 44.999 41.8868 45.0543C41.8437 45.3241 41.7152 45.6773 41.622 45.9402L40.4814 49.1983C40.3724 49.5065 40.1224 49.6812 39.8316 49.6812H39.8205V49.8284C40.0644 49.8176 40.3122 49.803 40.5597 49.803C40.8357 49.803 41.117 49.8176 41.3897 49.8284V49.6812H41.3444C41.1116 49.678 40.787 49.6531 40.7792 49.4011C40.7792 49.2599 40.8655 49.0775 40.9368 48.839L41.172 48.0794H42.8337L43.1197 48.9224C43.2006 49.1509 43.2656 49.3396 43.2656 49.444C43.2546 49.6616 42.9544 49.6772 42.7937 49.6812H42.7451V49.8284ZM44.7659 49.8924C44.447 49.8792 44.1262 49.8636 43.7847 49.8636C43.4358 49.8636 43.0806 49.8792 42.7155 49.8924L42.6833 49.8948V49.6163H42.7937C42.9574 49.6163 43.2022 49.5806 43.2022 49.444C43.2038 49.3629 43.1418 49.1681 43.0627 48.9428L42.7915 48.14H41.2175L40.9948 48.8562C40.9219 49.0993 40.838 49.2864 40.838 49.4011C40.8404 49.5743 41.1076 49.6163 41.3444 49.6163H41.4533V49.8948L41.4211 49.8924C41.1358 49.8792 40.8434 49.8636 40.5597 49.8636C40.3034 49.8636 40.0463 49.8792 39.7909 49.8924L39.7595 49.8948V49.6163H39.8316C40.0974 49.6163 40.3183 49.4652 40.421 49.1773L41.564 45.9206C41.6579 45.6572 41.7857 45.3037 41.8477 45.0215C42.0712 44.9444 42.3571 44.8015 42.4957 44.7159C42.5162 44.7088 42.5351 44.6987 42.5641 44.6987C42.5814 44.6979 42.6205 44.7033 42.6417 44.7416C42.6636 44.7993 42.6855 44.8624 42.7067 44.9195L44.0213 48.6322C44.1051 48.8803 44.1906 49.1422 44.2829 49.3513C44.3652 49.5416 44.4971 49.6163 44.726 49.6163H44.7997V49.8948L44.7659 49.8924Z" fill="#231F20"/>
<path d="M45.0835 45.2626C44.5471 45.2626 44.5268 45.3905 44.4196 45.9082H44.2048C44.2336 45.7103 44.2698 45.5112 44.2908 45.3047C44.3198 45.1067 44.3339 44.907 44.3339 44.7026H44.505C44.5622 44.9156 44.7408 44.907 44.9329 44.907H48.6139C48.806 44.907 48.9832 44.9008 48.9981 44.6878L49.1695 44.7175C49.1421 44.907 49.1149 45.0996 49.0913 45.2915C49.074 45.4824 49.074 45.6752 49.074 45.8662L48.8624 45.9457C48.8507 45.682 48.8129 45.2626 48.3357 45.2626H47.1654V49.0386C47.1654 49.5869 47.4153 49.6484 47.758 49.6484H47.8927V49.862C47.6153 49.862 47.1159 49.8342 46.7303 49.8342C46.3029 49.8342 45.8023 49.862 45.5232 49.862V49.6484H45.6595C46.0538 49.6484 46.2537 49.6142 46.2537 49.0542V45.2626H45.0835Z" fill="#231F20"/>
<path d="M47.8917 49.8924C47.6136 49.8924 47.1141 49.8644 46.7303 49.8644C46.3038 49.8644 45.8051 49.8924 45.5232 49.8924H45.4932V49.6187H45.6595C46.0531 49.6094 46.2098 49.6047 46.2199 49.054V45.2929H45.0826L45.0835 45.2626L45.0826 45.2328H46.2819V49.054C46.2819 49.6227 46.0523 49.678 45.6595 49.6812H45.5544V49.8316C45.8367 49.8284 46.3155 49.803 46.7303 49.803C47.1026 49.803 47.5798 49.8284 47.8621 49.8316L47.8605 49.6812H47.7562C47.4129 49.678 47.1356 49.5976 47.1348 49.0386V45.2328H48.3348C48.8153 45.2336 48.8763 45.6376 48.8906 45.9012L49.0458 45.8443C49.0458 45.6603 49.0458 45.4747 49.0605 45.2883C49.0802 45.1057 49.1084 44.9241 49.1334 44.7438L49.0269 44.7244C48.9924 44.9304 48.7927 44.9421 48.6129 44.9397H44.896C44.7275 44.9405 44.5466 44.9312 44.4812 44.7314H44.3646C44.3622 44.9304 44.3497 45.1197 44.3207 45.31C44.301 45.5058 44.2664 45.6921 44.24 45.8777H44.3936C44.4878 45.385 44.548 45.2227 45.0826 45.2328L45.0835 45.2626L45.0826 45.2929C44.5527 45.3023 44.5652 45.3911 44.4492 45.916L44.4436 45.9402H44.1677L44.1725 45.9036C44.2015 45.7056 44.2376 45.5065 44.2587 45.3023C44.2877 45.1035 44.301 44.9061 44.301 44.7025V44.6714H44.5269L44.5331 44.694C44.5833 44.8734 44.7148 44.8743 44.896 44.878H48.6129C48.8106 44.8743 48.9556 44.8711 48.9673 44.6853L48.9681 44.6527L49.0025 44.659L49.2057 44.6901L49.1994 44.7205C49.1688 44.9116 49.1429 45.1035 49.1219 45.2929C49.1084 45.4832 49.1084 45.6751 49.1084 45.8661V45.8878L49.0865 45.8965L48.8334 45.9886V45.9455C48.8153 45.6796 48.7861 45.2929 48.3348 45.2929H47.1958V49.0386C47.203 49.5743 47.4169 49.6118 47.7562 49.6187H47.9233V49.8924H47.8917Z" fill="#231F20"/>
<path d="M49.4324 49.6482H49.5319C49.7906 49.6482 50.0602 49.6146 50.0602 49.2442V45.5267C50.0602 45.1563 49.7906 45.1227 49.5319 45.1227H49.4324V44.9066C49.7107 44.9066 50.1379 44.9363 50.4875 44.9363C50.8441 44.9363 51.2721 44.9066 51.609 44.9066V45.1227H51.5095C51.251 45.1227 50.9788 45.1563 50.9788 45.5267V49.2442C50.9788 49.6146 51.251 49.6482 51.5095 49.6482H51.609V49.8626C51.2659 49.8626 50.838 49.8345 50.4812 49.8345C50.1307 49.8345 49.7107 49.8626 49.4324 49.8626V49.6482Z" fill="#231F20"/>
<path d="M51.576 49.8308V49.681H51.5095C51.2532 49.681 50.9498 49.6357 50.9498 49.2444V45.5259C50.9498 45.1345 51.2532 45.0908 51.5095 45.0908H51.576V44.9397C51.2468 44.9411 50.8354 44.9677 50.4873 44.9677C50.1488 44.9677 49.7395 44.9411 49.4638 44.9397V45.0908H49.5317C49.785 45.0908 50.0908 45.1345 50.0908 45.5259V49.2444C50.0908 49.6357 49.785 49.681 49.5317 49.681H49.4638V49.8308C49.7395 49.8268 50.1418 49.8027 50.4812 49.8027C50.8276 49.8027 51.2407 49.8284 51.576 49.8308ZM51.609 49.8924C51.2641 49.8924 50.837 49.8636 50.4812 49.8636C50.1323 49.8636 49.7105 49.8924 49.4322 49.8924H49.4026V49.6195H49.5317C49.7904 49.6148 50.0266 49.5914 50.0272 49.2444V45.5259C50.0266 45.1806 49.7904 45.1563 49.5317 45.1509H49.4026V44.878H49.4322C49.7105 44.878 50.1393 44.9061 50.4873 44.9061C50.8441 44.9061 51.2711 44.878 51.609 44.878H51.638V45.1509H51.5095C51.2484 45.1563 51.0132 45.1806 51.011 45.5259V49.2444C51.0132 49.5914 51.2484 49.6148 51.5095 49.6195H51.638V49.8924H51.609Z" fill="#231F20"/>
<path d="M54.5608 49.6565C55.9465 49.6565 56.1859 48.4423 56.1859 47.4082C56.1859 46.3703 55.6244 45.1148 54.44 45.1148C53.1921 45.1148 52.8214 46.2212 52.8214 47.1712C52.8214 48.4423 53.4061 49.6565 54.5608 49.6565ZM54.4543 44.8019C55.9741 44.8019 57.1868 45.7394 57.1868 47.2514C57.1868 48.8839 56.0102 49.9686 54.4902 49.9686C52.9758 49.9686 51.8235 48.9477 51.8235 47.42C51.8235 45.9461 52.9712 44.8019 54.4543 44.8019Z" fill="#231F20"/>
<path d="M52.789 47.1712C52.7914 46.2167 53.1675 45.0828 54.4398 45.0828C55.6524 45.0849 56.2168 46.3647 56.2176 47.4082C56.2168 48.4423 55.9713 49.6862 54.5605 49.6862L54.5608 49.6565L54.5605 49.6262C55.919 49.6252 56.1533 48.4423 56.1564 47.4082C56.1564 46.3788 55.599 45.1466 54.4398 45.1451C53.2162 45.1466 52.854 46.2268 52.8516 47.1712C52.8532 48.4368 53.4325 49.6228 54.5605 49.6262L54.5608 49.6565L54.5605 49.6862C53.3777 49.6845 52.7914 48.4492 52.789 47.1712ZM51.7903 47.4206C51.7943 45.9281 52.9551 44.7731 54.4539 44.7699L54.4543 44.8019L54.4539 44.8331C52.9857 44.8331 51.8507 45.9608 51.8507 47.4206C51.8531 48.9297 52.9919 49.9365 54.4898 49.9373C55.9941 49.9365 57.1536 48.8664 57.1573 47.2498C57.1565 45.7572 55.9621 44.8348 54.4539 44.8331L54.4543 44.8019L54.4539 44.7699C55.9856 44.7731 57.2138 45.7198 57.2161 47.2498C57.2153 48.8992 56.0247 49.9966 54.4898 49.9996C52.9646 49.9966 51.7943 48.9626 51.7903 47.4206Z" fill="#231F20"/>
<path d="M61.9946 48.464L62.0085 48.45V45.7884C62.0085 45.2066 61.6016 45.1223 61.3852 45.1223H61.2317V44.9072C61.565 44.9072 61.8948 44.9361 62.2288 44.9361C62.5236 44.9361 62.8153 44.9072 63.1067 44.9072V45.1223H63C62.6992 45.1223 62.3637 45.1778 62.3637 46.0224V49.2525C62.3637 49.5005 62.3722 49.7484 62.4076 49.9683H62.1356L58.4622 45.8953V48.818C58.4622 49.4373 58.583 49.6478 59.1333 49.6478H59.2541V49.8623C58.9476 49.8623 58.6418 49.8342 58.3339 49.8342C58.0133 49.8342 57.6839 49.8623 57.3626 49.8623V49.6478H57.4637C57.9574 49.6478 58.1042 49.3165 58.1042 48.7478V45.7595C58.1042 45.3618 57.778 45.1223 57.4552 45.1223H57.3626V44.9072C57.6346 44.9072 57.9121 44.9361 58.1841 44.9361C58.3973 44.9361 58.6043 44.9072 58.8183 44.9072L61.9946 48.464Z" fill="#231F20"/>
<path d="M61.9765 48.4496V48.4473L61.9703 48.4427L61.9765 48.4496ZM62.1358 49.9375H62.3716C62.3402 49.7247 62.3341 49.4875 62.3341 49.2529V46.022C62.3341 45.1695 62.6945 45.0925 63.0002 45.0909H63.0771V44.9394C62.794 44.9411 62.5127 44.9676 62.2274 44.9676C61.9046 44.9676 61.5853 44.9411 61.2617 44.9394V45.0909H61.3854C61.6081 45.0925 62.0385 45.1891 62.0385 45.7888L62.0299 48.4715L62.0174 48.4848L61.9946 48.5089L58.8182 44.9394C58.6085 44.9394 58.3999 44.9676 58.1843 44.9676C57.9209 44.9676 57.6519 44.9411 57.3942 44.9394V45.0909H57.4552C57.7917 45.0925 58.1364 45.3435 58.1364 45.7599V48.7482C58.1364 49.3169 57.9773 49.6786 57.4639 49.681H57.3942V49.8308C57.7037 49.8284 58.0204 49.8027 58.3347 49.8027C58.6327 49.8027 58.9289 49.8284 59.2237 49.8308V49.681H59.1312C58.5715 49.681 58.432 49.4377 58.432 48.8184V45.8153L62.1358 49.9375ZM62.4078 50L62.1122 49.989L58.4924 45.9752V48.8184C58.501 49.4377 58.5957 49.6108 59.1312 49.6171H59.2863V49.8923H59.2551C58.9462 49.8923 58.6397 49.865 58.3347 49.865C58.015 49.865 57.6872 49.8923 57.3628 49.8923H57.3338V49.6171H57.4639C57.9342 49.6156 58.0699 49.3145 58.0736 48.7482V45.7599C58.0736 45.3808 57.7633 45.1523 57.4552 45.1515H57.3338V44.878H57.3628C57.6364 44.878 57.9147 44.9061 58.1843 44.9061C58.3953 44.9061 58.6005 44.878 58.8435 44.8889L61.9765 48.399V45.7888C61.9749 45.2241 61.5964 45.1563 61.3854 45.1515H61.1999V44.878H61.2311C61.5664 44.878 61.8974 44.9061 62.2274 44.9061C62.5212 44.9061 62.8105 44.878 63.1067 44.878H63.1375V45.1515H63.0002C62.7072 45.1603 62.4028 45.1867 62.3967 46.022V49.2529C62.3967 49.4993 62.4028 49.7472 62.4358 49.964L62.4422 50H62.4078Z" fill="#231F20"/>
<path d="M65.295 45.7028H65.2811L64.6172 47.7118H65.9534L65.295 45.7028ZM64.2534 48.8473C64.1835 49.0882 64.0974 49.2746 64.0974 49.4001C64.0974 49.614 64.399 49.6482 64.6311 49.6482H64.7111V49.8619C64.425 49.8478 64.1334 49.8345 63.8473 49.8345C63.5879 49.8345 63.3332 49.8478 63.0785 49.8619V49.6482H63.1176C63.3973 49.6482 63.6341 49.4851 63.74 49.1872L64.8828 45.9315C64.9754 45.6678 65.1031 45.3138 65.1454 45.0494C65.3735 44.9723 65.6588 44.831 65.7945 44.7452C65.8163 44.7375 65.8312 44.7319 65.8525 44.7319C65.8727 44.7319 65.8862 44.7319 65.9019 44.7523C65.9238 44.8092 65.9443 44.873 65.9677 44.9299L67.2789 48.6421C67.3629 48.8902 67.4508 49.1536 67.5431 49.3667C67.6278 49.5648 67.7792 49.6482 68.0144 49.6482H68.0565V49.8619C67.736 49.8478 67.4138 49.8345 67.0721 49.8345C66.7226 49.8345 66.365 49.8478 66.0015 49.8619V49.6482H66.0805C66.2435 49.6482 66.5234 49.6217 66.5234 49.4438C66.5234 49.3511 66.4584 49.1592 66.3791 48.9323L66.1024 48.1086H64.4846L64.2534 48.8473Z" fill="#231F20"/>
<path d="M64.6612 47.68H65.9098L65.2874 45.7803L64.6612 47.68ZM64.574 47.7408L65.2616 45.6728H65.2951H65.3188L65.9929 47.7408H64.574ZM66.0328 49.8292C66.3846 49.8176 66.7327 49.803 67.073 49.803C67.4038 49.803 67.7143 49.8176 68.0247 49.8284V49.6812H68.0137C67.7723 49.6812 67.6029 49.5859 67.5143 49.3785C67.4187 49.1633 67.3341 48.8996 67.2495 48.6518L65.9378 44.9397C65.9168 44.8828 65.8933 44.8187 65.876 44.7704C65.8707 44.761 65.8707 44.761 65.8651 44.761H65.8526C65.8377 44.761 65.8298 44.765 65.8111 44.7704C65.673 44.8571 65.3885 44.9997 65.1746 45.0543C65.1322 45.3241 65.0019 45.6773 64.9111 45.9402L63.7682 49.1983C63.6593 49.5065 63.4124 49.6812 63.1185 49.6812H63.1066V49.8284C63.3538 49.8176 63.5997 49.803 63.8482 49.803C64.1242 49.803 64.4049 49.8176 64.6815 49.8284V49.6812H64.6312C64.4001 49.678 64.0747 49.6531 64.0662 49.4003C64.0676 49.26 64.1564 49.0784 64.2261 48.839L64.4597 48.0794H66.1246L66.4091 48.9224C66.4891 49.1509 66.5525 49.3396 66.5525 49.444C66.5424 49.6616 66.243 49.6772 66.0791 49.6812H66.0328V49.8292ZM68.0552 49.8924C67.7338 49.88 67.4116 49.8644 67.073 49.8644C66.7242 49.8644 66.3668 49.88 66.0032 49.8924L65.9716 49.8948V49.6195H66.0791C66.2452 49.6195 66.4915 49.5806 66.4929 49.444C66.4937 49.3629 66.4303 49.1688 66.3489 48.9428L66.0783 48.14H64.5037L64.2841 48.8562C64.2128 49.1001 64.1264 49.2864 64.129 49.4003C64.129 49.5743 64.3962 49.6195 64.6312 49.6195H64.7411V49.8948L64.7089 49.8924C64.4244 49.88 64.1313 49.8644 63.8482 49.8644C63.5912 49.8644 63.3357 49.88 63.0786 49.8924L63.0472 49.8948V49.6195H63.1185C63.3842 49.6163 63.6077 49.4643 63.711 49.1773L64.8531 45.9206C64.9439 45.6572 65.0726 45.3037 65.1344 45.0215C65.3595 44.9444 65.6466 44.8015 65.7837 44.7159C65.8025 44.7088 65.8244 44.7003 65.8526 44.7003C65.8707 44.6979 65.9082 44.7033 65.9309 44.7424C65.9513 44.7985 65.9724 44.8624 65.9951 44.9195L67.3083 48.6322C67.3929 48.8803 67.4791 49.1422 67.5723 49.3529C67.6563 49.5416 67.7839 49.6163 68.0137 49.6195H68.0866V49.8948L68.0552 49.8924Z" fill="#231F20"/>
<path d="M69.8554 49.1667C69.8554 49.4505 70.0536 49.5357 70.2817 49.5645C70.5739 49.5863 70.8948 49.5863 71.2248 49.5506C71.5226 49.5161 71.7813 49.3446 71.9082 49.1667C72.0218 49.01 72.0846 48.8127 72.1299 48.6552H72.3369C72.2571 49.06 72.1575 49.4585 72.0711 49.8624C71.4441 49.8624 70.8155 49.8344 70.1901 49.8344C69.5615 49.8344 68.9327 49.8624 68.3055 49.8624V49.648H68.4037C68.663 49.648 68.9407 49.6143 68.9407 49.173V45.5263C68.9407 45.1559 68.663 45.1225 68.4037 45.1225H68.3055V44.9072C68.6834 44.9072 69.0549 44.9361 69.432 44.9361C69.7966 44.9361 70.1532 44.9072 70.5177 44.9072V45.1225H70.3381C70.0677 45.1225 69.8554 45.1294 69.8554 45.5062V49.1667Z" fill="#231F20"/>
<path d="M72.047 49.8308C72.1294 49.4463 72.2234 49.0689 72.2979 48.6852H72.1515C72.1082 48.8419 72.0448 49.0315 71.9318 49.1851C71.7995 49.3699 71.5344 49.543 71.2249 49.5806C71.0374 49.6007 70.8526 49.6094 70.6786 49.6094C70.5405 49.6094 70.405 49.6031 70.2763 49.5944C70.046 49.5687 69.8201 49.4705 69.8225 49.1671V45.5058C69.8225 45.1102 70.0726 45.0908 70.3385 45.0908H70.4857V44.9397C70.1344 44.9411 69.7864 44.9677 69.4321 44.9677C69.0614 44.9677 68.7 44.9411 68.3357 44.9397V45.0908H68.4038C68.6593 45.0908 68.9704 45.1345 68.9704 45.5252V49.1726C68.9704 49.6319 68.6601 49.681 68.4038 49.681H68.3357V49.8308C68.9507 49.8292 69.5694 49.8027 70.1902 49.8027C70.8095 49.8027 71.4277 49.8292 72.047 49.8308ZM72.0714 49.8924C71.4426 49.8924 70.8157 49.8644 70.1902 49.8644C69.5617 49.8644 68.9329 49.8924 68.3043 49.8924H68.2753V49.6195H68.4038C68.6625 49.6132 68.9086 49.5944 68.9108 49.1726V45.5252C68.9086 45.1806 68.6649 45.1563 68.4038 45.1509H68.2753V44.878H68.3043C68.6845 44.878 69.0552 44.9061 69.4321 44.9061C69.7951 44.9061 70.1517 44.878 70.5178 44.878H70.5461V45.1509H70.3385C70.0615 45.1586 69.8893 45.1462 69.8829 45.5058V49.1671C69.8859 49.4315 70.0593 49.5017 70.2842 49.5345C70.408 49.543 70.5421 49.5478 70.6786 49.5478C70.8526 49.5478 71.0336 49.5393 71.2201 49.5197C71.5102 49.4853 71.7595 49.3192 71.8833 49.1498C71.9932 48.9971 72.0557 48.803 72.0973 48.6478L72.105 48.6235H72.374L72.367 48.6627C72.287 49.0672 72.189 49.4643 72.1028 49.8697L72.0951 49.8924H72.0714Z" fill="#231F20"/>
<path d="M72.13 45.4561H72.2178C72.315 45.4561 72.3597 45.3836 72.3597 45.2658C72.3597 45.1464 72.2884 45.1051 72.2123 45.1051H72.13V45.4561ZM71.8761 45.8507V45.8133C71.9669 45.8009 71.985 45.8048 71.985 45.7461V45.1941C71.985 45.1152 71.9765 45.0887 71.8785 45.0935V45.0545H72.2639C72.3941 45.0545 72.5164 45.1183 72.5164 45.2534C72.5164 45.3656 72.4435 45.4461 72.3392 45.4787L72.4616 45.651C72.5204 45.7267 72.5854 45.8009 72.6285 45.8266V45.8507H72.4821C72.4121 45.8507 72.3512 45.7024 72.2123 45.5067H72.13V45.754C72.13 45.8048 72.1471 45.8009 72.2381 45.8133V45.8507H71.8761ZM72.2492 46.062C72.5854 46.062 72.8432 45.7781 72.8432 45.4561C72.8432 45.1339 72.5901 44.8462 72.2492 44.8462C71.9105 44.8462 71.6534 45.1339 71.6534 45.4561C71.6534 45.7781 71.9105 46.062 72.2492 46.062ZM72.2492 44.7074C72.6788 44.7074 73 45.0365 73 45.4561C73 45.8755 72.6788 46.2007 72.2492 46.2007C71.8205 46.2007 71.4975 45.8755 71.4975 45.4561C71.4975 45.0365 71.8205 44.7074 72.2492 44.7074Z" fill="#231F20"/>
<path d="M27.715 19.6655C27.715 13.0263 33.1241 7.64475 39.7974 7.64475C46.4705 7.64475 51.8798 13.0263 51.8798 19.6655C51.8798 26.3045 46.4705 31.6862 39.7974 31.6862C33.1241 31.6862 27.715 26.3045 27.715 19.6655Z" fill="white"/>
<path d="M47.1046 19.4287C47.0991 16.3498 45.1654 13.7252 42.4399 12.6853V26.1718C45.1654 25.1306 47.0991 22.5083 47.1046 19.4287ZM37.2409 26.1689V12.6861C34.5186 13.7299 32.5871 16.3516 32.5802 19.4287C32.5871 22.5052 34.5186 25.1274 37.2409 26.1689ZM39.8419 8.02958C33.5143 8.03195 28.3876 13.1334 28.3868 19.4287C28.3876 25.7232 33.5143 30.8238 39.8419 30.8246C46.1697 30.8238 51.2979 25.7232 51.2995 19.4287C51.2979 13.1334 46.1697 8.03195 39.8419 8.02958ZM39.8137 31.9012C32.8895 31.9333 27.1905 26.3529 27.1905 19.5585C27.1905 12.1341 32.8895 6.99842 39.8137 7H43.0593C49.9011 6.99842 56.146 12.1311 56.146 19.5585C56.146 26.3497 49.9011 31.9012 43.0593 31.9012H39.8137Z" fill="#264B9A"/>
</svg>
