<svg width="84" height="58" viewBox="0 0 84 58" fill="none" xmlns="http://www.w3.org/2000/svg">
<rect x="0.5" y="0.5" width="83" height="57" rx="3.5" fill="white"/>
<rect x="0.5" y="0.5" width="83" height="57" rx="3.5" stroke="#FAFAFA"/>
<path d="M49.6905 42.0159H34.6992V15.2427H49.6905V42.0159Z" fill="#FF5F00"/>
<path d="M35.66 28.6272C35.66 23.1961 38.2189 18.3583 42.2037 15.2406C39.2897 12.9607 35.612 11.6 31.6152 11.6C22.1531 11.6 14.4829 19.2232 14.4829 28.6272C14.4829 38.0311 22.1531 45.6543 31.6152 45.6543C35.612 45.6543 39.2897 44.2936 42.2037 42.0138C38.2189 38.8961 35.66 34.0582 35.66 28.6272Z" fill="#EB001B"/>
<path d="M69.9094 28.6272C69.9094 38.0311 62.2393 45.6543 52.7771 45.6543C48.7803 45.6543 45.1026 44.2936 42.1875 42.0138C46.1734 38.8961 48.7323 34.0582 48.7323 28.6272C48.7323 23.1961 46.1734 18.3583 42.1875 15.2406C45.1026 12.9607 48.7803 11.6 52.7771 11.6C62.2393 11.6 69.9094 19.2232 69.9094 28.6272Z" fill="#F79E1B"/>
</svg>
