<svg width="84" height="58" viewBox="0 0 84 58" fill="none" xmlns="http://www.w3.org/2000/svg">
<rect x="0.5" y="0.5" width="83" height="57" rx="3.5" fill="white"/>
<rect x="0.5" y="0.5" width="83" height="57" rx="3.5" stroke="#FAFAFA"/>
<rect x="0.5" y="0.5" width="83" height="57" rx="3.5" fill="#006FCF" stroke="#F3F3F3"/>
<path fill-rule="evenodd" clip-rule="evenodd" d="M17.1812 41.8959V29.9559H30.6844L32.1332 31.7241L33.6298 29.9559H82.6432V41.0725C82.6432 41.0725 81.3615 41.884 79.879 41.8959H52.7393L51.1059 40.0138V41.8959H45.7533V38.683C45.7533 38.683 45.0221 39.1315 43.4414 39.1315H41.6195V41.8959H33.5153L32.0686 40.0898L30.5997 41.8959H17.1812ZM1.44824 20.9567L4.48637 14.3103H9.74049L11.4647 18.0333V14.3103H17.996L19.0224 17.0012L20.0175 14.3103H49.3365V15.6631C49.3365 15.6631 50.8778 14.3103 53.4108 14.3103L62.9237 14.3415L64.6181 18.0158V14.3103H70.0839L71.5883 16.4209V14.3103H77.1042V26.2503H71.5883L70.1466 24.1329V26.2503H62.1162L61.3086 24.3682H59.1497L58.3553 26.2503H52.9093C50.7298 26.2503 49.3365 24.9251 49.3365 24.9251V26.2503H41.1253L39.4956 24.3682V26.2503H8.96213L8.15511 24.3682H6.00314L5.20182 26.2503H1.44824V20.9567ZM1.46391 24.7226L5.56168 15.7822H8.66831L12.7622 24.7226H10.0355L9.28337 22.9323H4.88786L4.13177 24.7226H1.46391ZM8.41759 20.9913L7.07778 17.8629L5.73405 20.9913H8.41759ZM13.0442 24.7211V15.7807L16.8354 15.7939L19.0405 21.5581L21.1928 15.7807H24.9536V24.7211H22.5717V18.1334L20.0469 24.7211H17.958L15.4261 18.1334V24.7211H13.0442ZM26.5833 24.7211V15.7807H34.3558V17.7805H28.9903V19.3098H34.2304V21.192H28.9903V22.7801H34.3558V24.7211H26.5833ZM35.7347 24.7226V15.7822H41.0352C42.7915 15.7822 44.3651 16.8013 44.3651 18.6827C44.3651 20.291 43.0384 21.3269 41.7521 21.4288L44.8862 24.7226H41.9754L39.1195 21.5464H38.1166V24.7226H35.7347ZM40.8393 17.782H38.1166V19.6642H40.8746C41.352 19.6642 41.9676 19.3171 41.9676 18.7231C41.9676 18.2615 41.4925 17.782 40.8393 17.782ZM47.7695 24.7211H45.3375V15.7807H47.7695V24.7211ZM53.5361 24.7211H53.0112C50.4712 24.7211 48.9291 22.8433 48.9291 20.2877C48.9291 17.6689 50.454 15.7807 53.6615 15.7807H56.2941V17.8982H53.5653C52.2632 17.8982 51.3423 18.8517 51.3423 20.3097C51.3423 22.0411 52.3953 22.7683 53.9122 22.7683H54.539L53.5361 24.7211ZM54.6213 24.7226L58.7191 15.7822H61.8257L65.9196 24.7226H63.1929L62.4408 22.9323H58.0453L57.2892 24.7226H54.6213ZM61.575 20.9913L60.2352 17.8629L58.8915 20.9913H61.575ZM66.1977 24.7211V15.7807H69.226L73.0926 21.3979V15.7807H75.4745V24.7211H72.5442L68.5796 18.9569V24.7211H66.1977ZM18.8109 40.3667V31.4263H26.5833V33.4261H21.2178V34.9554H26.458V36.8376H21.2178V38.4257H26.5833V40.3667H18.8109ZM56.8958 40.3667V31.4263H64.6683V33.4261H59.3028V34.9554H64.5179V36.8376H59.3028V38.4257H64.6683V40.3667H56.8958ZM26.885 40.3667L30.6693 35.9516L26.7949 31.4263H29.7957L32.1032 34.2239L34.4184 31.4263H37.3018L33.4782 35.8965L37.2696 40.3667H34.2692L32.0287 37.6132L29.8427 40.3667H26.885ZM37.5527 40.3682V31.4278H42.814C44.9729 31.4278 46.2341 32.7335 46.2341 34.4349C46.2341 36.4888 44.626 37.5449 42.5045 37.5449H39.9973V40.3682H37.5527ZM42.6377 33.4497H39.9973V35.5083H42.6299C43.3256 35.5083 43.813 35.0757 43.813 34.479C43.813 33.8439 43.3231 33.4497 42.6377 33.4497ZM47.268 40.3667V31.4263H52.5685C54.3248 31.4263 55.8984 32.4454 55.8984 34.3268C55.8984 35.9351 54.5717 36.971 53.2854 37.0729L56.4195 40.3667H53.5087L50.6528 37.1905H49.6499V40.3667H47.268ZM52.3726 33.4261H49.6499V35.3083H52.4079C52.8853 35.3083 53.5009 34.9612 53.5009 34.3672C53.5009 33.9056 53.0258 33.4261 52.3726 33.4261ZM65.7715 40.3667V38.4257H70.5384C71.2437 38.4257 71.5491 38.068 71.5491 37.6757C71.5491 37.2999 71.2447 36.9199 70.5384 36.9199H68.3843C66.5118 36.9199 65.469 35.8494 65.469 34.2422C65.469 32.8087 66.424 31.4263 69.2064 31.4263H73.8448L72.8419 33.4379H68.8303C68.0635 33.4379 67.8274 33.8155 67.8274 34.1761C67.8274 34.5467 68.1191 34.9554 68.7049 34.9554H70.9615C73.0488 34.9554 73.9545 36.0664 73.9545 37.5214C73.9545 39.0855 72.9452 40.3667 70.8478 40.3667H65.7715ZM74.1645 40.3667V38.4257H78.9314C79.6367 38.4257 79.9421 38.068 79.9421 37.6757C79.9421 37.2999 79.6377 36.9199 78.9314 36.9199H76.7773C74.9048 36.9199 73.862 35.8494 73.862 34.2422C73.862 32.8087 74.817 31.4263 77.5994 31.4263H82.2378L81.2349 33.4379H77.2233C76.4565 33.4379 76.2204 33.8155 76.2204 34.1761C76.2204 34.5467 76.5121 34.9554 77.0979 34.9554H79.3545C81.4418 34.9554 82.3475 36.0664 82.3475 37.5214C82.3475 39.0855 81.3382 40.3667 79.2408 40.3667H74.1645Z" fill="white"/>
</svg>
