<svg width="800" height="400" viewBox="0 0 800 400" fill="none" xmlns="http://www.w3.org/2000/svg">
<path d="M395.97 188.042C352.59 188.042 313.08 193.222 294.24 201.432C313.34 209.822 353.24 215.792 399.39 216.132C445.93 216.482 486.16 211.022 505.2 202.812C485.73 194.172 444.57 188.393 400.05 188.062L395.97 188.042Z" fill="#2DC495"/>
<path d="M506.04 202.083C486.63 193.293 445.04 187.393 400.04 187.083C354.65 186.753 312.76 192.082 293.4 200.722C285.86 204.072 282.03 207.722 282 211.662C281.89 225.942 333.58 237.513 399.66 238.003H404C468 238.003 517.6 227.362 517.71 213.402C517.75 209.412 513.82 205.603 506.04 202.083ZM399.39 216.083C353.22 215.743 313.34 209.772 294.24 201.382C313.08 193.172 352.59 187.993 395.97 187.993H400.05C444.57 188.323 485.73 194.103 505.2 202.743C486.16 211.023 445.93 216.492 399.42 216.132L399.39 216.083Z" fill="#2B266D"/>
<path d="M403.07 361.073C382.37 361.073 307.28 362.542 299.59 363.272C291.9 364.002 286.42 369.133 292.34 369.133C298.26 369.133 494.71 371.353 504.17 368.413C513.63 365.473 505.36 363.273 493.53 361.803C481.7 360.333 403.07 361.073 403.07 361.073Z" fill="#2B266D"/>
<path d="M461.17 355.492C460.29 354.852 459.17 354.163 457.99 353.423C453.85 350.833 449.17 347.892 449.58 344.872C449.58 344.632 449.66 344.393 449.69 344.153L413.22 349.412L412.99 365.042L467.61 365.302C467.59 363.942 467.04 359.682 461.17 355.492Z" fill="#FF5787"/>
<path d="M461.75 354.653C460.84 354.003 459.75 353.302 458.52 352.552C454.83 350.242 450.24 347.363 450.52 344.983C450.58 344.573 450.65 344.143 450.72 343.713H453.42V335.012L453.56 334.613H453.42V204.272L452.94 204.103L452.44 203.932V342.722H410.5L409.81 201.422H409.31L408.84 201.482L409.53 343.162V343.662H412.33L412 365.972L468.55 366.233L468.61 365.802C468.62 365.622 469.34 360.103 461.75 354.653ZM412.99 365.022L413.22 349.392L449.69 344.133C449.69 344.373 449.62 344.612 449.58 344.852C449.17 347.852 453.85 350.853 457.99 353.403C459.17 354.143 460.29 354.832 461.17 355.472C467.04 359.682 467.59 363.942 467.61 365.282L412.99 365.022Z" fill="#2B266D"/>
<path d="M409.8 201.412L410.49 342.713H452.42V203.922C445.6 201.899 438.533 200.829 431.42 200.743C424.206 200.493 416.984 200.717 409.8 201.412Z" fill="#5A51E7"/>
<path d="M393.96 355.792C393.1 355.162 391.96 354.462 390.84 353.722C386.77 351.122 382.15 348.172 382.65 345.142C382.65 344.912 382.73 344.672 382.78 344.432L346.17 349.713L345.53 365.372L400.14 365.633C400.17 364.303 399.74 360.022 393.96 355.792Z" fill="#FF5787"/>
<path d="M394.56 354.992C393.66 354.332 392.56 353.633 391.38 352.883C387.76 350.563 383.25 347.692 383.64 345.302C383.71 344.882 383.79 344.452 383.87 344.012H386.53L386.75 335.323L386.9 334.892H386.76L390.38 191.363L389.95 201.522H389.63H389.41H389.13L385.76 335.042L385.71 336.943V338.423L385.59 343.102H343.62L346.55 204.103L346.32 204.182L346.05 204.292L345.62 204.462L345.83 190.672L342.59 344.102H345.42L344.51 366.463L401.05 366.722L401.12 366.312C401.14 365.982 402.01 360.492 394.56 354.992ZM345.56 365.372L346.2 349.713L382.81 344.432C382.81 344.672 382.72 344.912 382.68 345.142C382.18 348.142 386.8 351.142 390.87 353.722C392.03 354.462 393.13 355.162 393.99 355.792C399.77 360.022 400.2 364.303 400.17 365.633L345.56 365.372Z" fill="#2B266D"/>
<path d="M367.26 200.742C355.18 201.072 347.86 203.532 346.55 204.012L343.62 343.012H385.55L385.67 338.332V336.852L385.72 334.952L389.09 201.432C381.836 200.721 374.544 200.49 367.26 200.742Z" fill="#5A51E7"/>
<path d="M346.28 189.942H345.85V190.032L346.24 189.952L346.28 189.942Z" fill="#2B266D"/>
<path d="M346.83 190.942L346.64 202.942C348.82 202.212 356.03 200.082 367.23 199.772C374.494 199.526 381.765 199.75 389 200.442L389.38 191.353L389.45 189.742V189.242V188.343C386.38 188.343 370.6 188.612 361.19 189.282C358.73 189.462 356.61 189.653 354.8 189.833C352.73 190.043 351.07 190.242 349.8 190.412C348.27 190.622 347.28 190.802 346.8 190.892L346.83 190.942Z" fill="#2B266D"/>
<path d="M346.05 204.202L346.32 204.093L346.55 204.012C347.86 203.532 355.18 201.072 367.26 200.742C374.557 200.489 381.863 200.719 389.13 201.432H389.41H389.63H389.95L390.38 191.272L390.56 187.202H390.03C389.85 187.202 371.62 187.402 361.18 188.152C356.184 188.415 351.209 188.976 346.28 189.833L345.89 189.912V190.452L345.68 204.242L346.05 204.202ZM354.86 189.802C356.67 189.622 358.79 189.432 361.25 189.252C370.66 188.582 386.44 188.352 389.51 188.312V189.212V189.712L389.44 191.323L389.06 200.412C381.825 199.72 374.554 199.496 367.29 199.742C356.09 200.052 348.88 202.182 346.7 202.912L346.89 190.912V190.833C347.39 190.743 348.38 190.563 349.89 190.353C351.13 190.213 352.79 190.012 354.86 189.802Z" fill="#2B266D"/>
<path d="M409.71 200.412H409.79C415.147 199.89 420.528 199.643 425.91 199.672C427.66 199.672 429.51 199.672 431.46 199.752C438.568 199.855 445.631 200.907 452.46 202.882L452.64 202.942L452.51 194.222V193.722V190.882C451.14 190.642 446.24 189.882 437.51 189.262C428.1 188.592 412.77 188.363 409.8 188.323V200.422L409.71 200.412Z" fill="#2B266D"/>
<path d="M409.3 201.492H409.8C416.987 200.797 424.213 200.573 431.43 200.823C438.543 200.909 445.61 201.979 452.43 204.002L452.93 204.172L453.41 204.343L453.62 204.422L453.39 190.103L452.99 190.022C447.852 189.193 442.676 188.629 437.48 188.333C427.04 187.583 409.38 187.382 409.21 187.382H408.7V201.622H408.79L409.26 201.562L409.3 201.492ZM409.72 188.343C412.72 188.343 428.02 188.612 437.43 189.282C446.16 189.912 451.06 190.662 452.43 190.902V193.742V194.242L452.56 202.962L452.38 202.902C445.551 200.927 438.488 199.875 431.38 199.772C429.43 199.712 427.58 199.692 425.83 199.692C420.448 199.663 415.067 199.91 409.71 200.432H409.63V188.333L409.72 188.343Z" fill="#2B266D"/>
</svg>
