<svg width="800" height="400" viewBox="0 0 800 400" fill="none" xmlns="http://www.w3.org/2000/svg">
<path d="M401.253 375.924C378.543 375.924 296.153 377.453 287.713 378.223C279.273 378.993 273.263 384.344 279.713 384.344C286.163 384.344 501.763 386.674 512.143 383.604C522.523 380.534 513.443 378.224 500.473 376.694C487.503 375.164 401.253 375.924 401.253 375.924Z" fill="#2B266D"/>
<path d="M497.933 127.374C481.473 72.0438 455.523 27.2538 436.253 20.8738H436.123C424.343 37.6138 426.733 87.6137 443.303 143.274C460.033 199.504 485.733 243.004 504.813 249.904L504.903 249.804C517.093 233.354 514.163 181.884 497.933 127.374Z" fill="#2DC495"/>
<path d="M498.893 127.094C482.343 71.4739 456.133 26.4039 436.563 19.9339C433.961 18.9816 431.126 18.8627 428.453 19.5939C418.923 22.4339 413.683 37.4338 413.713 61.8338C413.713 86.0338 418.903 116.674 428.263 148.114C437.623 179.554 450.043 208.034 463.263 228.304C475.063 246.414 486.263 256.094 495.323 256.084C496.467 256.087 497.606 255.925 498.703 255.604C501.55 254.675 504.01 252.833 505.703 250.364C518.263 233.454 515.463 182.764 498.893 127.094ZM504.893 249.774L504.803 249.874C485.723 242.974 460.023 199.474 443.293 143.244C426.723 87.5838 424.293 37.5839 436.113 20.8439H436.243C455.513 27.2239 481.463 72.0139 497.923 127.344C514.163 181.884 517.093 233.354 504.903 249.774H504.893Z" fill="#2B266D"/>
<path d="M384.187 14.9999L383.533 15.7563L401.611 31.389L402.265 30.6326L384.187 14.9999Z" fill="#2B266D"/>
<path d="M365.763 47.2437L394.383 55.3538L394.663 54.3838L366.033 46.2837L365.763 47.2437Z" fill="#2B266D"/>
<path d="M393.742 75.4397L369.641 77.1377L369.711 78.1352L393.812 76.4373L393.742 75.4397Z" fill="#2B266D"/>
<path d="M435.613 359.684L435.733 358.964L396.433 364.234L392.323 379.864L453.013 380.124C453.213 378.884 453.333 374.664 447.313 370.344C446.423 369.704 445.313 368.994 444.083 368.244C439.923 365.614 435.203 362.704 435.613 359.684Z" fill="#5A51E7"/>
<path d="M356.093 360.554C351.604 355.516 346.017 351.578 339.763 349.044C329.373 345.044 323.643 344.874 322.373 344.884L314.483 357.364C314.096 357.98 313.876 358.686 313.843 359.413C314.231 359.043 314.746 358.836 315.283 358.834C316.215 358.82 317.147 358.87 318.073 358.984C324.183 359.704 348.483 377.074 353.893 380.984L369.963 380.804C370.083 380.732 370.187 380.637 370.268 380.523C370.349 380.41 370.405 380.28 370.433 380.143C370.673 379.193 370.293 376.763 365.133 371.143C364.283 370.213 363.133 369.193 361.933 368.143C359.013 365.533 356.023 362.874 356.093 360.554Z" fill="#5A51E7"/>
<path d="M425.113 106.364C427.023 104.644 429.113 102.844 431.433 100.924C439.123 94.5738 449.863 85.7339 464.683 80.2339C464.473 79.9939 464.293 79.8038 464.173 79.6538C442.863 82.5538 403.713 88.6538 391.723 95.8638C385.723 99.4438 382.493 103.324 381.993 107.394C381.353 112.564 384.993 117.484 389.443 122.054C399.803 120.684 412.613 114.254 425.113 106.364Z" fill="#FBC63C"/>
<path d="M457.713 274.474C457.013 263.894 453.173 233.154 450.423 211.764C447.513 207.864 434.423 190.844 419.623 180.994C403.763 170.424 383.563 169.894 381.553 169.864C379.784 173.403 378.232 177.047 376.903 180.774C381.522 181.139 386.081 182.055 390.483 183.504L390.173 184.504C385.789 183.059 381.246 182.153 376.643 181.804V181.494C375.423 184.944 374.173 188.944 373.023 193.494C368.573 211.324 363.833 270.494 363.783 271.114L363.723 271.314L325.573 339.474L325.083 340.354C327.473 339.794 333.213 339.174 341.663 342.874C346.167 344.815 350.467 347.197 354.503 349.984L355.043 350.374C355.503 350.704 355.933 351.024 356.343 351.374C356.753 351.724 357.143 351.994 357.513 352.294C358.443 353.044 359.233 353.734 359.883 354.294L360.243 354.644L360.493 354.884L360.603 354.994C361.043 355.434 361.393 355.794 361.653 356.084L361.803 356.254C364.943 350.514 388.273 307.754 395.583 288.954C397.713 283.484 399.673 278.024 401.403 272.954C401.483 268.954 401.713 253.314 400.963 239.774C400.413 229.964 397.803 210.514 397.803 210.514C397.803 210.514 404.403 225.514 406.233 231.774C407.682 236.596 408.837 241.502 409.693 246.464V246.394L409.783 247.194C410.073 249.074 410.143 250.054 410.143 250.054V250.114C410.773 255.874 413.373 281.114 412.363 297.044C411.883 304.604 398.533 351.204 396.713 357.534H438.613C440.193 352.274 458.713 290.504 457.713 274.474ZM409.953 189.184L410.303 188.244C414.853 189.904 420.893 192.404 423.863 194.874L423.223 195.644C420.323 193.264 414.393 190.814 409.913 189.184H409.953Z" fill="#FF5787"/>
<path d="M499.223 164.534C499.209 161.734 499.363 158.935 499.683 156.154L482.253 154.234L481.703 154.174L481.163 154.114L475.053 153.434L475.113 152.944L475.163 152.444L481.733 153.164C483.243 150.664 484.683 148.404 486.003 146.484C488.073 143.484 490.283 140.274 492.603 137.274C491.293 132.444 485.473 111.344 481.143 102.704C478.653 97.7039 474.223 91.7038 470.483 87.1038L470.163 86.7039L469.843 86.3137C468.063 84.1237 466.473 82.3137 465.393 81.0337C460.901 82.6972 456.553 84.7275 452.393 87.1038C445.207 91.3499 438.416 96.233 432.103 101.694C431.833 101.904 431.583 102.114 431.323 102.334C416.263 114.884 410.703 122.884 403.703 132.954L403.343 133.474L403.053 133.884C402.963 134.014 402.873 134.154 402.773 134.284L402.493 134.684C401.043 136.774 399.493 138.924 397.833 141.234C392.033 149.144 386.513 159.854 383.723 165.574C383.643 165.734 383.563 165.884 383.493 166.044L382.713 167.614L382.133 168.844C386.133 168.974 405.133 170.084 420.133 180.134C433.663 189.134 445.793 204.134 450.133 209.744L450.743 210.534C450.963 210.834 451.153 211.094 451.313 211.294V211.244C452.253 209.244 454.853 203.904 458.313 196.914C452.231 191.726 446.436 186.212 440.953 180.394C438.673 177.964 436.343 175.294 435.803 172.014C435.303 169.014 436.363 166.014 437.483 163.214C441.851 152.355 447.263 141.946 453.643 132.134V132.234C461.103 120.014 468.873 109.164 469.493 108.304L470.303 108.884L469.983 109.334C468.373 111.614 460.863 122.274 453.843 133.884C446.963 145.244 440.543 157.504 440.543 163.684C440.543 173.014 453.133 179.934 464.823 183.974L465.293 184.134H465.423L465.773 184.254C468.863 185.286 472.004 186.16 475.183 186.874C484.133 188.874 497.683 188.634 500.513 188.564L499.223 164.534Z" fill="#FBC63C"/>
<path d="M509.713 174.424C509.603 173.544 509.513 172.974 509.513 172.944L509.443 172.434H509.633H509.953C513.031 172.122 516.079 171.574 519.073 170.794C519.512 170.654 519.937 170.473 520.343 170.254C521.843 169.394 521.853 168.254 521.663 166.794C521.563 165.974 520.403 165.514 519.333 165.284L519.163 165.444L518.813 165.264V165.194L518.343 165.124L513.623 165.044C512.033 164.946 510.437 165.05 508.873 165.354C507.383 165.649 506.062 166.504 505.183 167.744L504.343 167.204C505.356 165.742 506.898 164.731 508.643 164.384C510.288 164.057 511.969 163.943 513.643 164.044L517.773 164.114C518.423 164.114 520.193 163.984 520.893 163.114C521.593 162.244 522.083 160.044 520.713 158.924C519.571 158.267 518.289 157.893 516.973 157.834V157.734L513.743 157.674C512.156 157.577 510.564 157.681 509.003 157.984C507.51 158.274 506.188 159.13 505.313 160.374L504.463 159.834C505.487 158.382 507.024 157.374 508.763 157.014C510.408 156.688 512.088 156.573 513.763 156.674L517.843 156.744C518.807 156.635 519.704 156.197 520.383 155.504C521.593 154.054 520.463 152.724 519.693 152.054C518.923 151.384 516.033 151.124 515.043 151.124V151.054H513.503C511.916 150.956 510.323 151.06 508.763 151.364C507.268 151.656 505.944 152.512 505.063 153.754L504.223 153.214C505.238 151.754 506.779 150.744 508.523 150.394C510.168 150.068 511.849 149.953 513.523 150.054H515.313H515.663C516.488 149.975 517.293 149.755 518.043 149.404C518.334 149.251 518.584 149.029 518.769 148.757C518.954 148.485 519.068 148.171 519.103 147.844C519.14 147.367 519.058 146.888 518.862 146.451C518.666 146.014 518.364 145.634 517.983 145.344C516.183 143.764 514.143 143.814 509.713 144.074C508.314 144.107 506.946 144.491 505.733 145.19C504.521 145.889 503.503 146.88 502.773 148.074C501.717 150.369 501.042 152.821 500.773 155.334L500.713 155.834C500.653 156.244 500.613 156.644 500.563 157.044C500.307 159.546 500.18 162.059 500.183 164.574L500.563 171.464L501.063 180.464L501.523 188.624C503.333 188.574 509.423 188.104 510.173 183.994V183.874C510.593 181.834 510.033 176.904 509.713 174.424Z" fill="#FF5787"/>
<path d="M522.713 166.614C522.59 166.095 522.322 165.622 521.942 165.249C521.562 164.876 521.084 164.617 520.563 164.504C521.024 164.313 521.432 164.015 521.753 163.634C522.426 162.838 522.768 161.813 522.706 160.773C522.645 159.732 522.185 158.755 521.423 158.044C520.929 157.684 520.378 157.41 519.793 157.234V157.144C520.364 156.891 520.873 156.515 521.283 156.044C522.533 154.544 522.223 152.684 520.473 151.194C519.844 150.744 519.118 150.449 518.353 150.334L518.613 150.214C519.049 149.988 519.423 149.658 519.702 149.253C519.981 148.849 520.157 148.382 520.213 147.894C520.27 147.253 520.168 146.608 519.915 146.016C519.662 145.424 519.266 144.905 518.763 144.504C516.583 142.594 514.023 142.744 509.763 142.994C508.193 143.038 506.661 143.476 505.305 144.268C503.949 145.059 502.813 146.179 502.003 147.524C500.88 149.929 500.163 152.504 499.883 155.144L482.883 153.274C484.303 150.954 485.653 148.844 486.883 147.034C490.693 141.494 495.023 135.204 499.583 130.934C499.773 130.754 499.943 130.584 497.583 123.614C495.003 113.888 491.683 104.374 487.653 95.1538C486.603 92.8038 485.703 90.7639 484.923 88.9639C482.973 83.8139 481.293 79.5338 480.433 77.6238C480.113 76.5538 480.173 76.4038 480.173 76.4038L479.813 76.4739C479.754 76.4033 479.678 76.3495 479.592 76.3179C479.506 76.2863 479.413 76.2778 479.323 76.2937C477.623 76.5837 475.973 76.9337 474.323 77.2937C459.233 79.1337 406.003 86.1339 391.323 94.9739C384.993 98.7639 381.653 102.774 381.103 107.234C380.353 113.314 384.983 118.884 390.103 124.004C392.44 126.238 394.907 128.332 397.493 130.274C398.963 131.584 400.393 132.834 401.813 134.014C400.353 136.114 398.813 138.284 397.123 140.614C390.473 149.674 384.193 162.364 381.913 167.164C380.073 170.464 375.633 179.264 372.153 193.164C367.773 210.704 363.153 267.934 362.893 270.834L322.993 342.124L313.733 356.774C313.347 357.383 313.089 358.063 312.975 358.775C312.862 359.487 312.895 360.215 313.073 360.914C313.132 361.111 313.202 361.304 313.283 361.494C313.362 361.832 313.519 362.147 313.743 362.414C314.204 363.17 314.852 363.797 315.623 364.234L323.283 368.534L344.913 382.094L347.373 382.004L370.173 381.744H370.313C370.605 381.632 370.865 381.45 371.07 381.215C371.276 380.98 371.421 380.698 371.493 380.394C372.043 378.394 370.183 375.014 365.973 370.394C365.083 369.394 363.923 368.394 362.693 367.304C360.273 365.154 357.593 362.774 357.233 360.954L358.493 358.644C358.854 358.723 359.224 358.75 359.593 358.724C361.013 358.584 361.313 358.524 361.753 357.574L362.043 357.954L362.413 357.294C362.673 356.814 388.763 309.374 396.593 289.234C401.523 276.574 405.593 264.024 407.893 256.404L409.443 252.184C410.293 260.384 412.363 282.494 411.443 296.934C410.943 304.764 395.793 357.314 395.643 357.844L395.453 358.484H396.993L391.113 380.794L453.513 381.054H453.883L453.993 380.694C454.063 380.464 455.613 374.934 447.993 369.464C447.073 368.804 445.933 368.084 444.713 367.324C441.003 365.014 436.383 362.124 436.713 359.754C436.773 359.344 436.843 358.914 436.923 358.484H439.443L439.553 358.124C440.383 355.404 459.903 291.184 458.783 274.334C458.093 263.984 454.413 234.334 451.673 213.034L451.953 212.444C452.073 212.194 458.043 199.684 465.483 185.144C468.648 186.211 471.866 187.115 475.123 187.854C481.923 189.374 491.323 189.624 496.793 189.624C499.453 189.624 501.183 189.564 501.233 189.564H501.713C503.653 189.564 510.173 189.054 511.273 184.394C511.425 184.201 511.562 183.997 511.683 183.784C511.996 182.938 512.21 182.059 512.323 181.164C512.703 178.964 512.403 177.704 514.423 176.624C516.883 175.324 523.993 173.764 521.323 170.794C522.863 169.674 522.853 168.134 522.713 166.614ZM510.293 183.954C509.543 188.064 503.453 188.534 501.643 188.584L501.183 180.424L500.683 171.424L500.303 164.534C500.3 162.019 500.427 159.505 500.683 157.004C500.683 156.604 500.773 156.204 500.833 155.794L500.893 155.294C501.162 152.781 501.838 150.329 502.893 148.034C503.623 146.84 504.641 145.848 505.854 145.15C507.066 144.451 508.434 144.067 509.833 144.034C514.263 143.774 516.303 143.724 518.103 145.304C518.484 145.593 518.786 145.974 518.981 146.411C519.177 146.848 519.26 147.327 519.223 147.804C519.188 148.131 519.073 148.444 518.888 148.717C518.703 148.989 518.454 149.211 518.163 149.364C517.413 149.715 516.607 149.935 515.783 150.014H515.433H513.643C511.969 149.913 510.288 150.028 508.643 150.354C506.9 150.704 505.359 151.714 504.343 153.174L505.183 153.714C506.064 152.472 507.388 151.616 508.883 151.324C510.443 151.02 512.036 150.916 513.623 151.014H515.163V151.084C516.163 151.084 518.923 151.264 519.813 152.014C520.703 152.764 521.713 154.014 520.503 155.464C519.824 156.158 518.927 156.596 517.963 156.704L513.883 156.634C512.208 156.533 510.528 156.648 508.883 156.974C507.144 157.334 505.607 158.342 504.583 159.794L505.433 160.334C506.308 159.09 507.63 158.233 509.123 157.944C510.684 157.641 512.276 157.537 513.863 157.634L517.093 157.694V157.794C518.409 157.853 519.691 158.227 520.833 158.884C522.203 160.004 521.833 162.074 521.013 163.074C520.193 164.074 518.543 164.074 517.893 164.074L513.763 164.004C512.088 163.903 510.408 164.017 508.763 164.344C507.018 164.691 505.476 165.702 504.463 167.164L505.303 167.704C506.182 166.465 507.502 165.609 508.993 165.314C510.557 165.01 512.153 164.906 513.743 165.004L518.463 165.084L518.933 165.154V165.224L519.283 165.404L519.453 165.244C520.523 165.474 521.683 165.934 521.783 166.754C521.973 168.234 521.963 169.354 520.463 170.214C520.057 170.433 519.632 170.613 519.193 170.754C516.2 171.534 513.15 172.082 510.073 172.394H509.753H509.563L509.633 172.904C509.633 172.904 509.723 173.504 509.833 174.384C510.143 176.864 510.703 181.794 510.393 183.804L510.293 183.954ZM475.293 186.954C472.114 186.24 468.973 185.366 465.883 184.334L465.533 184.214H465.403L464.933 184.054C453.243 180.054 440.653 173.054 440.653 163.764C440.653 157.584 447.073 145.324 453.953 133.964C460.953 122.354 468.483 111.694 470.093 109.414L470.413 108.964L469.603 108.384C468.983 109.244 461.213 120.094 453.753 132.314V132.214C447.373 142.026 441.961 152.435 437.593 163.294C436.473 166.104 435.413 169.114 435.913 172.094C436.453 175.374 438.783 178.094 441.063 180.474C446.546 186.292 452.341 191.806 458.423 196.994C454.943 203.994 452.343 209.364 451.423 211.324V211.374C451.263 211.174 451.073 210.914 450.853 210.614L450.243 209.824C445.923 204.194 433.793 189.234 420.243 180.214C405.163 170.164 386.243 169.054 382.243 168.924L382.823 167.694L383.593 166.104C383.663 165.944 383.743 165.794 383.823 165.634C386.613 159.914 392.133 149.204 397.933 141.294C399.633 138.984 401.143 136.834 402.593 134.744L402.873 134.344C402.973 134.214 403.063 134.074 403.153 133.944L403.443 133.534L403.803 133.014C410.803 122.944 416.363 114.944 431.423 102.394C431.683 102.174 431.933 101.964 432.203 101.754C438.516 96.2928 445.306 91.41 452.493 87.1638C456.652 84.7875 461 82.7573 465.493 81.0937C466.573 82.3337 468.163 84.1838 469.943 86.3738L470.263 86.7637L470.583 87.1638C474.323 91.8138 478.753 97.7737 481.243 102.764C485.573 111.404 491.393 132.504 492.703 137.334C490.383 140.334 488.173 143.544 486.103 146.544C484.783 148.464 483.343 150.724 481.833 153.224L475.263 152.504L475.213 153.004L475.153 153.494L481.263 154.174L481.803 154.234L482.353 154.294L499.783 156.214C499.463 158.996 499.309 161.794 499.323 164.594L500.663 188.704C497.713 188.714 484.183 188.944 475.233 186.954H475.293ZM437.053 357.554H396.713C398.533 351.224 411.883 304.624 412.363 297.064C413.363 281.114 410.773 255.894 410.143 250.134V250.074C410.143 250.074 410.073 249.074 409.783 247.214L409.693 246.414V246.484C408.837 241.522 407.682 236.616 406.233 231.794C404.403 225.554 397.803 210.534 397.803 210.534C397.803 210.534 400.413 229.984 400.963 239.794C401.713 253.334 401.483 269.004 401.403 272.974C399.673 277.974 397.713 283.474 395.583 288.974C388.273 307.774 364.943 350.534 361.803 356.274L361.653 356.104C361.393 355.814 361.043 355.454 360.603 355.014L360.493 354.904L360.243 354.664L359.883 354.314C359.233 353.714 358.443 353.024 357.513 352.314C357.143 352.014 356.753 351.704 356.343 351.394C355.933 351.084 355.503 350.754 355.043 350.394L354.503 350.004C350.468 347.217 346.167 344.835 341.663 342.894C333.213 339.194 327.473 339.814 325.083 340.374L325.573 339.494L363.723 271.334L363.783 271.134C363.833 270.534 368.573 211.344 373.023 193.514C374.173 188.934 375.423 184.934 376.643 181.514V181.824C381.246 182.173 385.789 183.079 390.173 184.524L390.483 183.524C386.081 182.075 381.522 181.159 376.903 180.794C378.232 177.067 379.784 173.423 381.553 169.884C383.553 169.884 403.763 170.444 419.623 181.014C434.393 190.864 447.513 207.884 450.423 211.784C453.173 233.174 457.013 263.914 457.713 274.494C458.783 290.494 440.233 352.294 438.633 357.574L437.053 357.554ZM447.373 370.344C453.373 374.664 453.273 378.884 453.073 380.124L392.383 379.864L396.493 364.234L435.793 358.964L435.673 359.684C435.263 362.684 439.983 365.684 444.143 368.244C445.283 368.994 446.423 369.704 447.313 370.344H447.373ZM365.193 371.144C370.353 376.764 370.733 379.194 370.493 380.144C370.465 380.28 370.409 380.41 370.328 380.523C370.247 380.637 370.143 380.733 370.023 380.804L353.953 380.984C348.543 377.074 324.243 359.704 318.133 358.984C317.207 358.871 316.275 358.821 315.343 358.834C314.806 358.836 314.291 359.043 313.903 359.414C313.936 358.686 314.156 357.98 314.543 357.364L322.433 344.884C323.703 344.884 329.433 345.084 339.823 349.044C346.077 351.578 351.664 355.516 356.153 360.554C356.083 362.874 359.073 365.554 361.993 368.124C363.143 369.194 364.283 370.214 365.133 371.144H365.193ZM382.053 107.394C382.553 103.324 385.823 99.3938 391.783 95.8638C403.783 88.6838 442.923 82.5538 464.233 79.6538C464.353 79.8038 464.533 79.9939 464.743 80.2339C449.923 85.7339 439.183 94.5738 431.493 100.924C429.183 102.844 427.083 104.644 425.173 106.364C412.673 114.254 399.863 120.684 389.503 122.054C385.033 117.484 381.353 112.614 381.993 107.394H382.053Z" fill="#2B266D"/>
<path d="M423.823 194.874C420.823 192.404 414.823 189.874 410.263 188.244L409.913 189.184C414.393 190.814 420.323 193.264 423.183 195.644L423.823 194.874Z" fill="#2B266D"/>
</svg>
