<svg width="800" height="400" viewBox="0 0 800 400" fill="none" xmlns="http://www.w3.org/2000/svg">
<g clip-path="url(#clip0_3820_6799)">
<path d="M236 67.0903C236 32.7796 261.075 23.5232 283.737 17.7615C270.195 28.8807 260.695 43.5811 260.695 67.0903C260.695 86.946 267.068 94.0941 283.798 110.773C259.102 105.213 236 94.0941 236 67.0903Z" fill="#FBC63C" stroke="#2B266D"/>
<path d="M549.412 193.425L550.205 93.7867C550.205 89.2419 545.957 85.5091 541.491 85.6279C540.354 85.3126 539.162 85.245 537.996 85.4299L442.239 98.9156C439.724 99.2919 437.754 102.361 437.754 105.847V187.326C437.754 190.821 439.734 193.94 442.249 194.445L537.194 201.376C537.761 201.493 538.338 201.552 538.917 201.554C540.559 201.569 542.157 201.028 543.452 200.019C546.64 198.989 549.383 196.544 549.412 193.425ZM538.62 200.603C538.188 200.588 537.757 200.538 537.333 200.455L473.964 195.821L442.358 193.504C440.378 193.108 438.715 190.345 438.715 187.365V105.886C438.715 105.659 438.715 105.431 438.715 105.203C438.798 104.128 439.104 103.083 439.616 102.134C439.863 101.579 440.235 101.089 440.701 100.701C441.168 100.313 441.718 100.037 442.309 99.8959L514.589 89.7172L520.392 88.8954L538.056 86.4101C538.439 86.3513 538.826 86.3215 539.214 86.321C540.822 86.3 542.382 86.8669 543.6 87.9152C544.356 88.5911 544.955 89.4247 545.353 90.3571C545.752 91.2895 545.941 92.298 545.907 93.3115L545.284 194.088C545.31 195.065 545.115 196.036 544.714 196.927C544.313 197.819 543.715 198.608 542.967 199.237C541.738 200.216 540.188 200.703 538.62 200.603Z" fill="#2B266D"/>
<path d="M545.283 194.088L546.026 93.311C546.059 92.2976 545.87 91.2891 545.471 90.3567C545.073 89.4243 544.475 88.5907 543.719 87.9148C542.5 86.8665 540.94 86.2996 539.332 86.3206C538.945 86.3211 538.557 86.3509 538.174 86.4097L520.51 88.895L514.708 89.7168V89.8257L477.528 186.86L474.072 195.86L537.441 200.494C537.866 200.577 538.296 200.627 538.728 200.642C540.287 200.735 541.824 200.249 543.045 199.276C543.785 198.636 544.371 197.836 544.758 196.938C545.146 196.04 545.325 195.065 545.283 194.088Z" fill="#7169EA"/>
<path d="M514.588 89.8259V89.717L442.307 99.8957C441.717 100.037 441.167 100.313 440.7 100.701C440.233 101.089 439.861 101.579 439.614 102.133C439.103 103.082 438.796 104.128 438.713 105.203C438.713 105.431 438.713 105.658 438.713 105.886V187.365C438.713 190.335 440.347 193.108 442.357 193.504L473.962 195.821L477.418 186.82L514.588 89.8259Z" fill="#B8B4F5"/>
<path d="M392.628 218.319L392.486 219.299L540.86 240.892L541.003 239.912L392.628 218.319Z" fill="#2B266D"/>
<path d="M544.714 240.287L544.566 241.266L554.942 242.843L555.091 241.864L544.714 240.287Z" fill="#2B266D"/>
<path d="M558.792 242.501L558.656 243.481L563.344 244.133L563.48 243.153L558.792 242.501Z" fill="#2B266D"/>
<path d="M517.885 213.238L515.073 212.97L457.209 207.485L442.09 212.614L443.882 212.832L502.587 220.03L517.885 213.238Z" fill="#B8B4F5"/>
<path d="M518.965 212.357L457.161 206.495H457.052L440.487 212.119C440.369 212.189 440.275 212.292 440.217 212.415C440.159 212.539 440.139 212.677 440.16 212.812C440.168 212.889 440.192 212.963 440.229 213.03V215.485L503.816 223.466L519.916 216.347L519.55 213.317C519.59 213.211 519.605 213.097 519.594 212.984C519.582 212.871 519.545 212.762 519.485 212.666C519.424 212.57 519.342 212.49 519.245 212.431C519.148 212.372 519.039 212.336 518.926 212.327L518.965 212.357ZM442.091 212.614L457.21 207.485L515.074 212.97L517.886 213.238L502.588 220.04L443.883 212.832L442.091 212.614Z" fill="#2B266D"/>
<path d="M354.185 115.976C350.62 120.758 350.57 124.323 348.877 126.095C346.818 128.241 344.3 129.893 341.511 130.927C341.639 131.036 341.788 131.125 341.917 131.244L341.59 131.61L341.263 131.986C341.022 131.775 340.767 131.58 340.501 131.402C339.596 130.792 338.569 130.388 337.491 130.217C336.414 130.046 335.312 130.112 334.263 130.412C333.758 130.546 333.282 130.771 332.857 131.075C332.799 131.105 332.743 131.138 332.689 131.174C332.601 131.255 332.519 131.341 332.441 131.432C332.29 131.587 332.154 131.756 332.035 131.937C331.556 132.692 331.299 133.567 331.292 134.462C331.275 135.09 331.379 135.715 331.599 136.303C331.887 137.041 332.338 137.703 332.92 138.241C333.501 138.778 334.198 139.175 334.956 139.402L335.312 139.492L335.54 139.551C335.736 139.589 335.935 139.612 336.134 139.62C336.588 139.67 337.047 139.67 337.501 139.62C338.587 139.443 339.633 139.075 340.59 138.531L340.828 138.967L341.075 139.392C340.167 139.905 339.185 140.276 338.164 140.492C337.66 140.602 337.146 140.665 336.629 140.68C337.204 141.828 337.778 143.007 338.303 144.234C339.174 146.215 338.867 150.512 338.075 155.562H338.53C340.562 155.783 342.558 156.259 344.471 156.977C350.226 159.238 355.329 162.892 359.323 167.612C356.709 161.047 354.046 153.354 354.987 151.225C355.714 149.91 356.79 148.82 358.096 148.076C358.462 147.829 358.828 147.571 359.175 147.304C360.369 146.356 361.335 145.152 362.002 143.781C362.668 142.41 363.019 140.907 363.027 139.383V138.897C363.027 138.729 363.027 138.551 363.027 138.373C362.296 138.49 361.558 138.557 360.819 138.571C360.367 138.57 359.917 138.53 359.472 138.452C357.901 137.986 360.804 138.692 360.016 137.256L356.68 135.046C357.324 136.206 358.386 137.077 359.65 137.482C360.794 137.632 361.955 137.592 363.086 137.363C363.139 136.96 363.267 136.57 363.462 136.214C364.015 135.441 364.778 134.843 365.66 134.491L365.938 134.343C367.131 133.719 368.236 132.94 369.225 132.026C369.516 131.781 369.752 131.477 369.918 131.135C369.99 130.798 369.973 130.448 369.869 130.12C369.765 129.792 369.577 129.497 369.324 129.263C368.922 128.887 368.48 128.555 368.007 128.273C367.769 128.115 367.522 127.956 367.294 127.778C365.136 126.194 363.937 123.818 362.789 121.421C362.432 120.709 362.076 119.986 361.7 119.293C360.43 116.953 358.608 114.958 356.393 113.48C355.61 114.27 354.873 115.103 354.185 115.976ZM359.195 124.818C359.63 124.818 359.997 125.352 360.007 126.035C360.016 126.719 359.67 127.263 359.234 127.263C358.799 127.263 358.432 126.729 358.432 126.055C358.432 125.382 358.71 124.818 359.135 124.818H359.195Z" fill="#FF5787"/>
<path d="M426.219 168.929C425.725 170.014 425.308 171.132 424.971 172.275C426.231 171.159 427.579 170.146 429.001 169.246C428.979 168.918 428.892 168.598 428.744 168.305C428.684 168.155 428.593 168.019 428.477 167.906C428.361 167.794 428.222 167.707 428.07 167.651C427.952 167.614 427.827 167.602 427.704 167.617C427.581 167.633 427.462 167.675 427.357 167.741C426.892 168.044 426.502 168.451 426.219 168.929Z" fill="#FF5787"/>
<path d="M322.758 376.809L291.074 398.226C293.688 398.444 301.688 398.83 325.323 398.711C348.958 398.592 357.245 398.157 360.077 397.939L329.194 377.681L328.798 324.411C326.778 324.259 324.768 324.051 322.768 323.787L322.758 376.809Z" fill="white"/>
<path d="M444.763 375.087C444.565 373.889 444.406 372.601 444.297 371.393L400.523 377.473L400.889 398.167L463.209 398.464C463.209 395.21 462.339 392.014 460.691 389.208C459.042 386.403 456.675 384.088 453.832 382.503C452.327 381.631 451.05 381.027 449.931 380.522C447.04 379.097 445.277 378.265 444.763 375.087Z" fill="#5A51E7"/>
<path d="M481.411 374.057C484.906 370.997 504.184 360.65 514.551 354.432C520.591 350.808 528.116 348.303 531.829 348.412L532.067 348.264C531.542 346.967 529.017 342.471 518.839 342.679C517.148 342.73 515.462 342.879 513.789 343.125C510.66 343.541 508.392 343.838 506.402 341.541C505.412 340.392 504.056 338.699 502.778 337.026L502.62 336.818C500.105 338.065 492.719 341.768 485.075 346.194C478.647 349.895 473.113 354.965 468.866 361.046L478.272 378.275C479.007 376.662 480.077 375.224 481.411 374.057Z" fill="#5A51E7"/>
<path d="M445.754 353.541C442.308 342.65 427.525 295.737 422.496 279.152L418.01 268.844C415.822 268.339 399.366 264.577 383.048 260.725C375.78 259.002 370.008 257.616 365.384 256.487C361.651 263.2 353.284 276.191 339.997 285.944C335.597 289.116 330.866 291.802 325.887 293.954C326.056 296.355 326.664 298.704 327.679 300.885C330.343 305.985 336.403 308.282 342.076 309.272C342.703 309.384 343.337 309.483 343.977 309.569C349.433 309.5 355.116 309.46 360.592 309.45L361.374 309.341C364.463 308.816 368.216 308.351 370.899 309.45C381.236 309.45 389.415 309.539 391.534 309.559H391.653V309.509L392.999 309.559H406V310.549H401.257L393.811 321.441L398.999 368.799H399.089L401.584 368.74L411.178 368.522L420.773 368.304L444.041 367.769H445.031H446.16C446.1 366.185 445.972 361.136 445.754 353.541Z" fill="#209982"/>
<path d="M458.262 359.046C459.785 356.929 461.438 354.908 463.212 352.996C468.04 347.673 473.772 343.248 480.144 339.926C483.948 337.985 487.926 336.404 492.025 335.203L492.847 334.976C492.847 334.896 492.778 334.827 492.748 334.748C492.233 333.629 491.758 332.52 491.194 331.401L490.362 329.619C480.817 309.103 470.559 288.944 459.252 269.349C452.806 258.22 445.717 247.031 437.231 237.397L436.637 237.298C430.419 236.308 413.091 239.496 396.11 243.308C394.095 244.784 391.779 245.799 389.328 246.279C387.434 246.557 385.507 246.52 383.625 246.17C377.743 247.586 372.288 248.952 367.832 250.13L368.099 251.061C368.099 251.061 367.723 250.814 367.109 250.328L367.733 251.546L367.852 251.764L367.753 251.982C367.753 252.031 367.664 252.2 367.525 252.477C367.248 253.051 366.743 254.091 365.98 255.497C380.892 259.151 402.229 264.121 418.577 267.844L418.824 267.894L421.923 275.032L445.113 328.441L445.637 329.649L446.172 330.877L457.955 358.026L458.262 359.046Z" fill="#209982"/>
<path d="M490.332 329.619L491.164 331.401C491.679 332.52 492.154 333.629 492.718 334.748C492.718 334.827 492.787 334.896 492.817 334.975H492.906C493.144 334.906 493.362 334.856 493.59 334.807C494.094 334.678 494.58 334.569 495.045 334.47C496.775 334.092 498.534 333.857 500.303 333.767H501.61C501.411 333.292 501.124 332.589 500.748 331.698C495.897 319.965 476.648 274.488 459.875 250.249C453.786 241.446 445.023 238.783 437.201 237.377C445.686 247.011 452.776 258.17 459.222 269.329C470.559 288.944 480.787 309.103 490.332 329.619Z" fill="white"/>
<path d="M438.488 188.554C439.969 186.595 441.309 184.534 442.499 182.385C442.514 182.345 442.538 182.308 442.568 182.276C443.164 180.949 444.171 179.849 445.439 179.137L445.914 179.999C444.875 180.581 444.044 181.475 443.538 182.553C443.533 182.657 443.498 182.756 443.439 182.841L443.36 182.969C443.249 183.252 443.159 183.544 443.093 183.841H443.033C442.982 184.049 442.978 184.267 443.02 184.477C443.063 184.688 443.152 184.886 443.281 185.059C443.538 185.286 444.073 185.059 444.697 184.474C445.431 183.789 446.226 183.172 447.073 182.633C448.529 181.642 449.331 181.098 449.301 179.286C449.282 178.759 449.15 178.243 448.915 177.771C448.439 176.88 447.073 176.781 445.944 176.781C444.756 176.621 443.55 176.876 442.528 177.504L441.905 176.741C443.004 175.83 444.449 175.751 445.964 175.751C446.505 175.754 447.045 175.8 447.578 175.89C445.162 173.86 441.449 173.553 438.825 174.197L438.597 173.207C440.657 172.716 442.808 172.76 444.845 173.335L444.419 173.088C443.139 172.183 441.629 171.657 440.063 171.573C438.706 171.599 437.357 171.802 436.053 172.177C435.938 172.208 435.815 172.196 435.708 172.144C435.601 172.092 435.516 172.003 435.469 171.894C435.422 171.784 435.416 171.661 435.452 171.548C435.489 171.434 435.565 171.338 435.667 171.276C438.265 169.891 441.03 168.846 443.895 168.167C444.588 168.008 445.34 167.88 446.063 167.751C447.697 167.474 449.558 167.147 450.024 166.483C450.072 166.402 450.102 166.311 450.11 166.217C450.119 166.123 450.106 166.028 450.073 165.939C450.024 165.731 449.776 165.533 449.37 165.365C446.469 164.196 437.181 165.464 430.32 169.632L429.973 169.85L429.686 170.028L428.696 170.692C427.196 171.707 425.8 172.868 424.528 174.157L424.161 174.523L423.884 174.83C422.894 175.929 421.904 177.118 420.844 178.464L434.36 193.514C435.28 192.376 437.36 190.108 438.488 188.554Z" fill="#FF5787"/>
<path d="M313.204 217.218C318.155 222.287 319.145 229.921 319.908 237.021L320.977 247.279L321.036 247.774C321.036 247.942 321.036 248.11 321.086 248.279L325.749 292.706C325.754 292.792 325.754 292.878 325.749 292.964C330.563 290.865 335.137 288.256 339.394 285.181C352.384 275.646 360.622 262.972 364.375 256.279L364.623 255.824L364.87 255.378C365.543 254.15 366.028 253.18 366.335 252.546L366.563 252.071L366.642 251.903C366.642 251.823 366.533 251.695 366.464 251.566C366.395 251.437 366.187 251.021 366.009 250.645C365.929 250.506 365.86 250.348 365.781 250.19C365.702 250.031 365.632 249.893 365.563 249.724C365.494 249.556 365.276 249.14 365.127 248.813C358.592 242.771 353.832 235.057 351.364 226.505C347.404 213.634 344.433 202.98 344.433 202.98C346.414 207.257 353.899 216.653 357.771 221.386V221.268L358.672 222.406C359.088 222.921 359.474 223.396 359.88 223.941L360.127 224.228L361.85 226.416C368.939 235.476 375.237 243.516 383.455 245.229C383.891 245.315 384.326 245.384 384.762 245.437C385.333 245.508 385.909 245.545 386.485 245.546C387.352 245.556 388.219 245.503 389.079 245.387C390.431 245.153 391.736 244.698 392.94 244.041C393.445 243.783 393.931 243.496 394.465 243.179C395 242.863 395.267 242.665 395.673 242.377C410.377 232.189 430.526 199.93 433.586 194.95L433.794 194.613L433.487 194.276L431.982 192.593L420.051 179.315L416.456 183.276L415.595 184.266L390.95 211.663L390.574 211.247C385.467 205.259 380.678 199.006 376.227 192.514C375.138 190.93 374.128 189.464 373.167 188.048C370.068 183.513 367.316 179.474 362.949 173.84L361.781 172.345C361.404 171.859 361.018 171.355 360.612 170.859L359.454 169.414C355.56 164.392 350.414 160.482 344.532 158.077C342.559 157.291 340.487 156.781 338.374 156.562C338.205 156.562 338.027 156.562 337.859 156.562H337.364H336.859H336.691C333.353 156.485 330.113 157.694 327.641 159.938C316.195 170.265 309.392 179.474 301.689 203.841C301.253 205.247 300.837 206.812 300.451 208.416C300.362 208.772 300.273 209.128 300.194 209.505C301.768 210.366 303.244 211.198 304.531 211.822C307.65 213.168 310.789 214.762 313.204 217.218Z" fill="#C5F6E6"/>
<path d="M359.186 127.264C359.622 127.264 359.959 126.709 359.959 126.036C359.959 125.363 359.582 124.808 359.147 124.818C358.711 124.828 358.374 125.372 358.384 126.056C358.394 126.739 358.751 127.274 359.186 127.264Z" fill="#2B266D"/>
<path d="M533.215 348.639L533.145 348.362C533.076 348.085 531.264 341.491 518.818 341.689C517.087 341.737 515.362 341.889 513.649 342.144C510.62 342.54 508.788 342.788 507.144 340.897C506.075 339.659 504.599 337.787 503.233 335.946L502.5 334.956C502.505 334.893 502.505 334.83 502.5 334.768L503.193 334.876L502.867 334.065C502.639 333.5 480.093 277.537 460.726 249.605C454.28 240.278 445.013 237.625 436.804 236.258C430.675 235.268 414.477 238.149 398.189 241.754C413.962 229.416 433.963 196.385 434.973 194.712L435.161 194.405L434.983 194.207C435.973 193.098 438.101 190.731 439.339 189.088C439.676 188.632 441.012 186.82 442.201 184.939C442.289 185.237 442.453 185.506 442.676 185.721C443.003 186.009 443.933 186.543 445.438 185.107C446.141 184.469 446.892 183.886 447.686 183.365C449.191 182.375 450.379 181.543 450.35 179.196C450.248 177.87 449.72 176.613 448.845 175.612C448.816 175.577 448.783 175.547 448.745 175.523C448.166 174.782 447.531 174.087 446.844 173.444C446.452 173.092 446.016 172.793 445.547 172.552L444.884 172.166C443.494 171.206 441.867 170.648 440.181 170.552C439.983 170.542 439.785 170.542 439.587 170.552C441.063 169.971 442.578 169.495 444.122 169.127C444.795 168.968 445.527 168.839 446.24 168.721C448.349 168.354 450.201 168.047 450.825 167.008C450.948 166.812 451.027 166.592 451.058 166.364C451.089 166.135 451.07 165.902 451.003 165.681C450.899 165.387 450.728 165.122 450.503 164.907C450.277 164.692 450.004 164.533 449.706 164.443C446.26 163.047 436.745 164.631 429.962 168.671C429.899 168.407 429.813 168.148 429.705 167.899C429.59 167.617 429.415 167.363 429.193 167.154C428.971 166.946 428.707 166.788 428.418 166.691C428.164 166.608 427.895 166.581 427.629 166.614C427.364 166.646 427.109 166.737 426.883 166.879C426.257 167.281 425.739 167.832 425.378 168.483C424.639 170.146 424.043 171.868 423.596 173.632C422.246 175.046 420.983 176.54 419.814 178.107L391.099 210.059C389.634 208.356 383.941 201.603 377.178 191.84L373.99 187.424C370.386 182.137 367.237 177.523 361.484 170.275C358.157 162.265 355.038 153.443 355.88 151.571C356.534 150.423 357.489 149.475 358.642 148.829C359.029 148.571 359.405 148.304 359.761 148.027C361.075 146.986 362.138 145.664 362.871 144.157C363.605 142.651 363.99 140.999 363.999 139.323C363.999 139.155 363.999 138.987 363.999 138.818C363.896 138.088 363.999 137.344 364.296 136.67C364.761 136.063 365.385 135.596 366.098 135.323L366.376 135.175C367.651 134.512 368.83 133.679 369.881 132.699C370.305 132.356 370.644 131.919 370.871 131.422C371.018 130.912 371.02 130.372 370.876 129.861C370.733 129.35 370.45 128.889 370.059 128.531C369.611 128.095 369.116 127.709 368.584 127.382C368.346 127.234 368.118 127.075 367.9 126.917C365.92 125.471 364.851 123.263 363.702 120.917C363.336 120.184 362.979 119.451 362.593 118.748C361.269 116.308 359.378 114.223 357.078 112.669C357.118 112.61 357.152 112.547 357.177 112.48C344.761 102.579 328.74 110.312 325.492 120.451C324.003 124.541 323.841 128.996 325.027 133.184C321.067 133.372 317.156 135.323 313.908 139.066C311.902 141.434 310.494 144.25 309.805 147.276C309.116 150.302 309.164 153.449 309.947 156.453C303.016 157.443 297.174 161.839 293.313 167.73C280.58 187.167 294.303 207.247 299.571 208.237C299.521 208.445 299.471 208.643 299.432 208.851C294.481 206.198 288.62 203.544 284.104 205.881C277.728 209.128 278.114 218.753 277.55 224.753C275.796 243.591 275.363 262.529 276.253 281.429C276.51 286.775 276.896 292.231 278.936 297.182C280.633 301.064 283.075 304.577 286.124 307.519C294.273 315.678 305.304 320.519 316.601 322.826C318.344 323.183 320.096 323.47 321.859 323.718V376.334L288.679 398.76L289.669 399.077C289.758 399.077 292.075 399.78 316.839 399.78H325.443C357.454 399.612 361.573 398.879 361.732 398.85L362.92 398.622L330.245 377.225L329.859 324.569C336.92 324.96 343.997 324.96 351.058 324.569C356.128 324.331 361.247 323.995 366.108 322.519C368.513 321.924 370.711 320.685 372.465 318.935C374.108 317.093 374.871 314.301 373.762 312.093C373.47 311.514 373.07 310.997 372.584 310.568C382.297 310.568 389.842 310.658 391.693 310.677L398.179 369.918H399.238L399.545 373.571L400.001 399.315L464.221 399.622V399.166C464.316 395.643 463.444 392.161 461.698 389.099C459.952 386.037 457.4 383.512 454.32 381.799C452.775 380.908 451.488 380.294 450.359 379.75C447.478 378.373 446.171 377.769 445.725 375.076C445.379 372.997 445.181 370.66 445.072 368.898H447.151V368.393C447.151 368.205 446.775 354.412 446.161 333.857L458.043 361.303L458.172 361.105C459.459 363.472 463.241 363.155 467.845 361.581L468.192 362.204V362.155L477.796 379.74C477.46 381.383 478.133 382.522 480.48 382.096C485.282 381.225 514.451 364.036 520.6 359.858C530.828 352.778 535.383 349.521 533.215 348.639ZM453.835 382.483C456.677 384.067 459.045 386.382 460.693 389.188C462.342 391.994 463.211 395.189 463.212 398.444L400.892 398.147L400.526 377.453L444.29 371.393C444.399 372.601 444.557 373.888 444.755 375.086C445.28 378.265 447.032 379.096 449.924 380.482C451.052 381.027 452.33 381.631 453.835 382.483ZM444.666 367.739H444.032L420.764 368.274L411.17 368.492L401.575 368.71L399.08 368.769H398.991L393.793 321.45L401.238 310.559H405.981V309.568H392.981L391.634 309.519V309.568H391.515C389.396 309.568 381.218 309.479 370.881 309.459C368.197 308.351 364.445 308.826 361.355 309.351L360.573 309.459C355.098 309.459 349.414 309.509 343.959 309.578C343.298 309.486 342.665 309.387 342.058 309.281C336.384 308.291 330.324 305.994 327.661 300.895C326.645 298.713 326.038 296.364 325.869 293.964C330.847 291.811 335.578 289.126 339.978 285.954C353.266 276.201 361.633 263.18 365.366 256.497C369.99 257.626 375.762 259.012 383.03 260.735C399.347 264.586 415.803 268.349 417.992 268.854L422.477 279.161C427.507 295.746 442.28 342.649 445.735 353.551C445.953 361.145 446.082 366.195 446.132 367.739H445.003H444.666ZM361.712 119.213C362.088 119.907 362.445 120.629 362.801 121.342C363.95 123.689 365.148 126.115 367.306 127.699C367.534 127.877 367.781 128.036 368.019 128.194C368.492 128.476 368.934 128.808 369.336 129.184C369.589 129.418 369.777 129.713 369.881 130.041C369.986 130.369 370.002 130.719 369.93 131.056C369.764 131.398 369.528 131.702 369.237 131.947C368.248 132.86 367.143 133.64 365.95 134.264L365.673 134.412C364.79 134.764 364.026 135.362 363.474 136.135C363.278 136.491 363.151 136.881 363.098 137.284C361.967 137.513 360.631 137.402 359.371 137.578C358.111 137.754 356.465 139.303 355.496 140.485L356.142 141.454C357.433 139.839 358.402 138.87 359.694 138.547C360.209 138.418 360.379 138.491 360.831 138.492C361.57 138.477 362.308 138.411 363.039 138.294C363.039 138.472 363.039 138.65 363.039 138.818V139.303C363.031 140.828 362.681 142.331 362.014 143.702C361.347 145.073 360.381 146.277 359.187 147.225C358.841 147.492 358.474 147.749 358.108 147.997C356.802 148.741 355.727 149.831 354.999 151.146C354.058 153.274 356.722 160.968 359.336 167.532C355.341 162.813 350.238 159.159 344.483 156.898C342.57 156.18 340.574 155.704 338.543 155.482H338.087C338.879 150.433 339.186 146.165 338.315 144.155C337.79 142.927 337.216 141.749 336.642 140.601C337.158 140.586 337.672 140.523 338.176 140.412C339.197 140.197 340.179 139.826 341.087 139.313L340.84 138.888L340.602 138.452C339.645 138.995 338.599 139.364 337.513 139.541C337.059 139.591 336.601 139.591 336.146 139.541C335.947 139.533 335.748 139.509 335.552 139.472L335.325 139.412L334.968 139.323C334.21 139.096 333.513 138.698 332.932 138.161C332.35 137.624 331.899 136.962 331.612 136.224C331.391 135.636 331.287 135.01 331.305 134.382C331.311 133.488 331.568 132.613 332.047 131.858C332.166 131.677 332.302 131.507 332.453 131.353C332.531 131.262 332.613 131.176 332.701 131.095C332.755 131.059 332.811 131.025 332.869 130.996C333.294 130.692 333.77 130.467 334.275 130.333C335.324 130.033 336.426 129.967 337.504 130.138C338.581 130.309 339.608 130.713 340.513 131.323C340.779 131.501 341.034 131.696 341.275 131.907L341.602 131.531L341.929 131.164C341.8 131.046 341.652 130.957 341.523 130.848C344.312 129.814 346.83 128.162 348.889 126.016C350.583 124.243 350.632 120.679 354.197 115.896C354.902 114.992 355.659 114.129 356.464 113.312C358.667 114.819 360.469 116.841 361.712 119.204V119.213ZM300.501 208.217C300.887 206.574 301.303 205.049 301.739 203.643C309.442 179.276 316.245 170.067 327.691 159.74C330.163 157.496 333.402 156.287 336.74 156.364H336.909H337.414H337.909C338.077 156.364 338.255 156.364 338.424 156.364C340.537 156.583 342.609 157.092 344.582 157.878C350.464 160.284 355.61 164.194 359.504 169.216L360.662 170.661C361.068 171.166 361.454 171.651 361.831 172.146L362.999 173.642C367.366 179.276 370.118 183.315 373.217 187.85C374.207 189.266 375.198 190.731 376.277 192.316C380.724 198.855 385.513 205.154 390.624 211.188L391 211.604L415.645 184.206L416.506 183.216L420.101 179.256L432.032 192.533L433.537 194.217L433.844 194.553L433.636 194.89C430.576 199.841 410.427 232.129 395.723 242.318C395.317 242.605 394.911 242.872 394.515 243.12C394.119 243.367 393.525 243.724 392.99 243.981C391.786 244.639 390.481 245.094 389.129 245.328C388.269 245.443 387.402 245.496 386.535 245.486C385.959 245.485 385.383 245.449 384.812 245.377C384.376 245.331 383.941 245.262 383.505 245.17C375.287 243.486 368.989 235.446 361.9 226.357L360.177 224.169L359.93 223.881C359.524 223.367 359.138 222.891 358.722 222.347L357.821 221.208V221.327C353.949 216.594 346.454 207.198 344.483 202.92C344.483 202.92 347.454 213.544 351.414 226.446C353.882 234.998 358.642 242.712 365.177 248.754C365.326 249.081 365.474 249.388 365.613 249.665C365.752 249.942 365.762 249.982 365.831 250.13C365.9 250.279 365.979 250.447 366.059 250.586C366.237 250.962 366.395 251.269 366.514 251.506C366.633 251.744 366.643 251.764 366.692 251.843L366.613 252.011L366.385 252.487C366.078 253.12 365.593 254.091 364.92 255.318L364.673 255.764L364.425 256.219C360.672 262.913 352.434 275.587 339.444 285.122C335.187 288.197 330.613 290.806 325.799 292.904C325.804 292.819 325.804 292.733 325.799 292.647L321.136 248.219C321.136 248.051 321.136 247.883 321.086 247.714L321.027 247.219L319.958 236.961C319.215 229.902 318.215 222.268 313.254 217.158C310.838 214.703 307.719 213.099 304.63 211.584C303.343 210.96 301.868 210.128 300.293 209.267C300.323 208.95 300.412 208.594 300.501 208.217ZM428.071 167.622C428.223 167.677 428.362 167.764 428.478 167.876C428.594 167.989 428.685 168.125 428.745 168.275C428.893 168.568 428.98 168.888 429.002 169.216C427.58 170.116 426.232 171.129 424.972 172.245C425.309 171.102 425.726 169.984 426.22 168.899C426.503 168.421 426.893 168.014 427.358 167.711C427.463 167.645 427.582 167.603 427.705 167.587C427.828 167.572 427.953 167.584 428.071 167.622ZM423.784 174.81L424.061 174.503L424.427 174.137C425.7 172.847 427.096 171.687 428.596 170.671L429.586 170.008L429.873 169.83L430.22 169.612C437.082 165.443 446.369 164.176 449.27 165.344C449.676 165.513 449.924 165.711 449.973 165.919C450.006 166.007 450.019 166.102 450.01 166.196C450.002 166.291 449.972 166.382 449.924 166.463C449.498 167.126 447.636 167.453 445.963 167.73C445.24 167.859 444.488 167.988 443.795 168.146C440.93 168.826 438.165 169.871 435.567 171.255C435.465 171.317 435.389 171.414 435.352 171.527C435.316 171.641 435.322 171.764 435.369 171.873C435.416 171.983 435.501 172.072 435.608 172.124C435.715 172.176 435.838 172.187 435.953 172.156C437.258 171.781 438.605 171.578 439.963 171.552C441.529 171.637 443.039 172.162 444.32 173.067L444.745 173.315C442.708 172.74 440.557 172.696 438.497 173.186L438.725 174.176C441.349 173.533 445.062 173.84 447.478 175.869C446.945 175.78 446.405 175.734 445.864 175.731C444.349 175.731 442.894 175.731 441.805 176.721L442.428 177.483C443.45 176.856 444.656 176.6 445.844 176.761C446.983 176.761 448.349 176.909 448.815 177.751C449.05 178.222 449.182 178.739 449.201 179.266C449.201 181.078 448.429 181.622 446.973 182.612C446.126 183.152 445.331 183.769 444.597 184.454C443.973 185.038 443.438 185.266 443.181 185.038C443.052 184.866 442.963 184.668 442.921 184.457C442.878 184.246 442.882 184.029 442.933 183.82H442.993C443.059 183.523 443.149 183.232 443.26 182.949L443.339 182.82C443.398 182.736 443.433 182.636 443.438 182.533C443.944 181.454 444.775 180.561 445.815 179.978L445.339 179.117C444.071 179.829 443.064 180.929 442.468 182.256C442.438 182.287 442.415 182.324 442.399 182.365C441.21 184.513 439.869 186.575 438.389 188.533C437.22 190.088 435.181 192.375 434.161 193.484L420.744 178.513C421.784 177.127 422.754 175.939 423.784 174.84V174.81ZM360.95 226.733L361.148 226.981C367.841 235.535 373.841 243.199 381.485 245.655C376.297 246.922 371.514 248.13 367.514 249.16L360.95 226.733ZM445.547 329.708L445.023 328.5L421.833 275.092L418.734 267.953L418.487 267.903C402.139 264.18 380.802 259.21 365.89 255.556C366.653 254.15 367.158 253.11 367.435 252.536C367.573 252.259 367.643 252.091 367.663 252.041L367.762 251.823L367.643 251.605L367.019 250.388C367.673 250.873 368.009 251.12 368.009 251.12L367.742 250.19C372.197 249.041 377.643 247.675 383.535 246.229C385.417 246.579 387.344 246.616 389.238 246.338C391.689 245.858 394.005 244.844 396.02 243.367C413.001 239.555 430.329 236.328 436.547 237.357L437.141 237.456C444.993 238.823 453.726 241.486 459.815 250.328C476.588 274.567 495.837 320.044 500.688 331.777C501.065 332.668 501.352 333.371 501.55 333.847H500.243C498.474 333.936 496.715 334.172 494.985 334.55C494.52 334.649 493.995 334.758 493.53 334.886C493.302 334.886 493.084 334.985 492.846 335.055H492.757L491.936 335.282C487.836 336.483 483.858 338.064 480.054 340.005C473.682 343.327 467.95 347.752 463.122 353.075C461.348 354.987 459.695 357.008 458.172 359.125L457.776 358.214L446.082 330.995L445.547 329.708ZM468.865 360.957C473.112 354.876 478.646 349.805 485.074 346.105C492.728 341.718 500.104 337.976 502.619 336.728L502.778 336.936C504.055 338.609 505.401 340.302 506.401 341.451C508.382 343.748 510.659 343.431 513.788 343.035C515.461 342.79 517.147 342.641 518.838 342.59C529.016 342.382 531.541 346.877 532.066 348.174L531.828 348.323C528.115 348.214 520.59 350.719 514.55 354.343C504.184 360.561 484.905 370.908 481.41 373.967C480.082 375.129 479.015 376.56 478.281 378.165L468.875 360.937L468.865 360.957ZM329.186 377.631L360.068 397.889C357.236 398.107 348.83 398.533 325.314 398.661C301.798 398.79 293.63 398.394 291.065 398.176L322.75 376.759V323.787C324.73 324.051 326.74 324.259 328.78 324.411L329.186 377.631Z" fill="#2B266D"/>
</g>
<defs>
<clipPath id="clip0_3820_6799">
<rect width="800" height="400" fill="white"/>
</clipPath>
</defs>
</svg>
