<svg width="800" height="400" viewBox="0 0 800 400" fill="none" xmlns="http://www.w3.org/2000/svg">
<rect x="284.594" y="45.7715" width="222.813" height="308.062" rx="18.4062" fill="#2B266D" stroke="#2B266D" stroke-width="1.9375"/>
<rect x="292.375" y="45.8027" width="222.75" height="308" rx="18.375" fill="white" stroke="#2B266D" stroke-width="2"/>
<path d="M310.75 45.8027H496.75C506.898 45.8027 515.125 54.0295 515.125 64.1777V105.803H292.375V64.1777C292.375 54.0295 300.602 45.8027 310.75 45.8027Z" fill="#9C96F0" stroke="#2B266D" stroke-width="2"/>
<rect x="536.469" y="84.5215" width="168.562" height="230.562" rx="18.4062" fill="#2B266D" stroke="#2B266D" stroke-width="1.9375"/>
<rect x="544.219" y="84.5215" width="168.562" height="230.562" rx="18.4062" fill="white" stroke="#2B266D" stroke-width="1.9375"/>
<path d="M562.625 84.5527H694.375C704.523 84.5527 712.75 92.7795 712.75 102.928V140.678H544.25V102.928C544.25 92.7795 552.477 84.5527 562.625 84.5527Z" fill="#D5D2F9" stroke="#2B266D" stroke-width="2"/>
<rect x="86.9688" y="84.5215" width="168.562" height="230.562" rx="18.4062" fill="#2B266D" stroke="#2B266D" stroke-width="1.9375"/>
<rect x="94.7495" y="84.5527" width="168.5" height="230.5" rx="18.375" fill="white" stroke="#2B266D" stroke-width="2"/>
<path d="M113.125 84.5527H244.875C255.023 84.5527 263.25 92.7795 263.25 102.928V140.678H94.7495V102.928C94.7495 92.7795 102.976 84.5527 113.125 84.5527Z" fill="#D5D2F9" stroke="#2B266D" stroke-width="2"/>
<path d="M351.064 81.3022V65.0272H357.62C360.922 65.0272 363.037 66.9802 363.037 70.0027C363.037 73.002 360.922 74.955 357.62 74.955H354.226V81.3022H351.064ZM354.226 72.2347H357.341C358.922 72.2347 359.875 71.3977 359.875 70.0027C359.875 68.5845 358.922 67.7475 357.341 67.7475H354.226V72.2347ZM365.05 81.3022L365.027 65.0272H371.304C374.489 65.0272 376.559 66.9105 376.559 69.84C376.559 71.6767 375.605 73.2345 374.001 74.025L378.326 81.3022H374.629L370.793 74.6295H368.212V81.3022H365.05ZM368.212 71.9092H370.816C372.443 71.9092 373.373 71.142 373.373 69.84C373.373 68.538 372.443 67.7475 370.816 67.7475H368.212V71.9092ZM380.148 81.3022V65.0272H391.029V67.7475H383.31V71.328H389.495V74.0715H383.31V78.5587H391.285V81.3022H380.148ZM393.635 81.3022V65.0272H397.192L402.168 76.815L407.143 65.0272H410.701V81.3022H407.725V70.9095L403.354 81.3022H400.982L396.611 70.9095V81.3022H393.635ZM413.774 81.3022V65.0272H416.936V81.3022H413.774ZM426.413 81.4882C422.6 81.4882 419.996 79.3957 419.996 75.3967V65.0272H422.972V75.42C422.972 77.6287 424.39 78.7215 426.413 78.7215C428.459 78.7215 429.877 77.6287 429.877 75.42V65.0272H432.83V75.3967C432.83 79.3957 430.226 81.4882 426.413 81.4882ZM435.889 81.3022V65.0272H439.446L444.422 76.815L449.397 65.0272H452.955V81.3022H449.979V70.9095L445.608 81.3022H443.236L438.865 70.9095V81.3022H435.889Z" fill="white"/>
<path d="M587.338 118.063C586.573 118.063 585.859 117.905 585.195 117.59C584.531 117.264 583.985 116.819 583.557 116.257C583.129 115.694 582.871 115.058 582.781 114.349L584.823 113.724C584.913 114.422 585.2 114.996 585.684 115.446C586.179 115.885 586.759 116.105 587.423 116.105C588.042 116.105 588.537 115.97 588.908 115.7C589.28 115.429 589.465 115.069 589.465 114.619C589.465 114.27 589.353 113.983 589.128 113.758C588.914 113.533 588.638 113.353 588.301 113.218C587.963 113.083 587.507 112.931 586.933 112.762C586.145 112.526 585.504 112.295 585.009 112.07C584.514 111.834 584.086 111.485 583.726 111.024C583.377 110.562 583.203 109.96 583.203 109.217C583.203 108.598 583.383 108.041 583.743 107.546C584.103 107.051 584.592 106.668 585.211 106.398C585.842 106.117 586.539 105.976 587.305 105.976C588.047 105.976 588.728 106.1 589.347 106.348C589.966 106.595 590.478 106.95 590.883 107.411C591.3 107.861 591.57 108.379 591.694 108.964L589.634 109.808C589.51 109.234 589.24 108.779 588.824 108.441C588.419 108.103 587.912 107.934 587.305 107.934C586.742 107.934 586.297 108.053 585.971 108.289C585.645 108.514 585.482 108.824 585.482 109.217C585.482 109.488 585.577 109.707 585.768 109.876C585.96 110.045 586.196 110.18 586.477 110.281C586.759 110.382 587.17 110.506 587.71 110.652C588.543 110.855 589.235 111.08 589.786 111.327C590.337 111.564 590.81 111.941 591.204 112.458C591.598 112.976 591.795 113.679 591.795 114.569C591.795 115.255 591.609 115.863 591.238 116.392C590.866 116.921 590.343 117.331 589.668 117.624C588.993 117.916 588.216 118.063 587.338 118.063ZM595.85 108.086H592.288V106.111H601.708V108.086H598.146V117.928H595.85V108.086ZM604.562 113.37H607.702L606.132 109.116L604.562 113.37ZM605.052 106.111H607.195L611.736 117.928H609.373L608.411 115.311H603.836L602.874 117.928H600.511L605.052 106.111ZM612.865 106.111H615.194L620.258 114.315V106.111H622.402V117.928H620.073L615.025 109.741V117.928H612.865V106.111ZM624.651 106.111H628.517C629.631 106.111 630.644 106.336 631.556 106.787C632.478 107.226 633.21 107.889 633.75 108.779C634.301 109.668 634.577 110.748 634.577 112.02C634.577 113.291 634.301 114.372 633.75 115.261C633.21 116.15 632.478 116.819 631.556 117.269C630.644 117.708 629.631 117.928 628.517 117.928H624.651V106.111ZM628.315 115.936C629.44 115.936 630.374 115.621 631.117 114.991C631.871 114.36 632.248 113.37 632.248 112.02C632.248 110.669 631.871 109.679 631.117 109.049C630.374 108.407 629.44 108.086 628.315 108.086H626.913V115.936H628.315ZM638.851 113.37H641.99L640.42 109.116L638.851 113.37ZM639.34 106.111H641.484L646.025 117.928H643.661L642.699 115.311H638.125L637.163 117.928H634.799L639.34 106.111ZM647.153 106.111H651.711C652.87 106.111 653.793 106.432 654.479 107.074C655.177 107.704 655.526 108.548 655.526 109.606C655.526 110.27 655.363 110.872 655.036 111.412C654.71 111.941 654.254 112.352 653.669 112.644L656.809 117.928H654.125L651.34 113.083H649.466V117.928H647.17L647.153 106.111ZM651.356 111.108C651.942 111.108 652.397 110.979 652.724 110.72C653.05 110.45 653.213 110.078 653.213 109.606C653.213 109.133 653.05 108.762 652.724 108.492C652.397 108.221 651.942 108.086 651.356 108.086H649.466V111.108H651.356ZM658.132 106.111H661.998C663.112 106.111 664.125 106.336 665.036 106.787C665.959 107.226 666.691 107.889 667.231 108.779C667.782 109.668 668.058 110.748 668.058 112.02C668.058 113.291 667.782 114.372 667.231 115.261C666.691 116.15 665.959 116.819 665.036 117.269C664.125 117.708 663.112 117.928 661.998 117.928H658.132V106.111ZM661.795 115.936C662.921 115.936 663.855 115.621 664.597 114.991C665.351 114.36 665.728 113.37 665.728 112.02C665.728 110.669 665.351 109.679 664.597 109.049C663.855 108.407 662.921 108.086 661.795 108.086H660.394V115.936H661.795Z" fill="#2B266D"/>
<path d="M133.692 109.987H141.592V111.962H135.988V114.562H140.478V116.553H135.988V119.811H141.778V121.803H133.692V109.987ZM147.367 121.938C146.601 121.938 145.887 121.781 145.223 121.466C144.559 121.139 144.013 120.695 143.585 120.132C143.158 119.569 142.899 118.934 142.809 118.225L144.852 117.6C144.942 118.298 145.229 118.872 145.712 119.322C146.208 119.761 146.787 119.98 147.451 119.98C148.07 119.98 148.565 119.845 148.937 119.575C149.308 119.305 149.494 118.945 149.494 118.495C149.494 118.146 149.381 117.859 149.156 117.634C148.942 117.409 148.667 117.229 148.329 117.094C147.991 116.959 147.536 116.807 146.962 116.638C146.174 116.401 145.532 116.171 145.037 115.946C144.542 115.709 144.114 115.361 143.754 114.899C143.405 114.438 143.231 113.836 143.231 113.093C143.231 112.474 143.411 111.917 143.771 111.422C144.131 110.927 144.621 110.544 145.24 110.274C145.87 109.993 146.568 109.852 147.333 109.852C148.076 109.852 148.757 109.976 149.375 110.223C149.994 110.471 150.506 110.825 150.912 111.287C151.328 111.737 151.598 112.255 151.722 112.84L149.662 113.684C149.539 113.11 149.269 112.654 148.852 112.316C148.447 111.979 147.941 111.81 147.333 111.81C146.77 111.81 146.326 111.928 145.999 112.164C145.673 112.39 145.51 112.699 145.51 113.093C145.51 113.363 145.606 113.582 145.797 113.751C145.988 113.92 146.224 114.055 146.506 114.156C146.787 114.258 147.198 114.381 147.738 114.528C148.571 114.73 149.263 114.955 149.814 115.203C150.366 115.439 150.838 115.816 151.232 116.334C151.626 116.852 151.823 117.555 151.823 118.444C151.823 119.13 151.637 119.738 151.266 120.267C150.895 120.796 150.371 121.207 149.696 121.499C149.021 121.792 148.245 121.938 147.367 121.938ZM157.34 121.938C156.575 121.938 155.86 121.781 155.196 121.466C154.532 121.139 153.986 120.695 153.559 120.132C153.131 119.569 152.872 118.934 152.782 118.225L154.825 117.6C154.915 118.298 155.202 118.872 155.686 119.322C156.181 119.761 156.76 119.98 157.424 119.98C158.043 119.98 158.539 119.845 158.91 119.575C159.281 119.305 159.467 118.945 159.467 118.495C159.467 118.146 159.354 117.859 159.129 117.634C158.916 117.409 158.64 117.229 158.302 117.094C157.965 116.959 157.509 116.807 156.935 116.638C156.147 116.401 155.506 116.171 155.011 115.946C154.515 115.709 154.088 115.361 153.728 114.899C153.379 114.438 153.204 113.836 153.204 113.093C153.204 112.474 153.384 111.917 153.745 111.422C154.105 110.927 154.594 110.544 155.213 110.274C155.843 109.993 156.541 109.852 157.306 109.852C158.049 109.852 158.73 109.976 159.349 110.223C159.968 110.471 160.48 110.825 160.885 111.287C161.301 111.737 161.571 112.255 161.695 112.84L159.636 113.684C159.512 113.11 159.242 112.654 158.826 112.316C158.42 111.979 157.914 111.81 157.306 111.81C156.744 111.81 156.299 111.928 155.973 112.164C155.646 112.39 155.483 112.699 155.483 113.093C155.483 113.363 155.579 113.582 155.77 113.751C155.961 113.92 156.198 114.055 156.479 114.156C156.76 114.258 157.171 114.381 157.711 114.528C158.544 114.73 159.236 114.955 159.788 115.203C160.339 115.439 160.812 115.816 161.206 116.334C161.6 116.852 161.796 117.555 161.796 118.444C161.796 119.13 161.611 119.738 161.239 120.267C160.868 120.796 160.345 121.207 159.67 121.499C158.994 121.792 158.218 121.938 157.34 121.938ZM163.431 109.987H171.331V111.962H165.727V114.562H170.217V116.553H165.727V119.811H171.517V121.803H163.431V109.987ZM173.223 109.987H175.552L180.616 118.191V109.987H182.76V121.803H180.431L175.384 113.616V121.803H173.223V109.987ZM187.727 111.962H184.165V109.987H193.585V111.962H190.023V121.803H187.727V111.962ZM194.752 109.987H197.048V121.803H194.752V109.987ZM202.324 117.245H205.464L203.894 112.992L202.324 117.245ZM202.814 109.987H204.958L209.498 121.803H207.135L206.173 119.187H201.598L200.636 121.803H198.273L202.814 109.987ZM210.627 109.987H212.923V119.811H218.409V121.803H210.627V109.987ZM223.444 121.938C222.679 121.938 221.964 121.781 221.3 121.466C220.636 121.139 220.091 120.695 219.663 120.132C219.235 119.569 218.977 118.934 218.886 118.225L220.929 117.6C221.019 118.298 221.306 118.872 221.79 119.322C222.285 119.761 222.865 119.98 223.529 119.98C224.148 119.98 224.643 119.845 225.014 119.575C225.385 119.305 225.571 118.945 225.571 118.495C225.571 118.146 225.459 117.859 225.234 117.634C225.02 117.409 224.744 117.229 224.406 117.094C224.069 116.959 223.613 116.807 223.039 116.638C222.251 116.401 221.61 116.171 221.115 115.946C220.62 115.709 220.192 115.361 219.832 114.899C219.483 114.438 219.308 113.836 219.308 113.093C219.308 112.474 219.489 111.917 219.849 111.422C220.209 110.927 220.698 110.544 221.317 110.274C221.947 109.993 222.645 109.852 223.41 109.852C224.153 109.852 224.834 109.976 225.453 110.223C226.072 110.471 226.584 110.825 226.989 111.287C227.405 111.737 227.676 112.255 227.799 112.84L225.74 113.684C225.616 113.11 225.346 112.654 224.93 112.316C224.525 111.979 224.018 111.81 223.41 111.81C222.848 111.81 222.403 111.928 222.077 112.164C221.751 112.39 221.587 112.699 221.587 113.093C221.587 113.363 221.683 113.582 221.874 113.751C222.066 113.92 222.302 114.055 222.583 114.156C222.865 114.258 223.275 114.381 223.816 114.528C224.648 114.73 225.34 114.955 225.892 115.203C226.443 115.439 226.916 115.816 227.31 116.334C227.704 116.852 227.901 117.555 227.901 118.444C227.901 119.13 227.715 119.738 227.344 120.267C226.972 120.796 226.449 121.207 225.774 121.499C225.098 121.792 224.322 121.938 223.444 121.938Z" fill="#2B266D"/>
</svg>
