<svg width="800" height="400" viewBox="0 0 800 400" fill="none" xmlns="http://www.w3.org/2000/svg">
<rect x="50.0005" y="109" width="205.505" height="98.471" rx="15.7865" fill="#2B266D"/>
<rect x="58.0869" y="110" width="196.418" height="95.4375" rx="14.7865" fill="#9C96F0" stroke="#2B266D" stroke-width="2"/>
<path d="M124.384 170.342C122.289 170.342 120.371 169.89 118.629 168.986C116.887 168.082 115.487 166.737 114.428 164.951C113.392 163.165 112.874 161.015 112.874 158.501C112.874 155.987 113.403 153.837 114.461 152.051C115.52 150.265 116.92 148.92 118.662 148.016C120.404 147.111 122.311 146.659 124.384 146.659C126.214 146.659 127.857 146.979 129.313 147.619C130.768 148.236 131.959 149.129 132.885 150.298C133.811 151.467 134.406 152.823 134.671 154.366L130.206 155.292C129.919 153.815 129.246 152.657 128.188 151.819C127.152 150.959 125.884 150.529 124.384 150.529C123.061 150.529 121.87 150.838 120.812 151.456C119.776 152.073 118.949 152.988 118.331 154.201C117.736 155.392 117.438 156.825 117.438 158.501C117.438 160.177 117.736 161.621 118.331 162.834C118.927 164.025 119.753 164.929 120.812 165.546C121.87 166.142 123.061 166.439 124.384 166.439C125.884 166.439 127.13 166.053 128.122 165.282C129.114 164.51 129.765 163.44 130.073 162.073L134.605 163.065C134.032 165.337 132.841 167.123 131.033 168.424C129.246 169.703 127.03 170.342 124.384 170.342ZM148.777 170.342C146.55 170.342 144.543 169.835 142.757 168.821C140.971 167.784 139.571 166.373 138.556 164.587C137.542 162.779 137.035 160.75 137.035 158.501C137.035 156.252 137.542 154.234 138.556 152.448C139.571 150.64 140.971 149.228 142.757 148.214C144.543 147.178 146.55 146.659 148.777 146.659C151.004 146.659 153 147.178 154.764 148.214C156.55 149.228 157.95 150.64 158.965 152.448C159.979 154.234 160.486 156.252 160.486 158.501C160.486 160.75 159.979 162.779 158.965 164.587C157.95 166.373 156.55 167.784 154.764 168.821C153 169.835 151.004 170.342 148.777 170.342ZM141.566 158.501C141.566 160.022 141.875 161.39 142.493 162.602C143.11 163.793 143.959 164.73 145.039 165.414C146.142 166.097 147.388 166.439 148.777 166.439C150.166 166.439 151.401 166.097 152.482 165.414C153.562 164.73 154.411 163.793 155.029 162.602C155.646 161.39 155.955 160.022 155.955 158.501C155.955 156.979 155.646 155.612 155.029 154.399C154.411 153.187 153.562 152.238 152.482 151.555C151.401 150.871 150.166 150.529 148.777 150.529C147.388 150.529 146.142 150.871 145.039 151.555C143.959 152.238 143.11 153.187 142.493 154.399C141.875 155.612 141.566 156.979 141.566 158.501ZM163.837 146.924H172.767C175.039 146.924 176.847 147.552 178.192 148.809C179.559 150.044 180.243 151.698 180.243 153.771C180.243 155.072 179.923 156.252 179.284 157.31C178.644 158.346 177.751 159.151 176.604 159.725L182.757 170.078H177.497L172.04 160.585H168.368V170.078H163.87L163.837 146.924ZM172.073 156.715C173.219 156.715 174.113 156.461 174.752 155.954C175.392 155.425 175.711 154.697 175.711 153.771C175.711 152.845 175.392 152.117 174.752 151.588C174.113 151.059 173.219 150.794 172.073 150.794H168.368V156.715H172.073ZM185.349 146.924H200.829V150.794H189.848V155.888H198.646V159.791H189.848V166.175H201.193V170.078H185.349V146.924Z" fill="#2B266D"/>
<rect x="538.073" y="109" width="205.505" height="98.471" rx="15.7865" fill="#2B266D"/>
<rect x="546.16" y="110" width="196.418" height="95.4375" rx="14.7865" fill="white" stroke="#2B266D" stroke-width="2"/>
<path d="M605.138 146.924H614.466C616.009 146.924 617.365 147.222 618.534 147.817C619.703 148.39 620.596 149.217 621.213 150.298C621.853 151.356 622.172 152.591 622.172 154.002C622.172 155.414 621.853 156.649 621.213 157.707C620.596 158.765 619.703 159.592 618.534 160.188C617.365 160.761 616.009 161.048 614.466 161.048H609.636V170.078H605.138V146.924ZM614.069 157.178C615.193 157.178 616.075 156.902 616.715 156.351C617.354 155.778 617.674 154.995 617.674 154.002C617.674 152.988 617.354 152.205 616.715 151.654C616.075 151.081 615.193 150.794 614.069 150.794H609.636V157.178H614.069ZM625.003 146.924H633.933C636.204 146.924 638.013 147.552 639.358 148.809C640.725 150.044 641.408 151.698 641.408 153.771C641.408 155.072 641.089 156.252 640.449 157.31C639.81 158.346 638.917 159.151 637.77 159.725L643.922 170.078H638.663L633.206 160.585H629.534V170.078H625.036L625.003 146.924ZM633.239 156.715C634.385 156.715 635.278 156.461 635.918 155.954C636.557 155.425 636.877 154.697 636.877 153.771C636.877 152.845 636.557 152.117 635.918 151.588C635.278 151.059 634.385 150.794 633.239 150.794H629.534V156.715H633.239ZM656.005 170.342C653.777 170.342 651.771 169.835 649.985 168.821C648.198 167.784 646.798 166.373 645.784 164.587C644.77 162.779 644.262 160.75 644.262 158.501C644.262 156.252 644.77 154.234 645.784 152.448C646.798 150.64 648.198 149.228 649.985 148.214C651.771 147.178 653.777 146.659 656.005 146.659C658.232 146.659 660.227 147.178 661.991 148.214C663.778 149.228 665.178 150.64 666.192 152.448C667.207 154.234 667.714 156.252 667.714 158.501C667.714 160.75 667.207 162.779 666.192 164.587C665.178 166.373 663.778 167.784 661.991 168.821C660.227 169.835 658.232 170.342 656.005 170.342ZM648.794 158.501C648.794 160.022 649.103 161.39 649.72 162.602C650.337 163.793 651.186 164.73 652.267 165.414C653.369 166.097 654.615 166.439 656.005 166.439C657.394 166.439 658.629 166.097 659.709 165.414C660.79 164.73 661.639 163.793 662.256 162.602C662.873 161.39 663.182 160.022 663.182 158.501C663.182 156.979 662.873 155.612 662.256 154.399C661.639 153.187 660.79 152.238 659.709 151.555C658.629 150.871 657.394 150.529 656.005 150.529C654.615 150.529 653.369 150.871 652.267 151.555C651.186 152.238 650.337 153.187 649.72 154.399C649.103 155.612 648.794 156.979 648.794 158.501ZM686.246 161.114H679.863V167.465H676.323V161.114H669.94V157.542H676.29V151.191H679.863V157.542H686.246V161.114Z" fill="#2B266D"/>
<rect x="294.037" y="109" width="205.505" height="98.471" rx="15.7865" fill="#2B266D"/>
<rect x="302.124" y="110" width="196.418" height="95.4375" rx="14.7865" fill="#D5D2F9" stroke="#2B266D" stroke-width="2"/>
<path d="M370.308 146.924H379.635C381.179 146.924 382.535 147.222 383.704 147.817C384.872 148.39 385.765 149.217 386.383 150.298C387.022 151.356 387.342 152.591 387.342 154.002C387.342 155.414 387.022 156.649 386.383 157.707C385.765 158.765 384.872 159.592 383.704 160.188C382.535 160.761 381.179 161.048 379.635 161.048H374.806V170.078H370.308V146.924ZM379.238 157.178C380.363 157.178 381.245 156.902 381.885 156.351C382.524 155.778 382.844 154.995 382.844 154.002C382.844 152.988 382.524 152.205 381.885 151.654C381.245 151.081 380.363 150.794 379.238 150.794H374.806V157.178H379.238ZM390.172 146.924H399.103C401.374 146.924 403.182 147.552 404.528 148.809C405.895 150.044 406.578 151.698 406.578 153.771C406.578 155.072 406.259 156.252 405.619 157.31C404.98 158.346 404.086 159.151 402.94 159.725L409.092 170.078H403.833L398.375 160.585H394.704V170.078H390.205L390.172 146.924ZM398.408 156.715C399.555 156.715 400.448 156.461 401.088 155.954C401.727 155.425 402.047 154.697 402.047 153.771C402.047 152.845 401.727 152.117 401.088 151.588C400.448 151.059 399.555 150.794 398.408 150.794H394.704V156.715H398.408ZM421.174 170.342C418.947 170.342 416.941 169.835 415.154 168.821C413.368 167.784 411.968 166.373 410.954 164.587C409.939 162.779 409.432 160.75 409.432 158.501C409.432 156.252 409.939 154.234 410.954 152.448C411.968 150.64 413.368 149.228 415.154 148.214C416.941 147.178 418.947 146.659 421.174 146.659C423.401 146.659 425.397 147.178 427.161 148.214C428.947 149.228 430.348 150.64 431.362 152.448C432.376 154.234 432.883 156.252 432.883 158.501C432.883 160.75 432.376 162.779 431.362 164.587C430.348 166.373 428.947 167.784 427.161 168.821C425.397 169.835 423.401 170.342 421.174 170.342ZM413.964 158.501C413.964 160.022 414.272 161.39 414.89 162.602C415.507 163.793 416.356 164.73 417.437 165.414C418.539 166.097 419.785 166.439 421.174 166.439C422.564 166.439 423.798 166.097 424.879 165.414C425.959 164.73 426.808 163.793 427.426 162.602C428.043 161.39 428.352 160.022 428.352 158.501C428.352 156.979 428.043 155.612 427.426 154.399C426.808 153.187 425.959 152.238 424.879 151.555C423.798 150.871 422.564 150.529 421.174 150.529C419.785 150.529 418.539 150.871 417.437 151.555C416.356 152.238 415.507 153.187 414.89 154.399C414.272 155.612 413.964 156.979 413.964 158.501Z" fill="#2B266D"/>
<path d="M255.505 290.958H50" stroke="#2B266D" stroke-width="2" stroke-miterlimit="10" stroke-linecap="round"/>
<path d="M499.541 290.958H294.036" stroke="#2B266D" stroke-width="2" stroke-miterlimit="10" stroke-linecap="round"/>
<path d="M750 290.958H544.496" stroke="#2B266D" stroke-width="2" stroke-miterlimit="10" stroke-linecap="round"/>
</svg>
