<svg width="800" height="400" viewBox="0 0 800 400" fill="none" xmlns="http://www.w3.org/2000/svg">
<rect x="8" y="149" width="219" height="103" rx="16.8042" fill="#2B266D"/>
<rect x="16.5459" y="149.506" width="209.211" height="101.72" rx="15.8042" fill="white" stroke="#2B266D" stroke-width="2"/>
<path d="M55.554 188.941H65.2365C67.5603 188.941 69.4264 189.504 70.8348 190.631C72.2666 191.734 72.9825 193.283 72.9825 195.279C72.9825 196.358 72.6891 197.333 72.1023 198.201C71.5155 199.07 70.8113 199.715 69.9897 200.138C71.2338 200.607 72.2431 201.358 73.0177 202.391C73.7923 203.424 74.1796 204.715 74.1796 206.264C74.1796 208.541 73.3933 210.336 71.8206 211.651C70.2714 212.942 68.1941 213.587 65.5886 213.587H55.554V188.941ZM65.0957 209.433C68.1237 209.433 69.6377 208.306 69.6377 206.053C69.6377 203.752 68.1237 202.602 65.0957 202.602H60.3424V209.433H65.0957ZM64.8844 198.553C66.0815 198.553 66.9852 198.307 67.5955 197.814C68.2058 197.321 68.511 196.605 68.511 195.666C68.511 193.741 67.2786 192.779 64.814 192.779H60.3424V198.553H64.8844ZM77.7316 188.941H87.2381C89.6558 188.941 91.5805 189.61 93.0124 190.948C94.4677 192.262 95.1953 194.023 95.1953 196.229C95.1953 197.614 94.855 198.87 94.1743 199.997C93.4936 201.1 92.5429 201.957 91.3223 202.567L97.8712 213.587H92.273L86.4635 203.482H82.5553V213.587H77.7668L77.7316 188.941ZM86.4987 199.363C87.7193 199.363 88.6699 199.093 89.3506 198.553C90.0313 197.99 90.3717 197.215 90.3717 196.229C90.3717 195.243 90.0313 194.469 89.3506 193.906C88.6699 193.342 87.7193 193.06 86.4987 193.06H82.5553V199.363H86.4987ZM110.732 213.869C108.362 213.869 106.226 213.329 104.324 212.249C102.423 211.146 100.933 209.644 99.8528 207.743C98.7731 205.818 98.2332 203.658 98.2332 201.264C98.2332 198.87 98.7731 196.722 99.8528 194.821C100.933 192.896 102.423 191.394 104.324 190.314C106.226 189.211 108.362 188.659 110.732 188.659C113.103 188.659 115.227 189.211 117.105 190.314C119.007 191.394 120.497 192.896 121.577 194.821C122.657 196.722 123.196 198.87 123.196 201.264C123.196 203.658 122.657 205.818 121.577 207.743C120.497 209.644 119.007 211.146 117.105 212.249C115.227 213.329 113.103 213.869 110.732 213.869ZM103.057 201.264C103.057 202.884 103.385 204.339 104.043 205.63C104.7 206.898 105.604 207.895 106.754 208.623C107.927 209.351 109.254 209.714 110.732 209.714C112.211 209.714 113.526 209.351 114.676 208.623C115.826 207.895 116.73 206.898 117.387 205.63C118.044 204.339 118.373 202.884 118.373 201.264C118.373 199.645 118.044 198.189 117.387 196.898C116.73 195.607 115.826 194.598 114.676 193.87C113.526 193.143 112.211 192.779 110.732 192.779C109.254 192.779 107.927 193.143 106.754 193.87C105.604 194.598 104.7 195.607 104.043 196.898C103.385 198.189 103.057 199.645 103.057 201.264ZM126.763 188.941H131.622L142.185 206.053V188.941H146.656V213.587H141.797L131.27 196.511V213.587H126.763V188.941ZM149.939 209.714L163.354 193.06H150.608V188.941H168.846V192.814L155.608 209.433H168.917V213.587H149.939V209.714ZM172.528 188.941H189.006V193.06H177.316V198.483H186.682V202.637H177.316V209.433H189.393V213.587H172.528V188.941Z" fill="#2B266D"/>
<rect x="573" y="149" width="219" height="103" rx="16.8042" fill="#2B266D"/>
<rect x="582.009" y="149.506" width="209.211" height="101.72" rx="15.8042" fill="white" stroke="#2B266D" stroke-width="2"/>
<path d="M652.117 213.869C649.957 213.869 647.962 213.388 646.131 212.426C644.3 211.463 642.822 210.043 641.695 208.165C640.592 206.264 640.04 203.964 640.04 201.264C640.04 198.565 640.603 196.276 641.73 194.398C642.88 192.497 644.394 191.065 646.272 190.103C648.173 189.141 650.227 188.659 652.434 188.659C655.391 188.659 657.856 189.387 659.828 190.842C661.799 192.298 663.02 194.305 663.489 196.863L658.771 197.849C658.466 196.3 657.738 195.067 656.588 194.152C655.438 193.237 654.041 192.779 652.398 192.779C650.92 192.779 649.605 193.119 648.455 193.8C647.328 194.457 646.448 195.431 645.814 196.722C645.181 197.99 644.864 199.504 644.864 201.264C644.864 203.025 645.181 204.539 645.814 205.806C646.448 207.074 647.328 208.048 648.455 208.729C649.582 209.386 650.873 209.714 652.328 209.714C654.182 209.714 655.696 209.221 656.87 208.236C658.044 207.226 658.689 205.912 658.806 204.292H651.483V200.419H663.243V213.587H658.912V210.595C658.372 211.58 657.48 212.379 656.236 212.989C654.992 213.576 653.619 213.869 652.117 213.869ZM679.015 213.869C676.644 213.869 674.508 213.329 672.607 212.249C670.705 211.146 669.215 209.644 668.135 207.743C667.055 205.818 666.516 203.658 666.516 201.264C666.516 198.87 667.055 196.722 668.135 194.821C669.215 192.896 670.705 191.394 672.607 190.314C674.508 189.211 676.644 188.659 679.015 188.659C681.386 188.659 683.51 189.211 685.388 190.314C687.289 191.394 688.779 192.896 689.859 194.821C690.939 196.722 691.479 198.87 691.479 201.264C691.479 203.658 690.939 205.818 689.859 207.743C688.779 209.644 687.289 211.146 685.388 212.249C683.51 213.329 681.386 213.869 679.015 213.869ZM671.339 201.264C671.339 202.884 671.668 204.339 672.325 205.63C672.982 206.898 673.886 207.895 675.036 208.623C676.21 209.351 677.536 209.714 679.015 209.714C680.494 209.714 681.808 209.351 682.958 208.623C684.108 207.895 685.012 206.898 685.669 205.63C686.327 204.339 686.655 202.884 686.655 201.264C686.655 199.645 686.327 198.189 685.669 196.898C685.012 195.607 684.108 194.598 682.958 193.87C681.808 193.143 680.494 192.779 679.015 192.779C677.536 192.779 676.21 193.143 675.036 193.87C673.886 194.598 672.982 195.607 672.325 196.898C671.668 198.189 671.339 199.645 671.339 201.264ZM695.045 188.941H699.834V209.433H711.277V213.587H695.045V188.941ZM714.025 188.941H722.088C724.412 188.941 726.525 189.41 728.426 190.349C730.351 191.265 731.876 192.65 733.003 194.504C734.153 196.358 734.728 198.612 734.728 201.264C734.728 203.917 734.153 206.17 733.003 208.024C731.876 209.879 730.351 211.275 728.426 212.214C726.525 213.13 724.412 213.587 722.088 213.587H714.025V188.941ZM721.666 209.433C724.013 209.433 725.961 208.775 727.51 207.461C729.083 206.147 729.869 204.081 729.869 201.264C729.869 198.447 729.083 196.382 727.51 195.067C725.961 193.729 724.013 193.06 721.666 193.06H718.743V209.433H721.666Z" fill="#2B266D"/>
<rect x="256.24" y="114.772" width="295.09" height="170.456" rx="35.559" fill="#2B266D"/>
<rect x="268.237" y="115.772" width="282.093" height="168.456" rx="34.559" fill="#D5D2F9" stroke="#2B266D" stroke-width="2"/>
<path d="M327.043 223.418C324.248 223.418 321.638 222.842 319.212 221.691C316.787 220.499 314.794 218.875 313.231 216.82C311.669 214.765 310.724 212.442 310.395 209.853L317.856 207.571C318.185 210.12 319.233 212.216 321.001 213.86C322.809 215.464 324.926 216.265 327.351 216.265C329.612 216.265 331.421 215.772 332.777 214.785C334.134 213.799 334.812 212.483 334.812 210.839C334.812 209.565 334.401 208.517 333.579 207.694C332.798 206.872 331.791 206.215 330.558 205.721C329.325 205.228 327.66 204.673 325.563 204.057C322.686 203.193 320.343 202.351 318.534 201.529C316.725 200.665 315.163 199.391 313.848 197.706C312.574 196.02 311.937 193.821 311.937 191.108C311.937 188.847 312.594 186.813 313.91 185.004C315.225 183.195 317.013 181.798 319.274 180.811C321.576 179.783 324.125 179.27 326.92 179.27C329.633 179.27 332.12 179.722 334.381 180.626C336.641 181.53 338.512 182.825 339.992 184.511C341.513 186.155 342.499 188.046 342.951 190.183L335.429 193.266C334.977 191.17 333.99 189.505 332.469 188.272C330.989 187.039 329.14 186.422 326.92 186.422C324.865 186.422 323.241 186.854 322.049 187.717C320.857 188.539 320.261 189.669 320.261 191.108C320.261 192.095 320.61 192.896 321.309 193.513C322.008 194.129 322.871 194.623 323.899 194.993C324.926 195.363 326.427 195.815 328.4 196.349C331.442 197.089 333.97 197.911 335.984 198.816C337.998 199.679 339.724 201.056 341.163 202.947C342.602 204.838 343.321 207.407 343.321 210.654C343.321 213.162 342.643 215.381 341.286 217.313C339.93 219.245 338.019 220.746 335.552 221.814C333.086 222.883 330.249 223.418 327.043 223.418ZM349.291 179.763H357.677V222.924H349.291V179.763ZM365.79 179.763H374.175V215.649H394.215V222.924H365.79V179.763ZM390.452 179.763H399.023L410.183 212.936L421.467 179.763H429.976L414.253 222.924H406.176L390.452 179.763ZM434.494 179.763H463.351V186.977H442.88V196.472H459.281V203.748H442.88V215.649H464.029V222.924H434.494V179.763ZM470.261 179.763H486.909C491.143 179.763 494.514 180.934 497.021 183.277C499.57 185.579 500.844 188.662 500.844 192.526C500.844 194.952 500.248 197.151 499.056 199.124C497.864 201.056 496.199 202.556 494.062 203.625L505.53 222.924H495.727L485.553 205.228H478.709V222.924H470.323L470.261 179.763ZM485.614 198.014C487.752 198.014 489.417 197.541 490.609 196.596C491.801 195.609 492.397 194.253 492.397 192.526C492.397 190.8 491.801 189.443 490.609 188.457C489.417 187.47 487.752 186.977 485.614 186.977H478.709V198.014H485.614Z" fill="#2B266D"/>
<path d="M517.211 117L548.873 148.5L549 193L474 117H517.211Z" fill="#FF5787"/>
<path d="M544 377H261" stroke="#2B266D" stroke-width="2" stroke-miterlimit="10" stroke-linecap="round"/>
<path d="M211 377H26" stroke="#2B266D" stroke-width="2" stroke-miterlimit="10" stroke-linecap="round"/>
<path d="M779 377H594" stroke="#2B266D" stroke-width="2" stroke-miterlimit="10" stroke-linecap="round"/>
</svg>
