<svg width="800" height="400" viewBox="0 0 800 400" fill="none" xmlns="http://www.w3.org/2000/svg">
<path d="M398.184 354.853C332.184 354.853 271.553 364.893 236 381.717L236.381 382.533C271.825 365.772 332.311 355.76 398.184 355.76C466.443 355.76 530.085 366.834 564.277 384.665L564.704 383.858C530.402 365.972 466.597 354.853 398.184 354.853Z" fill="#2B266D"/>
<path d="M311.36 261.752C308.846 261.829 306.461 262.882 304.709 264.688C302.958 266.493 301.979 268.91 301.979 271.425C301.979 273.94 302.958 276.357 304.709 278.162C306.461 279.968 308.846 281.021 311.36 281.098C313.874 281.021 316.259 279.968 318.011 278.162C319.762 276.357 320.741 273.94 320.741 271.425C320.741 268.91 319.762 266.493 318.011 264.688C316.259 262.882 313.874 261.829 311.36 261.752Z" fill="#FF5787"/>
<path d="M322.198 270.622C319.572 270.606 317.056 269.561 315.191 267.711C313.326 265.861 312.26 263.354 312.222 260.727V260.274H310.535V260.727C310.497 263.354 309.431 265.861 307.566 267.711C305.701 269.561 303.185 270.606 300.558 270.622H299.996V271.811L300.105 272.255H300.558C301.876 272.262 303.178 272.529 304.393 273.039C305.607 273.55 306.709 274.295 307.635 275.231C308.562 276.168 309.295 277.278 309.792 278.497C310.29 279.717 310.542 281.023 310.535 282.34V282.803H311.786L312.24 282.712V282.259C312.24 279.613 313.291 277.075 315.162 275.204C317.033 273.333 319.571 272.282 322.217 272.282H322.67V270.668L322.198 270.622ZM311.36 281.098C308.846 281.021 306.461 279.968 304.71 278.162C302.958 276.357 301.979 273.94 301.979 271.425C301.979 268.91 302.958 266.493 304.71 264.688C306.461 262.882 308.846 261.829 311.36 261.752C313.874 261.829 316.26 262.882 318.011 264.688C319.762 266.493 320.741 268.91 320.741 271.425C320.741 273.94 319.762 276.357 318.011 278.162C316.26 279.968 313.874 281.021 311.36 281.098Z" fill="#2B266D"/>
<path d="M531.282 322.7C528.768 322.777 526.383 323.83 524.631 325.636C522.88 327.442 521.901 329.858 521.901 332.373C521.901 334.889 522.88 337.305 524.631 339.111C526.383 340.916 528.768 341.969 531.282 342.046C533.796 341.969 536.181 340.916 537.933 339.111C539.684 337.305 540.663 334.889 540.663 332.373C540.663 329.858 539.684 327.442 537.933 325.636C536.181 323.83 533.796 322.777 531.282 322.7Z" fill="#FF5787"/>
<path d="M542.111 331.571C539.484 331.554 536.969 330.509 535.103 328.659C533.238 326.809 532.172 324.302 532.134 321.676V321.222H530.448V321.676C530.412 324.303 529.347 326.812 527.481 328.662C525.616 330.512 523.099 331.557 520.471 331.571H519.909V332.75L520.018 333.203H520.471C521.788 333.21 523.091 333.477 524.305 333.988C525.52 334.498 526.622 335.243 527.548 336.18C528.474 337.116 529.207 338.226 529.705 339.446C530.202 340.666 530.455 341.972 530.448 343.289V343.742H531.699L532.153 343.661V343.207C532.153 340.561 533.204 338.024 535.075 336.153C536.946 334.282 539.483 333.23 542.129 333.23H542.583V331.616L542.111 331.571ZM531.282 342.055C528.768 341.978 526.383 340.925 524.631 339.12C522.88 337.314 521.901 334.898 521.901 332.382C521.901 329.867 522.88 327.451 524.631 325.645C526.383 323.839 528.768 322.787 531.282 322.71C533.796 322.787 536.181 323.839 537.933 325.645C539.684 327.451 540.663 329.867 540.663 332.382C540.663 334.898 539.684 337.314 537.933 339.12C536.181 340.925 533.796 341.978 531.282 342.055Z" fill="#2B266D"/>
<path d="M543.245 194.546C542.984 196.976 541.917 199.25 540.214 201.004C538.512 202.757 536.271 203.891 533.849 204.223C533.793 205.492 533.995 206.759 534.442 207.947C534.889 209.136 535.572 210.222 536.45 211.139C537.328 212.056 538.383 212.787 539.551 213.285C540.718 213.784 541.975 214.041 543.245 214.041C544.515 214.041 545.772 213.784 546.939 213.285C548.107 212.787 549.162 212.056 550.04 211.139C550.918 210.222 551.601 209.136 552.048 207.947C552.495 206.759 552.697 205.492 552.641 204.223C550.219 203.891 547.978 202.757 546.276 201.004C544.573 199.25 543.506 196.976 543.245 194.546Z" fill="#FF5787"/>
<path d="M554.074 203.416C551.446 203.402 548.929 202.358 547.064 200.507C545.198 198.657 544.133 196.148 544.097 193.521V193.076H542.392V193.521C542.359 196.149 541.295 198.659 539.429 200.51C537.562 202.36 535.044 203.404 532.416 203.416V203.869L532.316 203.416H531.853V204.595L531.962 205.048H532.416C533.734 205.048 535.04 205.31 536.257 205.817C537.474 206.325 538.578 207.069 539.506 208.006C540.434 208.943 541.166 210.054 541.662 211.276C542.157 212.498 542.406 213.806 542.392 215.125V215.588H543.635L544.088 215.497V215.043C544.088 212.397 545.139 209.86 547.01 207.989C548.881 206.118 551.419 205.067 554.065 205.067H554.519V203.443L554.074 203.416ZM543.245 213.928C543.001 211.488 541.94 209.203 540.235 207.441C538.529 205.68 536.279 204.546 533.849 204.223C533.849 202.989 534.092 201.767 534.564 200.627C535.036 199.487 535.728 198.452 536.601 197.579C537.473 196.706 538.509 196.014 539.649 195.542C540.789 195.07 542.011 194.827 543.245 194.827C544.479 194.827 545.701 195.07 546.841 195.542C547.981 196.014 549.017 196.706 549.889 197.579C550.762 198.452 551.454 199.487 551.926 200.627C552.398 201.767 552.641 202.989 552.641 204.223C550.216 204.56 547.974 205.698 546.271 207.457C544.569 209.215 543.503 211.493 543.245 213.928Z" fill="#2B266D"/>
<path d="M357.443 133.788C355.33 130.913 350.278 131.911 340.773 137.162C337.336 134.635 333.172 133.29 328.906 133.328C324.639 133.366 320.5 134.786 317.109 137.374C313.718 139.963 311.256 143.581 310.094 147.686C308.932 151.791 309.131 156.162 310.662 160.144C301.882 168.933 302.363 172.035 303.515 173.604C303.814 173.986 304.188 174.303 304.613 174.535C305.039 174.767 305.508 174.91 305.991 174.955C306.291 174.995 306.595 175.013 306.898 175.01C309.845 175.01 314.607 173.332 319.976 170.593C322.817 172.099 325.984 172.887 329.2 172.887C332.416 172.887 335.583 172.099 338.424 170.593C342.146 168.614 345.138 165.499 346.967 161.701C348.795 157.904 349.365 153.622 348.591 149.478C354.768 143.429 359.819 137.08 357.443 133.788ZM338.914 136.989L338.832 137.216C338.705 137.642 338.569 138.069 338.442 138.486C338.379 138.695 338.306 138.894 338.242 139.103C334.506 150.612 330.025 158.086 317.074 167.6C315.475 166.271 314.111 164.683 313.038 162.902C312.838 162.584 312.63 162.267 312.457 161.931C312.285 161.595 312.068 161.124 311.886 160.716C310.614 157.846 310.079 154.705 310.329 151.576C310.58 148.448 311.607 145.431 313.319 142.8C315.031 140.169 317.373 138.008 320.132 136.512C322.891 135.016 325.98 134.232 329.119 134.232C332.573 134.246 335.959 135.199 338.914 136.989ZM306.58 171.4C306.78 170.493 308.068 168.044 312.394 163.573C313.49 165.339 314.858 166.922 316.448 168.262C311.623 170.556 307.941 171.645 306.58 171.4ZM347.394 145.497C347.158 144.935 346.904 144.381 346.614 143.828C345.819 142.34 344.835 140.962 343.684 139.728C351.938 135.321 354.142 135.774 354.496 135.91C354.477 136.98 352.555 140.246 347.394 145.497Z" fill="#2B266D"/>
<path d="M311.886 160.716C312.068 161.124 312.24 161.532 312.457 161.931C312.675 162.33 312.838 162.584 313.038 162.902C314.111 164.683 315.475 166.271 317.074 167.6C330.025 158.086 334.506 150.612 338.242 139.103C338.306 138.894 338.379 138.695 338.442 138.486C338.569 138.069 338.705 137.642 338.832 137.216L338.914 136.989C335.945 135.205 332.546 134.265 329.082 134.269C325.944 134.268 322.855 135.052 320.096 136.548C317.337 138.044 314.995 140.206 313.283 142.836C311.571 145.467 310.543 148.484 310.293 151.613C310.043 154.741 310.578 157.883 311.85 160.752L311.886 160.716Z" fill="#B8B4F5"/>
<path d="M524.153 106.243L523.953 105.971L524.153 105.699C528.28 100.232 530.51 93.5664 530.502 86.7162C530.469 80.1444 528.417 73.7416 524.622 68.3762C520.827 63.0108 515.473 58.9423 509.288 56.7226L508.825 56.5504L509.034 56.0969C511.014 51.893 512.036 47.3022 512.027 42.6555C511.885 34.1943 508.424 26.1276 502.39 20.1941C496.357 14.2606 488.233 10.9358 479.771 10.9358C471.308 10.9358 463.184 14.2606 457.151 20.1941C451.117 26.1276 447.656 34.1943 447.514 42.6555C447.514 42.9276 447.514 43.1908 447.514 43.4538V44.1794H447.025C446.498 44.1794 445.982 44.1794 445.455 44.1794C436.948 44.1456 428.774 47.4879 422.728 53.473C416.682 59.4581 413.256 67.5972 413.204 76.1047C413.19 82.8486 415.346 89.4179 419.353 94.8426L419.589 95.1692L419.298 95.4413C416.439 98.1123 414.159 101.342 412.599 104.93C411.039 108.518 410.232 112.389 410.229 116.302C410.196 121.536 411.621 126.677 414.344 131.147C417.067 135.618 420.981 139.243 425.647 141.615L426.146 141.869L425.792 142.304C421.205 147.94 418.715 154.992 418.745 162.258C418.781 168.274 420.508 174.159 423.728 179.241C426.948 184.323 431.532 188.398 436.957 190.999L437.238 191.136V191.444C437.184 192.169 437.166 192.777 437.166 193.34C437.16 197.771 438.307 202.128 440.494 205.983L440.784 206.491L440.213 206.636C434.484 208.244 429.317 211.419 425.294 215.804C421.27 220.188 418.55 225.608 417.439 231.454C416.328 237.3 416.87 243.341 419.005 248.895C421.139 254.45 424.781 259.299 429.521 262.897C434.26 266.495 439.91 268.7 445.834 269.262C451.758 269.824 457.722 268.723 463.054 266.081C468.386 263.439 472.876 259.362 476.017 254.308C479.158 249.254 480.827 243.423 480.836 237.473C480.839 231.429 479.107 225.511 475.848 220.422L475.521 219.914L476.111 219.741C488.808 216.113 497.307 205.538 497.307 193.34C497.306 191.407 497.087 189.481 496.654 187.598L496.59 187.326L496.817 187.145C500.578 184.178 503.617 180.397 505.707 176.087C507.796 171.776 508.881 167.048 508.88 162.258C508.876 160.178 508.673 158.104 508.272 156.063L508.19 155.673L508.571 155.546C514.931 153.441 520.467 149.39 524.396 143.964C528.326 138.539 530.449 132.016 530.466 125.317C530.506 118.439 528.288 111.739 524.153 106.243ZM452.82 62.8086C449.728 62.722 446.651 63.2561 443.769 64.3794C440.887 65.5027 438.26 67.1925 436.043 69.3487C433.825 71.5049 432.063 74.0837 430.859 76.9328C429.656 79.7819 429.035 82.8434 429.035 85.9363C429.035 89.0292 429.656 92.0907 430.859 94.9398C432.063 97.7889 433.825 100.368 436.043 102.524C438.26 104.68 440.887 106.37 443.769 107.493C446.651 108.616 449.728 109.151 452.82 109.064V109.971C449.608 110.059 446.411 109.503 443.418 108.335C440.425 107.166 437.696 105.41 435.393 103.17C433.09 100.929 431.26 98.2496 430.01 95.2897C428.76 92.3297 428.116 89.1494 428.116 85.9363C428.116 82.7233 428.76 79.5427 430.01 76.5828C431.26 73.6228 433.09 70.9433 435.393 68.7028C437.696 66.4622 440.425 64.7059 443.418 63.5378C446.411 62.3696 449.608 61.8134 452.82 61.9016V62.8086ZM453.963 196.568V195.661C455.876 195.71 457.779 195.374 459.56 194.676C461.341 193.977 462.965 192.929 464.334 191.593C465.704 190.257 466.793 188.66 467.536 186.897C468.28 185.134 468.662 183.24 468.662 181.327C468.662 179.413 468.28 177.519 467.536 175.756C466.793 173.993 465.704 172.397 464.334 171.061C462.965 169.725 461.341 168.677 459.56 167.978C457.779 167.279 455.876 166.944 453.963 166.992V166.085C455.996 166.035 458.018 166.393 459.91 167.137C461.803 167.88 463.528 168.995 464.983 170.415C466.438 171.836 467.595 173.533 468.384 175.407C469.174 177.28 469.581 179.293 469.581 181.327C469.581 183.36 469.174 185.373 468.384 187.247C467.595 189.121 466.438 190.818 464.983 192.238C463.528 193.658 461.803 194.773 459.91 195.517C458.018 196.26 455.996 196.618 453.963 196.568Z" fill="#C5F6E6"/>
<path d="M531.382 86.6799C531.347 80.0055 529.288 73.499 525.476 68.0203C521.663 62.5417 516.278 58.3493 510.032 55.9972C511.938 51.7955 512.918 47.2332 512.907 42.6194C512.763 33.919 509.206 25.6233 503.002 19.5214C496.798 13.4195 488.445 10 479.744 10C471.042 10 462.689 13.4195 456.485 19.5214C450.281 25.6233 446.724 33.919 446.58 42.6194C446.58 42.8099 446.58 43.0003 446.58 43.1907H445.465C436.716 43.1569 428.312 46.5948 422.096 52.75C415.879 58.9052 412.359 67.275 412.306 76.023C412.295 82.8237 414.424 89.4556 418.392 94.9788C415.529 97.729 413.25 101.028 411.691 104.68C410.133 108.331 409.327 112.259 409.322 116.229C409.29 121.536 410.709 126.752 413.427 131.311C416.145 135.87 420.057 139.599 424.74 142.096C420.248 147.809 417.815 154.872 417.838 162.14C417.876 168.275 419.622 174.278 422.88 179.477C426.138 184.675 430.781 188.863 436.286 191.571C436.286 192.188 436.232 192.714 436.232 193.222C436.221 197.61 437.31 201.932 439.397 205.792C433.558 207.54 428.32 210.877 424.267 215.429C420.214 219.982 417.506 225.571 416.445 231.573C415.384 237.575 416.012 243.753 418.259 249.419C420.505 255.085 424.282 260.015 429.168 263.659C434.054 267.303 439.856 269.518 445.928 270.055C451.999 270.593 458.1 269.433 463.551 266.705C469.001 263.977 473.586 259.787 476.793 254.605C480.001 249.422 481.706 243.45 481.716 237.355C481.719 231.345 480.055 225.452 476.909 220.331C489.661 216.467 498.187 205.647 498.187 193.222C498.185 191.318 497.979 189.421 497.57 187.562C501.374 184.512 504.444 180.647 506.554 176.251C508.664 171.856 509.759 167.043 509.76 162.167C509.756 160.162 509.571 158.162 509.206 156.19C515.656 153.968 521.254 149.793 525.221 144.244C529.189 138.695 531.329 132.048 531.346 125.226C531.349 118.296 529.123 111.548 524.997 105.98C529.144 100.4 531.383 93.6324 531.382 86.6799ZM508.581 155.41L508.2 155.537L508.281 155.927C508.682 157.968 508.885 160.042 508.889 162.122C508.89 166.912 507.805 171.64 505.716 175.951C503.627 180.261 500.587 184.042 496.826 187.009L496.6 187.19L496.663 187.462C497.096 189.345 497.315 191.271 497.316 193.203C497.316 205.402 488.8 216.014 476.12 219.605L475.531 219.778L475.857 220.286C479.117 225.375 480.848 231.293 480.845 237.337C480.905 243.371 479.272 249.301 476.13 254.453C472.989 259.605 468.465 263.773 463.074 266.483C457.682 269.192 451.638 270.336 445.629 269.782C439.62 269.229 433.887 267.002 429.08 263.354C424.274 259.705 420.587 254.782 418.439 249.142C416.291 243.503 415.767 237.375 416.928 231.453C418.088 225.531 420.886 220.054 425.004 215.643C429.122 211.232 434.394 208.064 440.222 206.5L440.794 206.354L440.503 205.847C438.317 201.992 437.17 197.635 437.175 193.203C437.175 192.641 437.175 192.033 437.248 191.308V190.999L436.966 190.864C431.541 188.262 426.957 184.187 423.737 179.105C420.517 174.023 418.79 168.138 418.754 162.122C418.724 154.856 421.214 147.804 425.801 142.168L426.155 141.733L425.656 141.479C420.99 139.107 417.076 135.482 414.353 131.012C411.63 126.541 410.205 121.4 410.238 116.165C410.241 112.253 411.048 108.382 412.608 104.794C414.168 101.206 416.448 97.9761 419.308 95.3051L419.598 95.033L419.362 94.7066C415.356 89.2819 413.2 82.7126 413.213 75.9687C413.266 67.4613 416.691 59.3221 422.737 53.337C428.783 47.3519 436.957 44.0094 445.465 44.0432C445.991 44.0432 446.508 44.0432 447.034 44.0432H447.523V43.3178C447.523 43.0548 447.523 42.7917 447.523 42.5196C447.665 34.0583 451.126 25.9916 457.16 20.0581C463.194 14.1247 471.317 10.7996 479.78 10.7996C488.242 10.7996 496.366 14.1247 502.4 20.0581C508.433 25.9916 511.894 34.0583 512.036 42.5196C512.045 47.1662 511.023 51.7571 509.043 55.9609L508.835 56.4144L509.297 56.5867C515.483 58.8064 520.836 62.8748 524.631 68.2402C528.426 73.6056 530.479 80.0085 530.511 86.5802C530.519 93.4305 528.29 100.096 524.162 105.563L523.963 105.835L524.162 106.107C528.29 111.571 530.519 118.234 530.511 125.081C530.513 131.801 528.394 138.351 524.456 143.796C520.519 149.242 514.963 153.306 508.581 155.41Z" fill="#2B266D"/>
<path d="M427.776 85.9091C427.784 92.2828 430.319 98.3932 434.827 102.899C439.335 107.405 446.446 109.939 452.82 109.944V109.037C449.728 109.123 446.651 108.589 443.769 107.466C440.887 106.342 438.26 104.653 436.043 102.497C433.825 100.341 432.063 97.7617 430.859 94.9126C429.656 92.0635 429.036 89.002 429.036 85.9091C429.036 82.8162 429.656 79.7547 430.859 76.9056C432.063 74.0565 433.825 71.4776 436.043 69.3215C438.26 67.1653 440.887 65.4755 443.769 64.3522C446.651 63.2288 449.728 62.6948 452.82 62.7814V61.8744C446.447 61.8816 439.337 64.4158 434.83 68.9213C430.322 73.4269 427.786 79.5361 427.776 85.9091Z" fill="#2B266D"/>
<path d="M453.963 166.049V166.956C455.876 166.908 457.779 167.243 459.56 167.942C461.341 168.64 462.965 169.689 464.335 171.025C465.704 172.36 466.793 173.957 467.536 175.72C468.28 177.483 468.663 179.377 468.663 181.291C468.663 183.204 468.28 185.098 467.536 186.861C466.793 188.624 465.704 190.221 464.335 191.556C462.965 192.892 461.341 193.941 459.56 194.639C457.779 195.338 455.876 195.673 453.963 195.625V196.532C455.996 196.582 458.018 196.224 459.91 195.48C461.803 194.737 463.528 193.622 464.983 192.202C466.438 190.782 467.595 189.085 468.384 187.211C469.174 185.337 469.581 183.324 469.581 181.291C469.581 179.257 469.174 177.244 468.384 175.37C467.595 173.496 466.438 171.799 464.983 170.379C463.528 168.959 461.803 167.844 459.91 167.101C458.018 166.357 455.996 165.999 453.963 166.049Z" fill="#2B266D"/>
<path d="M496.672 246.252L496.527 244.946L475.159 279.193C470.76 272.176 465.413 265.8 459.269 260.247C456.285 257.006 452.83 254.233 449.02 252.02C445.483 249.934 443.315 248.728 442.018 248.039L458.888 214.807L458.988 214.608L457.745 212.114L438.091 246.107C429.159 241.858 419.412 239.596 409.521 239.477C406.067 239.451 402.62 239.789 399.236 240.484L418.283 200.323L417.213 200.759C416.895 200.876 409.213 204.132 387.972 228.412C378.766 238.933 366.105 255.14 358.042 265.815C354.339 270.711 352.284 276.655 352.171 282.792C352.059 288.929 353.895 294.944 357.416 299.972L363.846 309.205C362.595 312.325 361.337 315.524 360.074 318.801L356.627 327.789C351.085 342.209 348.31 349.447 345.789 357.238C345.335 358.044 344.764 358.778 344.093 359.415C343.657 359.895 343.258 360.322 342.941 360.739H342.877L342.397 361.51C342.323 361.538 342.257 361.585 342.206 361.646C342.061 361.809 341.871 362.172 342.206 362.752L344.075 365.745C344.34 366.185 344.644 366.601 344.982 366.988C344.292 367.967 340.81 370.099 338.352 371.423C337.939 370.677 337.38 370.022 336.708 369.497C336.036 368.972 335.266 368.587 334.443 368.366C328.883 367.042 322.525 375.622 320.947 377.881C319.84 376.475 316.53 372.765 311.877 372.266C306.245 371.65 300.839 377.599 300.613 377.853L301.293 378.461C301.293 378.397 306.617 372.611 311.777 373.164C316.938 373.718 320.511 378.869 320.548 378.923L320.929 379.486L321.301 378.914C321.373 378.806 328.556 367.913 334.198 369.246C336.284 369.745 337.572 371.595 338.361 373.591C338.733 375.595 339.268 378.407 339.576 379.223C339.576 379.377 339.576 379.459 339.576 379.468H339.676L340.002 380.03L340.401 379.441H340.483C340.483 379.441 340.483 379.386 340.483 379.332C341.054 378.543 345.19 373.146 351.258 373.146C355.33 373.146 358.695 380.166 358.731 380.239L358.84 380.484H359.067L359.157 380.592C359.62 381.2 363.792 386.479 366.504 386.76C376.113 387.669 385.771 387.971 395.418 387.667C399.69 387.603 403.372 387.558 406.175 387.748C412.252 388.165 431.57 389 444.367 389C449.99 389 454.344 388.837 455.75 388.411C456.493 388.184 457.047 387.966 457.001 387.458C456.956 386.95 456.303 386.778 453.591 386.451C450.418 386.133 447.272 385.587 444.177 384.819C442.762 384.447 439.778 381.363 438.644 379.885C435.343 375.595 422.11 375.622 415.616 377.99L436.168 345.175L447.877 345.574C448.222 345.574 448.557 345.574 448.893 345.574C454.857 345.583 460.68 343.754 465.568 340.337C470.456 336.919 474.172 332.079 476.211 326.474C481.036 313.304 485.281 300.434 488.718 288.217C497.697 257.226 496.718 246.688 496.672 246.252ZM339.358 373.228L339.141 372.04C340.537 371.278 344.537 369.029 345.734 367.559C346.128 367.842 346.551 368.082 346.995 368.276C348.869 369.124 350.889 369.602 352.945 369.682L354.106 369.727L353.289 368.911C350.387 366.036 347.199 363.465 343.775 361.238C344.075 360.866 344.474 360.431 344.845 360.022C345.617 359.306 346.256 358.458 346.732 357.519C349.244 349.755 352.02 342.518 357.552 328.115L360.999 319.127C362.208 316.043 363.393 313.02 364.554 310.057C364.617 309.885 364.681 309.722 364.753 309.559C364.826 309.395 364.89 309.223 364.953 309.051C381.061 269.144 396.289 243.93 397.604 241.808L398.184 241.654L398.756 241.509C402.294 240.711 405.913 240.325 409.54 240.357C419.272 240.469 428.865 242.691 437.656 246.869L401.377 309.559C401.1 310.039 400.921 310.569 400.851 311.119C400.781 311.669 400.821 312.227 400.969 312.761C401.117 313.295 401.369 313.795 401.712 314.231C402.054 314.667 402.48 315.03 402.964 315.3C403.584 315.642 404.279 315.823 404.987 315.826C405.401 315.824 405.814 315.763 406.211 315.644C406.749 315.481 407.248 315.211 407.679 314.849C408.109 314.487 408.461 314.042 408.714 313.54L414.156 302.829C421.013 295.909 432.776 284.318 441.365 277.225C454.154 266.686 461.074 263.548 461.146 263.521L461.291 263.448C465.696 267.778 469.647 272.546 473.082 277.679L471.649 276.155L394.384 379.939C391.346 379.939 388.308 380.103 385.315 380.239L381.006 380.42L359.493 379.513C358.822 378.18 355.548 372.148 351.33 372.148C345.843 372.148 341.952 376.085 340.447 377.917C340.275 376.316 339.91 374.741 339.358 373.228Z" fill="#2B266D"/>
<path d="M351.403 372.194C355.629 372.194 358.903 378.225 359.565 379.559L381.079 380.466L385.387 380.284C388.353 380.148 391.391 380.021 394.457 379.985L471.721 276.2L473.154 277.724C469.719 272.591 465.769 267.823 461.364 263.494L461.219 263.566C461.146 263.566 454.226 266.732 441.438 277.271C432.812 284.363 421.049 295.954 414.229 302.874L408.787 313.586C408.534 314.088 408.181 314.533 407.751 314.894C407.321 315.256 406.821 315.527 406.283 315.69C405.886 315.808 405.474 315.869 405.059 315.871C404.352 315.868 403.656 315.687 403.037 315.345C402.552 315.075 402.127 314.712 401.784 314.276C401.442 313.841 401.189 313.341 401.042 312.807C400.894 312.272 400.854 311.714 400.924 311.164C400.994 310.615 401.173 310.084 401.449 309.604L437.728 246.914C428.937 242.737 419.345 240.515 409.612 240.402C405.985 240.37 402.367 240.757 398.828 241.554L398.257 241.699L397.676 241.853C396.379 243.976 381.151 269.226 365.025 309.096C364.962 309.268 364.889 309.432 364.826 309.604C364.762 309.776 364.69 309.93 364.626 310.103C363.417 313.041 362.232 316.065 361.071 319.173L357.625 328.16C352.092 342.563 349.317 349.801 346.805 357.565C346.328 358.504 345.69 359.351 344.918 360.068C344.546 360.476 344.147 360.911 343.848 361.283C347.272 363.51 350.46 366.081 353.362 368.956L354.178 369.772L353.017 369.727C350.962 369.647 348.941 369.17 347.067 368.321C346.623 368.127 346.201 367.887 345.807 367.605C344.61 369.074 340.61 371.323 339.213 372.085L339.431 373.273C340.007 374.798 340.394 376.388 340.583 378.007C342.025 376.13 345.916 372.194 351.403 372.194ZM399.254 344.377C399.254 352.449 392.443 359.016 384.072 359.016C381.849 359.013 379.654 358.533 377.632 357.61L377.959 358.027L375.7 356.576L375.628 356.531L375.51 356.449C375.165 356.222 374.839 355.986 374.521 355.732L374.376 355.624C374.023 355.333 373.678 355.043 373.36 354.717C372.689 354.069 372.081 353.359 371.547 352.594L371.501 352.531C371.247 352.159 371.012 351.778 370.785 351.388C370.558 350.998 370.359 350.59 370.177 350.182L370.095 349.991C369.923 349.592 369.769 349.184 369.633 348.776C369.633 348.776 369.633 348.685 369.588 348.64C369.473 348.259 369.373 347.878 369.288 347.497C369.266 347.417 369.248 347.335 369.234 347.252C369.144 346.839 369.077 346.421 369.034 346.001C369.034 345.91 369.034 345.819 369.034 345.729C368.988 345.286 368.963 344.841 368.962 344.395C368.962 336.314 375.773 329.748 384.135 329.748C384.698 329.748 385.251 329.748 385.795 329.838L386.403 329.929C386.738 329.983 387.074 330.029 387.401 330.102C387.727 330.174 387.89 330.219 388.135 330.283L388.933 330.51C389.196 330.591 389.45 330.682 389.704 330.782C389.958 330.882 390.185 330.972 390.412 331.072C390.638 331.172 390.919 331.299 391.164 331.426C391.409 331.553 391.645 331.68 391.881 331.816C392.117 331.952 392.307 332.06 392.516 332.196C392.938 332.463 393.347 332.751 393.74 333.058C394.175 333.403 394.59 333.772 394.983 334.165L395.128 334.319C395.473 334.674 395.8 335.046 396.107 335.434L396.18 335.516L397.849 337.629L397.431 337.366C398.638 339.505 399.267 341.921 399.254 344.377Z" fill="#FF5787"/>
<path d="M395.463 336.151C394.522 335.563 393.518 335.082 392.47 334.718C393.154 334.996 393.82 335.314 394.466 335.67L375.419 353.81C374.599 352.285 373.936 350.68 373.442 349.021C373.699 351.494 374.641 353.847 376.163 355.814C378.502 357.302 381.218 358.089 383.99 358.081C391.863 358.081 398.266 351.914 398.266 344.35C398.271 341.381 397.284 338.496 395.463 336.151Z" fill="#B8B4F5"/>
<path d="M394.484 335.706C393.838 335.35 393.172 335.032 392.488 334.754C390.937 334.213 389.306 333.938 387.663 333.938C379.8 333.938 373.397 340.096 373.397 347.669C373.397 348.15 373.397 348.576 373.478 349.084C373.973 350.744 374.635 352.348 375.456 353.873L394.484 335.706Z" fill="white"/>
<path d="M397.822 337.647L396.153 335.534L396.08 335.452C395.773 335.064 395.446 334.692 395.101 334.337L394.955 334.183C394.563 333.79 394.148 333.421 393.713 333.076C393.32 332.769 392.911 332.481 392.489 332.215C392.28 332.079 392.062 331.961 391.854 331.834C391.645 331.707 391.382 331.562 391.137 331.444C390.892 331.326 390.638 331.208 390.384 331.09C390.13 330.972 389.922 330.891 389.677 330.8C389.432 330.709 389.169 330.609 388.906 330.528L388.108 330.301C387.863 330.237 387.618 330.165 387.373 330.12C387.128 330.074 386.711 330.002 386.376 329.947L385.768 329.857C385.224 329.802 384.67 329.766 384.108 329.766C375.746 329.766 368.935 336.332 368.935 344.413C368.936 344.859 368.96 345.304 369.007 345.747C369.007 345.837 369.007 345.928 369.007 346.019C369.05 346.439 369.117 346.857 369.207 347.27C369.221 347.353 369.239 347.435 369.261 347.515C369.346 347.896 369.445 348.277 369.56 348.658C369.56 348.703 369.56 348.749 369.606 348.794C369.742 349.202 369.896 349.61 370.068 350.009L370.15 350.2C370.331 350.608 370.54 351.016 370.758 351.406C370.975 351.796 371.22 352.177 371.474 352.549L371.52 352.612C372.054 353.377 372.662 354.087 373.333 354.735C373.651 355.052 373.995 355.342 374.349 355.642L374.494 355.751C374.812 356.005 375.138 356.24 375.483 356.467L375.601 356.549L375.673 356.594L377.932 358.045L377.605 357.628C379.627 358.551 381.822 359.031 384.045 359.034C392.416 359.034 399.227 352.467 399.227 344.395C399.239 341.947 398.614 339.537 397.413 337.403L397.822 337.647ZM384.072 358.109C381.3 358.116 378.584 357.329 376.245 355.841C374.723 353.874 373.781 351.521 373.524 349.048C373.479 348.585 373.442 348.141 373.442 347.633C373.442 340.06 379.845 333.902 387.709 333.902C389.352 333.901 390.983 334.177 392.534 334.718C393.582 335.082 394.586 335.563 395.527 336.151C397.376 338.495 398.386 341.392 398.393 344.377C398.348 351.941 391.944 358.109 384.072 358.109Z" fill="#2B266D"/>
</svg>
