<svg width="800" height="400" viewBox="0 0 800 400" fill="none" xmlns="http://www.w3.org/2000/svg">
<path d="M399.564 6.97156C386.451 7.00653 373.714 11.3566 363.318 19.3505C352.923 27.3443 345.447 38.5376 342.046 51.2024L342.524 51.1536C345.7 38.6162 352.966 27.4954 363.171 19.5501C373.376 11.6049 385.939 7.28858 398.872 7.28359C403.192 7.28679 407.498 7.76737 411.712 8.71665L374.159 48.882C383.128 48.5116 391.707 48.3555 399.613 48.3555C418.862 48.3172 438.099 49.3262 457.239 51.3778C453.892 38.6447 446.423 27.3784 435.998 19.3378C425.573 11.2973 412.779 6.93506 399.613 6.93253L399.564 6.97156Z" fill="#B8B4F5"/>
<path d="M398.824 7.32263C385.89 7.32762 373.327 11.6439 363.122 19.5892C352.917 27.5345 345.652 38.6553 342.475 51.1926C353.316 50.0812 363.971 49.3793 374.11 48.9601L411.663 8.79472C407.451 7.83233 403.145 7.33863 398.824 7.32263Z" fill="white"/>
<path d="M531.779 113.079C556.668 103.495 569.546 93.8051 571.915 91.9236C569.965 89.9738 559.632 80.332 536.273 70.8366C512.184 61.0877 484.702 55.5309 458.467 52.5477L457.98 52.4891L457.434 52.4308C438.215 50.3531 418.896 49.3311 399.564 49.3695C391.375 49.3695 382.475 49.5354 373.165 49.9351C363.23 50.364 352.809 51.066 342.222 52.1578H341.744L341.227 52.2161L340.711 52.2649C313.189 55.1896 284.635 60.7367 260.623 70.7878C237.626 80.4002 228.647 90.1298 227.116 91.9236C228.647 93.7271 237.626 103.447 260.623 113.069C285.463 123.461 315.217 129.038 343.567 131.875C343.137 126.427 344.267 120.969 346.823 116.14L348.773 112.474C337.971 110.622 330.864 108.058 330.864 104.909C330.864 102.852 333.896 101.009 338.995 99.5275L339.482 99.3814L339.97 99.245C352.058 95.8914 374.451 94.0097 396.347 94.0097C423.127 94.0097 450.658 96.8271 459.159 101.711C459.325 101.809 459.501 101.897 459.647 101.994L460.134 102.335C460.602 102.599 461 102.97 461.296 103.418C461.593 103.865 461.779 104.376 461.84 104.909C461.84 107.522 456.966 109.783 449.079 111.47L451.575 116.14C454.039 120.792 455.176 126.034 454.86 131.289C489.069 127.175 514.572 119.698 531.779 113.079ZM265.147 91.2507C264.003 91.2507 262.886 90.9118 261.935 90.2766C260.984 89.6413 260.243 88.7384 259.806 87.682C259.368 86.6257 259.254 85.4632 259.477 84.3418C259.7 83.2204 260.251 82.1904 261.059 81.3819C261.868 80.5734 262.898 80.0227 264.019 79.7996C265.14 79.5765 266.303 79.6912 267.359 80.1288C268.416 80.5663 269.318 81.3073 269.954 82.258C270.589 83.2087 270.928 84.3263 270.928 85.4697C270.928 87.0029 270.319 88.4734 269.235 89.5575C268.151 90.6417 266.68 91.2507 265.147 91.2507ZM325.307 83.3835C324.164 83.3835 323.046 83.0444 322.096 82.4091C321.145 81.7739 320.404 80.8709 319.966 79.8146C319.529 78.7582 319.414 77.596 319.637 76.4746C319.86 75.3532 320.411 74.323 321.219 73.5145C322.028 72.706 323.058 72.1555 324.179 71.9324C325.301 71.7093 326.463 71.8238 327.52 72.2613C328.576 72.6989 329.479 73.4399 330.114 74.3906C330.749 75.3413 331.088 76.4589 331.088 77.6023C331.086 79.1347 330.476 80.6036 329.392 81.6873C328.309 82.7709 326.84 83.381 325.307 83.3835ZM400.861 78.4213C399.718 78.4213 398.6 78.0821 397.649 77.4469C396.699 76.8116 395.958 75.9089 395.52 74.8526C395.083 73.7962 394.968 72.6337 395.191 71.5123C395.414 70.3909 395.965 69.3609 396.773 68.5524C397.582 67.7439 398.612 67.1932 399.733 66.9701C400.855 66.7471 402.017 66.8615 403.073 67.2991C404.13 67.7366 405.033 68.4776 405.668 69.4283C406.303 70.379 406.642 71.4969 406.642 72.6403C406.642 73.4003 406.492 74.1527 406.201 74.8547C405.91 75.5567 405.483 76.1945 404.946 76.7314C404.408 77.2684 403.769 77.6941 403.067 77.9841C402.364 78.274 401.611 78.4226 400.851 78.4213H400.861ZM532.247 80.6538C533.391 80.6519 534.51 80.9895 535.462 81.6239C536.414 82.2584 537.157 83.1613 537.596 84.218C538.034 85.2748 538.15 86.4381 537.927 87.5604C537.704 88.6827 537.153 89.7136 536.344 90.5227C535.535 91.3317 534.504 91.8827 533.382 92.1054C532.26 92.3282 531.097 92.2129 530.04 91.7741C528.983 91.3354 528.08 90.5928 527.445 89.6406C526.811 88.6884 526.473 87.5693 526.475 86.4251C526.478 84.8952 527.087 83.4288 528.169 82.347C529.25 81.2652 530.717 80.6564 532.247 80.6538ZM475.703 71.831C476.847 71.831 477.965 72.1702 478.916 72.8059C479.867 73.4416 480.608 74.3452 481.045 75.4021C481.483 76.459 481.596 77.6219 481.372 78.7435C481.149 79.8652 480.597 80.8953 479.788 81.7034C478.978 82.5115 477.947 83.0614 476.825 83.2833C475.703 83.5053 474.541 83.3894 473.484 82.9504C472.428 82.5113 471.526 81.7688 470.892 80.8169C470.258 79.8649 469.92 78.7461 469.922 77.6023C469.924 76.8431 470.074 76.0916 470.366 75.3907C470.658 74.6898 471.084 74.0532 471.622 73.5173C472.16 72.9814 472.798 72.5566 473.5 72.2673C474.202 71.9779 474.954 71.8297 475.713 71.831H475.703Z" fill="#5A51E7"/>
<path d="M572.958 92.333C573.007 92.2916 573.046 92.2409 573.074 92.184C573.103 92.1271 573.12 92.0649 573.124 92.0014C573.128 91.9359 573.119 91.8702 573.097 91.8082C573.075 91.7462 573.042 91.6893 572.997 91.6408C572.9 91.5336 562.985 80.6636 536.731 69.9788C512.427 60.074 484.672 54.5267 458.224 51.5338C454.894 38.5279 447.337 26.9975 436.739 18.7551C426.142 10.5127 413.106 6.02578 399.681 6.00011C386.255 5.97444 373.202 10.4114 362.573 18.6132C351.945 26.815 344.343 38.3165 340.964 51.3096C313.209 54.2343 284.362 59.8205 260.126 69.9788C234.604 80.7026 226.434 91.2314 226.103 91.6701C226.036 91.7531 226 91.8561 226 91.9624C226 92.0687 226.036 92.1719 226.103 92.2549C226.434 92.7034 234.604 103.261 260.126 113.956C285.142 124.446 315.081 130.051 343.664 132.898C343.856 134.647 344.215 136.374 344.737 138.055L346.063 142.374C347.228 146.143 347.569 150.117 347.065 154.03C346.56 157.942 345.221 161.7 343.138 165.05L340.915 168.628C338.785 172.066 337.409 175.918 336.878 179.928C336.347 183.937 336.673 188.014 337.835 191.888L338.41 193.838C340.498 200.867 339.724 208.436 336.255 214.896L331.235 224.157C329.298 227.741 328.15 231.698 327.868 235.762C327.586 239.826 328.175 243.903 329.597 247.72C331.146 251.89 331.666 256.372 331.111 260.785C330.556 265.198 328.943 269.412 326.409 273.068L325.249 274.735C322.825 278.217 321.21 282.197 320.522 286.383C319.834 290.569 320.09 294.857 321.271 298.931L321.544 299.906C322.652 303.741 322.913 307.771 322.309 311.717C321.705 315.663 320.25 319.43 318.044 322.758L312.556 331.073C310.314 334.462 308.821 338.289 308.177 342.301C307.533 346.312 307.753 350.415 308.822 354.334L309.65 357.376C310.696 361.202 310.903 365.208 310.259 369.121C309.615 373.035 308.134 376.763 305.917 380.052L298.586 390.863C283.884 390.863 272.107 390.98 267.438 391.107C250.075 391.585 237.918 392.296 251.84 393.252C265.761 394.207 527.957 394.227 536.644 394.227C545.33 394.227 563.56 391.858 552.242 391.614C547.572 391.517 525.92 391.38 500.037 391.243L492.452 379.993C490.235 376.705 488.754 372.976 488.11 369.063C487.465 365.15 487.673 361.143 488.718 357.318L489.547 354.276C490.616 350.356 490.835 346.254 490.191 342.242C489.547 338.231 488.055 334.403 485.813 331.015L480.324 322.699C478.119 319.372 476.664 315.604 476.06 311.659C475.455 307.713 475.716 303.683 476.825 299.848L477.097 298.873C478.282 294.798 478.539 290.511 477.851 286.324C477.163 282.137 475.546 278.157 473.12 274.676L471.96 273.009C469.426 269.354 467.813 265.14 467.258 260.726C466.703 256.313 467.222 251.831 468.772 247.662C470.189 243.854 470.777 239.787 470.496 235.734C470.215 231.681 469.072 227.734 467.144 224.157L462.133 214.896C458.656 208.439 457.878 200.868 459.969 193.838L460.544 191.888C461.705 188.014 462.031 183.937 461.5 179.928C460.969 175.918 459.593 172.066 457.463 168.628L455.24 165.05C453.16 161.699 451.822 157.941 451.318 154.029C450.813 150.117 451.153 146.143 452.316 142.374L453.651 138.055C454.221 136.188 454.6 134.267 454.782 132.323C489.206 128.15 514.874 120.624 532.179 113.966C559.914 103.271 572.822 92.45 572.958 92.333ZM400.286 390.863C400.286 390.863 348.675 390.756 309.27 390.863H308.091H299.765L306.745 380.51C309.043 377.107 310.581 373.249 311.254 369.198C311.927 365.147 311.719 360.998 310.645 357.035L309.816 353.993C308.789 350.215 308.578 346.26 309.198 342.394C309.818 338.528 311.256 334.838 313.414 331.571L318.912 323.255C321.193 319.809 322.698 315.908 323.323 311.822C323.947 307.737 323.677 303.565 322.529 299.594L322.256 298.668C321.11 294.729 320.861 290.583 321.525 286.534C322.19 282.486 323.752 278.637 326.097 275.271L327.257 273.604C329.884 269.818 331.555 265.453 332.129 260.882C332.703 256.31 332.162 251.667 330.552 247.35C329.18 243.663 328.612 239.726 328.886 235.801C329.16 231.877 330.27 228.056 332.141 224.596L337.152 215.325C340.746 208.639 341.552 200.804 339.394 193.526L338.819 191.577C337.697 187.844 337.377 183.917 337.882 180.052C338.386 176.188 339.702 172.474 341.744 169.154L343.967 165.576C346.119 162.105 347.501 158.212 348.021 154.161C348.54 150.109 348.185 145.994 346.979 142.091L345.644 137.772C345.179 136.218 344.853 134.626 344.669 133.015L344.61 132.557C344.61 132.381 344.61 132.196 344.561 132.021C344.104 126.702 345.19 121.364 347.691 116.647L349.796 112.689L350.031 112.26L350.265 111.821L354.164 104.48C354.427 104.392 355.002 104.227 355.87 104.002C356.416 103.856 357.079 103.69 357.868 103.515C363.934 102.196 370.09 101.336 376.284 100.941C378.819 100.756 381.568 100.61 384.542 100.532C387.515 100.454 390.966 100.444 394.534 100.532H396.133C407.316 100.758 418.471 101.735 429.523 103.456C430.605 103.632 431.473 103.798 432.272 103.944C433.471 104.168 434.27 104.344 434.66 104.431H434.729L438.921 112.289L439.155 112.728L439.389 113.166L441.212 116.588C443.785 121.447 444.861 126.96 444.302 132.43C444.302 132.606 444.302 132.771 444.234 132.947L444.175 133.424C443.967 134.878 443.641 136.313 443.2 137.714L441.865 142.033C440.656 145.935 440.3 150.051 440.819 154.103C441.339 158.154 442.723 162.047 444.877 165.518L447.1 169.096C449.15 172.412 450.475 176.124 450.987 179.988C451.5 183.853 451.188 187.783 450.074 191.518L449.498 193.468C447.335 200.745 448.141 208.582 451.741 215.266L456.752 224.537C458.623 227.998 459.733 231.818 460.007 235.743C460.281 239.667 459.713 243.605 458.341 247.291C456.731 251.609 456.19 256.251 456.764 260.823C457.338 265.395 459.009 269.76 461.636 273.545L462.796 275.212C465.141 278.579 466.703 282.427 467.368 286.476C468.032 290.524 467.782 294.67 466.637 298.61L466.364 299.536C465.216 303.506 464.945 307.678 465.57 311.764C466.194 315.849 467.699 319.75 469.981 323.196L475.479 331.512C477.635 334.781 479.071 338.47 479.691 342.336C480.311 346.202 480.102 350.156 479.077 353.935L478.248 356.976C477.173 360.94 476.966 365.088 477.639 369.139C478.312 373.19 479.849 377.048 482.147 380.452L489.332 391.107C454.977 391.029 416.45 390.863 400.286 390.863ZM451.546 116.179L449.05 111.509C456.898 109.774 461.811 107.609 461.811 104.948C461.75 104.415 461.563 103.904 461.267 103.456C460.97 103.009 460.572 102.638 460.105 102.374L459.618 102.033C459.471 101.936 459.296 101.848 459.13 101.75C450.629 96.8759 423.059 94.0488 396.318 94.0488C374.422 94.0488 352.029 95.9302 339.94 99.2838L339.453 99.4204L338.965 99.5666C333.867 101.087 330.835 102.891 330.835 104.948C330.835 108.097 337.942 110.661 348.744 112.513L346.794 116.179C344.238 121.008 343.108 126.466 343.538 131.913C315.149 129.076 285.434 123.5 260.594 113.108C237.596 103.486 228.618 93.7659 227.087 91.9624C228.618 90.1686 237.596 80.4393 260.594 70.8269C284.606 60.7855 313.16 55.2287 340.681 52.304L341.198 52.2552L341.715 52.1969H342.192C352.78 51.105 363.201 50.4031 373.135 49.9741C382.446 49.5744 391.346 49.4086 399.535 49.4086C418.866 49.3701 438.185 50.3919 457.405 52.4696L457.951 52.5282L458.438 52.5867C484.672 55.5699 512.154 61.0878 536.244 70.8757C559.641 80.3711 569.917 89.9834 571.886 91.9624C569.517 93.8439 556.639 103.535 531.75 113.118C514.543 119.737 489.04 127.215 454.831 131.368C455.154 126.099 454.017 120.843 451.546 116.179ZM445.881 29.1016C451.175 35.66 455.019 43.2654 457.161 51.4169C438.021 49.3653 418.784 48.3564 399.535 48.3947C391.619 48.3947 383.05 48.5507 374.081 48.9212C363.942 49.3404 353.287 50.0423 342.446 51.1537L341.968 51.2025C344.803 40.5746 350.524 30.9388 358.498 23.3622C366.471 15.7857 376.387 10.5642 387.145 8.27596C397.904 5.98776 409.086 6.72206 419.453 10.3978C429.82 14.0736 438.967 20.5472 445.881 29.1016Z" fill="#2B266D"/>
<path d="M478.287 357.054L479.115 354.012C480.14 350.234 480.35 346.28 479.73 342.414C479.11 338.548 477.674 334.858 475.518 331.59L470.02 323.274C467.739 319.828 466.233 315.927 465.609 311.842C464.984 307.756 465.255 303.584 466.403 299.614L466.676 298.687C467.821 294.748 468.071 290.602 467.406 286.554C466.742 282.505 465.18 278.657 462.835 275.29L461.675 273.623C459.048 269.838 457.377 265.473 456.803 260.901C456.229 256.329 456.77 251.687 458.38 247.369C459.752 243.682 460.32 239.745 460.046 235.82C459.772 231.896 458.662 228.076 456.79 224.615L451.78 215.344C448.181 208.66 447.374 200.823 449.537 193.546L450.113 191.596C451.228 187.86 451.539 183.931 451.027 180.066C450.514 176.202 449.189 172.489 447.139 169.174L444.916 165.596C442.762 162.125 441.378 158.232 440.858 154.18C440.339 150.129 440.695 146.013 441.904 142.111L443.24 137.792C443.68 136.391 444.006 134.956 444.214 133.502L444.273 133.025C444.273 132.849 444.273 132.683 444.341 132.508C444.9 127.038 443.824 121.525 441.251 116.666L439.428 113.244L439.194 112.805L438.96 112.367L434.768 104.509H434.7C434.31 104.421 433.51 104.246 432.311 104.022C431.56 103.875 430.644 103.71 429.562 103.534C418.51 101.813 407.355 100.835 396.172 100.61H394.573C391.005 100.532 387.671 100.541 384.581 100.61C381.49 100.678 378.858 100.834 376.323 101.019C370.129 101.414 363.973 102.274 357.908 103.593C357.118 103.768 356.455 103.934 355.909 104.08C355.041 104.304 354.466 104.47 354.203 104.558L350.303 111.899L350.069 112.338L349.835 112.766L347.73 116.725C345.229 121.441 344.143 126.78 344.6 132.099C344.6 132.274 344.6 132.459 344.649 132.635L344.708 133.093C344.892 134.704 345.218 136.296 345.682 137.85L347.018 142.169C348.224 146.071 348.58 150.187 348.06 154.238C347.54 158.29 346.158 162.183 344.006 165.654L341.783 169.232C339.741 172.551 338.425 176.266 337.921 180.13C337.417 183.995 337.736 187.922 338.858 191.654L339.433 193.604C341.591 200.882 340.785 208.717 337.191 215.403L332.18 224.674C330.309 228.134 329.199 231.955 328.925 235.879C328.651 239.803 329.219 243.741 330.591 247.428C332.201 251.745 332.742 256.388 332.168 260.96C331.594 265.531 329.923 269.896 327.296 273.682L326.136 275.349C323.791 278.715 322.229 282.563 321.564 286.612C320.9 290.66 321.149 294.806 322.295 298.746L322.568 299.672C323.716 303.642 323.987 307.815 323.362 311.9C322.738 315.986 321.233 319.887 318.951 323.333L313.453 331.648C311.295 334.916 309.857 338.606 309.237 342.472C308.617 346.338 308.828 350.292 309.855 354.071L310.684 357.112C311.758 361.076 311.966 365.224 311.293 369.275C310.62 373.326 309.083 377.185 306.784 380.588L299.804 390.941H308.13H309.309C348.714 390.873 400.325 390.941 400.325 390.941C416.44 390.941 455.016 391.078 489.381 391.234L482.196 380.578C479.889 377.17 478.346 373.303 477.671 369.243C476.996 365.183 477.207 361.025 478.287 357.054Z" fill="#FF5787"/>
<path d="M493.739 257.225C497.064 257.493 500.174 258.978 502.473 261.395C504.772 263.813 506.098 266.993 506.198 270.328C506.3 266.994 507.627 263.814 509.925 261.397C512.224 258.98 515.332 257.495 518.657 257.225C515.381 256.941 512.318 255.484 510.03 253.122C507.743 250.759 506.385 247.65 506.207 244.367C506.041 247.657 504.685 250.776 502.391 253.141C500.097 255.506 497.022 256.958 493.739 257.225Z" fill="#FF5787"/>
<path d="M506.695 271.303L507.182 271.196V270.708C507.187 267.384 508.51 264.197 510.86 261.845C513.209 259.494 516.395 258.169 519.72 258.161H520.197V256.329H519.72C516.419 256.314 513.257 255.004 510.912 252.681C508.568 250.359 507.228 247.208 507.182 243.909V243.431H505.233V243.909C505.187 247.212 503.845 250.365 501.496 252.688C499.147 255.011 495.98 256.319 492.676 256.329H492.062V258.21H492.676C496.004 258.213 499.195 259.535 501.549 261.887C503.903 264.239 505.227 267.429 505.233 270.757V271.352L506.695 271.303ZM506.217 244.367C506.395 247.65 507.753 250.759 510.04 253.122C512.327 255.484 515.391 256.941 518.667 257.225C515.342 257.495 512.233 258.98 509.935 261.397C507.636 263.814 506.309 266.994 506.207 270.328C506.108 266.993 504.781 263.813 502.483 261.395C500.184 258.978 497.074 257.493 493.749 257.225C497.029 256.953 500.099 255.5 502.389 253.135C504.678 250.77 506.032 247.654 506.198 244.367H506.217Z" fill="#2B266D"/>
<path d="M313.443 177.119C309.481 176.976 305.718 175.347 302.902 172.557C300.086 169.766 298.423 166.018 298.244 162.057H298.04C297.863 166.049 296.177 169.826 293.324 172.623C290.47 175.421 286.661 177.031 282.666 177.129V177.197C286.714 177.289 290.571 178.936 293.435 181.797C296.3 184.658 297.953 188.513 298.049 192.561H298.235C298.329 188.544 299.958 184.715 302.786 181.86C305.613 179.005 309.427 177.34 313.443 177.207V177.119Z" fill="#FF5787"/>
<path d="M313.93 178.172H314.418V176.154H313.93C310.049 176.136 306.329 174.593 303.575 171.857C300.821 169.121 299.253 165.412 299.21 161.53V161.043H297.094V161.53C297.051 165.416 295.48 169.128 292.722 171.864C289.963 174.6 286.239 176.141 282.354 176.154H281.71V177.694L281.866 178.182H282.354C286.264 178.187 290.013 179.742 292.778 182.507C295.543 185.273 297.099 189.021 297.104 192.932V193.546H299.239V192.932C299.241 189.03 300.788 185.287 303.541 182.522C306.293 179.756 310.029 178.192 313.93 178.172ZM298.235 192.561H298.049C297.953 188.513 296.3 184.658 293.435 181.797C290.571 178.936 286.714 177.289 282.666 177.197V177.129C286.661 177.031 290.47 175.421 293.324 172.623C296.178 169.826 297.863 166.049 298.04 162.057H298.244C298.423 166.018 300.086 169.766 302.902 172.556C305.718 175.347 309.481 176.976 313.443 177.119V177.207C309.427 177.34 305.613 179.005 302.786 181.86C299.958 184.715 298.33 188.544 298.235 192.561Z" fill="#2B266D"/>
<path d="M265.147 90.2758C267.801 90.2758 269.953 88.124 269.953 85.4696C269.953 82.8152 267.801 80.6635 265.147 80.6635C262.493 80.6635 260.341 82.8152 260.341 85.4696C260.341 88.124 262.493 90.2758 265.147 90.2758Z" fill="#B8B4F5"/>
<path d="M265.147 79.6886C264.004 79.6886 262.886 80.0275 261.935 80.6628C260.984 81.298 260.243 82.201 259.806 83.2573C259.368 84.3137 259.254 85.4761 259.477 86.5976C259.7 87.719 260.251 88.7489 261.059 89.5574C261.868 90.3659 262.898 90.9167 264.019 91.1397C265.14 91.3628 266.303 91.2481 267.359 90.8106C268.416 90.373 269.319 89.632 269.954 88.6813C270.589 87.7306 270.928 86.613 270.928 85.4696C270.928 83.9364 270.319 82.466 269.235 81.3818C268.151 80.2976 266.68 79.6886 265.147 79.6886ZM260.35 85.4696C260.35 84.5186 260.633 83.589 261.161 82.7984C261.69 82.0079 262.441 81.3918 263.32 81.0284C264.199 80.6649 265.165 80.5703 266.098 80.7565C267.03 80.9428 267.887 81.4015 268.559 82.0746C269.23 82.7478 269.687 83.6051 269.872 84.5381C270.056 85.471 269.959 86.4376 269.594 87.3156C269.229 88.1937 268.611 88.9436 267.82 89.4706C267.028 89.9975 266.098 90.2777 265.147 90.2758C263.874 90.2732 262.654 89.7657 261.755 88.8646C260.855 87.9635 260.35 86.7426 260.35 85.4696Z" fill="#2B266D"/>
<path d="M532.247 91.2311C534.901 91.2311 537.053 89.0794 537.053 86.425C537.053 83.7706 534.901 81.6188 532.247 81.6188C529.592 81.6188 527.441 83.7706 527.441 86.425C527.441 89.0794 529.592 91.2311 532.247 91.2311Z" fill="#B8B4F5"/>
<path d="M532.247 92.2059C533.39 92.2079 534.509 91.8706 535.461 91.2365C536.413 90.6025 537.156 89.7003 537.595 88.6441C538.034 87.5879 538.15 86.4252 537.928 85.3032C537.706 84.1811 537.156 83.1502 536.348 82.3407C535.54 81.5312 534.51 80.9796 533.388 80.7558C532.266 80.5319 531.103 80.6458 530.046 81.083C528.99 81.5203 528.086 82.2611 527.45 83.212C526.815 84.1629 526.475 85.2811 526.475 86.4249C526.478 87.9557 527.087 89.4232 528.168 90.5066C529.25 91.5899 530.716 92.2008 532.247 92.2059ZM532.247 81.6286C533.198 81.6266 534.129 81.9071 534.921 82.4345C535.713 82.9618 536.33 83.7124 536.695 84.5911C537.06 85.4697 537.156 86.4368 536.971 87.3701C536.786 88.3033 536.328 89.1605 535.655 89.8332C534.982 90.506 534.125 90.9638 533.192 91.1489C532.259 91.3341 531.292 91.2381 530.413 90.8731C529.534 90.5081 528.784 89.8906 528.256 89.0987C527.729 88.3069 527.448 87.3763 527.45 86.4249C527.453 85.1536 527.959 83.9351 528.858 83.0361C529.757 82.1372 530.975 81.6311 532.247 81.6286Z" fill="#2B266D"/>
<path d="M475.713 82.4086C478.368 82.4086 480.519 80.2566 480.519 77.6022C480.519 74.9478 478.368 72.7961 475.713 72.7961C473.059 72.7961 470.907 74.9478 470.907 77.6022C470.907 80.2566 473.059 82.4086 475.713 82.4086Z" fill="#B8B4F5"/>
<path d="M475.713 83.3834C476.857 83.3834 477.974 83.0442 478.925 82.409C479.876 81.7738 480.617 80.8708 481.054 79.8144C481.492 78.7581 481.606 77.5959 481.383 76.4744C481.16 75.353 480.609 74.3228 479.801 73.5143C478.992 72.7058 477.962 72.1553 476.841 71.9323C475.719 71.7092 474.557 71.8236 473.501 72.2612C472.444 72.6988 471.542 73.4397 470.906 74.3904C470.271 75.3411 469.932 76.4587 469.932 77.6021C469.932 79.1354 470.541 80.6058 471.625 81.69C472.709 82.7741 474.18 83.3834 475.713 83.3834ZM475.713 72.8058C476.664 72.8058 477.594 73.0879 478.384 73.6164C479.175 74.145 479.791 74.8961 480.154 75.7749C480.518 76.6537 480.612 77.6206 480.426 78.5532C480.24 79.4858 479.781 80.3422 479.108 81.014C478.435 81.6858 477.578 82.1428 476.645 82.3271C475.712 82.5115 474.745 82.4149 473.867 82.0496C472.989 81.6843 472.239 81.0666 471.712 80.275C471.185 79.4833 470.905 78.5531 470.907 77.6021C470.909 76.3291 471.417 75.1092 472.318 74.21C473.219 73.3108 474.44 72.8058 475.713 72.8058Z" fill="#2B266D"/>
<path d="M400.861 77.4463C403.516 77.4463 405.667 75.2946 405.667 72.6402C405.667 69.9858 403.516 67.8338 400.861 67.8338C398.207 67.8338 396.055 69.9858 396.055 72.6402C396.055 75.2946 398.207 77.4463 400.861 77.4463Z" fill="#B8B4F5"/>
<path d="M400.851 66.8589C399.708 66.8589 398.59 67.1981 397.64 67.8333C396.689 68.4685 395.948 69.3715 395.51 70.4278C395.073 71.4842 394.958 72.6464 395.181 73.7678C395.404 74.8893 395.955 75.9195 396.763 76.728C397.572 77.5365 398.602 78.087 399.723 78.31C400.845 78.5331 402.007 78.4186 403.064 77.9811C404.12 77.5435 405.023 76.8025 405.658 75.8519C406.293 74.9012 406.632 73.7835 406.632 72.6401C406.632 71.1069 406.023 69.6365 404.939 68.5523C403.855 67.4682 402.384 66.8589 400.851 66.8589ZM396.055 72.6401C396.055 71.6892 396.337 70.7595 396.865 69.969C397.394 69.1784 398.145 68.5624 399.024 68.1989C399.903 67.8354 400.87 67.7406 401.802 67.9268C402.735 68.1131 403.591 68.5718 404.263 69.2449C404.935 69.9181 405.392 70.7754 405.576 71.7083C405.76 72.6413 405.664 73.6081 405.298 74.4862C404.933 75.3642 404.316 76.1142 403.524 76.6411C402.732 77.168 401.802 77.4482 400.851 77.4463C399.58 77.4411 398.362 76.9326 397.465 76.0318C396.568 75.131 396.065 73.9115 396.065 72.6401H396.055Z" fill="#2B266D"/>
<path d="M325.307 82.4086C327.962 82.4086 330.113 80.2566 330.113 77.6022C330.113 74.9478 327.962 72.7961 325.307 72.7961C322.653 72.7961 320.501 74.9478 320.501 77.6022C320.501 80.2566 322.653 82.4086 325.307 82.4086Z" fill="#B8B4F5"/>
<path d="M325.307 71.8309C324.163 71.8309 323.045 72.1702 322.094 72.8058C321.143 73.4415 320.403 74.3451 319.965 75.402C319.528 76.459 319.414 77.6218 319.638 78.7435C319.862 79.8651 320.413 80.8952 321.223 81.7033C322.032 82.5115 323.063 83.0613 324.185 83.2833C325.307 83.5052 326.47 83.3893 327.526 82.9503C328.582 82.5112 329.485 81.7687 330.119 80.8168C330.753 79.8648 331.09 78.746 331.088 77.6022C331.086 76.0706 330.476 74.6029 329.392 73.5208C328.308 72.4387 326.839 71.8309 325.307 71.8309ZM325.307 82.4086C324.357 82.4086 323.427 82.1265 322.637 81.5984C321.847 81.0703 321.231 80.3198 320.867 79.4415C320.503 78.5633 320.408 77.597 320.593 76.6647C320.779 75.7324 321.236 74.8761 321.909 74.2039C322.581 73.5317 323.437 73.0739 324.369 72.8884C325.302 72.703 326.268 72.7981 327.146 73.1619C328.025 73.5257 328.775 74.1418 329.303 74.9322C329.831 75.7226 330.113 76.6516 330.113 77.6022C330.113 78.8769 329.607 80.0994 328.706 81.0007C327.804 81.9021 326.582 82.4086 325.307 82.4086Z" fill="#2B266D"/>
<path d="M278.795 304.322C278.793 305.503 279.142 306.658 279.797 307.641C280.452 308.623 281.383 309.39 282.474 309.843C283.564 310.295 284.765 310.414 285.923 310.184C287.082 309.954 288.146 309.386 288.981 308.551C289.816 307.716 290.384 306.652 290.614 305.494C290.844 304.335 290.725 303.135 290.272 302.044C289.819 300.954 289.053 300.022 288.07 299.367C287.088 298.712 285.933 298.364 284.752 298.366C283.173 298.369 281.659 298.997 280.543 300.113C279.426 301.23 278.798 302.743 278.795 304.322Z" fill="#FF5787"/>
<path d="M277.82 304.322C277.819 305.696 278.224 307.039 278.986 308.182C279.748 309.325 280.832 310.217 282.101 310.743C283.37 311.27 284.766 311.408 286.113 311.14C287.461 310.873 288.698 310.212 289.67 309.24C290.641 308.269 291.302 307.031 291.57 305.684C291.837 304.336 291.699 302.94 291.173 301.671C290.646 300.403 289.755 299.319 288.612 298.557C287.469 297.795 286.125 297.389 284.752 297.391C282.914 297.394 281.153 298.125 279.854 299.424C278.554 300.723 277.823 302.485 277.82 304.322ZM290.718 304.322C290.72 305.503 290.372 306.657 289.717 307.64C289.063 308.622 288.132 309.388 287.042 309.842C285.952 310.295 284.752 310.414 283.594 310.185C282.436 309.956 281.372 309.388 280.536 308.554C279.701 307.72 279.132 306.657 278.901 305.5C278.67 304.342 278.787 303.142 279.239 302.051C279.69 300.96 280.455 300.028 281.436 299.372C282.417 298.716 283.571 298.366 284.752 298.366C286.327 298.374 287.836 299.004 288.948 300.12C290.061 301.236 290.686 302.747 290.689 304.322H290.718Z" fill="#2B266D"/>
<path d="M408.963 148.116C408.713 147.699 408.309 147.397 407.837 147.276C407.366 147.156 406.867 147.226 406.447 147.473L404.497 148.623L404.049 147.863C403.646 147.22 403.009 146.759 402.272 146.577C401.535 146.395 400.757 146.506 400.101 146.888L389.299 153.264C388.816 153.557 388.428 153.983 388.183 154.492C387.937 155 387.844 155.569 387.915 156.13L377.435 162.32C376.569 162.83 375.818 163.513 375.231 164.328L371.39 169.203C371.262 169.366 371.186 169.564 371.172 169.771C371.159 169.978 371.207 170.184 371.312 170.363C371.399 170.521 371.527 170.653 371.684 170.742C371.841 170.832 372.019 170.876 372.2 170.87H372.355L378.478 169.895C379.511 169.783 380.508 169.45 381.402 168.92L404.907 155.038C405.445 154.721 405.87 154.242 406.122 153.67C406.374 153.098 406.44 152.461 406.311 151.85L408.338 150.661C408.547 150.535 408.728 150.369 408.872 150.172C409.016 149.976 409.12 149.754 409.177 149.517C409.235 149.281 409.246 149.036 409.209 148.795C409.172 148.555 409.089 148.324 408.963 148.116Z" fill="#2B266D"/>
<path d="M443.103 340.023C441.561 340.023 440.053 340.48 438.77 341.337C437.488 342.194 436.488 343.412 435.898 344.837C435.307 346.262 435.153 347.831 435.454 349.343C435.755 350.856 436.497 352.246 437.588 353.337C438.679 354.427 440.069 355.17 441.581 355.471C443.094 355.772 444.662 355.618 446.087 355.027C447.513 354.437 448.731 353.438 449.588 352.155C450.445 350.872 450.902 349.365 450.902 347.822C450.902 345.754 450.08 343.77 448.618 342.307C447.155 340.844 445.172 340.023 443.103 340.023Z" fill="white"/>
<path d="M443.103 339.048C441.368 339.048 439.671 339.562 438.228 340.527C436.786 341.491 435.661 342.861 434.997 344.464C434.333 346.067 434.159 347.832 434.498 349.534C434.836 351.236 435.672 352.799 436.899 354.026C438.126 355.253 439.689 356.089 441.391 356.427C443.093 356.766 444.858 356.592 446.461 355.928C448.064 355.264 449.434 354.139 450.398 352.696C451.363 351.254 451.877 349.557 451.877 347.822C451.877 345.495 450.953 343.263 449.307 341.618C447.662 339.972 445.43 339.048 443.103 339.048ZM443.103 355.679C441.561 355.679 440.053 355.222 438.77 354.365C437.488 353.508 436.488 352.29 435.898 350.865C435.307 349.44 435.153 347.872 435.454 346.359C435.755 344.846 436.498 343.456 437.588 342.366C438.679 341.275 440.069 340.532 441.582 340.231C443.094 339.93 444.662 340.085 446.088 340.675C447.513 341.265 448.731 342.265 449.588 343.547C450.445 344.83 450.902 346.338 450.902 347.88C450.902 349.949 450.08 351.933 448.618 353.395C447.155 354.858 445.172 355.679 443.103 355.679Z" fill="#2B266D"/>
<path d="M435.09 210.226L398.902 182.413C398.656 182.223 398.366 182.1 398.059 182.056C397.752 182.012 397.439 182.048 397.151 182.161C396.862 182.274 396.608 182.46 396.412 182.7C396.217 182.941 396.087 183.228 396.035 183.534L390.313 216.953L395.187 221.018L430.283 250.06L436.844 214.915C437.013 214.048 436.938 213.151 436.629 212.323C436.319 211.495 435.786 210.77 435.09 210.226Z" fill="white"/>
<path d="M435.684 209.456L399.535 181.642C399.157 181.349 398.709 181.159 398.236 181.091C397.762 181.022 397.279 181.077 396.833 181.251C396.388 181.425 395.994 181.711 395.692 182.082C395.39 182.453 395.189 182.896 395.109 183.368L389.396 216.729L353.043 222.529C352.329 222.649 351.679 223.01 351.2 223.553L350.762 223.143V224.206V224.294C350.445 224.952 350.366 225.699 350.537 226.409L350.879 227.764L351.6 228.427C352.086 229.501 352.774 230.471 353.628 231.284L385.458 261.856C386.482 262.836 387.843 263.384 389.26 263.387C389.644 263.388 390.026 263.346 390.401 263.26L427.944 255.344C428.631 255.204 429.26 254.859 429.747 254.354C430.234 253.849 430.557 253.209 430.673 252.517L430.79 251.854L430.859 251.727L431.024 251.864L431.161 251.123L431.307 250.84L431.229 250.772L437.887 215.091C438.085 214.04 437.983 212.954 437.593 211.958C437.203 210.962 436.542 210.095 435.684 209.456ZM436.883 214.915L430.322 250.06L395.226 221.018L390.352 216.953L396.075 183.534C396.126 183.228 396.256 182.941 396.451 182.7C396.647 182.46 396.901 182.274 397.19 182.161C397.479 182.048 397.792 182.012 398.098 182.056C398.405 182.1 398.695 182.223 398.941 182.413L435.09 210.226C435.801 210.76 436.348 211.482 436.672 212.31C436.996 213.139 437.083 214.041 436.922 214.915H436.883ZM389.679 217.665L394.505 221.662L429.767 250.908L388.724 259.088L351.902 224.265C352.231 223.871 352.692 223.611 353.199 223.534L389.679 217.665Z" fill="#2B266D"/>
<path d="M388.724 259.049L429.766 250.869L394.505 221.622L389.679 217.626L353.199 223.475C352.692 223.553 352.231 223.813 351.902 224.206L388.724 259.049ZM387.203 221.73C388.353 222.49 417.015 246.804 418.234 247.837L417.922 248.208L417.61 248.578C407.286 239.804 387.544 223.124 386.667 222.539L387.203 221.73ZM382.718 222.9L413.33 249.153L413.008 249.524L412.696 249.894L382.085 223.641L382.718 222.9ZM377.493 224.401L377.805 224.031L408.416 250.284L407.783 251.025L377.171 224.771L377.493 224.401ZM370.552 236.597C371.595 236.363 380.837 234.325 381.987 234.325H382.173L392.828 243.743L380.34 246.882L369.655 236.831L370.552 236.597Z" fill="#B8B4F5"/>
<path d="M390.8 243.255L381.822 235.31C380.622 235.427 375.485 236.509 371.663 237.357L380.622 245.8L390.8 243.255Z" fill="#B8B4F5"/>
<path d="M392.828 243.743L382.173 234.325H381.987C380.837 234.325 371.595 236.363 370.552 236.597L369.655 236.802L380.379 246.882L392.828 243.743ZM381.821 235.31L390.8 243.255L380.622 245.8L371.663 237.357C375.504 236.509 380.622 235.427 381.821 235.31Z" fill="#2B266D"/>
<path d="M413.008 249.524L413.33 249.153L382.718 222.9L382.085 223.641L412.696 249.894L413.008 249.524Z" fill="#2B266D"/>
<path d="M408.416 250.284L377.805 224.031L377.483 224.401L377.171 224.771L407.783 251.025L408.416 250.284Z" fill="#2B266D"/>
<path d="M417.922 248.208L418.234 247.837C417.015 246.804 388.353 222.49 387.203 221.73L386.667 222.539C387.544 223.124 407.286 239.824 417.61 248.578L417.922 248.208Z" fill="#2B266D"/>
<path d="M374.793 323.157C375.938 322.816 377.037 322.338 378.068 321.734C381.597 319.579 384.868 317.028 387.817 314.13C388.85 313.155 389.767 312.18 390.674 311.283C389.339 310.381 387.826 309.776 386.238 309.509C384.609 309.303 382.955 309.405 381.363 309.811C378.804 312.269 376.516 314.994 374.539 317.942C372.589 320.954 372.404 322.563 372.872 323.07C373.035 323.205 373.236 323.283 373.447 323.294C373.9 323.327 374.356 323.281 374.793 323.157Z" fill="white"/>
<path d="M410.512 316.996C410.169 315.638 409.658 314.328 408.992 313.096C408.283 311.767 407.404 310.535 406.379 309.431L404.312 307.237L401.651 304.391L399.155 301.729C399.051 302.091 398.917 302.443 398.755 302.782C397.063 306.289 394.64 309.394 391.648 311.888C390.674 312.97 389.572 314.042 388.48 315.066C385.474 317.959 382.14 320.491 378.546 322.611C377.14 323.485 375.571 324.066 373.935 324.317L381.236 333.023C383.568 335.511 386.586 337.251 389.907 338.023C393.228 338.796 396.704 338.566 399.894 337.362C403.085 336.159 405.846 334.037 407.83 331.263C409.814 328.49 410.931 325.191 411.039 321.783C411.084 320.17 410.907 318.56 410.512 316.996Z" fill="white"/>
<path d="M375.689 308.232C376.274 306.633 376.06 304.469 372.892 303.426L372.687 303.348C367.208 302.665 365.979 298.346 364.673 293.774C364.234 292.111 363.673 290.481 362.996 288.9C362.399 287.867 361.533 287.016 360.492 286.434C359.45 285.852 358.271 285.562 357.079 285.595C356.405 285.643 355.765 285.909 355.256 286.352C354.746 286.795 354.393 287.391 354.252 288.052V288.237L354.33 288.402C354.33 290.606 355.382 292.088 354.749 293.414C354.533 293.864 354.214 294.258 353.817 294.563C353.421 294.868 352.959 295.075 352.468 295.168C349.67 294.622 346.881 295.539 345.955 297.313C345.517 298.142 345.146 299.857 347.496 302.08L347.613 302.168C349.295 302.82 351.026 303.342 352.789 303.728C356.689 304.703 362.733 306.233 362.626 307.803C362.538 309.041 361.339 308.7 359.984 309.928L359.838 310.026C359.522 310.356 359.288 310.755 359.154 311.192C359.02 311.628 358.991 312.09 359.067 312.541C359.115 312.867 359.245 313.176 359.444 313.438C359.644 313.701 359.907 313.909 360.208 314.042H360.345C360.53 314.054 360.715 314.054 360.9 314.042C364.108 314.062 374.325 311.966 375.689 308.232Z" fill="#2B266D"/>
<path d="M375.67 299.448C376.106 299.452 376.539 299.362 376.937 299.185C377.656 298.872 378.234 298.304 378.558 297.59C378.882 296.876 378.93 296.067 378.693 295.32C378.455 294.573 377.949 293.94 377.272 293.545C376.596 293.149 375.796 293.018 375.029 293.177C374.261 293.337 373.58 293.775 373.117 294.408C372.653 295.04 372.441 295.822 372.521 296.602C372.601 297.382 372.967 298.104 373.549 298.63C374.13 299.156 374.886 299.447 375.67 299.448Z" fill="#2B266D"/>
<path d="M414.714 302.587C413.329 301.111 411.414 300.246 409.391 300.18C407.368 300.114 405.401 300.854 403.922 302.236L402.363 303.708L399.194 300.335C398.899 299.865 398.485 299.482 397.993 299.225C397.502 298.968 396.95 298.846 396.396 298.873C395.279 298.869 394.179 299.147 393.198 299.682C393.101 299.74 392.916 299.799 392.818 299.857C388.972 301.958 385.424 304.565 382.27 307.608C381.695 308.115 381.139 308.582 380.603 309.109L380.057 309.743C377.68 312.077 375.546 314.648 373.691 317.415C372.297 319.569 370.893 322.416 372.131 323.732L380.525 333.598C382.989 336.227 386.177 338.066 389.686 338.882C393.195 339.698 396.867 339.456 400.238 338.184C403.609 336.913 406.527 334.671 408.623 331.741C410.719 328.811 411.899 325.325 412.014 321.724C412.068 319.851 411.838 317.981 411.331 316.177L414.373 313.32C415.83 311.936 416.683 310.033 416.746 308.024C416.81 306.015 416.08 304.062 414.714 302.587ZM381.354 332.994L373.954 324.386C375.596 324.097 377.163 323.483 378.565 322.582C382.159 320.462 385.493 317.929 388.5 315.036C389.592 314.061 390.557 313.135 391.57 312.053L392.068 311.575C394.929 309.184 397.223 306.187 398.785 302.801C398.946 302.462 399.08 302.11 399.184 301.749L401.68 304.41L404.342 307.257L406.408 309.45C407.434 310.554 408.312 311.786 409.021 313.116C409.687 314.348 410.198 315.658 410.542 317.015C410.93 318.57 411.104 320.171 411.058 321.773C410.954 325.171 409.844 328.462 407.869 331.229C405.893 333.997 403.142 336.116 399.962 337.319C396.782 338.523 393.317 338.755 390.005 337.989C386.692 337.223 383.682 335.491 381.354 333.013V332.994ZM411.731 310.571L409.781 312.424C409.053 311.108 408.166 309.886 407.139 308.787L405.083 306.584L406.642 305.122C407.367 304.446 408.33 304.084 409.321 304.117C410.311 304.15 411.248 304.574 411.926 305.297C412.258 305.655 412.516 306.076 412.683 306.534C412.851 306.993 412.925 307.481 412.901 307.968C412.856 308.948 412.424 309.87 411.702 310.532L411.731 310.571ZM372.872 323.108C372.404 322.601 372.589 320.993 374.539 317.98C376.562 315.032 378.892 312.306 381.49 309.85C383.045 309.445 384.664 309.343 386.257 309.548C388.997 310.035 390.693 311.293 390.693 311.498C389.816 312.424 388.87 313.369 387.837 314.344C384.888 317.187 381.616 319.673 378.088 321.753C377.057 322.357 375.957 322.835 374.812 323.177C374.373 323.308 373.914 323.361 373.457 323.333C373.246 323.322 373.044 323.243 372.882 323.108H372.872Z" fill="#2B266D"/>
</svg>
