<svg width="224" height="66" viewBox="0 0 224 66" fill="none" xmlns="http://www.w3.org/2000/svg">
<path d="M205.188 13.6378C208.955 13.6378 212.006 10.5838 212.006 6.81888C212.006 3.05276 208.955 0 205.188 0C201.422 0 198.371 3.05276 198.371 6.81888C198.371 10.5838 201.422 13.6378 205.188 13.6378ZM186.896 19.5227V29.5222H199.546V64.6836H210.83V29.5222H223.48V19.5227H186.896ZM88.4449 13.6378C92.2129 13.6378 95.2634 10.5838 95.2634 6.81888C95.2634 3.05276 92.2129 0 88.4449 0C84.6804 0 81.6269 3.05276 81.6269 6.81888C81.6269 10.5838 84.6804 13.6378 88.4449 13.6378ZM70.1531 29.5222H82.8032V64.6836H94.0861V29.5222H106.738V19.5227H70.1531V29.5222ZM167.706 64.6836H178.991V19.5503H167.706V64.6836ZM144.872 44.3736C144.872 50.3901 141.483 56.5972 134.342 56.5972C127.1 56.5972 125.878 49.9237 125.878 44.5617V19.5503H114.595V47.7586C114.595 56.9746 119.482 66 131.239 66C137.912 66 143.273 61.9581 145.246 57.4422H145.436V64.6836H156.156V19.5503H144.872V44.3736ZM47.7598 18.2326C41.0857 18.2326 35.7247 22.2771 33.7515 26.7891H33.5626V19.5503H22.8448V64.6836H34.1258V39.8603C34.1258 33.8425 37.5142 27.6367 44.6574 27.6367C51.8975 27.6367 53.1208 34.3126 53.1208 39.6722V64.6836H64.4037V36.4753C64.4037 27.2605 59.5162 18.2326 47.7598 18.2326ZM0 19.5503H11.2833V64.6836H0V19.5503Z" fill="#3873C2"/>
</svg>
