<svg width="53" height="66" viewBox="0 0 53 66" fill="none" xmlns="http://www.w3.org/2000/svg">
<g clip-path="url(#clip0_4640_227)">
<path d="M38.1751 14.7302L14.6919 14.763L14.6983 19.3226L38.1814 19.2898L38.1751 14.7302Z" fill="#001A31"/>
<path d="M26.4955 30.5668L14.7554 30.5832L14.7617 35.1428L26.5019 35.1264L26.4955 30.5668Z" fill="#001A31"/>
<path d="M38.1863 22.6477L14.7031 22.6805L14.7095 27.2401L38.1927 27.2073L38.1863 22.6477Z" fill="#001A31"/>
<path d="M35.8304 46.3122L35.8245 46.3093L26.5503 55.6171L17.9713 47.1134L12.7803 52.324L26.5886 66L53.0002 39.4875L52.9972 29.081L35.8304 46.3122Z" fill="#259245"/>
<path d="M16.3861 45.567L7.40939 36.6892L7.3652 7.40501L39.6189 7.35788L45.6319 13.3549L45.6436 33.3049L52.9941 25.9529L52.9882 10.3004L52.2311 9.54639L43.5225 0.865979L42.6534 0L0 0.0618557L0.0589216 39.7644L11.1863 50.7658L16.3861 45.567Z" fill="#001A31"/>
</g>
<defs>
<clipPath id="clip0_4640_227">
<rect width="53" height="66" fill="white"/>
</clipPath>
</defs>
</svg>
