<svg width="66" height="66" viewBox="0 0 66 66" fill="none" xmlns="http://www.w3.org/2000/svg">
<path fill-rule="evenodd" clip-rule="evenodd" d="M32.6308 65.18C50.6524 65.18 65.2617 50.5889 65.2617 32.59C65.2617 14.591 50.6524 0 32.6308 0C14.6093 0 0 14.591 0 32.59C0 50.5889 14.6093 65.18 32.6308 65.18Z" fill="#28A038"/>
<path fill-rule="evenodd" clip-rule="evenodd" d="M23.4856 21.6011C17.0559 21.6011 11.8457 26.6011 11.8457 32.7713C11.8457 38.9415 17.0559 43.9415 23.4856 43.9415C23.8181 43.9415 24.5941 43.9415 24.5941 43.9415V40.0053C24.5941 40.0053 23.929 40.0053 23.4856 40.0053C19.273 40.0053 15.9474 36.7074 15.9474 32.7713C15.9474 28.7287 19.3839 25.5372 23.4856 25.5372C23.7073 25.5372 25.5918 25.5372 27.1438 25.5372V49.4734H31.3563V21.6011C31.3563 21.6011 23.7073 21.6011 23.4856 21.6011Z" fill="white"/>
<path fill-rule="evenodd" clip-rule="evenodd" d="M42.0143 44.5957C48.444 44.5957 53.6542 39.5957 53.6542 33.4255C53.6542 27.2553 48.444 22.2553 42.0143 22.2553C41.6818 22.2553 40.9058 22.2553 40.9058 22.2553V26.1915C40.9058 26.1915 41.5709 26.1915 42.0143 26.1915C46.2268 26.1915 49.5525 29.4894 49.5525 33.4255C49.5525 37.4681 46.116 40.6596 42.0143 40.6596C41.7926 40.6596 39.9081 40.6596 38.3561 40.6596V16.7234H34.1436V44.5957C34.1436 44.5957 41.7926 44.5957 42.0143 44.5957Z" fill="white"/>
</svg>
