<svg width="79" height="66" viewBox="0 0 79 66" fill="none" xmlns="http://www.w3.org/2000/svg">
<path d="M40.5506 0.940119C38.0606 0.336067 35.4833 0 32.8121 0C30.1409 0 27.5571 0.333871 25.0737 0.940119V9.65165H40.5506V0.940119Z" fill="#A0C4E6"/>
<path d="M40.5506 25.2183H25.0737V40.7853H40.5506V25.2183Z" fill="#EF3E42"/>
<path d="M40.5506 40.7809H25.0737V56.3457H40.5506V40.7809Z" fill="#9ACD6E"/>
<path d="M25.0737 65.0599C27.5571 65.6639 30.1409 66 32.8121 66C35.4833 66 38.0606 65.6661 40.5506 65.0599V56.3461H25.0737V65.0599Z" fill="#429ED6"/>
<path d="M40.5506 9.64922H25.0737V25.2162H40.5506V9.64922Z" fill="#CAE3B2"/>
<path d="M25.0762 25.2183H9.59717V40.7853H25.0762V25.2183Z" fill="#CAE3B2"/>
<path d="M25.0762 40.7809H9.59717V56.3457H25.0762V40.7809Z" fill="#7AC143"/>
<path d="M9.59717 56.3461C13.7885 60.5613 19.12 63.6101 25.0762 65.0599V56.3461H9.59717Z" fill="#007BC6"/>
<path d="M25.0762 9.64922H9.59717V25.2162H25.0762V9.64922Z" fill="#9ACD6E"/>
<path d="M25.0733 0.940094C19.1171 2.38982 13.7856 5.43644 9.59424 9.65162H25.0733V0.940094Z" fill="#429ED6"/>
<path d="M9.5971 56.3479V40.7831L0.932617 40.7809C2.37633 46.7665 5.40354 52.1349 9.5971 56.3479Z" fill="#007BC6"/>
<path d="M9.5971 9.64922C5.40354 13.8644 2.37633 19.2284 0.932617 25.2162H9.5971V9.64922Z" fill="#429ED6"/>
<path d="M56.0293 25.2183H40.5503V40.7853H56.0293V25.2183Z" fill="#9ACD6E"/>
<path d="M56.0293 40.7809H40.5503V56.3457H56.0293V40.7809Z" fill="#7AC143"/>
<path d="M56.0293 56.3461H40.5503V65.0599C46.5043 63.608 51.8401 60.5635 56.0293 56.3461Z" fill="#007BC6"/>
<path d="M56.0293 9.64922H40.5503V25.2162H56.0293V9.64922Z" fill="#7AC143"/>
<path d="M40.5503 0.940094V9.65162H56.0293C51.8401 5.43644 46.5043 2.38762 40.5503 0.940094Z" fill="#007BC6"/>
<path d="M56.0293 56.3479C60.2207 52.1349 63.2479 46.7687 64.6916 40.7809L56.0293 40.7831V56.3479Z" fill="#007BC6"/>
<path d="M56.0293 9.64922V25.2162H64.6916C63.2479 19.2284 60.2228 13.8644 56.0293 9.64922Z" fill="#007BC6"/>
<path d="M0.932633 25.2183C0.334178 27.7224 0 30.3143 0 33.0007C0 35.6871 0.331994 38.2834 0.932633 40.7831L9.59711 40.7853V25.2183H0.932633Z" fill="#A0C4E6"/>
<path d="M64.6916 40.7831C65.2922 38.2834 65.6264 35.6871 65.6264 33.0007C65.6264 30.3143 65.2944 27.7224 64.6916 25.2183H56.0293V40.7853L64.6916 40.7831Z" fill="#429ED6"/>
<path d="M70.021 49.091H72.2532C72.7075 49.091 73.1094 49.1437 73.3977 49.2601C74.3391 49.5391 74.7999 50.2552 74.7999 51.0789C74.7999 52.2453 73.9241 52.8493 73.1094 53.0448V53.0799C73.5986 53.326 74.3587 54.7625 75.2193 56.3484H73.5396C72.5983 54.6241 72.037 53.4819 71.7268 53.4578H71.4778V56.3484H70.021V49.091ZM71.8317 52.298C72.5808 52.298 73.2404 51.9992 73.2404 51.2502C73.2404 50.8043 73.0504 50.4682 72.6573 50.3672C72.441 50.2727 72.203 50.2552 71.8666 50.2552H71.4778V52.298H71.8317Z" fill="#474747"/>
<path d="M79.0002 52.8189C79.0002 56.5289 76.0057 59.5425 72.3124 59.5425C68.619 59.5425 65.6245 56.5311 65.6245 52.8189C65.6245 49.1045 68.6168 46.093 72.3124 46.093C76.0057 46.093 79.0002 49.1045 79.0002 52.8189ZM72.3102 47.5076C69.3965 47.5076 67.0311 49.8865 67.0311 52.8189C67.0311 55.7491 69.3965 58.1258 72.3102 58.1258C75.226 58.1258 77.5914 55.7491 77.5914 52.8189C77.5914 49.8865 75.226 47.5076 72.3102 47.5076Z" fill="#474747"/>
</svg>
