<svg width="66" height="67" viewBox="0 0 66 67" fill="none" xmlns="http://www.w3.org/2000/svg">
<path d="M33 66C51.2254 66 66 51.2254 66 33C66 14.7746 51.2254 0 33 0C14.7746 0 0 14.7746 0 33C0 51.2254 14.7746 66 33 66Z" fill="#0077C5"/>
<path d="M43.2143 18.084C43.02 17.6154 42.6913 17.2149 42.2696 16.933C41.8479 16.6511 41.3521 16.5004 40.8449 16.5H16.6625V19.0641C16.6625 20.4831 17.8109 21.6348 19.2266 21.6348H34.6442L13.9532 42.3258C13.472 42.8072 13.2017 43.4601 13.2017 44.1408C13.2017 44.8215 13.472 45.4744 13.9532 45.9558L15.7682 47.7708L42.6566 20.8824C43.016 20.5234 43.2608 20.0659 43.36 19.5678C43.4593 19.0697 43.4086 18.5533 43.2143 18.084ZM48.1841 22.9416C47.7148 22.7473 47.1984 22.6966 46.7003 22.7959C46.2022 22.8952 45.7447 23.14 45.3857 23.4993L18.4973 50.3877L20.3123 52.2027C20.7938 52.6839 21.4466 52.9542 22.1273 52.9542C22.808 52.9542 23.4609 52.6839 23.9423 52.2027L44.6333 31.5117V46.9293C44.6333 48.3483 45.785 49.4967 47.2007 49.4967H49.7681V25.311C49.7683 24.8032 49.618 24.3067 49.336 23.8844C49.0541 23.462 48.6532 23.1361 48.1841 22.9416Z" fill="white"/>
</svg>
