<svg width="66" height="66" viewBox="0 0 66 66" fill="none" xmlns="http://www.w3.org/2000/svg">
<mask id="mask0_4500_672" style="mask-type:luminance" maskUnits="userSpaceOnUse" x="0" y="0" width="66" height="66">
<path d="M32.6462 0C14.5839 0.188967 0 14.8888 0 33.0011C0 51.2232 14.7751 66 33 66C51.2249 66 66 51.2232 66 33.0011C66 14.891 51.4183 0.188967 33.356 0H32.6462Z" fill="white"/>
</mask>
<g mask="url(#mask0_4500_672)">
<path d="M43.9978 43.9973H22V65.9988H43.9978V43.9973Z" fill="#9ACD6E"/>
</g>
<mask id="mask1_4500_672" style="mask-type:luminance" maskUnits="userSpaceOnUse" x="0" y="0" width="66" height="66">
<path d="M32.6462 0C14.5839 0.188967 0 14.8888 0 33.0011C0 51.2232 14.7751 66 33 66C51.2249 66 66 51.2232 66 33.0011C66 14.891 51.4183 0.188967 33.356 0H32.6462Z" fill="white"/>
</mask>
<g mask="url(#mask1_4500_672)">
<path d="M43.9978 -0.00429535H22V21.9972H43.9978V-0.00429535Z" fill="#CAE3B2"/>
</g>
<mask id="mask2_4500_672" style="mask-type:luminance" maskUnits="userSpaceOnUse" x="0" y="0" width="66" height="66">
<path d="M32.6462 0C14.5839 0.188967 0 14.8888 0 33.0011C0 51.2232 14.7751 66 33 66C51.2249 66 66 51.2232 66 33.0011C66 14.891 51.4183 0.188967 33.356 0H32.6462Z" fill="white"/>
</mask>
<g mask="url(#mask2_4500_672)">
<path d="M22.0022 21.9986H0V43.9979H22.0022V21.9986Z" fill="#CAE3B2"/>
</g>
<mask id="mask3_4500_672" style="mask-type:luminance" maskUnits="userSpaceOnUse" x="0" y="0" width="66" height="66">
<path d="M32.6462 0C14.5839 0.188967 0 14.8888 0 33.0011C0 51.2232 14.7751 66 33 66C51.2249 66 66 51.2232 66 33.0011C66 14.891 51.4183 0.188967 33.356 0H32.6462Z" fill="white"/>
</mask>
<g mask="url(#mask3_4500_672)">
<path d="M22.0022 43.9973H0V65.9988H22.0022V43.9973Z" fill="#429ED6"/>
</g>
<mask id="mask4_4500_672" style="mask-type:luminance" maskUnits="userSpaceOnUse" x="0" y="0" width="66" height="66">
<path d="M32.6462 0C14.5839 0.188967 0 14.8888 0 33.0011C0 51.2232 14.7751 66 33 66C51.2249 66 66 51.2232 66 33.0011C66 14.891 51.4183 0.188967 33.356 0H32.6462Z" fill="white"/>
</mask>
<g mask="url(#mask4_4500_672)">
<path d="M22.0022 -0.00411987H0V21.9973H22.0022V-0.00411987Z" fill="#A0C4E6"/>
</g>
<mask id="mask5_4500_672" style="mask-type:luminance" maskUnits="userSpaceOnUse" x="0" y="0" width="66" height="66">
<path d="M32.6462 0C14.5839 0.188967 0 14.8888 0 33.0011C0 51.2232 14.7751 66 33 66C51.2249 66 66 51.2232 66 33.0011C66 14.891 51.4183 0.188967 33.356 0H32.6462Z" fill="white"/>
</mask>
<g mask="url(#mask5_4500_672)">
<path d="M66.0022 21.9986H44V43.9979H66.0022V21.9986Z" fill="#9ACD6E"/>
</g>
<mask id="mask6_4500_672" style="mask-type:luminance" maskUnits="userSpaceOnUse" x="0" y="0" width="66" height="66">
<path d="M32.6462 0C14.5839 0.188967 0 14.8888 0 33.0011C0 51.2232 14.7751 66 33 66C51.2249 66 66 51.2232 66 33.0011C66 14.891 51.4183 0.188967 33.356 0H32.6462Z" fill="white"/>
</mask>
<g mask="url(#mask6_4500_672)">
<path d="M66.0022 43.9973H44V65.9988H66.0022V43.9973Z" fill="#007BC6"/>
</g>
<mask id="mask7_4500_672" style="mask-type:luminance" maskUnits="userSpaceOnUse" x="0" y="0" width="66" height="66">
<path d="M32.6462 0C14.5839 0.188967 0 14.8888 0 33.0011C0 51.2232 14.7751 66 33 66C51.2249 66 66 51.2232 66 33.0011C66 14.891 51.4183 0.188967 33.356 0H32.6462Z" fill="white"/>
</mask>
<g mask="url(#mask7_4500_672)">
<path d="M66.0022 -0.00429535H44V21.9972H66.0022V-0.00429535Z" fill="#429ED6"/>
</g>
<mask id="mask8_4500_672" style="mask-type:luminance" maskUnits="userSpaceOnUse" x="0" y="0" width="66" height="66">
<path d="M32.6462 0C14.5839 0.188967 0 14.8888 0 33.0011C0 51.2232 14.7751 66 33 66C51.2249 66 66 51.2232 66 33.0011C66 14.891 51.4183 0.188967 33.356 0H32.6462Z" fill="white"/>
</mask>
<g mask="url(#mask8_4500_672)">
<path d="M43.9978 21.9986H22V43.9979H43.9978V21.9986Z" fill="#EF3E42"/>
</g>
</svg>
