<svg width="198" height="66" viewBox="0 0 198 66" fill="none" xmlns="http://www.w3.org/2000/svg">
<path d="M77.8545 34.7266H86.0129C90.4219 34.7266 93.3695 37.3037 93.3695 41.3286C93.3695 43.8796 92.0244 45.9187 89.9356 46.9116L93.8843 54.5623H89.1337L85.7555 47.902H82.1484V54.5623H77.8545V34.7266ZM82.1484 38.268V44.3606H85.6702C87.7033 44.3606 88.9902 43.1706 88.9902 41.3286C88.9902 39.4866 87.7033 38.268 85.6702 38.268H82.1484Z" fill="#212223"/>
<path d="M94.4968 47.3058C94.4968 42.7714 97.5013 39.8262 102.053 39.8262C106.604 39.8262 109.439 42.5458 109.495 46.8249C109.495 47.2513 109.465 47.731 109.381 48.1859H98.7029V48.383C98.7883 50.4506 100.133 51.6989 102.166 51.6989C103.799 51.6989 104.942 50.9898 105.287 49.6313H109.266C108.807 52.4662 106.261 54.7309 102.338 54.7309C97.4444 54.7309 94.4956 51.8117 94.4956 47.3058H94.4968ZM105.431 45.5766C105.144 43.7929 103.913 42.7999 102.081 42.7999C100.25 42.7999 99.0184 43.8486 98.7895 45.5766H105.43H105.431Z" fill="#212223"/>
<path d="M121.16 39.9997H125.197V54.5647H121.619L121.248 52.807C120.304 53.9387 119.016 54.732 116.924 54.732C113.89 54.732 111.085 53.2297 111.085 48.0718V39.9959H115.121V47.5338C115.121 50.1394 115.982 51.4174 117.986 51.4174C119.991 51.4174 121.163 49.9721 121.163 47.2797V39.9972L121.16 40.0009V39.9997Z" fill="#212223"/>
<path d="M127.584 35.9276H131.62V40.0083H134.97V43.3812H131.62V49.7576C131.62 50.7765 132.021 51.2029 133.051 51.2029H135.14V54.5734H131.79C128.985 54.5734 127.583 53.1863 127.583 50.4096V35.9276H127.584Z" fill="#212223"/>
<path d="M135.806 47.3058C135.806 42.7714 138.811 39.8262 143.362 39.8262C147.913 39.8262 150.748 42.5458 150.804 46.8249C150.804 47.2513 150.774 47.731 150.69 48.1859H140.012V48.383C140.098 50.4506 141.443 51.6989 143.476 51.6989C145.108 51.6989 146.251 50.9898 146.598 49.6313H150.576C150.117 52.4662 147.572 54.7309 143.649 54.7309C138.755 54.7309 135.806 51.8117 135.806 47.3058ZM146.741 45.5766C146.454 43.7929 145.223 42.7999 143.392 42.7999C141.56 42.7999 140.329 43.8486 140.101 45.5766H146.741Z" fill="#212223"/>
<path d="M161.562 39.9959V43.6242H159.959C157.554 43.6242 156.639 45.2109 156.639 47.421V54.5622H152.602V39.9972H156.267L156.639 42.1776C157.44 40.8748 158.584 39.9972 160.874 39.9972H161.561L161.562 39.9959Z" fill="#212223"/>
<path d="M166.043 49.7192C166.187 50.9935 167.301 51.8736 169.278 51.8736C170.966 51.8736 171.999 51.3344 171.999 50.3155C171.999 49.1255 170.998 49.0412 168.62 48.7288C165.186 48.3322 162.523 47.5673 162.523 44.5651C162.523 41.5628 165.071 39.7754 168.847 39.8051C172.796 39.8051 175.517 41.5343 175.719 44.5081H171.854C171.74 43.3466 170.623 42.6375 168.991 42.6375C167.359 42.6375 166.387 43.2053 166.387 44.1411C166.387 45.2469 167.648 45.3597 169.767 45.615C173.145 45.9534 175.951 46.7207 175.951 50.0081C175.951 52.8975 173.204 54.7395 169.252 54.7395C165.3 54.7395 162.383 52.8393 162.211 49.7242H166.046L166.043 49.7217V49.7192Z" fill="#212223"/>
<path d="M76.71 11.2403H92.5975V14.8946H86.7852V31.0761H82.4913V14.8946H76.7075V11.2403H76.71Z" fill="#212223"/>
<path d="M108.186 23.0003V31.0761H104.149V23.3412C104.149 20.9612 103.175 19.6286 101.171 19.6286C99.166 19.6286 97.8803 21.1025 97.8803 23.5953V31.0749H93.8438V11.2392H97.8803V18.2961C98.8244 17.1643 100.141 16.3413 102.23 16.3413C105.494 16.3413 108.183 18.0705 108.183 23.0015L108.186 22.999V23.0003Z" fill="#212223"/>
<path d="M109.724 23.7935C109.724 19.3162 112.786 16.34 117.481 16.34C122.176 16.34 125.239 19.3137 125.239 23.7935C125.239 28.2734 122.176 31.2471 117.481 31.2471C112.786 31.2471 109.724 28.2734 109.724 23.7935ZM121.144 23.7935C121.144 21.3293 119.743 19.6001 117.479 19.6001C115.214 19.6001 113.843 21.3293 113.843 23.7935C113.843 26.2578 115.218 27.987 117.479 27.987C119.739 27.987 121.144 26.2578 121.144 23.7935Z" fill="#212223"/>
<path d="M150.077 22.7152V31.0749H146.04V22.9432C146.04 20.7628 145.238 19.6274 143.492 19.6274C141.746 19.6274 140.573 20.9017 140.573 23.1143V31.0773H136.536V22.9457C136.536 20.7653 135.735 19.6299 133.959 19.6299C132.183 19.6299 131.068 20.9624 131.068 23.1428V31.0773H127.032V16.5123H130.553L130.925 18.3246C131.811 17.1928 133.101 16.3698 135.248 16.3412C137.054 16.3127 138.742 16.9635 139.657 18.8055C140.687 17.2474 142.404 16.3412 144.639 16.3412C147.672 16.3412 150.078 18.0407 150.078 22.7176V22.7152H150.077Z" fill="#212223"/>
<path d="M155.448 26.2342C155.592 27.5085 156.709 28.3886 158.684 28.3886C160.372 28.3886 161.404 27.8493 161.404 26.8304C161.404 25.6404 160.404 25.5561 158.024 25.2438C154.591 24.8471 151.929 24.0823 151.929 21.08C151.929 18.0778 154.477 16.2903 158.256 16.32C162.204 16.32 164.926 18.0492 165.127 21.023H161.263C161.149 19.8615 160.032 19.1525 158.399 19.1525C156.767 19.1525 155.792 19.7202 155.792 20.6548C155.792 21.7605 157.053 21.8733 159.172 22.1287C162.551 22.4671 165.356 23.2344 165.356 26.5218C165.356 29.4112 162.609 31.2532 158.657 31.2532C154.704 31.2532 151.785 29.3542 151.616 26.2379H155.451L155.448 26.2354V26.2342Z" fill="#212223"/>
<path d="M166.355 23.7935C166.355 19.3162 169.418 16.34 174.112 16.34C178.807 16.34 181.87 19.3137 181.87 23.7935C181.87 28.2734 178.807 31.2471 174.112 31.2471C169.418 31.2471 166.355 28.2734 166.355 23.7935ZM177.775 23.7935C177.775 21.3293 176.375 19.6001 174.11 19.6001C171.845 19.6001 170.473 21.3293 170.473 23.7935C170.473 26.2578 171.848 27.987 174.11 27.987C176.372 27.987 177.775 26.2578 177.775 23.7935Z" fill="#212223"/>
<path d="M198 22.9977V31.0735H193.964V23.3943C193.964 20.9301 193.019 19.6273 190.986 19.6273C188.953 19.6273 187.695 21.1011 187.695 23.6237V31.0772H183.658V16.5122H187.18L187.551 18.3245C188.495 17.1927 189.842 16.3411 192.102 16.3411C195.279 16.3411 198 18.0121 198 23.0014V22.9989V22.9977Z" fill="#212223"/>
<path d="M182.553 40.0135V40.9097H181.152V44.8764H180.112V40.9097H178.711V40.0135H182.553Z" fill="#212223"/>
<path d="M184.474 40.0135L185.819 43.5847L187.123 40.0135H188.462V44.8764H187.469V41.6188L186.207 44.8764H185.361L184.099 41.6188V44.8764H183.107V40.0135H184.474Z" fill="#212223"/>
<path d="M56.9579 8.85665C57.7956 9.69709 58.2609 10.8201 58.2609 12.0089C58.2609 13.1977 57.8006 14.3207 56.9579 15.1624C55.2255 16.9003 52.4029 16.9003 50.6692 15.1624C49.8315 14.322 49.3662 13.2026 49.3662 12.0089C49.3662 10.8152 49.8265 9.69709 50.6692 8.85665C51.5379 7.98523 52.6751 7.55014 53.8136 7.55014C54.952 7.55014 56.0929 7.98523 56.9579 8.85665Z" fill="#D64000"/>
<path d="M8.85986 57.1297C7.12744 55.3918 7.12744 52.5618 8.85986 50.8239C9.6976 49.9835 10.8138 49.5174 12.0042 49.5174C13.1946 49.5174 14.3095 49.9785 15.1485 50.8239C16.8809 52.5618 16.8809 55.3918 15.1485 57.1297C14.3058 57.975 13.1897 58.4362 12.0042 58.4362C10.8187 58.4362 9.69884 57.975 8.85986 57.1297Z" fill="#D64000"/>
<path d="M42.7535 9.20495L42.7238 9.19132C41.7772 8.79093 41.0385 8.04595 40.6474 7.09271C40.2477 6.1308 40.2477 5.0722 40.6474 4.10533C41.0471 3.14342 41.7945 2.39348 42.7535 1.99309C43.2361 1.79228 43.7398 1.69312 44.2434 1.69312C44.7471 1.69312 45.2556 1.79352 45.7333 1.99309C47.7181 2.81617 48.6598 5.10195 47.8394 7.09271C47.019 9.08224 44.7384 10.028 42.7535 9.20495Z" fill="#D64000"/>
<path d="M21.5923 56.4938C22.0959 56.4938 22.5995 56.5942 23.0772 56.79C25.062 57.6131 26.0037 59.8989 25.1833 61.8896C24.7836 62.8528 24.0374 63.6052 23.0772 64.0019C22.1169 64.4023 21.0626 64.4023 20.0987 64.0019C18.1138 63.1788 17.1721 60.893 17.9926 58.9023C18.3923 57.9404 19.1384 57.1867 20.0987 56.79C20.5813 56.5892 21.0849 56.49 21.5886 56.49L21.5935 56.4938H21.5923Z" fill="#D64000"/>
<path d="M36.2445 3.34438C36.2445 5.13805 34.8289 6.60571 33.0618 6.68876H32.9096C31.0683 6.68876 29.5747 5.18639 29.5747 3.34438C29.5747 1.50237 31.0732 0 32.9096 0C34.746 0 36.2445 1.50733 36.2445 3.34934V3.34438Z" fill="#D64000"/>
<path d="M29.5698 62.6556C29.5698 60.8087 31.0684 59.3113 32.9047 59.3113C34.7411 59.3113 36.2396 60.8136 36.2396 62.6556C36.2396 64.4976 34.7411 66 32.9047 66C31.0684 66 29.5698 64.4976 29.5698 62.6556Z" fill="#D64000"/>
<path d="M22.6648 8.17733C21.9792 8.45995 21.2269 8.45995 20.5364 8.17733C19.8459 7.88974 19.3113 7.35425 19.0292 6.66628C18.4426 5.24201 19.1158 3.60948 20.5364 3.02192C20.8841 2.87813 21.2405 2.80872 21.5956 2.80872C22.6895 2.80872 23.724 3.46197 24.1707 4.53297C24.4529 5.22589 24.4529 5.98327 24.1707 6.66628C23.8886 7.3592 23.354 7.8947 22.6635 8.17733H22.6648Z" fill="#D64000"/>
<path d="M43.1495 57.8223C43.4972 57.6785 43.8573 57.6041 44.2174 57.6041C44.5775 57.6041 44.9388 57.6785 45.2816 57.8173C45.9721 58.1049 46.5066 58.6404 46.7888 59.3283C47.0709 60.0213 47.0709 60.7786 46.7888 61.4629C46.5066 62.1558 45.9721 62.6901 45.2816 62.9739C44.5911 63.2566 43.84 63.2566 43.1495 62.9739C42.459 62.6901 41.9244 62.1558 41.6423 61.4629C41.3601 60.77 41.3601 60.0175 41.6423 59.3283C41.9244 58.6404 42.459 58.1049 43.1495 57.8223Z" fill="#D64000"/>
<path d="M13.5712 10.4643C14.4262 11.3221 14.4399 12.7029 13.6145 13.5781L13.5662 13.6264C12.6975 14.4978 11.2819 14.4978 10.4132 13.6264C9.54455 12.755 9.54455 11.3357 10.4132 10.4643C10.8476 10.0292 11.4168 9.811 11.9897 9.811C12.5627 9.811 13.1319 10.0292 13.5662 10.4643H13.5699H13.5712Z" fill="#D64000"/>
<path d="M52.2213 52.3871C52.6507 51.952 53.2248 51.7338 53.7928 51.7338C54.3608 51.7338 54.935 51.952 55.3693 52.3871C55.7913 52.8048 56.0202 53.3676 56.0202 53.9638C56.0202 54.56 55.79 55.1216 55.3693 55.5443C54.5006 56.4194 53.09 56.4157 52.2163 55.5443C51.7944 55.1216 51.5654 54.5551 51.5654 53.9638C51.5654 53.3725 51.7956 52.8098 52.2163 52.3871H52.22H52.2213Z" fill="#D64000"/>
<path d="M4.52515 24.225C3.10457 23.6375 2.43141 22 3.01795 20.5807C3.30009 19.8877 3.83466 19.3522 4.52515 19.0696C4.87287 18.9308 5.23297 18.8564 5.59306 18.8564C5.95316 18.8564 6.31449 18.9258 6.65726 19.0696C8.07784 19.6572 8.751 21.2947 8.16446 22.714C7.88232 23.4069 7.34775 23.9424 6.65726 24.225C5.96677 24.5076 5.21069 24.5076 4.52887 24.225H4.52392H4.52515Z" fill="#D64000"/>
<path d="M61.3013 41.7837C61.9918 42.0663 62.5251 42.6018 62.8085 43.2948C63.0906 43.9877 63.0906 44.7401 62.8085 45.4281C62.222 46.8474 60.5935 47.5267 59.1729 46.9354C58.4824 46.6515 57.9491 46.1173 57.6657 45.4243C57.3836 44.7314 57.3836 43.979 57.6657 43.2898C58.1087 42.2188 59.1469 41.5693 60.2408 41.5693C60.5923 41.5693 60.9523 41.6387 61.3001 41.7825L61.3013 41.7837Z" fill="#D64000"/>
<path d="M0 33.0174C0 31.1704 1.49854 29.673 3.3349 29.673C5.17125 29.673 6.66979 31.1754 6.66979 33.0174C6.66979 34.8594 5.17125 36.3617 3.3349 36.3617C1.49854 36.3617 0 34.8594 0 33.0174Z" fill="#D64000"/>
<path d="M59.147 33.0174C59.147 31.1704 60.6455 29.673 62.4819 29.673C64.3182 29.673 65.8168 31.1754 65.8168 33.0174C65.8168 34.8594 64.3182 36.3617 62.4819 36.3617C60.6455 36.3617 59.147 34.8594 59.147 33.0174Z" fill="#D64000"/>
<path d="M1.97596 45.8419C1.15554 43.8511 2.09723 41.5703 4.08208 40.7422C5.04233 40.3419 6.09663 40.3419 7.06059 40.7422C8.02084 41.1426 8.76702 41.8926 9.16671 42.8545C9.5664 43.8176 9.5664 44.875 9.16671 45.8419C8.76702 46.8038 8.02084 47.5537 7.06059 47.9541C6.10034 48.3545 5.04604 48.3545 4.08208 47.9541C3.12183 47.5537 2.37565 46.8038 1.97596 45.8419Z" fill="#D64000"/>
<path d="M56.6188 23.1401C56.2241 22.1782 56.2241 21.1196 56.6188 20.1577C57.0185 19.1958 57.7659 18.4459 58.7249 18.0455C59.2075 17.8409 59.7112 17.7455 60.2061 17.7455C61.7344 17.7455 63.1847 18.6516 63.8059 20.154C64.6263 22.1448 63.6846 24.4256 61.6997 25.2536C60.7395 25.654 59.6852 25.654 58.7212 25.2536C57.761 24.8532 57.0148 24.1045 56.6151 23.1414H56.6188V23.1401Z" fill="#D64000"/>
<path d="M42.3711 42.4889C41.151 43.7086 41.151 45.6981 42.3711 46.9179C43.5913 48.1413 45.5712 48.1413 46.7925 46.9179C47.3828 46.3254 47.7082 45.5419 47.7082 44.7052C47.7082 43.8685 47.3828 43.0814 46.7925 42.4938C46.1837 41.884 45.3855 41.579 44.5862 41.579C43.7868 41.579 42.98 41.884 42.3711 42.4889Z" fill="#D64000"/>
<path d="M16.3119 31.1059C14.9915 30.7526 14.2095 29.3903 14.5621 28.0664C14.7354 27.4268 15.1437 26.8901 15.7179 26.5591C16.0953 26.3372 16.521 26.2232 16.9467 26.2232C17.1595 26.2232 17.3761 26.2492 17.5889 26.3062C18.2274 26.481 18.762 26.89 19.0912 27.464C19.4215 28.0391 19.5082 28.7097 19.3386 29.3494C18.9872 30.6732 17.6273 31.4616 16.3069 31.1046H16.3119V31.1059Z" fill="#D64000"/>
<path d="M48.2167 39.68C47.5781 39.5065 47.0436 39.0962 46.7144 38.5223C46.384 37.9471 46.2974 37.2765 46.4669 36.6369C46.6402 35.9972 47.0485 35.4618 47.6215 35.1308C48.0038 34.9089 48.4295 34.7949 48.8552 34.7949C49.0334 34.7949 49.2116 34.8122 49.3848 34.8519L49.5024 34.8829C50.8227 35.2361 51.6035 36.6034 51.2521 37.9223C51.0789 38.5619 50.6705 39.0987 50.0976 39.4284C49.5246 39.7594 48.8552 39.8511 48.2179 39.6763V39.6813L48.2167 39.68Z" fill="#D64000"/>
<path d="M15.0438 37.7984C14.7703 36.7745 15.3432 35.7258 16.3332 35.3948L16.4458 35.3651C17.5013 35.0775 18.5915 35.7134 18.8737 36.772C19.0123 37.2864 18.943 37.8219 18.6744 38.283C18.4096 38.7404 17.979 39.0714 17.4716 39.2102C16.9593 39.3491 16.4297 39.2797 15.9644 39.0094C15.5091 38.7442 15.1787 38.3128 15.0401 37.8033L15.0438 37.7984Z" fill="#D64000"/>
<path d="M47.8604 30.4477L47.7738 30.3957C47.3618 30.1255 47.066 29.7201 46.9398 29.2416C46.6576 28.1793 47.2826 27.091 48.343 26.8034C49.3936 26.5208 50.4888 27.1517 50.7709 28.2103C51.053 29.2689 50.4281 30.361 49.3676 30.6448C48.8553 30.7837 48.3257 30.7105 47.8604 30.444V30.4477Z" fill="#D64000"/>
<path d="M22.3347 45.6806L22.2777 45.7364C21.6961 46.3202 20.7495 46.3202 20.1667 45.7364C19.5851 45.1526 19.5851 44.208 20.1667 43.6242C20.7483 43.0403 21.6949 43.0403 22.2777 43.6242C22.5599 43.908 22.7158 44.2824 22.7158 44.6828C22.7158 45.0571 22.5809 45.4054 22.3334 45.6806H22.3347Z" fill="#D64000"/>
<path d="M45.6292 20.2271C45.9113 20.5097 46.0673 20.8841 46.0673 21.2857C46.0673 21.6873 45.9113 22.0604 45.6292 22.3443C45.0476 22.9282 44.101 22.9282 43.5181 22.3443C43.236 22.0567 43.0801 21.6873 43.0801 21.2857C43.0801 20.8841 43.236 20.511 43.5181 20.2271C43.8052 19.9445 44.174 19.7871 44.5737 19.7871C44.9734 19.7871 45.3471 19.9395 45.6292 20.2222V20.2271Z" fill="#D64000"/>
<path d="M30.347 47.9976C30.6118 48.455 30.6811 48.9955 30.5462 49.5087C30.4077 50.0219 30.081 50.4495 29.6219 50.7148C29.1616 50.9801 28.627 51.0495 28.1147 50.9156C27.0591 50.633 26.4293 49.5397 26.7114 48.4811C26.85 47.9679 27.1755 47.5402 27.6358 47.275C28.0912 47.0097 28.6257 46.939 29.143 47.0741C29.6553 47.213 30.081 47.5402 30.3458 48.0014V47.9964L30.347 47.9976Z" fill="#D64000"/>
<path d="M35.4538 18.0109C35.1889 17.5535 35.1196 17.0143 35.2533 16.4999C35.3919 15.9854 35.7173 15.559 36.1789 15.2937C36.4833 15.119 36.8211 15.0285 37.1651 15.0285C37.3384 15.0285 37.5079 15.0508 37.6824 15.0942C38.1947 15.233 38.6204 15.5603 38.8852 16.0214C39.15 16.4788 39.2193 17.0192 39.0856 17.5324C38.8035 18.591 37.7133 19.222 36.6578 18.9393C36.1455 18.8005 35.7198 18.4733 35.455 18.0121L35.4538 18.0109Z" fill="#D64000"/>
<path d="M38.4323 46.8521L38.5362 46.9128C39.0535 47.2487 39.4222 47.7582 39.5831 48.3544C39.9345 49.6783 39.1537 51.0418 37.8333 51.3939C37.1911 51.5687 36.5266 51.4769 35.9537 51.146C35.3807 50.815 34.9724 50.2795 34.7991 49.6386C34.6259 48.999 34.7162 48.3284 35.0466 47.7532C35.377 47.1781 35.9104 46.769 36.5489 46.5955C36.7667 46.5397 36.9832 46.5124 37.1961 46.5124C37.6255 46.5124 38.0474 46.6252 38.4298 46.8471L38.4335 46.8521H38.4323Z" fill="#D64000"/>
<path d="M29.2741 19.4091C27.9587 19.7624 26.5988 18.974 26.2424 17.6538C25.8909 16.33 26.6718 14.9664 27.9921 14.6144C28.205 14.5574 28.4178 14.5313 28.6306 14.5313C29.7245 14.5313 30.7281 15.2627 31.0238 16.3696C31.3753 17.6935 30.5944 19.057 29.2741 19.4091Z" fill="#D64000"/>
<path d="M21.2321 24.3948C22.9546 24.3948 24.3505 22.9953 24.3505 21.2685C24.3505 19.5418 22.9546 18.1423 21.2321 18.1423C19.5096 18.1423 18.1138 19.5418 18.1138 21.2685C18.1138 22.9953 19.5096 24.3948 21.2321 24.3948Z" fill="#D64000"/>
</svg>
