<svg width="66" height="66" viewBox="0 0 66 66" fill="none" xmlns="http://www.w3.org/2000/svg">
<path fill-rule="evenodd" clip-rule="evenodd" d="M32.7977 65.4246C50.85 65.4246 65.4844 50.7902 65.4844 32.7379C65.4844 14.6854 50.85 0.0510254 32.7977 0.0510254C14.7453 0.0510254 0.11084 14.6854 0.11084 32.7379C0.11084 50.7902 14.7453 65.4246 32.7977 65.4246Z" fill="#3FB634"/>
<path fill-rule="evenodd" clip-rule="evenodd" d="M15.7575 32.6435L21.3358 27.0513C21.5207 26.8628 21.6239 26.6132 21.6239 26.3487C21.6239 25.7971 21.1755 25.3492 20.6241 25.3492C20.3554 25.3492 20.1034 25.4545 19.9135 25.6469C19.913 25.6478 14.3402 31.2173 14.3402 31.2173L8.74211 25.6384C8.55284 25.4518 8.30229 25.3492 8.03651 25.3492C7.48549 25.3492 7.03711 25.7968 7.03711 26.3478C7.03711 26.6167 7.14431 26.8689 7.33703 27.059L12.9146 32.6356L7.34003 38.2208C7.14387 38.4136 7.03711 38.6666 7.03711 38.9364C7.03711 39.4877 7.48549 39.9353 8.03651 39.9353C8.30274 39.9353 8.55351 39.8319 8.74211 39.6433L14.3316 34.0613L19.8999 39.6228C20.0973 39.8271 20.3521 39.936 20.6241 39.936C21.175 39.936 21.6234 39.4877 21.6234 38.9364C21.6234 38.6704 21.5204 38.4205 21.3327 38.2316L15.7575 32.6435Z" fill="white"/>
<path fill-rule="evenodd" clip-rule="evenodd" d="M48.9194 32.6417C48.9194 33.6432 49.7337 34.458 50.7365 34.458C51.7369 34.458 52.5517 33.6432 52.5517 32.6417C52.5517 31.6399 51.7369 30.8253 50.7365 30.8253C49.7337 30.8253 48.9194 31.6399 48.9194 32.6417Z" fill="white"/>
<path fill-rule="evenodd" clip-rule="evenodd" d="M43.4058 32.6426C43.4058 36.6832 46.6933 39.9704 50.7346 39.9704C54.7759 39.9704 58.0653 36.6832 58.0653 32.6426C58.0653 28.6014 54.7759 25.3132 50.7346 25.3132C46.6933 25.3132 43.4058 28.6014 43.4058 32.6426ZM45.4746 32.6426C45.4746 29.7423 47.8341 27.3826 50.7346 27.3826C53.634 27.3826 55.9937 29.7423 55.9937 32.6426C55.9937 35.5422 53.634 37.9011 50.7346 37.9011C47.8341 37.9011 45.4746 35.5422 45.4746 32.6426Z" fill="white"/>
<path fill-rule="evenodd" clip-rule="evenodd" d="M42.8856 25.4387L42.5781 25.4378C41.655 25.4378 40.7647 25.7289 40.0212 26.302C39.923 25.8535 39.5222 25.5163 39.0449 25.5163C38.4954 25.5163 38.055 25.9565 38.0537 26.507C38.0537 26.5089 38.057 38.8508 38.057 38.8508C38.0585 39.4003 38.5069 39.8471 39.0566 39.8471C39.6064 39.8471 40.0544 39.4003 40.0559 38.8494C40.0559 38.8473 40.0565 31.2596 40.0565 31.2596C40.0565 28.7298 40.2877 27.7084 42.4546 27.4376C42.6551 27.4127 42.8728 27.4166 42.8737 27.4166C43.4667 27.3962 43.888 26.9887 43.888 26.4381C43.888 25.8869 43.4382 25.4387 42.8856 25.4387Z" fill="white"/>
<path fill-rule="evenodd" clip-rule="evenodd" d="M36.0275 31.2473C35.5969 29.2081 34.4806 27.5332 32.7805 26.4576C30.2957 24.8799 27.0142 24.9671 24.6138 26.674C22.6561 28.0667 21.5259 30.3453 21.5259 32.6925C21.5259 33.281 21.5968 33.875 21.7445 34.4597C22.4838 37.3681 24.9839 39.5695 27.9648 39.9346C28.8492 40.0416 29.71 39.9903 30.6016 39.7592C31.3677 39.5729 32.109 39.2621 32.792 38.8245C33.5009 38.3688 34.0931 37.7678 34.667 37.0485C34.6784 37.0352 34.6903 37.0236 34.7016 37.0094C35.0997 36.5158 35.026 35.8137 34.5885 35.4786C34.2195 35.1958 33.5999 35.0811 33.1127 35.7053C33.008 35.8547 32.8911 36.0079 32.7623 36.1616C32.3747 36.5899 31.894 37.0048 31.3177 37.3267C30.5847 37.7184 29.7491 37.9423 28.8611 37.9474C25.9539 37.9149 24.3983 35.8855 23.8448 34.4369C23.7482 34.1668 23.6737 33.886 23.6217 33.5973C23.615 33.5432 23.6099 33.491 23.6079 33.4432C24.2092 33.4432 34.0403 33.4411 34.0403 33.4411C35.4706 33.4114 36.2402 32.4019 36.0275 31.2473ZM23.6947 31.4359C23.6947 31.4088 23.6967 31.3801 23.6982 31.3521C24.2785 29.0581 26.3559 27.3608 28.8299 27.3608C31.3339 27.3608 33.4303 29.0999 33.9812 31.4359H23.6947Z" fill="white"/>
</svg>
