<svg width="39" height="55" viewBox="0 0 39 55" fill="none" xmlns="http://www.w3.org/2000/svg">
<g clip-path="url(#clip0_3054_9301)">
<path d="M38.4378 0.75693H29.3688L29.3986 4.01768C26.4615 1.04284 22.8435 0 19.1214 0C14.0501 1.06862e-07 9.18649 2.01441 5.60053 5.60009C2.01457 9.18577 0 14.049 0 19.1199C0 24.1908 2.01457 29.0541 5.60053 32.6397C9.18649 36.2254 14.0501 38.2398 19.1214 38.2398C23.5228 38.2398 27.2896 36.2897 29.23 33.809C29.23 33.9594 29.2168 35.7625 29.2118 35.9575C29.1755 37.1904 28.997 39.1653 27.835 41.1833C27.154 42.3342 26.2493 43.3372 25.1744 44.1329C24.0995 44.9286 22.8761 45.501 21.5764 45.8163C20.2766 46.1316 18.9269 46.1835 17.6068 45.9688C16.2868 45.7541 15.023 45.2772 13.8902 44.5663L9.37971 52.4166C12.3429 54.2137 15.7417 55.1648 19.2073 55.1666C24.2253 55.1666 30.4828 53.1834 34.9206 47.0338C38.6114 41.9237 38.4378 37.0962 38.4378 32.4224V0.75693ZM19.1214 29.1699C17.1334 29.1699 15.19 28.5805 13.5369 27.4761C11.8839 26.3718 10.5954 24.8021 9.8345 22.9656C9.07356 21.1291 8.87429 19.1082 9.2619 17.1585C9.64951 15.2088 10.6066 13.4177 12.0121 12.0119C13.4176 10.606 15.2085 9.64839 17.1582 9.26017C19.108 8.87196 21.1291 9.07054 22.966 9.83082C24.8029 10.5911 26.3731 11.8789 27.4781 13.5315C28.583 15.184 29.1732 17.1271 29.1738 19.115C29.1721 21.7806 28.1125 24.3366 26.2278 26.2218C24.3431 28.107 21.7872 29.1673 19.1214 29.1699Z" fill="#F45D48"/>
</g>
<defs>
<clipPath id="clip0_3054_9301">
<rect width="39" height="55" fill="white"/>
</clipPath>
</defs>
</svg>
