<svg width="418" height="66" viewBox="0 0 418 66" fill="none" xmlns="http://www.w3.org/2000/svg">
<g clip-path="url(#clip0_4640_228)">
<path d="M75.5186 22.0383V31.5611H90.3487V37.5199H75.5186V50.0677H68.1035V16.0825H92.3172V22.0383H75.5186Z" fill="#001A31"/>
<path d="M96.4072 25.4138H103.549V50.0677H96.4072V25.4138ZM103.587 19.732C103.587 21.6966 101.995 23.2872 100.035 23.2872C98.0756 23.2872 96.4837 21.6937 96.4837 19.732C96.4837 17.7702 98.0756 16.1767 100.035 16.1767C101.995 16.1767 103.587 17.7702 103.587 19.732Z" fill="#001A31"/>
<path d="M135.372 35.9558V50.0677H128.23V37.0545C128.23 33.0692 126.4 31.2371 123.243 31.2371C119.809 31.2371 117.337 33.3461 117.337 37.8792V50.0677H110.196V25.4138H117.016V28.3004C118.941 26.1915 121.822 25.0457 125.164 25.0457C130.979 25.0457 135.372 28.4359 135.372 35.9529V35.9558Z" fill="#001A31"/>
<path d="M163.629 36V50.0677H156.946V46.9985C155.619 49.2459 153.056 50.4359 149.44 50.4359C143.673 50.4359 140.239 47.2283 140.239 42.9691C140.239 38.7099 143.305 35.5906 150.814 35.5906H156.49C156.49 32.5214 154.657 30.7334 150.814 30.7334C148.204 30.7334 145.503 31.6024 143.72 33.025L141.157 28.0295C143.858 26.106 147.839 25.0515 151.776 25.0515C159.283 25.0515 163.631 28.5331 163.631 36.0029L163.629 36ZM156.49 42.2769V39.7555H151.591C148.248 39.7555 147.198 40.9956 147.198 42.6421C147.198 44.43 148.71 45.62 151.226 45.62C153.606 45.62 155.666 44.5214 156.49 42.2739V42.2769Z" fill="#001A31"/>
<path d="M195.275 35.9558V50.0677H188.134V37.0545C188.134 33.0692 186.303 31.2371 183.146 31.2371C179.712 31.2371 177.241 33.3461 177.241 37.8792V50.0677H170.099V25.4138H176.92V28.3004C178.844 26.1915 181.725 25.0457 185.068 25.0457C190.882 25.0457 195.275 28.4359 195.275 35.9529V35.9558Z" fill="#001A31"/>
<path d="M200.192 37.7437C200.192 30.3211 205.912 25.0515 213.924 25.0515C219.097 25.0515 223.17 27.296 224.956 31.3284L219.418 34.3063C218.091 31.9705 216.122 30.916 213.88 30.916C210.264 30.916 207.427 33.4374 207.427 37.7437C207.427 42.0501 210.267 44.5685 213.88 44.5685C216.125 44.5685 218.091 43.5611 219.418 41.1782L224.956 44.2032C223.17 48.1443 219.097 50.433 213.924 50.433C205.912 50.433 200.192 45.1635 200.192 37.7408V37.7437Z" fill="#001A31"/>
<path d="M229.087 25.4138H236.228V50.0677H229.087V25.4138ZM236.222 19.732C236.222 21.6966 234.631 23.2872 232.671 23.2872C230.711 23.2872 229.119 21.6937 229.119 19.732C229.119 17.7702 230.711 16.1767 232.671 16.1767C234.631 16.1767 236.222 17.7702 236.222 19.732Z" fill="#001A31"/>
<path d="M264.661 36V50.0677H257.979V46.9985C256.652 49.2459 254.089 50.4359 250.473 50.4359C244.705 50.4359 241.271 47.2283 241.271 42.9691C241.271 38.7099 244.338 35.5906 251.847 35.5906H257.523C257.523 32.5214 255.69 30.7334 251.847 30.7334C249.237 30.7334 246.536 31.6024 244.752 33.025L242.19 28.0295C244.891 26.106 248.872 25.0515 252.809 25.0515C260.315 25.0515 264.664 28.5331 264.664 36.0029L264.661 36ZM257.523 42.2769V39.7555H252.624C249.281 39.7555 248.23 40.9956 248.23 42.6421C248.23 44.43 249.743 45.62 252.259 45.62C254.639 45.62 256.699 44.5214 257.523 42.2739V42.2769Z" fill="#001A31"/>
<path d="M271.132 16.0677H278.273V50.0677H271.132V16.0677Z" fill="#001A31"/>
<path d="M341.604 39.7585H322.973C323.661 42.8277 326.268 44.7069 330.023 44.7069C332.633 44.7069 334.507 43.9293 336.202 42.324L340.001 46.4477C337.712 49.0604 334.278 50.433 329.837 50.433C321.322 50.433 315.784 45.0722 315.784 37.7408C315.784 30.4094 321.413 25.0486 328.919 25.0486C336.426 25.0486 341.737 29.9057 341.737 37.8321C341.737 38.3829 341.646 39.1605 341.599 39.7555L341.604 39.7585ZM322.881 35.5876H335.01C334.507 32.4713 332.171 30.4566 328.969 30.4566C325.768 30.4566 323.385 32.4271 322.881 35.5876Z" fill="#259245"/>
<path d="M371.697 35.9558V50.0677H364.556V37.0545C364.556 33.0692 362.726 31.2371 359.568 31.2371C356.135 31.2371 353.663 33.3461 353.663 37.8792V50.0677H346.521V25.4138H353.342V28.3004C355.267 26.1915 358.147 25.0457 361.49 25.0457C367.304 25.0457 371.697 28.4359 371.697 35.9529V35.9558Z" fill="#259245"/>
<path d="M394.051 48.8748C392.586 49.9293 390.435 50.433 388.237 50.433C382.425 50.433 379.036 47.4551 379.036 41.5906V31.4639H375.237V25.9647H379.036V19.9617H386.177V25.9647H392.309V31.4639H386.177V41.4993C386.177 43.6082 387.322 44.7541 389.243 44.7541C390.296 44.7541 391.347 44.433 392.127 43.838L394.051 48.8778V48.8748Z" fill="#259245"/>
<path d="M395.708 47.7761L398.088 42.6451C400.286 44.0648 403.629 45.028 406.651 45.028C409.947 45.028 411.183 44.1561 411.183 42.7835C411.183 38.7511 396.308 42.8748 396.308 33.0221C396.308 28.3476 400.519 25.0486 407.707 25.0486C411.094 25.0486 414.846 25.8262 417.182 27.2018L414.802 32.2887C412.374 30.9131 409.95 30.4536 407.707 30.4536C404.503 30.4536 403.129 31.4639 403.129 32.7452C403.129 36.9602 418.006 32.8836 418.006 42.5979C418.006 47.1811 413.748 50.433 406.38 50.433C402.214 50.433 398.003 49.2872 395.714 47.7761H395.708Z" fill="#259245"/>
<path d="M308.852 40.1885C306.88 42.5331 303.932 44.0295 300.639 44.0295C294.719 44.0295 290.888 39.2077 290.888 33.2842C290.888 27.3608 294.719 22.539 300.639 22.539C303.508 22.539 306.203 23.6583 308.231 25.6878C308.713 26.1708 309.14 26.6922 309.514 27.243L314.363 22.8159C311.206 18.6775 306.242 15.9941 300.636 15.9941C291.097 15.9941 283.361 23.7349 283.361 33.2872C283.361 42.8395 291.094 50.5803 300.636 50.5803C305.85 50.5803 310.514 48.2563 313.68 44.6009L308.849 40.1944L308.852 40.1885Z" fill="#259245"/>
<path d="M38.1288 14.7302L14.6743 14.763L14.6807 19.3226L38.1352 19.2898L38.1288 14.7302Z" fill="#001A31"/>
<path d="M26.4631 30.5668L14.7373 30.5832L14.7437 35.1428L26.4694 35.1264L26.4631 30.5668Z" fill="#001A31"/>
<path d="M38.1396 22.6477L14.6851 22.6805L14.6914 27.2401L38.1459 27.2073L38.1396 22.6477Z" fill="#001A31"/>
<path d="M35.7866 46.3122L35.7807 46.3093L26.5178 55.6171L17.9493 47.1134L12.7646 52.324L26.5561 66L52.9354 39.4875L52.9325 29.081L35.7866 46.3122Z" fill="#259245"/>
<path d="M16.3661 45.567L7.40034 36.6892L7.3562 7.40501L39.5705 7.35788L45.5761 13.3549L45.5879 33.3049L52.9294 25.9529L52.9235 10.3004L52.1672 9.54639L43.4693 0.865979L42.6012 0L0 0.0618557L0.0588496 39.7644L11.1726 50.7658L16.3661 45.567Z" fill="#001A31"/>
</g>
<defs>
<clipPath id="clip0_4640_228">
<rect width="418" height="66" fill="white"/>
</clipPath>
</defs>
</svg>
