<svg width="172" height="66" viewBox="0 0 172 66" fill="none" xmlns="http://www.w3.org/2000/svg">
<g clip-path="url(#clip0_463_273)">
<path d="M152.069 10.1376C148.287 10.1372 144.589 11.2585 141.445 13.3594C138.3 15.4603 135.849 18.4467 134.401 21.9406C132.954 25.4346 132.575 29.2793 133.313 32.9884C134.051 36.6976 135.873 40.1046 138.548 42.7785C141.222 45.4524 144.63 47.2732 148.339 48.0105C152.049 48.7478 155.894 48.3686 159.388 46.9207C162.882 45.4729 165.868 43.0215 167.968 39.8765C170.069 36.7316 171.19 33.0344 171.189 29.2525C171.182 24.1844 169.165 19.3257 165.581 15.7423C161.997 12.1589 157.137 10.1433 152.069 10.1376ZM152.069 39.3075C150.081 39.3075 148.137 38.7181 146.484 37.6137C144.831 36.5094 143.543 34.9397 142.782 33.1032C142.021 31.2667 141.822 29.2458 142.209 27.2961C142.597 25.3463 143.554 23.5553 144.96 22.1494C146.365 20.7436 148.156 19.786 150.106 19.3978C152.055 19.0095 154.077 19.2081 155.913 19.9684C157.75 20.7287 159.321 22.0165 160.426 23.6691C161.53 25.3216 162.121 27.2647 162.121 29.2525C162.119 31.918 161.059 34.4738 159.175 36.3589C157.29 38.244 154.735 39.3044 152.069 39.3075Z" fill="#F45D48"/>
<path d="M95.7707 25.3886L92.4303 23.7193C90.9825 23.0065 90.0756 22.4446 89.7098 22.0336C89.3611 21.6693 89.1643 21.1859 89.1594 20.6817C89.1594 20.0372 89.447 19.4967 90.0271 19.0621C90.6073 18.6274 91.4072 18.4109 92.4303 18.4109C94.3035 18.4109 96.385 19.5463 98.6747 21.8171L104.317 16.1748C102.94 14.3015 101.139 12.7804 99.0619 11.7361C96.9845 10.6917 94.6894 10.1536 92.3642 10.1657C88.9131 10.1657 86.0808 11.1837 83.8671 13.2198C81.6534 15.2559 80.5461 17.7096 80.5449 20.5809C80.5449 25.0332 83.4831 28.7397 89.3594 31.7002L92.4303 33.2355C95.0748 34.5709 96.3971 35.9399 96.3971 37.3424C96.3971 38.0994 96.0302 38.767 95.2963 39.3455C94.5625 39.9239 93.5945 40.2132 92.3923 40.2132C91.2783 40.2132 90.004 39.8275 88.5694 39.0563C87.1404 38.2909 85.8543 37.2845 84.7679 36.0814L79.2095 42.1435C82.3685 46.2829 86.5975 48.3526 91.8965 48.3526C95.8808 48.3526 99.0587 47.2734 101.43 45.115C103.801 42.9566 104.986 40.2633 104.985 37.035C104.985 34.6111 104.328 32.4968 103.015 30.692C101.702 28.8873 99.2867 27.1195 95.7707 25.3886Z" fill="#F45D48"/>
<path d="M39.0145 10.8945H29.9455L29.9752 14.1553C27.0382 11.1804 23.4202 10.1376 19.6981 10.1376C14.6267 10.1376 9.76314 12.152 6.17719 15.7377C2.59123 19.3233 0.57666 24.1866 0.57666 29.2575C0.57666 34.3284 2.59123 39.1916 6.17719 42.7773C9.76314 46.363 14.6267 48.3774 19.6981 48.3774C24.0995 48.3774 27.8663 46.4272 29.8067 43.9466C29.8067 44.097 29.7934 45.9 29.7885 46.0951C29.7521 47.328 29.5736 49.3029 28.4117 51.3208C27.7307 52.4718 26.826 53.4747 25.7511 54.2705C24.6762 55.0662 23.4528 55.6386 22.153 55.9539C20.8533 56.2692 19.5036 56.3211 18.1835 56.1064C16.8634 55.8917 15.5997 55.4148 14.4669 54.7039L9.95637 62.5541C12.9195 64.3513 16.3184 65.3024 19.784 65.3042C24.8019 65.3042 31.0595 63.321 35.4973 57.1713C39.188 52.0612 39.0145 47.2337 39.0145 42.56V10.8945ZM19.6981 39.3075C17.71 39.3075 15.7666 38.718 14.1136 37.6137C12.4605 36.5094 11.1721 34.9397 10.4112 33.1032C9.65022 31.2667 9.45095 29.2458 9.83856 27.2961C10.2262 25.3463 11.1832 23.5553 12.5888 22.1494C13.9943 20.7436 15.7851 19.786 17.7349 19.3977C19.6847 19.0095 21.7058 19.2081 23.5427 19.9684C25.3795 20.7287 26.9498 22.0165 28.0547 23.669C29.1597 25.3216 29.7498 27.2646 29.7505 29.2525C29.7487 31.9182 28.6892 34.4742 26.8044 36.3593C24.9197 38.2445 22.3639 39.3048 19.6981 39.3075Z" fill="#F45D48"/>
<path d="M75.1701 10.8945H66.0548C66.0548 10.8945 66.0548 28.798 66.0548 29.074C66.073 31.6489 66.0697 36.1095 64.1706 38.0217C63.2599 38.9373 62.2682 39.757 60.1642 39.757C58.0602 39.757 57.0602 38.9307 56.1512 38.0217C54.2521 36.1095 54.2571 31.6489 54.2752 29.074C54.2752 28.803 54.2752 10.8945 54.2752 10.8945H45.1666V29.0096C45.1418 32.7397 45.0955 39.6859 49.6689 44.2887C52.353 46.9892 55.5496 48.3592 60.1708 48.3592C64.7921 48.3592 67.9903 46.9892 70.6744 44.2887C75.2478 39.6859 75.2015 32.7397 75.1767 29.0096L75.1701 10.8945Z" fill="#F45D48"/>
<path d="M122.317 39.1984C121.277 39.0579 120.254 38.3159 119.672 36.9607C119.274 36.0319 119.13 34.8122 119.13 33.3099V18.6919H129.842V10.8664H119.13V0.702393H110.04V32.5728C110.04 35.698 110.291 39.486 112.353 42.9847C114.114 45.9595 117.214 48.3642 122.303 48.3642C128.473 48.3642 132.913 43.9019 132.913 43.9019L127.459 37.1953C127.459 37.1953 125.064 39.5703 122.317 39.1984Z" fill="#F45D48"/>
</g>
<defs>
<clipPath id="clip0_463_273">
<rect width="172" height="66" fill="white"/>
</clipPath>
</defs>
</svg>
