<svg width="66" height="66" viewBox="0 0 66 66" fill="none" xmlns="http://www.w3.org/2000/svg">
<path d="M12.339 7.09657C10.976 7.09657 9.87215 8.20914 9.87215 9.57943V56.419C9.87215 57.7909 10.976 58.9019 12.339 58.9019C13.7036 58.9019 14.8074 57.7909 14.8074 56.419V9.581C14.8074 8.20914 13.7036 7.09657 12.339 7.09657ZM2.46843 24.1293C1.10545 24.1293 0 25.2403 0 26.6121V39.3879C0 40.7581 1.10545 41.8707 2.46843 41.8707C3.8314 41.8707 4.93529 40.7581 4.93529 39.3879V26.6121C4.93529 25.2403 3.8314 24.1293 2.46843 24.1293ZM22.2112 1.419C20.8482 1.419 19.7443 2.53157 19.7443 3.90186V62.0966C19.7443 63.4684 20.8482 64.5794 22.2112 64.5794C23.5741 64.5794 24.6796 63.4684 24.6796 62.0966V3.90343C24.6796 2.53157 23.5741 1.419 22.2112 1.419ZM62.5053 42.8324L52.7226 32.9859L62.4472 23.1959C62.9097 22.7286 63.1691 22.0975 63.1691 21.4398C63.1691 20.7821 62.9097 20.151 62.4472 19.6837C62.2186 19.4532 61.9467 19.2703 61.6472 19.1455C61.3476 19.0206 61.0263 18.9564 60.7019 18.9564C60.3774 18.9564 60.0561 19.0206 59.7565 19.1455C59.457 19.2703 59.1851 19.4532 58.9565 19.6837L34.5517 44.2467V37.0103L57.179 14.3236C57.6432 13.8573 57.9043 13.2262 57.9055 12.568C57.9067 11.9098 57.6478 11.2778 57.1853 10.8099C56.9572 10.5788 56.6857 10.3952 56.3864 10.2697C56.087 10.1442 55.7658 10.0793 55.4413 10.0787C55.1167 10.0781 54.7953 10.1419 54.4955 10.2663C54.1957 10.3907 53.9235 10.5733 53.6946 10.8036L34.5517 29.9986V23.1739L49.5303 8.09757C49.9928 7.63029 50.2523 6.99919 50.2523 6.3415C50.2523 5.68381 49.9928 5.05271 49.5303 4.58543C49.3018 4.35495 49.0299 4.17202 48.7303 4.04718C48.4308 3.92235 48.1095 3.85808 47.785 3.85808C47.4605 3.85808 47.1392 3.92235 46.8397 4.04718C46.5401 4.17202 46.2682 4.35495 46.0397 4.58543L34.5517 16.148V2.48286C34.5517 1.111 33.4463 0 32.0833 0C30.7203 0 29.6149 1.111 29.6149 2.48286V63.5171C29.6149 64.8874 30.7203 66 32.0833 66C33.4463 66 34.5517 64.8874 34.5517 63.5171V51.5303L44.9421 61.9881C45.1704 62.219 45.4423 62.4023 45.7418 62.5273C46.0414 62.6524 46.3628 62.7168 46.6874 62.7168C47.012 62.7168 47.3334 62.6524 47.633 62.5273C47.9325 62.4023 48.2044 62.219 48.4327 61.9881C48.8952 61.5209 49.1547 60.8898 49.1547 60.2321C49.1547 59.5744 48.8952 58.9433 48.4327 58.476L37.9152 47.8893L41.8267 43.9497L53.3146 55.5123C53.543 55.7434 53.8149 55.9268 54.1147 56.0521C54.4144 56.1773 54.736 56.2417 55.0607 56.2417C55.3855 56.2417 55.7071 56.1773 56.0068 56.0521C56.3065 55.9268 56.5785 55.7434 56.8069 55.5123C57.2693 55.045 57.5288 54.4139 57.5288 53.7562C57.5288 53.0985 57.2693 52.4674 56.8069 52.0001L45.3189 40.4376L49.2304 36.498L59.0162 46.3461C59.2444 46.577 59.5161 46.7602 59.8156 46.8852C60.115 47.0103 60.4363 47.0747 60.7607 47.0747C61.0852 47.0747 61.4065 47.0103 61.7059 46.8852C62.0054 46.7602 62.2771 46.577 62.5053 46.3461C62.9686 45.879 63.2286 45.2475 63.2286 44.5893C63.2286 43.9311 62.9686 43.2996 62.5053 42.8324Z" fill="black"/>
</svg>
