<svg width="66" height="66" viewBox="0 0 66 66" fill="none" xmlns="http://www.w3.org/2000/svg">
<path d="M50.6211 15.3746C52.4136 17.1665 55.3249 17.1665 57.1174 15.3746C57.9882 14.5114 58.4613 13.35 58.4613 12.1308C58.4613 10.9116 57.9805 9.74928 57.1174 8.87842C56.2212 7.98207 55.0437 7.53432 53.8654 7.53432C52.6872 7.53432 51.5097 7.98207 50.6135 8.87842C49.7427 9.74928 49.2695 10.9031 49.2695 12.1308C49.2695 13.3585 49.7504 14.5122 50.6135 15.3746H50.6211Z" fill="#D64000"/>
<path d="M15.3716 50.6173C14.5008 49.7464 13.3472 49.2732 12.1196 49.2732C10.8921 49.2732 9.73841 49.7541 8.86765 50.6173C7.07602 52.41 7.07602 55.3216 8.86765 57.1143C9.73841 57.9852 10.8921 58.4584 12.1196 58.4584C13.3472 58.4584 14.5008 57.9775 15.3716 57.1143C17.1632 55.3216 17.1632 52.41 15.3716 50.6173Z" fill="#D64000"/>
<path d="M42.7495 9.45677C44.807 10.3115 47.1713 9.33188 48.025 7.27495C48.8796 5.21717 47.901 2.85268 45.8434 1.99797C45.3456 1.79066 44.8232 1.69125 44.3007 1.69125C43.7783 1.69125 43.2558 1.79066 42.7571 1.99797C41.7615 2.41258 40.9816 3.18404 40.5756 4.17979C40.161 5.17554 40.161 6.2707 40.5756 7.2741C40.9901 8.27835 41.7615 9.0498 42.7571 9.45592H42.7495V9.45677Z" fill="#D64000"/>
<path d="M23.244 56.5427C22.7462 56.3354 22.2237 56.2352 21.7013 56.2352C21.1788 56.2352 20.6564 56.3346 20.1585 56.5427C19.1629 56.9574 18.383 57.7288 17.977 58.7246C17.1223 60.7823 18.1018 63.1468 20.1585 64.0016C21.1542 64.4162 22.2492 64.4162 23.2525 64.0016C24.2481 63.5869 25.028 62.8155 25.4341 61.8189C26.2887 59.762 25.31 57.3966 23.2525 56.5427H23.244Z" fill="#D64000"/>
<path d="M33 6.96857C34.925 6.96857 36.4847 5.40018 36.4847 3.48429C36.4847 1.5684 34.9165 0 33 0C31.0835 0 29.5161 1.5684 29.5161 3.48429C29.5161 5.40018 31.0843 6.96857 33 6.96857Z" fill="#D64000"/>
<path d="M33 59.0314C31.0758 59.0314 29.5161 60.5998 29.5161 62.5157C29.5161 64.4316 31.0843 66 33 66C34.9157 66 36.4847 64.4316 36.4847 62.5157C36.4847 60.5998 34.9165 59.0314 33 59.0314Z" fill="#D64000"/>
<path d="M20.5819 8.43616C21.3032 8.73523 22.1 8.73523 22.8298 8.43616C23.551 8.1371 24.1159 7.57295 24.4141 6.85162C24.7123 6.12945 24.7123 5.33336 24.4141 4.60353C23.9494 3.47524 22.8544 2.79469 21.7007 2.79469C21.3278 2.79469 20.9464 2.86946 20.5811 3.01899C19.0876 3.64092 18.374 5.35884 18.9967 6.85248C19.2957 7.57465 19.8598 8.1388 20.5811 8.43702L20.5819 8.43616Z" fill="#D64000"/>
<path d="M45.4103 57.5629C45.045 57.4134 44.672 57.3386 44.2906 57.3386C43.9092 57.3386 43.5277 57.4134 43.1709 57.5629C42.4497 57.862 41.8856 58.4261 41.5866 59.1475C41.2875 59.8696 41.2875 60.6657 41.5866 61.3964C41.8856 62.1177 42.4497 62.6819 43.1709 62.9809C43.893 63.28 44.689 63.28 45.4196 62.9809C46.1409 62.6819 46.7049 62.1177 47.004 61.3964C47.303 60.6742 47.303 59.8781 47.004 59.1475C46.7049 58.4261 46.1409 57.862 45.4196 57.5629H45.4111H45.4103Z" fill="#D64000"/>
<path d="M13.8121 13.8046C14.7415 12.8751 14.7415 11.3653 13.8121 10.4358C13.3474 9.97108 12.7417 9.73914 12.1283 9.73914C11.515 9.73914 10.9093 9.97108 10.4446 10.4358C9.51521 11.3653 9.51521 12.8751 10.4446 13.8046C11.374 14.734 12.8836 14.734 13.8129 13.8046H13.8121Z" fill="#D64000"/>
<path d="M53.8646 51.4894C53.2589 51.4894 52.6447 51.7222 52.1809 52.1869C51.7323 52.6346 51.4834 53.2319 51.4834 53.8708C51.4834 54.5098 51.7323 55.107 52.1809 55.5548C53.1102 56.4843 54.6198 56.4843 55.5492 55.5548C55.9969 55.107 56.2467 54.5098 56.2467 53.8708C56.2467 53.2319 55.9977 52.6346 55.5492 52.1869C55.0845 51.7222 54.4788 51.4894 53.8655 51.4894H53.8646Z" fill="#D64000"/>
<path d="M4.6025 24.408C5.32459 24.7071 6.12059 24.7071 6.85033 24.408C7.57242 24.1089 8.1365 23.5448 8.43468 22.8235C9.05653 21.3298 8.34378 19.6128 6.85033 18.99C6.48503 18.8405 6.11209 18.7657 5.73066 18.7657C5.34922 18.7657 4.96779 18.8405 4.61099 18.99C3.8889 19.2891 3.32482 19.8532 3.02664 20.5745C2.40479 22.0682 3.11754 23.7852 4.61099 24.408H4.6025Z" fill="#D64000"/>
<path d="M61.39 41.5821C61.0247 41.4326 60.6432 41.3578 60.2703 41.3578C59.1166 41.3578 58.0216 42.0384 57.5578 43.1667C57.2587 43.8889 57.2587 44.6849 57.5578 45.4148C57.8568 46.1361 58.4209 46.7011 59.1421 46.9993C60.6356 47.6221 62.3525 46.9084 62.9752 45.4148C63.2742 44.6934 63.2742 43.8965 62.9752 43.1667C62.6761 42.4445 62.112 41.8804 61.3908 41.5821H61.39Z" fill="#D64000"/>
<path d="M3.48388 29.5103C1.55887 29.5103 0 31.0787 0 32.9946C0 34.9105 1.56821 36.4789 3.48388 36.4789C5.39955 36.4789 6.96776 34.9105 6.96776 32.9946C6.96776 31.0787 5.39955 29.5103 3.48388 29.5103Z" fill="#D64000"/>
<path d="M62.5161 29.5103C60.5911 29.5103 59.0322 31.0787 59.0322 32.9946C59.0322 34.9105 60.6004 36.4789 62.5161 36.4789C64.4318 36.4789 66 34.9105 66 32.9946C66 31.0787 64.4318 29.5103 62.5161 29.5103Z" fill="#D64000"/>
<path d="M9.45711 42.7528C9.04255 41.7571 8.27119 40.9771 7.27555 40.571C6.27991 40.1564 5.18488 40.1564 4.1816 40.571C2.12406 41.4257 1.14541 43.7902 2.00003 45.848C2.4146 46.8438 3.18596 47.6237 4.1816 48.0307C5.17724 48.4453 6.27226 48.4453 7.27555 48.0307C8.27119 47.6161 9.05105 46.8446 9.46561 45.848C9.88018 44.8523 9.88018 43.7571 9.46561 42.7537H9.45711V42.7528Z" fill="#D64000"/>
<path d="M56.5359 23.2472C56.9504 24.243 57.7218 25.0229 58.7183 25.429C59.7139 25.8437 60.8089 25.8437 61.8122 25.429C63.8698 24.5743 64.8484 22.2098 63.9938 20.1521C63.3465 18.6007 61.8453 17.655 60.261 17.655C59.7462 17.655 59.2237 17.7544 58.7183 17.9617C57.7226 18.3764 56.9428 19.1478 56.5282 20.1436C56.1136 21.1393 56.1136 22.243 56.5282 23.2379L56.5359 23.2464V23.2472Z" fill="#D64000"/>
<path d="M23.5512 23.5451C24.7711 22.3336 24.7711 20.3506 23.5512 19.1399C22.9455 18.5341 22.141 18.2274 21.345 18.2274C20.549 18.2274 19.7521 18.5341 19.1379 19.1399C17.9189 20.3514 17.9189 22.3344 19.1379 23.5451C20.357 24.7643 22.3321 24.7643 23.5512 23.5451Z" fill="#D64000"/>
<path d="M44.6485 41.5334C43.8525 41.5334 43.0556 41.8401 42.4423 42.4459C41.2224 43.6574 41.2224 45.6396 42.4423 46.8512C43.6613 48.0712 45.6365 48.0712 46.8555 46.8512C47.4443 46.2624 47.7679 45.4824 47.7679 44.6447C47.7679 43.807 47.4443 43.027 46.8555 42.4374C46.2498 41.8316 45.4453 41.5249 44.6493 41.5249V41.5334H44.6485Z" fill="#D64000"/>
<path d="M16.4011 31.2705C17.7951 31.6435 19.2385 30.8143 19.6199 29.4124C19.8026 28.7318 19.7108 28.0267 19.3549 27.4209C19.0066 26.8151 18.434 26.3759 17.762 26.2017C17.5377 26.1439 17.3058 26.1108 17.0816 26.1108C16.6254 26.1108 16.1777 26.2272 15.7707 26.4676C15.165 26.816 14.7258 27.3801 14.5517 28.0606C14.1787 29.4625 15.0079 30.8984 16.4096 31.2799L16.4011 31.2714V31.2705Z" fill="#D64000"/>
<path d="M49.5934 34.7296C49.3691 34.6718 49.1372 34.6387 48.9129 34.6387C48.4567 34.6387 48.0091 34.7551 47.6021 34.9956C46.9964 35.3439 46.5572 35.9165 46.3831 36.5886C46.2004 37.2691 46.2922 37.9743 46.6481 38.5801C46.9964 39.1859 47.569 39.6251 48.241 39.7993C48.9214 39.982 49.6265 39.8902 50.2322 39.5342C50.838 39.1774 51.2772 38.6217 51.4522 37.9412C51.8251 36.5393 50.996 35.0958 49.5934 34.722V34.7305V34.7296Z" fill="#D64000"/>
<path d="M16.5254 35.202C15.3888 35.5087 14.7083 36.6786 15.0158 37.8154C15.1653 38.3634 15.5136 38.8273 16.0115 39.1094C16.5093 39.3915 17.0819 39.4662 17.629 39.3252C18.1769 39.1756 18.6407 38.8273 18.9228 38.3294C19.2048 37.8401 19.2796 37.2589 19.1386 36.7118C18.8319 35.575 17.6621 34.8944 16.5254 35.202Z" fill="#D64000"/>
<path d="M47.8498 30.5801C48.3477 30.8622 48.9202 30.9369 49.4673 30.7959C50.604 30.4892 51.2845 29.3193 50.9769 28.1825C50.6703 27.0457 49.5005 26.3736 48.3638 26.6727C47.2271 26.9794 46.5467 28.1493 46.8542 29.2861C47.0037 29.8341 47.352 30.298 47.8498 30.5801Z" fill="#D64000"/>
<path d="M22.5058 45.8145C22.8125 45.5078 22.9866 45.0932 22.9866 44.6531C22.9866 44.213 22.8125 43.7984 22.5058 43.4917C21.867 42.8527 20.8221 42.8527 20.1832 43.4917C19.5444 44.1306 19.5444 45.1756 20.1832 45.8145C20.8221 46.4534 21.867 46.4534 22.5058 45.8145Z" fill="#D64000"/>
<path d="M45.8093 20.185C45.5026 19.8698 45.088 19.7041 44.648 19.7041C44.2079 19.7041 43.7934 19.8783 43.4867 20.185C43.18 20.4917 43.0059 20.9072 43.0059 21.3464C43.0059 21.7857 43.18 22.2012 43.4867 22.5079C44.1255 23.1468 45.1704 23.1468 45.8093 22.5079C46.1168 22.2012 46.2901 21.7857 46.2901 21.3464C46.2901 20.9072 46.1159 20.4917 45.8093 20.185Z" fill="#D64000"/>
<path d="M30.5783 47.8474C30.2963 47.358 29.8316 47.0012 29.2837 46.8516C28.7281 46.7021 28.1555 46.7769 27.6662 47.0674C27.1769 47.3495 26.8201 47.8143 26.6706 48.3614C26.363 49.4982 27.0443 50.6681 28.1802 50.9748C28.7281 51.1244 29.3083 51.0496 29.7976 50.759C30.287 50.4685 30.6438 50.0122 30.7933 49.4651C30.9428 48.9171 30.868 48.3368 30.5775 47.8474H30.5783Z" fill="#D64000"/>
<path d="M35.4135 18.144C35.6956 18.6334 36.1603 18.9902 36.7082 19.1398C37.8449 19.4388 39.0138 18.7668 39.3213 17.63C39.4708 17.082 39.3961 16.5017 39.1056 16.0123C38.8235 15.5229 38.3588 15.1661 37.8117 15.0166C37.6291 14.9664 37.4388 14.9418 37.2561 14.9418C36.8824 14.9418 36.5179 15.0412 36.1942 15.2324C35.7049 15.5144 35.3481 15.9792 35.1986 16.5263C35.0491 17.0743 35.1239 17.6546 35.4144 18.144H35.4135Z" fill="#D64000"/>
<path d="M38.5738 46.6441C38.1677 46.4113 37.7192 46.2872 37.263 46.2872C37.0387 46.2872 36.8068 46.3203 36.5825 46.3781C35.9021 46.5608 35.338 46.9924 34.9897 47.5982C34.6414 48.204 34.542 48.9176 34.7246 49.5888C34.9073 50.2609 35.3388 50.8335 35.9437 51.1819C36.5494 51.5302 37.2545 51.6296 37.935 51.447C39.3375 51.0731 40.1667 49.6305 39.7937 48.2277C39.6111 47.5472 39.1795 46.9831 38.5738 46.6347V46.6432V46.6441Z" fill="#D64000"/>
<path d="M29.4091 19.6143C30.8108 19.2414 31.6407 17.797 31.267 16.3951C30.9518 15.2252 29.8899 14.4453 28.7286 14.4453C28.5043 14.4453 28.28 14.4699 28.0481 14.5362C26.6456 14.9091 25.8164 16.3535 26.1894 17.7554C26.5632 19.1572 28.0057 19.9873 29.4082 19.6135L29.4091 19.6143Z" fill="#D64000"/>
</svg>
