<svg width="66" height="66" viewBox="0 0 66 66" fill="none" xmlns="http://www.w3.org/2000/svg">
<path fill-rule="evenodd" clip-rule="evenodd" d="M46.2789 27.5001H65.5416C65.8414 29.2816 65.9979 31.1095 66 32.976V33.024C65.9979 34.8905 65.8414 36.7184 65.5416 38.4999H46.2768L59.8989 52.1209C58.8301 53.6213 57.6387 55.0304 56.3369 56.3338L56.3338 56.3369C55.0306 57.6392 53.6215 58.831 52.1209 59.8999L38.4986 46.2779V65.5416C36.6891 65.845 34.8575 65.9983 33.0227 66H32.976C31.1412 65.9982 29.3097 65.8448 27.5001 65.5416V46.2779L13.8791 59.8999C10.872 57.757 8.24295 55.128 6.1001 52.1209L19.7221 38.4999H0.459422C0.158555 36.7153 0 34.882 0 33.0113V32.9887C0 31.118 0.459422 27.5001 0.459422 27.5001H19.7219L6.09984 13.8791C7.16787 12.38 8.35868 10.9723 9.65998 9.67055L9.6672 9.66539C10.969 8.36165 12.3779 7.16939 13.8791 6.10113L27.5001 19.7221V0.459422C29.2836 0.159844 31.1138 0.00103125 32.9825 0H33.0165C34.8535 0.000999513 36.6873 0.154669 38.4989 0.459422V19.7221L52.1199 6.10113C53.6208 7.16967 55.0303 8.36109 56.3338 9.66307V9.6641C57.6374 10.9675 58.8298 12.3774 59.8989 13.8791L46.2789 27.5001ZM39.9826 39.9816C40.8216 37.7546 41.2509 35.3942 41.2497 33.0144L41.25 33.0142V32.9853C41.2512 30.6059 40.8219 28.2458 39.9829 26.0192C37.7555 25.1789 35.3943 24.7489 33.0137 24.75H32.9858C30.6049 24.7489 28.2435 25.179 26.0159 26.0195C25.1777 28.2463 24.7489 30.6062 24.75 32.9856V33.0144C24.7492 35.3946 25.1789 37.7554 26.0184 39.9826C28.1856 40.7996 30.5343 41.2477 32.9856 41.2508H33.0134C35.3939 41.2504 37.7548 40.8204 39.9826 39.9816Z" fill="#FF4A00"/>
</svg>
