<svg width="66" height="67" viewBox="0 0 66 67" fill="none" xmlns="http://www.w3.org/2000/svg">
<path d="M33 66C51.2254 66 66 51.2254 66 33C66 14.7746 51.2254 0 33 0C14.7746 0 0 14.7746 0 33C0 51.2254 14.7746 66 33 66Z" fill="url(#paint0_linear_4080_2847)"/>
<path d="M24.2663 29.3634C23.8079 28.6937 23.1254 28.1915 22.363 27.9211C21.6393 27.6661 20.8589 27.5889 20.0966 27.661C19.0715 27.7666 18.0903 28.2662 17.4129 29.044C17.0214 28.5701 16.5115 28.1967 15.9423 27.9623C15.1156 27.6172 14.1909 27.5657 13.3153 27.7099C12.3623 27.867 11.448 28.3306 10.8067 29.0595C10.0804 29.8682 9.72244 30.9628 9.71729 32.0419C9.71729 33.9941 9.71729 35.9438 9.71729 37.896C9.95681 37.896 10.1963 37.896 10.4359 37.896C10.9767 37.9115 11.5407 37.6977 11.8781 37.265C12.1692 36.8916 12.2773 36.4074 12.2876 35.9412C12.2876 34.7848 12.2876 33.6284 12.2876 32.472C12.2902 32.1552 12.267 31.8333 12.352 31.5268C12.4448 31.1482 12.6611 30.7954 12.9702 30.5558C13.3977 30.2185 13.9669 30.1051 14.5 30.1618C14.9095 30.1978 15.319 30.3498 15.6049 30.6537C15.932 31.004 16.0711 31.4933 16.0814 31.9646C16.0788 33.9401 16.0839 35.9181 16.0788 37.8935C16.3776 37.8986 16.6763 37.896 16.9776 37.896C17.3434 37.8729 17.7117 37.7492 18.0001 37.5174C18.3169 37.2676 18.5126 36.889 18.5951 36.4975C18.6826 36.1086 18.662 35.7069 18.6646 35.3128C18.6646 34.1976 18.6646 33.0824 18.6646 31.9646C18.6723 31.5835 18.796 31.1997 19.0226 30.8932C19.3342 30.4657 19.8442 30.2107 20.3644 30.1618C20.8486 30.118 21.3689 30.1927 21.7758 30.476C22.1235 30.7207 22.3373 31.1173 22.4223 31.5294C22.497 31.8668 22.4764 32.2119 22.4789 32.5544C22.4789 34.3341 22.4789 36.1164 22.4789 37.896C22.7751 37.896 23.0687 37.8986 23.3649 37.896C23.8336 37.8677 24.305 37.672 24.6089 37.3063C24.9334 36.9199 25.0441 36.4023 25.0519 35.9078C25.0519 34.8029 25.0519 33.7005 25.0519 32.5956C25.0493 32.2814 25.0622 31.9646 25.0338 31.6504C24.972 30.8392 24.7325 30.033 24.2663 29.3634Z" fill="white"/>
<path d="M34.6379 27.8541C34.2284 27.8619 33.8008 27.8104 33.4145 27.9752C32.9509 28.1477 32.5955 28.5469 32.4281 29.008C32.1757 29.7137 31.913 30.4168 31.6683 31.1276C31.197 32.3999 30.7411 33.6799 30.2827 34.9574C30.2595 34.8982 30.2337 34.8415 30.2106 34.7848C29.6774 33.3632 29.1366 31.9415 28.5957 30.5224C28.3768 29.9274 28.1476 29.3376 27.9235 28.7427C27.7922 28.395 27.5243 28.0937 27.174 27.9597C26.9783 27.8747 26.7645 27.8541 26.5533 27.8644C25.9172 27.8644 25.2836 27.8644 24.6475 27.8644C25.9455 31.0375 27.241 34.2105 28.5416 37.3835C28.6215 37.5793 28.7013 37.7827 28.7039 37.9965C28.7116 38.2515 28.6215 38.4936 28.5442 38.7331C28.3665 39.2096 28.1012 39.6963 27.6428 39.9539C27.1483 40.2346 26.5585 40.2269 26.0073 40.2063C26.3267 40.9918 26.6538 41.7748 26.968 42.5654C27.5089 42.5706 28.06 42.5036 28.5725 42.3233L28.5803 42.295L28.6034 42.3079C29.2499 42.1173 29.8062 41.6717 30.2157 41.1438C30.6407 40.6029 30.9137 39.9642 31.1609 39.3255C31.3438 38.8644 31.5344 38.4086 31.7147 37.945C32.7037 35.5034 33.6901 33.0592 34.6713 30.6125C35.0474 29.6982 35.4105 28.7787 35.784 27.8644C35.4028 27.8696 35.019 27.8516 34.6379 27.8541Z" fill="white"/>
<path d="M42.2768 28.1297L42.2562 28.1426L42.2485 28.1142C41.481 27.7434 40.613 27.5914 39.7631 27.6481C39.0548 27.697 38.362 27.9031 37.7387 28.243C36.9197 28.6912 36.2372 29.3788 35.7788 30.1901C35.0036 31.5654 34.8748 33.273 35.3925 34.7591C35.7994 35.9335 36.6493 36.956 37.7491 37.5432C38.3672 37.878 39.0626 38.0737 39.7631 38.1253C40.613 38.1819 41.4784 38.03 42.2536 37.6668C43.0082 37.314 43.665 36.7628 44.1646 36.0983L44.1621 36.0829C44.7416 35.3205 45.0686 34.3779 45.1536 33.4275C45.2721 32.1217 44.9399 30.7644 44.1569 29.7008C43.6727 29.0311 43.0263 28.4748 42.2768 28.1297ZM42.2201 34.4603C41.9755 34.9136 41.602 35.3076 41.1358 35.5343C40.716 35.7455 40.2267 35.8176 39.7631 35.7455C39.2171 35.6605 38.7097 35.3669 38.3543 34.9471C38.0864 34.638 37.901 34.262 37.7851 33.8705C37.6151 33.2447 37.6203 32.5725 37.7877 31.9466C37.9087 31.5268 38.107 31.1276 38.3955 30.7979C38.7483 30.3936 39.2428 30.1051 39.776 30.0227C40.2447 29.9454 40.7366 30.033 41.1564 30.2519C41.62 30.4914 41.9858 30.8958 42.2227 31.3568C42.7018 32.3149 42.7146 33.5074 42.2201 34.4603Z" fill="white"/>
<path d="M55.8446 30.6717C55.5819 30.0613 55.2213 29.4793 54.732 29.0234L54.7371 29.0054C54.2555 28.5495 53.6966 28.1735 53.0734 27.9468C52.4758 27.7228 51.8294 27.6404 51.1958 27.6816C50.5854 27.7254 49.9853 27.8979 49.447 28.1889V28.1941C49.1354 28.3615 48.8521 28.5778 48.5946 28.8199C48.5868 27.0248 48.5945 25.2297 48.592 23.4346C48.355 23.4371 48.1181 23.4294 47.8811 23.4423C47.4381 23.4603 46.9849 23.5736 46.6294 23.8492C46.2148 24.1712 46.0062 24.7043 45.9984 25.2194C46.001 29.4432 45.9933 33.6696 46.0036 37.896C46.4595 37.8909 46.9153 37.896 47.3712 37.8935C47.5463 37.8883 47.7318 37.8677 47.8889 37.7853L47.894 37.7595L47.9172 37.7673C48.2855 37.6359 48.4941 37.2238 48.4787 36.8452C48.7645 37.144 49.0994 37.3964 49.4599 37.5999C49.9931 37.8909 50.588 38.0583 51.1932 38.1021C51.5229 38.1175 51.8577 38.1201 52.1822 38.0609L52.1925 38.0325L52.2157 38.0454C52.4552 38.0351 52.6845 37.9579 52.9137 37.8909C53.591 37.6694 54.2143 37.2856 54.7217 36.786C55.1492 36.3688 55.4943 35.8717 55.7519 35.3334C56.4318 33.8885 56.4576 32.1501 55.8446 30.6717ZM53.3412 34.3882C53.0811 34.8672 52.6716 35.269 52.1771 35.5034C51.8706 35.6476 51.5332 35.7249 51.1932 35.7352C50.5597 35.7455 49.9338 35.4879 49.4779 35.0501C49.0375 34.6277 48.7439 34.0611 48.6383 33.461C48.4632 32.4849 48.7723 31.4212 49.496 30.731C49.9493 30.3009 50.5648 30.0407 51.1932 30.051C51.9015 30.0639 52.584 30.4142 53.0296 30.9602C53.8074 31.9003 53.9284 33.3194 53.3412 34.3882Z" fill="white"/>
<defs>
<linearGradient id="paint0_linear_4080_2847" x1="65.4901" y1="33.0001" x2="-0.230868" y2="33.0001" gradientUnits="userSpaceOnUse">
<stop stop-color="#ED0677"/>
<stop offset="1" stop-color="#6100A5"/>
</linearGradient>
</defs>
</svg>
