<svg width="800" height="400" viewBox="0 0 800 400" fill="none" xmlns="http://www.w3.org/2000/svg">
<path d="M519.148 57.8477C496.54 63.6956 480.835 85.2334 480.835 110.328V314.869L557.506 324.124V110.328C557.506 85.2183 541.741 63.6654 519.148 57.8477Z" fill="#2DC495"/>
<path d="M480.115 316.301L479.859 316.346L459.738 321.275L459.994 321.35L557.509 343.174V325.646L480.115 316.301Z" fill="white"/>
<path d="M519.436 56.3556H519.361C518.441 56.1295 517.522 55.9185 516.573 55.7376H516.377C515.533 55.5718 514.674 55.4362 513.814 55.3307H513.377C512.594 55.2252 511.87 55.1498 510.996 55.0895H510.408C501.649 54.5552 492.91 56.4207 485.133 60.4853C484.017 61.058 482.857 61.7362 481.576 62.5351C465.78 72.4524 455.953 90.8402 455.953 110.494V321.501C455.95 321.673 456.006 321.842 456.114 321.976C456.221 322.111 456.372 322.204 456.541 322.24L459.555 322.933L463.112 323.897L558.066 344.998H558.216C558.391 344.998 558.561 344.94 558.699 344.832C558.785 344.761 558.854 344.671 558.901 344.569C558.948 344.467 558.971 344.357 558.97 344.245V110.328C559.015 84.4949 542.737 62.324 519.436 56.3556ZM557.508 324.124L480.837 314.869V110.328C480.837 85.2334 496.587 63.6956 519.15 57.8477C541.758 63.6654 557.508 85.2183 557.508 110.328V324.124ZM459.993 321.35L459.736 321.275L479.872 316.346H480.129L557.523 325.691V343.22L459.993 321.35Z" fill="#2B266D"/>
<path d="M395.693 226.278C395.92 225.916 396.131 225.555 396.342 225.193L396.975 224.047C401.295 215.351 403.788 205.861 404.3 196.164C404.164 190.542 403.923 185.614 403.606 181.831C403.606 181.318 403.516 180.851 403.471 180.324C403.425 179.796 403.395 179.585 403.35 179.239C403.305 178.892 403.229 178.289 403.169 177.882C393.96 177.671 393.825 177.234 393.674 176.782C389.725 164.347 374.337 161.891 360.757 159.705C358.406 159.329 356.115 158.967 353.899 158.545C348.262 157.49 343.349 156.148 340.093 153.677C335.27 149.939 331.291 151.325 329.362 153.677C327.086 156.389 326.92 161.092 331.035 164.815C336.777 170.015 346.258 172.351 353.899 173.376C356.476 173.722 358.828 173.933 360.772 174.054L366.062 174.205V175.712C365.776 175.712 363.455 175.712 360.033 175.546L353.884 175.38C349.709 175.29 344.841 175.184 339.822 175.124C340.742 176.624 341.481 178.228 342.022 179.902C344.59 180.277 347.077 181.082 349.377 182.283C350.448 182.953 351.34 183.874 351.976 184.966C352.612 186.057 352.973 187.287 353.028 188.55C353.083 189.812 352.83 191.068 352.291 192.211C351.752 193.354 350.944 194.349 349.935 195.109C351.296 195.426 352.62 195.886 353.884 196.481C354.381 196.722 354.879 196.948 355.391 197.234C356.683 198.183 357.66 199.498 358.197 201.007C358.735 202.517 358.807 204.153 358.406 205.705C358.046 207.515 357.025 209.127 355.542 210.226L356.024 210.483C357.747 211.825 358.881 213.784 359.187 215.946C359.494 218.108 358.949 220.305 357.667 222.073C358.119 222.299 358.571 222.495 359.008 222.766C360.303 223.709 361.284 225.02 361.822 226.528C362.359 228.037 362.43 229.673 362.023 231.222C361.822 232.297 361.384 233.314 360.74 234.198C360.096 235.082 359.262 235.811 358.3 236.331C362.822 236.195 368.067 236.21 372.769 236.226C377.472 236.241 381.722 236.226 384.555 236.135H386.741C390.384 233.515 393.435 230.156 395.693 226.278ZM360.154 191.01L361.556 190.467C364.736 198.727 377.095 209.94 391.85 209.563V211.07H391.066C375.874 211.07 363.424 199.54 360.154 191.01Z" fill="#FF5787"/>
<path d="M391.893 211.069V209.562C377.138 209.939 364.764 198.725 361.598 190.466L360.197 191.008C363.467 199.539 375.977 211.069 391.154 211.069H391.893Z" fill="#2B266D"/>
<path d="M514.677 262.028L515.913 261.651C516.079 261.651 531.166 256.903 539.455 244.77L539.983 243.972L540.48 243.173C541.249 241.897 541.924 240.567 542.5 239.194C544.789 233.625 546.442 227.816 547.429 221.876C547.7 220.294 547.926 218.711 548.122 217.144C548.438 214.491 548.649 211.868 548.77 209.321C549.009 204.263 548.949 199.195 548.589 194.144C548.363 191.024 548.062 188.115 547.715 185.643C547.459 183.684 547.187 181.92 546.916 180.398C546.916 180.097 546.826 179.825 546.765 179.539C546.178 176.299 545.695 174.369 545.68 174.294V174.038L453.741 176.269L413.379 177.248L404.652 177.459C404.652 177.61 404.652 177.776 404.652 177.926C404.788 178.951 404.923 180.172 405.044 181.559C405.044 182.207 405.165 182.9 405.21 183.624C405.255 184.347 405.345 185.477 405.406 186.487C405.496 188.145 405.571 189.924 405.647 191.793C405.647 191.928 405.647 192.079 405.647 192.215C405.647 193.405 405.737 194.641 405.767 195.922C406.099 208.191 406.039 223.564 405.587 236.255V236.421C405.587 236.662 405.587 236.918 405.587 237.174C405.587 237.43 405.587 237.506 405.587 237.672V237.913C405.587 238.199 405.587 238.47 405.587 238.757C405.453 245.28 404.914 251.788 403.974 258.245C403.786 259.233 403.407 260.175 402.859 261.018L404.803 261.123H405.993C429.129 262.39 453.847 262.224 479.936 262.028C489.221 262.028 498.641 261.892 508.091 261.892L514.677 262.028ZM435.791 187.738C437.419 187.735 439.011 188.215 440.367 189.118C441.722 190.02 442.779 191.304 443.404 192.808C444.029 194.311 444.195 195.966 443.879 197.564C443.563 199.161 442.78 200.629 441.63 201.781C440.48 202.934 439.014 203.719 437.417 204.038C435.82 204.356 434.165 204.194 432.66 203.572C431.155 202.949 429.869 201.895 428.964 200.541C428.06 199.187 427.577 197.596 427.577 195.968C427.58 193.789 428.447 191.7 429.986 190.158C431.525 188.616 433.612 187.746 435.791 187.738Z" fill="#7169EA"/>
<path d="M435.789 202.675C439.493 202.675 442.496 199.672 442.496 195.968C442.496 192.264 439.493 189.261 435.789 189.261C432.085 189.261 429.082 192.264 429.082 195.968C429.082 199.672 432.085 202.675 435.789 202.675Z" fill="#FBC63C"/>
<path d="M558.385 172.365L557.224 172.455C557.085 172.326 556.901 172.256 556.712 172.259L403.732 175.967C403.624 175.975 403.52 176.005 403.424 176.054C403.328 176.103 403.243 176.171 403.174 176.253C403.134 176.295 403.108 176.347 403.099 176.404C400.396 176.414 397.694 176.284 395.005 176.012C390.604 162.99 374.884 160.458 361.003 158.242C358.561 157.85 356.18 157.459 353.904 157.022C348.583 156.012 343.926 154.746 341.032 152.5C335.727 148.385 330.768 149.621 328.206 152.681C325.644 155.74 325.192 161.543 330.03 165.899C330.644 166.437 331.288 166.94 331.959 167.406C328.715 165.567 325.048 164.601 321.318 164.603H317.204V150.646C317.204 150.646 317.204 150.646 317.204 150.556C317.263 149.218 316.81 147.908 315.938 146.893C315.79 146.677 315.629 146.471 315.455 146.275C310.723 141.075 298.695 138.001 283.247 138.001H282.855H280.775H278.665C265.854 138.001 256.057 139.342 249.425 141.965C242.085 144.889 241 148.596 241 150.541C241 150.541 241 150.661 241 150.706V191.792C241.003 199.939 243.618 207.87 248.461 214.42C253.304 220.971 260.12 225.796 267.907 228.187C275.695 230.578 284.044 230.41 291.728 227.706C299.413 225.002 306.028 219.905 310.602 213.164C311.703 211.55 312.675 209.851 313.511 208.085H321.318C322.124 208.086 322.929 208.041 323.73 207.95L324.167 208.537C323.047 210.542 322.489 212.813 322.554 215.109C322.568 215.537 322.603 215.965 322.66 216.39C322.93 219.003 324.167 221.422 326.126 223.172C325.714 224.535 325.516 225.954 325.538 227.377C325.659 232.035 328.387 237.551 335.712 237.762H337.867C339.914 238.393 342.067 238.603 344.198 238.38C344.529 238.38 349.005 238.244 356.255 237.928C361.214 237.717 367.408 237.732 372.834 237.747C377.461 237.747 381.877 237.747 384.696 237.656H386.474C386.821 237.852 387.439 237.867 391.9 237.792C393.272 237.792 395.05 237.792 396.678 237.792C396.964 241.816 397.145 245.328 397.296 248.207C397.748 256.692 397.974 261.063 400.145 262.314C400.209 262.389 400.287 262.45 400.375 262.494C400.463 262.538 400.559 262.564 400.657 262.57H400.747C401.08 262.669 401.425 262.72 401.772 262.721C402.053 262.736 402.335 262.736 402.616 262.721C426.731 264.228 452.55 264.017 479.86 263.806C497.042 263.686 514.601 263.565 532.084 263.882L558.52 264.831L558.385 172.365ZM406.023 261.229H404.832L402.888 261.123C403.436 260.28 403.815 259.338 404.003 258.35C404.943 251.894 405.482 245.385 405.616 238.862C405.616 238.576 405.616 238.304 405.616 238.018V237.777C405.616 237.611 405.616 237.445 405.616 237.28C405.616 237.114 405.616 236.767 405.616 236.526V236.36C406.068 223.67 406.128 208.296 405.797 196.028C405.797 194.747 405.797 193.511 405.676 192.32C405.676 192.184 405.676 192.034 405.676 191.898C405.676 190.029 405.525 188.251 405.435 186.593C405.435 185.583 405.314 184.633 405.239 183.729C405.164 182.825 405.133 182.312 405.073 181.664C404.952 180.278 404.817 179.057 404.681 178.032C404.681 177.881 404.681 177.715 404.681 177.565L413.408 177.354L453.77 176.374L545.709 174.143V174.399C545.709 174.475 546.207 176.404 546.794 179.645C546.794 179.931 546.9 180.202 546.945 180.504C547.216 182.011 547.488 183.789 547.744 185.749C548.091 188.281 548.392 191.129 548.618 194.249C548.978 199.3 549.038 204.368 548.799 209.427C548.678 211.974 548.467 214.596 548.151 217.249C547.955 218.756 547.729 220.399 547.458 221.982C546.471 227.921 544.818 233.73 542.529 239.299C541.953 240.673 541.278 242.003 540.509 243.278L540.012 244.077L539.485 244.876C531.195 256.933 516.108 261.711 515.942 261.756L514.706 262.133H508.075C498.625 262.133 489.205 262.209 479.92 262.269C453.801 262.329 429.083 262.45 406.023 261.229ZM372.864 236.225C368.162 236.225 362.932 236.225 358.395 236.33C359.357 235.81 360.191 235.081 360.835 234.197C361.479 233.313 361.917 232.296 362.118 231.221C362.525 229.672 362.455 228.036 361.917 226.527C361.379 225.019 360.399 223.708 359.104 222.765C358.667 222.494 358.214 222.298 357.762 222.072C359.044 220.304 359.589 218.107 359.282 215.945C358.976 213.783 357.842 211.824 356.119 210.482L355.637 210.225C357.12 209.126 358.141 207.514 358.501 205.704C358.902 204.152 358.83 202.516 358.292 201.006C357.755 199.497 356.778 198.182 355.486 197.233C355.004 196.947 354.507 196.721 353.979 196.48C352.715 195.885 351.391 195.425 350.03 195.108C351.039 194.348 351.848 193.353 352.386 192.21C352.925 191.067 353.178 189.811 353.123 188.549C353.068 187.286 352.707 186.056 352.071 184.965C351.436 183.873 350.544 182.952 349.473 182.282C347.172 181.081 344.686 180.276 342.118 179.901C341.576 178.227 340.837 176.623 339.917 175.123C344.921 175.123 349.804 175.289 353.979 175.379L360.129 175.545C363.52 175.756 365.841 175.726 366.157 175.711V174.204L360.867 174.053C358.923 173.932 356.572 173.721 353.994 173.375C346.353 172.335 336.873 170.014 331.13 164.814C327.016 161.091 327.181 156.389 329.457 153.676C331.386 151.37 335.365 149.983 340.188 153.676C343.384 156.147 348.357 157.489 353.994 158.544C356.21 158.966 358.516 159.328 360.852 159.704C374.417 161.89 389.82 164.346 393.769 176.781C393.92 177.233 394.055 177.67 403.264 177.881C403.264 178.288 403.385 178.755 403.445 179.238C403.506 179.72 403.521 179.946 403.566 180.323C403.611 180.7 403.656 181.257 403.702 181.83C404.018 185.568 404.259 190.542 404.395 196.163C403.883 205.86 401.391 215.35 397.07 224.046L396.437 225.192C396.226 225.554 396.015 225.915 395.789 226.277C393.54 230.14 390.505 233.488 386.881 236.104H384.696C381.772 236.255 377.386 236.24 372.864 236.225ZM335.486 236.225C329.457 235.908 327.196 231.462 327.091 227.347C327.079 226.245 327.211 225.145 327.483 224.077C328.998 224.92 330.693 225.39 332.426 225.448H332.773H333.934C337.415 225.448 339.797 225.448 341.62 225.448H344.469C347.147 225.431 349.82 225.234 352.472 224.86C354.008 224.7 355.461 224.086 356.647 223.097C357.212 223.337 357.761 223.614 358.29 223.926C359.315 224.709 360.087 225.778 360.508 226.998C360.929 228.218 360.98 229.535 360.656 230.784C360.409 232.069 359.751 233.24 358.78 234.118C357.809 234.996 356.579 235.535 355.275 235.652C351.747 236.149 348.18 236.326 344.62 236.179C343.112 236.179 341.017 236.179 338.229 236.179H335.727L335.486 236.225ZM324.107 215.124C324.065 213.265 324.473 211.424 325.297 209.758C326.807 211.061 328.68 211.871 330.663 212.079H331.417H332.065H332.17C336.24 212.079 338.892 212.079 340.897 212.079H343.745C346.423 212.062 349.097 211.865 351.749 211.492C352.482 211.402 353.201 211.22 353.889 210.949H353.979C354.415 211.138 354.837 211.354 355.245 211.597C356.271 212.38 357.042 213.449 357.463 214.669C357.884 215.889 357.936 217.206 357.612 218.455C357.33 219.756 356.657 220.939 355.682 221.846C355.446 222.047 355.194 222.229 354.929 222.389C354.108 222.89 353.187 223.203 352.231 223.308C348.707 223.805 345.146 223.982 341.59 223.835C339.721 223.835 337.295 223.835 333.707 223.835H332.728H332.185C330.681 223.748 329.219 223.304 327.92 222.539L327.272 222.087L326.684 221.56C325.284 220.128 324.399 218.273 324.167 216.284C324.112 215.874 324.077 215.462 324.061 215.048L324.107 215.124ZM321.364 206.638H310.602V208.146H311.823C311.451 208.919 311.044 209.673 310.602 210.406C306.529 217.319 300.296 222.7 292.864 225.722C285.431 228.744 277.212 229.239 269.471 227.129C261.73 225.02 254.897 220.424 250.024 214.05C245.152 207.676 242.511 199.876 242.507 191.853V153.932C245.522 157.368 252.485 160.835 261.829 162.071C267.458 162.788 273.127 163.14 278.8 163.126C291.159 163.126 301.921 161.302 308.944 158.378L309.547 158.122L310.662 157.594C312.568 156.722 314.28 155.476 315.697 153.932V164.723H310.602V166.23H321.318C324.299 166.216 327.245 166.863 329.945 168.124C332.645 169.386 335.032 171.23 336.933 173.525C337.129 173.766 337.31 174.023 337.506 174.279C337.702 174.535 337.897 174.776 338.063 175.032C339.017 176.436 339.787 177.955 340.354 179.554C336.694 179.253 333.016 179.222 329.352 179.464H328.221C327.076 178.321 325.661 177.486 324.107 177.037C323.79 176.935 323.468 176.85 323.142 176.781C322.749 176.695 322.351 176.629 321.951 176.585C321.529 176.585 321.077 176.555 320.595 176.494H319.977C319.649 176.496 319.322 176.521 318.997 176.57H310.602V178.077H315.697C315.095 178.636 314.586 179.287 314.189 180.006C312.696 182.059 311.932 184.553 312.019 187.09C312.023 188.513 312.325 189.918 312.907 191.217C313.488 192.515 314.336 193.676 315.395 194.626H310.602V196.133H317.641H317.807C319.319 196.811 320.944 197.2 322.599 197.279H322.705L323.338 197.46L324.076 197.686C325.63 198.179 327.142 198.793 328.598 199.524C328.754 199.606 328.905 199.697 329.05 199.796C329.324 199.967 329.582 200.164 329.819 200.384C330.319 200.811 330.727 201.337 331.017 201.928C331.308 202.518 331.474 203.162 331.507 203.82L330.784 204.242L330.286 204.468L330.09 204.573L329.412 204.89C328.437 205.319 327.429 205.666 326.398 205.93C325.78 206.096 325.147 206.216 324.514 206.322L323.76 206.442L322.961 206.518C322.404 206.533 321.861 206.563 321.318 206.563L321.364 206.638ZM242.507 150.526C242.507 147.858 245.235 145.25 250.043 143.351C256.464 140.789 266.11 139.493 278.68 139.493H280.76H282.734H283.262C300.323 139.493 310.18 143.216 313.948 146.878C314.091 147.001 314.227 147.132 314.355 147.27C314.785 147.668 315.127 148.151 315.36 148.688C315.594 149.225 315.713 149.804 315.712 150.39C315.712 150.48 315.712 150.556 315.712 150.631C315.664 150.888 315.594 151.14 315.501 151.385C315.409 151.651 315.282 151.905 315.124 152.138C313.972 153.746 312.411 155.015 310.602 155.816L309.306 156.449C308.839 156.66 308.356 156.871 307.799 157.067C300.986 159.75 290.436 161.498 278.755 161.498C273.151 161.513 267.553 161.161 261.995 160.443C252.048 159.132 245.13 155.183 243.095 152.138C242.924 151.908 242.787 151.654 242.688 151.385C242.578 151.146 242.507 150.892 242.477 150.631C242.477 150.631 242.507 150.571 242.507 150.526ZM325.403 207.678H325.704C326.187 207.573 326.654 207.437 327.211 207.302C328.128 207.05 329.029 206.742 329.909 206.382L330.603 206.035L331.206 205.749H331.296C334.99 203.846 338.064 200.928 340.158 197.339C341.56 197.249 343.173 197.113 345.494 196.872C346.327 196.773 347.146 196.581 347.935 196.299C350.04 196.596 352.078 197.248 353.964 198.228C354.205 198.364 354.431 198.454 354.657 198.59C355.681 199.375 356.452 200.443 356.873 201.663C357.293 202.882 357.346 204.199 357.024 205.448C356.854 206.299 356.506 207.105 356.002 207.811C355.498 208.518 354.849 209.11 354.1 209.547H353.964C353.701 209.695 353.423 209.816 353.135 209.909C352.68 210.065 352.21 210.176 351.734 210.241H351.643C348.114 210.735 344.548 210.916 340.987 210.783C338.968 210.783 336.27 210.783 332.14 210.783C331.869 210.783 331.628 210.783 331.371 210.783L330.618 210.678C328.926 210.459 327.344 209.716 326.096 208.552C325.9 208.372 325.734 208.176 325.554 207.98C325.475 207.896 325.423 207.791 325.403 207.678ZM345.735 195.199L345.283 195.274C343.489 195.47 342.118 195.606 340.927 195.681H340.43H322.72C321.812 195.626 320.913 195.475 320.037 195.229C319.37 195.045 318.724 194.792 318.108 194.475C317.771 194.311 317.449 194.12 317.143 193.903C316.887 193.722 316.646 193.526 316.42 193.33C316.155 193.103 315.908 192.856 315.681 192.591C314.327 191.028 313.564 189.038 313.526 186.969C313.502 185.737 313.706 184.51 314.129 183.352L314.461 183.081C314.461 183.081 314.958 182.719 315.697 182.252L316.45 181.815L317.204 181.423C317.661 181.19 318.135 180.988 318.62 180.82L319.359 180.564L320.188 180.323C320.891 180.104 321.612 179.947 322.343 179.856H324.89H326.021V180.534V181.287H327.528H328.447H329.352C333.158 181.018 336.98 181.073 340.776 181.453L341.59 181.544L342.404 181.709C344.576 182.068 346.677 182.77 348.629 183.789C349.585 184.415 350.353 185.29 350.85 186.319C351.347 187.348 351.555 188.493 351.451 189.632C351.347 190.77 350.936 191.858 350.261 192.781C349.586 193.703 348.672 194.424 347.619 194.867C347.005 195.048 346.373 195.159 345.735 195.199ZM347.106 173.691L338.832 173.525C337.504 171.72 335.908 170.129 334.099 168.808C338.151 171.088 342.527 172.735 347.076 173.691H347.106Z" fill="#2B266D"/>
<path d="M338.197 236.24C340.985 236.24 343.005 236.24 344.588 236.24C348.148 236.386 351.715 236.21 355.243 235.712C356.547 235.595 357.778 235.056 358.748 234.178C359.719 233.3 360.377 232.13 360.624 230.844C360.948 229.595 360.897 228.278 360.476 227.058C360.055 225.838 359.283 224.77 358.258 223.986C357.729 223.674 357.18 223.397 356.615 223.157C355.429 224.146 353.976 224.76 352.44 224.921C349.788 225.294 347.115 225.491 344.437 225.508H341.588C339.765 225.508 337.383 225.508 333.902 225.508H332.741H332.394C330.661 225.451 328.966 224.98 327.451 224.137C327.179 225.205 327.047 226.305 327.059 227.408C327.164 231.522 329.425 235.968 335.454 236.285H335.74H338.197V236.24Z" fill="#FF5787"/>
<path d="M327.286 222.178L327.934 222.63C329.233 223.395 330.695 223.839 332.2 223.926H332.742H333.677C337.264 223.926 339.705 223.926 341.559 223.926C345.115 224.073 348.676 223.896 352.2 223.399C353.156 223.294 354.077 222.981 354.898 222.479C355.164 222.32 355.416 222.138 355.652 221.937C356.626 221.03 357.299 219.847 357.581 218.546C357.905 217.297 357.853 215.98 357.432 214.76C357.012 213.54 356.24 212.471 355.214 211.688C354.807 211.445 354.384 211.229 353.948 211.04H353.858C353.17 211.31 352.451 211.493 351.718 211.582C349.066 211.956 346.392 212.153 343.715 212.17H340.866C338.861 212.17 336.209 212.17 332.139 212.17H332.019H331.371H330.617C328.616 211.919 326.742 211.056 325.251 209.698C324.427 211.365 324.019 213.206 324.061 215.064C324.078 215.508 324.119 215.951 324.181 216.39C324.413 218.379 325.299 220.234 326.698 221.666L327.286 222.178Z" fill="#FF5787"/>
<path d="M330.543 210.527L331.296 210.633C331.552 210.633 331.793 210.633 332.065 210.633C336.195 210.633 338.892 210.633 340.912 210.633C344.473 210.766 348.039 210.584 351.568 210.09H351.658C352.135 210.026 352.605 209.915 353.06 209.759C353.348 209.666 353.625 209.545 353.889 209.397H354.025C354.774 208.959 355.423 208.368 355.927 207.661C356.431 206.954 356.779 206.149 356.949 205.297C357.271 204.048 357.218 202.732 356.797 201.512C356.377 200.293 355.606 199.224 354.582 198.44C354.356 198.304 354.13 198.214 353.889 198.078C352.003 197.098 349.965 196.446 347.86 196.149C347.07 196.431 346.251 196.623 345.419 196.721C343.128 196.963 341.485 197.098 340.083 197.189C337.989 200.778 334.915 203.696 331.221 205.599H331.13L330.527 205.885L329.834 206.232C328.954 206.592 328.053 206.899 327.136 207.151C326.654 207.287 326.187 207.422 325.629 207.528H325.328C325.359 207.585 325.4 207.635 325.448 207.679C325.629 207.875 325.795 208.071 325.991 208.251C327.227 209.475 328.822 210.273 330.543 210.527Z" fill="#FF5787"/>
<path d="M435.787 204.182C437.416 204.185 439.009 203.705 440.365 202.802C441.721 201.899 442.778 200.614 443.402 199.109C444.027 197.605 444.191 195.949 443.874 194.351C443.557 192.754 442.773 191.286 441.621 190.134C440.47 188.982 439.002 188.198 437.404 187.881C435.807 187.564 434.151 187.728 432.646 188.353C431.142 188.978 429.857 190.035 428.954 191.391C428.051 192.746 427.57 194.339 427.573 195.968C427.577 198.146 428.444 200.233 429.984 201.772C431.523 203.312 433.61 204.178 435.787 204.182ZM435.787 189.246C437.118 189.243 438.419 189.635 439.526 190.372C440.634 191.108 441.497 192.157 442.009 193.385C442.52 194.613 442.655 195.965 442.397 197.27C442.14 198.575 441.501 199.774 440.561 200.716C439.622 201.658 438.424 202.299 437.119 202.56C435.815 202.821 434.463 202.688 433.234 202.18C432.004 201.672 430.954 200.81 430.214 199.704C429.475 198.599 429.08 197.298 429.08 195.968C429.08 194.188 429.787 192.481 431.044 191.22C432.301 189.96 434.007 189.25 435.787 189.246Z" fill="#2B266D"/>
<path d="M243.138 152.2C245.172 155.214 252.09 159.193 262.038 160.504C267.595 161.222 273.194 161.574 278.798 161.559C290.479 161.559 301.029 159.811 307.841 157.128C308.354 156.932 308.836 156.721 309.349 156.51L310.645 155.877C312.453 155.077 314.014 153.807 315.166 152.2C315.325 151.966 315.451 151.713 315.543 151.446C315.636 151.202 315.707 150.949 315.754 150.692C315.754 150.692 315.754 150.542 315.754 150.451C315.756 149.866 315.636 149.286 315.403 148.749C315.169 148.212 314.827 147.729 314.398 147.331C314.27 147.193 314.134 147.062 313.991 146.939C310.223 143.277 300.426 139.554 283.304 139.554H282.777H280.802H278.722C266.107 139.554 256.461 140.85 250.086 143.413C245.338 145.312 242.55 147.934 242.55 150.587C242.55 150.587 242.55 150.707 242.55 150.753C242.58 151.013 242.651 151.268 242.761 151.506C242.855 151.753 242.982 151.986 243.138 152.2ZM247.418 150.3C247.418 145.357 263.424 142.689 278.496 142.689C279.632 142.689 280.747 142.689 281.842 142.689C295.407 143.021 310.072 145.538 310.072 150.225C310.08 150.356 310.08 150.486 310.072 150.617C310.022 150.883 309.925 151.138 309.786 151.371C309.637 151.647 309.449 151.901 309.228 152.124C308.557 152.781 307.777 153.317 306.922 153.707L306.651 153.842L305.656 154.249L305.46 154.325L304.706 154.581L303.742 154.882C298.329 156.369 292.769 157.254 287.163 157.52L285.309 157.625H284.344C283.38 157.625 282.415 157.716 281.33 157.731H278.315H275.196C274.005 157.731 272.859 157.641 271.744 157.565C269.287 157.445 266.876 157.279 264.585 157.007C260.244 156.495 251.02 155.093 248.262 152.049C248.05 151.822 247.868 151.568 247.719 151.295C247.596 151.059 247.51 150.804 247.463 150.542C247.445 150.462 247.43 150.381 247.418 150.3Z" fill="#C5F6E6"/>
<path d="M250.783 152.199C251.054 152.35 251.356 152.5 251.687 152.651C251.853 152.561 252.155 152.395 252.577 152.199C252.999 152.003 253.677 151.732 254.476 151.445C255.274 151.159 255.983 150.963 256.962 150.692C264.105 149.002 271.434 148.237 278.772 148.416C290.06 148.416 296.858 149.546 300.731 150.692C301.5 150.918 302.239 151.144 302.736 151.37H302.932C303.488 151.59 304.032 151.842 304.56 152.124C304.881 152.296 305.188 152.492 305.479 152.711L305.841 152.546L306.685 152.124C307.092 151.921 307.471 151.667 307.815 151.37C308.078 151.171 308.289 150.913 308.433 150.616C308.498 150.496 308.534 150.362 308.539 150.225C308.539 148.883 305.524 147.376 300.249 146.2H300.113C294.076 144.957 287.935 144.285 281.771 144.196C280.686 144.196 279.585 144.196 278.47 144.196C260.143 144.196 248.899 147.753 248.899 150.3C248.9 150.436 248.931 150.569 248.989 150.692C249.133 150.988 249.345 151.246 249.607 151.445C249.961 151.751 250.357 152.005 250.783 152.199Z" fill="#C5F6E6"/>
<path d="M248.28 152.199C251.098 155.214 260.262 156.721 264.603 157.158C266.894 157.429 269.305 157.595 271.762 157.716C272.877 157.791 274.023 157.836 275.213 157.881H278.333H281.348C282.373 157.881 283.337 157.881 284.362 157.776H285.327L287.181 157.67C292.787 157.404 298.347 156.52 303.76 155.033L304.724 154.731L305.478 154.475L305.674 154.4L306.669 153.993L306.94 153.857C307.794 153.467 308.575 152.932 309.246 152.275C309.467 152.052 309.655 151.798 309.804 151.521C309.943 151.289 310.04 151.034 310.09 150.767C310.098 150.637 310.098 150.506 310.09 150.376C310.09 145.658 295.455 143.141 281.86 142.84C280.765 142.84 279.65 142.84 278.514 142.84C263.442 142.84 247.436 145.507 247.436 150.451C247.427 150.581 247.427 150.712 247.436 150.843C247.482 151.106 247.569 151.36 247.692 151.596C247.864 151.819 248.061 152.022 248.28 152.199ZM248.928 150.3C248.928 147.753 260.172 144.196 278.499 144.196C279.614 144.196 280.715 144.196 281.8 144.196C287.963 144.286 294.105 144.957 300.142 146.201H300.278C305.493 147.376 308.568 148.883 308.568 150.225C308.563 150.362 308.527 150.496 308.462 150.617C308.318 150.913 308.107 151.171 307.844 151.37C307.5 151.668 307.121 151.921 306.714 152.124L305.87 152.546L305.508 152.712C305.217 152.493 304.91 152.296 304.589 152.124C304.061 151.842 303.517 151.591 302.961 151.37H302.765C302.192 151.144 301.529 150.918 300.76 150.692C296.827 149.547 290.089 148.416 278.801 148.416C271.463 148.237 264.134 149.002 256.991 150.692C256.027 150.963 255.198 151.205 254.505 151.446C253.811 151.687 252.997 151.988 252.605 152.199C252.214 152.41 251.882 152.561 251.716 152.651C251.385 152.501 251.083 152.35 250.812 152.199C250.407 152 250.032 151.747 249.697 151.446C249.434 151.247 249.223 150.988 249.079 150.692C248.999 150.575 248.948 150.441 248.928 150.3Z" fill="#2B266D"/>
<path d="M324.499 206.292C325.132 206.187 325.765 206.066 326.383 205.9C327.415 205.637 328.423 205.289 329.398 204.86L330.076 204.544L330.272 204.438L330.769 204.212L331.493 203.79C331.46 203.133 331.293 202.489 331.003 201.898C330.713 201.307 330.305 200.782 329.805 200.354C329.567 200.134 329.31 199.938 329.036 199.766C328.891 199.667 328.74 199.576 328.584 199.495C327.127 198.764 325.615 198.149 324.062 197.656L323.324 197.43L322.691 197.249H322.585C320.93 197.17 319.304 196.782 317.792 196.104H317.627H310.603V194.596H315.396C314.337 193.647 313.489 192.485 312.908 191.187C312.326 189.889 312.024 188.483 312.02 187.06C311.945 184.602 312.67 182.185 314.085 180.173C314.481 179.454 314.99 178.802 315.592 178.243H310.603V176.736H318.998C319.322 176.688 319.65 176.662 319.978 176.661H320.596C321.078 176.661 321.53 176.691 321.952 176.751C322.352 176.796 322.75 176.861 323.143 176.947C323.469 177.016 323.791 177.102 324.107 177.203C325.654 177.63 327.069 178.439 328.222 179.555H329.353C333.017 179.313 336.695 179.344 340.355 179.645C339.788 178.046 339.018 176.527 338.064 175.124C337.898 174.867 337.687 174.626 337.506 174.37C337.326 174.114 337.13 173.857 336.934 173.616C335.043 171.302 332.661 169.438 329.96 168.158C327.259 166.878 324.308 166.214 321.319 166.216H310.603V164.709H315.697V153.932C314.264 155.489 312.532 156.74 310.603 157.61L309.488 158.137L308.885 158.394C301.922 161.318 291.16 163.141 278.741 163.141C273.067 163.156 267.398 162.803 261.77 162.086C252.425 160.85 245.387 157.384 242.448 153.947V191.853C242.451 199.877 245.093 207.676 249.965 214.051C254.837 220.425 261.67 225.021 269.411 227.13C277.152 229.239 285.372 228.745 292.804 225.723C300.237 222.701 306.47 217.319 310.543 210.407C310.985 209.673 311.392 208.92 311.764 208.146H310.543V206.639H321.319C321.862 206.639 322.404 206.639 322.947 206.639L323.746 206.564L324.499 206.292Z" fill="#C5F6E6"/>
<path d="M351.399 190.105C351.683 188.868 351.574 187.573 351.088 186.4C350.601 185.228 349.762 184.236 348.686 183.563C346.734 182.545 344.633 181.843 342.461 181.483L341.647 181.318L340.833 181.227C337.037 180.847 333.215 180.792 329.409 181.061H328.504H327.585H326.078V180.308V179.63H324.947H322.4C321.669 179.722 320.948 179.878 320.245 180.097L319.416 180.338L318.677 180.594C318.192 180.762 317.718 180.964 317.261 181.197L316.507 181.589L315.753 182.026C315.015 182.493 314.533 182.855 314.518 182.855L314.186 183.126C313.763 184.284 313.559 185.511 313.583 186.744C313.621 188.812 314.384 190.802 315.738 192.365C315.965 192.63 316.212 192.877 316.477 193.104C316.703 193.3 316.944 193.496 317.2 193.677C317.506 193.894 317.828 194.085 318.165 194.249C318.78 194.566 319.427 194.819 320.094 195.003C320.97 195.249 321.869 195.4 322.777 195.455H340.456H340.954C342.144 195.455 343.516 195.244 345.31 195.048L345.762 194.973C346.439 194.872 347.102 194.69 347.736 194.43C348.649 194.057 349.459 193.469 350.097 192.716C350.735 191.963 351.181 191.067 351.399 190.105Z" fill="#FF5787"/>
<path d="M285.857 114.519C287.012 116.457 287.846 118.569 288.329 120.774C288.599 122.487 288.437 124.24 287.858 125.874C287.279 127.509 286.301 128.973 285.013 130.133L286.008 131.264C287.48 129.926 288.599 128.245 289.265 126.37C289.93 124.495 290.121 122.484 289.821 120.517C289.298 118.176 288.408 115.933 287.183 113.871C286.348 112.376 285.642 110.813 285.073 109.198C284.47 107.286 284.29 105.265 284.546 103.275C284.711 101.979 285.375 98.7536 287.922 97.4574L287.213 96.1311C286.018 96.8754 285.017 97.8939 284.293 99.1023C283.57 100.311 283.145 101.674 283.053 103.079C282.772 105.286 282.973 107.528 283.641 109.651C284.229 111.338 284.97 112.968 285.857 114.519Z" fill="#2B266D"/>
<path d="M274.569 114.519C275.722 116.46 276.562 118.571 277.056 120.774C277.325 122.488 277.16 124.242 276.579 125.876C275.997 127.511 275.016 128.974 273.725 130.133L274.72 131.264C276.193 129.926 277.312 128.245 277.977 126.37C278.643 124.495 278.834 122.484 278.533 120.517C278.009 118.179 277.124 115.937 275.911 113.871C275.065 112.379 274.354 110.816 273.786 109.198C273.195 107.283 273.02 105.264 273.273 103.275C273.439 101.979 274.102 98.7536 276.634 97.4574L275.926 96.1311C274.733 96.8782 273.734 97.8974 273.011 99.1051C272.288 100.313 271.861 101.675 271.766 103.079C271.492 105.287 271.692 107.527 272.354 109.651C272.947 111.335 273.689 112.965 274.569 114.519Z" fill="#2B266D"/>
</svg>
