<svg width="800" height="400" viewBox="0 0 800 400" fill="none" xmlns="http://www.w3.org/2000/svg">
<path d="M519.153 57.8474C496.545 63.6954 480.839 85.2333 480.839 110.328V314.871L557.511 324.125V110.328C557.511 85.2182 541.746 63.6652 519.153 57.8474Z" fill="#7169EA"/>
<path d="M480.119 316.303L479.863 316.348L459.741 321.276L459.998 321.352L557.514 343.176V325.647L480.119 316.303Z" fill="white"/>
<path d="M519.441 56.3556H519.365C518.446 56.1295 517.527 55.9185 516.577 55.7376H516.381C515.537 55.5718 514.678 55.4362 513.819 55.3307H513.382C512.598 55.2252 511.875 55.1498 511 55.0895H510.413C501.653 54.5552 492.914 56.4207 485.137 60.4853C484.022 61.058 482.861 61.7363 481.58 62.5351C465.784 72.4525 455.957 90.8404 455.957 110.494V321.503C455.954 321.675 456.011 321.843 456.118 321.978C456.225 322.113 456.376 322.206 456.545 322.241L459.56 322.935L463.117 323.899L558.07 345H558.221C558.396 345 558.566 344.942 558.703 344.834C558.79 344.763 558.858 344.673 558.905 344.571C558.952 344.469 558.976 344.358 558.975 344.246V110.329C559.02 84.495 542.742 62.3241 519.441 56.3556ZM557.513 324.125L480.841 314.871V110.329C480.841 85.2336 496.592 63.6956 519.154 57.8477C541.762 63.6655 557.513 85.2185 557.513 110.329V324.125ZM459.997 321.352L459.741 321.277L479.877 316.348H480.133L557.528 325.693V343.221L459.997 321.352Z" fill="#2B266D"/>
<path d="M395.696 226.279C395.922 225.917 396.133 225.556 396.344 225.194L396.977 224.048C401.298 215.352 403.791 205.862 404.302 196.165C404.166 190.543 403.925 185.615 403.609 181.832C403.609 181.319 403.518 180.852 403.473 180.324C403.428 179.797 403.398 179.586 403.352 179.239C403.307 178.893 403.232 178.29 403.172 177.883C393.963 177.672 393.827 177.235 393.676 176.782C389.727 164.348 374.339 161.891 360.759 159.706C358.408 159.329 356.117 158.967 353.901 158.545C348.264 157.49 343.351 156.149 340.095 153.677C335.272 149.939 331.293 151.326 329.364 153.677C327.088 156.39 326.922 161.092 331.037 164.815C336.779 170.015 346.26 172.351 353.901 173.376C356.478 173.723 358.83 173.934 360.774 174.054L366.064 174.205V175.712C365.778 175.712 363.457 175.712 360.035 175.547L353.886 175.381C349.711 175.29 344.843 175.185 339.824 175.125C340.744 176.624 341.483 178.228 342.024 179.902C344.592 180.278 347.079 181.083 349.38 182.284C350.45 182.954 351.342 183.875 351.978 184.966C352.614 186.058 352.975 187.288 353.03 188.55C353.085 189.813 352.832 191.069 352.293 192.212C351.755 193.355 350.946 194.349 349.937 195.11C351.298 195.427 352.622 195.886 353.886 196.482C354.383 196.723 354.881 196.949 355.393 197.235C356.685 198.184 357.662 199.498 358.199 201.008C358.737 202.518 358.809 204.154 358.408 205.706C358.048 207.516 357.027 209.128 355.544 210.227L356.026 210.484C357.749 211.826 358.883 213.785 359.189 215.947C359.496 218.109 358.951 220.306 357.669 222.074C358.121 222.3 358.573 222.496 359.011 222.767C360.305 223.71 361.286 225.021 361.824 226.529C362.362 228.038 362.432 229.674 362.025 231.223C361.824 232.298 361.386 233.315 360.742 234.199C360.098 235.083 359.264 235.812 358.302 236.332C362.824 236.196 368.069 236.211 372.771 236.227C377.474 236.242 381.724 236.227 384.558 236.136H386.743C390.387 233.516 393.437 230.157 395.696 226.279ZM360.156 191.01L361.558 190.468C364.738 198.727 377.097 209.941 391.853 209.564V211.071H391.069C375.876 211.071 363.427 199.541 360.156 191.01Z" fill="#FF5787"/>
<path d="M391.897 211.07V209.563C377.142 209.94 364.768 198.726 361.603 190.467L360.201 191.009C363.471 199.54 375.981 211.07 391.159 211.07H391.897Z" fill="#2B266D"/>
<path d="M514.68 262.029L515.916 261.653C516.082 261.653 531.169 256.905 539.459 244.772L539.986 243.973L540.484 243.174C541.252 241.899 541.927 240.569 542.503 239.195C544.792 233.626 546.446 227.817 547.432 221.877C547.703 220.295 547.929 218.712 548.125 217.145C548.442 214.492 548.653 211.87 548.773 209.322C549.012 204.264 548.952 199.196 548.592 194.145C548.366 191.025 548.065 188.116 547.718 185.644C547.462 183.685 547.191 181.921 546.919 180.399C546.919 180.098 546.829 179.826 546.769 179.54C546.181 176.3 545.699 174.37 545.684 174.295V174.039L453.744 176.269L413.381 177.249L404.655 177.46C404.655 177.611 404.655 177.777 404.655 177.927C404.79 178.952 404.926 180.173 405.046 181.56C405.046 182.208 405.167 182.901 405.212 183.625C405.257 184.348 405.348 185.479 405.408 186.488C405.499 188.146 405.574 189.925 405.649 191.794C405.649 191.929 405.649 192.08 405.649 192.216C405.649 193.406 405.74 194.642 405.77 195.923C406.101 208.192 406.041 223.566 405.589 236.256V236.422C405.589 236.663 405.589 236.919 405.589 237.176C405.589 237.432 405.589 237.507 405.589 237.673V237.914C405.589 238.2 405.589 238.472 405.589 238.758C405.455 245.281 404.917 251.79 403.976 258.246C403.788 259.234 403.41 260.176 402.861 261.02L404.805 261.125H405.996C429.132 262.391 453.85 262.225 479.939 262.029C489.224 262.029 498.644 261.894 508.094 261.894L514.68 262.029ZM435.793 187.739C437.422 187.736 439.014 188.216 440.369 189.119C441.725 190.021 442.782 191.305 443.407 192.809C444.032 194.312 444.197 195.968 443.881 197.565C443.566 199.162 442.783 200.63 441.633 201.782C440.482 202.935 439.016 203.72 437.419 204.039C435.823 204.357 434.167 204.195 432.663 203.573C431.158 202.951 429.872 201.896 428.967 200.542C428.062 199.189 427.579 197.597 427.579 195.969C427.583 193.79 428.449 191.701 429.988 190.159C431.528 188.617 433.615 187.747 435.793 187.739Z" fill="#FBC63C"/>
<path d="M435.789 202.676C439.493 202.676 442.496 199.673 442.496 195.969C442.496 192.265 439.493 189.262 435.789 189.262C432.085 189.262 429.082 192.265 429.082 195.969C429.082 199.673 432.085 202.676 435.789 202.676Z" fill="#FBC63C"/>
<path d="M558.387 172.365L557.226 172.456C557.087 172.327 556.903 172.257 556.714 172.26L403.733 175.968C403.625 175.976 403.521 176.006 403.425 176.055C403.329 176.104 403.244 176.172 403.175 176.254C403.135 176.296 403.109 176.348 403.1 176.405C400.397 176.415 397.695 176.284 395.006 176.013C390.605 162.991 374.885 160.459 361.003 158.243C358.562 157.851 356.18 157.459 353.905 157.022C348.584 156.012 343.927 154.746 341.033 152.501C335.728 148.386 330.769 149.622 328.207 152.681C325.645 155.741 325.192 161.544 330.03 165.9C330.645 166.438 331.289 166.941 331.96 167.407C328.715 165.567 325.049 164.601 321.319 164.603H317.204V150.647C317.204 150.647 317.204 150.647 317.204 150.556C317.264 149.219 316.811 147.909 315.938 146.894C315.791 146.678 315.629 146.471 315.456 146.276C310.723 141.076 298.696 138.001 283.247 138.001H282.855H280.775H278.665C265.854 138.001 256.057 139.343 249.425 141.965C242.085 144.889 241 148.597 241 150.541C241 150.541 241 150.662 241 150.707V191.793C241.003 199.94 243.618 207.871 248.461 214.421C253.304 220.972 260.12 225.797 267.907 228.188C275.695 230.579 284.044 230.411 291.728 227.707C299.413 225.003 306.028 219.906 310.603 213.165C311.703 211.551 312.676 209.852 313.512 208.086H321.319C322.125 208.087 322.93 208.042 323.73 207.951L324.167 208.538C323.047 210.543 322.49 212.814 322.555 215.11C322.568 215.538 322.603 215.966 322.66 216.391C322.931 219.004 324.167 221.423 326.127 223.173C325.715 224.536 325.516 225.955 325.539 227.378C325.66 232.036 328.388 237.552 335.713 237.763H337.868C339.915 238.394 342.068 238.604 344.198 238.381C344.53 238.381 349.006 238.245 356.256 237.929C361.215 237.718 367.409 237.733 372.835 237.748C377.462 237.748 381.878 237.748 384.697 237.658H386.475C386.822 237.853 387.44 237.869 391.901 237.793C393.273 237.793 395.051 237.793 396.679 237.793C396.965 241.817 397.146 245.329 397.297 248.208C397.749 256.693 397.975 261.064 400.146 262.315C400.21 262.39 400.288 262.451 400.376 262.495C400.464 262.539 400.56 262.565 400.658 262.572H400.748C401.081 262.67 401.426 262.721 401.773 262.722C402.054 262.738 402.336 262.738 402.617 262.722C426.733 264.229 452.551 264.018 479.862 263.807C497.044 263.687 514.603 263.566 532.086 263.883L558.522 264.832L558.387 172.365ZM406.024 261.23H404.833L402.889 261.125C403.437 260.282 403.816 259.34 404.004 258.351C404.944 251.895 405.483 245.386 405.617 238.863C405.617 238.577 405.617 238.306 405.617 238.019V237.778C405.617 237.612 405.617 237.446 405.617 237.281C405.617 237.115 405.617 236.768 405.617 236.527V236.361C406.069 223.671 406.129 208.297 405.798 196.029C405.798 194.747 405.798 193.512 405.677 192.321C405.677 192.185 405.677 192.034 405.677 191.899C405.677 190.03 405.526 188.251 405.436 186.593C405.436 185.584 405.315 184.634 405.24 183.73C405.165 182.825 405.134 182.313 405.074 181.665C404.954 180.278 404.818 179.057 404.682 178.033C404.682 177.882 404.682 177.716 404.682 177.565L413.409 177.354L453.772 176.375L545.711 174.144V174.4C545.711 174.476 546.209 176.405 546.796 179.645C546.796 179.932 546.902 180.203 546.947 180.504C547.218 182.012 547.49 183.79 547.746 185.749C548.093 188.282 548.394 191.13 548.62 194.25C548.98 199.301 549.04 204.369 548.801 209.428C548.68 211.975 548.469 214.597 548.153 217.25C547.957 218.757 547.731 220.4 547.46 221.983C546.473 227.922 544.82 233.731 542.531 239.3C541.955 240.674 541.28 242.004 540.511 243.279L540.014 244.078L539.486 244.877C531.197 256.935 516.11 261.712 515.944 261.758L514.708 262.134H508.076C498.626 262.134 489.206 262.21 479.922 262.27C453.802 262.33 429.084 262.451 406.024 261.23ZM372.865 236.226C368.163 236.226 362.933 236.226 358.396 236.331C359.358 235.811 360.192 235.082 360.836 234.198C361.48 233.314 361.918 232.297 362.119 231.222C362.526 229.673 362.455 228.037 361.918 226.528C361.38 225.02 360.399 223.709 359.104 222.766C358.667 222.495 358.215 222.299 357.763 222.073C359.045 220.305 359.59 218.108 359.283 215.946C358.977 213.784 357.843 211.825 356.12 210.483L355.638 210.226C357.121 209.127 358.142 207.515 358.502 205.705C358.903 204.153 358.831 202.517 358.293 201.007C357.756 199.497 356.779 198.183 355.487 197.234C355.005 196.948 354.507 196.722 353.98 196.481C352.716 195.885 351.392 195.426 350.031 195.109C351.04 194.348 351.848 193.354 352.387 192.211C352.926 191.068 353.179 189.812 353.124 188.549C353.069 187.287 352.708 186.057 352.072 184.966C351.436 183.874 350.544 182.953 349.473 182.283C347.173 181.082 344.686 180.277 342.118 179.901C341.577 178.227 340.838 176.623 339.918 175.124C344.922 175.124 349.805 175.289 353.98 175.38L360.129 175.546C363.521 175.757 365.842 175.727 366.158 175.711V174.204L360.868 174.054C358.924 173.933 356.572 173.722 353.995 173.375C346.353 172.335 336.873 170.014 331.131 164.814C327.016 161.092 327.182 156.389 329.458 153.676C331.387 151.37 335.366 149.983 340.189 153.676C343.384 156.148 348.358 157.489 353.995 158.544C356.211 158.966 358.517 159.328 360.853 159.705C374.418 161.89 389.821 164.347 393.77 176.782C393.921 177.234 394.056 177.671 403.265 177.882C403.265 178.289 403.386 178.756 403.446 179.238C403.507 179.721 403.522 179.947 403.567 180.323C403.612 180.7 403.657 181.258 403.703 181.831C404.019 185.569 404.26 190.542 404.396 196.164C403.885 205.861 401.392 215.351 397.071 224.047L396.438 225.193C396.227 225.555 396.016 225.916 395.79 226.278C393.541 230.141 390.506 233.489 386.882 236.105H384.697C381.773 236.256 377.387 236.241 372.865 236.226ZM335.487 236.226C329.458 235.909 327.197 231.463 327.091 227.348C327.079 226.246 327.211 225.146 327.483 224.078C328.999 224.921 330.693 225.391 332.427 225.449H332.774H333.934C337.416 225.449 339.797 225.449 341.621 225.449H344.469C347.147 225.432 349.821 225.235 352.473 224.861C354.009 224.701 355.462 224.087 356.648 223.098C357.213 223.338 357.762 223.615 358.291 223.927C359.316 224.71 360.088 225.779 360.509 226.999C360.93 228.219 360.981 229.536 360.657 230.785C360.41 232.07 359.752 233.241 358.781 234.119C357.81 234.997 356.58 235.536 355.276 235.653C351.747 236.15 348.181 236.327 344.62 236.18C343.113 236.18 341.018 236.18 338.23 236.18H335.728L335.487 236.226ZM324.107 215.125C324.065 213.266 324.474 211.425 325.298 209.759C326.808 211.062 328.68 211.872 330.664 212.08H331.417H332.065H332.171C336.24 212.08 338.893 212.08 340.897 212.08H343.746C346.424 212.063 349.098 211.866 351.749 211.492C352.483 211.403 353.202 211.22 353.89 210.95H353.98C354.415 211.139 354.838 211.355 355.246 211.598C356.272 212.381 357.043 213.45 357.464 214.67C357.885 215.89 357.937 217.207 357.612 218.456C357.331 219.757 356.658 220.94 355.683 221.847C355.447 222.048 355.195 222.23 354.929 222.39C354.109 222.891 353.188 223.204 352.232 223.309C348.708 223.806 345.146 223.983 341.591 223.836C339.722 223.836 337.295 223.836 333.708 223.836H332.728H332.186C330.681 223.749 329.219 223.305 327.92 222.54L327.272 222.088L326.684 221.561C325.285 220.129 324.399 218.274 324.167 216.285C324.113 215.875 324.078 215.463 324.062 215.049L324.107 215.125ZM321.364 206.639H310.603V208.146H311.823C311.452 208.92 311.045 209.674 310.603 210.407C306.53 217.32 300.297 222.701 292.864 225.723C285.432 228.745 277.212 229.24 269.471 227.13C261.73 225.021 254.897 220.425 250.024 214.051C245.152 207.676 242.511 199.877 242.507 191.854V153.932C245.522 157.369 252.485 160.835 261.83 162.071C267.458 162.788 273.127 163.141 278.801 163.126C291.16 163.126 301.921 161.303 308.945 158.379L309.548 158.122L310.663 157.595C312.569 156.722 314.28 155.477 315.697 153.932V164.724H310.603V166.231H321.319C324.299 166.217 327.245 166.864 329.945 168.125C332.645 169.386 335.032 171.231 336.933 173.526C337.129 173.767 337.31 174.023 337.506 174.28C337.702 174.536 337.898 174.777 338.064 175.033C339.018 176.436 339.788 177.956 340.355 179.555C336.695 179.253 333.017 179.223 329.352 179.464H328.222C327.077 178.321 325.662 177.486 324.107 177.038C323.79 176.936 323.468 176.85 323.143 176.782C322.749 176.696 322.352 176.63 321.952 176.586C321.53 176.586 321.078 176.555 320.595 176.495H319.977C319.649 176.497 319.322 176.522 318.998 176.571H310.603V178.078H315.697C315.095 178.637 314.587 179.288 314.19 180.007C312.696 182.06 311.932 184.554 312.019 187.091C312.023 188.513 312.326 189.919 312.907 191.217C313.489 192.516 314.337 193.677 315.396 194.627H310.603V196.134H317.641H317.807C319.319 196.812 320.945 197.2 322.6 197.28H322.705L323.339 197.46L324.077 197.686C325.63 198.18 327.142 198.794 328.599 199.525C328.755 199.607 328.905 199.697 329.051 199.797C329.325 199.968 329.582 200.165 329.819 200.384C330.32 200.812 330.728 201.338 331.018 201.928C331.308 202.519 331.475 203.163 331.508 203.821L330.784 204.243L330.287 204.469L330.091 204.574L329.413 204.891C328.438 205.32 327.43 205.667 326.398 205.931C325.78 206.097 325.147 206.217 324.514 206.323L323.761 206.443L322.962 206.519C322.404 206.534 321.861 206.564 321.319 206.564L321.364 206.639ZM242.507 150.526C242.507 147.858 245.235 145.251 250.043 143.352C256.464 140.79 266.11 139.493 278.68 139.493H280.76H282.734H283.262C300.324 139.493 310.181 143.216 313.949 146.879C314.092 147.002 314.227 147.132 314.356 147.271C314.785 147.669 315.127 148.151 315.361 148.688C315.594 149.225 315.714 149.805 315.712 150.39C315.712 150.481 315.712 150.556 315.712 150.632C315.665 150.889 315.594 151.141 315.501 151.385C315.409 151.652 315.282 151.905 315.124 152.139C313.972 153.746 312.411 155.016 310.603 155.816L309.306 156.449C308.839 156.66 308.357 156.871 307.799 157.067C300.987 159.75 290.436 161.499 278.755 161.499C273.152 161.514 267.553 161.161 261.995 160.443C252.048 159.132 245.13 155.183 243.095 152.139C242.924 151.908 242.787 151.654 242.688 151.385C242.578 151.147 242.507 150.892 242.477 150.632C242.477 150.632 242.507 150.571 242.507 150.526ZM325.403 207.679H325.705C326.187 207.574 326.654 207.438 327.212 207.302C328.129 207.05 329.03 206.743 329.91 206.383L330.603 206.036L331.206 205.75H331.297C334.991 203.847 338.065 200.929 340.159 197.34C341.561 197.249 343.173 197.114 345.494 196.873C346.327 196.774 347.146 196.582 347.936 196.3C350.04 196.597 352.079 197.249 353.965 198.229C354.206 198.365 354.432 198.455 354.658 198.591C355.682 199.375 356.453 200.444 356.873 201.664C357.294 202.883 357.347 204.199 357.024 205.449C356.855 206.3 356.507 207.106 356.003 207.812C355.498 208.519 354.85 209.111 354.101 209.548H353.965C353.701 209.696 353.424 209.817 353.136 209.91C352.681 210.066 352.211 210.177 351.734 210.241H351.644C348.115 210.736 344.549 210.917 340.988 210.784C338.968 210.784 336.27 210.784 332.141 210.784C331.869 210.784 331.628 210.784 331.372 210.784L330.618 210.679C328.926 210.46 327.345 209.717 326.097 208.553C325.901 208.373 325.735 208.177 325.554 207.981C325.476 207.897 325.423 207.792 325.403 207.679ZM345.736 195.2L345.283 195.275C343.49 195.471 342.118 195.607 340.928 195.682H340.43H322.721C321.813 195.627 320.913 195.476 320.038 195.23C319.37 195.045 318.724 194.793 318.109 194.476C317.772 194.312 317.449 194.121 317.144 193.903C316.888 193.723 316.647 193.527 316.42 193.331C316.156 193.104 315.909 192.857 315.682 192.592C314.327 191.028 313.564 189.039 313.527 186.97C313.502 185.738 313.707 184.511 314.129 183.353L314.461 183.082C314.461 183.082 314.958 182.72 315.697 182.253L316.451 181.816L317.204 181.424C317.662 181.19 318.135 180.989 318.621 180.821L319.359 180.565L320.188 180.323C320.892 180.105 321.613 179.948 322.344 179.856H324.891H326.021V180.534V181.288H327.529H328.448H329.352C333.158 181.018 336.98 181.074 340.777 181.454L341.591 181.544L342.405 181.71C344.577 182.069 346.678 182.771 348.629 183.79C349.586 184.416 350.353 185.291 350.85 186.32C351.348 187.349 351.555 188.494 351.452 189.632C351.348 190.771 350.936 191.859 350.261 192.781C349.586 193.704 348.673 194.425 347.62 194.868C347.006 195.049 346.374 195.16 345.736 195.2ZM347.107 173.692L338.833 173.526C337.505 171.721 335.909 170.13 334.1 168.808C338.151 171.089 342.528 172.735 347.077 173.692H347.107Z" fill="#2B266D"/>
<path d="M338.199 236.241C340.988 236.241 343.007 236.241 344.59 236.241C348.151 236.387 351.717 236.211 355.246 235.713C356.55 235.596 357.78 235.057 358.751 234.179C359.721 233.301 360.38 232.131 360.627 230.845C360.951 229.596 360.899 228.279 360.478 227.059C360.057 225.839 359.286 224.77 358.26 223.987C357.731 223.675 357.183 223.398 356.617 223.158C355.432 224.147 353.978 224.761 352.442 224.922C349.791 225.295 347.117 225.492 344.439 225.509H341.591C339.767 225.509 337.386 225.509 333.904 225.509H332.743H332.397C330.663 225.452 328.969 224.981 327.453 224.138C327.181 225.206 327.049 226.306 327.061 227.409C327.167 231.523 329.427 235.969 335.456 236.286H335.743H338.199V236.241Z" fill="#FF5787"/>
<path d="M327.288 222.179L327.936 222.632C329.235 223.396 330.697 223.84 332.202 223.928H332.744H333.679C337.266 223.928 339.708 223.928 341.562 223.928C345.117 224.074 348.679 223.897 352.202 223.4C353.158 223.296 354.079 222.982 354.9 222.481C355.166 222.321 355.418 222.139 355.654 221.938C356.628 221.032 357.302 219.848 357.583 218.547C357.907 217.298 357.856 215.981 357.435 214.761C357.014 213.541 356.242 212.473 355.217 211.689C354.809 211.446 354.386 211.23 353.951 211.041H353.86C353.173 211.312 352.454 211.494 351.72 211.584C349.068 211.958 346.395 212.154 343.717 212.172H340.868C338.864 212.172 336.211 212.172 332.141 212.172H332.021H331.373H330.619C328.619 211.92 326.745 211.057 325.254 209.7C324.429 211.366 324.021 213.207 324.063 215.065C324.081 215.509 324.121 215.952 324.183 216.392C324.415 218.38 325.301 220.236 326.7 221.667L327.288 222.179Z" fill="#FF5787"/>
<path d="M330.543 210.528L331.297 210.633C331.553 210.633 331.794 210.633 332.065 210.633C336.195 210.633 338.893 210.633 340.913 210.633C344.474 210.766 348.039 210.585 351.569 210.091H351.659C352.136 210.026 352.605 209.915 353.061 209.759C353.348 209.667 353.626 209.545 353.89 209.397H354.025C354.775 208.96 355.423 208.368 355.927 207.662C356.431 206.955 356.78 206.149 356.949 205.298C357.272 204.049 357.219 202.732 356.798 201.513C356.377 200.293 355.607 199.225 354.583 198.44C354.357 198.304 354.131 198.214 353.89 198.078C352.004 197.099 349.965 196.446 347.861 196.149C347.071 196.432 346.252 196.624 345.419 196.722C343.128 196.963 341.485 197.099 340.084 197.189C337.99 200.779 334.915 203.696 331.221 205.599H331.131L330.528 205.886L329.835 206.232C328.955 206.593 328.054 206.9 327.137 207.152C326.654 207.287 326.187 207.423 325.63 207.529H325.328C325.36 207.585 325.4 207.636 325.449 207.679C325.63 207.875 325.795 208.071 325.991 208.252C327.228 209.476 328.822 210.273 330.543 210.528Z" fill="#FF5787"/>
<path d="M435.789 204.183C437.418 204.186 439.011 203.706 440.367 202.803C441.723 201.9 442.78 200.614 443.404 199.11C444.029 197.606 444.193 195.95 443.876 194.352C443.559 192.754 442.775 191.287 441.623 190.135C440.472 188.983 439.004 188.199 437.406 187.882C435.808 187.565 434.153 187.729 432.648 188.354C431.144 188.979 429.859 190.036 428.956 191.391C428.053 192.747 427.572 194.34 427.575 195.969C427.579 198.146 428.446 200.233 429.985 201.773C431.525 203.313 433.612 204.179 435.789 204.183ZM435.789 189.247C437.119 189.244 438.421 189.636 439.528 190.372C440.635 191.109 441.499 192.158 442.011 193.386C442.522 194.614 442.657 195.966 442.399 197.271C442.142 198.576 441.503 199.775 440.563 200.717C439.624 201.659 438.426 202.3 437.121 202.561C435.817 202.821 434.465 202.689 433.235 202.181C432.006 201.673 430.956 200.811 430.216 199.705C429.477 198.599 429.082 197.299 429.082 195.969C429.082 194.189 429.788 192.481 431.046 191.221C432.303 189.961 434.009 189.251 435.789 189.247Z" fill="#2B266D"/>
<path d="M243.139 152.2C245.173 155.214 252.091 159.193 262.039 160.505C267.597 161.222 273.195 161.575 278.799 161.56C290.48 161.56 301.03 159.811 307.843 157.128C308.355 156.932 308.838 156.721 309.35 156.51L310.646 155.877C312.455 155.077 314.016 153.807 315.168 152.2C315.326 151.966 315.453 151.713 315.545 151.446C315.638 151.202 315.708 150.95 315.756 150.693C315.756 150.693 315.756 150.542 315.756 150.452C315.757 149.866 315.638 149.286 315.404 148.749C315.171 148.212 314.829 147.73 314.399 147.332C314.271 147.193 314.135 147.063 313.992 146.94C310.224 143.277 300.427 139.554 283.306 139.554H282.778H280.804H278.724C266.108 139.554 256.462 140.851 250.087 143.413C245.339 145.312 242.551 147.934 242.551 150.587C242.551 150.587 242.551 150.708 242.551 150.753C242.581 151.014 242.652 151.268 242.762 151.507C242.856 151.753 242.983 151.986 243.139 152.2ZM247.419 150.301C247.419 145.357 263.426 142.689 278.498 142.689C279.633 142.689 280.748 142.689 281.844 142.689C295.408 143.021 310.073 145.538 310.073 150.225C310.082 150.356 310.082 150.487 310.073 150.617C310.023 150.883 309.926 151.139 309.787 151.371C309.639 151.648 309.451 151.902 309.229 152.125C308.558 152.782 307.778 153.317 306.923 153.707L306.652 153.843L305.657 154.25L305.461 154.325L304.708 154.581L303.743 154.883C298.331 156.37 292.771 157.254 287.164 157.52L285.31 157.626H284.346C283.381 157.626 282.416 157.716 281.331 157.731H278.317H275.197C274.006 157.731 272.861 157.641 271.745 157.566C269.289 157.445 266.877 157.279 264.586 157.008C260.245 156.495 251.021 155.094 248.263 152.049C248.051 151.822 247.869 151.569 247.72 151.296C247.597 151.059 247.511 150.805 247.464 150.542C247.446 150.462 247.431 150.382 247.419 150.301Z" fill="#2DC495"/>
<path d="M250.782 152.2C251.053 152.351 251.355 152.501 251.687 152.652C251.852 152.562 252.154 152.396 252.576 152.2C252.998 152.004 253.676 151.733 254.475 151.446C255.274 151.16 255.982 150.964 256.962 150.693C264.104 149.002 271.434 148.237 278.771 148.417C290.06 148.417 296.857 149.547 300.731 150.693C301.5 150.919 302.238 151.145 302.735 151.371H302.931C303.488 151.591 304.031 151.843 304.559 152.124C304.88 152.297 305.188 152.493 305.479 152.712L305.84 152.546L306.684 152.124C307.091 151.921 307.471 151.668 307.815 151.371C308.077 151.172 308.289 150.914 308.433 150.617C308.498 150.496 308.534 150.362 308.538 150.225C308.538 148.884 305.524 147.377 300.249 146.201H300.113C294.075 144.957 287.934 144.286 281.77 144.197C280.685 144.197 279.585 144.197 278.47 144.197C260.142 144.197 248.898 147.754 248.898 150.301C248.9 150.436 248.93 150.57 248.989 150.693C249.133 150.989 249.344 151.247 249.607 151.446C249.961 151.752 250.357 152.006 250.782 152.2Z" fill="#2DC495"/>
<path d="M248.282 152.2C251.101 155.214 260.264 156.721 264.605 157.159C266.896 157.43 269.308 157.596 271.764 157.716C272.88 157.792 274.025 157.837 275.216 157.882H278.336H281.35C282.375 157.882 283.34 157.882 284.364 157.776H285.329L287.183 157.671C292.79 157.405 298.35 156.52 303.762 155.033L304.727 154.732L305.48 154.476L305.676 154.4L306.671 153.993L306.942 153.858C307.797 153.468 308.577 152.932 309.248 152.275C309.47 152.052 309.658 151.798 309.806 151.522C309.945 151.289 310.042 151.034 310.092 150.768C310.101 150.637 310.101 150.507 310.092 150.376C310.092 145.659 295.458 143.142 281.863 142.84C280.767 142.84 279.652 142.84 278.517 142.84C263.445 142.84 247.438 145.508 247.438 150.451C247.43 150.582 247.43 150.713 247.438 150.843C247.485 151.106 247.571 151.36 247.694 151.597C247.866 151.82 248.064 152.022 248.282 152.2ZM248.93 150.301C248.93 147.754 260.174 144.197 278.501 144.197C279.617 144.197 280.717 144.197 281.802 144.197C287.966 144.286 294.107 144.957 300.145 146.201H300.281C305.495 147.377 308.57 148.884 308.57 150.225C308.566 150.362 308.53 150.497 308.465 150.617C308.321 150.914 308.109 151.172 307.847 151.371C307.503 151.668 307.123 151.921 306.716 152.124L305.872 152.546L305.511 152.712C305.22 152.493 304.912 152.297 304.591 152.124C304.063 151.843 303.52 151.591 302.963 151.371H302.767C302.195 151.145 301.532 150.919 300.763 150.693C296.829 149.547 290.092 148.417 278.803 148.417C271.466 148.238 264.136 149.002 256.994 150.693C256.029 150.964 255.2 151.205 254.507 151.446C253.813 151.687 253 151.989 252.608 152.2C252.216 152.411 251.884 152.562 251.718 152.652C251.387 152.501 251.085 152.351 250.814 152.2C250.41 152.001 250.034 151.747 249.699 151.446C249.436 151.247 249.225 150.989 249.081 150.693C249.002 150.575 248.95 150.441 248.93 150.301Z" fill="#2B266D"/>
<path d="M324.502 206.293C325.135 206.188 325.768 206.067 326.386 205.901C327.417 205.638 328.426 205.29 329.4 204.861L330.078 204.545L330.274 204.439L330.772 204.213L331.495 203.791C331.462 203.134 331.296 202.49 331.006 201.899C330.715 201.308 330.308 200.783 329.807 200.355C329.57 200.135 329.313 199.939 329.039 199.767C328.893 199.668 328.742 199.577 328.586 199.496C327.13 198.765 325.618 198.15 324.065 197.657L323.326 197.431L322.693 197.25H322.588C320.933 197.171 319.307 196.783 317.795 196.105H317.629H310.605V194.597H315.398C314.339 193.648 313.492 192.486 312.91 191.188C312.328 189.89 312.026 188.484 312.022 187.061C311.948 184.603 312.672 182.186 314.087 180.174C314.484 179.454 314.993 178.803 315.594 178.244H310.605V176.737H319.001C319.325 176.688 319.652 176.663 319.98 176.662H320.598C321.08 176.662 321.533 176.692 321.955 176.752C322.355 176.797 322.752 176.862 323.145 176.948C323.471 177.017 323.793 177.103 324.11 177.204C325.657 177.631 327.071 178.44 328.225 179.556H329.355C333.02 179.314 336.697 179.344 340.358 179.646C339.79 178.047 339.02 176.527 338.067 175.124C337.901 174.868 337.69 174.627 337.509 174.371C337.328 174.115 337.132 173.858 336.936 173.617C335.045 171.303 332.663 169.438 329.962 168.158C327.262 166.878 324.31 166.215 321.322 166.217H310.605V164.71H315.7V153.933C314.267 155.49 312.534 156.74 310.605 157.611L309.49 158.138L308.887 158.394C301.924 161.318 291.163 163.142 278.743 163.142C273.069 163.156 267.4 162.804 261.772 162.087C252.427 160.851 245.389 157.385 242.45 153.948V191.854C242.453 199.878 245.095 207.677 249.967 214.052C254.839 220.426 261.672 225.022 269.413 227.131C277.154 229.24 285.374 228.746 292.807 225.724C300.239 222.702 306.472 217.321 310.545 210.408C310.987 209.674 311.394 208.921 311.766 208.147H310.545V206.64H321.322C321.864 206.64 322.407 206.64 322.949 206.64L323.748 206.565L324.502 206.293Z" fill="#2DC495"/>
<path d="M351.399 190.105C351.683 188.868 351.574 187.574 351.088 186.401C350.602 185.229 349.762 184.237 348.686 183.564C346.735 182.545 344.633 181.843 342.461 181.484L341.647 181.318L340.834 181.228C337.037 180.848 333.215 180.792 329.409 181.062H328.505H327.585H326.078V180.309V179.63H324.948H322.4C321.67 179.722 320.948 179.879 320.245 180.098L319.416 180.339L318.678 180.595C318.192 180.763 317.719 180.964 317.261 181.198L316.507 181.59L315.754 182.027C315.015 182.494 314.533 182.856 314.518 182.856L314.186 183.127C313.764 184.285 313.559 185.512 313.583 186.744C313.621 188.813 314.384 190.803 315.739 192.366C315.966 192.631 316.213 192.878 316.477 193.105C316.703 193.301 316.944 193.497 317.201 193.677C317.506 193.895 317.828 194.086 318.165 194.25C318.781 194.567 319.427 194.82 320.094 195.004C320.97 195.25 321.869 195.401 322.777 195.456H340.457H340.954C342.145 195.456 343.516 195.245 345.31 195.049L345.762 194.974C346.44 194.873 347.103 194.691 347.737 194.431C348.65 194.058 349.46 193.47 350.097 192.717C350.735 191.964 351.182 191.068 351.399 190.105Z" fill="#FF5787"/>
<path d="M285.857 114.519C287.012 116.458 287.847 118.57 288.329 120.774C288.599 122.487 288.438 124.24 287.858 125.875C287.279 127.509 286.301 128.973 285.013 130.134L286.008 131.265C287.481 129.927 288.6 128.246 289.265 126.371C289.931 124.495 290.122 122.485 289.821 120.518C289.299 118.177 288.409 115.934 287.184 113.871C286.349 112.377 285.643 110.814 285.074 109.199C284.47 107.286 284.29 105.265 284.546 103.276C284.712 101.98 285.375 98.7541 287.922 97.4579L287.214 96.1316C286.018 96.8759 285.017 97.8944 284.294 99.1028C283.57 100.311 283.145 101.674 283.054 103.08C282.772 105.287 282.973 107.529 283.642 109.651C284.229 111.339 284.971 112.968 285.857 114.519Z" fill="#2B266D"/>
<path d="M274.567 114.519C275.72 116.461 276.559 118.571 277.054 120.774C277.322 122.488 277.158 124.242 276.576 125.877C275.994 127.512 275.014 128.975 273.723 130.134L274.717 131.265C276.19 129.927 277.309 128.246 277.975 126.371C278.64 124.495 278.831 122.485 278.531 120.518C278.007 118.18 277.122 115.937 275.908 113.871C275.063 112.38 274.351 110.816 273.783 109.199C273.192 107.284 273.017 105.264 273.271 103.276C273.436 101.98 274.1 98.7541 276.632 97.4579L275.923 96.1316C274.73 96.8787 273.731 97.8979 273.008 99.1056C272.285 100.313 271.858 101.675 271.763 103.08C271.489 105.287 271.69 107.528 272.351 109.651C272.945 111.336 273.686 112.965 274.567 114.519Z" fill="#2B266D"/>
<path d="M310.043 335.487L428.71 335.487" stroke="#2B266D" stroke-width="2.55882" stroke-miterlimit="10" stroke-linecap="round" stroke-linejoin="round"/>
<path d="M256.104 335.487L299.255 335.487" stroke="#2B266D" stroke-width="2.55882" stroke-miterlimit="10" stroke-linecap="round" stroke-linejoin="round"/>
</svg>
