<svg width="800" height="400" viewBox="0 0 800 400" fill="none" xmlns="http://www.w3.org/2000/svg">
<path d="M653.77 69.9901L653.22 69.6501L652.94 69.5001C649.48 67.5501 645.78 66.0601 641.94 65.0701L640.85 65.3901C640.59 65.3901 640.32 65.5101 640.06 65.6001C639.8 65.6901 639.25 65.8601 638.86 65.9901L638.09 66.2501L636.91 66.6901L636.17 66.9801C635.77 67.1401 635.39 67.3101 635.01 67.4901L634.29 67.7901L633.14 68.3501L632.45 68.6801L631.31 69.3001C631.09 69.4301 630.86 69.5301 630.66 69.6601C630.46 69.7901 629.9 70.1101 629.52 70.3401L628.91 70.7101C628.53 70.9401 628.16 71.2001 627.8 71.4401L627.22 71.8201L626.13 72.6101L625.57 73.0101L624.52 73.8501L623.98 74.2801C623.62 74.5701 623.29 74.8701 622.95 75.1701L622.44 75.6001C622.1 75.9001 621.77 76.2201 621.44 76.5401L620.96 77.0001C620.62 77.3301 620.3 77.6601 619.97 78.0101L619.54 78.4501C619.21 78.8001 618.9 79.1401 618.59 79.5001L618.16 79.9601L617.26 81.0401L616.86 81.5501C616.56 81.9001 616.27 82.2901 615.98 82.6701C615.7 83.0401 615.74 83.0001 615.61 83.1701C615.48 83.3401 615.06 83.9501 614.79 84.3401L614.43 84.8501C614.16 85.2601 613.9 85.6801 613.64 86.0801L613.31 86.6001L612.59 87.8201C612.47 88.0101 612.36 88.1901 612.26 88.3801C612.03 88.8001 611.81 89.2201 611.59 89.6301C611.48 89.8201 611.38 90.0201 611.28 90.2201C611.18 90.4201 610.85 91.0901 610.64 91.5201C610.54 91.7001 610.46 91.9101 610.36 92.0901C610.16 92.5201 609.98 92.9701 609.78 93.4001L609.52 94.0201C609.33 94.4701 609.16 94.9101 608.99 95.3601C608.92 95.5601 608.83 95.7801 608.74 95.9801C608.59 96.4201 608.43 96.8801 608.28 97.3301C608.21 97.5501 608.13 97.7601 608.05 97.9901C607.91 98.4401 607.77 98.9001 607.64 99.4301C607.56 99.6601 607.49 99.8801 607.44 100.11C607.31 100.58 607.18 101.06 607.06 101.55L606.89 102.19L606.59 103.63C606.59 103.86 606.47 104.11 606.43 104.35C606.38 104.6 606.27 105.2 606.2 105.63C606.13 106.07 606.1 106.21 606.05 106.48C606.01 106.76 605.92 107.36 605.87 107.79C605.81 108.22 605.78 108.37 605.75 108.66C605.72 108.94 605.65 109.61 605.61 110.09C605.61 110.35 605.61 110.61 605.54 110.86C605.54 111.4 605.46 111.95 605.44 112.51V115.33L603.94 351.73L680.64 361.07L678.64 115.32C678.57 95.9801 668.72 78.8401 653.77 69.9901Z" fill="#2DC495"/>
<path d="M582.73 355.2L585.45 356.18L681.11 376.36L680.56 360.28L604.67 351.36L604.41 351.42L582.73 355.2Z" fill="white"/>
<path d="M581.85 111.78C581.85 98.7599 589.51 86.7999 592.96 82.3499C596.41 77.8999 604.52 69.5199 615.99 65.9499C627.46 62.3899 640.34 64.3799 642.22 65.0699C642.22 65.0699 653.2 67.8399 664.04 79.0199C674.88 90.1999 678.71 104.53 678.71 111.78C678.71 119.03 681.11 376.35 681.11 376.35L582.05 355.77L581.85 111.78Z" stroke="#2B266D" stroke-width="2" stroke-miterlimit="10"/>
<path d="M642.22 64.64H642.14C641.34 64.44 640.53 64.25 639.73 64.11H639.54C638.72 63.95 637.91 63.83 637.09 63.72H636.66C635.91 63.62 635.15 63.56 634.39 63.5H633.83C628.75 63.2 623.65 63.74 618.75 65.09C615.62 65.96 612.58 67.16 609.69 68.65C608.63 69.22 607.52 69.85 606.31 70.61C591.22 80.09 581.85 97.64 581.85 116.4L582.05 355.77L604.67 351.36L605.41 116.06V113.26C605.41 112.7 605.41 112.15 605.51 111.6C605.51 111.36 605.51 111.1 605.58 110.84C605.58 110.37 605.67 109.89 605.72 109.4C605.78 108.91 605.79 108.83 605.84 108.54C605.88 108.25 605.95 107.66 606.03 107.23C606.1 106.8 606.13 106.67 606.17 106.38C606.21 106.09 606.31 105.52 606.4 105.1C606.49 104.68 606.5 104.61 606.56 104.38L606.86 102.94L607.03 102.29C607.15 101.82 607.28 101.34 607.41 100.85C607.41 100.62 607.54 100.41 607.61 100.18C607.74 99.72 607.88 99.26 608.03 98.74C608.1 98.51 608.18 98.29 608.26 98.08C608.4 97.63 608.56 97.17 608.72 96.72C608.8 96.52 608.89 96.31 608.96 96.11C609.13 95.66 609.31 95.21 609.49 94.77L609.75 94.15C609.95 93.72 610.13 93.27 610.33 92.84C610.43 92.65 610.52 92.45 610.62 92.26C610.82 91.83 611.03 91.39 611.25 90.97C611.46 90.55 611.45 90.57 611.57 90.38C611.78 89.96 612 89.54 612.23 89.13C612.33 88.94 612.44 88.75 612.56 88.57L613.28 87.34L613.61 86.82C613.87 86.42 614.13 86 614.4 85.6L614.76 85.08C615.03 84.69 615.29 84.31 615.58 83.92C615.87 83.53 615.84 83.59 615.95 83.41C616.07 83.24 616.53 82.65 616.83 82.29L617.24 81.79L618.13 80.71L618.56 80.25C618.88 79.89 619.18 79.54 619.51 79.2L619.94 78.75C620.27 78.41 620.59 78.07 620.93 77.74L621.41 77.28C621.74 76.97 622.07 76.65 622.42 76.35L622.92 75.92C623.26 75.61 623.6 75.31 623.96 75.02L624.49 74.59L625.54 73.76L626.1 73.36L627.19 72.56L627.77 72.19C628.13 71.94 628.5 71.69 628.88 71.46L629.5 71.08C629.87 70.85 630.24 70.62 630.63 70.41C631.02 70.19 631.06 70.17 631.28 70.05L632.42 69.43L633.11 69.1L634.26 68.53L634.98 68.23C635.37 68.06 635.74 67.89 636.14 67.73L636.88 67.44L638.06 66.99L638.83 66.74C639.22 66.61 639.63 66.46 640.03 66.35C640.43 66.23 640.56 66.2 640.82 66.13L641.91 65.81M652.91 70.23L653.2 70.39L653.74 70.72" fill="#2B266D"/>
<path d="M150.24 70.3302L150.79 69.9902L151.07 69.8401C154.53 67.8901 158.23 66.4002 162.07 65.4102L163.16 65.7302C163.42 65.7302 163.69 65.8502 163.95 65.9402C164.21 66.0302 164.76 66.2002 165.15 66.3302L165.92 66.5901L167.1 67.0302L167.84 67.3202C168.24 67.4802 168.62 67.6502 169 67.8302L169.72 68.1301L170.87 68.6902L171.56 69.0201L172.7 69.6402C172.92 69.7702 173.15 69.8702 173.35 70.0002C173.55 70.1302 174.11 70.4502 174.49 70.6802L175.1 71.0502C175.48 71.2802 175.85 71.5402 176.21 71.7802L176.79 72.1602L177.88 72.9501L178.44 73.3502L179.49 74.1902L180.03 74.6202C180.39 74.9102 180.72 75.2102 181.06 75.5102L181.57 75.9402C181.91 76.2402 182.24 76.5602 182.57 76.8801L183.05 77.3401C183.39 77.6701 183.71 78.0002 184.04 78.3502L184.47 78.7902C184.8 79.1402 185.11 79.4801 185.42 79.8401L185.85 80.3002L186.75 81.3801L187.15 81.8902C187.45 82.2402 187.74 82.6302 188.03 83.0102C188.31 83.3802 188.27 83.3402 188.4 83.5102C188.53 83.6802 188.95 84.2902 189.22 84.6802L189.58 85.1902C189.85 85.6002 190.11 86.0202 190.37 86.4202L190.7 86.9402L191.42 88.1602C191.54 88.3502 191.65 88.5302 191.75 88.7202C191.98 89.1402 192.2 89.5602 192.42 89.9702C192.53 90.1602 192.63 90.3601 192.73 90.5602C192.83 90.7602 193.16 91.4302 193.37 91.8602C193.47 92.0402 193.55 92.2502 193.65 92.4302C193.85 92.8602 194.03 93.3102 194.23 93.7402L194.49 94.3602C194.68 94.8102 194.85 95.2501 195.02 95.7001C195.09 95.9002 195.18 96.1202 195.27 96.3202C195.42 96.7602 195.58 97.2201 195.73 97.6702C195.8 97.8902 195.88 98.1002 195.96 98.3302C196.1 98.7802 196.24 99.2402 196.37 99.7701C196.45 100 196.52 100.22 196.57 100.45C196.7 100.92 196.83 101.4 196.95 101.89L197.12 102.53L197.42 103.97C197.42 104.2 197.54 104.45 197.58 104.69C197.63 104.94 197.74 105.54 197.81 105.97C197.88 106.41 197.91 106.55 197.96 106.82C198 107.1 198.09 107.7 198.14 108.13C198.2 108.56 198.23 108.71 198.26 109C198.29 109.28 198.36 109.95 198.4 110.43C198.4 110.69 198.4 110.95 198.47 111.2C198.47 111.74 198.55 112.29 198.57 112.85V113.41C198.57 114.16 198.57 114.91 198.57 115.67L200.07 352.07L124.37 361.41L125.37 115.66C125.44 96.3202 135.29 79.1802 150.24 70.3302Z" fill="#2DC495"/>
<path d="M221.28 355.53L218.56 356.51L124.9 376.69L125.45 360.61L199.34 351.69L199.6 351.75L221.28 355.53Z" fill="white"/>
<path d="M222.16 112.12C222.16 99.1 214.5 87.14 211.05 82.69C207.6 78.24 199.49 69.86 188.02 66.29C176.55 62.72 163.67 64.72 161.79 65.41C161.79 65.41 150.81 68.18 139.97 79.36C129.13 90.54 125.3 104.87 125.3 112.12C125.3 119.37 123.9 376.69 123.9 376.69L221.96 356.11L222.16 112.12Z" stroke="#2B266D" stroke-width="2" stroke-miterlimit="10"/>
<path d="M162.1 66.14L163.19 66.46C163.45 66.53 163.58 66.56 163.98 66.68C164.38 66.79 164.79 66.94 165.18 67.07L165.95 67.32L167.13 67.77L167.87 68.06C168.27 68.22 168.64 68.39 169.03 68.56L169.75 68.86L170.9 69.43L171.59 69.76L172.73 70.38C172.95 70.5 172.99 70.52 173.38 70.74C173.77 70.95 174.14 71.18 174.51 71.41L175.13 71.79C175.51 72.02 175.88 72.27 176.24 72.52L176.82 72.89L177.91 73.69L178.47 74.09L179.52 74.92L180.05 75.35C180.41 75.64 180.75 75.94 181.09 76.25L181.59 76.68C181.94 76.98 182.27 77.3 182.6 77.61L183.08 78.07C183.42 78.4 183.74 78.74 184.07 79.08L184.5 79.53C184.83 79.87 185.13 80.22 185.45 80.58L185.88 81.04L186.77 82.12L187.18 82.62C187.48 82.98 187.94 83.57 188.06 83.74C188.17 83.92 188.14 83.86 188.43 84.25C188.72 84.64 188.98 85.02 189.25 85.41L189.61 85.93C189.88 86.33 190.14 86.75 190.4 87.15L190.73 87.67L191.45 88.9C191.57 89.08 191.68 89.27 191.78 89.46C192.01 89.87 192.23 90.29 192.44 90.71C192.56 90.9 192.55 90.88 192.76 91.3C192.98 91.72 193.19 92.16 193.39 92.59C193.49 92.78 193.58 92.98 193.68 93.17C193.88 93.6 194.06 94.05 194.26 94.48L194.52 95.1C194.7 95.54 194.88 95.99 195.05 96.44C195.12 96.64 195.21 96.85 195.29 97.05C195.45 97.5 195.61 97.96 195.75 98.41C195.83 98.62 195.91 98.84 195.98 99.07C196.13 99.59 196.27 100.05 196.4 100.51C196.47 100.74 196.6 100.95 196.6 101.18C196.73 101.67 196.86 102.15 196.98 102.62L197.15 103.27L197.45 104.71C197.51 104.94 197.52 105.01 197.61 105.43C197.7 105.85 197.8 106.42 197.84 106.71C197.88 107 197.91 107.13 197.98 107.56C198.06 107.99 198.13 108.58 198.17 108.87C198.22 109.16 198.23 109.24 198.29 109.73C198.34 110.22 198.43 110.7 198.43 111.17C198.5 111.43 198.5 111.69 198.5 111.93C198.6 112.48 198.6 113.03 198.6 113.59V114.15C198.6 114.9 198.6 115.65 198.6 116.39L199.34 351.69L221.96 356.1L222.16 116.73C222.16 97.97 212.79 80.42 197.7 70.94C196.49 70.18 195.38 69.55 194.32 68.98C191.43 67.49 188.39 66.29 185.26 65.42C180.36 64.07 175.26 63.53 170.18 63.83H169.62C168.86 63.89 168.1 63.95 167.35 64.05H166.92C166.1 64.16 165.29 64.28 164.47 64.44H164.37H164.28C163.48 64.58 162.67 64.77 161.87 64.97H161.79M150.27 71.04L150.81 70.71L151.1 70.55" fill="#2B266D"/>
<path d="M680.69 344.72C605.07 306.5 429.07 200.09 421.55 184.67C413.93 174.17 411.07 150.14 412.01 132.94" fill="#FBC63C"/>
<path d="M426.48 156.31C425.85 146.72 428.49 140.11 436.17 135C443.86 129.88 453.27 127.12 456.29 119.3C459.31 111.48 460.15 103.3 463.59 97.7998C467.03 92.2998 479.89 93.5598 476.67 104.17C473.45 114.78 470.47 121.28 469.22 131.29C467.97 141.3 466.87 158.09 467.26 162.98" fill="#FBC63C"/>
<path d="M678.5 263.517C678.5 285 680.69 344.72 680.69 344.72C670.65 341.31 428.05 198.01 421.55 184.67C413.94 174.17 411.07 150.14 412.01 132.94L412.14 130.34C412.35 126.42 412.49 122.25 412.65 117.85C412.9 111.38 413.9 93.9299 414.33 84.1499C414.45 81.4299 416.69 79.2799 419.42 79.2799C422.15 79.2799 424.51 81.5699 424.51 84.3699V84.4799L423.73 118.02L425.84 71.8199C425.9 68.8899 428.27 66.5499 431.2 66.5299H431.25C434.29 66.5299 436.73 69.0499 436.64 72.0899L434.21 115.42L438.16 69.3899C438.41 66.7099 440.56 64.5999 443.24 64.3999C443.38 64.3899 443.52 64.3799 443.66 64.3799C446.93 64.3799 449.52 67.2299 449.15 70.5299C448.13 79.3999 447.06 91.7199 446.75 96.7399C446.28 104.01 446.12 114.77 446.12 114.77L450.43 70.7299C450.71 67.7499 453.3 65.5199 456.29 65.6999C459.24 65.8699 461.52 68.3099 461.52 71.2299C461.52 71.3199 461.51 71.4199 461.51 71.5099C461.17 78.4199 460.48 88.1699 460 93.9599C459.65 98.1399 459.3 102.69 459.71 108.26L467.87 155.62C477.6 171.31 665.19 260.987 680 263.517H678.5Z" fill="#FBC63C"/>
<path d="M467.87 155.62C482.26 172.36 636.47 248.82 679 263.5" stroke="#2B266D" stroke-width="2" stroke-miterlimit="10"/>
<path d="M680.69 344.72C592.7 299.26 429.07 200.09 421.55 184.67C413.93 174.17 411.07 150.14 412.01 132.94L412.14 130.34C412.35 126.42 412.49 122.25 412.65 117.85C412.9 111.38 413.9 93.94 414.32 84.15C414.44 81.43 416.68 79.28 419.41 79.28C422.26 79.28 424.56 81.62 424.5 84.47L423.72 118.01L425.83 71.81C425.89 68.89 428.27 66.54 431.19 66.52C434.25 66.5 436.73 69.02 436.64 72.08L434.21 115.41L438.16 69.38C438.41 66.7 440.56 64.59 443.24 64.39C446.7 64.13 449.54 67.08 449.14 70.53C448.13 79.39 447.06 91.71 446.74 96.74C446.28 104 446.12 114.76 446.12 114.76L450.43 70.73C450.7 67.75 453.3 65.52 456.29 65.7C459.33 65.88 461.65 68.47 461.5 71.51C461.16 78.42 460.47 88.17 459.99 93.96C459.64 98.15 459.29 102.7 459.7 108.26" stroke="#2B266D" stroke-width="2" stroke-miterlimit="10"/>
<path d="M417.55 120.77C422.08 118.15 428.09 116.68 433.3 115.8C439.45 114.76 446.77 114.34 452.64 114.37" stroke="#2B266D" stroke-width="2" stroke-miterlimit="10"/>
<path d="M426.48 156.31C425.85 146.72 428.49 140.11 436.17 135C443.86 129.88 453.27 127.12 456.29 119.3C459.31 111.48 460.15 103.3 463.59 97.8001C467.03 92.3001 479.89 93.56 476.67 104.17C473.45 114.78 470.47 121.28 469.22 131.29C467.97 141.3 466.87 158.09 467.26 162.98" stroke="#2B266D" stroke-width="2" stroke-miterlimit="10"/>
<path d="M469.55 107.11C470.17 103.05 471.01 101.03 473.52 101.28C476.03 101.53 476.98 102.95 476.98 102.95" stroke="#2B266D" stroke-width="2" stroke-miterlimit="10"/>
<path d="M679.5 266L680.69 344.72C669.96 338.34 660.95 333.59 647.83 327.23C651.26 323.38 653.25 320.49 657.45 313.12C664.28 301.11 668.8 273.43 666.82 258.4C677.71 262.59 674.35 262.5 679.5 263V266Z" fill="#2B266D"/>
<path d="M344.95 71.1799C345.61 69.7799 344.24 68.6799 343.4 68.2999C341.28 67.3399 338.77 68.5699 337.64 70.6099C336.36 72.9299 334.79 76.8399 333.34 83.4399C330.12 98.0899 329.69 106.53 331.44 125.47C333.19 144.41 333.52 163.28 333.52 163.28L327.4 170.29L352.39 203.3L371.5 212.34C374.1 209.06 381.07 201.37 383.15 198.4C385.23 195.44 392.41 185.48 395.64 172.73C398.87 159.98 397.5 154.65 397.02 150.98C396.66 148.23 394.82 127.93 393.9 116.17C393.62 112.5 390.45 109.72 386.77 109.92C383.19 110.11 380.36 113.04 380.33 116.63C380.28 121.77 380.24 125.47 380.38 129.45C380.47 132.12 380.14 136.85 379.61 141.74C374.93 132.57 368.56 116.68 377.47 78.5299C378.22 75.3399 376.04 72.1699 372.9 71.2299C369.9 70.3299 366.67 71.6699 365.22 74.4499C363.63 77.4999 361.81 82.2699 360.69 89.3599C358.37 104.11 356.64 115.82 357.99 126.97L344.94 71.1799H344.95Z" fill="#FF5787"/>
<path d="M339.07 128.07C339.03 121.27 337.48 100.42 341.95 81.0598C342.96 76.6898 344.75 70.6798 346.46 68.1598C348.17 65.6398 350.16 65.5698 351.59 65.6998C353.83 65.9098 354.4 68.2598 353.55 70.3498L353.24 71.1198L339.07 128.08V128.07Z" fill="#FF5787"/>
<path d="M347.94 127.13C347.16 115.09 347.3 101.53 348.85 89.6399C349.8 82.4099 352.16 74.3699 353.87 69.1999C354.86 66.1999 358.17 64.6699 361.1 65.8499C363.62 66.8599 365.02 69.5699 364.37 72.2199C363.49 75.8199 362.31 80.8299 361.62 84.5999L364.53 94.6099L368.56 133.51L347.94 127.14V127.13Z" fill="#FF5787"/>
<path d="M311.8 187.39C312.21 187.18 312.74 186.92 313.34 186.66C313.95 186.4 314.22 186.3 314.78 186.13C315.3 185.96 315.85 185.78 316.45 185.62H316.58C316.96 185.53 317.34 185.46 317.73 185.42C318.62 185.34 319.51 185.34 320.4 185.42C319.95 184.95 319.55 184.43 319.2 183.88C319.06 183.67 318.92 183.46 318.8 183.24C318.68 183.01 318.57 182.76 318.47 182.52L318.25 181.97C318.17 181.7 318.08 181.42 318.01 181.13C317.94 180.85 317.88 180.53 317.83 180.23C317.81 179.88 317.81 179.53 317.83 179.18V178.82L312.75 185.21C312.25 185.84 311.94 186.6 311.86 187.41L311.8 187.39Z" fill="#7169EA"/>
<path d="M339.6 175.81C344.85 178.69 356.97 186.8 361.73 192.24C366.49 197.68 371.74 204.9 371.49 215.28C366.24 222.82 363.89 226.52 362.9 227.45C361.91 228.38 359.36 230.73 356.66 229.8C353.96 228.87 322.53 213.73 322.27 213.33C322.01 212.93 312.97 197.8 312.09 193.31C311.21 188.82 311.15 187.08 312.24 185.34C313.49 183.33 321.48 174.18 321.48 174.18L339.6 175.82V175.81Z" fill="#7169EA" stroke="#2B266D" stroke-width="2" stroke-miterlimit="10"/>
<path d="M360.4 225.78C359.35 226.81 357.82 228.05 355.86 229.47C331.29 247.22 239.44 293.44 175.89 323.18C154.31 333.27 137.33 341.733 126.02 346.263C125.64 346.423 125.27 346.573 124.9 346.713V346.333L124.9 267.37V267.25C126.23 266.83 127.76 266.32 129.47 265.72L129.63 265.66C132.46 264.69 135.78 263.49 139.53 262.1L139.58 262.08C182.3 246.22 279.22 205.89 310.35 189.9C310.35 189.9 310.43 189.87 311.44 188.68C311.54 188.55 311.67 188.4 311.81 188.23C313.25 186.5 317.09 185.57 321.44 185.54C325.29 185.52 329.53 186.19 332.86 187.61C333.67 187.96 334.48 188.33 335.27 188.75C341.18 191.78 346.68 196.54 352.39 203.3C352.64 203.6 352.89 203.9 353.14 204.2C359.88 212.36 361.9 222.33 360.4 225.78Z" fill="#FF5787" stroke="#2B266D" stroke-width="2" stroke-miterlimit="10"/>
<path d="M333.007 189.316C339.665 188.284 344.376 183.015 343.528 177.546C342.681 172.077 336.596 168.481 329.938 169.513C323.279 170.545 318.569 175.815 319.416 181.283C320.264 186.752 326.348 190.348 333.007 189.316Z" fill="white" stroke="#2B266D" stroke-width="2" stroke-miterlimit="10"/>
<path d="M371.5 212.34C374.1 209.06 381.07 201.37 383.15 198.4C385.23 195.44 392.41 185.48 395.64 172.73C398.87 159.98 397.5 154.65 397.02 150.98C396.66 148.23 394.82 127.93 393.9 116.17C393.62 112.5 390.45 109.72 386.77 109.92C383.19 110.11 380.36 113.04 380.33 116.63C380.28 121.77 380.24 125.47 380.38 129.45C380.59 135.71 378.45 153.38 377.03 157.58" stroke="#2B266D" stroke-width="2" stroke-miterlimit="10"/>
<path d="M379.62 141.74C374.94 132.57 368.57 116.68 377.48 78.53C378.23 75.34 376.05 72.17 372.91 71.23C369.91 70.33 366.68 71.67 365.23 74.45C363.64 77.5 361.82 82.27 360.7 89.36C358.38 104.11 356.65 115.82 358 126.97" stroke="#2B266D" stroke-width="2" stroke-miterlimit="10"/>
<path d="M327.4 170.29L333.52 163.28C333.52 163.28 333.19 144.41 331.44 125.47C329.69 106.53 330.12 98.0799 333.34 83.4399C334.79 76.8399 336.36 72.9199 337.64 70.6099C338.77 68.5699 341.27 67.3399 343.4 68.2999C344.25 68.6799 345.61 69.7799 344.95 71.1799" stroke="#2B266D" stroke-width="2" stroke-miterlimit="10"/>
<path d="M339.07 128.07C339.03 121.27 337.48 100.42 341.95 81.0598C342.96 76.6898 344.75 70.6798 346.46 68.1598C348.17 65.6398 350.16 65.5698 351.59 65.6998C353.83 65.9098 354.4 68.2598 353.55 70.3498L353.24 71.1198" stroke="#2B266D" stroke-width="2" stroke-miterlimit="10"/>
<path d="M347.94 127.13C347.16 115.09 347.3 101.53 348.85 89.6399C349.8 82.4099 352.16 74.3699 353.87 69.1999C354.86 66.1999 358.17 64.6699 361.1 65.8499C363.62 66.8599 365.02 69.5699 364.37 72.2199C363.49 75.8199 362.31 80.8299 361.62 84.5999" stroke="#2B266D" stroke-width="2" stroke-miterlimit="10"/>
<path d="M364.04 76.9798C365.31 76.6898 367.16 77.9698 367.31 80.3198C367.41 81.9398 366.1 83.9298 366.1 83.9298" stroke="#2B266D" stroke-width="2" stroke-miterlimit="10"/>
<path d="M353.24 71.1099C354.11 71.2299 356.22 72.2999 356.15 74.2099C356.08 76.1199 355.39 77.6999 355.39 77.6999" stroke="#2B266D" stroke-width="2" stroke-miterlimit="10"/>
<path d="M345.84 69.73C347.28 70.11 348.57 71.44 348.28 73.52L347.81 76.13" stroke="#2B266D" stroke-width="2" stroke-miterlimit="10"/>
<path d="M338.45 69.7298C339.73 69.5098 341.45 70.7998 341.45 72.5498C341.45 73.8998 340.7 75.6698 340.7 75.6698" stroke="#2B266D" stroke-width="2" stroke-miterlimit="10"/>
<path d="M175.89 323.18C154.31 333.27 139.99 341.47 128.68 346C127.32 347.07 123.94 346.09 123.57 346.07C124 338 124.68 331.5 124.68 331.5L123.51 267.87L124.9 267.37L129.47 265.72L129.63 265.66L139.53 262.1L139.58 262.08L140.25 261.84C140.79 266.32 148.79 289.03 160.74 306.88C164.82 313.16 169.95 318.67 175.89 323.18Z" fill="#2B266D"/>
<path d="M394.49 123.47C392.97 123.96 390.61 124.3 389.82 124.21C389.03 124.12 385.65 123.39 386.75 120.12C387.54 117.77 390.51 116.68 390.51 116.68" stroke="#2B266D" stroke-width="2" stroke-miterlimit="10"/>
<path d="M427.32 31.46L413.75 58.29" stroke="#2B266D" stroke-width="2" stroke-miterlimit="10" stroke-linecap="round"/>
<path d="M398.08 53.57L395.5 23.49" stroke="#2B266D" stroke-width="2" stroke-miterlimit="10" stroke-linecap="round"/>
<path d="M367.35 39.46L378.61 59.79" stroke="#2B266D" stroke-width="2" stroke-miterlimit="10" stroke-linecap="round"/>
</svg>
