<svg width="800" height="400" viewBox="0 0 800 400" fill="none" xmlns="http://www.w3.org/2000/svg">
<g clip-path="url(#clip0_3820_6807)">
<path d="M524.91 171.216L524.457 170.941L524.218 170.81C521.347 169.199 518.281 167.966 515.094 167.143L514.186 167.406C513.971 167.406 513.744 167.514 513.529 167.585C513.314 167.657 512.86 167.8 512.538 167.908L511.893 168.123L510.914 168.493L510.305 168.732C509.97 168.863 509.66 169.006 509.337 169.15L508.74 169.4L507.785 169.866L507.212 170.141L506.268 170.654C506.089 170.762 505.898 170.846 505.73 170.953C505.563 171.06 505.097 171.323 504.787 171.514L504.274 171.825C503.963 172.016 503.653 172.231 503.354 172.434L502.877 172.744L501.969 173.401L501.503 173.736L500.631 174.428L500.19 174.787C499.891 175.025 499.616 175.276 499.329 175.527L498.911 175.885C498.625 176.136 498.35 176.399 498.076 176.662L497.681 177.044C497.395 177.318 497.132 177.593 496.857 177.88L496.499 178.25C496.224 178.537 495.974 178.823 495.711 179.122L495.352 179.504L494.612 180.4L494.278 180.818C494.027 181.116 493.788 181.439 493.549 181.749C493.31 182.06 493.346 182.024 493.239 182.167C493.131 182.31 492.785 182.812 492.558 183.135L492.259 183.564C492.033 183.899 491.818 184.245 491.603 184.58L491.328 185.01L490.731 186.025C490.635 186.18 490.539 186.335 490.456 186.49C490.265 186.837 490.086 187.183 489.906 187.529C489.811 187.685 489.728 187.852 489.644 188.019C489.56 188.186 489.286 188.736 489.119 189.094C489.035 189.249 488.963 189.416 488.88 189.572C488.712 189.93 488.569 190.3 488.402 190.658L488.187 191.172C488.032 191.542 487.889 191.912 487.745 192.283C487.686 192.45 487.614 192.629 487.542 192.796C487.41 193.166 487.279 193.548 487.16 193.919C487.1 194.098 487.028 194.277 486.969 194.468C486.849 194.838 486.73 195.22 486.622 195.662C486.563 195.853 486.503 196.033 486.455 196.224C486.348 196.618 486.24 197.012 486.145 197.418L486.001 197.955L485.75 199.15C485.75 199.341 485.655 199.544 485.619 199.747C485.583 199.95 485.488 200.451 485.428 200.81C485.368 201.168 485.345 201.287 485.309 201.514C485.273 201.741 485.201 202.243 485.153 202.601C485.106 202.959 485.082 203.079 485.058 203.318C485.034 203.556 484.975 204.106 484.939 204.512C484.939 204.727 484.938 204.942 484.879 205.145C484.879 205.599 484.819 206.052 484.795 206.518C484.795 206.673 484.795 206.829 484.795 206.984C484.795 207.605 484.795 208.226 484.795 208.847L484.795 370.801L545.548 378.146L545.548 208.728C545.488 192.724 537.319 178.537 524.91 171.216Z" fill="#7169EA"/>
<path d="M468.005 375.876L468.208 375.936L545.489 393.229L545.489 379.34L484.164 371.935L483.949 371.983L468.005 375.876Z" fill="white"/>
<path d="M546.647 206.865C546.647 206.53 546.647 206.208 546.587 205.885C546.528 205.563 546.587 205.312 546.587 205.026C546.587 204.739 546.504 204.106 546.456 203.64C546.456 203.509 546.456 203.366 546.456 203.234C546.456 202.673 546.325 202.112 546.229 201.562C546.235 201.531 546.235 201.498 546.229 201.467C545.317 194.939 542.937 188.702 539.27 183.225C535.603 177.748 530.743 173.173 525.055 169.843C524.35 169.449 523.622 169.066 522.893 168.72L522.547 168.553C521.89 168.242 521.245 167.956 520.577 167.681L520.266 167.55C519.526 167.251 518.761 166.976 517.997 166.726L517.555 166.57L517.674 166.57L515.644 166.057L515.453 166.057L515.322 166.057L515.262 166.057C514.593 165.89 513.925 165.734 513.256 165.615L513.184 165.615L513.101 165.615C512.42 165.484 511.751 165.388 511.07 165.292L510.712 165.292C510.091 165.209 509.458 165.161 508.825 165.113L508.359 165.113C504.143 164.863 499.915 165.307 495.843 166.427C493.245 167.156 490.728 168.148 488.331 169.389C487.448 169.855 486.528 170.38 485.525 171.013C472.997 178.883 465.222 193.441 465.222 209.014L465.222 376.211C465.222 376.346 465.269 376.476 465.353 376.581C465.438 376.685 465.557 376.757 465.688 376.785L468.077 377.334L470.895 378.098L546.134 394.818L546.265 394.818C546.424 394.818 546.576 394.755 546.688 394.643C546.8 394.531 546.863 394.379 546.863 394.221L546.863 208.728C546.743 208.107 546.671 207.486 546.647 206.865ZM545.453 378.146L484.773 370.801L484.773 208.728C484.773 208.107 484.773 207.486 484.773 206.865C484.773 206.71 484.773 206.554 484.773 206.399C484.773 205.933 484.772 205.479 484.856 205.026C484.856 204.823 484.856 204.608 484.916 204.393C484.916 203.999 484.988 203.604 485.036 203.198C485.083 202.792 485.095 202.721 485.131 202.482C485.166 202.243 485.227 201.753 485.286 201.395C485.346 201.037 485.369 200.929 485.405 200.69C485.441 200.452 485.525 199.974 485.597 199.628C485.668 199.281 485.68 199.222 485.728 199.03L485.978 197.836L486.122 197.299C486.217 196.905 486.325 196.511 486.433 196.104C486.433 195.913 486.54 195.734 486.599 195.543C486.707 195.161 486.826 194.779 486.946 194.349C487.006 194.158 487.077 193.979 487.137 193.8C487.257 193.429 487.388 193.047 487.519 192.677C487.591 192.51 487.663 192.331 487.723 192.163C487.866 191.793 488.009 191.423 488.164 191.053L488.379 190.539C488.546 190.181 488.69 189.811 488.857 189.452C488.94 189.297 489.012 189.13 489.096 188.975C489.263 188.616 489.442 188.246 489.621 187.9C489.8 187.554 489.788 187.565 489.884 187.41C490.063 187.064 490.243 186.718 490.434 186.371C490.517 186.216 490.613 186.061 490.708 185.905L491.305 184.89L491.58 184.46C491.795 184.126 492.01 183.78 492.237 183.445L492.535 183.015C492.762 182.693 492.977 182.37 493.216 182.048C493.455 181.726 493.431 181.773 493.527 181.63C493.622 181.487 494.004 180.997 494.255 180.698L494.59 180.28L495.33 179.385L495.688 179.003C495.951 178.704 496.201 178.417 496.476 178.131L496.835 177.761C497.109 177.474 497.372 177.199 497.659 176.925L498.053 176.542C498.328 176.28 498.602 176.017 498.889 175.766L499.307 175.408C499.593 175.157 499.868 174.906 500.167 174.667L500.608 174.309L501.481 173.616L501.946 173.282L502.854 172.625L503.331 172.315C503.63 172.112 503.941 171.897 504.251 171.706L504.765 171.395C505.075 171.204 505.385 171.013 505.708 170.834C506.03 170.655 506.066 170.643 506.245 170.535L507.189 170.022L507.762 169.747L508.717 169.281L509.314 169.031C509.637 168.887 509.947 168.744 510.282 168.612L510.891 168.374L511.87 168.003L512.515 167.788C512.838 167.681 513.172 167.562 513.507 167.466C513.841 167.37 513.948 167.347 514.163 167.287L515.071 167.024C518.258 167.847 521.325 169.079 524.195 170.69L524.434 170.822L524.888 171.097C537.296 178.417 545.465 192.593 545.465 208.608L545.453 378.146ZM545.453 379.34L545.453 393.23L468.172 375.937L467.969 375.877L483.912 371.984L484.128 371.984L545.453 379.34Z" fill="#2B266D"/>
<path d="M417.102 178.63L298.975 136.428C284.935 130.57 283.465 104.759 301.057 83.3351C318.65 61.9114 341.176 59.7366 352.731 70.9666L393.63 138.155L417.102 178.63Z" fill="#2B266D" stroke="#2B266D" stroke-width="1.47139"/>
<path d="M357.416 80.5336L415.348 177.332L312.053 140.438C326.831 136.86 331.174 131.878 343.817 117.375C350.612 109.581 358.101 95.8766 357.416 80.5336Z" fill="#5ED7B1"/>
<path d="M392.98 139.657L403.244 155.452L400.346 166.643L395.126 170.665L378.947 164.802C378.947 164.802 392.141 158.771 391.863 147.525C391.591 136.484 389.49 131.365 389.413 131.181L392.98 139.657Z" fill="#C5F6E6"/>
<path d="M342.816 117.279L350.174 106.653L350.21 106.803C351.577 112.546 353.893 122.27 349.355 131.994C344.778 141.803 335.555 145.073 332.19 147.525L311.753 140.168C311.753 140.168 323.198 136.898 329.738 131.176C336.277 125.454 342.816 117.279 342.816 117.279Z" fill="#C5F6E6"/>
<path d="M379.22 115.316C379.22 115.316 393.82 135.578 392.096 148.145C390.372 160.711 378.947 164.803 378.947 164.803" stroke="#2B266D" stroke-width="1.47139"/>
<path d="M362.436 87.8518L373.9 106.896L378.172 115.764L381.37 135.698L376.899 150.661L365.849 160.222L349.67 154.359C349.67 154.359 364.504 147.525 367.34 127.089C370.177 106.653 362.436 87.8518 362.436 87.8518Z" fill="#C5F6E6"/>
<path d="M361.021 84.6929C361.021 84.6929 371.042 112.362 366.523 130.359C362.003 148.355 349.672 154.359 349.672 154.359" stroke="#2B266D" stroke-width="1.47139"/>
<path d="M350.174 102.566C350.174 102.566 354.105 111.558 350.991 127.089C347.878 142.62 331.373 148.343 331.373 148.343" stroke="#2B266D" stroke-width="1.47139"/>
<path d="M388.773 126.386C388.773 126.386 401.931 143.737 402.723 156.72C403.514 169.704 390.41 171.355 390.41 171.355" stroke="#2B266D" stroke-width="1.47139"/>
<path d="M376.727 110.732C376.727 110.732 383.008 127.524 380.215 140.53C377.422 153.537 365.073 159.899 365.073 159.899" stroke="#2B266D" stroke-width="1.47139"/>
<path d="M477.695 186.762L546.964 263.957L540.687 273.908L544.511 333.439L546.146 359.597L495.465 294.202L458.68 245.156L428.361 205.568C415.142 201.16 412.552 202.676 400.856 203.111C395.628 203.305 381.593 198.333 378.785 196.571L371.192 196.111C373.413 196.172 367.638 196.044 367.338 191.668C367.038 187.291 368.973 185.945 377.147 185.128C368.503 185.128 364.582 183.531 364.885 179.406C365.189 175.281 366.961 174.523 375.515 173.683C366.961 173.683 362.664 171.118 362.967 166.993C363.271 162.869 366.784 162.091 368.503 162.217L394.408 165.938L396.042 168.392L395.537 171.724L418.045 179.342L406.385 158.534L393.163 137.076L379.713 122.608L377.954 118.331L378.486 115.009L381.233 112.613L386.828 114.062L394.491 119.03L423.744 136.081L440.91 141.803L465.434 174.501L477.695 186.762Z" fill="#FF5787"/>
<path d="M527.347 283.574C533.886 268.861 530.616 251.694 522.442 234.528L546.148 260.686L546.148 361.231L494.649 292.566C498.736 293.384 521.498 296.735 527.347 283.574Z" fill="#2B266D"/>
<path d="M429.513 206.527L546.146 361.232L546.146 261.504L474.805 183.275" stroke="#2B266D" stroke-width="1.47139"/>
<path d="M409.711 157.886C409.878 160.318 412.021 165.936 419.264 168.958C426.506 171.979 432.677 172.191 434.857 171.92" stroke="#2B266D" stroke-width="1.47139"/>
<path d="M363.164 167.674C363.183 167.013 363.336 166.363 363.612 165.763C363.889 165.162 364.283 164.623 364.772 164.178C365.664 163.377 366.811 162.92 368.009 162.886L369.621 162.968L372.082 163.093L372.661 163.123C373.891 163.185 375.215 163.339 379.815 163.387C380.836 163.439 381.956 163.496 383.113 163.555C384.27 163.613 385.513 163.676 386.805 163.742L390.804 163.945C391.381 163.97 391.947 164.113 392.467 164.364C392.987 164.615 393.45 164.969 393.828 165.405C394.207 165.841 394.492 166.35 394.668 166.9C394.843 167.45 394.905 168.03 394.849 168.604C394.851 170.998 393.536 173.571 391.344 173.719L390.416 173.771C384.54 173.361 372.463 173.081 367.348 172.97C366.725 172.899 366.122 172.706 365.574 172.401C365.025 172.096 364.543 171.685 364.154 171.193C363.765 170.701 363.477 170.137 363.307 169.533C363.137 168.929 363.088 168.297 363.164 167.674Z" fill="#FF5787"/>
<path d="M368.503 162.217C363.347 161.838 362.624 165.08 362.652 167.748C362.701 172.508 367.339 173.684 385.323 174.501C374.696 174.501 364.827 172.363 364.887 178.588C364.947 184.814 367.685 184.311 379.601 185.945C370.609 185.945 367.339 186.763 367.339 190.85C367.339 194.937 369.791 196.572 376.331 196.572" stroke="#2B266D" stroke-width="1.47139"/>
<path d="M407.394 150.72C394.509 139.144 383.551 130.408 380.408 127.326C377.266 124.245 375.512 119.968 377.715 114.687C379.918 109.406 388.8 114.626 392.701 118.021C396.602 121.417 420.476 134.446 420.476 134.446C420.476 134.446 430.285 137.716 437.642 140.168C444.999 142.62 464.606 173.966 464.606 173.966L476.737 185.226M368.509 162.219L389.887 164.052C393.22 164.556 396.21 165.968 396.099 169.3C395.983 172.795 393.003 174.296 391.865 174.501C389.887 174.859 387.778 174.501 384.508 174.501M376.334 196.571C381.595 196.7 385.518 196.497 386.98 196.497C391.412 196.497 395.135 194.12 395.135 190.85C395.135 187.58 392.683 185.946 390.23 185.946L378.786 185.946" stroke="#2B266D" stroke-width="1.47139"/>
<path d="M391.442 122.083C387.955 119.933 383.362 119.337 386.016 114.202" stroke="#2B266D" stroke-width="1.63488"/>
<path d="M387.265 123.986C391.267 127.132 399.661 133.763 401.22 135.122L404.859 147.269C401.863 144.543 397.843 141.155 392.413 136.763C387.891 133.105 378.902 126.252 377.891 122.733C376.735 118.707 377.483 111.048 383.517 113.565L383.871 119.028L387.265 123.986Z" fill="#FF5787"/>
<path d="M368.949 163.289L372.092 166.371L378.377 172.537C381.206 172.831 387.38 173.752 389.443 173.61C393.09 173.36 395.544 171.727 395.294 168.079C395.139 165.823 390.348 165.13 389.594 164.815L378.507 163.733L368.949 163.289Z" fill="#FF5787"/>
<path d="M430.237 207.457C428.604 205.004 419.58 201.223 408.294 202.732C397.038 204.236 387.67 201.214 376.354 196.492" stroke="#2B266D" stroke-width="1.47139"/>
<path d="M412.805 177.84C412.68 178.263 412.712 178.777 412.897 179.388C413.145 180.205 413.644 181.12 414.269 182.04C415.516 183.878 417.129 185.549 417.763 186.227L417.764 186.229C419.388 187.967 420.936 189.7 421.641 191.732L421.643 191.737C422.225 193.448 422.1 195.114 421.918 196.596L421.839 197.219L421.838 197.225C421.635 198.805 421.46 200.247 421.877 201.653L421.878 201.653C422.428 203.496 423.881 205.133 425.629 207.071L425.642 207.085C426.994 208.582 428.505 210.247 429.418 212.096L429.419 212.098C430.881 215.075 430.588 218.191 430.237 220.652C432.378 221.237 434.551 221.628 436.713 221.812L436.744 221.815L436.775 221.82C436.801 221.825 436.825 221.823 436.848 221.823C437.381 220.647 437.599 219.359 437.494 218.031L437.493 218.02C437.325 215.447 436.053 212.476 433.694 209.539L433.208 208.952C432.825 208.504 432.426 208.059 432.017 207.607C430.77 206.23 429.358 204.665 428.55 202.927C427.731 201.165 427.613 199.394 427.564 197.802L427.543 197.142L427.544 197.121C427.574 195.784 427.416 194.419 427.074 193.053C426.328 190.58 424.328 188.254 422.209 185.817L422.204 185.811C421.127 184.573 419.529 182.419 418.219 180.603C417.559 179.69 416.965 178.852 416.536 178.242C416.488 178.175 416.443 178.109 416.4 178.048L416.128 178.33L415.886 178.581L415.51 178.49L412.805 177.84Z" fill="#7169EA" stroke="#2B266D" stroke-width="1.47139"/>
<path d="M411.258 176.801C411.252 177.069 411.262 177.388 411.291 177.748C411.357 178.594 411.512 179.616 411.713 180.652C411.915 181.686 412.159 182.718 412.402 183.578C412.651 184.462 412.882 185.102 413.04 185.395C414.098 187.357 415.088 189.307 415.123 191.337L415.123 191.342C415.139 193.053 414.449 194.555 413.769 195.863L413.481 196.412L413.478 196.417C412.742 197.812 412.091 199.071 412.043 200.434L412.044 200.434C411.985 202.229 412.902 204.054 414.023 206.237L414.031 206.253C414.897 207.933 415.871 209.809 416.176 211.714L416.175 211.716C416.659 214.776 415.328 217.55 414.155 219.706C416.127 220.745 418.198 221.616 420.326 222.294L420.354 222.302L420.381 222.314C420.414 222.327 420.447 222.334 420.478 222.341C421.405 221.4 422.05 220.286 422.384 219.063L422.388 219.052C423.072 216.687 422.785 213.692 421.382 210.461L421.087 209.812C420.968 209.563 420.844 209.314 420.718 209.063L420.332 208.307L419.725 207.109C419.122 205.878 418.566 204.553 418.389 203.218C418.148 201.408 418.625 199.754 419.108 198.292L419.309 197.683L419.316 197.663C419.792 196.458 420.089 195.183 420.199 193.864C420.271 191.449 419.03 188.867 417.701 186.144L417.698 186.138C416.988 184.684 416.559 182.618 416.306 180.98C416.177 180.149 416.091 179.404 416.037 178.866C416.023 178.727 416.012 178.602 416.002 178.492L411.258 176.801Z" fill="#FBC63C" stroke="#2B266D" stroke-width="1.47139"/>
<path d="M309.076 18.4582L307.95 18.8582L319.798 52.1894L320.923 51.7894L309.076 18.4582Z" fill="#2B266D"/>
<path d="M341.627 45.5809C343.55 35.8504 344.938 28.8292 347.579 18.3049L346.417 18.0179C343.788 28.5883 342.397 35.598 340.454 45.3461C340.015 47.5733 339.551 49.9427 339.024 52.5388L340.197 52.7736C340.701 50.1836 341.164 47.8142 341.627 45.5809Z" fill="#2B266D"/>
<path d="M278.229 147.609C271.192 154.599 266.115 159.644 258.814 167.671L257.932 166.862C265.277 158.82 270.343 153.779 277.384 146.762C278.995 145.163 280.711 143.465 282.581 141.588L283.426 142.435C281.548 144.289 279.832 145.987 278.229 147.609Z" fill="#2B266D"/>
<path d="M266.617 104.857C257.633 103.539 248.591 101.939 239.738 100.083L239.982 98.9141C248.83 100.758 257.858 102.351 266.834 103.609L266.617 104.857Z" fill="#2B266D"/>
<path d="M237.217 160.589C238.466 161.111 239.903 160.52 240.424 159.27C240.945 158.02 240.355 156.584 239.105 156.063C237.855 155.541 236.419 156.132 235.897 157.382C235.376 158.632 235.967 160.068 237.217 160.589Z" stroke="#2B266D" stroke-width="1.63488" stroke-miterlimit="10"/>
<path d="M280.662 77.7407C281.912 78.2622 283.348 77.6717 283.869 76.4217C284.391 75.1717 283.8 73.7357 282.55 73.2142C281.3 72.6928 279.864 73.2833 279.343 74.5333C278.821 75.7833 279.412 77.2193 280.662 77.7407Z" stroke="white" stroke-width="1.63488" stroke-miterlimit="10"/>
<path d="M251.733 40.8716C252.983 41.3931 254.419 40.8025 254.94 39.5526C255.462 38.3026 254.871 36.8666 253.621 36.3451C252.371 35.8236 250.935 36.4142 250.414 37.6642C249.892 38.9141 250.483 40.3501 251.733 40.8716Z" stroke="#2B266D" stroke-width="1.63488" stroke-miterlimit="10"/>
<path d="M326.324 6.44753C327.574 6.969 329.01 6.37845 329.531 5.12849C330.053 3.87853 329.462 2.44248 328.212 1.92101C326.962 1.39954 325.526 1.99011 325.005 3.24008C324.483 4.49004 325.074 5.92606 326.324 6.44753Z" stroke="white" stroke-width="1.63488" stroke-miterlimit="10"/>
<path d="M266.273 75.8248C265.913 74.9194 265.259 72.8376 265.556 72.2827C265.586 72.2252 265.629 72.1766 265.683 72.1416C265.737 72.1066 265.798 72.0863 265.862 72.0828L265.938 72.079C263.924 71.3391 262.012 70.3357 260.248 69.0937C259.847 68.8182 259.445 68.5335 259.042 68.2304C256.402 66.3674 253.673 64.4396 250.548 63.8796C248.875 63.6485 247.182 63.6119 245.502 63.7706L244.742 63.8084C242.862 63.9019 240.942 63.9282 239.127 63.3353C237.312 62.7424 235.712 61.5709 234.181 60.4375C233.685 60.0698 233.189 59.7067 232.685 59.3579C229.132 56.9033 225.288 55.6727 221.783 55.7455C220.054 55.7609 218.347 56.13 216.761 56.831C216.639 56.8764 216.529 56.948 216.437 57.0409C216.348 57.2089 216.311 57.4006 216.33 57.591C216.324 60.0162 216.624 62.4329 217.224 64.7806C220.349 64.1635 224.208 63.422 227.631 64.6228C229.581 65.3105 231.299 66.5778 232.961 67.8062C235.044 69.3414 237.01 70.7946 239.412 71.2245C241.258 71.5527 243.184 71.203 245.048 70.8656C247.045 70.5031 249.114 70.1278 251.133 70.5628C253.239 71.0305 254.992 72.2867 256.91 73.7609C258.358 74.8752 262.809 77.8806 266.308 75.8968C266.299 75.8927 266.284 75.8566 266.273 75.8248Z" fill="#7169EA"/>
<path d="M299.829 63.3191C300.269 62.4432 301.397 60.5612 302.012 60.4137C302.075 60.3977 302.141 60.3981 302.203 60.4149C302.265 60.4318 302.322 60.4645 302.367 60.5099L302.421 60.5648C301.631 58.5568 301.108 56.449 300.864 54.2939C300.802 53.8081 300.748 53.3158 300.707 52.8105C300.343 49.5815 299.969 46.2424 298.302 43.5191C297.358 42.1072 296.255 40.8103 295.013 39.6534L294.477 39.1073C293.151 37.7568 291.849 36.3316 291.082 34.5713C290.315 32.811 290.127 30.8256 289.956 28.9179C289.901 28.2992 289.843 27.6839 289.768 27.0718C289.239 22.7612 287.596 19.0498 285.201 16.4645C284.034 15.1752 282.616 14.1382 281.029 13.4143C280.914 13.3535 280.787 13.3185 280.655 13.3116C280.47 13.3567 280.3 13.4565 280.17 13.598C278.343 15.2138 276.727 17.0541 275.363 19.0732C277.915 21.0101 281.05 23.4151 282.434 26.7903C283.22 28.7158 283.415 30.8535 283.602 32.9231C283.84 35.5142 284.061 37.9628 285.342 40.0554C286.329 41.6628 287.879 42.8767 289.377 44.0519C290.984 45.311 292.648 46.6154 293.67 48.4236C294.725 50.3192 294.952 52.4762 295.125 54.9022C295.255 56.7355 295.97 62.0887 299.798 63.3937C299.795 63.384 299.812 63.3483 299.829 63.3191Z" fill="#FF5787"/>
<path d="M270.926 124.819C270.324 124.602 269.016 124.017 268.873 123.629C268.858 123.59 268.853 123.547 268.859 123.505C268.865 123.464 268.882 123.425 268.908 123.392L268.939 123.353C267.699 124.02 266.373 124.523 264.995 124.848C264.684 124.925 264.37 124.999 264.045 125.065C261.98 125.551 259.844 126.052 258.208 127.344C257.366 128.065 256.61 128.881 255.957 129.775L255.644 130.165C254.871 131.13 254.048 132.084 252.967 132.718C251.885 133.351 250.612 133.628 249.389 133.886C248.992 133.97 248.598 134.055 248.206 134.151C245.453 134.828 243.174 136.181 241.684 137.934C240.938 138.79 240.376 139.79 240.03 140.875C239.999 140.954 239.986 141.039 239.992 141.125C240.036 141.242 240.113 141.344 240.215 141.418C241.404 142.477 242.723 143.382 244.137 144.109C245.195 142.305 246.511 140.086 248.592 138.927C249.78 138.268 251.15 137.976 252.478 137.695C254.139 137.34 255.709 137.007 256.967 136.014C257.932 135.25 258.599 134.151 259.245 133.089C259.937 131.949 260.653 130.769 261.746 129.967C262.894 129.136 264.274 128.821 265.834 128.521C267.012 128.295 270.427 127.417 270.977 124.834C270.971 124.836 270.946 124.828 270.926 124.819Z" fill="white"/>
<path d="M306.626 138.958C307.23 139.209 362.853 159.167 370.502 162.063" stroke="#2B266D" stroke-width="1.47139"/>
<path d="M353.145 71.6651C353.145 71.6651 366.719 87.957 342.749 117.814C321.267 144.571 307.212 139.304 307.212 139.304" stroke="#2B266D" stroke-width="1.47139"/>
<path d="M381.237 174.5H387.776C387.776 174.5 395.133 175.318 395.133 180.222C395.133 185.127 389.411 185.944 389.411 185.944H382.054" stroke="#2B266D" stroke-width="1.47139"/>
</g>
<defs>
<clipPath id="clip0_3820_6807">
<rect width="800" height="400" fill="white"/>
</clipPath>
</defs>
</svg>
