<svg width="800" height="400" viewBox="0 0 800 400" fill="none" xmlns="http://www.w3.org/2000/svg">
<path d="M331.756 101.859C331.756 74.3313 314.479 50.7056 289.729 44.2908C264.93 50.6891 247.636 74.3148 247.636 101.859V336.38L331.756 326.229V101.859Z" fill="#7169EA"/>
<path d="M332.55 327.799L247.636 338.05V357.278L354.638 333.338L354.902 333.255L332.55 327.799Z" fill="white"/>
<path d="M330.947 49.2508C329.541 48.3745 328.268 47.5974 327.045 47.0022C323.734 45.2821 320.254 43.9081 316.662 42.9021C311.02 41.3499 305.16 40.741 299.319 41.1H298.674C297.798 41.1 296.921 41.2322 296.062 41.348H295.582C294.645 41.4692 293.703 41.618 292.755 41.7944H292.556C292.242 41.7944 291.961 41.9432 291.664 41.9928C290.936 42.1581 290.209 42.3069 289.498 42.4887H289.366C263.839 49.102 246 73.3724 246 101.677V358.319C246 358.539 246.087 358.749 246.242 358.904C246.397 359.059 246.607 359.146 246.827 359.146H247.008L351.166 336L355.052 334.942L358.358 334.181C358.544 334.143 358.709 334.041 358.827 333.893C358.944 333.745 359.007 333.56 359.003 333.371V101.908C359.036 80.2998 348.273 60.1461 330.947 49.2508ZM247.636 101.859C247.636 74.3149 264.93 50.6065 289.729 44.2909C314.529 50.7057 331.756 74.3314 331.756 101.859V326.229L247.636 336.38V101.859ZM247.636 357.278V338.133L332.55 327.882L354.903 333.338L354.639 333.421L247.636 357.278Z" fill="#2B266D"/>
<path d="M529.936 141.202L519.024 153.579L520.265 154.672L531.176 142.295L529.936 141.202Z" fill="#2B266D"/>
<path d="M552.349 166.685L535.599 173.422L536.216 174.956L552.965 168.219L552.349 166.685Z" fill="#2B266D"/>
<path d="M536.254 212.399L535.954 214.025L552.7 217.117L553 215.491L536.254 212.399Z" fill="#2B266D"/>
<path d="M532.749 241.776L531.993 243.247L544.377 249.606L545.132 248.135L532.749 241.776Z" fill="#2B266D"/>
<path d="M506.996 258.805L505.381 259.158L507.566 269.156L509.181 268.803L506.996 258.805Z" fill="#2B266D"/>
<path d="M471.825 174.753C470.756 175.55 469.941 176.639 469.478 177.889C469.014 179.138 468.922 180.495 469.212 181.796C469.333 182.912 469.768 183.972 470.468 184.85C471.167 185.728 472.103 186.389 473.164 186.756C475.879 187.369 478.648 187.707 481.43 187.764C491.962 187.665 500.559 187.765 503.684 187.897H504.907H505.866C506.508 187.916 507.147 187.804 507.744 187.568C508.341 187.332 508.883 186.977 509.338 186.524C510.64 185.02 511.309 183.071 511.206 181.085C511.206 176.687 506.875 172.819 504.197 172.604H504.014C501.071 172.455 497.533 172.323 493.681 172.19C478.537 172.058 473.495 173.645 471.825 174.753Z" fill="#FF5787"/>
<path d="M509.52 206.348C509.175 206.007 508.779 205.722 508.346 205.504C506.924 205.504 501.964 205.372 497.319 205.24H497.005C494.921 205.24 492.904 205.108 491.334 205.042C489.763 204.975 488.242 205.042 486.738 205.042C483.126 205.065 479.517 204.889 475.925 204.512H474.95C471.28 204.612 470.453 208.315 470.304 209.472C469.858 212.581 471.031 216.416 474.09 217.408C478.124 218.714 483.398 218.599 488.044 218.499H491.35C495.98 218.499 503.386 219.029 504.858 219.144C506.195 218.822 507.451 218.225 508.545 217.392C509.29 216.845 509.91 216.144 510.36 215.337C510.811 214.529 511.083 213.634 511.157 212.713C511.334 211.596 511.28 210.455 510.998 209.361C510.716 208.266 510.213 207.24 509.52 206.348Z" fill="#FF5787"/>
<path d="M506.511 222.765C505.782 221.969 504.868 221.367 503.849 221.012V221.095L501.138 220.979C495.285 220.731 481.612 220.169 478.686 220.5C475.081 220.913 473.428 224.369 473.428 227.394C473.428 229.825 474.52 232.354 476.95 232.668C480.78 233.239 484.651 233.488 488.523 233.412H491.036C495.847 233.412 500.162 233.776 500.195 233.776L500.063 235.429C500.063 235.429 495.765 235.065 491.036 235.065H488.556C484.602 235.134 480.648 234.885 476.734 234.322C473.758 233.974 471.774 231.197 471.774 227.394C471.712 225.791 472.1 224.202 472.895 222.808C473.69 221.414 474.86 220.27 476.272 219.508C475.36 219.355 474.459 219.14 473.577 218.863C469.659 217.59 468.121 212.895 468.617 209.125C468.708 207.949 469.089 206.813 469.726 205.821C470.364 204.828 471.239 204.009 472.271 203.438C471.049 202.514 470.08 201.295 469.456 199.896C468.832 198.497 468.571 196.963 468.7 195.436C468.703 193.981 469.12 192.558 469.902 191.331C470.683 190.105 471.797 189.126 473.114 188.508H472.717C471.329 188.071 470.099 187.236 469.18 186.108C468.26 184.98 467.692 183.607 467.543 182.16C467.184 180.546 467.306 178.862 467.894 177.317C468.482 175.771 469.509 174.432 470.849 173.463C472.074 172.734 473.417 172.225 474.817 171.959C461.69 171.711 450.017 171.612 449.885 171.595H449.075V170.802C449.075 170.587 448.645 149.937 447.14 133.768C446.974 131.104 445.772 128.611 443.792 126.822C441.811 125.033 439.21 124.09 436.543 124.195C433.022 124.41 429.318 126.807 429.467 132.924C429.509 146.656 428.703 160.377 427.053 174.009C427.053 174.604 426.904 175.133 416.687 175.398C416.604 175.927 416.521 176.505 416.439 177.15C416.439 177.53 416.439 177.927 416.306 178.341C416.174 178.754 416.208 179.366 416.158 179.994C415.794 184.094 415.546 189.583 415.38 195.816C415.946 206.429 418.675 216.815 423.399 226.336L424.093 227.593C424.325 228.006 424.573 228.386 424.805 228.783C427.346 233.163 430.81 236.937 434.956 239.843H435.055H436.99C440.677 240.009 446.232 240.025 452.117 240.025C457.309 240.025 462.665 240.025 467.857 240.141C480.273 240.406 491.003 240.323 491.135 240.323C495.599 240.554 501.683 240.125 505.552 236.636C506.673 235.571 507.566 234.288 508.177 232.868C508.788 231.447 509.104 229.916 509.106 228.37C508.919 226.256 508.001 224.275 506.511 222.765ZM429.963 212.845H428.211V211.192C444.628 211.622 457.97 205.868 461.458 196.858L462.996 197.453C459.442 206.744 446.265 212.829 429.963 212.829V212.845Z" fill="#FF5787"/>
<path d="M512.777 196.494C512.795 195.607 512.635 194.726 512.305 193.902C511.976 193.078 511.483 192.329 510.858 191.7C509.718 190.566 508.213 189.874 506.61 189.749H504.444H501.137H500.36C498.706 189.749 496.922 189.864 490.755 189.616C489.383 189.616 487.878 189.616 486.324 189.616C484.77 189.616 483.1 189.616 481.364 189.616H475.991C475.216 189.611 474.448 189.764 473.734 190.065C473.02 190.366 472.375 190.809 471.839 191.367C471.302 191.926 470.885 192.588 470.612 193.313C470.34 194.038 470.217 194.811 470.253 195.585C470.088 198.792 471.676 202.33 474.602 202.677L475.842 202.81C483.745 202.661 499.947 203.107 506.808 203.306C507.648 203.253 508.47 203.035 509.225 202.664C509.981 202.292 510.655 201.775 511.21 201.142C511.764 200.509 512.189 199.772 512.458 198.975C512.727 198.177 512.835 197.334 512.777 196.494Z" fill="#FF5787"/>
<path d="M514.43 196.51C514.456 194.872 513.999 193.262 513.117 191.88C512.235 190.499 510.967 189.407 509.47 188.74C509.901 188.484 510.295 188.173 510.644 187.814C512.266 186.004 513.109 183.628 512.992 181.201C512.861 178.913 512.027 176.721 510.604 174.924C509.18 173.128 507.237 171.815 505.039 171.165H503.998C500.857 171 497.484 170.851 494.078 170.785C477.545 170.272 455.16 170.024 450.663 169.975C450.563 166.007 450.084 148.052 448.745 133.602C448.528 130.516 447.117 127.636 444.811 125.574C442.505 123.512 439.485 122.43 436.394 122.558C432.31 122.79 427.599 125.65 427.764 132.957C427.803 146.445 427.024 159.922 425.433 173.315C422.33 173.635 419.212 173.79 416.092 173.777H415.959L256.961 169.76L246.314 169.165L246.115 270.893L295.715 269.454C311.024 269.305 326.3 269.338 341.329 269.454C367.881 269.454 393.012 269.454 416.819 268.644C417.232 268.67 417.646 268.67 418.059 268.644C418.44 268.642 418.819 268.587 419.184 268.479C419.398 268.467 419.6 268.372 419.745 268.214C422.126 266.825 422.391 262.047 422.87 252.706C423.036 249.565 423.234 245.845 423.548 241.53C428.789 241.431 433.236 241.431 436.774 241.53C440.312 241.629 446.083 241.712 451.985 241.712C457.16 241.712 462.516 241.712 467.691 241.827C480.124 242.092 490.838 242.009 490.97 241.993C495.698 242.257 502.245 241.761 506.527 237.893C507.812 236.688 508.837 235.234 509.54 233.619C510.242 232.004 510.607 230.263 510.611 228.502C510.446 225.93 509.346 223.508 507.519 221.69C507.063 221.205 506.559 220.768 506.015 220.384C507.208 219.983 508.326 219.385 509.322 218.615C510.272 217.937 511.06 217.059 511.631 216.041C512.203 215.024 512.544 213.893 512.628 212.729C512.801 211.415 512.708 210.08 512.356 208.802C512.004 207.524 511.399 206.33 510.578 205.289C510.413 205.124 510.214 205.008 510.049 204.86V204.033C511.418 203.324 512.557 202.241 513.333 200.909C514.109 199.576 514.49 198.051 514.43 196.51ZM491.185 240.29C491.069 240.29 480.322 240.29 467.906 240.108C462.715 240.009 457.358 240.009 452.167 239.992C446.281 239.992 440.726 239.992 437.039 239.81H435.105H435.005C430.859 236.904 427.395 233.13 424.854 228.75C424.622 228.353 424.375 227.973 424.144 227.559L423.448 226.303C418.724 216.782 415.996 206.396 415.431 195.783C415.596 189.55 415.843 184.061 416.207 179.961C416.207 179.415 416.307 178.903 416.357 178.308C416.406 177.712 416.439 177.497 416.488 177.117C416.571 176.472 416.654 175.894 416.737 175.365C426.954 175.1 427.037 174.571 427.103 173.976C428.753 160.344 429.559 146.623 429.517 132.891C429.368 126.774 433.071 124.377 436.593 124.162C439.259 124.057 441.861 125 443.842 126.789C445.822 128.578 447.024 131.071 447.191 133.734C448.695 149.904 449.125 170.554 449.125 170.768V171.562H449.934C450.133 171.562 461.739 171.678 474.866 171.926C473.466 172.192 472.123 172.701 470.899 173.43C469.558 174.398 468.531 175.738 467.943 177.283C467.356 178.829 467.234 180.513 467.592 182.127C467.741 183.574 468.31 184.947 469.23 186.075C470.15 187.203 471.379 188.038 472.767 188.475H473.164C471.847 189.093 470.732 190.072 469.951 191.298C469.169 192.525 468.753 193.948 468.75 195.403C468.621 196.929 468.881 198.464 469.505 199.863C470.13 201.262 471.098 202.481 472.32 203.405C471.288 203.976 470.414 204.795 469.777 205.787C469.139 206.78 468.757 207.916 468.667 209.092C468.121 212.862 469.658 217.557 473.626 218.83C474.509 219.107 475.409 219.322 476.321 219.475C474.909 220.237 473.739 221.38 472.944 222.774C472.149 224.169 471.762 225.758 471.825 227.361C471.825 231.164 473.825 233.974 476.784 234.288C480.699 234.852 484.652 235.101 488.605 235.032H491.085C495.814 235.032 500.063 235.396 500.112 235.396L500.245 233.743C500.245 233.743 495.897 233.379 491.085 233.379H488.572C484.701 233.455 480.829 233.206 476.999 232.635C474.569 232.354 473.478 229.791 473.478 227.361C473.478 224.335 475.131 220.88 478.736 220.467C481.662 220.136 495.268 220.698 501.187 220.946L503.898 221.062V220.979C504.917 221.334 505.832 221.936 506.56 222.732C508.065 224.23 509.001 226.206 509.206 228.32C509.204 229.867 508.887 231.397 508.276 232.818C507.665 234.239 506.772 235.521 505.651 236.586C501.733 240.091 495.731 240.587 491.185 240.29ZM341.445 267.586C325.458 267.586 309.173 267.586 292.854 267.702C284.491 262.805 277.012 256.534 270.733 249.152L270.055 248.292L269.41 247.449C267.164 244.504 265.288 241.294 263.822 237.893C261.391 232.001 259.601 225.865 258.482 219.59C258.185 217.937 257.937 216.284 257.722 214.631C257.375 211.969 257.143 209.357 256.994 206.81C256.678 201.235 256.749 195.644 257.209 190.079C257.441 187.07 257.771 184.309 258.135 181.813C258.317 180.573 258.498 179.415 258.697 178.357C258.697 178.026 258.813 177.729 258.862 177.415C259.425 174.356 259.954 172.207 260.202 171.281L343.545 173.381L390.267 174.554L415.067 175.183C414.885 176.34 414.719 177.778 414.587 179.399C414.587 180.11 414.455 180.854 414.388 181.647C414.322 182.441 414.257 183.681 414.191 184.788C414.091 186.624 413.992 188.574 413.909 190.658C413.909 190.806 413.909 190.972 413.909 191.121C413.909 192.443 413.827 193.832 413.777 195.237C413.397 208.827 413.48 225.873 413.992 239.877C413.992 240.158 413.992 240.439 413.992 240.703C413.992 240.968 413.992 241.249 413.992 241.53V241.761C413.992 242.026 413.992 242.307 413.992 242.571C413.992 242.836 413.992 243.134 413.992 243.415C414.138 250.154 414.69 256.879 415.645 263.552C415.851 264.636 416.267 265.669 416.868 266.594H414.62H413.331C390.73 267.669 366.774 267.636 341.445 267.586ZM504.097 172.802H504.279C506.957 172.967 511.24 176.886 511.289 181.283C511.392 183.27 510.722 185.219 509.42 186.723C508.965 187.175 508.423 187.53 507.826 187.766C507.229 188.002 506.591 188.114 505.949 188.095H504.99H503.766C500.641 188.095 492.044 187.864 481.513 187.963C478.73 187.905 475.961 187.567 473.246 186.954C472.185 186.587 471.25 185.926 470.551 185.048C469.851 184.17 469.415 183.111 469.295 181.994C469.004 180.694 469.097 179.337 469.56 178.087C470.024 176.837 470.839 175.748 471.907 174.951C473.56 173.844 478.619 172.256 493.846 172.521C497.616 172.455 501.154 172.587 504.097 172.802ZM506.957 203.305C500.096 203.107 483.894 202.661 475.991 202.81L474.751 202.677C471.825 202.33 470.238 198.792 470.403 195.585C470.367 194.811 470.489 194.038 470.761 193.313C471.034 192.588 471.452 191.926 471.988 191.367C472.525 190.809 473.17 190.365 473.884 190.064C474.598 189.763 475.365 189.611 476.139 189.616H481.513C483.166 189.616 484.819 189.616 486.473 189.616C488.126 189.616 489.532 189.616 490.904 189.616C497.071 189.864 498.823 189.798 500.51 189.748H501.286H504.593H506.759C508.362 189.874 509.868 190.566 511.008 191.699C511.633 192.329 512.125 193.078 512.454 193.902C512.784 194.725 512.944 195.607 512.925 196.494C513.025 198.179 512.453 199.835 511.334 201.099C510.216 202.363 508.642 203.133 506.957 203.239V203.305ZM508.511 217.309C507.417 218.142 506.162 218.739 504.824 219.061C503.353 218.946 495.946 218.417 491.317 218.417H488.01C483.365 218.516 478.091 218.632 474.057 217.325C470.998 216.333 469.824 212.498 470.271 209.39C470.419 208.265 471.246 204.562 474.916 204.43H475.892C479.483 204.806 483.093 204.983 486.704 204.959C488.209 204.959 489.68 204.959 491.3 204.959C492.92 204.959 494.888 205.108 496.971 205.157H497.285C501.931 205.289 506.891 205.405 508.313 205.422C508.746 205.639 509.142 205.924 509.486 206.265C510.163 207.138 510.659 208.138 510.943 209.206C511.227 210.273 511.294 211.387 511.14 212.481C511.075 213.419 510.807 214.33 510.353 215.153C509.899 215.975 509.27 216.689 508.511 217.243V217.309Z" fill="#2B266D"/>
<path d="M428.244 211.159V212.812H429.996C446.298 212.812 459.475 206.728 463.062 197.403L461.524 196.808C458.019 205.868 444.661 211.589 428.244 211.159Z" fill="#2B266D"/>
<path d="M414.719 266.859H416.968C416.366 265.934 415.951 264.9 415.744 263.817C414.789 257.143 414.237 250.419 414.091 243.679C414.091 243.398 414.091 243.117 414.091 242.836C414.091 242.555 414.091 242.291 414.091 242.026V241.795C414.091 241.513 414.091 241.249 414.091 240.968C414.091 240.687 414.091 240.422 414.091 240.141C413.579 226.138 413.496 209.092 413.876 195.502C413.876 194.097 413.958 192.708 414.008 191.385C414.008 191.237 414.008 191.071 414.008 190.922C414.091 188.839 414.191 186.888 414.29 185.053C414.29 183.945 414.421 182.904 414.488 181.912C414.554 180.92 414.62 180.374 414.686 179.663C414.818 178.01 414.984 176.605 415.166 175.447L390.366 174.819L343.643 173.645L260.301 171.546C260.053 172.472 259.524 174.621 258.962 177.679C258.962 177.994 258.846 178.291 258.796 178.622C258.598 179.68 258.416 180.837 258.234 182.077C257.87 184.508 257.54 187.269 257.308 190.344C256.849 195.909 256.777 201.5 257.094 207.075C257.242 209.621 257.474 212.234 257.821 214.895C258.036 216.549 258.284 218.202 258.581 219.855C259.7 226.13 261.49 232.266 263.921 238.157C265.387 241.559 267.263 244.768 269.509 247.713L270.154 248.557L270.833 249.416C277.112 256.799 284.59 263.07 292.954 267.966C309.272 267.784 325.557 267.818 341.544 267.851C366.84 267.851 390.829 267.851 413.595 267.173L414.719 266.859Z" fill="#2DC495"/>
</svg>
