<svg width="800" height="400" viewBox="0 0 800 400" fill="none" xmlns="http://www.w3.org/2000/svg">
<rect x="282" y="96.4407" width="235" height="151.353" rx="15.7294" fill="white" stroke="#2B266D" stroke-width="2"/>
<rect x="281" y="140.052" width="237" height="22.3059" fill="#2B266D"/>
<rect x="306.094" y="215.335" width="52.9765" height="11.1529" rx="5.57647" fill="#9C96F0"/>
<rect x="367.436" y="215.335" width="13.9412" height="11.1529" rx="5.57647" fill="#9C96F0"/>
<rect x="439" y="171.046" width="66.2727" height="66.2727" rx="33.1364" fill="#8EE9CC"/>
<path d="M457.409 203.847C460.944 207.641 467.895 215.228 467.424 215.228C466.952 215.228 478.027 202.955 486.864 193.137" stroke="#2B266D" stroke-width="3.68182" stroke-linecap="round"/>
<path d="M487.329 304.559H311.67" stroke="#2B266D" stroke-width="2" stroke-miterlimit="10" stroke-linecap="round"/>
<rect x="194" y="95.2031" width="180.182" height="95.7221" rx="18.3848" transform="rotate(-14.201 194 95.2031)" fill="#2B266D"/>
<path d="M349.444 64.6931L361.987 64.5933L369.788 78.9592L383.518 128.248L377.564 142.863C377.564 142.863 244.639 176.076 243.016 174.878C241.393 173.68 229.624 169.723 229.624 169.723C229.624 169.723 221.598 151.413 221.498 151.9C221.399 152.386 214.172 107.953 214.172 107.953L216.044 94.1863L349.444 64.7056V64.6931Z" fill="white"/>
<path d="M373.596 148.094L245.951 179.959C234.817 182.742 223.497 175.965 220.714 164.831L207.92 113.783C205.137 102.65 211.914 91.3292 223.048 88.5459L350.693 56.6812C361.827 53.8979 373.147 60.6752 375.93 71.8085L388.724 122.857C391.507 133.99 384.73 145.311 373.596 148.094Z" fill="#FF5787" stroke="#2B266D" stroke-width="1.86322" stroke-miterlimit="10"/>
<path d="M226.416 102.003C222.709 102.939 220.438 106.708 221.374 110.415L234.167 161.464C235.103 165.171 238.873 167.442 242.579 166.506L370.225 134.641C373.932 133.705 376.204 129.936 375.268 126.229L362.474 75.1807C361.538 71.4737 357.769 69.2021 354.062 70.1382L226.416 102.003Z" fill="white"/>
<path d="M242.314 113.112L257.247 109.37C259.718 108.75 262.008 108.683 264.118 109.167C266.219 109.616 267.98 110.581 269.402 112.063C270.851 113.501 271.858 115.35 272.424 117.609C272.991 119.868 272.974 121.974 272.375 123.925C271.811 125.867 270.713 127.549 269.081 128.971C267.44 130.358 265.384 131.361 262.913 131.98L255.182 133.918L258.805 148.373L251.604 150.178L242.314 113.112ZM260.725 125.944C262.526 125.493 263.827 124.698 264.63 123.558C265.423 122.384 265.621 121.003 265.223 119.414C264.816 117.79 263.99 116.665 262.745 116.039C261.491 115.378 259.964 115.273 258.164 115.724L251.068 117.503L253.63 127.722L260.725 125.944ZM285.372 126.52L295.221 124.052L286.953 111.942L285.372 126.52ZM281.201 103.366L287.926 101.681L311.46 135.177L304.047 137.035L298.971 129.584L284.622 133.18L283.66 142.144L276.247 144.002L281.201 103.366ZM305.71 97.2235L312.911 95.4186L322.201 132.485L315 134.29L305.71 97.2235ZM319.879 93.6725L332.005 90.6334C335.499 89.7575 338.853 89.6673 342.067 90.3627C345.306 91.0139 348.123 92.5216 350.516 94.8857C352.945 97.241 354.659 100.413 355.659 104.402C356.659 108.391 356.643 111.997 355.612 115.219C354.617 118.433 352.849 121.108 350.308 123.246C347.794 125.339 344.789 126.824 341.294 127.699L329.168 130.739L319.879 93.6725ZM339.093 121.61C342.623 120.726 345.305 119.003 347.14 116.442C349.009 113.873 349.413 110.47 348.352 106.234C347.29 101.997 345.329 99.1873 342.468 97.8032C339.634 96.375 336.452 96.1033 332.922 96.988L328.527 98.0895L334.698 122.712L339.093 121.61Z" fill="#FF5787"/>
</svg>
