<svg width="800" height="400" viewBox="0 0 800 400" fill="none" xmlns="http://www.w3.org/2000/svg">
<path d="M485.282 109.076L505.479 108.915L518.039 132.046L540.145 211.406L530.559 234.939C530.559 234.939 316.534 288.415 313.921 286.486C311.309 284.557 292.358 278.186 292.358 278.186C292.358 278.186 279.436 248.705 279.275 249.489C279.114 250.272 267.479 178.729 267.479 178.729L270.493 156.563L485.282 109.096V109.076Z" fill="white"/>
<rect x="235" y="158.2" width="290.115" height="154.124" rx="29.6017" transform="rotate(-14.201 235 158.2)" fill="#2B266D"/>
<path d="M524.171 243.361L318.646 294.666C300.72 299.148 282.492 288.236 278.011 270.31L257.412 188.116C252.931 170.19 263.843 151.963 281.769 147.481L487.294 96.1752C505.22 91.6937 523.447 102.606 527.929 120.532L548.527 202.726C553.009 220.652 542.097 238.879 524.171 243.361Z" fill="#EC4B4B" stroke="#2B266D" stroke-width="2.96017" stroke-miterlimit="10"/>
<path d="M287.194 169.149C281.225 170.656 277.567 176.725 279.075 182.694L299.673 264.888C301.181 270.856 307.25 274.514 313.218 273.006L518.743 221.7C524.712 220.193 528.369 214.124 526.862 208.156L506.263 125.962C504.756 119.993 498.687 116.336 492.719 117.843L287.194 169.149Z" fill="white"/>
<path d="M307.731 187.158L319.327 184.252L331.763 233.872L359.472 226.928L361.993 236.988L322.689 246.839L307.731 187.158ZM378.311 208.433L394.169 204.458L380.855 184.961L378.311 208.433ZM371.595 171.152L382.423 168.438L420.315 222.371L408.379 225.363L400.207 213.366L377.102 219.156L375.554 233.589L363.618 236.581L371.595 171.152ZM419.873 169.654L401.884 174.163L399.384 164.188L446.958 152.264L449.458 162.24L431.469 166.748L443.926 216.454L432.331 219.36L419.873 169.654ZM452.853 150.787L492.754 140.787L495.254 150.762L466.949 157.856L470.239 170.986L492.918 165.302L495.439 175.362L472.761 181.046L476.885 197.501L506.128 190.172L508.65 200.232L467.811 210.467L452.853 150.787Z" fill="#EC4B4B"/>
<path d="M503.5 397.197H297" stroke="#2B266D" stroke-width="2" stroke-miterlimit="10" stroke-linecap="round"/>
</svg>
