<svg width="800" height="400" viewBox="0 0 800 400" fill="none" xmlns="http://www.w3.org/2000/svg">
<rect x="235" y="158.2" width="290.115" height="154.124" rx="29.6017" transform="rotate(-14.201 235 158.2)" fill="#2B266D"/>
<path d="M485.282 109.076L505.479 108.915L518.039 132.046L540.145 211.406L530.559 234.939C530.559 234.939 316.534 288.415 313.921 286.486C311.309 284.557 292.358 278.186 292.358 278.186C292.358 278.186 279.436 248.705 279.275 249.489C279.114 250.272 267.479 178.729 267.479 178.729L270.493 156.563L485.282 109.096V109.076Z" fill="white"/>
<path d="M524.171 243.361L318.646 294.666C300.72 299.148 282.492 288.236 278.011 270.31L257.412 188.116C252.931 170.19 263.843 151.963 281.769 147.481L487.294 96.1752C505.22 91.6937 523.447 102.606 527.929 120.532L548.527 202.726C553.009 220.652 542.097 238.879 524.171 243.361Z" fill="#FF5787" stroke="#2B266D" stroke-width="3" stroke-miterlimit="10"/>
<path d="M287.194 169.148C281.225 170.656 277.567 176.725 279.075 182.693L299.673 264.887C301.181 270.856 307.25 274.513 313.218 273.006L518.743 221.7C524.712 220.193 528.369 214.124 526.862 208.155L506.263 125.961C504.756 119.993 498.687 116.335 492.719 117.843L287.194 169.148Z" fill="white"/>
<path d="M312.817 187.137L336.859 181.111C340.838 180.114 344.526 180.005 347.923 180.785C351.306 181.508 354.142 183.062 356.432 185.448C358.764 187.763 360.386 190.74 361.297 194.378C362.209 198.015 362.183 201.405 361.218 204.546C360.31 207.673 358.543 210.382 355.915 212.671C353.273 214.904 349.962 216.519 345.984 217.516L333.536 220.636L339.369 243.911L327.774 246.817L312.817 187.137ZM342.46 207.797C345.359 207.071 347.455 205.791 348.747 203.957C350.025 202.066 350.343 199.841 349.702 197.284C349.047 194.669 347.717 192.858 345.713 191.85C343.694 190.785 341.235 190.616 338.336 191.343L326.912 194.206L331.036 210.661L342.46 207.797ZM382.145 208.725L398.003 204.751L384.689 185.253L382.145 208.725ZM375.429 171.444L386.257 168.731L424.149 222.663L412.213 225.655L404.041 213.658L380.936 219.449L379.389 233.882L367.453 236.873L375.429 171.444ZM414.891 161.554L426.486 158.648L441.444 218.329L429.849 221.235L414.891 161.554ZM437.705 155.837L457.229 150.943C462.856 149.533 468.256 149.388 473.43 150.507C478.646 151.556 483.181 153.984 487.035 157.79C490.945 161.582 493.705 166.69 495.315 173.113C496.925 179.535 496.9 185.341 495.24 190.529C493.637 195.703 490.79 200.011 486.699 203.453C482.651 206.823 477.813 209.214 472.186 210.624L452.662 215.517L437.705 155.837ZM468.642 200.82C474.326 199.395 478.644 196.622 481.598 192.498C484.608 188.361 485.259 182.882 483.549 176.061C481.84 169.241 478.682 164.716 474.076 162.488C469.513 160.188 464.389 159.75 458.706 161.175L451.629 162.948L461.565 202.594L468.642 200.82Z" fill="#FF5787"/>
<path d="M503.5 397.197H297" stroke="#2B266D" stroke-width="2" stroke-miterlimit="10" stroke-linecap="round"/>
</svg>
