<svg width="800" height="400" viewBox="0 0 800 400" fill="none" xmlns="http://www.w3.org/2000/svg">
<rect x="282" y="96.4407" width="235" height="151.353" rx="15.7294" fill="white" stroke="#2B266D" stroke-width="2"/>
<rect x="281" y="140.052" width="237" height="22.3059" fill="#2B266D"/>
<rect x="306.095" y="215.335" width="52.9765" height="11.1529" rx="5.57647" fill="#9C96F0"/>
<rect x="367.436" y="215.335" width="13.9412" height="11.1529" rx="5.57647" fill="#9C96F0"/>
<path d="M487.329 304.559H311.67" stroke="#2B266D" stroke-width="2" stroke-miterlimit="10" stroke-linecap="round"/>
<mask id="path-6-outside-1_4781_16217" maskUnits="userSpaceOnUse" x="443" y="64.053" width="99" height="128" fill="black">
<rect fill="white" x="443" y="64.053" width="99" height="128"/>
<path d="M445 90.4131C445 86.3399 447.47 82.6738 451.246 81.1446L484.891 67.516C489.707 65.5653 495.093 65.5653 499.909 67.516L533.554 81.1446C537.33 82.6738 539.8 86.3399 539.8 90.4131V134.044C539.8 148.313 533.704 161.902 523.046 171.389L511.321 181.827C499.625 192.24 481.886 191.904 470.592 181.056L460.364 171.232C450.548 161.804 445 148.782 445 135.172V90.4131Z"/>
</mask>
<path d="M445 90.4131C445 86.3399 447.47 82.6738 451.246 81.1446L484.891 67.516C489.707 65.5653 495.093 65.5653 499.909 67.516L533.554 81.1446C537.33 82.6738 539.8 86.3399 539.8 90.4131V134.044C539.8 148.313 533.704 161.902 523.046 171.389L511.321 181.827C499.625 192.24 481.886 191.904 470.592 181.056L460.364 171.232C450.548 161.804 445 148.782 445 135.172V90.4131Z" fill="#2B266D"/>
<path d="M484.891 67.516L484.14 65.6623L484.891 67.516ZM499.909 67.516L500.66 65.6623L499.909 67.516ZM511.321 181.827L509.992 180.334L511.321 181.827ZM470.592 181.056L471.977 179.614L470.592 181.056ZM460.364 171.232L458.978 172.674L460.364 171.232ZM523.046 171.389L524.376 172.883L523.046 171.389ZM533.554 81.1446L532.803 82.9983L533.554 81.1446ZM451.246 81.1446L451.997 82.9983L451.246 81.1446ZM537.8 90.4131V134.044H541.8V90.4131H537.8ZM447 135.172V90.4131H443V135.172H447ZM521.717 169.895L509.992 180.334L512.651 183.321L524.376 172.883L521.717 169.895ZM471.977 179.614L461.749 169.789L458.978 172.674L469.206 182.498L471.977 179.614ZM451.997 82.9983L485.642 69.3697L484.14 65.6623L450.495 79.2909L451.997 82.9983ZM499.158 69.3697L532.803 82.9983L534.305 79.2909L500.66 65.6623L499.158 69.3697ZM485.642 69.3697C489.976 67.6141 494.824 67.6141 499.158 69.3697L500.66 65.6623C495.362 63.5165 489.438 63.5165 484.14 65.6623L485.642 69.3697ZM509.992 180.334C499.075 190.052 482.519 189.739 471.977 179.614L469.206 182.498C481.253 194.07 500.175 194.428 512.651 183.321L509.992 180.334ZM443 135.172C443 149.326 448.77 162.869 458.978 172.674L461.749 169.789C452.326 160.738 447 148.237 447 135.172H443ZM537.8 134.044C537.8 147.742 531.948 160.787 521.717 169.895L524.376 172.883C535.46 163.016 541.8 148.883 541.8 134.044H537.8ZM541.8 90.4131C541.8 85.5253 538.835 81.126 534.305 79.2909L532.803 82.9983C535.824 84.2217 537.8 87.1546 537.8 90.4131H541.8ZM447 90.4131C447 87.1546 448.976 84.2217 451.997 82.9983L450.495 79.2909C445.965 81.126 443 85.5253 443 90.4131H447Z" fill="#2B266D" mask="url(#path-6-outside-1_4781_16217)"/>
<mask id="path-8-outside-2_4781_16217" maskUnits="userSpaceOnUse" x="449" y="64" width="99" height="128" fill="black">
<rect fill="white" x="449" y="64" width="99" height="128"/>
<path d="M451 90.3601C451 86.287 453.47 82.6208 457.246 81.0916L490.891 67.463C495.707 65.5123 501.093 65.5123 505.909 67.463L539.554 81.0916C543.33 82.6208 545.8 86.287 545.8 90.3601V133.991C545.8 148.26 539.704 161.849 529.046 171.336L517.321 181.774C505.625 192.187 487.886 191.852 476.592 181.003L466.364 171.179C456.548 161.751 451 148.729 451 135.119V90.3601Z"/>
</mask>
<path d="M451 90.3601C451 86.287 453.47 82.6208 457.246 81.0916L490.891 67.463C495.707 65.5123 501.093 65.5123 505.909 67.463L539.554 81.0916C543.33 82.6208 545.8 86.287 545.8 90.3601V133.991C545.8 148.26 539.704 161.849 529.046 171.336L517.321 181.774C505.625 192.187 487.886 191.852 476.592 181.003L466.364 171.179C456.548 161.751 451 148.729 451 135.119V90.3601Z" fill="#8EE9CC"/>
<path d="M490.891 67.463L490.14 65.6093L490.891 67.463ZM505.909 67.463L506.66 65.6093L505.909 67.463ZM517.321 181.774L515.992 180.281L517.321 181.774ZM476.592 181.003L477.977 179.561L476.592 181.003ZM466.364 171.179L464.978 172.621L466.364 171.179ZM529.046 171.336L530.376 172.83L529.046 171.336ZM539.554 81.0916L538.803 82.9453L539.554 81.0916ZM457.246 81.0916L457.997 82.9453L457.246 81.0916ZM543.8 90.3601V133.991H547.8V90.3601H543.8ZM453 135.119V90.3601H449V135.119H453ZM527.717 169.842L515.992 180.281L518.651 183.268L530.376 172.83L527.717 169.842ZM477.977 179.561L467.749 169.736L464.978 172.621L475.206 182.445L477.977 179.561ZM457.997 82.9453L491.642 69.3167L490.14 65.6093L456.495 79.2379L457.997 82.9453ZM505.158 69.3167L538.803 82.9453L540.305 79.2379L506.66 65.6093L505.158 69.3167ZM491.642 69.3167C495.976 67.5611 500.824 67.5611 505.158 69.3167L506.66 65.6093C501.362 63.4636 495.438 63.4636 490.14 65.6093L491.642 69.3167ZM515.992 180.281C505.075 189.999 488.519 189.686 477.977 179.561L475.206 182.445C487.253 194.017 506.175 194.375 518.651 183.268L515.992 180.281ZM449 135.119C449 149.273 454.77 162.816 464.978 172.621L467.749 169.736C458.326 160.685 453 148.184 453 135.119H449ZM543.8 133.991C543.8 147.689 537.948 160.734 527.717 169.842L530.376 172.83C541.46 162.963 547.8 148.83 547.8 133.991H543.8ZM547.8 90.3601C547.8 85.4723 544.835 81.073 540.305 79.2379L538.803 82.9453C541.824 84.1687 543.8 87.1016 543.8 90.3601H547.8ZM453 90.3601C453 87.1016 454.976 84.1687 457.997 82.9453L456.495 79.2379C451.965 81.073 449 85.4723 449 90.3601H453Z" fill="#2B266D" mask="url(#path-8-outside-2_4781_16217)"/>
<path d="M477 125.694C482.04 131.103 491.952 141.922 491.28 141.922C490.608 141.922 506.4 124.422 519 110.422" stroke="#2B266D" stroke-width="5" stroke-linecap="round"/>
<path d="M562.157 89.6665L589.37 99.3347" stroke="#2B266D" stroke-width="2" stroke-miterlimit="10" stroke-linecap="round"/>
<path d="M561.419 75.3937L587.493 62.9937" stroke="#2B266D" stroke-width="2" stroke-miterlimit="10" stroke-linecap="round"/>
<path d="M550.81 65.8214L560.478 38.6087" stroke="#2B266D" stroke-width="2" stroke-miterlimit="10" stroke-linecap="round"/>
</svg>
