<svg width="24" height="24" viewBox="0 0 24 24" fill="none" xmlns="http://www.w3.org/2000/svg">
<g clip-path="url(#clip0_1872_9288)">
<path d="M11.0255 23.8836C11.0255 23.9127 11.0255 23.9709 11.0255 24H12.9745C12.9745 23.9709 12.9745 23.9127 12.9745 23.8836C12.9745 17.8618 17.8618 12.9745 23.8836 12.9745C23.9127 12.9745 23.9709 12.9745 24 12.9745V11.0255C23.9709 11.0255 23.9127 11.0255 23.8836 11.0255C17.8618 11.0255 12.9745 6.13818 12.9745 0.116364C12.9745 0.0872727 12.9745 0.0290909 12.9745 0H11.0255C11.0255 0.0290909 11.0255 0.0872727 11.0255 0.116364C11.0255 6.13818 6.13818 11.0255 0.116364 11.0255C0.0872727 11.0255 0.0290909 11.0255 0 11.0255V12.9745C0.0290909 12.9745 0.0872727 12.9745 0.116364 12.9745C6.13818 12.9745 11.0255 17.8618 11.0255 23.8836Z" fill="#F4502A"/>
</g>
<defs>
<clipPath id="clip0_1872_9288">
<rect width="24" height="24" fill="white"/>
</clipPath>
</defs>
</svg>
