<svg width="75" height="24" viewBox="0 0 75 24" fill="none" xmlns="http://www.w3.org/2000/svg">
<g clip-path="url(#clip0_1872_9276)">
<path d="M0 5.34642C0 4.4706 0.653048 3.79086 1.54119 3.79086C2.4424 3.79086 3.12157 4.4706 3.12157 5.34642C3.12157 6.20916 2.4424 6.8889 1.54119 6.8889C0.653048 6.8889 0 6.20916 0 5.34642ZM0.352646 8.74511H2.7428V19.8301H0.352646V8.74511Z" fill="white"/>
<path d="M14.7196 8.74511V19.2157C14.7196 22.0784 12.5384 24.0131 9.35157 24.0131C6.75244 24.0131 4.71493 22.6275 4.36228 20.6013L6.60877 20.2222C6.73938 21.3203 7.9018 22.0523 9.35157 22.0523C11.1279 22.0523 12.3686 20.9935 12.3686 19.451V18.1046C11.8201 18.9412 10.5271 19.5163 9.07729 19.5163C5.78593 19.5163 3.89209 17.2549 3.89209 14.0392C3.89209 10.8235 5.78593 8.5621 9.03811 8.5621C10.4487 8.5621 11.7156 9.15034 12.3556 10.0131V8.73204H14.7196V8.74511ZM12.5123 14.0392C12.5123 11.9869 11.2846 10.6536 9.41687 10.6536C7.52304 10.6536 6.29531 12 6.29531 14.0392C6.29531 16.0784 7.52304 17.4248 9.41687 17.4248C11.2715 17.4248 12.5123 16.0915 12.5123 14.0392Z" fill="white"/>
<path d="M16.2217 8.74511H18.6118V10.5882C19.3563 9.3987 20.6363 8.5621 22.2558 8.5621C24.6068 8.5621 26.2525 10.1177 26.2525 12.5229V19.8301H23.8623V13.0719C23.8623 11.6863 23.0003 10.719 21.6028 10.719C19.7351 10.719 18.6118 12.3007 18.6118 14.9673V19.8301H16.2217V8.74511Z" fill="white"/>
<path d="M27.4019 5.34642C27.4019 4.4706 28.0549 3.79086 28.943 3.79086C29.8443 3.79086 30.5234 4.4706 30.5234 5.34642C30.5234 6.20916 29.8443 6.8889 28.943 6.8889C28.068 6.8889 27.4019 6.20916 27.4019 5.34642ZM27.7545 8.74511H30.1447V19.8301H27.7545V8.74511Z" fill="white"/>
<path d="M36.6361 20C34.5464 20 32.9921 18.8497 32.9921 16.3268V10.7843H31.0591V8.74512H32.9921V5.43793H35.3823V8.73205H38.2426V10.7843H35.3823V16.1961C35.3823 17.2941 35.9961 17.8693 36.8973 17.8693C37.3153 17.8693 37.8247 17.8039 38.2426 17.6079L38.3993 19.7386C37.8638 19.9085 37.25 20 36.6361 20Z" fill="white"/>
<path d="M39.1826 5.34642C39.1826 4.4706 39.8357 3.79086 40.7238 3.79086C41.625 3.79086 42.3042 4.4706 42.3042 5.34642C42.3042 6.20916 41.625 6.8889 40.7238 6.8889C39.8487 6.8889 39.1826 6.20916 39.1826 5.34642ZM39.5353 8.74511H41.9254V19.8301H39.5353V8.74511Z" fill="white"/>
<path d="M43.1011 14.2876C43.1011 10.9673 45.4782 8.5621 48.8218 8.5621C52.1393 8.5621 54.5425 10.9543 54.5425 14.2876C54.5425 17.6209 52.1393 20 48.8087 20C45.4782 20 43.1011 17.6079 43.1011 14.2876ZM52.1131 14.2876C52.1131 12.1569 50.7679 10.6536 48.8218 10.6536C46.8496 10.6536 45.5304 12.1438 45.5304 14.2876C45.5304 16.4183 46.8496 17.9216 48.8218 17.9216C50.7679 17.9085 52.1131 16.4183 52.1131 14.2876Z" fill="white"/>
<path d="M55.4961 8.74511H57.8863V10.5882C58.6307 9.3987 59.9107 8.5621 61.5303 8.5621C63.8812 8.5621 65.5269 10.1177 65.5269 12.5229V19.8301H63.1368V13.0719C63.1368 11.6863 62.2747 10.719 60.8772 10.719C59.0095 10.719 57.8863 12.3007 57.8863 14.9673V19.8301H55.4961V8.74511Z" fill="white"/>
<path d="M68.2304 10.732C68.2304 10.7451 68.2304 10.7712 68.2304 10.7843H69.1055C69.1055 10.7712 69.1055 10.7451 69.1055 10.732C69.1055 8.02614 71.2997 5.83006 74.0033 5.83006C74.0164 5.83006 74.0425 5.83006 74.0556 5.83006V4.95425C74.0425 4.95425 74.0164 4.95425 74.0033 4.95425C71.2997 4.95425 69.1055 2.75817 69.1055 0.0522876C69.1055 0.0392157 69.1055 0.0130719 69.1055 0H68.2304C68.2304 0.0130719 68.2304 0.0392157 68.2304 0.0522876C68.2304 2.75817 66.0361 4.95425 63.3325 4.95425C63.3195 4.95425 63.2933 4.95425 63.2803 4.95425V5.83006C63.2933 5.83006 63.3195 5.83006 63.3325 5.83006C66.0361 5.83006 68.2304 8.02614 68.2304 10.732Z" fill="white"/>
</g>
<defs>
<clipPath id="clip0_1872_9276">
<rect width="74.0426" height="24" fill="white"/>
</clipPath>
</defs>
</svg>
