<svg width="74" height="24" viewBox="0 0 74 24" fill="none" xmlns="http://www.w3.org/2000/svg">
<g clip-path="url(#clip0_1872_9264)">
<path d="M0 5.34642C0 4.4706 0.648544 3.79086 1.53056 3.79086C2.42555 3.79086 3.10004 4.4706 3.10004 5.34642C3.10004 6.20916 2.42555 6.8889 1.53056 6.8889C0.648544 6.8889 0 6.20916 0 5.34642ZM0.350214 8.74511H2.72388V19.8301H0.350214V8.74511Z" fill="#0D3735"/>
<path d="M14.6181 8.74511V19.2157C14.6181 22.0784 12.452 24.0131 9.28706 24.0131C6.70586 24.0131 4.6824 22.6275 4.33219 20.6013L6.56318 20.2222C6.69289 21.3203 7.84729 22.0523 9.28706 22.0523C11.0511 22.0523 12.2833 20.9935 12.2833 19.451V18.1046C11.7386 18.9412 10.4544 19.5164 9.01467 19.5164C5.74601 19.5164 3.86523 17.2549 3.86523 14.0392C3.86523 10.8235 5.74601 8.5621 8.97576 8.5621C10.3766 8.5621 11.6348 9.15034 12.2704 10.0131V8.73204H14.6181V8.74511ZM12.426 14.0392C12.426 11.9869 11.2068 10.6536 9.35192 10.6536C7.47114 10.6536 6.25188 12 6.25188 14.0392C6.25188 16.0784 7.47114 17.4248 9.35192 17.4248C11.1938 17.4248 12.426 16.0915 12.426 14.0392Z" fill="#0D3735"/>
<path d="M16.1099 8.74511H18.4835V10.5882C19.2229 9.3987 20.494 8.5621 22.1024 8.5621C24.4372 8.5621 26.0715 10.1177 26.0715 12.5229V19.8301H23.6978V13.0719C23.6978 11.6863 22.8417 10.719 21.4539 10.719C19.599 10.719 18.4835 12.3007 18.4835 14.9673V19.8301H16.1099V8.74511Z" fill="#0D3735"/>
<path d="M27.2129 5.34642C27.2129 4.4706 27.8614 3.79086 28.7435 3.79086C29.6384 3.79086 30.3129 4.4706 30.3129 5.34642C30.3129 6.20916 29.6384 6.8889 28.7435 6.8889C27.8744 6.8889 27.2129 6.20916 27.2129 5.34642ZM27.5631 8.74511H29.9368V19.8301H27.5631V8.74511Z" fill="#0D3735"/>
<path d="M36.3833 20C34.308 20 32.7644 18.8497 32.7644 16.3268V10.7843H30.8447V8.74512H32.7644V5.43793H35.1381V8.73205H37.9787V10.7843H35.1381V16.1961C35.1381 17.2941 35.7477 17.8693 36.6427 17.8693C37.0578 17.8693 37.5636 17.8039 37.9787 17.6079L38.1344 19.7386C37.6026 19.9085 36.9929 20 36.3833 20Z" fill="#0D3735"/>
<path d="M38.9126 5.34642C38.9126 4.4706 39.5611 3.79086 40.4432 3.79086C41.3382 3.79086 42.0126 4.4706 42.0126 5.34642C42.0126 6.20916 41.3382 6.8889 40.4432 6.8889C39.5741 6.8889 38.9126 6.20916 38.9126 5.34642ZM39.2628 8.74511H41.6365V19.8301H39.2628V8.74511Z" fill="#0D3735"/>
<path d="M42.8037 14.2876C42.8037 10.9673 45.1644 8.5621 48.485 8.5621C51.7796 8.5621 54.1662 10.9543 54.1662 14.2876C54.1662 17.6209 51.7796 20 48.472 20C45.1644 20 42.8037 17.6079 42.8037 14.2876ZM51.7536 14.2876C51.7536 12.1569 50.4176 10.6536 48.485 10.6536C46.5264 10.6536 45.2163 12.1438 45.2163 14.2876C45.2163 16.4183 46.5264 17.9216 48.485 17.9216C50.4176 17.9085 51.7536 16.4183 51.7536 14.2876Z" fill="#0D3735"/>
<path d="M55.1133 8.74511H57.487V10.5882C58.2263 9.3987 59.4974 8.5621 61.1058 8.5621C63.4406 8.5621 65.0749 10.1177 65.0749 12.5229V19.8301H62.7012V13.0719C62.7012 11.6863 61.8452 10.719 60.4573 10.719C58.6024 10.719 57.487 12.3007 57.487 14.9673V19.8301H55.1133V8.74511Z" fill="#0D3735"/>
<path d="M67.796 10.732C67.796 10.7451 67.796 10.7712 67.796 10.7843H68.6715C68.6715 10.7712 68.6715 10.7451 68.6715 10.732C68.6715 8.02614 70.8667 5.83006 73.5715 5.83006C73.5845 5.83006 73.6107 5.83006 73.6237 5.83006V4.95425C73.6107 4.95425 73.5845 4.95425 73.5715 4.95425C70.8667 4.95425 68.6715 2.75817 68.6715 0.0522876C68.6715 0.0392157 68.6715 0.0130719 68.6715 0H67.796C67.796 0.0130719 67.796 0.0392157 67.796 0.0522876C67.796 2.75817 65.6008 4.95425 62.896 4.95425C62.8829 4.95425 62.8568 4.95425 62.8438 4.95425V5.83006C62.8568 5.83006 62.8829 5.83006 62.896 5.83006C65.6008 5.83006 67.796 8.02614 67.796 10.732Z" fill="#F4502A"/>
</g>
<defs>
<clipPath id="clip0_1872_9264">
<rect width="73.5319" height="24" fill="white"/>
</clipPath>
</defs>
</svg>
