<svg width="800" height="400" viewBox="0 0 800 400" fill="none" xmlns="http://www.w3.org/2000/svg">
<path d="M200.023 377.237C196.683 377.237 194.901 373.299 197.106 370.79L227.189 336.556C227.926 335.717 228.989 335.237 230.106 335.237H568.164C569.208 335.237 570.208 335.657 570.939 336.404L604.439 370.638C606.845 373.096 605.103 377.237 601.664 377.237H200.023Z" fill="#2B266D"/>
<rect x="234.919" y="359.429" width="106.651" height="54.9175" rx="27.4588" transform="rotate(-90 234.919 359.429)" fill="#2B266D"/>
<rect x="228.728" y="361.642" width="105.506" height="52.976" rx="26.488" transform="rotate(-90 228.728 361.642)" fill="#D5D2F9" stroke="#2B266D" stroke-width="1.94153"/>
<rect x="304.765" y="361.021" width="124.161" height="54.9175" rx="27.4588" transform="rotate(-90 304.765 361.021)" fill="#2B266D"/>
<rect x="298.573" y="361.642" width="123.016" height="52.1801" rx="26.09" transform="rotate(-90 298.573 361.642)" fill="#D5D2F9" stroke="#2B266D" stroke-width="1.94153"/>
<rect x="375.476" y="361.007" width="171.759" height="54.5777" rx="27.2888" transform="rotate(-90 375.476 361.007)" fill="#2B266D"/>
<rect x="368.42" y="361.642" width="169.818" height="53.4388" rx="26.7194" transform="rotate(-90 368.42 361.642)" fill="#D5D2F9" stroke="#2B266D" stroke-width="1.94153"/>
<rect x="445.778" y="360.225" width="245.139" height="54.1216" rx="27.0608" transform="rotate(-90 445.778 360.225)" fill="#2B266D"/>
<rect x="438.79" y="361.642" width="243.197" height="52.976" rx="26.488" transform="rotate(-90 438.79 361.642)" fill="#D5D2F9" stroke="#2B266D" stroke-width="1.94153"/>
<rect x="515.432" y="358.487" width="307.65" height="54.3628" rx="27.1814" transform="rotate(-90 515.432 358.487)" fill="#2B266D"/>
<rect x="508.637" y="361.642" width="305.708" height="52.8733" rx="26.4366" transform="rotate(-90 508.637 361.642)" fill="#7169EA" stroke="#2B266D" stroke-width="1.94153"/>
<path d="M452.902 51.0779L464.149 59.3523" stroke="#2B266D" stroke-width="2.4" stroke-miterlimit="10" stroke-linecap="round" stroke-linejoin="round"/>
<path d="M454.561 44.3688L468.361 42.2737" stroke="#2B266D" stroke-width="2.4" stroke-miterlimit="10" stroke-linecap="round" stroke-linejoin="round"/>
<path d="M444.286 36.8065L442.185 23" stroke="#2B266D" stroke-width="2.4" stroke-miterlimit="10" stroke-linecap="round" stroke-linejoin="round"/>
<path d="M450.987 38.4605L459.268 27.2141" stroke="#2B266D" stroke-width="2.4" stroke-miterlimit="10" stroke-linecap="round" stroke-linejoin="round"/>
<path d="M442.188 46.9346L314.84 92.2087L334.79 139.46L442.188 46.9346Z" fill="white" stroke="#2B266D" stroke-width="2.4" stroke-miterlimit="10" stroke-linejoin="round"/>
<path d="M445.136 45.2925L314.852 92.5381L283.743 75.077L445.136 45.2925Z" fill="#2DC495" stroke="#2B266D" stroke-width="2.4" stroke-miterlimit="10" stroke-linejoin="round"/>
<path d="M331.059 101.142L334.79 139.46L442.334 46.9287L331.059 101.142Z" fill="#2B266D" stroke="#2B266D" stroke-width="2.4" stroke-miterlimit="10" stroke-linejoin="round"/>
<path d="M445.137 45.2925L445.155 45.8045L381.102 131.239L331.514 100.918L445.137 45.2925Z" fill="#FF5787" stroke="#2B266D" stroke-width="2.4" stroke-miterlimit="10" stroke-linejoin="round"/>
<path d="M222.167 164.595C268.28 156.552 300.031 142.92 319.361 132.194" stroke="#2B266D" stroke-width="2.4" stroke-miterlimit="10" stroke-linejoin="round"/>
<path d="M257.728 138.75C284.23 131.709 304.301 123.073 318.551 115.533" stroke="#2B266D" stroke-width="2.4" stroke-miterlimit="10" stroke-linejoin="round"/>
<path d="M245.135 141.846C247.562 141.287 249.948 140.727 252.276 140.135" stroke="#2B266D" stroke-width="2.4" stroke-miterlimit="10" stroke-linejoin="round"/>
<path d="M237.075 143.591C238.876 143.22 240.664 142.844 242.432 142.449" stroke="#2B266D" stroke-width="2.4" stroke-miterlimit="10" stroke-linejoin="round"/>
</svg>
