<svg width="800" height="400" viewBox="0 0 800 400" fill="none" xmlns="http://www.w3.org/2000/svg">
<path d="M233.546 328.197C230.762 328.197 229.278 324.916 231.115 322.825L256.184 294.297C256.799 293.598 257.684 293.197 258.615 293.197H540.33C541.2 293.197 542.034 293.548 542.642 294.17L570.559 322.698C572.564 324.747 571.113 328.197 568.247 328.197H233.546Z" fill="#2B266D"/>
<rect x="262.628" y="313.357" width="88.8762" height="45.7646" rx="22.8823" transform="rotate(-90 262.628 313.357)" fill="#2B266D"/>
<rect x="257.468" y="315.201" width="87.9215" height="44.1466" rx="22.0733" transform="rotate(-90 257.468 315.201)" fill="#D5D2F9" stroke="#2B266D" stroke-width="1.61794"/>
<rect x="320.834" y="314.684" width="103.468" height="45.7646" rx="22.8823" transform="rotate(-90 320.834 314.684)" fill="#2B266D"/>
<rect x="315.674" y="315.201" width="102.513" height="43.4834" rx="21.7417" transform="rotate(-90 315.674 315.201)" fill="#D5D2F9" stroke="#2B266D" stroke-width="1.61794"/>
<rect x="379.759" y="314.673" width="143.133" height="45.4814" rx="22.7407" transform="rotate(-90 379.759 314.673)" fill="#2B266D"/>
<rect x="373.879" y="315.201" width="141.515" height="44.5323" rx="22.2661" transform="rotate(-90 373.879 315.201)" fill="#D5D2F9" stroke="#2B266D" stroke-width="1.61794"/>
<rect x="438.345" y="314.021" width="204.283" height="45.1013" rx="22.5507" transform="rotate(-90 438.345 314.021)" fill="#2B266D"/>
<rect x="432.521" y="315.201" width="202.665" height="44.1466" rx="22.0733" transform="rotate(-90 432.521 315.201)" fill="#D5D2F9" stroke="#2B266D" stroke-width="1.61794"/>
<rect x="496.39" y="312.572" width="256.375" height="45.3023" rx="22.6512" transform="rotate(-90 496.39 312.572)" fill="#2B266D"/>
<rect x="490.727" y="315.201" width="254.757" height="44.0611" rx="22.0305" transform="rotate(-90 490.727 315.201)" fill="#7169EA" stroke="#2B266D" stroke-width="1.61794"/>
</svg>
