<svg width="800" height="400" viewBox="0 0 800 400" fill="none" xmlns="http://www.w3.org/2000/svg">
<rect x="277.5" y="75.6973" width="236" height="249" rx="12.2966" fill="#2B266D" stroke="#2B266D" stroke-width="3"/>
<rect x="285.599" y="75.5156" width="233.142" height="249.938" rx="12.7966" fill="#8EE9CC" stroke="#2B266D" stroke-width="2"/>
<rect x="308.86" y="165.96" width="41.0566" height="37.3242" rx="9.19775" fill="white"/>
<rect x="357.381" y="165.96" width="41.0566" height="37.3242" rx="9.19775" fill="white"/>
<rect x="405.903" y="165.96" width="41.0566" height="37.3242" rx="9.19775" fill="white"/>
<rect x="454.425" y="165.96" width="41.0566" height="37.3242" rx="9.19775" fill="white"/>
<rect x="308.86" y="210.749" width="41.0566" height="37.3242" rx="9.19775" fill="white"/>
<rect x="357.381" y="210.749" width="41.0566" height="37.3242" rx="9.19775" fill="white"/>
<rect x="405.903" y="210.749" width="41.0566" height="37.3242" rx="9.19775" fill="white"/>
<rect x="308.86" y="255.538" width="41.0566" height="37.3242" rx="9.19775" fill="white"/>
<rect x="357.381" y="255.538" width="41.0566" height="37.3242" rx="9.19775" fill="white"/>
<rect x="405.903" y="255.538" width="41.0566" height="37.3242" rx="9.19775" fill="white"/>
<rect x="311.159" y="104.408" width="182.022" height="32.7253" rx="6.89831" fill="white" stroke="white" stroke-width="4.59887"/>
<rect x="454.425" y="210.749" width="41.0566" height="82.1132" rx="9.19775" fill="#FF5787"/>
<path d="M503.5 397.197H297" stroke="#2B266D" stroke-width="2" stroke-miterlimit="10" stroke-linecap="round"/>
</svg>
