<svg width="800" height="400" viewBox="0 0 800 400" fill="none" xmlns="http://www.w3.org/2000/svg">
<rect x="261.012" y="94.7192" width="266.275" height="241.312" rx="20.8028" fill="#2B266D"/>
<rect x="272.31" y="94.7192" width="266.275" height="241.312" rx="20.8028" fill="white"/>
<path d="M272.31 115.522C272.31 104.033 281.624 94.7192 293.113 94.7192H517.783C529.272 94.7192 538.585 104.033 538.585 115.522V163.368H272.31V115.522Z" fill="#2DC495"/>
<rect x="273.311" y="95.7192" width="264.275" height="239.312" rx="19.8028" stroke="#2B266D" stroke-width="2"/>
<rect x="297.268" y="219.536" width="19.3542" height="19.3542" fill="#FF5787"/>
<rect x="327.4" y="64.5159" width="14.6422" height="60.4083" rx="7.32111" fill="white" stroke="#2B266D" stroke-width="2"/>
<rect x="462.601" y="64.5156" width="14.6422" height="60.4083" rx="7.32111" fill="white" stroke="#2B266D" stroke-width="2"/>
<rect x="297.268" y="286.106" width="19.3542" height="19.3542" fill="#B8B4F5"/>
<rect x="330.452" y="219.536" width="19.3542" height="19.3542" fill="#FF5787"/>
<rect x="330.452" y="252.821" width="19.3542" height="19.3542" fill="#FF5787"/>
<rect x="330.452" y="286.106" width="19.3542" height="19.3542" fill="#B8B4F5"/>
<rect x="363.628" y="186.25" width="19.3542" height="19.3542" fill="#B8B4F5"/>
<rect x="363.628" y="219.536" width="19.3542" height="19.3542" fill="#FF5787"/>
<rect x="363.628" y="252.821" width="19.3542" height="19.3542" fill="#FF5787"/>
<rect x="363.628" y="286.106" width="19.3542" height="19.3542" fill="#B8B4F5"/>
<rect x="396.815" y="186.25" width="19.3542" height="19.3542" fill="#B8B4F5"/>
<rect x="396.815" y="219.535" width="19.3542" height="19.3542" fill="#FF5787"/>
<rect x="396.815" y="252.821" width="19.3542" height="19.3542" fill="#B8B4F5"/>
<rect x="396.815" y="286.106" width="19.3542" height="19.3542" fill="#B8B4F5"/>
<rect x="429.968" y="186.25" width="19.3542" height="19.3542" fill="#B8B4F5"/>
<rect x="429.968" y="219.535" width="19.3542" height="19.3542" fill="#FF5787"/>
<rect x="429.968" y="252.821" width="19.3542" height="19.3542" fill="#B8B4F5"/>
<rect x="429.968" y="286.106" width="19.3542" height="19.3542" fill="#B8B4F5"/>
<rect x="463.168" y="186.25" width="19.3542" height="19.3542" fill="#B8B4F5"/>
<rect x="463.168" y="219.535" width="19.3542" height="19.3542" fill="#FF5787"/>
<rect x="463.168" y="252.821" width="19.3542" height="19.3542" fill="#B8B4F5"/>
<rect x="463.168" y="286.106" width="19.3542" height="19.3542" fill="#B8B4F5"/>
<rect x="496.329" y="186.25" width="19.3542" height="19.3542" fill="#B8B4F5"/>
<rect x="496.329" y="219.535" width="19.3542" height="19.3542" fill="#FF5787"/>
<rect x="496.329" y="252.821" width="19.3542" height="19.3542" fill="#B8B4F5"/>
<path d="M507.5 396.197H301" stroke="#2B266D" stroke-width="2" stroke-miterlimit="10" stroke-linecap="round"/>
</svg>
