<svg width="800" height="400" viewBox="0 0 800 400" fill="none" xmlns="http://www.w3.org/2000/svg">
<rect x="245" y="90.1975" width="212.48" height="35.84" rx="17.92" fill="#2B266D"/>
<rect x="253.68" y="91.1975" width="210.48" height="34.138" rx="17.069" fill="white" stroke="#2B266D" stroke-width="2"/>
<rect x="287.319" y="106.438" width="161" height="6" rx="3" fill="#9C96F0"/>
<path d="M274.44 113.238C276.56 113.238 278.28 111.518 278.28 109.398C278.28 107.277 276.56 105.558 274.44 105.558C272.319 105.558 270.6 107.277 270.6 109.398C270.6 111.518 272.319 113.238 274.44 113.238Z" stroke="#2B266D" stroke-width="2" stroke-miterlimit="10"/>
<rect x="245.319" y="136.438" width="220" height="36" rx="18" fill="#2B266D"/>
<rect x="309" y="118.357" width="212.48" height="35.84" rx="17.92" fill="#2B266D"/>
<rect x="317.68" y="119.357" width="210.48" height="34.138" rx="17.069" fill="#C5F6E6" stroke="#2B266D" stroke-width="2"/>
<rect x="351.319" y="134.438" width="161" height="6" rx="3" fill="#2B266D"/>
<path d="M338.44 141.237C340.56 141.237 342.28 139.518 342.28 137.397C342.28 135.276 340.56 133.557 338.44 133.557C336.319 133.557 334.6 135.276 334.6 137.397C334.6 139.518 336.319 141.237 338.44 141.237Z" stroke="#2B266D" stroke-width="2" stroke-miterlimit="10"/>
<rect x="245" y="182.357" width="212.48" height="35.84" rx="17.92" fill="#2B266D"/>
<rect x="253.68" y="183.357" width="210.48" height="34.138" rx="17.069" fill="white" stroke="#2B266D" stroke-width="2"/>
<rect x="287.319" y="198.438" width="161" height="6" rx="3" fill="#9C96F0"/>
<path d="M274.44 205.237C276.56 205.237 278.28 203.518 278.28 201.397C278.28 199.276 276.56 197.557 274.44 197.557C272.319 197.557 270.6 199.276 270.6 201.397C270.6 203.518 272.319 205.237 274.44 205.237Z" stroke="#2B266D" stroke-width="2" stroke-miterlimit="10"/>
<rect x="245" y="228.438" width="212.48" height="35.84" rx="17.92" fill="#2B266D"/>
<rect x="253.68" y="229.438" width="210.48" height="34.138" rx="17.069" fill="white" stroke="#2B266D" stroke-width="2"/>
<rect x="287.319" y="244.438" width="161" height="6" rx="3" fill="#9C96F0"/>
<path d="M274.44 251.237C276.56 251.237 278.28 249.518 278.28 247.397C278.28 245.276 276.56 243.557 274.44 243.557C272.319 243.557 270.6 245.276 270.6 247.397C270.6 249.518 272.319 251.237 274.44 251.237Z" stroke="#2B266D" stroke-width="2" stroke-miterlimit="10"/>
<rect x="245" y="274.518" width="212.48" height="35.84" rx="17.92" fill="#2B266D"/>
<rect x="253.68" y="275.518" width="210.48" height="34.138" rx="17.069" fill="white" stroke="#2B266D" stroke-width="2"/>
<rect x="287.319" y="290.438" width="161" height="6" rx="3" fill="#9C96F0"/>
<path d="M274.44 297.238C276.56 297.238 278.28 295.518 278.28 293.398C278.28 291.277 276.56 289.558 274.44 289.558C272.319 289.558 270.6 291.277 270.6 293.398C270.6 295.518 272.319 297.238 274.44 297.238Z" stroke="#2B266D" stroke-width="2" stroke-miterlimit="10"/>
<path d="M535.642 128.217L554.73 136.944" stroke="#2B266D" stroke-width="2" stroke-miterlimit="10" stroke-linecap="round"/>
<path d="M536.017 117.837L555.681 110.513" stroke="#2B266D" stroke-width="2" stroke-miterlimit="10" stroke-linecap="round"/>
<path d="M518.562 109.862L511.239 90.1973" stroke="#2B266D" stroke-width="2" stroke-miterlimit="10" stroke-linecap="round"/>
<path d="M528.941 110.234L537.668 91.146" stroke="#2B266D" stroke-width="2" stroke-miterlimit="10" stroke-linecap="round"/>
<path d="M555.194 168.114L542.936 173.179L553.503 188.643C553.679 188.894 553.614 189.247 553.354 189.415L539.6 198.782C539.349 198.959 538.996 198.894 538.828 198.634L528.364 183.309L519.275 192.974C518.801 193.485 517.946 193.216 517.844 192.519L511.264 146.08C511.023 144.565 512.64 143.44 513.969 144.202L555.278 166.618C555.891 166.953 555.845 167.854 555.194 168.114Z" fill="white" stroke="#2B266D" stroke-width="1.85867" stroke-miterlimit="10"/>
</svg>
