<svg width="800" height="400" viewBox="0 0 800 400" fill="none" xmlns="http://www.w3.org/2000/svg">
<path d="M233.406 339C230.398 339 228.945 335.316 231.144 333.262L259.379 306.892C259.993 306.319 260.802 306 261.642 306H480.946C481.725 306 482.479 306.274 483.076 306.775L514.519 333.145C516.89 335.134 515.484 339 512.389 339H233.406Z" fill="#2B266D"/>
<rect x="260.681" y="55.7598" width="212.48" height="35.84" rx="17.92" fill="#2B266D"/>
<rect x="269.36" y="56.7598" width="210.48" height="34.138" rx="17.069" fill="white" stroke="#2B266D" stroke-width="2"/>
<rect x="303" y="72" width="161" height="6" rx="3" fill="#9C96F0"/>
<path d="M290.12 78.7999C292.241 78.7999 293.96 77.0807 293.96 74.9599C293.96 72.8391 292.241 71.1199 290.12 71.1199C287.999 71.1199 286.28 72.8391 286.28 74.9599C286.28 77.0807 287.999 78.7999 290.12 78.7999Z" stroke="#2B266D" stroke-width="2" stroke-miterlimit="10"/>
<rect x="261" y="102" width="220" height="36" rx="18" fill="#2B266D"/>
<rect x="324.681" y="83.9197" width="212.48" height="35.84" rx="17.92" fill="#2B266D"/>
<rect x="333.36" y="84.9197" width="210.48" height="34.138" rx="17.069" fill="#C5F6E6" stroke="#2B266D" stroke-width="2"/>
<rect x="367" y="99.9998" width="161" height="6" rx="3" fill="#2B266D"/>
<path d="M354.12 106.799C356.241 106.799 357.96 105.08 357.96 102.959C357.96 100.839 356.241 99.1194 354.12 99.1194C351.999 99.1194 350.28 100.839 350.28 102.959C350.28 105.08 351.999 106.799 354.12 106.799Z" stroke="#2B266D" stroke-width="2" stroke-miterlimit="10"/>
<rect x="260.681" y="147.92" width="212.48" height="35.84" rx="17.92" fill="#2B266D"/>
<rect x="269.36" y="148.92" width="210.48" height="34.138" rx="17.069" fill="white" stroke="#2B266D" stroke-width="2"/>
<rect x="303" y="164" width="161" height="6" rx="3" fill="#9C96F0"/>
<path d="M290.12 170.799C292.241 170.799 293.96 169.08 293.96 166.959C293.96 164.839 292.241 163.119 290.12 163.119C287.999 163.119 286.28 164.839 286.28 166.959C286.28 169.08 287.999 170.799 290.12 170.799Z" stroke="#2B266D" stroke-width="2" stroke-miterlimit="10"/>
<rect x="260.681" y="194" width="212.48" height="35.84" rx="17.92" fill="#2B266D"/>
<rect x="269.36" y="195" width="210.48" height="34.138" rx="17.069" fill="white" stroke="#2B266D" stroke-width="2"/>
<rect x="303" y="210" width="161" height="6" rx="3" fill="#9C96F0"/>
<path d="M290.12 216.799C292.241 216.799 293.96 215.08 293.96 212.959C293.96 210.839 292.241 209.119 290.12 209.119C287.999 209.119 286.28 210.839 286.28 212.959C286.28 215.08 287.999 216.799 290.12 216.799Z" stroke="#2B266D" stroke-width="2" stroke-miterlimit="10"/>
<rect x="260.681" y="240.08" width="212.48" height="35.84" rx="17.92" fill="#2B266D"/>
<rect x="269.36" y="241.08" width="210.48" height="34.138" rx="17.069" fill="white" stroke="#2B266D" stroke-width="2"/>
<rect x="303" y="256" width="161" height="6" rx="3" fill="#9C96F0"/>
<path d="M290.12 262.8C292.241 262.8 293.96 261.081 293.96 258.96C293.96 256.839 292.241 255.12 290.12 255.12C287.999 255.12 286.28 256.839 286.28 258.96C286.28 261.081 287.999 262.8 290.12 262.8Z" stroke="#2B266D" stroke-width="2" stroke-miterlimit="10"/>
<path d="M578.12 350.68H524.36" stroke="#2B266D" stroke-width="2" stroke-miterlimit="10" stroke-linecap="round"/>
<path d="M551.322 93.7795L570.411 102.506" stroke="#2B266D" stroke-width="2" stroke-miterlimit="10" stroke-linecap="round"/>
<path d="M551.697 83.3988L571.362 76.0757" stroke="#2B266D" stroke-width="2" stroke-miterlimit="10" stroke-linecap="round"/>
<path d="M534.243 75.4242L526.92 55.7595" stroke="#2B266D" stroke-width="2" stroke-miterlimit="10" stroke-linecap="round"/>
<path d="M544.622 75.7967L553.349 56.7083" stroke="#2B266D" stroke-width="2" stroke-miterlimit="10" stroke-linecap="round"/>
<path d="M570.875 133.676L558.617 138.741L569.183 154.205C569.36 154.456 569.295 154.81 569.035 154.977L555.28 164.344C555.03 164.521 554.676 164.456 554.509 164.196L544.045 148.871L534.956 158.536C534.482 159.047 533.627 158.778 533.525 158.081L526.945 111.642C526.703 110.127 528.32 109.003 529.649 109.765L570.958 132.18C571.572 132.515 571.525 133.416 570.875 133.676Z" fill="white" stroke="#2B266D" stroke-width="1.85867" stroke-miterlimit="10"/>
<rect x="260.681" y="287.353" width="123.535" height="35.84" rx="17.92" fill="#2B266D"/>
<rect x="265.786" y="287.993" width="122.255" height="34.858" rx="17.429" fill="#7171FF" stroke="#2B266D" stroke-width="1.28"/>
<path d="M294.992 311.84V297.504H297.778V311.84H294.992ZM300.37 311.84V301.518H302.95V303.095C303.524 302.071 304.486 301.354 305.92 301.354C307.558 301.354 308.664 302.051 309.135 303.3C309.688 302.255 310.917 301.354 312.556 301.354C314.788 301.354 316.242 302.808 316.242 304.836V311.84H313.661V305.553C313.661 304.324 312.986 303.546 311.777 303.546C310.385 303.546 309.586 304.754 309.586 306.577V311.84H307.005V305.553C307.005 304.324 306.35 303.546 305.162 303.546C303.749 303.546 302.95 304.774 302.95 306.597V311.84H300.37ZM318.75 315.567V301.518H321.33V302.706C321.904 301.907 323.03 301.354 324.402 301.354C327.372 301.354 329.195 303.525 329.195 306.679C329.195 309.833 327.249 312.004 324.218 312.004C323.03 312.004 321.924 311.553 321.33 310.816V315.567H318.75ZM321.167 306.679C321.167 308.543 322.252 309.772 323.911 309.772C325.549 309.772 326.635 308.543 326.635 306.679C326.635 304.815 325.549 303.587 323.911 303.587C322.252 303.587 321.167 304.815 321.167 306.679ZM335.983 312.004C332.85 312.004 330.597 309.751 330.597 306.679C330.597 303.607 332.85 301.354 335.983 301.354C339.117 301.354 341.37 303.607 341.37 306.679C341.37 309.751 339.117 312.004 335.983 312.004ZM333.198 306.679C333.198 308.522 334.304 309.772 335.983 309.772C337.642 309.772 338.769 308.522 338.769 306.679C338.769 304.836 337.642 303.587 335.983 303.587C334.304 303.587 333.198 304.836 333.198 306.679ZM349.229 303.914C349.229 303.914 348.942 303.832 348.532 303.832C347.099 303.832 345.89 304.979 345.89 308.051V311.84H343.31V301.518H345.89V303.402C346.361 302.214 347.549 301.354 348.799 301.354C349.147 301.354 349.413 301.416 349.413 301.416L349.229 303.914ZM357.754 311.738C357.242 311.922 356.689 312.004 356.095 312.004C354.006 312.004 352.449 310.878 352.449 308.461V303.689H350.708V301.518H352.449V298.487H355.03V301.518H357.631V303.689H355.03V308.215C355.03 309.198 355.562 309.731 356.361 309.731C356.75 309.731 357.201 309.669 357.569 309.485L357.754 311.738Z" fill="white"/>
</svg>
