<svg width="800" height="400" viewBox="0 0 800 400" fill="none" xmlns="http://www.w3.org/2000/svg">
<rect x="351.244" y="43.7056" width="135.164" height="79.9564" rx="5.71117" fill="#2B266D"/>
<rect x="354.406" y="44.0887" width="132.998" height="79.4625" rx="4.62758" fill="#D5D2F9" stroke="#2B266D" stroke-width="0.841378"/>
<rect x="362.672" y="5.63037" width="114.223" height="118.031" rx="5.71117" fill="#2B266D"/>
<rect x="367.088" y="6.05106" width="109.048" height="103.413" rx="4.62758" fill="white" stroke="#2B266D" stroke-width="0.841378"/>
<rect x="377.063" y="19" width="72" height="3" rx="1.5" fill="#D5D4D2"/>
<rect x="377.063" y="26.2554" width="89" height="3" rx="1.5" fill="#D5D4D2"/>
<rect x="377.063" y="33.5107" width="79" height="3" rx="1.5" fill="#D5D4D2"/>
<rect x="377.063" y="40.7659" width="72" height="3" rx="1.5" fill="#D5D4D2"/>
<rect x="377.063" y="48.0212" width="89" height="3" rx="1.5" fill="#D5D4D2"/>
<rect x="377.063" y="55.2766" width="89" height="3" rx="1.5" fill="#D5D4D2"/>
<rect x="377.063" y="62.532" width="89" height="3" rx="1.5" fill="#D5D4D2"/>
<rect x="377.063" y="69.7871" width="89" height="3" rx="1.5" fill="#D5D4D2"/>
<rect x="377.063" y="77.0425" width="89" height="3" rx="1.5" fill="#D5D4D2"/>
<rect x="377.063" y="84.2979" width="89" height="3" rx="1.5" fill="#D5D4D2"/>
<path d="M408.353 77.1846C411.008 79.0032 411.043 82.9109 408.419 84.7754L361.71 117.966C358.646 120.143 354.402 117.952 354.402 114.193L354.402 49.0186C354.402 45.2965 358.573 43.0972 361.645 45.2002L408.353 77.1846Z" fill="#C5F6E6" stroke="#2B266D" stroke-width="0.841378"/>
<path d="M433.453 86.2319C430.797 84.4133 430.763 80.5056 433.387 78.6411L480.096 45.4507C483.16 43.2737 487.403 45.4645 487.403 49.2231L487.403 114.398C487.403 118.12 483.232 120.319 480.161 118.216L433.453 86.2319Z" fill="#C5F6E6" stroke="#2B266D" stroke-width="0.841378"/>
<path d="M415.5 66.1294C417.178 64.7619 419.58 64.7406 421.282 66.0776L484.183 115.483C487.639 118.198 485.719 123.749 481.324 123.75H357.81C353.457 123.749 351.512 118.286 354.886 115.536L415.5 66.1294Z" fill="#2DC495" stroke="#2B266D" stroke-width="0.841378"/>
<rect x="220.917" y="144.259" width="196.603" height="116.3" rx="8.30716" fill="#2B266D"/>
<rect x="225.524" y="144.819" width="193.452" height="115.582" rx="6.73102" fill="#D5D2F9" stroke="#2B266D" stroke-width="1.22382"/>
<rect x="237.525" y="88.8767" width="166.143" height="171.681" rx="8.30716" fill="#2B266D"/>
<rect x="244.354" y="89.8767" width="157.839" height="149.642" rx="6.34293" fill="white" stroke="#2B266D" stroke-width="2"/>
<rect x="261.798" y="113.469" width="99.7205" height="4.15502" rx="2.07751" fill="#D5D4D2"/>
<rect x="261.798" y="123.517" width="123.266" height="4.15502" rx="2.07751" fill="#D5D4D2"/>
<rect x="261.798" y="133.566" width="109.416" height="4.15502" rx="2.07751" fill="#D5D4D2"/>
<rect x="261.798" y="143.615" width="99.7205" height="4.15502" rx="2.07751" fill="#D5D4D2"/>
<rect x="261.798" y="153.663" width="123.266" height="4.15502" rx="2.07751" fill="#D5D4D2"/>
<rect x="261.798" y="163.712" width="123.266" height="4.15502" rx="2.07751" fill="#D5D4D2"/>
<rect x="261.798" y="173.76" width="123.266" height="4.15502" rx="2.07751" fill="#D5D4D2"/>
<rect x="261.798" y="183.809" width="123.266" height="4.15502" rx="2.07751" fill="#D5D4D2"/>
<rect x="261.798" y="193.858" width="123.266" height="4.15502" rx="2.07751" fill="#D5D4D2"/>
<rect x="261.798" y="203.906" width="123.266" height="4.15502" rx="2.07751" fill="#D5D4D2"/>
<path d="M303.983 192.954C307.846 195.599 307.895 201.282 304.079 203.994L236.139 252.272C231.682 255.439 225.509 252.252 225.509 246.785L225.509 151.985C225.509 146.571 231.576 143.373 236.043 146.432L303.983 192.954Z" fill="#D5D2F9" stroke="#2B266D" stroke-width="1.22382"/>
<path d="M340.486 206.115C336.624 203.469 336.575 197.786 340.391 195.074L408.331 146.796C412.788 143.63 418.961 146.816 418.961 152.283L418.961 247.083C418.961 252.497 412.894 255.696 408.427 252.637L340.486 206.115Z" fill="#D5D2F9" stroke="#2B266D" stroke-width="1.22382"/>
<path d="M314.382 176.879C316.822 174.889 320.316 174.858 322.792 176.802L414.283 248.666C419.311 252.615 416.519 260.69 410.126 260.69H230.469C224.137 260.69 221.308 252.743 226.216 248.742L314.382 176.879Z" fill="#9C96F0" stroke="#2B266D" stroke-width="1.22382"/>
<rect x="332.09" y="251.626" width="231.901" height="142.708" rx="8.91926" fill="#2B266D"/>
<rect x="338.012" y="254.17" width="234.981" height="140.394" rx="8.17599" fill="#C5F6E6" stroke="#2B266D" stroke-width="1.48654"/>
<rect x="355.874" y="186.218" width="193.251" height="208.116" rx="8.91926" fill="#2B266D"/>
<rect x="360.684" y="187.218" width="192.153" height="182.196" rx="7.91926" fill="white" stroke="#2B266D" stroke-width="2"/>
<rect x="382.074" y="216.088" width="120.837" height="5.03487" rx="2.51743" fill="#D5D4D2"/>
<rect x="382.074" y="228.265" width="149.368" height="5.03487" rx="2.51743" fill="#D5D4D2"/>
<rect x="382.074" y="240.441" width="132.585" height="5.03487" rx="2.51743" fill="#D5D4D2"/>
<rect x="382.074" y="252.618" width="120.837" height="5.03487" rx="2.51743" fill="#D5D4D2"/>
<rect x="382.074" y="264.794" width="149.368" height="5.03487" rx="2.51743" fill="#D5D4D2"/>
<rect x="382.074" y="276.971" width="149.368" height="5.03487" rx="2.51743" fill="#D5D4D2"/>
<rect x="382.074" y="289.147" width="149.368" height="5.03487" rx="2.51743" fill="#D5D4D2"/>
<rect x="382.074" y="301.324" width="149.368" height="5.03487" rx="2.51743" fill="#D5D4D2"/>
<rect x="382.074" y="313.5" width="149.368" height="5.03487" rx="2.51743" fill="#D5D4D2"/>
<rect x="382.074" y="325.677" width="149.368" height="5.03487" rx="2.51743" fill="#D5D4D2"/>
<path d="M433.331 312.639C438.023 315.852 438.084 322.756 433.448 326.051L350.923 384.692C345.509 388.538 338.012 384.668 338.012 378.027L338.012 262.877C338.012 256.3 345.381 252.415 350.807 256.131L433.331 312.639Z" fill="#C5F6E6" stroke="#2B266D" stroke-width="1.48654"/>
<path d="M477.685 328.623C472.992 325.41 472.932 318.506 477.567 315.212L560.093 256.571C565.506 252.724 573.004 256.595 573.004 263.236L573.004 378.386C573.004 384.962 565.635 388.848 560.209 385.132L477.685 328.623Z" fill="#C5F6E6" stroke="#2B266D" stroke-width="1.48654"/>
<path d="M447.939 292.486C450.891 290.106 455.093 290.068 458.087 292.394L569.743 379.133C575.893 383.91 572.515 393.765 564.728 393.765H345.474C337.76 393.765 334.337 384.065 340.342 379.224L447.939 292.486Z" fill="#2DC495" stroke="#2B266D" stroke-width="1.48654"/>
</svg>
