<svg width="800" height="400" viewBox="0 0 800 400" fill="none" xmlns="http://www.w3.org/2000/svg">
<path d="M692.59 153.75H102.17C94.1122 153.75 87.5801 160.282 87.5801 168.34V168.35C87.5801 176.408 94.1122 182.94 102.17 182.94H692.59C700.648 182.94 707.18 176.408 707.18 168.35V168.34C707.18 160.282 700.648 153.75 692.59 153.75Z" fill="white" stroke="#2B266D" stroke-width="2" stroke-miterlimit="10"/>
<path d="M110.96 161.1H299.99V175.64H110.96C106.95 175.64 103.69 172.38 103.69 168.37C103.69 164.36 106.95 161.1 110.96 161.1Z" fill="#38C396"/>
<path d="M496.29 161.1H685.32C689.33 161.1 692.59 164.36 692.59 168.37C692.59 172.38 689.33 175.64 685.32 175.64H496.29V161.1Z" fill="#FF5787"/>
<path d="M499.13 161.1H297.56V175.64H499.13V161.1Z" fill="#FBC63C"/>
<path d="M129.58 168.29V175.62" stroke="white" stroke-width="2" stroke-miterlimit="10"/>
<path d="M146.38 168.29V175.62" stroke="white" stroke-width="2" stroke-miterlimit="10"/>
<path d="M163.18 168.29V175.62" stroke="white" stroke-width="2" stroke-miterlimit="10"/>
<path d="M179.98 168.29V175.62" stroke="white" stroke-width="2" stroke-miterlimit="10"/>
<path d="M196.771 168.29V175.62" stroke="white" stroke-width="2" stroke-miterlimit="10"/>
<path d="M213.57 168.29V175.62" stroke="white" stroke-width="2" stroke-miterlimit="10"/>
<path d="M230.37 168.29V175.62" stroke="white" stroke-width="2" stroke-miterlimit="10"/>
<path d="M247.17 168.29V175.62" stroke="white" stroke-width="2" stroke-miterlimit="10"/>
<path d="M263.811 168.32V175.64" stroke="white" stroke-width="2" stroke-miterlimit="10"/>
<path d="M280.76 168.29V175.62" stroke="white" stroke-width="2" stroke-miterlimit="10"/>
<path d="M297.561 161.1V175.62" stroke="white" stroke-width="2" stroke-miterlimit="10"/>
<path d="M314.36 168.29V175.62" stroke="white" stroke-width="2" stroke-miterlimit="10"/>
<path d="M331.15 168.29V175.62" stroke="white" stroke-width="2" stroke-miterlimit="10"/>
<path d="M347.95 168.29V175.62" stroke="white" stroke-width="2" stroke-miterlimit="10"/>
<path d="M364.75 168.29V175.62" stroke="white" stroke-width="2" stroke-miterlimit="10"/>
<path d="M381.55 168.29V175.62" stroke="white" stroke-width="2" stroke-miterlimit="10"/>
<path d="M398.34 168.29V175.62" stroke="white" stroke-width="2" stroke-miterlimit="10"/>
<path d="M415.14 168.29V175.62" stroke="white" stroke-width="2" stroke-miterlimit="10"/>
<path d="M431.94 168.29V175.62" stroke="white" stroke-width="2" stroke-miterlimit="10"/>
<path d="M448.74 168.29V175.62" stroke="white" stroke-width="2" stroke-miterlimit="10"/>
<path d="M465.53 168.29V175.62" stroke="white" stroke-width="2" stroke-miterlimit="10"/>
<path d="M482.33 168.29V175.62" stroke="white" stroke-width="2" stroke-miterlimit="10"/>
<path d="M499.13 168.29V175.62" stroke="white" stroke-width="2" stroke-miterlimit="10"/>
<path d="M515.93 168.29V175.62" stroke="white" stroke-width="2" stroke-miterlimit="10"/>
<path d="M532.72 168.29V175.62" stroke="white" stroke-width="2" stroke-miterlimit="10"/>
<path d="M549.521 168.29V175.62" stroke="white" stroke-width="2" stroke-miterlimit="10"/>
<path d="M566.32 168.29V175.62" stroke="white" stroke-width="2" stroke-miterlimit="10"/>
<path d="M583.12 168.29V175.62" stroke="white" stroke-width="2" stroke-miterlimit="10"/>
<path d="M599.91 168.29V175.62" stroke="white" stroke-width="2" stroke-miterlimit="10"/>
<path d="M616.71 168.29V175.62" stroke="white" stroke-width="2" stroke-miterlimit="10"/>
<path d="M633.51 168.29V175.62" stroke="white" stroke-width="2" stroke-miterlimit="10"/>
<path d="M650.311 168.29V175.62" stroke="white" stroke-width="2" stroke-miterlimit="10"/>
<path d="M667.1 168.29V175.62" stroke="white" stroke-width="2" stroke-miterlimit="10"/>
<path d="M129.58 168.29V175.62" stroke="white" stroke-width="2" stroke-miterlimit="10"/>
<path d="M459.12 87.46L470.08 115.54" stroke="#2B266D" stroke-width="2" stroke-miterlimit="10"/>
<path d="M491.82 85.74C489.86 94.81 486.8 113.12 486.42 115.34" stroke="#2B266D" stroke-width="2" stroke-miterlimit="10"/>
<path d="M436.78 110.86C442.45 116.12 448.01 121.6 453.29 127.2" stroke="#2B266D" stroke-width="2" stroke-miterlimit="10"/>
<path d="M460.3 154.17H450.88L430.51 182.94L467.48 182.88L474.52 166.49L460.3 154.17Z" fill="#2B266D"/>
<path d="M703.65 78.8501H604.27C599.802 78.8501 596.18 82.4721 596.18 86.9401V120.01C596.18 124.478 599.802 128.1 604.27 128.1H703.65C708.118 128.1 711.74 124.478 711.74 120.01V86.9401C711.74 82.4721 708.118 78.8501 703.65 78.8501Z" fill="#2B266D"/>
<path d="M626.396 114.15V92.4499H641.09V96.0769H630.612V101.099H639.075V104.757H630.612V114.15H626.396ZM651.006 104.106C651.006 102.339 649.797 101.254 647.906 101.254C646.201 101.254 644.992 102.308 644.806 103.982L641.334 103.362C641.83 100.262 644.589 98.2779 647.906 98.2779C651.998 98.2779 654.788 100.479 654.788 104.633V114.15H651.006V111.887C650.138 113.406 648.247 114.398 646.325 114.398C643.256 114.398 641.117 112.414 641.117 109.748C641.117 106.679 643.442 105.036 648.092 104.54L651.006 104.261V104.106ZM644.899 109.624C644.899 110.709 645.767 111.515 647.193 111.515C649.611 111.515 651.006 109.686 651.006 107.392V107.051L648.03 107.392C645.953 107.64 644.899 108.508 644.899 109.624ZM664.059 114.398C660.277 114.398 658.014 112.073 657.239 109.779L660.432 108.477C660.897 110.058 662.106 111.36 664.059 111.36C665.516 111.36 666.477 110.585 666.477 109.593C666.477 106.648 657.952 108.57 657.952 102.649C657.952 100.2 660.091 98.2779 663.501 98.2779C666.539 98.2779 669.112 99.8279 669.794 102.091L666.632 103.424C666.198 101.936 664.834 101.161 663.563 101.161C662.323 101.161 661.486 101.688 661.486 102.587C661.486 105.346 670.073 103.145 670.073 109.531C670.073 112.228 667.655 114.398 664.059 114.398ZM681.949 113.995C681.174 114.274 680.337 114.398 679.438 114.398C676.276 114.398 673.92 112.693 673.92 109.035V101.812H671.285V98.5259H673.92V93.9379H677.826V98.5259H681.763V101.812H677.826V108.663C677.826 110.151 678.632 110.957 679.841 110.957C680.43 110.957 681.112 110.864 681.67 110.585L681.949 113.995Z" fill="white"/>
<path d="M646.12 126.36L652.94 139.54C653.37 140.36 654.55 140.36 654.97 139.54L661.79 126.36H646.11H646.12Z" fill="#2B266D"/>
<path d="M204.47 78.8501H105.09C100.622 78.8501 97 82.4721 97 86.9401V120.01C97 124.478 100.622 128.1 105.09 128.1H204.47C208.938 128.1 212.56 124.478 212.56 120.01V86.9401C212.56 82.4721 208.938 78.8501 204.47 78.8501Z" fill="#2B266D"/>
<path d="M129.356 114.398C125.078 114.398 121.513 111.515 120.986 107.578L124.737 106.431C125.078 109.035 127.093 110.802 129.511 110.802C131.774 110.802 133.262 109.717 133.262 108.074C133.262 103.393 121.761 106.028 121.761 98.1539C121.761 94.6819 125.016 92.2019 129.294 92.2019C133.417 92.2019 136.672 94.4029 137.354 97.6889L133.572 99.2389C133.138 97.1309 131.557 95.7979 129.294 95.7979C127.217 95.7979 125.946 96.6969 125.946 98.1539C125.946 102.091 137.54 99.1769 137.54 107.981C137.54 111.825 134.254 114.398 129.356 114.398ZM140.386 114.15V92.2019H144.292V114.15H140.386ZM155.392 114.398C150.649 114.398 147.239 110.988 147.239 106.338C147.239 101.688 150.649 98.2779 155.392 98.2779C160.135 98.2779 163.545 101.688 163.545 106.338C163.545 110.988 160.135 114.398 155.392 114.398ZM151.176 106.338C151.176 109.128 152.85 111.019 155.392 111.019C157.903 111.019 159.608 109.128 159.608 106.338C159.608 103.548 157.903 101.657 155.392 101.657C152.85 101.657 151.176 103.548 151.176 106.338ZM169.565 114.15L164.698 98.5259H168.635L171.332 108.694L174.463 98.5259H178.028L181.159 108.694L183.825 98.5259H187.762L182.926 114.15H179.423L176.261 103.951L173.037 114.15H169.565Z" fill="white"/>
<path d="M146.94 126.36L153.76 139.54C154.19 140.36 155.37 140.36 155.79 139.54L162.61 126.36H146.93H146.94Z" fill="#2B266D"/>
<path d="M278.03 257.79H436.99C441.458 257.79 445.08 254.168 445.08 249.7V216.63C445.08 212.162 441.458 208.54 436.99 208.54L278.03 208.54C273.562 208.54 269.94 212.162 269.94 216.63V249.7C269.94 254.168 273.562 257.79 278.03 257.79Z" fill="#2B266D"/>
<path d="M292.515 239.8C292.98 239.924 293.507 239.986 293.972 239.986C295.863 239.986 296.855 239.118 296.855 236.855V221.82H300.885V236.948C300.885 241.536 298.436 243.675 294.84 243.675C294.189 243.675 293.042 243.551 292.515 243.427V239.8ZM319.251 227.896V243.52H315.345V241.164C314.353 242.683 312.586 243.768 310.385 243.768C306.975 243.768 304.681 241.536 304.681 238.126V227.896H308.587V237.196C308.587 239.025 309.734 240.296 311.563 240.296C313.95 240.296 315.345 238.25 315.345 234.747V227.896H319.251ZM328.483 243.768C324.701 243.768 322.438 241.443 321.663 239.149L324.856 237.847C325.321 239.428 326.53 240.73 328.483 240.73C329.94 240.73 330.901 239.955 330.901 238.963C330.901 236.018 322.376 237.94 322.376 232.019C322.376 229.57 324.515 227.648 327.925 227.648C330.963 227.648 333.536 229.198 334.218 231.461L331.056 232.794C330.622 231.306 329.258 230.531 327.987 230.531C326.747 230.531 325.91 231.058 325.91 231.957C325.91 234.716 334.497 232.515 334.497 238.901C334.497 241.598 332.079 243.768 328.483 243.768ZM346.373 243.365C345.598 243.644 344.761 243.768 343.862 243.768C340.7 243.768 338.344 242.063 338.344 238.405V231.182H335.709V227.896H338.344V223.308H342.25V227.896H346.187V231.182H342.25V238.033C342.25 239.521 343.056 240.327 344.265 240.327C344.854 240.327 345.536 240.234 346.094 239.955L346.373 243.365ZM366.584 231.678C366.026 231.43 365.282 231.306 364.6 231.306C362.399 231.306 360.415 233.135 360.415 237.785V243.52H356.509V227.896H360.415V230.748C361.19 228.981 363.236 227.648 365.127 227.648C365.685 227.648 366.367 227.741 366.832 227.896L366.584 231.678ZM369.103 243.52V227.896H373.009V243.52H369.103ZM368.638 223.091C368.638 221.758 369.661 220.704 371.056 220.704C372.482 220.704 373.536 221.758 373.536 223.091C373.536 224.455 372.482 225.509 371.056 225.509C369.661 225.509 368.638 224.455 368.638 223.091ZM383.24 243.055C378.652 243.055 375.955 239.955 375.955 235.367C375.955 230.748 378.652 227.648 383.147 227.648C385.069 227.648 386.681 228.392 387.549 229.477V227.896H391.424V242.528C391.424 246.651 388.324 249.41 383.674 249.41C380.016 249.41 377.071 247.457 376.544 244.543L380.171 243.954C380.357 245.411 381.845 246.279 383.674 246.279C386.03 246.279 387.58 244.946 387.58 242.931V241.226C386.805 242.342 385.1 243.055 383.24 243.055ZM379.83 235.367C379.83 237.971 381.411 239.676 383.798 239.676C386.216 239.676 387.797 237.971 387.797 235.367C387.797 232.732 386.216 231.027 383.798 231.027C381.411 231.027 379.83 232.732 379.83 235.367ZM395.229 243.52V221.572H399.135V230.314C400.158 228.609 401.925 227.648 404.095 227.648C407.598 227.648 409.923 229.88 409.923 233.29V243.52H406.017V234.251C406.017 232.329 404.839 231.12 402.917 231.12C400.499 231.12 399.135 233.197 399.135 236.731V243.52H395.229ZM422.45 243.365C421.675 243.644 420.838 243.768 419.939 243.768C416.777 243.768 414.421 242.063 414.421 238.405V231.182H411.786V227.896H414.421V223.308H418.327V227.896H422.264V231.182H418.327V238.033C418.327 239.521 419.133 240.327 420.342 240.327C420.931 240.327 421.613 240.234 422.171 239.955L422.45 243.365Z" fill="white"/>
<path d="M443.34 241L456.52 234.18C457.34 233.75 457.34 232.57 456.52 232.15L443.34 225.33V241.01V241Z" fill="#2B266D"/>
<path d="M521.65 246.6C528.64 247.65 524.25 169.31 514.59 156.81" stroke="#2B266D" stroke-width="2" stroke-miterlimit="10"/>
<path d="M627.29 310.95L580.44 357.8C576.69 361.55 570.61 361.55 566.86 357.8L512.47 303.37C511.33 302.23 510.53 300.79 510.17 299.22L501.53 251.29C500.57 245.94 501.3 240.31 506.45 235.17L507.05 235.56C510.9 231.71 515.47 231.04 520.82 232.01L568.75 240.65C570.32 241.01 571.76 241.81 572.9 242.95L627.29 297.38C631.04 301.13 631.04 307.21 627.29 310.96V310.95Z" fill="#2B266D"/>
<path d="M629.38 307.48L582.53 354.33C578.78 358.08 572.7 358.08 568.95 354.33L515.23 300.61C514.09 299.47 513.29 298.03 512.93 296.46L504.29 248.53C503.33 243.18 505.04 237.69 508.89 233.84C512.74 229.99 518.22 228.28 523.58 229.24L571.51 237.88C573.08 238.24 574.52 239.04 575.66 240.18L629.38 293.9C633.13 297.65 633.13 303.73 629.38 307.48Z" fill="#FBC63C" stroke="#2B266D" stroke-width="2" stroke-miterlimit="10"/>
<path d="M521.651 253.66C525.55 253.66 528.711 250.499 528.711 246.6C528.711 242.701 525.55 239.54 521.651 239.54C517.752 239.54 514.591 242.701 514.591 246.6C514.591 250.499 517.752 253.66 521.651 253.66Z" fill="#2B266D" stroke="#2B266D" stroke-width="2" stroke-miterlimit="10"/>
<path d="M514.58 156.81C504.91 144.31 450.59 138.92 455.51 171.34C460.43 203.76 496.46 242.81 521.64 246.59" stroke="#2B266D" stroke-width="2" stroke-miterlimit="10"/>
<path d="M489.25 209.35C510.093 209.35 526.99 192.453 526.99 171.61C526.99 150.767 510.093 133.87 489.25 133.87C468.407 133.87 451.51 150.767 451.51 171.61C451.51 192.453 468.407 209.35 489.25 209.35Z" fill="#2B266D"/>
<path d="M486.44 206.03C507.283 206.03 524.18 189.133 524.18 168.29C524.18 147.447 507.283 130.55 486.44 130.55C465.597 130.55 448.7 147.447 448.7 168.29C448.7 189.133 465.597 206.03 486.44 206.03Z" fill="#FF5787" stroke="#2B266D" stroke-width="2" stroke-miterlimit="10"/>
<path d="M579.479 217.28H578.969C578.659 224.94 575.43 232.18 569.96 237.55C564.49 242.91 557.18 245.98 549.52 246.15V246.5C557.28 246.65 564.679 249.79 570.169 255.28C575.679 260.75 578.84 268.16 579 275.92H579.549C579.709 268.21 582.82 260.87 588.25 255.4C593.66 249.93 600.969 246.75 608.669 246.5V246.14C601.059 245.91 593.82 242.82 588.4 237.46C582.99 232.1 579.8 224.89 579.49 217.29L579.479 217.28Z" fill="#38C396" stroke="#2B266D" stroke-width="2" stroke-miterlimit="10"/>
<path d="M632.36 252.61H632.15C632.02 255.79 630.68 258.8 628.41 261.03C626.14 263.25 623.1 264.53 619.92 264.6V264.74C623.14 264.8 626.22 266.11 628.49 268.39C630.78 270.66 632.09 273.74 632.16 276.96H632.39C632.46 273.76 633.75 270.71 636 268.44C638.24 266.17 641.28 264.85 644.48 264.75V264.6C641.32 264.5 638.31 263.22 636.06 261C633.82 258.78 632.49 255.78 632.36 252.62V252.61Z" fill="#FBC63C" stroke="#2B266D" stroke-width="2" stroke-miterlimit="10"/>
</svg>
