<svg width="800" height="400" viewBox="0 0 800 400" fill="none" xmlns="http://www.w3.org/2000/svg">
<path d="M702.864 124.272H97.1362C88.8695 124.272 82.168 130.974 82.168 139.241V139.251C82.168 147.518 88.8695 154.219 97.1362 154.219H702.864C711.131 154.219 717.832 147.518 717.832 139.251V139.241C717.832 130.974 711.131 124.272 702.864 124.272Z" fill="white" stroke="#2B266D" stroke-width="2" stroke-miterlimit="10"/>
<path d="M521.688 146.697L280.688 146.697L280.688 131.697L521.687 131.697C521.687 131.697 521.687 135.06 521.687 139.197C521.687 143.334 521.688 146.697 521.688 146.697Z" fill="#8EE9CC"/>
<path d="M159.688 146.697L100.947 146.697C99.7006 146.697 98.6875 143.334 98.6875 139.197C98.6875 135.06 99.7006 131.697 100.947 131.697L159.688 131.697L159.688 146.697Z" fill="#FF5787"/>
<path d="M159.687 146.697L280.688 146.697L280.688 131.697L159.687 131.697L159.687 146.697Z" fill="#FBC63C"/>
<path d="M521.687 146.697L642.688 146.697L642.688 131.697L521.687 131.697L521.687 146.697Z" fill="#5ED7B1"/>
<path d="M687.188 146.697L642.688 146.697L642.688 131.697L687.188 131.697C691.33 131.697 694.688 135.055 694.688 139.197C694.688 143.339 691.33 146.697 687.188 146.697Z" fill="#5A51E7"/>
<path d="M125.255 139.189V146.709" stroke="white" stroke-width="2" stroke-miterlimit="10"/>
<path d="M142.491 139.189V146.709" stroke="white" stroke-width="2" stroke-miterlimit="10"/>
<path d="M159.688 131.697L159.688 146.697" stroke="white" stroke-width="2" stroke-miterlimit="10"/>
<path d="M176.955 139.189V146.709" stroke="white" stroke-width="2" stroke-miterlimit="10"/>
<path d="M194.185 139.189V146.709" stroke="white" stroke-width="2" stroke-miterlimit="10"/>
<path d="M211.428 139.189V146.709" stroke="white" stroke-width="2" stroke-miterlimit="10"/>
<path d="M228.656 139.189V146.709" stroke="white" stroke-width="2" stroke-miterlimit="10"/>
<path d="M245.892 139.189V146.709" stroke="white" stroke-width="2" stroke-miterlimit="10"/>
<path d="M262.968 139.221V146.731" stroke="white" stroke-width="2" stroke-miterlimit="10"/>
<path d="M280.356 139.189V146.709" stroke="white" stroke-width="2" stroke-miterlimit="10"/>
<path d="M297.688 139.697L297.688 146.697" stroke="white" stroke-width="2" stroke-miterlimit="10"/>
<path d="M314.827 139.189V146.709" stroke="white" stroke-width="2" stroke-miterlimit="10"/>
<path d="M332.05 139.189V146.709" stroke="white" stroke-width="2" stroke-miterlimit="10"/>
<path d="M349.285 139.189V146.709" stroke="white" stroke-width="2" stroke-miterlimit="10"/>
<path d="M366.528 139.189V146.709" stroke="white" stroke-width="2" stroke-miterlimit="10"/>
<path d="M383.757 139.189V146.709" stroke="white" stroke-width="2" stroke-miterlimit="10"/>
<path d="M400.979 139.189V146.709" stroke="white" stroke-width="2" stroke-miterlimit="10"/>
<path d="M418.222 139.189V146.709" stroke="white" stroke-width="2" stroke-miterlimit="10"/>
<path d="M435.45 139.189V146.709" stroke="white" stroke-width="2" stroke-miterlimit="10"/>
<path d="M452.687 139.189V146.709" stroke="white" stroke-width="2" stroke-miterlimit="10"/>
<path d="M469.922 139.189V146.709" stroke="white" stroke-width="2" stroke-miterlimit="10"/>
<path d="M487.151 139.189V146.709" stroke="white" stroke-width="2" stroke-miterlimit="10"/>
<path d="M504.38 139.189V146.709" stroke="white" stroke-width="2" stroke-miterlimit="10"/>
<path d="M521.622 139.189V146.709" stroke="white" stroke-width="2" stroke-miterlimit="10"/>
<path d="M538.852 139.189V146.709" stroke="white" stroke-width="2" stroke-miterlimit="10"/>
<path d="M556.08 139.189V146.709" stroke="white" stroke-width="2" stroke-miterlimit="10"/>
<path d="M573.323 139.189V146.709" stroke="white" stroke-width="2" stroke-miterlimit="10"/>
<path d="M590.552 139.189V146.709" stroke="white" stroke-width="2" stroke-miterlimit="10"/>
<path d="M607.78 139.189V146.709" stroke="white" stroke-width="2" stroke-miterlimit="10"/>
<path d="M625.023 139.189V146.709" stroke="white" stroke-width="2" stroke-miterlimit="10"/>
<path d="M642.252 139.189V146.709" stroke="white" stroke-width="2" stroke-miterlimit="10"/>
<path d="M659.48 139.189V146.709" stroke="white" stroke-width="2" stroke-miterlimit="10"/>
<path d="M676.717 139.189V146.709" stroke="white" stroke-width="2" stroke-miterlimit="10"/>
<path d="M125.255 139.189V146.709" stroke="white" stroke-width="2" stroke-miterlimit="10"/>
<path d="M464.346 56.2661L475.59 85.0741" stroke="#2B266D" stroke-width="2" stroke-miterlimit="10"/>
<path d="M497.894 54.5C495.883 63.8052 492.743 82.5899 492.354 84.8674" stroke="#2B266D" stroke-width="2" stroke-miterlimit="10"/>
<path d="M441.437 80.2722C447.254 85.6686 452.958 91.2907 458.375 97.0359" stroke="#2B266D" stroke-width="2" stroke-miterlimit="10"/>
<path d="M465.562 124.704H455.898L435 154.22L472.929 154.158L480.151 137.343L465.562 124.704Z" fill="#2B266D"/>
<path d="M535.608 219.532C542.78 220.609 538.276 140.238 528.365 127.414" stroke="#2B266D" stroke-width="2" stroke-miterlimit="10"/>
<path d="M636.874 285.55L588.809 333.615C584.962 337.462 578.724 337.462 574.877 333.615L519.077 277.773C517.907 276.604 517.087 275.127 516.717 273.516L507.853 224.343C506.868 218.854 507.617 213.078 512.901 207.805L513.516 208.205C517.466 204.256 522.155 203.568 527.643 204.563L576.816 213.427C578.427 213.797 579.904 214.617 581.074 215.787L636.874 271.628C640.721 275.475 640.721 281.713 636.874 285.56V285.55Z" fill="#2B266D"/>
<path d="M639.018 281.99L590.953 330.055C587.106 333.902 580.868 333.902 577.021 330.055L521.908 274.942C520.739 273.772 519.918 272.295 519.549 270.684L510.685 221.512C509.7 216.023 511.454 210.391 515.404 206.441C519.354 202.491 524.976 200.737 530.475 201.721L579.648 210.585C581.258 210.955 582.736 211.776 583.905 212.945L639.018 268.058C642.865 271.905 642.865 278.143 639.018 281.99Z" fill="white" stroke="#2B266D" stroke-width="2" stroke-miterlimit="10"/>
<path d="M589.472 273.542C587.77 271.841 586.037 270.926 584.284 270.809C582.531 270.692 580.149 271.225 577.159 272.409C570.055 275.457 564.305 277.111 559.897 277.338C555.499 277.575 551.288 275.672 547.254 271.638C543.609 267.992 541.831 263.761 541.932 258.954C542.022 254.136 543.918 249.488 547.62 245.009L540.791 238.181L545.93 233.042L552.884 239.997C557.311 236.684 561.98 235.208 566.872 235.59C571.764 235.951 576.216 238.222 580.229 242.361L580.324 242.581L569.637 253.268C567.284 250.915 565.079 249.611 563.032 249.368C560.974 249.114 559.19 249.742 557.68 251.253C556.17 252.763 555.489 254.389 555.711 256.058C555.923 257.738 556.764 259.313 558.234 260.784C559.705 262.254 561.322 263.096 563.033 263.233C564.744 263.371 567.158 262.849 570.253 261.644C577.378 258.785 583.181 257.247 587.652 257.02C592.123 256.793 596.334 258.654 600.284 262.604C604.234 266.554 605.885 270.555 605.805 275.194C605.736 279.844 603.913 284.356 600.338 288.75L606.841 295.253L601.702 300.392L595.168 293.858C590.584 297.622 585.652 299.633 580.394 299.87C575.125 300.117 570.106 297.762 565.347 292.835L565.252 292.551L575.876 281.928C578.555 284.607 581.054 285.952 583.394 285.965C585.735 285.977 587.834 285.055 589.679 283.21C591.231 281.658 591.954 280.031 591.848 278.331C591.741 276.63 590.953 275.045 589.482 273.574L589.472 273.542Z" fill="#36318C"/>
<path d="M528.493 226.776C532.493 226.776 535.736 223.533 535.736 219.533C535.736 215.533 532.493 212.29 528.493 212.29C524.493 212.29 521.25 215.533 521.25 219.533C521.25 223.533 524.493 226.776 528.493 226.776Z" fill="#2B266D" stroke="#2B266D" stroke-width="2" stroke-miterlimit="10"/>
<path d="M528.357 127.412C518.436 114.588 462.708 109.058 467.755 142.319C472.803 175.579 509.767 215.642 535.6 219.52" stroke="#2B266D" stroke-width="2" stroke-miterlimit="10"/>
<path d="M495.262 181.316C516.646 181.316 533.981 163.981 533.981 142.597C533.981 121.214 516.646 103.879 495.262 103.879C473.879 103.879 456.544 121.214 456.544 142.597C456.544 163.981 473.879 181.316 495.262 181.316Z" fill="#2B266D"/>
<path d="M492.377 177.909C513.76 177.909 531.095 160.574 531.095 139.191C531.095 117.807 513.76 100.472 492.377 100.472C470.993 100.472 453.658 117.807 453.658 139.191C453.658 160.574 470.993 177.909 492.377 177.909Z" fill="#B8B4F5" stroke="#2B266D" stroke-width="2" stroke-miterlimit="10"/>
</svg>
