<svg width="800" height="400" viewBox="0 0 800 400" fill="none" xmlns="http://www.w3.org/2000/svg">
<path d="M703.014 152.772H97.2866C89.0199 152.772 82.3184 159.474 82.3184 167.741V167.751C82.3184 176.018 89.0199 182.719 97.2866 182.719H703.014C711.281 182.719 717.982 176.018 717.982 167.751V167.741C717.982 159.474 711.281 152.772 703.014 152.772Z" fill="white" stroke="#2B266D" stroke-width="2" stroke-miterlimit="10"/>
<path d="M691.712 175.219L401.039 175.219L401.039 160.126L691.712 160.126C697.878 160.126 702.891 163.51 702.891 167.673C702.891 171.835 697.878 175.219 691.712 175.219Z" fill="#38C396"/>
<path d="M300.238 175.23L106.307 175.23C102.193 175.23 98.8489 171.886 98.8489 167.772C98.8489 163.658 102.193 160.313 106.307 160.313L300.238 160.313L300.238 175.23Z" fill="#B81414"/>
<path d="M297.166 175.219L401.038 175.219L401.038 160.126L297.166 160.126L297.166 175.219Z" fill="#FBC63C"/>
<path d="M125.405 167.689V175.209" stroke="white" stroke-width="2" stroke-miterlimit="10"/>
<path d="M142.642 167.689V175.209" stroke="white" stroke-width="2" stroke-miterlimit="10"/>
<path d="M159.884 167.689V175.209" stroke="white" stroke-width="2" stroke-miterlimit="10"/>
<path d="M177.105 167.689V175.209" stroke="white" stroke-width="2" stroke-miterlimit="10"/>
<path d="M194.335 167.689V175.209" stroke="white" stroke-width="2" stroke-miterlimit="10"/>
<path d="M211.577 167.689V175.209" stroke="white" stroke-width="2" stroke-miterlimit="10"/>
<path d="M228.807 167.689V175.209" stroke="white" stroke-width="2" stroke-miterlimit="10"/>
<path d="M246.041 167.689V175.209" stroke="white" stroke-width="2" stroke-miterlimit="10"/>
<path d="M263.118 167.721V175.231" stroke="white" stroke-width="2" stroke-miterlimit="10"/>
<path d="M280.507 167.689V175.209" stroke="white" stroke-width="2" stroke-miterlimit="10"/>
<path d="M297.735 160.313V175.21" stroke="white" stroke-width="2" stroke-miterlimit="10"/>
<path d="M314.978 167.689V175.209" stroke="white" stroke-width="2" stroke-miterlimit="10"/>
<path d="M332.2 167.689V175.209" stroke="white" stroke-width="2" stroke-miterlimit="10"/>
<path d="M349.436 167.689V175.209" stroke="white" stroke-width="2" stroke-miterlimit="10"/>
<path d="M366.678 167.689V175.209" stroke="white" stroke-width="2" stroke-miterlimit="10"/>
<path d="M383.907 167.689V175.209" stroke="white" stroke-width="2" stroke-miterlimit="10"/>
<path d="M401.129 167.689V175.209" stroke="white" stroke-width="2" stroke-miterlimit="10"/>
<path d="M418.372 167.689V175.209" stroke="white" stroke-width="2" stroke-miterlimit="10"/>
<path d="M435.601 167.689V175.209" stroke="white" stroke-width="2" stroke-miterlimit="10"/>
<path d="M452.837 167.689V175.209" stroke="white" stroke-width="2" stroke-miterlimit="10"/>
<path d="M470.072 167.689V175.209" stroke="white" stroke-width="2" stroke-miterlimit="10"/>
<path d="M487.302 167.689V175.209" stroke="white" stroke-width="2" stroke-miterlimit="10"/>
<path d="M504.53 167.689V175.209" stroke="white" stroke-width="2" stroke-miterlimit="10"/>
<path d="M521.772 167.689V175.209" stroke="white" stroke-width="2" stroke-miterlimit="10"/>
<path d="M539.002 167.689V175.209" stroke="white" stroke-width="2" stroke-miterlimit="10"/>
<path d="M556.23 167.689V175.209" stroke="white" stroke-width="2" stroke-miterlimit="10"/>
<path d="M573.474 167.689V175.209" stroke="white" stroke-width="2" stroke-miterlimit="10"/>
<path d="M590.702 167.689V175.209" stroke="white" stroke-width="2" stroke-miterlimit="10"/>
<path d="M607.931 167.689V175.209" stroke="white" stroke-width="2" stroke-miterlimit="10"/>
<path d="M625.174 167.689V175.209" stroke="white" stroke-width="2" stroke-miterlimit="10"/>
<path d="M642.402 167.689V175.209" stroke="white" stroke-width="2" stroke-miterlimit="10"/>
<path d="M659.631 167.689V175.209" stroke="white" stroke-width="2" stroke-miterlimit="10"/>
<path d="M676.867 167.689V175.209" stroke="white" stroke-width="2" stroke-miterlimit="10"/>
<path d="M125.405 167.689V175.209" stroke="white" stroke-width="2" stroke-miterlimit="10"/>
<path d="M188.9 84.7661L200.145 113.574" stroke="#2B266D" stroke-width="2" stroke-miterlimit="10"/>
<path d="M222.448 83C220.437 92.3052 217.298 111.09 216.908 113.367" stroke="#2B266D" stroke-width="2" stroke-miterlimit="10"/>
<path d="M165.991 108.772C171.808 114.169 177.512 119.791 182.929 125.536" stroke="#2B266D" stroke-width="2" stroke-miterlimit="10"/>
<path d="M190.117 153.204H180.453L159.555 182.72L197.483 182.658L204.706 165.843L190.117 153.204Z" fill="#2B266D"/>
<path d="M260.163 248.032C267.334 249.109 262.83 168.738 252.92 155.914" stroke="#2B266D" stroke-width="2" stroke-miterlimit="10"/>
<path d="M361.428 314.05L313.364 362.115C309.517 365.962 303.279 365.962 299.432 362.115L243.632 306.273C242.462 305.104 241.641 303.627 241.272 302.016L232.408 252.843C231.423 247.354 232.172 241.578 237.456 236.305L238.071 236.705C242.021 232.756 246.709 232.068 252.198 233.063L301.371 241.927C302.981 242.297 304.459 243.117 305.628 244.287L361.428 300.128C365.276 303.975 365.276 310.213 361.428 314.06V314.05Z" fill="#2B266D"/>
<path d="M363.573 310.49L315.508 358.555C311.661 362.402 305.423 362.402 301.576 358.555L246.463 303.442C245.294 302.272 244.473 300.795 244.104 299.184L235.24 250.012C234.255 244.523 236.009 238.891 239.959 234.941C243.909 230.991 249.531 229.237 255.03 230.221L304.202 239.085C305.813 239.455 307.29 240.276 308.46 241.445L363.573 296.558C367.42 300.405 367.42 306.643 363.573 310.49Z" fill="#7169EA" stroke="#2B266D" stroke-width="2" stroke-miterlimit="10"/>
<path d="M314.026 302.042C312.324 300.341 310.592 299.426 308.839 299.309C307.086 299.192 304.704 299.725 301.713 300.909C294.61 303.957 288.859 305.611 284.451 305.838C280.053 306.075 275.843 304.172 271.809 300.138C268.163 296.492 266.386 292.261 266.487 287.454C266.577 282.636 268.473 277.988 272.174 273.509L265.346 266.681L270.485 261.542L277.439 268.497C281.866 265.184 286.535 263.708 291.427 264.09C296.318 264.451 300.771 266.722 304.784 270.861L304.878 271.081L294.192 281.768C291.839 279.415 289.633 278.111 287.586 277.868C285.529 277.614 283.745 278.242 282.235 279.753C280.725 281.263 280.044 282.889 280.266 284.558C280.477 286.238 281.318 287.813 282.789 289.284C284.26 290.754 285.877 291.596 287.588 291.733C289.299 291.871 291.713 291.349 294.808 290.144C301.932 287.285 307.736 285.747 312.207 285.52C316.678 285.293 320.888 287.154 324.838 291.104C328.788 295.054 330.44 299.055 330.36 303.694C330.29 308.344 328.468 312.856 324.892 317.25L331.395 323.753L326.257 328.892L319.722 322.358C315.139 326.122 310.207 328.133 304.949 328.37C299.68 328.617 294.661 326.262 289.902 321.335L289.807 321.051L300.43 310.428C303.109 313.107 305.608 314.452 307.949 314.465C310.29 314.477 312.388 313.555 314.234 311.71C315.786 310.158 316.509 308.531 316.403 306.831C316.296 305.13 315.508 303.545 314.037 302.074L314.026 302.042Z" fill="#2B266D"/>
<path d="M253.048 255.276C257.048 255.276 260.291 252.033 260.291 248.033C260.291 244.033 257.048 240.79 253.048 240.79C249.048 240.79 245.805 244.033 245.805 248.033C245.805 252.033 249.048 255.276 253.048 255.276Z" fill="#2B266D" stroke="#2B266D" stroke-width="2" stroke-miterlimit="10"/>
<path d="M252.911 155.912C242.991 143.088 187.262 137.558 192.31 170.819C197.357 204.079 234.321 244.142 260.154 248.02" stroke="#2B266D" stroke-width="2" stroke-miterlimit="10"/>
<path d="M219.817 209.816C241.201 209.816 258.536 192.481 258.536 171.097C258.536 149.714 241.201 132.379 219.817 132.379C198.433 132.379 181.099 149.714 181.099 171.097C181.099 192.481 198.433 209.816 219.817 209.816Z" fill="#2B266D"/>
<path d="M216.931 206.409C238.315 206.409 255.65 189.074 255.65 167.691C255.65 146.307 238.315 128.972 216.931 128.972C195.548 128.972 178.213 146.307 178.213 167.691C178.213 189.074 195.548 206.409 216.931 206.409Z" fill="#FF5787" stroke="#2B266D" stroke-width="2" stroke-miterlimit="10"/>
</svg>
