<svg width="21" height="21" viewBox="0 0 21 21" fill="none" xmlns="http://www.w3.org/2000/svg">
<g id="Group">
<path id="Vector" d="M9.56813 20.7614C9.56813 20.7866 9.56813 20.8372 9.56813 20.8625H11.2596C11.2596 20.8372 11.2596 20.7866 11.2596 20.7614C11.2596 15.5268 15.5009 11.2784 20.7267 11.2784C20.752 11.2784 20.8025 11.2784 20.8277 11.2784V9.58411C20.8025 9.58411 20.752 9.58411 20.7267 9.58411C15.5009 9.58411 11.2596 5.33575 11.2596 0.101152C11.2596 0.0758637 11.2596 0.0252879 11.2596 0H9.56813C9.56813 0.0252879 9.56813 0.0758637 9.56813 0.101152C9.56813 5.33575 5.32684 9.58411 0.100981 9.58411C0.0757356 9.58411 0.0252457 9.58411 0 9.58411V11.2784C0.0252457 11.2784 0.0757356 11.2784 0.100981 11.2784C5.32684 11.2784 9.56813 15.5268 9.56813 20.7614Z" fill="#F4502A"/>
</g>
</svg>
