<svg width="127" height="40" viewBox="0 0 127 40" fill="none" xmlns="http://www.w3.org/2000/svg">
<g id="Group">
<path id="Vector" d="M0 3.00926C0 1.31497 1.26229 0 2.979 0C4.72095 0 6.03373 1.31497 6.03373 3.00926C6.03373 4.67826 4.72095 5.99323 2.979 5.99323C1.26229 5.99323 0 4.67826 0 3.00926ZM0.681634 9.58411H5.3016V31.0283H0.681634V9.58411Z" fill="#15514D"/>
<path id="Vector_2" d="M28.4519 9.58409V29.8397C28.4519 35.3777 24.2359 39.1203 18.0759 39.1203C13.052 39.1203 9.11369 36.4398 8.43206 32.5202L12.7743 31.7869C13.0268 33.911 15.2736 35.3272 18.0759 35.3272C21.5093 35.3272 23.9077 33.2788 23.9077 30.2949V27.6902C22.8474 29.3086 20.348 30.4213 17.5458 30.4213C11.1838 30.4213 7.52321 26.0465 7.52321 19.8257C7.52321 13.6049 11.1838 9.23006 17.47 9.23006C20.1966 9.23006 22.6454 10.368 23.8824 12.037V9.5588H28.4519V9.58409ZM24.1854 19.8257C24.1854 15.8555 21.8123 13.2761 18.2022 13.2761C14.5415 13.2761 12.1684 15.8808 12.1684 19.8257C12.1684 23.7706 14.5415 26.3752 18.2022 26.3752C21.787 26.3752 24.1854 23.7959 24.1854 19.8257Z" fill="#15514D"/>
<path id="Vector_3" d="M31.3553 9.58409H35.9752V13.1497C37.4143 10.8485 39.8883 9.23006 43.0188 9.23006C47.563 9.23006 50.744 12.2393 50.744 16.8923V31.0282H46.124V17.9544C46.124 15.2739 44.4578 13.4026 41.7565 13.4026C38.1464 13.4026 35.9752 16.4624 35.9752 21.6211V31.0282H31.3553V9.58409V9.58409Z" fill="#15514D"/>
<path id="Vector_4" d="M52.9654 3.00926C52.9654 1.31497 54.2277 0 55.9444 0C57.6864 0 58.9991 1.31497 58.9991 3.00926C58.9991 4.67826 57.6864 5.99323 55.9444 5.99323C54.2529 5.99323 52.9654 4.67826 52.9654 3.00926ZM53.647 9.58411H58.267V31.0283H53.647V9.58411Z" fill="#15514D"/>
<path id="Vector_5" d="M70.8142 31.357C66.7748 31.357 63.7706 29.1317 63.7706 24.2511V13.529H60.0342V9.58412H63.7706V3.18629H68.3906V9.55884H73.9194V13.529H68.3906V23.9982C68.3906 26.1224 69.5771 27.2351 71.3191 27.2351C72.1269 27.2351 73.1115 27.1086 73.9194 26.7293L74.2223 30.8512C73.1872 31.18 72.0007 31.357 70.8142 31.357Z" fill="#15514D"/>
<path id="Vector_6" d="M75.7372 3.00926C75.7372 1.31497 76.9994 0 78.7161 0C80.4581 0 81.7709 1.31497 81.7709 3.00926C81.7709 4.67826 80.4581 5.99323 78.7161 5.99323C77.0247 5.99323 75.7372 4.67826 75.7372 3.00926ZM76.4188 9.58411H81.0388V31.0283H76.4188V9.58411Z" fill="#15514D"/>
<path id="Vector_7" d="M83.3109 20.3062C83.3109 13.883 87.9056 9.23006 94.3685 9.23006C100.781 9.23006 105.426 13.8577 105.426 20.3062C105.426 26.7546 100.781 31.357 94.3433 31.357C87.9056 31.357 83.3109 26.7293 83.3109 20.3062ZM100.73 20.3062C100.73 16.1842 98.1301 13.2761 94.3685 13.2761C90.5564 13.2761 88.0066 16.1589 88.0066 20.3062C88.0066 24.4281 90.5564 27.3362 94.3685 27.3362C98.1301 27.3109 100.73 24.4281 100.73 20.3062Z" fill="#15514D"/>
<path id="Vector_8" d="M107.269 9.58409H111.889V13.1497C113.328 10.8485 115.802 9.23006 118.933 9.23006C123.477 9.23006 126.658 12.2393 126.658 16.8923V31.0282H122.038V17.9544C122.038 15.2739 120.372 13.4026 117.67 13.4026C114.06 13.4026 111.889 16.4624 111.889 21.6211V31.0282H107.269V9.58409Z" fill="#15514D"/>
</g>
</svg>
