<svg width="800" height="400" viewBox="0 0 800 400" fill="none" xmlns="http://www.w3.org/2000/svg">
<path d="M697.627 99H599.373C597.51 99 596 100.619 596 102.616V160.384C596 162.381 597.51 164 599.373 164H697.627C699.49 164 701 162.381 701 160.384V102.616C701 100.619 699.49 99 697.627 99Z" fill="#2B266D" stroke="#2B266D" stroke-width="1.72806" stroke-miterlimit="10"/>
<path d="M697.555 99.854H603.979C602.205 99.854 600.767 101.414 600.767 103.337V157.371C600.767 159.294 602.205 160.854 603.979 160.854H697.555C699.329 160.854 700.767 159.294 700.767 157.371V103.337C700.767 101.414 699.329 99.854 697.555 99.854Z" fill="white" stroke="#2B266D" stroke-width="1.98225" stroke-miterlimit="10"/>
<rect x="610" y="110" width="80" height="42" rx="5" fill="#8EE9CC" stroke="#2B266D" stroke-width="2"/>
<path d="M697.627 174H599.373C597.51 174 596 175.619 596 177.616V235.384C596 237.381 597.51 239 599.373 239H697.627C699.49 239 701 237.381 701 235.384V177.616C701 175.619 699.49 174 697.627 174Z" fill="#2B266D" stroke="#2B266D" stroke-width="1.72806" stroke-miterlimit="10"/>
<path d="M697.555 174.854H603.979C602.205 174.854 600.767 176.414 600.767 178.337V232.371C600.767 234.294 602.205 235.854 603.979 235.854H697.555C699.329 235.854 700.767 234.294 700.767 232.371V178.337C700.767 176.414 699.329 174.854 697.555 174.854Z" fill="#B8B4F5" stroke="#2B266D" stroke-width="1.98225" stroke-miterlimit="10"/>
<rect x="628" y="218.719" width="41.4649" height="8" rx="4" fill="white"/>
<circle cx="648.732" cy="197.749" r="13.7489" fill="white"/>
<path d="M697.627 249H599.373C597.51 249 596 250.619 596 252.616V310.384C596 312.381 597.51 314 599.373 314H697.627C699.49 314 701 312.381 701 310.384V252.616C701 250.619 699.49 249 697.627 249Z" fill="#2B266D" stroke="#2B266D" stroke-width="1.72806" stroke-miterlimit="10"/>
<path d="M697.555 249.854H603.979C602.205 249.854 600.767 251.414 600.767 253.337V307.371C600.767 309.294 602.205 310.854 603.979 310.854H697.555C699.329 310.854 700.767 309.294 700.767 307.371V253.337C700.767 251.414 699.329 249.854 697.555 249.854Z" fill="#E4E7F5" stroke="#2B266D" stroke-width="1.98225" stroke-miterlimit="10"/>
<path d="M108.023 378C104.935 378 103.519 374.153 105.87 372.151L139.183 343.792C139.784 343.281 140.547 343 141.335 343H550.093C550.821 343 551.53 343.24 552.109 343.683L589.206 372.042C591.729 373.97 590.365 378 587.189 378H108.023Z" fill="#2B266D"/>
<path d="M553.561 376H213.273C195.131 376 187 366.548 187 355.534V89.5132C187 83.5588 194.103 78 201.947 78H555.453C562.748 78 568 83.1737 568 88.722V365.049C568 371.076 561.514 376 553.574 376H553.561Z" fill="#2B266D"/>
<path d="M556.44 78H207.56C200.071 78 194 82.695 194 88.4866V365.513C194 371.305 200.071 376 207.56 376H556.44C563.929 376 570 371.305 570 365.513V88.4866C570 82.695 563.929 78 556.44 78Z" fill="white" stroke="#2B266D" stroke-width="2" stroke-miterlimit="10"/>
<rect x="215.046" y="266.046" width="97.9071" height="62.9071" rx="5.93672" fill="white" stroke="#D5D4D2" stroke-width="2.09286"/>
<rect x="230.514" y="340.464" width="66.9714" height="8.37143" rx="4.18571" fill="#D5D4D2"/>
<rect x="331.046" y="266.046" width="97.9071" height="62.9071" rx="5.93672" fill="white" stroke="#D5D4D2" stroke-width="2.09286"/>
<rect x="346.514" y="340.464" width="66.9714" height="8.37143" rx="4.18571" fill="#D5D4D2"/>
<rect width="100" height="83.8357" transform="translate(446 265)" fill="white"/>
<rect x="447.046" y="266.046" width="97.9071" height="62.9071" rx="5.93672" fill="#E4E7F5" stroke="#E4E7F5" stroke-width="2.09286"/>
<rect x="462.514" y="340.464" width="66.9714" height="8.37143" rx="4.18571" fill="#D5D4D2"/>
<path d="M216.966 109.965C219.156 109.965 220.931 108.19 220.931 106C220.931 103.811 219.156 102.036 216.966 102.036C214.776 102.036 213.001 103.811 213.001 106C213.001 108.19 214.776 109.965 216.966 109.965Z" fill="#2B266D"/>
<path d="M229.205 109.964C231.395 109.964 233.17 108.189 233.17 106C233.17 103.81 231.395 102.035 229.205 102.035C227.016 102.035 225.241 103.81 225.241 106C225.241 108.189 227.016 109.964 229.205 109.964Z" fill="#2B266D"/>
<path d="M241.436 109.965C243.625 109.965 245.4 108.19 245.4 106C245.4 103.811 243.625 102.036 241.436 102.036C239.246 102.036 237.471 103.811 237.471 106C237.471 108.19 239.246 109.965 241.436 109.965Z" fill="#2B266D"/>
<rect x="267.4" y="100" width="272" height="12" rx="6" fill="#F0F2FA"/>
<rect x="409" y="151" width="125" height="16" rx="8" fill="#2B266D"/>
<rect x="409" y="186" width="117" height="8" rx="4" fill="#D5D4D2"/>
<rect x="409" y="204" width="125" height="8" rx="4" fill="#D5D4D2"/>
<rect x="409" y="222" width="99" height="8" rx="4" fill="#D5D4D2"/>
<path d="M385.348 141H220.652C217.531 141 215 143.531 215 146.652V234.345C215 237.466 217.531 239.997 220.652 239.997H385.348C388.469 239.997 391 237.466 391 234.345V146.652C391 143.531 388.469 141 385.348 141Z" fill="#FF5787" stroke="#FF5787" stroke-width="4.12204" stroke-miterlimit="10"/>
<path d="M303.004 214.076C316.022 214.076 326.574 203.524 326.574 190.506C326.574 177.489 316.022 166.936 303.004 166.936C289.987 166.936 279.434 177.489 279.434 190.506C279.434 203.524 289.987 214.076 303.004 214.076Z" fill="white" stroke="#FF5787" stroke-width="4.12204" stroke-miterlimit="10"/>
<path d="M313.318 189.631L297.481 180.494C296.816 180.112 295.966 180.592 295.966 181.368V199.655C295.966 200.431 296.804 200.911 297.481 200.529L313.318 191.392C313.983 191.01 313.983 190.037 313.318 189.643V189.631Z" fill="#2B266D"/>
<path d="M618.627 283H520.373C518.51 283 517 284.619 517 286.616V344.384C517 346.381 518.51 348 520.373 348H618.627C620.49 348 622 346.381 622 344.384V286.616C622 284.619 620.49 283 618.627 283Z" fill="#2B266D" stroke="#2B266D" stroke-width="1.72806" stroke-miterlimit="10"/>
<path d="M618.555 283.854H524.979C523.205 283.854 521.767 285.414 521.767 287.337V341.371C521.767 343.294 523.205 344.854 524.979 344.854H618.555C620.329 344.854 621.767 343.294 621.767 341.371V287.337C621.767 285.414 620.329 283.854 618.555 283.854Z" fill="#5ED7B1" stroke="#2B266D" stroke-width="1.98225" stroke-miterlimit="10"/>
<rect x="532.059" y="300.404" width="80" height="6" rx="3" fill="#2B266D"/>
<rect x="532.059" y="312.818" width="71" height="6" rx="3" fill="#2B266D"/>
<rect x="532.059" y="325.233" width="76" height="6" rx="3" fill="#2B266D"/>
<path d="M518.107 272.087L515.814 261.858" stroke="#2B266D" stroke-width="2" stroke-miterlimit="10" stroke-linecap="round"/>
<path d="M513.919 276.491L501.011 268.41" stroke="#2B266D" stroke-width="2" stroke-miterlimit="10" stroke-linecap="round"/>
<path d="M510.278 283.533L499.183 281.262" stroke="#2B266D" stroke-width="2" stroke-miterlimit="10" stroke-linecap="round"/>
<path d="M635.379 335.868L622.444 341.082L633.594 357.001C633.78 357.26 633.712 357.623 633.437 357.795L618.924 367.439C618.659 367.621 618.287 367.554 618.11 367.286L607.069 351.51L597.478 361.46C596.978 361.986 596.076 361.708 595.968 360.991L589.026 313.185C588.771 311.625 590.477 310.468 591.879 311.252L635.467 334.328C636.114 334.672 636.065 335.6 635.379 335.868Z" fill="white" stroke="#2B266D" stroke-width="2" stroke-miterlimit="10"/>
<path d="M609 396L652 396" stroke="#2B266D" stroke-width="2" stroke-linecap="round"/>
</svg>
