<svg width="800" height="400" viewBox="0 0 800 400" fill="none" xmlns="http://www.w3.org/2000/svg">
<path d="M606.36 87.709L627.872 103.537" stroke="#2B266D" stroke-width="3" stroke-miterlimit="10" stroke-linejoin="round"/>
<path d="M609.528 74.8757L635.926 70.8682" stroke="#2B266D" stroke-width="3" stroke-miterlimit="10" stroke-linejoin="round"/>
<path d="M589.874 60.4095L585.855 34" stroke="#2B266D" stroke-width="3" stroke-miterlimit="10" stroke-linejoin="round"/>
<path d="M602.695 63.5703L618.534 42.0576" stroke="#2B266D" stroke-width="3" stroke-miterlimit="10" stroke-linejoin="round"/>
<path d="M354.434 365H552.134" stroke="#2B266D" stroke-width="3" stroke-miterlimit="10" stroke-linejoin="round"/>
<path d="M322.681 365H345.196" stroke="#2B266D" stroke-width="3" stroke-miterlimit="10" stroke-linejoin="round"/>
<path d="M585.861 79.7788L342.265 166.381L380.427 256.766L585.861 79.7788Z" fill="white" stroke="#2B266D" stroke-width="3" stroke-miterlimit="10" stroke-linejoin="round"/>
<path d="M591.498 76.6357L342.285 167.009L282.779 133.609L591.498 76.6357Z" fill="#FF5787" stroke="#2B266D" stroke-width="3" stroke-miterlimit="10" stroke-linejoin="round"/>
<path d="M373.288 183.471L380.425 256.767L586.141 79.769L373.288 183.471Z" fill="#2B266D" stroke="#2B266D" stroke-width="3" stroke-miterlimit="10" stroke-linejoin="round"/>
<path d="M591.495 76.6362L591.529 77.6156L469.005 241.037L374.151 183.04L591.495 76.6362Z" fill="#2DC495" stroke="#2B266D" stroke-width="3" stroke-miterlimit="10" stroke-linejoin="round"/>
<path d="M165 304.849C253.206 289.466 313.94 263.39 350.916 242.873" stroke="#2B266D" stroke-width="3" stroke-miterlimit="10" stroke-linejoin="round"/>
<path d="M233.028 255.412C283.722 241.944 322.116 225.425 349.373 211.001" stroke="#2B266D" stroke-width="3" stroke-miterlimit="10" stroke-linejoin="round"/>
<path d="M208.933 261.333C213.575 260.264 218.139 259.194 222.593 258.061" stroke="#2B266D" stroke-width="3" stroke-miterlimit="10" stroke-linejoin="round"/>
<path d="M193.518 264.672C196.962 263.962 200.383 263.245 203.764 262.488" stroke="#2B266D" stroke-width="3" stroke-miterlimit="10" stroke-linejoin="round"/>
</svg>
