<svg width="800" height="400" viewBox="0 0 800 400" fill="none" xmlns="http://www.w3.org/2000/svg">
<rect x="210.599" y="38.2117" width="281.771" height="328.18" rx="16.5747" fill="#2B266D"/>
<path d="M197.387 375.016C194.411 375.016 192.942 371.399 195.075 369.325L224.235 340.955C224.854 340.353 225.683 340.016 226.547 340.016H583.673C584.475 340.016 585.25 340.306 585.854 340.834L618.326 369.204C620.632 371.219 619.207 375.016 616.145 375.016H197.387Z" fill="#2B266D"/>
<rect x="218.229" y="39.2117" width="279.771" height="332.81" rx="15.5747" fill="white" stroke="#2B266D" stroke-width="2"/>
<path d="M249.219 309.893C248.565 309.893 247.953 309.758 247.385 309.488C246.817 309.209 246.35 308.829 245.985 308.347C245.619 307.866 245.397 307.322 245.32 306.716L247.068 306.181C247.145 306.778 247.39 307.269 247.804 307.654C248.228 308.03 248.723 308.217 249.291 308.217C249.821 308.217 250.245 308.102 250.562 307.871C250.88 307.64 251.039 307.332 251.039 306.947C251.039 306.648 250.943 306.403 250.75 306.21C250.567 306.018 250.331 305.864 250.042 305.748C249.754 305.633 249.364 305.503 248.873 305.358C248.199 305.156 247.65 304.959 247.226 304.766C246.803 304.564 246.437 304.265 246.129 303.871C245.831 303.476 245.681 302.961 245.681 302.326C245.681 301.796 245.835 301.32 246.143 300.896C246.451 300.472 246.87 300.145 247.4 299.914C247.939 299.673 248.536 299.553 249.19 299.553C249.826 299.553 250.408 299.659 250.938 299.871C251.467 300.082 251.905 300.386 252.252 300.78C252.608 301.166 252.839 301.608 252.945 302.109L251.183 302.831C251.077 302.34 250.846 301.95 250.49 301.661C250.143 301.373 249.71 301.228 249.19 301.228C248.709 301.228 248.329 301.329 248.05 301.531C247.77 301.724 247.631 301.989 247.631 302.326C247.631 302.557 247.713 302.744 247.876 302.889C248.04 303.033 248.242 303.149 248.483 303.235C248.723 303.322 249.075 303.428 249.537 303.553C250.249 303.726 250.841 303.919 251.313 304.131C251.785 304.333 252.189 304.655 252.526 305.098C252.863 305.541 253.032 306.143 253.032 306.903C253.032 307.491 252.873 308.01 252.555 308.463C252.237 308.915 251.79 309.267 251.212 309.517C250.634 309.767 249.97 309.893 249.219 309.893ZM254.358 302.499H256.177V309.777H254.358V302.499ZM255.267 301.387C254.94 301.387 254.67 301.281 254.459 301.069C254.247 300.848 254.141 300.578 254.141 300.261C254.141 299.943 254.247 299.678 254.459 299.466C254.68 299.255 254.95 299.149 255.267 299.149C255.595 299.149 255.869 299.259 256.09 299.481C256.312 299.693 256.423 299.953 256.423 300.261C256.423 300.578 256.312 300.848 256.09 301.069C255.869 301.281 255.595 301.387 255.267 301.387ZM260.943 309.56C259.884 309.56 259.052 309.233 258.445 308.578C257.848 307.924 257.55 307.057 257.55 305.979C257.55 305.267 257.684 304.641 257.954 304.102C258.224 303.553 258.609 303.129 259.109 302.831C259.62 302.533 260.216 302.383 260.9 302.383C261.333 302.383 261.728 302.46 262.084 302.614C262.45 302.768 262.739 302.975 262.951 303.235V302.499H264.756V309.315C264.756 309.95 264.606 310.509 264.308 310.99C264.009 311.481 263.586 311.857 263.037 312.116C262.488 312.386 261.858 312.521 261.145 312.521C260.289 312.521 259.552 312.309 258.936 311.885C258.32 311.471 257.949 310.927 257.824 310.254L259.514 309.979C259.552 310.316 259.725 310.581 260.033 310.773C260.342 310.966 260.712 311.062 261.145 311.062C261.694 311.062 262.132 310.918 262.46 310.629C262.796 310.35 262.965 309.974 262.965 309.503V308.708C262.782 308.968 262.508 309.175 262.142 309.329C261.776 309.483 261.376 309.56 260.943 309.56ZM259.355 305.979C259.355 306.586 259.523 307.072 259.86 307.438C260.197 307.803 260.645 307.986 261.203 307.986C261.762 307.986 262.209 307.803 262.546 307.438C262.893 307.072 263.066 306.586 263.066 305.979C263.066 305.363 262.898 304.872 262.561 304.506C262.224 304.14 261.771 303.957 261.203 303.957C260.645 303.957 260.197 304.14 259.86 304.506C259.523 304.872 259.355 305.363 259.355 305.979ZM266.528 302.499H268.347V303.596C268.588 303.231 268.906 302.937 269.3 302.716C269.705 302.494 270.157 302.383 270.658 302.383C271.457 302.383 272.097 302.624 272.579 303.105C273.07 303.587 273.315 304.222 273.315 305.012V309.777H271.495V305.445C271.495 305.012 271.37 304.665 271.12 304.405C270.87 304.136 270.533 304.001 270.109 304.001C269.551 304.001 269.118 304.227 268.81 304.679C268.501 305.132 268.347 305.767 268.347 306.586V309.777H266.528V302.499ZM279.319 305.098C279.319 304.684 279.189 304.362 278.93 304.131C278.67 303.89 278.318 303.77 277.875 303.77C277.481 303.77 277.149 303.885 276.879 304.116C276.619 304.347 276.47 304.655 276.431 305.04L274.814 304.752C274.929 304.039 275.271 303.466 275.839 303.033C276.417 302.6 277.096 302.383 277.875 302.383C278.848 302.383 279.623 302.643 280.2 303.163C280.788 303.673 281.081 304.4 281.081 305.344V309.777H279.319V308.723C279.117 309.079 278.814 309.363 278.41 309.575C278.015 309.787 277.591 309.893 277.139 309.893C276.667 309.893 276.248 309.801 275.883 309.618C275.517 309.426 275.228 309.166 275.016 308.838C274.814 308.511 274.713 308.14 274.713 307.726C274.713 307.014 274.982 306.46 275.522 306.066C276.061 305.671 276.874 305.416 277.962 305.3L279.319 305.17V305.098ZM276.475 307.669C276.475 307.929 276.571 308.14 276.763 308.304C276.956 308.468 277.216 308.55 277.543 308.55C278.092 308.55 278.525 308.367 278.843 308.001C279.161 307.635 279.319 307.178 279.319 306.629V306.47L277.933 306.629C277.461 306.687 277.1 306.807 276.85 306.99C276.6 307.173 276.475 307.399 276.475 307.669ZM287.049 309.705C286.703 309.83 286.313 309.893 285.879 309.893C285.109 309.893 284.488 309.681 284.017 309.257C283.545 308.834 283.309 308.213 283.309 307.394V304.03H282.082V302.499H283.309V300.362H285.129V302.499H286.963V304.03H285.129V307.221C285.129 307.558 285.21 307.823 285.374 308.015C285.547 308.198 285.778 308.29 286.067 308.29C286.404 308.29 286.688 308.232 286.919 308.116L287.049 309.705ZM295.018 309.777H293.199V308.68C292.958 309.045 292.636 309.339 292.231 309.56C291.837 309.782 291.389 309.893 290.888 309.893C290.089 309.893 289.444 309.652 288.953 309.171C288.472 308.689 288.231 308.054 288.231 307.264V302.499H290.051V306.831C290.051 307.264 290.176 307.616 290.426 307.885C290.677 308.145 291.014 308.275 291.437 308.275C291.996 308.275 292.429 308.049 292.737 307.596C293.045 307.144 293.199 306.509 293.199 305.69V302.499H295.018V309.777ZM301.471 304.261C301.211 304.145 300.903 304.087 300.546 304.087C299.988 304.087 299.521 304.338 299.146 304.838C298.78 305.329 298.597 306.085 298.597 307.106V309.777H296.777V302.499H298.597V303.827C298.78 303.413 299.078 303.072 299.492 302.802C299.916 302.523 300.349 302.383 300.792 302.383C301.09 302.383 301.355 302.422 301.586 302.499L301.471 304.261ZM302 306.138C302 305.483 302.135 304.872 302.404 304.304C302.684 303.726 303.093 303.264 303.632 302.918C304.171 302.561 304.826 302.383 305.596 302.383C306.376 302.383 307.04 302.552 307.589 302.889C308.137 303.226 308.551 303.664 308.831 304.203C309.11 304.742 309.249 305.305 309.249 305.892C309.249 306.181 309.24 306.422 309.22 306.615H303.82C303.897 307.163 304.104 307.592 304.441 307.9C304.778 308.208 305.206 308.362 305.726 308.362C306.149 308.362 306.506 308.266 306.794 308.073C307.083 307.88 307.276 307.606 307.372 307.25L309.076 307.712C308.874 308.396 308.474 308.93 307.877 309.315C307.281 309.7 306.554 309.893 305.697 309.893C304.927 309.893 304.262 309.719 303.704 309.373C303.146 309.016 302.722 308.55 302.433 307.972C302.144 307.394 302 306.783 302 306.138ZM307.3 305.286C307.252 304.833 307.083 304.468 306.794 304.188C306.506 303.909 306.106 303.77 305.596 303.77C305.143 303.77 304.763 303.9 304.455 304.16C304.157 304.42 303.959 304.795 303.863 305.286H307.3ZM318.788 304.261C318.528 304.145 318.22 304.087 317.864 304.087C317.306 304.087 316.839 304.338 316.463 304.838C316.097 305.329 315.914 306.085 315.914 307.106V309.777H314.095V302.499H315.914V303.827C316.097 303.413 316.396 303.072 316.81 302.802C317.233 302.523 317.667 302.383 318.109 302.383C318.408 302.383 318.673 302.422 318.904 302.499L318.788 304.261ZM319.318 306.138C319.318 305.483 319.452 304.872 319.722 304.304C320.001 303.726 320.41 303.264 320.949 302.918C321.489 302.561 322.143 302.383 322.913 302.383C323.693 302.383 324.357 302.552 324.906 302.889C325.455 303.226 325.869 303.664 326.148 304.203C326.427 304.742 326.567 305.305 326.567 305.892C326.567 306.181 326.557 306.422 326.538 306.615H321.137C321.214 307.163 321.421 307.592 321.758 307.9C322.095 308.208 322.524 308.362 323.043 308.362C323.467 308.362 323.823 308.266 324.112 308.073C324.401 307.88 324.593 307.606 324.69 307.25L326.394 307.712C326.191 308.396 325.792 308.93 325.195 309.315C324.598 309.7 323.871 309.893 323.015 309.893C322.244 309.893 321.58 309.719 321.022 309.373C320.463 309.016 320.04 308.55 319.751 307.972C319.462 307.394 319.318 306.783 319.318 306.138ZM324.617 305.286C324.569 304.833 324.401 304.468 324.112 304.188C323.823 303.909 323.424 303.77 322.913 303.77C322.461 303.77 322.081 303.9 321.773 304.16C321.474 304.42 321.277 304.795 321.181 305.286H324.617ZM333.099 312.405V309.055C332.887 309.315 332.598 309.522 332.232 309.676C331.876 309.82 331.486 309.893 331.063 309.893C330.36 309.893 329.744 309.739 329.214 309.43C328.685 309.113 328.275 308.67 327.987 308.102C327.698 307.534 327.553 306.879 327.553 306.138C327.553 305.397 327.688 304.742 327.958 304.174C328.237 303.606 328.632 303.168 329.142 302.86C329.652 302.542 330.249 302.383 330.933 302.383C331.404 302.383 331.828 302.47 332.203 302.643C332.588 302.817 332.887 303.048 333.099 303.336V302.499H334.918V312.405H333.099ZM329.359 306.138C329.359 306.793 329.532 307.322 329.878 307.726C330.235 308.121 330.701 308.319 331.279 308.319C331.866 308.319 332.333 308.121 332.68 307.726C333.036 307.322 333.214 306.793 333.214 306.138C333.214 305.483 333.036 304.959 332.68 304.564C332.333 304.16 331.866 303.957 331.279 303.957C330.701 303.957 330.235 304.16 329.878 304.564C329.532 304.959 329.359 305.483 329.359 306.138ZM343.474 309.777H341.654V308.68C341.414 309.045 341.091 309.339 340.687 309.56C340.292 309.782 339.844 309.893 339.344 309.893C338.545 309.893 337.9 309.652 337.409 309.171C336.927 308.689 336.687 308.054 336.687 307.264V302.499H338.506V306.831C338.506 307.264 338.631 307.616 338.882 307.885C339.132 308.145 339.469 308.275 339.893 308.275C340.451 308.275 340.884 308.049 341.192 307.596C341.5 307.144 341.654 306.509 341.654 305.69V302.499H343.474V309.777ZM345.233 302.499H347.052V309.777H345.233V302.499ZM346.142 301.387C345.815 301.387 345.546 301.281 345.334 301.069C345.122 300.848 345.016 300.578 345.016 300.261C345.016 299.943 345.122 299.678 345.334 299.466C345.555 299.255 345.825 299.149 346.142 299.149C346.47 299.149 346.744 299.259 346.966 299.481C347.187 299.693 347.298 299.953 347.298 300.261C347.298 300.578 347.187 300.848 346.966 301.069C346.744 301.281 346.47 301.387 346.142 301.387ZM353.508 304.261C353.248 304.145 352.94 304.087 352.584 304.087C352.025 304.087 351.558 304.338 351.183 304.838C350.817 305.329 350.634 306.085 350.634 307.106V309.777H348.815V302.499H350.634V303.827C350.817 303.413 351.116 303.072 351.53 302.802C351.953 302.523 352.386 302.383 352.829 302.383C353.128 302.383 353.392 302.422 353.623 302.499L353.508 304.261ZM354.038 306.138C354.038 305.483 354.172 304.872 354.442 304.304C354.721 303.726 355.13 303.264 355.669 302.918C356.208 302.561 356.863 302.383 357.633 302.383C358.413 302.383 359.077 302.552 359.626 302.889C360.175 303.226 360.589 303.664 360.868 304.203C361.147 304.742 361.287 305.305 361.287 305.892C361.287 306.181 361.277 306.422 361.258 306.615H355.857C355.934 307.163 356.141 307.592 356.478 307.9C356.815 308.208 357.243 308.362 357.763 308.362C358.187 308.362 358.543 308.266 358.832 308.073C359.121 307.88 359.313 307.606 359.409 307.25L361.113 307.712C360.911 308.396 360.512 308.93 359.915 309.315C359.318 309.7 358.591 309.893 357.734 309.893C356.964 309.893 356.3 309.719 355.742 309.373C355.183 309.016 354.76 308.55 354.471 307.972C354.182 307.394 354.038 306.783 354.038 306.138ZM359.337 305.286C359.289 304.833 359.121 304.468 358.832 304.188C358.543 303.909 358.143 303.77 357.633 303.77C357.181 303.77 356.8 303.9 356.492 304.16C356.194 304.42 355.997 304.795 355.9 305.286H359.337ZM365.739 309.893C365.027 309.893 364.406 309.739 363.876 309.43C363.356 309.113 362.957 308.67 362.678 308.102C362.408 307.534 362.273 306.879 362.273 306.138C362.273 305.397 362.408 304.742 362.678 304.174C362.957 303.606 363.356 303.168 363.876 302.86C364.396 302.542 365.007 302.383 365.71 302.383C366.153 302.383 366.562 302.47 366.938 302.643C367.313 302.807 367.607 303.028 367.818 303.308V299.553H369.638V309.777H367.818V308.939C367.636 309.228 367.356 309.459 366.981 309.633C366.605 309.806 366.191 309.893 365.739 309.893ZM364.078 306.138C364.078 306.793 364.252 307.322 364.598 307.726C364.954 308.121 365.421 308.319 365.999 308.319C366.586 308.319 367.053 308.121 367.4 307.726C367.756 307.322 367.934 306.793 367.934 306.138C367.934 305.483 367.756 304.959 367.4 304.564C367.053 304.16 366.586 303.957 365.999 303.957C365.421 303.957 364.954 304.16 364.598 304.564C364.252 304.959 364.078 305.483 364.078 306.138Z" fill="#2B266D"/>
<path d="M244.158 78H253.518V80.34H246.878V83.42H252.198V85.78H246.878V89.64H253.738V92H244.158V78ZM255.759 78H258.519L264.519 87.72V78H267.059V92H264.299L258.319 82.3V92H255.759V78ZM275.964 92.16C274.738 92.16 273.604 91.8867 272.564 91.34C271.524 90.7933 270.684 89.9867 270.044 88.92C269.418 87.84 269.104 86.5333 269.104 85C269.104 83.4667 269.424 82.1667 270.064 81.1C270.718 80.02 271.578 79.2067 272.644 78.66C273.724 78.1133 274.891 77.84 276.144 77.84C277.824 77.84 279.224 78.2533 280.344 79.08C281.464 79.9067 282.158 81.0467 282.424 82.5L279.744 83.06C279.571 82.18 279.158 81.48 278.504 80.96C277.851 80.44 277.058 80.18 276.124 80.18C275.284 80.18 274.538 80.3733 273.884 80.76C273.244 81.1333 272.744 81.6867 272.384 82.42C272.024 83.14 271.844 84 271.844 85C271.844 86 272.024 86.86 272.384 87.58C272.744 88.3 273.244 88.8533 273.884 89.24C274.524 89.6133 275.258 89.8 276.084 89.8C277.138 89.8 277.998 89.52 278.664 88.96C279.331 88.3867 279.698 87.64 279.764 86.72H275.604V84.52H282.284V92H279.824V90.3C279.518 90.86 279.011 91.3133 278.304 91.66C277.598 91.9933 276.818 92.16 275.964 92.16ZM288.383 86.6H292.103L290.243 81.56L288.383 86.6ZM288.963 78H291.503L296.883 92H294.083L292.943 88.9H287.523L286.383 92H283.583L288.963 78ZM303.992 92.16C302.765 92.16 301.632 91.8867 300.592 91.34C299.552 90.7933 298.712 89.9867 298.072 88.92C297.445 87.84 297.132 86.5333 297.132 85C297.132 83.4667 297.452 82.1667 298.092 81.1C298.745 80.02 299.605 79.2067 300.672 78.66C301.752 78.1133 302.918 77.84 304.172 77.84C305.852 77.84 307.252 78.2533 308.372 79.08C309.492 79.9067 310.185 81.0467 310.452 82.5L307.772 83.06C307.598 82.18 307.185 81.48 306.532 80.96C305.878 80.44 305.085 80.18 304.152 80.18C303.312 80.18 302.565 80.3733 301.912 80.76C301.272 81.1333 300.772 81.6867 300.412 82.42C300.052 83.14 299.872 84 299.872 85C299.872 86 300.052 86.86 300.412 87.58C300.772 88.3 301.272 88.8533 301.912 89.24C302.552 89.6133 303.285 89.8 304.112 89.8C305.165 89.8 306.025 89.52 306.692 88.96C307.358 88.3867 307.725 87.64 307.792 86.72H303.632V84.52H310.312V92H307.852V90.3C307.545 90.86 307.038 91.3133 306.332 91.66C305.625 91.9933 304.845 92.16 303.992 92.16ZM312.791 78H322.151V80.34H315.511V83.42H320.831V85.78H315.511V89.64H322.371V92H312.791V78ZM324.392 78H327.452L331.732 88.14L336.012 78H339.072V92H336.512V83.06L332.752 92H330.712L326.952 83.06V92H324.392V78ZM341.716 78H351.076V80.34H344.436V83.42H349.756V85.78H344.436V89.64H351.296V92H341.716V78ZM353.318 78H356.078L362.078 87.72V78H364.618V92H361.858L355.878 82.3V92H353.318V78ZM370.503 80.34H366.283V78H377.443V80.34H373.223V92H370.503V80.34ZM383.865 78H386.585V89.64H393.085V92H383.865V78ZM394.646 78H404.006V80.34H397.366V83.42H402.686V85.78H397.366V89.64H404.226V92H394.646V78ZM409.468 80.34H405.248V78H416.408V80.34H412.188V92H409.468V80.34ZM421.245 80.34H417.025V78H428.185V80.34H423.965V92H421.245V80.34ZM429.568 78H438.928V80.34H432.288V83.42H437.608V85.78H432.288V89.64H439.148V92H429.568V78ZM441.17 78H446.57C447.943 78 449.036 78.38 449.85 79.14C450.676 79.8867 451.09 80.8867 451.09 82.14C451.09 82.9267 450.896 83.64 450.51 84.28C450.123 84.9067 449.583 85.3933 448.89 85.74L452.61 92H449.43L446.13 86.26H443.91V92H441.19L441.17 78ZM446.15 83.92C446.843 83.92 447.383 83.7667 447.77 83.46C448.156 83.14 448.35 82.7 448.35 82.14C448.35 81.58 448.156 81.14 447.77 80.82C447.383 80.5 446.843 80.34 446.15 80.34H443.91V83.92H446.15Z" fill="#2B266D"/>
<path d="M246.205 332.572L249.714 327.114L246.725 322.464H247.736L250.22 326.334L252.718 322.464H253.729L250.725 327.114L254.234 332.572H253.223L250.22 327.908L247.216 332.572H246.205Z" fill="#2B266D"/>
<rect x="245.838" y="339" width="203" height="4" rx="2" fill="#9C96F0"/>
<rect x="245.838" y="118" width="230" height="8" rx="4" fill="#D5D4D2"/>
<rect x="245.838" y="139" width="115" height="8" rx="4" fill="#D5D4D2"/>
<rect x="370.838" y="136" width="103" height="14" rx="7" fill="#D5D2F9"/>
<rect x="245.838" y="160" width="230" height="8" rx="4" fill="#D5D4D2"/>
<rect x="245.838" y="181" width="34" height="8" rx="4" fill="#D5D4D2"/>
<rect x="289.838" y="178" width="71" height="14" rx="7" fill="#D5D2F9"/>
<rect x="370.838" y="181" width="104" height="8" rx="4" fill="#D5D4D2"/>
<rect x="245.838" y="202" width="230" height="8" rx="4" fill="#D5D4D2"/>
<rect x="245.838" y="220" width="230" height="8" rx="4" fill="#D5D4D2"/>
<rect x="245.838" y="238" width="71" height="14" rx="7" fill="#D5D2F9"/>
<rect x="326.838" y="241" width="149" height="8" rx="4" fill="#D5D4D2"/>
<rect x="245.838" y="262" width="230" height="7" rx="3.5" fill="#D5D4D2"/>
<rect x="517.05" y="196.662" width="137.609" height="23.2112" rx="11.6056" fill="#2B266D"/>
<rect x="523.023" y="197.662" width="135.609" height="21.4042" rx="10.7021" fill="white" stroke="#2B266D" stroke-width="2"/>
<rect x="533.838" y="207" width="111" height="5" rx="2.5" fill="#9C96F0"/>
<rect x="517.049" y="165.953" width="137.609" height="23.2112" rx="11.6056" fill="#2B266D"/>
<rect x="523.023" y="166.953" width="135.609" height="21.4042" rx="10.7021" fill="#9C96F0" stroke="#2B266D" stroke-width="2"/>
<rect x="517.05" y="227.37" width="137.609" height="23.2112" rx="11.6056" fill="#2B266D"/>
<rect x="523.023" y="228.37" width="135.609" height="21.4042" rx="10.7021" fill="white" stroke="#2B266D" stroke-width="2"/>
<rect x="533.838" y="237" width="111" height="5" rx="2.5" fill="#9C96F0"/>
<rect x="417.838" y="116.347" width="137.609" height="23.2112" rx="11.6056" fill="#2B266D"/>
<rect x="423.811" y="117.347" width="135.609" height="21.4042" rx="10.7021" fill="#FF5787" stroke="#2B266D" stroke-width="2"/>
<rect x="435.838" y="126" width="110" height="5" rx="2.5" fill="#2B266D"/>
<path d="M543.631 145.601L533.583 149.754L542.245 162.432C542.39 162.638 542.336 162.927 542.123 163.065L530.848 170.745C530.643 170.89 530.353 170.836 530.216 170.623L521.638 158.059L514.188 165.983C513.8 166.402 513.099 166.181 513.015 165.609L507.621 127.535C507.423 126.293 508.749 125.371 509.838 125.996L543.7 144.374C544.203 144.649 544.165 145.388 543.631 145.601Z" fill="white" stroke="#2B266D" stroke-width="2" stroke-miterlimit="10"/>
<path d="M570.276 123.082L587.89 131.135" stroke="#2B266D" stroke-width="2" stroke-miterlimit="10" stroke-linecap="round"/>
<path d="M570.622 113.504L588.767 106.746" stroke="#2B266D" stroke-width="2" stroke-miterlimit="10" stroke-linecap="round"/>
<path d="M554.516 106.145L547.759 88" stroke="#2B266D" stroke-width="2" stroke-miterlimit="10" stroke-linecap="round"/>
<path d="M564.094 106.489L572.146 88.8756" stroke="#2B266D" stroke-width="2" stroke-miterlimit="10" stroke-linecap="round"/>
</svg>
