<svg width="800" height="400" viewBox="0 0 800 400" fill="none" xmlns="http://www.w3.org/2000/svg">
<g clip-path="url(#clip0_3820_6628)">
<rect x="236.212" y="40" width="281.771" height="328.18" rx="16.5747" fill="#2B266D"/>
<path d="M143.406 374.788C140.398 374.788 138.945 371.104 141.144 369.05L169.379 342.68C169.993 342.107 170.802 341.788 171.642 341.788H522.446C523.225 341.788 523.979 342.062 524.576 342.563L556.019 368.933C558.39 370.922 556.984 374.788 553.889 374.788H143.406Z" fill="#2B266D"/>
<rect x="243.842" y="41" width="279.771" height="332.81" rx="15.5747" fill="white" stroke="#2B266D" stroke-width="2"/>
<rect x="274" y="341.788" width="203" height="4" rx="2" fill="#9C96F0"/>
<rect x="274" y="121.788" width="210" height="8" rx="4" fill="#D5D4D2"/>
<rect x="274" y="139.788" width="195" height="8" rx="4" fill="#D5D4D2"/>
<rect x="274" y="157.788" width="201" height="8" rx="4" fill="#D5D4D2"/>
<rect x="274" y="175.788" width="210" height="8" rx="4" fill="#D5D4D2"/>
<rect x="274" y="193.788" width="159" height="8" rx="4" fill="#D5D4D2"/>
<rect x="274" y="211.788" width="210" height="8" rx="4" fill="#D5D4D2"/>
<rect x="274" y="229.788" width="175" height="8" rx="4" fill="#D5D4D2"/>
<rect x="274" y="247.788" width="192" height="8" rx="4" fill="#D5D4D2"/>
<path d="M277.434 310.339C276.757 310.339 276.124 310.199 275.536 309.92C274.949 309.631 274.465 309.238 274.087 308.74C273.708 308.241 273.479 307.678 273.399 307.051L275.208 306.498C275.287 307.116 275.541 307.624 275.97 308.022C276.408 308.411 276.921 308.605 277.509 308.605C278.057 308.605 278.495 308.485 278.824 308.246C279.153 308.007 279.317 307.688 279.317 307.29C279.317 306.981 279.218 306.727 279.018 306.528C278.829 306.328 278.585 306.169 278.286 306.049C277.987 305.93 277.584 305.795 277.076 305.646C276.378 305.437 275.81 305.233 275.372 305.033C274.934 304.824 274.555 304.515 274.236 304.107C273.927 303.698 273.773 303.165 273.773 302.508C273.773 301.96 273.932 301.466 274.251 301.028C274.57 300.59 275.003 300.251 275.551 300.012C276.109 299.763 276.727 299.638 277.404 299.638C278.062 299.638 278.665 299.748 279.213 299.967C279.761 300.186 280.214 300.5 280.573 300.909C280.941 301.307 281.18 301.765 281.29 302.283L279.467 303.031C279.357 302.523 279.118 302.119 278.749 301.82C278.391 301.521 277.942 301.372 277.404 301.372C276.906 301.372 276.513 301.476 276.224 301.686C275.935 301.885 275.79 302.159 275.79 302.508C275.79 302.747 275.875 302.941 276.045 303.09C276.214 303.24 276.423 303.359 276.672 303.449C276.921 303.539 277.285 303.648 277.763 303.778C278.5 303.957 279.113 304.157 279.601 304.376C280.09 304.585 280.508 304.919 280.857 305.377C281.205 305.835 281.38 306.458 281.38 307.245C281.38 307.853 281.215 308.391 280.887 308.859C280.558 309.327 280.095 309.691 279.497 309.95C278.899 310.209 278.211 310.339 277.434 310.339ZM282.752 302.687H284.635V310.219H282.752V302.687ZM283.693 301.536C283.355 301.536 283.076 301.427 282.857 301.207C282.637 300.978 282.528 300.699 282.528 300.371C282.528 300.042 282.637 299.768 282.857 299.549C283.086 299.329 283.365 299.22 283.693 299.22C284.032 299.22 284.316 299.334 284.545 299.564C284.774 299.783 284.889 300.052 284.889 300.371C284.889 300.699 284.774 300.978 284.545 301.207C284.316 301.427 284.032 301.536 283.693 301.536ZM289.567 309.995C288.471 309.995 287.61 309.656 286.982 308.979C286.364 308.301 286.055 307.404 286.055 306.289C286.055 305.551 286.195 304.904 286.474 304.346C286.753 303.778 287.151 303.34 287.669 303.031C288.197 302.722 288.815 302.567 289.523 302.567C289.971 302.567 290.379 302.647 290.748 302.807C291.127 302.966 291.426 303.18 291.645 303.449V302.687H293.513V309.741C293.513 310.398 293.358 310.976 293.05 311.474C292.741 311.983 292.302 312.371 291.734 312.64C291.167 312.919 290.514 313.059 289.777 313.059C288.89 313.059 288.128 312.839 287.49 312.401C286.852 311.973 286.469 311.41 286.339 310.712L288.088 310.428C288.128 310.777 288.307 311.051 288.626 311.25C288.945 311.449 289.328 311.549 289.777 311.549C290.345 311.549 290.798 311.4 291.137 311.101C291.485 310.812 291.66 310.423 291.66 309.935V309.113C291.47 309.382 291.186 309.596 290.808 309.756C290.429 309.915 290.016 309.995 289.567 309.995ZM287.924 306.289C287.924 306.916 288.098 307.419 288.447 307.798C288.795 308.177 289.259 308.366 289.836 308.366C290.414 308.366 290.878 308.177 291.226 307.798C291.585 307.419 291.764 306.916 291.764 306.289C291.764 305.651 291.59 305.143 291.241 304.764C290.893 304.386 290.424 304.196 289.836 304.196C289.259 304.196 288.795 304.386 288.447 304.764C288.098 305.143 287.924 305.651 287.924 306.289ZM295.347 302.687H297.23V303.823C297.479 303.444 297.808 303.14 298.216 302.911C298.635 302.682 299.103 302.567 299.621 302.567C300.448 302.567 301.111 302.816 301.609 303.315C302.117 303.813 302.371 304.47 302.371 305.287V310.219H300.488V305.736C300.488 305.287 300.358 304.929 300.099 304.66C299.84 304.381 299.492 304.241 299.053 304.241C298.475 304.241 298.027 304.475 297.708 304.944C297.389 305.412 297.23 306.069 297.23 306.916V310.219H295.347V302.687ZM308.585 305.377C308.585 304.949 308.45 304.615 308.181 304.376C307.912 304.127 307.549 304.002 307.09 304.002C306.682 304.002 306.338 304.122 306.059 304.361C305.79 304.6 305.636 304.919 305.596 305.317L303.922 305.018C304.042 304.281 304.395 303.688 304.983 303.24C305.581 302.792 306.283 302.567 307.09 302.567C308.097 302.567 308.899 302.836 309.496 303.374C310.104 303.902 310.408 304.655 310.408 305.631V310.219H308.585V309.128C308.376 309.497 308.062 309.791 307.643 310.01C307.235 310.229 306.796 310.339 306.328 310.339C305.84 310.339 305.407 310.244 305.028 310.055C304.649 309.855 304.351 309.586 304.131 309.248C303.922 308.909 303.817 308.525 303.817 308.097C303.817 307.36 304.096 306.787 304.654 306.378C305.212 305.97 306.054 305.706 307.18 305.586L308.585 305.452V305.377ZM305.641 308.037C305.641 308.306 305.74 308.525 305.94 308.695C306.139 308.864 306.408 308.949 306.747 308.949C307.315 308.949 307.763 308.759 308.092 308.381C308.42 308.002 308.585 307.529 308.585 306.961V306.797L307.15 306.961C306.662 307.021 306.288 307.145 306.029 307.335C305.77 307.524 305.641 307.758 305.641 308.037ZM316.584 310.144C316.226 310.274 315.822 310.339 315.374 310.339C314.577 310.339 313.934 310.119 313.446 309.681C312.958 309.243 312.714 308.6 312.714 307.753V304.271H311.443V302.687H312.714V300.475H314.597V302.687H316.495V304.271H314.597V307.574C314.597 307.923 314.681 308.197 314.851 308.396C315.03 308.585 315.269 308.68 315.568 308.68C315.917 308.68 316.211 308.62 316.45 308.5L316.584 310.144ZM324.832 310.219H322.949V309.083C322.7 309.462 322.366 309.766 321.947 309.995C321.539 310.224 321.076 310.339 320.557 310.339C319.731 310.339 319.063 310.09 318.555 309.591C318.057 309.093 317.808 308.436 317.808 307.619V302.687H319.691V307.17C319.691 307.619 319.82 307.982 320.079 308.261C320.338 308.53 320.687 308.665 321.125 308.665C321.703 308.665 322.152 308.431 322.47 307.962C322.789 307.494 322.949 306.837 322.949 305.99V302.687H324.832V310.219ZM331.509 304.51C331.24 304.391 330.921 304.331 330.552 304.331C329.975 304.331 329.491 304.59 329.103 305.108C328.724 305.616 328.535 306.398 328.535 307.454V310.219H326.652V302.687H328.535V304.062C328.724 303.633 329.033 303.28 329.461 303.001C329.9 302.712 330.348 302.567 330.806 302.567C331.115 302.567 331.389 302.607 331.628 302.687L331.509 304.51ZM332.057 306.453C332.057 305.776 332.196 305.143 332.475 304.555C332.764 303.957 333.188 303.479 333.746 303.12C334.304 302.752 334.981 302.567 335.778 302.567C336.585 302.567 337.273 302.742 337.84 303.09C338.408 303.439 338.837 303.892 339.126 304.45C339.415 305.008 339.559 305.591 339.559 306.199C339.559 306.498 339.549 306.747 339.529 306.946H333.94C334.02 307.514 334.234 307.957 334.583 308.276C334.931 308.595 335.375 308.754 335.913 308.754C336.351 308.754 336.72 308.655 337.019 308.456C337.317 308.256 337.517 307.972 337.616 307.604L339.38 308.082C339.171 308.789 338.757 309.342 338.139 309.741C337.522 310.139 336.769 310.339 335.883 310.339C335.086 310.339 334.398 310.159 333.82 309.801C333.243 309.432 332.804 308.949 332.505 308.351C332.206 307.753 332.057 307.121 332.057 306.453ZM337.542 305.571C337.492 305.103 337.317 304.724 337.019 304.435C336.72 304.147 336.306 304.002 335.778 304.002C335.31 304.002 334.916 304.137 334.598 304.406C334.289 304.675 334.084 305.063 333.985 305.571H337.542ZM349.431 304.51C349.162 304.391 348.843 304.331 348.474 304.331C347.896 304.331 347.413 304.59 347.025 305.108C346.646 305.616 346.457 306.398 346.457 307.454V310.219H344.574V302.687H346.457V304.062C346.646 303.633 346.955 303.28 347.383 303.001C347.822 302.712 348.27 302.567 348.728 302.567C349.037 302.567 349.311 302.607 349.55 302.687L349.431 304.51ZM349.979 306.453C349.979 305.776 350.118 305.143 350.397 304.555C350.686 303.957 351.11 303.479 351.668 303.12C352.225 302.752 352.903 302.567 353.7 302.567C354.507 302.567 355.194 302.742 355.762 303.09C356.33 303.439 356.759 303.892 357.048 304.45C357.337 305.008 357.481 305.591 357.481 306.199C357.481 306.498 357.471 306.747 357.451 306.946H351.862C351.942 307.514 352.156 307.957 352.504 308.276C352.853 308.595 353.297 308.754 353.835 308.754C354.273 308.754 354.642 308.655 354.94 308.456C355.239 308.256 355.439 307.972 355.538 307.604L357.302 308.082C357.092 308.789 356.679 309.342 356.061 309.741C355.444 310.139 354.691 310.339 353.805 310.339C353.008 310.339 352.32 310.159 351.742 309.801C351.164 309.432 350.726 308.949 350.427 308.351C350.128 307.753 349.979 307.121 349.979 306.453ZM355.463 305.571C355.414 305.103 355.239 304.724 354.94 304.435C354.642 304.147 354.228 304.002 353.7 304.002C353.232 304.002 352.838 304.137 352.519 304.406C352.211 304.675 352.006 305.063 351.907 305.571H355.463ZM364.241 312.939V309.472C364.021 309.741 363.723 309.955 363.344 310.114C362.975 310.264 362.572 310.339 362.133 310.339C361.406 310.339 360.769 310.179 360.221 309.86C359.673 309.532 359.249 309.073 358.95 308.485C358.651 307.898 358.502 307.22 358.502 306.453C358.502 305.686 358.641 305.008 358.92 304.421C359.209 303.833 359.618 303.379 360.146 303.061C360.674 302.732 361.292 302.567 361.999 302.567C362.487 302.567 362.926 302.657 363.314 302.836C363.713 303.016 364.021 303.255 364.241 303.554V302.687H366.124V312.939H364.241ZM360.37 306.453C360.37 307.13 360.549 307.678 360.908 308.097C361.277 308.505 361.76 308.71 362.358 308.71C362.965 308.71 363.449 308.505 363.807 308.097C364.176 307.678 364.36 307.13 364.36 306.453C364.36 305.776 364.176 305.233 363.807 304.824C363.449 304.406 362.965 304.196 362.358 304.196C361.76 304.196 361.277 304.406 360.908 304.824C360.549 305.233 360.37 305.776 360.37 306.453ZM374.978 310.219H373.095V309.083C372.846 309.462 372.512 309.766 372.094 309.995C371.685 310.224 371.222 310.339 370.704 310.339C369.877 310.339 369.209 310.09 368.701 309.591C368.203 309.093 367.954 308.436 367.954 307.619V302.687H369.837V307.17C369.837 307.619 369.967 307.982 370.226 308.261C370.485 308.53 370.833 308.665 371.272 308.665C371.85 308.665 372.298 308.431 372.617 307.962C372.936 307.494 373.095 306.837 373.095 305.99V302.687H374.978V310.219ZM376.798 302.687H378.681V310.219H376.798V302.687ZM377.74 301.536C377.401 301.536 377.122 301.427 376.903 301.207C376.684 300.978 376.574 300.699 376.574 300.371C376.574 300.042 376.684 299.768 376.903 299.549C377.132 299.329 377.411 299.22 377.74 299.22C378.078 299.22 378.362 299.334 378.592 299.564C378.821 299.783 378.935 300.052 378.935 300.371C378.935 300.699 378.821 300.978 378.592 301.207C378.362 301.427 378.078 301.536 377.74 301.536ZM385.362 304.51C385.093 304.391 384.774 304.331 384.406 304.331C383.828 304.331 383.345 304.59 382.956 305.108C382.577 305.616 382.388 306.398 382.388 307.454V310.219H380.505V302.687H382.388V304.062C382.577 303.633 382.886 303.28 383.315 303.001C383.753 302.712 384.201 302.567 384.66 302.567C384.969 302.567 385.243 302.607 385.482 302.687L385.362 304.51ZM385.91 306.453C385.91 305.776 386.05 305.143 386.329 304.555C386.618 303.957 387.041 303.479 387.599 303.12C388.157 302.752 388.834 302.567 389.631 302.567C390.438 302.567 391.126 302.742 391.694 303.09C392.262 303.439 392.69 303.892 392.979 304.45C393.268 305.008 393.412 305.591 393.412 306.199C393.412 306.498 393.402 306.747 393.383 306.946H387.793C387.873 307.514 388.087 307.957 388.436 308.276C388.785 308.595 389.228 308.754 389.766 308.754C390.204 308.754 390.573 308.655 390.872 308.456C391.171 308.256 391.37 307.972 391.47 307.604L393.233 308.082C393.024 308.789 392.61 309.342 391.993 309.741C391.375 310.139 390.623 310.339 389.736 310.339C388.939 310.339 388.252 310.159 387.674 309.801C387.096 309.432 386.657 308.949 386.359 308.351C386.06 307.753 385.91 307.121 385.91 306.453ZM391.395 305.571C391.345 305.103 391.171 304.724 390.872 304.435C390.573 304.147 390.159 304.002 389.631 304.002C389.163 304.002 388.77 304.137 388.451 304.406C388.142 304.675 387.938 305.063 387.838 305.571H391.395ZM398.02 310.339C397.283 310.339 396.64 310.179 396.092 309.86C395.554 309.532 395.141 309.073 394.852 308.485C394.573 307.898 394.433 307.22 394.433 306.453C394.433 305.686 394.573 305.008 394.852 304.421C395.141 303.833 395.554 303.379 396.092 303.061C396.63 302.732 397.263 302.567 397.99 302.567C398.448 302.567 398.872 302.657 399.26 302.836C399.649 303.006 399.953 303.235 400.172 303.524V299.638H402.055V310.219H400.172V309.352C399.983 309.651 399.694 309.89 399.305 310.07C398.917 310.249 398.488 310.339 398.02 310.339ZM396.301 306.453C396.301 307.13 396.481 307.678 396.839 308.097C397.208 308.505 397.691 308.71 398.289 308.71C398.897 308.71 399.38 308.505 399.739 308.097C400.107 307.678 400.292 307.13 400.292 306.453C400.292 305.776 400.107 305.233 399.739 304.824C399.38 304.406 398.897 304.196 398.289 304.196C397.691 304.196 397.208 304.406 396.839 304.824C396.481 305.233 396.301 305.776 396.301 306.453Z" fill="#2B266D"/>
<path d="M274.304 333.812L277.935 328.162L274.842 323.35H275.888L278.458 327.355L281.044 323.35H282.09L278.981 328.162L282.613 333.812H281.567L278.458 328.984L275.35 333.812H274.304Z" fill="#2B266D"/>
<path d="M277.809 73.3976C278.617 77.551 281.068 86.6441 286.43 88.8456C286.43 88.8456 295.961 79.6861 296.884 72.4217C296.884 72.4217 289.812 71.4741 287.967 81.897C286.123 92.3198 285.815 82.8445 285.815 82.8445L279.189 72.7438C278.682 72.0805 277.649 72.5701 277.809 73.3976Z" fill="#5ED7B1"/>
<path d="M288.123 94.6883C287.201 100.058 298.577 89.9506 299.499 84.8971C300.422 79.8436 289.045 89.3189 288.123 94.6883Z" fill="#5ED7B1"/>
<path d="M312.81 82.7839V79.8561H309.831C309.591 79.8561 309.413 79.7897 309.296 79.6602C309.179 79.5276 309.121 79.3286 309.121 79.057C309.121 78.7443 309.173 78.5295 309.277 78.4158C309.382 78.3021 309.582 78.2421 309.877 78.2421H315.067C315.276 78.2421 315.43 78.3084 315.528 78.4442C315.63 78.58 315.679 78.7822 315.679 79.0538C315.679 79.357 315.614 79.5686 315.482 79.6823C315.35 79.7992 315.116 79.8561 314.778 79.8561H314.621V83.2735V83.5704C314.621 83.7915 314.597 83.9462 314.55 84.0315C314.501 84.1168 314.406 84.2021 314.261 84.2842C313.806 84.5653 313.139 84.8022 312.269 85.0012C311.396 85.197 310.51 85.2981 309.616 85.2981C307.469 85.2981 305.735 84.5937 304.416 83.1882C303.097 81.7827 302.433 79.9477 302.433 77.6862C302.433 75.4248 303.079 73.5581 304.373 72.0863C305.668 70.6145 307.313 69.8785 309.314 69.8785C309.858 69.8785 310.406 69.9417 310.953 70.0712C311.5 70.1975 312.072 70.3902 312.666 70.646C312.746 70.4313 312.856 70.2765 312.995 70.1849C313.136 70.0902 313.317 70.0428 313.542 70.0428C313.917 70.0428 314.169 70.1596 314.292 70.387C314.415 70.6176 314.48 71.1482 314.48 71.9789V73.656C314.48 74.0603 314.412 74.3414 314.277 74.5025C314.141 74.6636 313.905 74.7425 313.57 74.7425C313.154 74.7425 312.853 74.4804 312.669 73.9529C312.604 73.7982 312.552 73.6781 312.512 73.596C312.217 72.9454 311.792 72.4432 311.239 72.0894C310.686 71.7357 310.055 71.5588 309.342 71.5588C307.909 71.5588 306.762 72.0894 305.907 73.1538C305.05 74.2182 304.622 75.6553 304.622 77.462C304.622 79.3286 305.096 80.8099 306.04 81.9122C306.984 83.0145 308.241 83.5641 309.812 83.5641C310.267 83.5641 310.738 83.5041 311.224 83.3809C311.703 83.2514 312.235 83.0556 312.81 82.7839Z" fill="#2B266D"/>
<path d="M322.576 83.1754H326.564C326.878 83.1754 327.105 83.2417 327.256 83.3775C327.403 83.5133 327.477 83.7281 327.477 84.025C327.477 84.3629 327.406 84.5935 327.268 84.723C327.127 84.8493 326.868 84.9157 326.493 84.9157H318.637C318.324 84.9157 318.09 84.843 317.93 84.6946C317.77 84.5461 317.69 84.325 317.69 84.0281C317.69 83.7407 317.773 83.526 317.936 83.387C318.099 83.248 318.355 83.1785 318.699 83.1785H320.79V75.254H319.972C319.194 75.254 318.711 75.1908 318.518 75.0645C318.327 74.9381 318.228 74.7076 318.228 74.3728C318.228 74.0885 318.305 73.8738 318.462 73.7285C318.619 73.5863 318.856 73.5137 319.175 73.5137H321.915C322.13 73.5137 322.296 73.5579 322.407 73.6432C322.518 73.7285 322.576 73.8548 322.576 74.019V76.1162C323.336 75.1371 324.129 74.4107 324.953 73.9338C325.777 73.4568 326.665 73.2168 327.619 73.2168C328.332 73.2168 328.907 73.3652 329.347 73.659C329.786 73.9527 330.008 74.3349 330.008 74.7992C330.008 75.1024 329.897 75.3709 329.679 75.6046C329.457 75.8383 329.217 75.9552 328.953 75.9552C328.768 75.9552 328.458 75.8288 328.021 75.5793C327.585 75.3298 327.194 75.2035 326.85 75.2035C326.226 75.2035 325.568 75.4309 324.873 75.8888C324.181 76.3468 323.412 77.0701 322.573 78.0587V83.1754H322.576Z" fill="#2B266D"/>
<path d="M344.818 79.2276C344.818 80.9868 344.233 82.4271 343.065 83.5452C341.897 84.6632 340.378 85.2223 338.515 85.2223C336.657 85.2223 335.145 84.6632 333.973 83.5452C332.805 82.4271 332.221 80.9868 332.221 79.2276C332.221 77.4683 332.805 76.0312 333.973 74.9163C335.142 73.8014 336.654 73.2455 338.515 73.2455C340.372 73.2455 341.887 73.8045 343.062 74.9226C344.23 76.0407 344.818 77.4746 344.818 79.2276ZM338.515 83.4851C339.748 83.4851 340.759 83.084 341.546 82.2849C342.333 81.4827 342.73 80.4625 342.73 79.2244C342.73 77.9863 342.333 76.9598 341.54 76.1512C340.747 75.3427 339.738 74.9384 338.515 74.9384C337.291 74.9384 336.282 75.3427 335.495 76.1512C334.705 76.9598 334.311 77.9863 334.311 79.2244C334.311 80.472 334.705 81.4953 335.489 82.2913C336.27 83.0872 337.279 83.4851 338.515 83.4851Z" fill="#2B266D"/>
<path d="M353.203 78.6493L351.653 84.5082C351.573 84.8208 351.453 85.0388 351.293 85.162C351.134 85.2851 350.894 85.3483 350.574 85.3483C350.285 85.3483 350.061 85.2693 349.901 85.1146C349.741 84.9567 349.596 84.6756 349.467 84.2618L346.715 75.2571H346.608C346.273 75.2571 346.03 75.1908 345.882 75.0549C345.734 74.9191 345.661 74.6949 345.661 74.3759C345.661 74.0979 345.738 73.8863 345.894 73.7379C346.051 73.5926 346.282 73.5168 346.586 73.5168H349.793C350.227 73.5168 350.519 73.58 350.669 73.7063C350.82 73.8326 350.897 74.0569 350.897 74.3727C350.897 74.5685 350.854 74.7391 350.765 74.8812C350.675 75.0234 350.565 75.1118 350.429 75.1434C350.294 75.1844 350.134 75.2129 349.956 75.2287C349.778 75.2445 349.556 75.2539 349.301 75.2539H348.603L350.669 82.6699L352.219 77.2911C352.308 76.9784 352.431 76.7605 352.591 76.6373C352.751 76.5141 352.988 76.451 353.298 76.451C353.587 76.451 353.812 76.5299 353.978 76.691C354.141 76.8521 354.288 77.1332 354.417 77.5375L355.918 82.6699L357.901 75.2539H357.612H357.095C356.542 75.2539 356.17 75.1908 355.979 75.0644C355.789 74.9381 355.69 74.7075 355.69 74.3727C355.69 74.0474 355.761 73.82 355.905 73.7C356.05 73.58 356.33 73.5168 356.745 73.5168H359.964C360.213 73.5168 360.398 73.5894 360.524 73.7379C360.647 73.8863 360.711 74.0979 360.711 74.3759C360.711 74.6854 360.64 74.9065 360.496 75.036C360.351 75.1655 360.081 75.2413 359.678 75.2571L356.975 84.5082C356.871 84.8208 356.742 85.0388 356.585 85.162C356.428 85.2851 356.194 85.3483 355.881 85.3483C355.592 85.3483 355.364 85.2693 355.195 85.1083C355.026 84.9472 354.888 84.6661 354.774 84.2618L353.203 78.6493Z" fill="#2B266D"/>
<path d="M371.311 74.2052C371.704 74.2052 371.99 74.2747 372.169 74.4137C372.35 74.5526 372.439 74.7769 372.439 75.0801C372.439 75.3675 372.356 75.5855 372.187 75.7276C372.018 75.8729 371.766 75.9424 371.431 75.9424H366.567V80.0641C366.567 81.4128 366.736 82.3003 367.077 82.7298C367.418 83.1562 367.999 83.371 368.823 83.371C369.552 83.371 370.425 83.1531 371.443 82.7172C372.461 82.2813 373.088 82.0634 373.328 82.0634C373.552 82.0634 373.743 82.1455 373.9 82.3098C374.056 82.474 374.133 82.6762 374.133 82.913C374.133 83.1847 374.035 83.4215 373.838 83.6237C373.641 83.8258 373.306 84.0216 372.836 84.2112C372.052 84.5333 371.345 84.767 370.717 84.9155C370.09 85.0639 369.5 85.1366 368.946 85.1366C368.009 85.1366 367.221 84.9818 366.585 84.6754C365.949 84.3691 365.475 83.9079 365.161 83.2984C365.002 83.0109 364.888 82.6698 364.82 82.275C364.752 81.8802 364.719 81.2706 364.719 80.4495V80.0673V75.9455H362.677C362.342 75.9455 362.096 75.8792 361.945 75.7434C361.792 75.6076 361.718 75.3865 361.718 75.0833C361.718 74.7453 361.822 74.5147 362.031 74.3916C362.24 74.2684 362.683 74.2052 363.366 74.2052H364.722V71.6753V71.0215C364.722 70.6678 364.796 70.4056 364.943 70.2382C365.091 70.0708 365.321 69.9855 365.635 69.9855C365.989 69.9855 366.231 70.0898 366.367 70.2951C366.502 70.5004 366.57 70.971 366.57 71.7006V74.2052H371.311Z" fill="#2B266D"/>
<path d="M378.28 83.1756V70.5418H378.053C377.509 70.5418 377.133 70.4755 376.931 70.346C376.728 70.2134 376.623 69.9828 376.623 69.6543C376.623 69.3574 376.706 69.1363 376.869 68.9879C377.032 68.8394 377.272 68.7668 377.582 68.7668H379.409C379.624 68.7668 379.793 68.811 379.913 68.9026C380.033 68.9942 380.094 69.1174 380.094 69.2721V74.8626C380.679 74.3035 381.257 73.8898 381.828 73.6213C382.4 73.3528 382.994 73.2202 383.612 73.2202C384.82 73.2202 385.77 73.6055 386.465 74.3793C387.157 75.1532 387.504 76.2207 387.504 77.5883V83.1788H388.073C388.476 83.1788 388.768 83.2451 388.943 83.3809C389.119 83.5167 389.211 83.7315 389.211 84.0284C389.211 84.3253 389.131 84.5464 388.971 84.6948C388.811 84.8433 388.568 84.9159 388.248 84.9159H385.045C384.666 84.9159 384.414 84.8527 384.279 84.7232C384.147 84.5969 384.079 84.3632 384.079 84.0252C384.079 83.6967 384.162 83.4725 384.328 83.3525C384.494 83.2324 384.805 83.1724 385.266 83.1724H385.69V78.0431C385.69 77.0798 385.478 76.347 385.051 75.8417C384.623 75.3363 384.008 75.0837 383.197 75.0837C382.37 75.0837 381.647 75.3679 381.023 75.9364C380.399 76.505 380.091 77.2061 380.091 78.0463V83.1788H380.513C380.992 83.1788 381.318 83.2419 381.484 83.3651C381.65 83.4883 381.736 83.7094 381.736 84.0315C381.736 84.3695 381.672 84.6001 381.539 84.7295C381.407 84.8559 381.152 84.9222 380.777 84.9222H377.582C377.269 84.9222 377.035 84.8496 376.878 84.7011C376.721 84.5527 376.645 84.3316 376.645 84.0347C376.645 83.7062 376.74 83.482 376.927 83.3619C377.115 83.2419 377.481 83.1819 378.025 83.1819H378.28V83.1756Z" fill="#2B266D"/>
<path d="M313.613 95.465C313.742 95.2566 313.902 95.2282 314.09 95.3766C314.308 95.5693 314.342 95.8314 314.197 96.1567C314.053 96.4536 313.865 96.7663 313.631 97.0948C313.401 97.4233 313.127 97.7486 312.817 98.0771C312.506 98.4055 312.159 98.6772 311.774 98.8919C311.39 99.1067 311.012 99.2173 310.634 99.2173C310.228 99.2173 309.896 99.0751 309.634 98.794C309.33 98.4371 309.121 97.8718 309.004 97.0979C308.7 97.6191 308.337 98.0644 307.919 98.4371C307.657 98.6614 307.375 98.8414 307.07 98.9835C306.766 99.1257 306.44 99.2078 306.092 99.2299C305.745 99.252 305.419 99.1667 305.115 98.9741C304.795 98.7814 304.583 98.4877 304.475 98.0929C304.367 97.6981 304.343 97.3032 304.398 96.9116C304.454 96.52 304.564 96.1567 304.724 95.8283C304.955 95.3387 305.29 94.9091 305.723 94.5459C306.157 94.1827 306.637 93.9111 307.156 93.731C307.75 93.5384 308.309 93.5226 308.829 93.6868C308.857 92.853 308.872 92.3319 308.872 92.1234C308.872 91.8992 308.961 91.7412 309.142 91.6433C309.324 91.5454 309.508 91.5454 309.696 91.6433C309.883 91.7412 309.979 91.9023 309.979 92.1329C309.979 92.3634 309.966 92.8498 309.945 93.5952C309.923 94.3406 309.92 94.9123 309.933 95.3134C309.991 97.218 310.259 98.1687 310.735 98.1687C311.184 98.1687 311.688 97.8749 312.245 97.2875C312.811 96.6968 313.266 96.0904 313.613 95.465ZM307.224 97.5401C307.977 96.8263 308.469 95.9262 308.7 94.8397C308.555 94.707 308.352 94.6565 308.091 94.6944C307.83 94.7323 307.596 94.7923 307.384 94.8712C307.175 94.9534 306.981 95.045 306.809 95.1492C306.388 95.4177 306.052 95.7714 305.797 96.2104C305.545 96.6494 305.453 97.1074 305.527 97.5843C305.554 97.8086 305.637 97.957 305.776 98.0297C305.914 98.1055 306.077 98.1118 306.265 98.0518C306.452 97.9918 306.63 97.9191 306.796 97.8275C306.969 97.7423 307.11 97.6444 307.224 97.5401Z" fill="#2B266D"/>
<path d="M320.042 95.5093C320.214 95.2124 320.433 95.1524 320.694 95.3324C320.955 95.5093 321.014 95.7493 320.869 96.0462C320.854 96.0778 320.848 96.0999 320.848 96.1125C320.442 96.7979 320.021 97.3664 319.587 97.8181C319.154 98.2729 318.649 98.6361 318.078 98.9109C317.506 99.1857 316.878 99.3247 316.199 99.3247C315.778 99.3247 315.387 99.2583 315.024 99.1225C314.662 98.9741 314.36 98.753 314.124 98.4656C313.887 98.1782 313.715 97.8592 313.613 97.518C313.512 97.1769 313.453 96.8042 313.441 96.4031C313.426 95.7335 313.585 95.0639 313.918 94.3943C314.25 93.7248 314.714 93.3078 315.307 93.1436C315.83 92.9794 316.325 93.1057 316.795 93.5226C317.266 93.9395 317.515 94.4322 317.546 94.9944C317.561 95.2313 317.478 95.3987 317.297 95.4966C317.115 95.5945 316.928 95.5945 316.731 95.4966C316.534 95.3987 316.43 95.2313 316.417 94.9944C316.417 94.8618 316.35 94.7039 316.211 94.527C316.073 94.3501 315.925 94.2522 315.765 94.2364C315.418 94.1922 315.092 94.5175 314.788 95.2187C314.671 95.4998 314.597 95.8125 314.56 96.1568C314.523 96.4979 314.56 96.8421 314.668 97.1832C314.775 97.5244 314.96 97.777 315.221 97.9413C315.495 98.1055 315.836 98.1876 316.242 98.1876C317.745 98.1718 319.012 97.2812 320.042 95.5093Z" fill="#2B266D"/>
<path d="M326.428 95.5093C326.603 95.2124 326.818 95.1524 327.08 95.3324C327.341 95.5093 327.399 95.7493 327.252 96.0462C327.236 96.0778 327.23 96.0999 327.23 96.1125C326.824 96.7979 326.406 97.3664 325.97 97.8181C325.536 98.2729 325.032 98.6361 324.46 98.9109C323.888 99.1857 323.261 99.3247 322.581 99.3247C322.16 99.3247 321.77 99.2583 321.407 99.1225C321.044 98.9741 320.746 98.753 320.506 98.4656C320.266 98.175 320.097 97.8592 319.995 97.518C319.894 97.1769 319.836 96.8042 319.823 96.4031C319.808 95.7335 319.968 95.0639 320.3 94.3943C320.632 93.7248 321.096 93.3078 321.69 93.1436C322.212 92.9794 322.707 93.1057 323.178 93.5226C323.648 93.9395 323.897 94.4322 323.928 94.9944C323.943 95.2313 323.86 95.3987 323.679 95.4966C323.498 95.5945 323.31 95.5945 323.113 95.4966C322.916 95.3987 322.812 95.2313 322.8 94.9944C322.8 94.8618 322.732 94.7039 322.594 94.527C322.455 94.3501 322.308 94.2522 322.148 94.2364C321.8 94.1922 321.474 94.5175 321.17 95.2187C321.053 95.4998 320.979 95.8125 320.942 96.1568C320.906 96.4979 320.942 96.8421 321.05 97.1832C321.158 97.5244 321.342 97.777 321.604 97.9413C321.877 98.1055 322.218 98.1876 322.624 98.1876C324.131 98.1718 325.398 97.2812 326.428 95.5093Z" fill="#2B266D"/>
<path d="M333.488 95.5535C333.894 95.3293 334.146 95.3008 334.248 95.4651C334.377 95.7178 334.312 95.9483 334.051 96.1568C333.212 96.8264 332.148 97.2212 330.857 97.338C330.826 97.4865 330.792 97.6223 330.749 97.7392C330.445 98.6014 329.888 99.1068 329.076 99.2552C328.554 99.3594 328.083 99.2963 327.665 99.0657C327.244 98.8351 326.906 98.4877 326.644 98.0266C326.094 97.0001 326.045 95.9136 326.491 94.7671C326.693 94.2459 326.964 93.8069 327.305 93.45C327.647 93.0931 328.056 92.9067 328.532 92.8909C328.591 92.8783 328.649 92.8783 328.707 92.8909C328.824 92.8909 328.938 92.9067 329.055 92.9352C329.722 93.0552 330.217 93.4342 330.543 94.0722C330.869 94.7102 331.026 95.4335 331.01 96.2357C331.81 96.2484 332.634 96.0146 333.488 95.5535ZM329.319 97.9413C329.491 97.8086 329.624 97.6002 329.71 97.3159C328.972 97.1833 328.378 96.8327 327.929 96.2673C327.727 96.0146 327.567 95.7241 327.453 95.3956C327.422 95.5156 327.401 95.6262 327.388 95.7304C327.345 95.9989 327.33 96.261 327.345 96.5232C327.361 96.7821 327.425 97.0443 327.542 97.3033C327.659 97.5623 327.81 97.7771 327.997 97.9381C328.169 98.0866 328.388 98.1624 328.649 98.1624C328.91 98.1624 329.129 98.0897 329.319 97.9413ZM329.534 94.5491C329.461 94.4291 329.344 94.3154 329.175 94.2049C329.009 94.0943 328.852 94.0311 328.707 94.0154C328.649 94.0311 328.591 94.0375 328.532 94.0375H328.489C328.403 94.1575 328.372 94.3217 328.403 94.527C328.431 94.7355 328.477 94.9218 328.532 95.0861C328.735 95.6072 329.141 95.9483 329.75 96.1126C329.765 96.1126 329.783 96.1126 329.805 96.1126C329.827 96.1126 329.845 96.1189 329.86 96.1347C329.86 95.4209 329.753 94.8934 329.534 94.5491Z" fill="#2B266D"/>
<path d="M339.462 100.597C339.579 100.91 339.483 101.125 339.179 101.245C338.874 101.365 338.628 101.299 338.441 101.043C338.413 100.999 338.389 100.954 338.376 100.91C338.1 100.225 337.9 99.0941 337.768 97.518C337.74 97.2811 337.715 97.019 337.703 96.7379C336.747 98.9677 335.698 99.7131 334.551 98.9677C334.29 98.7908 334.081 98.5666 333.921 98.2981C333.761 98.0297 333.66 97.7043 333.617 97.3158C333.574 96.9274 333.549 96.5989 333.54 96.3241C333.534 96.0493 333.54 95.6861 333.561 95.2313C333.583 94.7765 333.595 94.4764 333.595 94.328C333.595 94.0911 333.691 93.9237 333.878 93.8258C334.066 93.7279 334.25 93.7279 334.432 93.8258C334.613 93.9237 334.702 94.0911 334.702 94.328C334.702 94.4922 334.696 94.767 334.681 95.1523C334.665 95.5408 334.662 95.8788 334.668 96.1662C334.674 96.4568 334.693 96.7284 334.724 96.9811C334.81 97.4864 334.942 97.8149 335.114 97.9633C335.2 98.0391 335.317 98.0739 335.462 98.0739C335.505 98.0739 335.566 98.0454 335.646 97.9854C335.726 97.9254 335.803 97.8559 335.874 97.7738C335.944 97.6917 336.012 97.6127 336.07 97.5401C336.129 97.4643 336.187 97.3695 336.246 97.2495C336.304 97.1295 336.353 97.0347 336.396 96.9589C336.439 96.8863 336.492 96.7821 336.547 96.6463C336.605 96.5136 336.645 96.4125 336.667 96.343C336.688 96.2767 336.725 96.1725 336.774 96.0304C336.824 95.8882 336.857 95.7966 336.873 95.7524C336.959 95.5598 337.079 95.2313 337.233 94.7701C337.386 94.309 337.512 93.9521 337.614 93.6994C337.629 93.6394 337.657 93.5794 337.7 93.5194C337.829 93.2383 338.041 93.1688 338.33 93.3204C338.592 93.3962 338.721 93.5731 338.721 93.8574C338.721 95.0765 338.773 96.2515 338.874 97.3822C338.991 98.8572 339.185 99.9279 339.462 100.597Z" fill="#2B266D"/>
<path d="M349.54 95.5094C349.684 95.2852 349.86 95.2631 350.063 95.4431C350.309 95.6358 350.336 95.8885 350.149 96.2011C349.583 97.1834 349.048 97.9225 348.541 98.4215C348.033 98.9206 347.391 99.1827 346.607 99.2143C346.099 99.2459 345.681 99.088 345.346 98.7468C345.014 98.4057 344.78 97.9509 344.651 97.3856C344.623 97.2213 344.577 96.9844 344.522 96.6718C344.467 96.3591 344.421 96.1348 344.393 96.0022C344.334 95.7337 344.276 95.5347 344.221 95.3989C344.147 95.2505 344.076 95.162 344.002 95.1304C343.784 95.0262 343.56 95.1304 343.329 95.4431C343.068 95.7716 342.837 96.2991 342.634 97.0287C342.256 98.3363 342.09 99.707 342.136 101.135C342.151 101.312 342.099 101.454 341.985 101.558C341.856 101.751 341.669 101.836 341.432 101.814C341.192 101.792 341.051 101.653 341.008 101.4C340.457 98.2762 340.451 95.1431 340.986 92.0036C341.029 91.7793 341.149 91.6467 341.346 91.6025C341.543 91.5582 341.721 91.6056 341.89 91.7477C342.056 91.8899 342.118 92.0794 342.075 92.3163C341.856 93.5954 341.733 94.8967 341.706 96.2233C342.198 94.7641 342.871 94.006 343.726 93.946C344.218 93.9176 344.608 94.0755 344.897 94.4261C345.186 94.7767 345.389 95.2252 345.506 95.7779C345.521 95.8379 345.543 95.9643 345.57 96.1569C345.598 96.3496 345.626 96.5201 345.647 96.6686C345.669 96.817 345.709 96.9939 345.767 97.1929C345.826 97.395 345.89 97.5624 345.964 97.6951C346.035 97.8277 346.136 97.9414 346.268 98.0299C346.398 98.1183 346.542 98.1625 346.702 98.1625C346.874 98.1625 347.046 98.1373 347.212 98.0836C347.378 98.033 347.526 97.9636 347.658 97.8846C347.787 97.8025 347.926 97.6951 348.07 97.5593C348.215 97.4266 348.338 97.3034 348.439 97.1897C348.541 97.0792 348.648 96.9339 348.765 96.7539C348.882 96.5738 348.974 96.4286 349.048 96.318C349.122 96.2075 349.211 96.0622 349.319 95.8821C349.42 95.7116 349.497 95.5852 349.54 95.5094Z" fill="#2B266D"/>
<path d="M359.645 88.3901C359.876 88.3901 360.039 88.4817 360.134 88.6681C360.229 88.8544 360.229 89.0439 360.134 89.2366C360.039 89.4292 359.876 89.5272 359.645 89.5272H350.892C350.892 89.5429 350.888 89.5745 350.879 89.6282C350.873 89.6819 350.867 89.7198 350.867 89.7514C350.636 93.2478 350.526 96.1567 350.541 98.475C350.556 100.143 350.627 101.46 350.759 102.426C350.845 102.992 350.947 103.453 351.064 103.81C351.107 103.958 351.171 104.1 351.261 104.233L351.282 104.321C351.297 104.337 351.325 104.359 351.368 104.388C351.368 104.403 351.374 104.41 351.39 104.41C351.491 104.482 351.556 104.583 351.586 104.71C351.614 104.836 351.608 104.953 351.565 105.057C351.522 105.161 351.463 105.253 351.393 105.335C351.319 105.417 351.23 105.461 351.122 105.468C351.015 105.474 350.901 105.443 350.784 105.367C350.538 105.19 350.332 104.925 350.166 104.574C350 104.223 349.889 103.923 349.84 103.671C349.788 103.418 349.735 103.083 349.677 102.666C349.505 101.343 349.416 99.8363 349.416 98.1465C349.416 96.4568 349.459 94.9439 349.545 93.6047C349.573 92.7709 349.652 91.4096 349.785 89.5208H345.093C344.862 89.5208 344.699 89.4229 344.604 89.2303C344.512 89.0376 344.512 88.8481 344.604 88.6617C344.699 88.4754 344.862 88.3838 345.093 88.3838H346.898H349.868C349.895 87.8627 349.92 87.411 349.932 87.0225C349.948 86.7983 350.052 86.6403 350.249 86.5424C350.443 86.4445 350.633 86.4445 350.815 86.5424C350.996 86.6403 351.079 86.7983 351.064 87.0225C351.048 87.3794 351.021 87.8342 350.978 88.3838H359.645V88.3901Z" fill="#2B266D"/>
<path d="M356.754 95.3766C356.87 95.184 357.006 95.0955 357.166 95.1081C357.326 95.1208 357.43 95.2124 357.482 95.3766C357.532 95.5409 357.516 95.7335 357.427 95.9578C357.095 96.6274 356.548 97.338 355.788 98.0897C355.029 98.8414 354.3 99.2173 353.605 99.2173C353.199 99.2173 352.858 99.0752 352.584 98.7941C352.179 98.3613 351.948 97.5749 351.889 96.4284C351.862 96.3557 351.856 95.9262 351.877 95.146C351.899 94.3659 351.911 93.9364 351.911 93.8637C351.911 93.6268 352.006 93.4594 352.194 93.3615C352.381 93.2636 352.566 93.2636 352.747 93.3615C352.929 93.4594 353.018 93.6268 353.018 93.8637C353.018 94.0406 353.012 94.3659 352.996 94.8334C352.981 95.3008 352.981 95.6609 352.996 95.9167C352.996 96.8232 353.082 97.4486 353.258 97.7928C353.359 97.9855 353.467 98.0834 353.584 98.0834C353.916 98.0834 354.251 97.9855 354.583 97.7928C354.915 97.6002 355.238 97.3191 355.548 96.9558C355.859 96.5926 356.083 96.3178 356.222 96.1315C356.357 95.9388 356.535 95.6893 356.754 95.3766ZM352.941 92.4077C352.846 92.6003 352.689 92.6983 352.464 92.6983C352.24 92.6983 352.08 92.6003 351.988 92.4077C351.893 92.215 351.893 92.0224 351.988 91.8265C352.083 91.6339 352.24 91.5359 352.464 91.5359C352.689 91.5359 352.849 91.6339 352.941 91.8265C353.033 92.0224 353.033 92.215 352.941 92.4077Z" fill="#2B266D"/>
<path d="M365.486 95.5093C365.63 95.285 365.806 95.2629 366.009 95.4429C366.255 95.6356 366.282 95.8883 366.095 96.201C365.529 97.1832 364.994 97.9223 364.487 98.4213C363.979 98.9204 363.334 99.1825 362.553 99.2141C362.045 99.2457 361.624 99.0878 361.292 98.7467C360.96 98.4056 360.726 97.9507 360.597 97.3854C360.569 97.2211 360.523 96.9843 360.468 96.6716C360.41 96.3589 360.367 96.1346 360.339 96.002C360.28 95.7335 360.222 95.5345 360.167 95.3987C360.093 95.2503 360.022 95.1618 359.948 95.1302C359.73 95.026 359.506 95.1302 359.275 95.4429C359.014 95.7714 358.783 96.2989 358.58 97.0285C358.202 98.3361 358.036 99.7068 358.082 101.134C358.097 101.311 358.045 101.453 357.928 101.558C357.799 101.75 357.615 101.836 357.375 101.814C357.135 101.791 356.994 101.652 356.951 101.4C356.4 98.2761 356.394 95.1429 356.929 92.0034C356.972 91.7791 357.092 91.6465 357.289 91.6023C357.486 91.5581 357.664 91.6054 357.833 91.7476C357.999 91.8897 358.061 92.0792 358.017 92.3161C357.799 93.5952 357.676 94.8965 357.649 96.2231C358.14 94.7639 358.814 94.0058 359.669 93.9458C360.161 93.9174 360.551 94.0753 360.843 94.4259C361.132 94.7765 361.335 95.225 361.452 95.7777C361.467 95.8377 361.489 95.9641 361.516 96.1567C361.544 96.3494 361.572 96.52 361.593 96.6684C361.615 96.8169 361.655 96.9937 361.713 97.1927C361.772 97.3949 361.836 97.5622 361.91 97.6949C361.984 97.8276 362.085 97.9413 362.214 98.0297C362.344 98.1181 362.488 98.1624 362.648 98.1624C362.823 98.1624 362.992 98.1371 363.158 98.0834C363.324 98.0329 363.472 97.9634 363.604 97.8844C363.733 97.8023 363.872 97.6949 364.016 97.5591C364.161 97.4264 364.284 97.3033 364.385 97.1896C364.487 97.079 364.594 96.9337 364.711 96.7537C364.828 96.5737 364.92 96.4284 364.994 96.3178C365.068 96.2073 365.157 96.062 365.264 95.882C365.366 95.7114 365.443 95.5851 365.486 95.5093Z" fill="#2B266D"/>
<path d="M371.395 99.4604C371.614 99.5047 371.743 99.6278 371.786 99.83C371.829 100.029 371.783 100.215 371.644 100.389C371.506 100.56 371.321 100.623 371.091 100.579C370.584 100.474 370.07 100.43 369.547 100.446C369.563 101.994 369.467 103.251 369.265 104.217C369.046 105.244 368.68 106.172 368.167 107.006C367.653 107.84 366.983 108.449 366.156 108.835C365.735 109.043 365.283 109.169 364.797 109.214C364.311 109.258 363.85 109.22 363.407 109.103C362.965 108.983 362.574 108.753 362.233 108.411C361.891 108.07 361.679 107.638 361.593 107.117C361.421 106.163 361.572 105.196 362.048 104.214C362.525 103.232 363.164 102.363 363.961 101.602C365.234 100.411 366.719 99.6815 368.413 99.4162C368.413 99.3846 368.41 99.2236 368.401 98.9267C368.394 98.6298 368.388 98.4055 368.388 98.2571C368.388 98.2444 368.385 98.2223 368.376 98.2002C368.37 98.1781 368.364 98.1592 368.364 98.1434C368.29 98.2476 368.219 98.3424 368.145 98.4339C367.767 98.8667 367.334 99.113 366.842 99.1825C366.35 99.2488 365.895 99.0593 365.473 98.614C365.04 98.0202 364.865 97.3569 364.951 96.6273C365.037 95.8977 365.32 95.266 365.796 94.7291C366.464 93.9711 367.244 93.7784 368.142 94.1479L368.099 93.8574C368.084 93.6205 368.164 93.4531 368.339 93.3552C368.514 93.2573 368.699 93.2573 368.893 93.3552C369.086 93.4531 369.2 93.6205 369.231 93.8574C369.375 95.405 369.471 97.2211 369.514 99.3025C370.15 99.2899 370.771 99.3404 371.395 99.4604ZM368.419 102.025C368.447 101.592 368.456 101.103 368.441 100.553C366.746 100.866 365.32 101.69 364.161 103.029C363.536 103.759 363.103 104.511 362.857 105.281C362.525 106.28 362.562 107.031 362.965 107.537C363.167 107.805 363.484 107.979 363.908 108.061C364.336 108.143 364.68 108.14 364.942 108.048C365.507 107.928 366.005 107.676 366.442 107.29C367.629 106.235 368.287 104.482 368.419 102.025ZM368.222 95.5756V95.5313C367.933 95.2502 367.632 95.1144 367.321 95.1302C367.011 95.146 366.731 95.3324 366.485 95.6893C366.341 95.8977 366.224 96.1441 366.138 96.4252C366.052 96.7063 366.03 97.0032 366.073 97.3064C366.116 97.6128 366.248 97.8402 366.464 97.9854C366.666 98.1181 366.876 98.0897 367.094 97.897C367.312 97.7043 367.5 97.4738 367.66 97.2053C368.019 96.5799 368.207 96.0367 368.222 95.5756Z" fill="#2B266D"/>
<path d="M277.405 102.979C285.993 102.404 294.608 102.24 303.211 102.486C305.655 102.555 308.097 102.66 310.538 102.799C311.131 102.83 311.128 101.883 310.538 101.851C301.944 101.371 293.329 101.298 284.729 101.64C282.288 101.737 279.846 101.867 277.405 102.031C276.818 102.069 276.812 103.017 277.405 102.979Z" fill="#2B266D"/>
<path d="M287.983 101.539C288.706 96.2736 288.881 90.939 288.475 85.6359C288.358 84.1325 288.195 82.6323 287.992 81.1383C287.909 80.5382 287.021 80.794 287.104 81.391C287.802 86.5203 287.952 91.7286 287.562 96.8895C287.451 98.3613 287.297 99.8268 287.094 101.289C287.061 101.545 287.156 101.795 287.417 101.873C287.629 101.933 287.949 101.795 287.983 101.539Z" fill="#2B266D"/>
<path d="M288.056 96.5102C289.612 91.5451 293.301 87.4265 297.889 85.2377C299.189 84.6186 300.567 84.1701 301.975 83.8954C302.556 83.7817 302.31 82.8657 301.729 82.9826C296.499 84.0122 291.829 87.4486 289.037 92.0852C288.25 93.3928 287.623 94.7983 287.164 96.2607C286.983 96.8418 287.872 97.0882 288.056 96.5102Z" fill="#2B266D"/>
<path d="M288.378 96.8608C293.049 96.5924 296.419 92.8117 298.596 88.8984C299.281 87.6666 299.89 86.3969 300.499 85.1241C300.76 84.5777 299.964 84.0976 299.703 84.6471C297.805 88.6141 295.715 92.9254 291.678 94.991C290.648 95.5185 289.528 95.847 288.378 95.9133C287.788 95.948 287.785 96.8956 288.378 96.8608Z" fill="#2B266D"/>
<path d="M287.927 89.0315C282.906 86.7511 279.265 81.8365 278.208 76.3314C277.906 74.7648 277.836 73.1603 277.986 71.5716C278.045 70.9652 277.119 70.9684 277.064 71.5716C276.514 77.421 279.044 83.4158 283.382 87.2027C284.615 88.2798 285.98 89.1799 287.462 89.8527C288.001 90.0927 288.471 89.2778 287.927 89.0315Z" fill="#2B266D"/>
<path d="M278.319 72.724C281.83 76.0562 284.514 80.279 286.058 84.9282C286.495 86.2453 286.842 87.5908 287.097 88.9584C287.208 89.5553 288.1 89.3027 287.986 88.7057C287.063 83.7628 284.92 79.0946 281.833 75.1876C280.954 74.0727 279.995 73.0272 278.971 72.0544C278.534 71.6407 277.879 72.3103 278.319 72.724Z" fill="#2B266D"/>
<path d="M287.693 88.4404C287.951 83.5732 288.342 77.9954 292.324 74.6854C293.252 73.9116 294.341 73.3715 295.509 73.1251C296.09 73.0019 295.844 72.0892 295.263 72.2123C292.994 72.6924 291.115 74.2116 289.775 76.1067C288.234 78.2829 287.518 80.9233 287.167 83.5606C286.952 85.1809 286.857 86.8106 286.771 88.4436C286.74 89.05 287.662 89.0468 287.693 88.4404Z" fill="#2B266D"/>
<path d="M288.153 89.0119C291.901 85.7524 294.751 81.4537 296.372 76.6939C296.833 75.3453 297.186 73.9619 297.439 72.5564C297.546 71.9594 296.658 71.7036 296.55 72.3037C295.683 77.1456 293.54 81.719 290.385 85.427C289.497 86.4725 288.531 87.4421 287.501 88.3391C287.046 88.7371 287.701 89.4035 288.153 89.0119Z" fill="#2B266D"/>
<path d="M652.279 222.398L661.651 229.294" stroke="#2B266D" stroke-width="2" stroke-miterlimit="10" stroke-linecap="round" stroke-linejoin="round"/>
<path d="M653.661 216.807L665.162 215.061" stroke="#2B266D" stroke-width="2" stroke-miterlimit="10" stroke-linecap="round" stroke-linejoin="round"/>
<path d="M645.098 210.505L643.348 199" stroke="#2B266D" stroke-width="2" stroke-miterlimit="10" stroke-linecap="round" stroke-linejoin="round"/>
<path d="M650.684 211.884L657.584 202.512" stroke="#2B266D" stroke-width="2" stroke-miterlimit="10" stroke-linecap="round" stroke-linejoin="round"/>
<path d="M525.527 400.2H644.5" stroke="#2B266D" stroke-width="2" stroke-miterlimit="10" stroke-linejoin="round"/>
<path d="M528.693 343.2H538.502" stroke="#2B266D" stroke-width="2" stroke-miterlimit="10" stroke-linejoin="round"/>
<path d="M643.35 218.945L537.227 256.674L553.852 296.05L643.35 218.945Z" fill="white" stroke="#2B266D" stroke-width="2" stroke-miterlimit="10" stroke-linejoin="round"/>
<path d="M645.807 217.577L537.236 256.948L511.312 242.397L645.807 217.577Z" fill="#2DC495" stroke="#2B266D" stroke-width="2" stroke-miterlimit="10" stroke-linejoin="round"/>
<path d="M550.742 264.118L553.851 296.05L643.472 218.94L550.742 264.118Z" fill="#2B266D" stroke="#2B266D" stroke-width="2" stroke-miterlimit="10" stroke-linejoin="round"/>
<path d="M645.808 217.577L645.822 218.004L592.444 289.199L551.121 263.932L645.808 217.577Z" fill="#FF5787" stroke="#2B266D" stroke-width="2" stroke-miterlimit="10" stroke-linejoin="round"/>
<path d="M460 316.996C498.428 310.294 524.886 298.934 540.995 289.996" stroke="#2B266D" stroke-width="2" stroke-miterlimit="10" stroke-linejoin="round"/>
<path d="M489.634 295.459C511.718 289.591 528.445 282.394 540.32 276.111" stroke="#2B266D" stroke-width="2" stroke-miterlimit="10" stroke-linejoin="round"/>
<path d="M479.139 298.038C481.162 297.572 483.15 297.106 485.09 296.613" stroke="#2B266D" stroke-width="2" stroke-miterlimit="10" stroke-linejoin="round"/>
<path d="M472.423 299.492C473.924 299.183 475.414 298.87 476.887 298.541" stroke="#2B266D" stroke-width="2" stroke-miterlimit="10" stroke-linejoin="round"/>
</g>
<defs>
<clipPath id="clip0_3820_6628">
<rect width="800" height="400" fill="white"/>
</clipPath>
</defs>
</svg>
