<svg width="800" height="400" viewBox="0 0 800 400" fill="none" xmlns="http://www.w3.org/2000/svg">
<rect x="262.762" y="38.2117" width="281.771" height="328.18" rx="16.5747" fill="#2B266D"/>
<path d="M154.057 375C151.096 375 149.621 371.414 151.724 369.33L180.365 340.96C180.986 340.345 181.825 340 182.698 340H533.391C534.203 340 534.987 340.298 535.594 340.838L567.489 369.208C569.766 371.234 568.333 375 565.285 375H154.057Z" fill="#2B266D"/>
<rect x="270.392" y="39.2117" width="279.771" height="332.81" rx="15.5747" fill="white" stroke="#2B266D" stroke-width="2"/>
<path d="M301.381 302.893C300.726 302.893 300.115 302.758 299.547 302.488C298.979 302.209 298.512 301.829 298.146 301.347C297.78 300.866 297.559 300.322 297.482 299.716L299.229 299.181C299.306 299.778 299.552 300.269 299.966 300.654C300.389 301.03 300.885 301.217 301.453 301.217C301.983 301.217 302.406 301.102 302.724 300.871C303.042 300.64 303.2 300.332 303.2 299.947C303.2 299.648 303.104 299.403 302.912 299.21C302.729 299.018 302.493 298.864 302.204 298.748C301.915 298.633 301.525 298.503 301.034 298.358C300.36 298.156 299.812 297.959 299.388 297.766C298.964 297.564 298.599 297.265 298.291 296.871C297.992 296.476 297.843 295.961 297.843 295.326C297.843 294.796 297.997 294.32 298.305 293.896C298.613 293.472 299.032 293.145 299.561 292.914C300.1 292.673 300.697 292.553 301.352 292.553C301.987 292.553 302.57 292.659 303.099 292.871C303.629 293.082 304.067 293.386 304.413 293.78C304.77 294.166 305.001 294.608 305.107 295.109L303.345 295.831C303.239 295.34 303.008 294.95 302.652 294.661C302.305 294.373 301.872 294.228 301.352 294.228C300.871 294.228 300.49 294.329 300.211 294.531C299.932 294.724 299.792 294.989 299.792 295.326C299.792 295.557 299.874 295.744 300.038 295.889C300.202 296.033 300.404 296.149 300.644 296.235C300.885 296.322 301.236 296.428 301.699 296.553C302.411 296.726 303.003 296.919 303.475 297.131C303.947 297.333 304.351 297.655 304.688 298.098C305.025 298.541 305.193 299.143 305.193 299.903C305.193 300.491 305.034 301.01 304.717 301.463C304.399 301.915 303.951 302.267 303.374 302.517C302.796 302.767 302.132 302.893 301.381 302.893ZM306.519 295.499H308.339V302.777H306.519V295.499ZM307.429 294.387C307.102 294.387 306.832 294.281 306.62 294.069C306.409 293.848 306.303 293.578 306.303 293.261C306.303 292.943 306.409 292.678 306.62 292.466C306.842 292.255 307.111 292.149 307.429 292.149C307.756 292.149 308.031 292.259 308.252 292.481C308.474 292.693 308.584 292.953 308.584 293.261C308.584 293.578 308.474 293.848 308.252 294.069C308.031 294.281 307.756 294.387 307.429 294.387ZM313.105 302.56C312.046 302.56 311.213 302.233 310.607 301.578C310.01 300.924 309.711 300.057 309.711 298.979C309.711 298.267 309.846 297.641 310.116 297.102C310.385 296.553 310.77 296.129 311.271 295.831C311.781 295.533 312.378 295.383 313.062 295.383C313.495 295.383 313.889 295.46 314.246 295.614C314.612 295.768 314.9 295.975 315.112 296.235V295.499H316.917V302.315C316.917 302.95 316.768 303.509 316.47 303.99C316.171 304.481 315.748 304.857 315.199 305.116C314.65 305.386 314.019 305.521 313.307 305.521C312.45 305.521 311.714 305.309 311.098 304.885C310.481 304.471 310.111 303.927 309.986 303.254L311.675 302.979C311.714 303.316 311.887 303.581 312.195 303.773C312.503 303.966 312.874 304.062 313.307 304.062C313.856 304.062 314.294 303.918 314.621 303.629C314.958 303.35 315.127 302.974 315.127 302.503V301.708C314.944 301.968 314.669 302.175 314.303 302.329C313.938 302.483 313.538 302.56 313.105 302.56ZM311.516 298.979C311.516 299.586 311.685 300.072 312.022 300.438C312.359 300.803 312.806 300.986 313.365 300.986C313.923 300.986 314.371 300.803 314.708 300.438C315.054 300.072 315.228 299.586 315.228 298.979C315.228 298.363 315.059 297.872 314.722 297.506C314.385 297.14 313.933 296.957 313.365 296.957C312.806 296.957 312.359 297.14 312.022 297.506C311.685 297.872 311.516 298.363 311.516 298.979ZM318.689 295.499H320.509V296.596C320.75 296.231 321.067 295.937 321.462 295.716C321.866 295.494 322.319 295.383 322.82 295.383C323.619 295.383 324.259 295.624 324.74 296.105C325.231 296.587 325.477 297.222 325.477 298.012V302.777H323.657V298.445C323.657 298.012 323.532 297.665 323.282 297.405C323.031 297.136 322.694 297.001 322.271 297.001C321.712 297.001 321.279 297.227 320.971 297.679C320.663 298.132 320.509 298.767 320.509 299.586V302.777H318.689V295.499ZM331.481 298.098C331.481 297.684 331.351 297.362 331.091 297.131C330.831 296.89 330.48 296.77 330.037 296.77C329.642 296.77 329.31 296.885 329.041 297.116C328.781 297.347 328.631 297.655 328.593 298.04L326.976 297.752C327.091 297.039 327.433 296.466 328.001 296.033C328.578 295.6 329.257 295.383 330.037 295.383C331.009 295.383 331.784 295.643 332.362 296.163C332.949 296.673 333.243 297.4 333.243 298.344V302.777H331.481V301.723C331.279 302.079 330.976 302.363 330.571 302.575C330.177 302.787 329.753 302.893 329.3 302.893C328.829 302.893 328.41 302.801 328.044 302.618C327.678 302.426 327.39 302.166 327.178 301.838C326.976 301.511 326.874 301.14 326.874 300.726C326.874 300.014 327.144 299.46 327.683 299.066C328.222 298.671 329.036 298.416 330.124 298.3L331.481 298.17V298.098ZM328.636 300.669C328.636 300.929 328.732 301.14 328.925 301.304C329.118 301.468 329.378 301.55 329.705 301.55C330.254 301.55 330.687 301.367 331.005 301.001C331.322 300.635 331.481 300.178 331.481 299.629V299.47L330.095 299.629C329.623 299.687 329.262 299.807 329.012 299.99C328.761 300.173 328.636 300.399 328.636 300.669ZM339.211 302.705C338.864 302.83 338.474 302.893 338.041 302.893C337.271 302.893 336.65 302.681 336.178 302.257C335.707 301.834 335.471 301.213 335.471 300.394V297.03H334.243V295.499H335.471V293.362H337.29V295.499H339.124V297.03H337.29V300.221C337.29 300.558 337.372 300.823 337.536 301.015C337.709 301.198 337.94 301.29 338.229 301.29C338.566 301.29 338.85 301.232 339.081 301.116L339.211 302.705ZM347.18 302.777H345.361V301.68C345.12 302.045 344.797 302.339 344.393 302.56C343.998 302.782 343.551 302.893 343.05 302.893C342.251 302.893 341.606 302.652 341.115 302.171C340.634 301.689 340.393 301.054 340.393 300.264V295.499H342.212V299.831C342.212 300.264 342.338 300.616 342.588 300.885C342.838 301.145 343.175 301.275 343.599 301.275C344.157 301.275 344.59 301.049 344.898 300.596C345.206 300.144 345.361 299.509 345.361 298.69V295.499H347.18V302.777ZM353.632 297.261C353.372 297.145 353.064 297.087 352.708 297.087C352.15 297.087 351.683 297.338 351.307 297.838C350.941 298.329 350.758 299.085 350.758 300.106V302.777H348.939V295.499H350.758V296.827C350.941 296.413 351.24 296.072 351.654 295.802C352.077 295.523 352.511 295.383 352.953 295.383C353.252 295.383 353.517 295.422 353.748 295.499L353.632 297.261ZM354.162 299.138C354.162 298.483 354.296 297.872 354.566 297.304C354.845 296.726 355.254 296.264 355.793 295.918C356.333 295.561 356.987 295.383 357.757 295.383C358.537 295.383 359.202 295.552 359.75 295.889C360.299 296.226 360.713 296.664 360.992 297.203C361.271 297.742 361.411 298.305 361.411 298.892C361.411 299.181 361.401 299.422 361.382 299.615H355.981C356.058 300.163 356.265 300.592 356.602 300.9C356.939 301.208 357.368 301.362 357.887 301.362C358.311 301.362 358.667 301.266 358.956 301.073C359.245 300.88 359.437 300.606 359.534 300.25L361.238 300.712C361.035 301.396 360.636 301.93 360.039 302.315C359.442 302.7 358.715 302.893 357.859 302.893C357.088 302.893 356.424 302.719 355.866 302.373C355.307 302.016 354.884 301.55 354.595 300.972C354.306 300.394 354.162 299.783 354.162 299.138ZM359.461 298.286C359.413 297.833 359.245 297.468 358.956 297.188C358.667 296.909 358.268 296.77 357.757 296.77C357.305 296.77 356.925 296.9 356.617 297.16C356.318 297.42 356.121 297.795 356.025 298.286H359.461ZM370.95 297.261C370.69 297.145 370.382 297.087 370.026 297.087C369.467 297.087 369 297.338 368.625 297.838C368.259 298.329 368.076 299.085 368.076 300.106V302.777H366.256V295.499H368.076V296.827C368.259 296.413 368.557 296.072 368.971 295.802C369.395 295.523 369.828 295.383 370.271 295.383C370.569 295.383 370.834 295.422 371.065 295.499L370.95 297.261ZM371.479 299.138C371.479 298.483 371.614 297.872 371.884 297.304C372.163 296.726 372.572 296.264 373.111 295.918C373.65 295.561 374.305 295.383 375.075 295.383C375.855 295.383 376.519 295.552 377.068 295.889C377.617 296.226 378.031 296.664 378.31 297.203C378.589 297.742 378.729 298.305 378.729 298.892C378.729 299.181 378.719 299.422 378.7 299.615H373.299C373.376 300.163 373.583 300.592 373.92 300.9C374.257 301.208 374.685 301.362 375.205 301.362C375.629 301.362 375.985 301.266 376.274 301.073C376.562 300.88 376.755 300.606 376.851 300.25L378.555 300.712C378.353 301.396 377.954 301.93 377.357 302.315C376.76 302.7 376.033 302.893 375.176 302.893C374.406 302.893 373.742 302.719 373.183 302.373C372.625 302.016 372.201 301.55 371.913 300.972C371.624 300.394 371.479 299.783 371.479 299.138ZM376.779 298.286C376.731 297.833 376.562 297.468 376.274 297.188C375.985 296.909 375.585 296.77 375.075 296.77C374.623 296.77 374.242 296.9 373.934 297.16C373.636 297.42 373.438 297.795 373.342 298.286H376.779ZM385.26 305.405V302.055C385.048 302.315 384.76 302.522 384.394 302.676C384.038 302.82 383.648 302.893 383.224 302.893C382.521 302.893 381.905 302.739 381.376 302.43C380.846 302.113 380.437 301.67 380.148 301.102C379.859 300.534 379.715 299.879 379.715 299.138C379.715 298.397 379.85 297.742 380.119 297.174C380.399 296.606 380.793 296.168 381.304 295.86C381.814 295.542 382.411 295.383 383.094 295.383C383.566 295.383 383.989 295.47 384.365 295.643C384.75 295.817 385.048 296.048 385.26 296.336V295.499H387.08V305.405H385.26ZM381.52 299.138C381.52 299.793 381.693 300.322 382.04 300.726C382.396 301.121 382.863 301.319 383.441 301.319C384.028 301.319 384.495 301.121 384.841 300.726C385.198 300.322 385.376 299.793 385.376 299.138C385.376 298.483 385.198 297.959 384.841 297.564C384.495 297.16 384.028 296.957 383.441 296.957C382.863 296.957 382.396 297.16 382.04 297.564C381.693 297.959 381.52 298.483 381.52 299.138ZM395.636 302.777H393.816V301.68C393.575 302.045 393.253 302.339 392.848 302.56C392.454 302.782 392.006 302.893 391.505 302.893C390.706 302.893 390.061 302.652 389.57 302.171C389.089 301.689 388.848 301.054 388.848 300.264V295.499H390.668V299.831C390.668 300.264 390.793 300.616 391.043 300.885C391.294 301.145 391.631 301.275 392.054 301.275C392.613 301.275 393.046 301.049 393.354 300.596C393.662 300.144 393.816 299.509 393.816 298.69V295.499H395.636V302.777ZM397.394 295.499H399.214V302.777H397.394V295.499ZM398.304 294.387C397.977 294.387 397.707 294.281 397.495 294.069C397.284 293.848 397.178 293.578 397.178 293.261C397.178 292.943 397.284 292.678 397.495 292.466C397.717 292.255 397.986 292.149 398.304 292.149C398.631 292.149 398.906 292.259 399.127 292.481C399.349 292.693 399.459 292.953 399.459 293.261C399.459 293.578 399.349 293.848 399.127 294.069C398.906 294.281 398.631 294.387 398.304 294.387ZM405.67 297.261C405.41 297.145 405.102 297.087 404.745 297.087C404.187 297.087 403.72 297.338 403.345 297.838C402.979 298.329 402.796 299.085 402.796 300.106V302.777H400.976V295.499H402.796V296.827C402.979 296.413 403.277 296.072 403.691 295.802C404.115 295.523 404.548 295.383 404.991 295.383C405.289 295.383 405.554 295.422 405.785 295.499L405.67 297.261ZM406.199 299.138C406.199 298.483 406.334 297.872 406.603 297.304C406.883 296.726 407.292 296.264 407.831 295.918C408.37 295.561 409.025 295.383 409.795 295.383C410.575 295.383 411.239 295.552 411.788 295.889C412.336 296.226 412.75 296.664 413.03 297.203C413.309 297.742 413.448 298.305 413.448 298.892C413.448 299.181 413.439 299.422 413.419 299.615H408.019C408.096 300.163 408.303 300.592 408.64 300.9C408.977 301.208 409.405 301.362 409.925 301.362C410.348 301.362 410.705 301.266 410.993 301.073C411.282 300.88 411.475 300.606 411.571 300.25L413.275 300.712C413.073 301.396 412.673 301.93 412.077 302.315C411.48 302.7 410.753 302.893 409.896 302.893C409.126 302.893 408.462 302.719 407.903 302.373C407.345 302.016 406.921 301.55 406.632 300.972C406.344 300.394 406.199 299.783 406.199 299.138ZM411.499 298.286C411.451 297.833 411.282 297.468 410.993 297.188C410.705 296.909 410.305 296.77 409.795 296.77C409.342 296.77 408.962 296.9 408.654 297.16C408.356 297.42 408.158 297.795 408.062 298.286H411.499ZM417.901 302.893C417.188 302.893 416.567 302.739 416.038 302.43C415.518 302.113 415.118 301.67 414.839 301.102C414.57 300.534 414.435 299.879 414.435 299.138C414.435 298.397 414.57 297.742 414.839 297.174C415.118 296.606 415.518 296.168 416.038 295.86C416.558 295.542 417.169 295.383 417.872 295.383C418.315 295.383 418.724 295.47 419.099 295.643C419.475 295.807 419.768 296.028 419.98 296.308V292.553H421.8V302.777H419.98V301.939C419.797 302.228 419.518 302.459 419.143 302.633C418.767 302.806 418.353 302.893 417.901 302.893ZM416.24 299.138C416.24 299.793 416.413 300.322 416.76 300.726C417.116 301.121 417.583 301.319 418.161 301.319C418.748 301.319 419.215 301.121 419.561 300.726C419.918 300.322 420.096 299.793 420.096 299.138C420.096 298.483 419.918 297.959 419.561 297.564C419.215 297.16 418.748 296.957 418.161 296.957C417.583 296.957 417.116 297.16 416.76 297.564C416.413 297.959 416.24 298.483 416.24 299.138Z" fill="#2B266D"/>
<path d="M298.368 332.572L301.877 327.114L298.888 322.464H299.898L302.382 326.334L304.881 322.464H305.891L302.888 327.114L306.397 332.572H305.386L302.382 327.908L299.379 332.572H298.368Z" fill="#2B266D"/>
<rect x="297.388" y="339" width="203" height="4" rx="2" fill="#9C96F0"/>
<path d="M296.435 64.7819H306.609V67.3255H299.391V70.6735H305.174V73.2388H299.391V77.4346H306.848V79.9999H296.435V64.7819ZM309.046 64.7819H312.046L318.568 75.3476V64.7819H321.329V79.9999H318.329L311.828 69.456V79.9999H309.046V64.7819ZM331.008 80.1739C329.675 80.1739 328.443 79.8767 327.313 79.2825C326.182 78.6883 325.269 77.8114 324.573 76.652C323.892 75.478 323.552 74.0577 323.552 72.3909C323.552 70.7242 323.899 69.3111 324.595 68.1516C325.305 66.9777 326.24 66.0936 327.4 65.4994C328.574 64.9051 329.842 64.608 331.204 64.608C333.03 64.608 334.552 65.0573 335.769 65.9559C336.987 66.8545 337.741 68.0937 338.03 69.6734L335.117 70.2822C334.929 69.3256 334.48 68.5647 333.769 67.9995C333.059 67.4342 332.197 67.1516 331.182 67.1516C330.269 67.1516 329.458 67.3618 328.747 67.7821C328.052 68.1879 327.508 68.7893 327.117 69.5865C326.726 70.3691 326.53 71.3039 326.53 72.3909C326.53 73.4779 326.726 74.4128 327.117 75.1954C327.508 75.978 328.052 76.5795 328.747 76.9998C329.443 77.4056 330.24 77.6085 331.139 77.6085C332.284 77.6085 333.219 77.3042 333.943 76.6955C334.668 76.0722 335.067 75.2606 335.139 74.2606H330.617V71.8692H337.878V79.9999H335.204V78.152C334.871 78.7608 334.32 79.2535 333.552 79.6304C332.784 79.9927 331.936 80.1739 331.008 80.1739ZM344.508 74.1301H348.552L346.53 68.6517L344.508 74.1301ZM345.138 64.7819H347.899L353.747 79.9999H350.704L349.465 76.6302H343.573L342.334 79.9999H339.29L345.138 64.7819ZM361.474 80.1739C360.141 80.1739 358.909 79.8767 357.778 79.2825C356.648 78.6883 355.735 77.8114 355.039 76.652C354.358 75.478 354.017 74.0577 354.017 72.3909C354.017 70.7242 354.365 69.3111 355.061 68.1516C355.771 66.9777 356.706 66.0936 357.865 65.4994C359.039 64.9051 360.307 64.608 361.67 64.608C363.496 64.608 365.018 65.0573 366.235 65.9559C367.453 66.8545 368.206 68.0937 368.496 69.6734L365.583 70.2822C365.395 69.3256 364.945 68.5647 364.235 67.9995C363.525 67.4342 362.663 67.1516 361.648 67.1516C360.735 67.1516 359.923 67.3618 359.213 67.7821C358.517 68.1879 357.974 68.7893 357.583 69.5865C357.191 70.3691 356.996 71.3039 356.996 72.3909C356.996 73.4779 357.191 74.4128 357.583 75.1954C357.974 75.978 358.517 76.5795 359.213 76.9998C359.909 77.4056 360.706 77.6085 361.605 77.6085C362.75 77.6085 363.684 77.3042 364.409 76.6955C365.134 76.0722 365.532 75.2606 365.605 74.2606H361.083V71.8692H368.344V79.9999H365.67V78.152C365.337 78.7608 364.786 79.2535 364.018 79.6304C363.25 79.9927 362.402 80.1739 361.474 80.1739ZM371.039 64.7819H381.213V67.3255H373.995V70.6735H379.778V73.2388H373.995V77.4346H381.452V79.9999H371.039V64.7819ZM383.65 64.7819H386.976L391.628 75.8041L396.281 64.7819H399.607V79.9999H396.824V70.2822L392.737 79.9999H390.519L386.432 70.2822V79.9999H383.65V64.7819ZM402.481 64.7819H412.655V67.3255H405.438V70.6735H411.221V73.2388H405.438V77.4346H412.894V79.9999H402.481V64.7819ZM415.092 64.7819H418.092L424.614 75.3476V64.7819H427.375V79.9999H424.375L417.875 69.456V79.9999H415.092V64.7819ZM433.772 67.3255H429.185V64.7819H441.316V67.3255H436.728V79.9999H433.772V67.3255ZM448.296 64.7819H451.253V77.4346H458.319V79.9999H448.296V64.7819ZM460.016 64.7819H470.19V67.3255H462.972V70.6735H468.755V73.2388H462.972V77.4346H470.429V79.9999H460.016V64.7819ZM476.127 67.3255H471.539V64.7819H483.67V67.3255H479.083V79.9999H476.127V67.3255ZM488.929 67.3255H484.341V64.7819H496.472V67.3255H491.885V79.9999H488.929V67.3255ZM497.976 64.7819H508.15V67.3255H500.932V70.6735H506.715V73.2388H500.932V77.4346H508.389V79.9999H497.976V64.7819ZM510.587 64.7819H516.456C517.949 64.7819 519.138 65.195 520.022 66.0211C520.92 66.8327 521.37 67.9197 521.37 69.2821C521.37 70.1372 521.159 70.9126 520.739 71.6083C520.319 72.2895 519.732 72.8185 518.978 73.1953L523.022 79.9999H519.565L515.978 73.7606H513.565V79.9999H510.608L510.587 64.7819ZM516 71.217C516.753 71.217 517.34 71.0503 517.761 70.717C518.181 70.3691 518.391 69.8908 518.391 69.2821C518.391 68.6734 518.181 68.1951 517.761 67.8473C517.34 67.4994 516.753 67.3255 516 67.3255H513.565V71.217H516Z" fill="#2B266D"/>
<path d="M299.313 114.923H295.304V112.7H305.906V114.923H301.897V126H299.313V114.923ZM305.09 121.212C305.09 120.351 305.268 119.546 305.622 118.799C305.99 118.039 306.528 117.431 307.237 116.975C307.947 116.506 308.808 116.272 309.821 116.272C310.847 116.272 311.721 116.494 312.443 116.937C313.165 117.38 313.71 117.957 314.077 118.666C314.445 119.375 314.628 120.116 314.628 120.889C314.628 121.269 314.616 121.586 314.59 121.839H307.484C307.586 122.561 307.858 123.125 308.301 123.53C308.745 123.935 309.308 124.138 309.992 124.138C310.55 124.138 311.018 124.011 311.398 123.758C311.778 123.505 312.032 123.144 312.158 122.675L314.4 123.283C314.134 124.182 313.609 124.885 312.823 125.392C312.038 125.899 311.082 126.152 309.954 126.152C308.941 126.152 308.067 125.924 307.332 125.468C306.598 124.999 306.04 124.385 305.66 123.625C305.28 122.865 305.09 122.061 305.09 121.212ZM312.063 120.091C312 119.496 311.778 119.014 311.398 118.647C311.018 118.28 310.493 118.096 309.821 118.096C309.226 118.096 308.726 118.267 308.32 118.609C307.928 118.951 307.668 119.445 307.541 120.091H312.063ZM322.614 118.742C322.272 118.59 321.867 118.514 321.398 118.514C320.664 118.514 320.049 118.843 319.555 119.502C319.074 120.148 318.833 121.142 318.833 122.485V126H316.439V116.424H318.833V118.172C319.074 117.627 319.467 117.178 320.011 116.823C320.569 116.456 321.139 116.272 321.721 116.272C322.114 116.272 322.462 116.323 322.766 116.424L322.614 118.742ZM324.158 116.424H326.552V117.887C326.831 117.38 327.198 116.988 327.654 116.709C328.123 116.418 328.674 116.272 329.307 116.272C330.067 116.272 330.7 116.43 331.207 116.747C331.714 117.051 332.075 117.494 332.29 118.077C332.569 117.558 332.987 117.127 333.544 116.785C334.101 116.443 334.741 116.272 335.463 116.272C336.489 116.272 337.312 116.576 337.933 117.184C338.566 117.779 338.883 118.552 338.883 119.502V126H336.489V120.167C336.489 119.584 336.337 119.128 336.033 118.799C335.729 118.47 335.298 118.305 334.741 118.305C334.108 118.305 333.607 118.558 333.24 119.065C332.885 119.572 332.708 120.256 332.708 121.117V126H330.314V120.167C330.314 119.584 330.162 119.128 329.858 118.799C329.567 118.47 329.149 118.305 328.604 118.305C327.958 118.305 327.451 118.565 327.084 119.084C326.729 119.591 326.552 120.275 326.552 121.136V126H324.158V116.424ZM344.554 126.152C343.477 126.152 342.578 125.88 341.856 125.335C341.134 124.778 340.64 124.106 340.374 123.321L342.331 122.523C342.483 123.042 342.749 123.467 343.129 123.796C343.509 124.125 343.984 124.29 344.554 124.29C344.997 124.29 345.352 124.189 345.618 123.986C345.896 123.771 346.036 123.511 346.036 123.207C346.036 122.878 345.877 122.631 345.561 122.466C345.244 122.289 344.756 122.118 344.098 121.953C343.414 121.763 342.85 121.579 342.407 121.402C341.976 121.212 341.602 120.921 341.286 120.528C340.969 120.135 340.811 119.61 340.811 118.951C340.811 118.444 340.95 117.988 341.229 117.583C341.507 117.178 341.9 116.861 342.407 116.633C342.926 116.392 343.528 116.272 344.212 116.272C345.149 116.272 345.972 116.487 346.682 116.918C347.404 117.349 347.866 117.912 348.069 118.609L346.131 119.426C346.004 118.995 345.763 118.66 345.409 118.419C345.054 118.166 344.668 118.039 344.25 118.039C343.87 118.039 343.559 118.121 343.319 118.286C343.091 118.438 342.977 118.647 342.977 118.913C342.977 119.204 343.116 119.42 343.395 119.559C343.686 119.698 344.155 119.85 344.801 120.015C345.497 120.167 346.074 120.338 346.53 120.528C346.998 120.718 347.397 121.028 347.727 121.459C348.069 121.877 348.24 122.447 348.24 123.169C348.24 123.714 348.081 124.214 347.765 124.67C347.461 125.126 347.03 125.487 346.473 125.753C345.915 126.019 345.276 126.152 344.554 126.152ZM358.579 126.152C357.718 126.152 356.958 125.987 356.299 125.658C355.653 125.329 355.153 124.86 354.798 124.252C354.443 123.644 354.266 122.935 354.266 122.124C354.266 121.275 354.488 120.585 354.931 120.053C355.387 119.508 356.001 119.027 356.774 118.609C356.356 118.077 356.052 117.596 355.862 117.165C355.672 116.734 355.577 116.304 355.577 115.873C355.577 114.86 355.887 114.055 356.508 113.46C357.129 112.852 357.965 112.548 359.016 112.548C360.055 112.548 360.878 112.852 361.486 113.46C362.094 114.055 362.398 114.86 362.398 115.873C362.398 116.633 362.202 117.273 361.809 117.792C361.416 118.311 360.884 118.78 360.213 119.198L362.189 121.459L363.861 119.616L365.628 121.269L363.823 123.34L366.141 126H363.12L362.189 124.917C361.062 125.74 359.858 126.152 358.579 126.152ZM356.698 122.124C356.698 122.669 356.888 123.112 357.268 123.454C357.648 123.783 358.142 123.948 358.75 123.948C359.345 123.948 359.966 123.663 360.612 123.093L358.199 120.3C357.705 120.579 357.331 120.857 357.078 121.136C356.825 121.415 356.698 121.744 356.698 122.124ZM357.781 115.873C357.781 116.101 357.87 116.361 358.047 116.652C358.237 116.931 358.497 117.247 358.826 117.602C359.282 117.361 359.63 117.108 359.871 116.842C360.124 116.563 360.251 116.24 360.251 115.873C360.251 115.506 360.131 115.208 359.89 114.98C359.662 114.752 359.371 114.638 359.016 114.638C358.649 114.638 358.351 114.752 358.123 114.98C357.895 115.208 357.781 115.506 357.781 115.873ZM378.129 126.152C376.925 126.152 375.823 125.892 374.823 125.373C373.822 124.854 373.018 124.081 372.41 123.055C371.814 122.029 371.517 120.794 371.517 119.35C371.517 117.906 371.821 116.671 372.429 115.645C373.037 114.619 373.841 113.846 374.842 113.327C375.842 112.808 376.938 112.548 378.129 112.548C379.18 112.548 380.124 112.732 380.96 113.099C381.796 113.454 382.48 113.967 383.012 114.638C383.544 115.309 383.886 116.088 384.038 116.975L381.473 117.507C381.308 116.658 380.922 115.993 380.314 115.512C379.718 115.018 378.99 114.771 378.129 114.771C377.369 114.771 376.685 114.948 376.077 115.303C375.481 115.658 375.006 116.183 374.652 116.88C374.31 117.564 374.139 118.387 374.139 119.35C374.139 120.313 374.31 121.142 374.652 121.839C374.994 122.523 375.469 123.042 376.077 123.397C376.685 123.739 377.369 123.91 378.129 123.91C378.99 123.91 379.706 123.688 380.276 123.245C380.846 122.802 381.219 122.187 381.397 121.402L384 121.972C383.67 123.277 382.986 124.303 381.948 125.05C380.922 125.785 379.649 126.152 378.129 126.152ZM390.373 126.152C389.423 126.152 388.568 125.943 387.808 125.525C387.048 125.094 386.453 124.505 386.022 123.758C385.592 122.998 385.376 122.149 385.376 121.212C385.376 120.275 385.592 119.432 386.022 118.685C386.453 117.925 387.048 117.336 387.808 116.918C388.568 116.487 389.423 116.272 390.373 116.272C391.323 116.272 392.178 116.487 392.938 116.918C393.698 117.336 394.294 117.925 394.724 118.685C395.155 119.432 395.37 120.275 395.37 121.212C395.37 122.149 395.155 122.998 394.724 123.758C394.294 124.505 393.698 125.094 392.938 125.525C392.178 125.943 391.323 126.152 390.373 126.152ZM387.789 121.212C387.789 122.073 388.024 122.77 388.492 123.302C388.974 123.821 389.601 124.081 390.373 124.081C391.146 124.081 391.767 123.815 392.235 123.283C392.717 122.751 392.957 122.061 392.957 121.212C392.957 120.363 392.717 119.673 392.235 119.141C391.767 118.609 391.146 118.343 390.373 118.343C389.601 118.343 388.974 118.609 388.492 119.141C388.024 119.66 387.789 120.351 387.789 121.212ZM397.171 116.424H399.565V117.868C399.881 117.387 400.299 117 400.819 116.709C401.351 116.418 401.946 116.272 402.605 116.272C403.656 116.272 404.498 116.589 405.132 117.222C405.778 117.855 406.101 118.691 406.101 119.73V126H403.707V120.3C403.707 119.73 403.542 119.274 403.213 118.932C402.883 118.577 402.44 118.4 401.883 118.4C401.148 118.4 400.578 118.698 400.173 119.293C399.767 119.888 399.565 120.724 399.565 121.801V126H397.171V116.424ZM412.462 126.152C411.525 126.152 410.708 125.949 410.011 125.544C409.327 125.126 408.801 124.543 408.434 123.796C408.079 123.049 407.902 122.187 407.902 121.212C407.902 120.237 408.079 119.375 408.434 118.628C408.801 117.881 409.327 117.304 410.011 116.899C410.695 116.481 411.499 116.272 412.424 116.272C413.007 116.272 413.545 116.386 414.039 116.614C414.533 116.829 414.919 117.121 415.198 117.488V112.548H417.592V126H415.198V124.898C414.957 125.278 414.59 125.582 414.096 125.81C413.602 126.038 413.057 126.152 412.462 126.152ZM410.277 121.212C410.277 122.073 410.505 122.77 410.961 123.302C411.43 123.821 412.044 124.081 412.804 124.081C413.577 124.081 414.191 123.821 414.647 123.302C415.116 122.77 415.35 122.073 415.35 121.212C415.35 120.351 415.116 119.66 414.647 119.141C414.191 118.609 413.577 118.343 412.804 118.343C412.044 118.343 411.43 118.609 410.961 119.141C410.505 119.66 410.277 120.351 410.277 121.212ZM419.919 116.424H422.313V126H419.919V116.424ZM421.116 114.961C420.685 114.961 420.33 114.822 420.052 114.543C419.773 114.252 419.634 113.897 419.634 113.479C419.634 113.061 419.773 112.713 420.052 112.434C420.343 112.155 420.698 112.016 421.116 112.016C421.546 112.016 421.907 112.162 422.199 112.453C422.49 112.732 422.636 113.074 422.636 113.479C422.636 113.897 422.49 114.252 422.199 114.543C421.907 114.822 421.546 114.961 421.116 114.961ZM430.313 125.905C429.857 126.07 429.344 126.152 428.774 126.152C427.76 126.152 426.943 125.873 426.323 125.316C425.702 124.759 425.392 123.942 425.392 122.865V118.438H423.777V116.424H425.392V113.612H427.786V116.424H430.199V118.438H427.786V122.637C427.786 123.08 427.893 123.429 428.109 123.682C428.337 123.923 428.641 124.043 429.021 124.043C429.464 124.043 429.838 123.967 430.142 123.815L430.313 125.905ZM431.961 116.424H434.355V126H431.961V116.424ZM433.158 114.961C432.727 114.961 432.372 114.822 432.094 114.543C431.815 114.252 431.676 113.897 431.676 113.479C431.676 113.061 431.815 112.713 432.094 112.434C432.385 112.155 432.74 112.016 433.158 112.016C433.588 112.016 433.949 112.162 434.241 112.453C434.532 112.732 434.678 113.074 434.678 113.479C434.678 113.897 434.532 114.252 434.241 114.543C433.949 114.822 433.588 114.961 433.158 114.961ZM441.158 126.152C440.208 126.152 439.353 125.943 438.593 125.525C437.833 125.094 437.237 124.505 436.807 123.758C436.376 122.998 436.161 122.149 436.161 121.212C436.161 120.275 436.376 119.432 436.807 118.685C437.237 117.925 437.833 117.336 438.593 116.918C439.353 116.487 440.208 116.272 441.158 116.272C442.108 116.272 442.963 116.487 443.723 116.918C444.483 117.336 445.078 117.925 445.509 118.685C445.939 119.432 446.155 120.275 446.155 121.212C446.155 122.149 445.939 122.998 445.509 123.758C445.078 124.505 444.483 125.094 443.723 125.525C442.963 125.943 442.108 126.152 441.158 126.152ZM438.574 121.212C438.574 122.073 438.808 122.77 439.277 123.302C439.758 123.821 440.385 124.081 441.158 124.081C441.93 124.081 442.551 123.815 443.02 123.283C443.501 122.751 443.742 122.061 443.742 121.212C443.742 120.363 443.501 119.673 443.02 119.141C442.551 118.609 441.93 118.343 441.158 118.343C440.385 118.343 439.758 118.609 439.277 119.141C438.808 119.66 438.574 120.351 438.574 121.212ZM447.955 116.424H450.349V117.868C450.666 117.387 451.084 117 451.603 116.709C452.135 116.418 452.73 116.272 453.389 116.272C454.44 116.272 455.283 116.589 455.916 117.222C456.562 117.855 456.885 118.691 456.885 119.73V126H454.491V120.3C454.491 119.73 454.326 119.274 453.997 118.932C453.668 118.577 453.224 118.4 452.667 118.4C451.932 118.4 451.362 118.698 450.957 119.293C450.552 119.888 450.349 120.724 450.349 121.801V126H447.955V116.424ZM462.543 126.152C461.466 126.152 460.567 125.88 459.845 125.335C459.123 124.778 458.629 124.106 458.363 123.321L460.32 122.523C460.472 123.042 460.738 123.467 461.118 123.796C461.498 124.125 461.973 124.29 462.543 124.29C462.986 124.29 463.341 124.189 463.607 123.986C463.886 123.771 464.025 123.511 464.025 123.207C464.025 122.878 463.867 122.631 463.55 122.466C463.233 122.289 462.746 122.118 462.087 121.953C461.403 121.763 460.839 121.579 460.396 121.402C459.965 121.212 459.592 120.921 459.275 120.528C458.958 120.135 458.8 119.61 458.8 118.951C458.8 118.444 458.939 117.988 459.218 117.583C459.497 117.178 459.889 116.861 460.396 116.633C460.915 116.392 461.517 116.272 462.201 116.272C463.138 116.272 463.962 116.487 464.671 116.918C465.393 117.349 465.855 117.912 466.058 118.609L464.12 119.426C463.993 118.995 463.753 118.66 463.398 118.419C463.043 118.166 462.657 118.039 462.239 118.039C461.859 118.039 461.549 118.121 461.308 118.286C461.08 118.438 460.966 118.647 460.966 118.913C460.966 119.204 461.105 119.42 461.384 119.559C461.675 119.698 462.144 119.85 462.79 120.015C463.487 120.167 464.063 120.338 464.519 120.528C464.988 120.718 465.387 121.028 465.716 121.459C466.058 121.877 466.229 122.447 466.229 123.169C466.229 123.714 466.071 124.214 465.754 124.67C465.45 125.126 465.019 125.487 464.462 125.753C463.905 126.019 463.265 126.152 462.543 126.152Z" fill="#2B266D"/>
<rect x="295" y="140" width="210" height="8" rx="4" fill="#D5D4D2"/>
<rect x="295" y="158" width="195" height="8" rx="4" fill="#D5D4D2"/>
<rect x="295" y="176" width="201" height="8" rx="4" fill="#D5D4D2"/>
<rect x="295" y="194" width="210" height="8" rx="4" fill="#D5D4D2"/>
<rect x="295" y="212" width="159" height="8" rx="4" fill="#D5D4D2"/>
<rect x="295" y="230" width="175" height="8" rx="4" fill="#D5D4D2"/>
<rect x="295" y="248" width="192" height="8" rx="4" fill="#D5D4D2"/>
<rect x="295" y="266" width="159" height="8" rx="4" fill="#D5D4D2"/>
<path d="M342.933 316.307C342.395 313.888 336.94 312.89 335.06 312.552C329.627 311.574 326.04 313.74 322.107 317.432C318.149 321.147 314.642 328.268 319.603 332.634C324.27 336.741 329.512 338.224 335.749 338.185C343.311 338.138 349.139 334.934 352.403 328.044C354.516 323.583 355.587 317.142 351.423 313.441C348.387 310.742 344.209 310.527 340.448 311.608C336.031 312.878 335.9 316.604 337.309 320.443C339.687 326.921 345.611 331.076 350.661 335.355C352.266 336.715 355.015 338.739 355.015 341.124C355.015 343.664 358.933 349.547 349.355 349.591C335.749 349.655 331.322 344.074 330.016 337.206C329.294 333.405 331.738 329.956 335.495 329.278C340.509 328.373 345.487 330.85 349.609 333.45C352.567 335.317 355.407 336.776 358.933 337.133C362.348 337.478 364.192 335.612 365.718 332.634C366.012 332.061 367.229 327.943 367.46 329.096C367.618 329.889 369.258 333.231 370.399 332.217C371.686 331.073 371.926 329.075 373.047 327.954C373.111 327.89 373.866 328.935 373.882 328.951C375.409 330.6 377.285 331.619 379.469 332.162C385.633 333.696 392.578 332.988 398.753 331.854C400.843 331.47 402.031 333.592 403.923 334.43C406.487 335.565 413.017 337.752 415.207 334.847C416.241 333.476 414.021 330.911 413.865 331.4C413.153 333.624 418.01 333.268 418.908 333.215C423.233 332.957 427.399 332.307 431.752 332.307" stroke="#2B266D" stroke-width="2" stroke-linecap="round"/>
</svg>
