<svg width="800" height="403" viewBox="0 0 800 403" fill="none" xmlns="http://www.w3.org/2000/svg">
<rect x="210.599" y="38.2117" width="281.771" height="328.18" rx="16.5747" fill="#2B266D"/>
<path d="M101.895 375C98.9341 375 97.4585 371.414 99.5622 369.33L128.203 340.96C128.824 340.345 129.662 340 130.536 340H481.229C482.041 340 482.825 340.298 483.432 340.838L515.327 369.208C517.604 371.234 516.171 375 513.123 375H101.895Z" fill="#2B266D"/>
<rect x="218.229" y="39.2117" width="279.771" height="332.81" rx="15.5747" fill="white" stroke="#2B266D" stroke-width="2"/>
<path d="M249.219 309.893C248.565 309.893 247.953 309.758 247.385 309.488C246.817 309.209 246.35 308.829 245.985 308.347C245.619 307.866 245.397 307.322 245.32 306.716L247.068 306.181C247.145 306.778 247.39 307.269 247.804 307.654C248.228 308.03 248.723 308.217 249.291 308.217C249.821 308.217 250.245 308.102 250.562 307.871C250.88 307.64 251.039 307.332 251.039 306.947C251.039 306.648 250.943 306.403 250.75 306.21C250.567 306.018 250.331 305.864 250.042 305.748C249.754 305.633 249.364 305.503 248.873 305.358C248.199 305.156 247.65 304.959 247.226 304.766C246.803 304.564 246.437 304.265 246.129 303.871C245.831 303.476 245.681 302.961 245.681 302.326C245.681 301.796 245.835 301.32 246.143 300.896C246.451 300.472 246.87 300.145 247.4 299.914C247.939 299.673 248.536 299.553 249.19 299.553C249.826 299.553 250.408 299.659 250.938 299.871C251.467 300.082 251.905 300.386 252.252 300.78C252.608 301.166 252.839 301.608 252.945 302.109L251.183 302.831C251.077 302.34 250.846 301.95 250.49 301.661C250.143 301.373 249.71 301.228 249.19 301.228C248.709 301.228 248.329 301.329 248.05 301.531C247.77 301.724 247.631 301.989 247.631 302.326C247.631 302.557 247.713 302.744 247.876 302.889C248.04 303.033 248.242 303.149 248.483 303.235C248.723 303.322 249.075 303.428 249.537 303.553C250.249 303.726 250.841 303.919 251.313 304.131C251.785 304.333 252.189 304.655 252.526 305.098C252.863 305.541 253.032 306.143 253.032 306.903C253.032 307.491 252.873 308.01 252.555 308.463C252.237 308.915 251.79 309.267 251.212 309.517C250.634 309.767 249.97 309.893 249.219 309.893ZM254.358 302.499H256.177V309.777H254.358V302.499ZM255.267 301.387C254.94 301.387 254.67 301.281 254.459 301.069C254.247 300.848 254.141 300.578 254.141 300.261C254.141 299.943 254.247 299.678 254.459 299.466C254.68 299.255 254.95 299.149 255.267 299.149C255.595 299.149 255.869 299.259 256.09 299.481C256.312 299.693 256.423 299.953 256.423 300.261C256.423 300.578 256.312 300.848 256.09 301.069C255.869 301.281 255.595 301.387 255.267 301.387ZM260.943 309.56C259.884 309.56 259.052 309.233 258.445 308.578C257.848 307.924 257.55 307.057 257.55 305.979C257.55 305.267 257.684 304.641 257.954 304.102C258.224 303.553 258.609 303.129 259.109 302.831C259.62 302.533 260.216 302.383 260.9 302.383C261.333 302.383 261.728 302.46 262.084 302.614C262.45 302.768 262.739 302.975 262.951 303.235V302.499H264.756V309.315C264.756 309.95 264.606 310.509 264.308 310.99C264.009 311.481 263.586 311.857 263.037 312.116C262.488 312.386 261.858 312.521 261.145 312.521C260.289 312.521 259.552 312.309 258.936 311.885C258.32 311.471 257.949 310.927 257.824 310.254L259.514 309.979C259.552 310.316 259.725 310.581 260.033 310.773C260.342 310.966 260.712 311.062 261.145 311.062C261.694 311.062 262.132 310.918 262.46 310.629C262.796 310.35 262.965 309.974 262.965 309.503V308.708C262.782 308.968 262.508 309.175 262.142 309.329C261.776 309.483 261.376 309.56 260.943 309.56ZM259.355 305.979C259.355 306.586 259.523 307.072 259.86 307.438C260.197 307.803 260.645 307.986 261.203 307.986C261.762 307.986 262.209 307.803 262.546 307.438C262.893 307.072 263.066 306.586 263.066 305.979C263.066 305.363 262.898 304.872 262.561 304.506C262.224 304.14 261.771 303.957 261.203 303.957C260.645 303.957 260.197 304.14 259.86 304.506C259.523 304.872 259.355 305.363 259.355 305.979ZM266.528 302.499H268.347V303.596C268.588 303.231 268.906 302.937 269.3 302.716C269.705 302.494 270.157 302.383 270.658 302.383C271.457 302.383 272.097 302.624 272.579 303.105C273.07 303.587 273.315 304.222 273.315 305.012V309.777H271.495V305.445C271.495 305.012 271.37 304.665 271.12 304.405C270.87 304.136 270.533 304.001 270.109 304.001C269.551 304.001 269.118 304.227 268.81 304.679C268.501 305.132 268.347 305.767 268.347 306.586V309.777H266.528V302.499ZM279.319 305.098C279.319 304.684 279.189 304.362 278.93 304.131C278.67 303.89 278.318 303.77 277.875 303.77C277.481 303.77 277.149 303.885 276.879 304.116C276.619 304.347 276.47 304.655 276.431 305.04L274.814 304.752C274.929 304.039 275.271 303.466 275.839 303.033C276.417 302.6 277.096 302.383 277.875 302.383C278.848 302.383 279.623 302.643 280.2 303.163C280.788 303.673 281.081 304.4 281.081 305.344V309.777H279.319V308.723C279.117 309.079 278.814 309.363 278.41 309.575C278.015 309.787 277.591 309.893 277.139 309.893C276.667 309.893 276.248 309.801 275.883 309.618C275.517 309.426 275.228 309.166 275.016 308.838C274.814 308.511 274.713 308.14 274.713 307.726C274.713 307.014 274.982 306.46 275.522 306.066C276.061 305.671 276.874 305.416 277.962 305.3L279.319 305.17V305.098ZM276.475 307.669C276.475 307.929 276.571 308.14 276.763 308.304C276.956 308.468 277.216 308.55 277.543 308.55C278.092 308.55 278.525 308.367 278.843 308.001C279.161 307.635 279.319 307.178 279.319 306.629V306.47L277.933 306.629C277.461 306.687 277.1 306.807 276.85 306.99C276.6 307.173 276.475 307.399 276.475 307.669ZM287.049 309.705C286.703 309.83 286.313 309.893 285.879 309.893C285.109 309.893 284.488 309.681 284.017 309.257C283.545 308.834 283.309 308.213 283.309 307.394V304.03H282.082V302.499H283.309V300.362H285.129V302.499H286.963V304.03H285.129V307.221C285.129 307.558 285.21 307.823 285.374 308.015C285.547 308.198 285.778 308.29 286.067 308.29C286.404 308.29 286.688 308.232 286.919 308.116L287.049 309.705ZM295.018 309.777H293.199V308.68C292.958 309.045 292.636 309.339 292.231 309.56C291.837 309.782 291.389 309.893 290.888 309.893C290.089 309.893 289.444 309.652 288.953 309.171C288.472 308.689 288.231 308.054 288.231 307.264V302.499H290.051V306.831C290.051 307.264 290.176 307.616 290.426 307.885C290.677 308.145 291.014 308.275 291.437 308.275C291.996 308.275 292.429 308.049 292.737 307.596C293.045 307.144 293.199 306.509 293.199 305.69V302.499H295.018V309.777ZM301.471 304.261C301.211 304.145 300.903 304.087 300.546 304.087C299.988 304.087 299.521 304.338 299.146 304.838C298.78 305.329 298.597 306.085 298.597 307.106V309.777H296.777V302.499H298.597V303.827C298.78 303.413 299.078 303.072 299.492 302.802C299.916 302.523 300.349 302.383 300.792 302.383C301.09 302.383 301.355 302.422 301.586 302.499L301.471 304.261ZM302 306.138C302 305.483 302.135 304.872 302.404 304.304C302.684 303.726 303.093 303.264 303.632 302.918C304.171 302.561 304.826 302.383 305.596 302.383C306.376 302.383 307.04 302.552 307.589 302.889C308.137 303.226 308.551 303.664 308.831 304.203C309.11 304.742 309.249 305.305 309.249 305.892C309.249 306.181 309.24 306.422 309.22 306.615H303.82C303.897 307.163 304.104 307.592 304.441 307.9C304.778 308.208 305.206 308.362 305.726 308.362C306.149 308.362 306.506 308.266 306.794 308.073C307.083 307.88 307.276 307.606 307.372 307.25L309.076 307.712C308.874 308.396 308.474 308.93 307.877 309.315C307.281 309.7 306.554 309.893 305.697 309.893C304.927 309.893 304.262 309.719 303.704 309.373C303.146 309.016 302.722 308.55 302.433 307.972C302.144 307.394 302 306.783 302 306.138ZM307.3 305.286C307.252 304.833 307.083 304.468 306.794 304.188C306.506 303.909 306.106 303.77 305.596 303.77C305.143 303.77 304.763 303.9 304.455 304.16C304.157 304.42 303.959 304.795 303.863 305.286H307.3ZM318.788 304.261C318.528 304.145 318.22 304.087 317.864 304.087C317.306 304.087 316.839 304.338 316.463 304.838C316.097 305.329 315.914 306.085 315.914 307.106V309.777H314.095V302.499H315.914V303.827C316.097 303.413 316.396 303.072 316.81 302.802C317.233 302.523 317.667 302.383 318.109 302.383C318.408 302.383 318.673 302.422 318.904 302.499L318.788 304.261ZM319.318 306.138C319.318 305.483 319.452 304.872 319.722 304.304C320.001 303.726 320.41 303.264 320.949 302.918C321.489 302.561 322.143 302.383 322.913 302.383C323.693 302.383 324.357 302.552 324.906 302.889C325.455 303.226 325.869 303.664 326.148 304.203C326.427 304.742 326.567 305.305 326.567 305.892C326.567 306.181 326.557 306.422 326.538 306.615H321.137C321.214 307.163 321.421 307.592 321.758 307.9C322.095 308.208 322.524 308.362 323.043 308.362C323.467 308.362 323.823 308.266 324.112 308.073C324.401 307.88 324.593 307.606 324.69 307.25L326.394 307.712C326.191 308.396 325.792 308.93 325.195 309.315C324.598 309.7 323.871 309.893 323.015 309.893C322.244 309.893 321.58 309.719 321.022 309.373C320.463 309.016 320.04 308.55 319.751 307.972C319.462 307.394 319.318 306.783 319.318 306.138ZM324.617 305.286C324.569 304.833 324.401 304.468 324.112 304.188C323.823 303.909 323.424 303.77 322.913 303.77C322.461 303.77 322.081 303.9 321.773 304.16C321.474 304.42 321.277 304.795 321.181 305.286H324.617ZM333.099 312.405V309.055C332.887 309.315 332.598 309.522 332.232 309.676C331.876 309.82 331.486 309.893 331.063 309.893C330.36 309.893 329.744 309.739 329.214 309.43C328.685 309.113 328.275 308.67 327.987 308.102C327.698 307.534 327.553 306.879 327.553 306.138C327.553 305.397 327.688 304.742 327.958 304.174C328.237 303.606 328.632 303.168 329.142 302.86C329.652 302.542 330.249 302.383 330.933 302.383C331.404 302.383 331.828 302.47 332.203 302.643C332.588 302.817 332.887 303.048 333.099 303.336V302.499H334.918V312.405H333.099ZM329.359 306.138C329.359 306.793 329.532 307.322 329.878 307.726C330.235 308.121 330.701 308.319 331.279 308.319C331.866 308.319 332.333 308.121 332.68 307.726C333.036 307.322 333.214 306.793 333.214 306.138C333.214 305.483 333.036 304.959 332.68 304.564C332.333 304.16 331.866 303.957 331.279 303.957C330.701 303.957 330.235 304.16 329.878 304.564C329.532 304.959 329.359 305.483 329.359 306.138ZM343.474 309.777H341.654V308.68C341.414 309.045 341.091 309.339 340.687 309.56C340.292 309.782 339.844 309.893 339.344 309.893C338.545 309.893 337.9 309.652 337.409 309.171C336.927 308.689 336.687 308.054 336.687 307.264V302.499H338.506V306.831C338.506 307.264 338.631 307.616 338.882 307.885C339.132 308.145 339.469 308.275 339.893 308.275C340.451 308.275 340.884 308.049 341.192 307.596C341.5 307.144 341.654 306.509 341.654 305.69V302.499H343.474V309.777ZM345.233 302.499H347.052V309.777H345.233V302.499ZM346.142 301.387C345.815 301.387 345.546 301.281 345.334 301.069C345.122 300.848 345.016 300.578 345.016 300.261C345.016 299.943 345.122 299.678 345.334 299.466C345.555 299.255 345.825 299.149 346.142 299.149C346.47 299.149 346.744 299.259 346.966 299.481C347.187 299.693 347.298 299.953 347.298 300.261C347.298 300.578 347.187 300.848 346.966 301.069C346.744 301.281 346.47 301.387 346.142 301.387ZM353.508 304.261C353.248 304.145 352.94 304.087 352.584 304.087C352.025 304.087 351.558 304.338 351.183 304.838C350.817 305.329 350.634 306.085 350.634 307.106V309.777H348.815V302.499H350.634V303.827C350.817 303.413 351.116 303.072 351.53 302.802C351.953 302.523 352.386 302.383 352.829 302.383C353.128 302.383 353.392 302.422 353.623 302.499L353.508 304.261ZM354.038 306.138C354.038 305.483 354.172 304.872 354.442 304.304C354.721 303.726 355.13 303.264 355.669 302.918C356.208 302.561 356.863 302.383 357.633 302.383C358.413 302.383 359.077 302.552 359.626 302.889C360.175 303.226 360.589 303.664 360.868 304.203C361.147 304.742 361.287 305.305 361.287 305.892C361.287 306.181 361.277 306.422 361.258 306.615H355.857C355.934 307.163 356.141 307.592 356.478 307.9C356.815 308.208 357.243 308.362 357.763 308.362C358.187 308.362 358.543 308.266 358.832 308.073C359.121 307.88 359.313 307.606 359.409 307.25L361.113 307.712C360.911 308.396 360.512 308.93 359.915 309.315C359.318 309.7 358.591 309.893 357.734 309.893C356.964 309.893 356.3 309.719 355.742 309.373C355.183 309.016 354.76 308.55 354.471 307.972C354.182 307.394 354.038 306.783 354.038 306.138ZM359.337 305.286C359.289 304.833 359.121 304.468 358.832 304.188C358.543 303.909 358.143 303.77 357.633 303.77C357.181 303.77 356.8 303.9 356.492 304.16C356.194 304.42 355.997 304.795 355.9 305.286H359.337ZM365.739 309.893C365.027 309.893 364.406 309.739 363.876 309.43C363.356 309.113 362.957 308.67 362.678 308.102C362.408 307.534 362.273 306.879 362.273 306.138C362.273 305.397 362.408 304.742 362.678 304.174C362.957 303.606 363.356 303.168 363.876 302.86C364.396 302.542 365.007 302.383 365.71 302.383C366.153 302.383 366.562 302.47 366.938 302.643C367.313 302.807 367.607 303.028 367.818 303.308V299.553H369.638V309.777H367.818V308.939C367.636 309.228 367.356 309.459 366.981 309.633C366.605 309.806 366.191 309.893 365.739 309.893ZM364.078 306.138C364.078 306.793 364.252 307.322 364.598 307.726C364.954 308.121 365.421 308.319 365.999 308.319C366.586 308.319 367.053 308.121 367.4 307.726C367.756 307.322 367.934 306.793 367.934 306.138C367.934 305.483 367.756 304.959 367.4 304.564C367.053 304.16 366.586 303.957 365.999 303.957C365.421 303.957 364.954 304.16 364.598 304.564C364.252 304.959 364.078 305.483 364.078 306.138Z" fill="#2B266D"/>
<path d="M243.677 91.0662H250.435V92.7557H245.641V94.9796H249.482V96.6836H245.641V99.4707H250.594V101.175H243.677V91.0662ZM251.982 93.8965H253.801V94.994C254.042 94.6282 254.36 94.3346 254.754 94.1132C255.159 93.8917 255.611 93.781 256.112 93.781C256.911 93.781 257.551 94.0217 258.032 94.5031C258.523 94.9844 258.769 95.6198 258.769 96.4092V101.175H256.949V96.8425C256.949 96.4092 256.824 96.0627 256.574 95.8027C256.324 95.5332 255.987 95.3984 255.563 95.3984C255.005 95.3984 254.571 95.6246 254.263 96.0771C253.955 96.5296 253.801 97.165 253.801 97.9833V101.175H251.982V93.8965ZM263.531 100.958C262.472 100.958 261.64 100.631 261.033 99.9761C260.436 99.3215 260.138 98.455 260.138 97.3768C260.138 96.6644 260.273 96.0386 260.542 95.4995C260.812 94.9507 261.197 94.5271 261.697 94.2287C262.208 93.9302 262.805 93.781 263.488 93.781C263.921 93.781 264.316 93.858 264.672 94.0121C265.038 94.1661 265.327 94.3731 265.539 94.633V93.8965H267.344V100.713C267.344 101.348 267.195 101.906 266.896 102.388C266.598 102.879 266.174 103.254 265.625 103.514C265.077 103.784 264.446 103.918 263.734 103.918C262.877 103.918 262.14 103.707 261.524 103.283C260.908 102.869 260.537 102.325 260.412 101.651L262.102 101.377C262.14 101.714 262.314 101.979 262.622 102.171C262.93 102.364 263.3 102.46 263.734 102.46C264.282 102.46 264.72 102.316 265.048 102.027C265.385 101.747 265.553 101.372 265.553 100.9V100.106C265.37 100.366 265.096 100.573 264.73 100.727C264.364 100.881 263.965 100.958 263.531 100.958ZM261.943 97.3768C261.943 97.9833 262.111 98.4695 262.448 98.8353C262.785 99.2011 263.233 99.384 263.791 99.384C264.35 99.384 264.797 99.2011 265.134 98.8353C265.481 98.4695 265.654 97.9833 265.654 97.3768C265.654 96.7606 265.486 96.2696 265.149 95.9038C264.812 95.538 264.359 95.3551 263.791 95.3551C263.233 95.3551 262.785 95.538 262.448 95.9038C262.111 96.2696 261.943 96.7606 261.943 97.3768ZM273.362 96.4959C273.362 96.0819 273.232 95.7594 272.972 95.5284C272.712 95.2877 272.36 95.1673 271.918 95.1673C271.523 95.1673 271.191 95.2829 270.921 95.5139C270.661 95.745 270.512 96.053 270.473 96.4381L268.856 96.1493C268.972 95.4369 269.313 94.8641 269.881 94.4309C270.459 93.9976 271.138 93.781 271.918 93.781C272.89 93.781 273.665 94.041 274.243 94.5608C274.83 95.0711 275.123 95.7979 275.123 96.7414V101.175H273.362V100.121C273.159 100.477 272.856 100.761 272.452 100.973C272.057 101.184 271.634 101.29 271.181 101.29C270.709 101.29 270.291 101.199 269.925 101.016C269.559 100.823 269.27 100.563 269.058 100.236C268.856 99.9087 268.755 99.5381 268.755 99.1241C268.755 98.4117 269.025 97.8581 269.564 97.4634C270.103 97.0687 270.916 96.8136 272.004 96.6981L273.362 96.5681V96.4959ZM270.517 99.0663C270.517 99.3263 270.613 99.5381 270.806 99.7017C270.998 99.8654 271.258 99.9472 271.585 99.9472C272.134 99.9472 272.567 99.7643 272.885 99.3985C273.203 99.0326 273.362 98.5753 273.362 98.0266V97.8678L271.975 98.0266C271.504 98.0844 271.143 98.2047 270.892 98.3876C270.642 98.5705 270.517 98.7968 270.517 99.0663ZM279.904 100.958C278.845 100.958 278.012 100.631 277.406 99.9761C276.809 99.3215 276.511 98.455 276.511 97.3768C276.511 96.6644 276.645 96.0386 276.915 95.4995C277.185 94.9507 277.57 94.5271 278.07 94.2287C278.58 93.9302 279.177 93.781 279.861 93.781C280.294 93.781 280.689 93.858 281.045 94.0121C281.411 94.1661 281.7 94.3731 281.911 94.633V93.8965H283.717V100.713C283.717 101.348 283.567 101.906 283.269 102.388C282.97 102.879 282.547 103.254 281.998 103.514C281.449 103.784 280.819 103.918 280.106 103.918C279.25 103.918 278.513 103.707 277.897 103.283C277.281 102.869 276.91 102.325 276.785 101.651L278.475 101.377C278.513 101.714 278.686 101.979 278.994 102.171C279.302 102.364 279.673 102.46 280.106 102.46C280.655 102.46 281.093 102.316 281.42 102.027C281.757 101.747 281.926 101.372 281.926 100.9V100.106C281.743 100.366 281.469 100.573 281.103 100.727C280.737 100.881 280.337 100.958 279.904 100.958ZM278.316 97.3768C278.316 97.9833 278.484 98.4695 278.821 98.8353C279.158 99.2011 279.606 99.384 280.164 99.384C280.722 99.384 281.17 99.2011 281.507 98.8353C281.854 98.4695 282.027 97.9833 282.027 97.3768C282.027 96.7606 281.858 96.2696 281.522 95.9038C281.185 95.538 280.732 95.3551 280.164 95.3551C279.606 95.3551 279.158 95.538 278.821 95.9038C278.484 96.2696 278.316 96.7606 278.316 97.3768ZM285.099 97.5356C285.099 96.881 285.234 96.2696 285.503 95.7016C285.782 95.124 286.192 94.6619 286.731 94.3153C287.27 93.9591 287.924 93.781 288.695 93.781C289.474 93.781 290.139 93.9495 290.687 94.2864C291.236 94.6234 291.65 95.0614 291.929 95.6006C292.209 96.1397 292.348 96.7029 292.348 97.2901C292.348 97.5789 292.339 97.8196 292.319 98.0122H286.918C286.995 98.5609 287.202 98.9893 287.539 99.2974C287.876 99.6055 288.305 99.7595 288.825 99.7595C289.248 99.7595 289.604 99.6632 289.893 99.4707C290.182 99.2781 290.375 99.0038 290.471 98.6476L292.175 99.1097C291.973 99.7932 291.573 100.327 290.976 100.713C290.379 101.098 289.653 101.29 288.796 101.29C288.026 101.29 287.361 101.117 286.803 100.77C286.245 100.414 285.821 99.9472 285.532 99.3696C285.243 98.792 285.099 98.1806 285.099 97.5356ZM290.399 96.6836C290.351 96.2311 290.182 95.8653 289.893 95.5861C289.604 95.3069 289.205 95.1673 288.695 95.1673C288.242 95.1673 287.862 95.2973 287.554 95.5572C287.255 95.8172 287.058 96.1926 286.962 96.6836H290.399ZM293.725 93.8965H295.544V95.0085C295.756 94.6234 296.035 94.325 296.382 94.1132C296.738 93.8917 297.157 93.781 297.638 93.781C298.216 93.781 298.697 93.9014 299.082 94.142C299.467 94.3731 299.741 94.71 299.905 95.1529C300.117 94.7582 300.435 94.4309 300.858 94.1709C301.282 93.911 301.768 93.781 302.317 93.781C303.097 93.781 303.722 94.0121 304.194 94.4742C304.675 94.9267 304.916 95.5139 304.916 96.2359V101.175H303.097V96.7414C303.097 96.2985 302.981 95.9519 302.75 95.7016C302.519 95.4513 302.192 95.3262 301.768 95.3262C301.287 95.3262 300.906 95.5187 300.627 95.9038C300.358 96.2889 300.223 96.8088 300.223 97.4634V101.175H298.403V96.7414C298.403 96.2985 298.288 95.9519 298.057 95.7016C297.835 95.4513 297.518 95.3262 297.104 95.3262C296.613 95.3262 296.228 95.5235 295.948 95.9183C295.679 96.3033 295.544 96.8232 295.544 97.4779V101.175H293.725V93.8965ZM306.295 97.5356C306.295 96.881 306.429 96.2696 306.699 95.7016C306.978 95.124 307.387 94.6619 307.926 94.3153C308.466 93.9591 309.12 93.781 309.89 93.781C310.67 93.781 311.334 93.9495 311.883 94.2864C312.432 94.6234 312.846 95.0614 313.125 95.6006C313.404 96.1397 313.544 96.7029 313.544 97.2901C313.544 97.5789 313.534 97.8196 313.515 98.0122H308.114C308.191 98.5609 308.398 98.9893 308.735 99.2974C309.072 99.6055 309.5 99.7595 310.02 99.7595C310.444 99.7595 310.8 99.6632 311.089 99.4707C311.378 99.2781 311.57 99.0038 311.667 98.6476L313.371 99.1097C313.168 99.7932 312.769 100.327 312.172 100.713C311.575 101.098 310.848 101.29 309.991 101.29C309.221 101.29 308.557 101.117 307.999 100.77C307.44 100.414 307.017 99.9472 306.728 99.3696C306.439 98.792 306.295 98.1806 306.295 97.5356ZM311.594 96.6836C311.546 96.2311 311.378 95.8653 311.089 95.5861C310.8 95.3069 310.401 95.1673 309.89 95.1673C309.438 95.1673 309.058 95.2973 308.75 95.5572C308.451 95.8172 308.254 96.1926 308.157 96.6836H311.594ZM314.92 93.8965H316.74V94.994C316.98 94.6282 317.298 94.3346 317.693 94.1132C318.097 93.8917 318.55 93.781 319.05 93.781C319.849 93.781 320.49 94.0217 320.971 94.5031C321.462 94.9844 321.707 95.6198 321.707 96.4092V101.175H319.888V96.8425C319.888 96.4092 319.763 96.0627 319.512 95.8027C319.262 95.5332 318.925 95.3984 318.502 95.3984C317.943 95.3984 317.51 95.6246 317.202 96.0771C316.894 96.5296 316.74 97.165 316.74 97.9833V101.175H314.92V93.8965ZM327.544 101.102C327.198 101.228 326.808 101.29 326.375 101.29C325.604 101.29 324.983 101.078 324.512 100.655C324.04 100.231 323.804 99.6103 323.804 98.792V95.4273H322.577V93.8965H323.804V91.7593H325.624V93.8965H327.458V95.4273H325.624V98.6187C325.624 98.9556 325.705 99.2204 325.869 99.4129C326.042 99.5958 326.274 99.6873 326.562 99.6873C326.899 99.6873 327.183 99.6295 327.414 99.514L327.544 101.102ZM332.266 90.9506H334.086V101.175H332.266V90.9506ZM335.458 97.5356C335.458 96.881 335.593 96.2696 335.862 95.7016C336.142 95.124 336.551 94.6619 337.09 94.3153C337.629 93.9591 338.284 93.781 339.054 93.781C339.834 93.781 340.498 93.9495 341.047 94.2864C341.595 94.6234 342.009 95.0614 342.289 95.6006C342.568 96.1397 342.707 96.7029 342.707 97.2901C342.707 97.5789 342.698 97.8196 342.679 98.0122H337.278C337.355 98.5609 337.562 98.9893 337.899 99.2974C338.236 99.6055 338.664 99.7595 339.184 99.7595C339.607 99.7595 339.964 99.6632 340.252 99.4707C340.541 99.2781 340.734 99.0038 340.83 98.6476L342.534 99.1097C342.332 99.7932 341.932 100.327 341.336 100.713C340.739 101.098 340.012 101.29 339.155 101.29C338.385 101.29 337.721 101.117 337.162 100.77C336.604 100.414 336.18 99.9472 335.891 99.3696C335.603 98.792 335.458 98.1806 335.458 97.5356ZM340.758 96.6836C340.71 96.2311 340.541 95.8653 340.252 95.5861C339.964 95.3069 339.564 95.1673 339.054 95.1673C338.601 95.1673 338.221 95.2973 337.913 95.5572C337.615 95.8172 337.417 96.1926 337.321 96.6836H340.758ZM348.275 101.102C347.928 101.228 347.538 101.29 347.105 101.29C346.335 101.29 345.714 101.078 345.242 100.655C344.77 100.231 344.534 99.6103 344.534 98.792V95.4273H343.307V93.8965H344.534V91.7593H346.354V93.8965H348.188V95.4273H346.354V98.6187C346.354 98.9556 346.436 99.2204 346.6 99.4129C346.773 99.5958 347.004 99.6873 347.293 99.6873C347.63 99.6873 347.914 99.6295 348.145 99.514L348.275 101.102ZM353.845 101.102C353.498 101.228 353.109 101.29 352.675 101.29C351.905 101.29 351.284 101.078 350.812 100.655C350.341 100.231 350.105 99.6103 350.105 98.792V95.4273H348.877V93.8965H350.105V91.7593H351.924V93.8965H353.758V95.4273H351.924V98.6187C351.924 98.9556 352.006 99.2204 352.17 99.4129C352.343 99.5958 352.574 99.6873 352.863 99.6873C353.2 99.6873 353.484 99.6295 353.715 99.514L353.845 101.102ZM354.567 97.5356C354.567 96.881 354.702 96.2696 354.971 95.7016C355.25 95.124 355.659 94.6619 356.199 94.3153C356.738 93.9591 357.392 93.781 358.162 93.781C358.942 93.781 359.607 93.9495 360.155 94.2864C360.704 94.6234 361.118 95.0614 361.397 95.6006C361.676 96.1397 361.816 96.7029 361.816 97.2901C361.816 97.5789 361.806 97.8196 361.787 98.0122H356.386C356.463 98.5609 356.67 98.9893 357.007 99.2974C357.344 99.6055 357.773 99.7595 358.292 99.7595C358.716 99.7595 359.072 99.6632 359.361 99.4707C359.65 99.2781 359.842 99.0038 359.939 98.6476L361.643 99.1097C361.441 99.7932 361.041 100.327 360.444 100.713C359.847 101.098 359.12 101.29 358.264 101.29C357.493 101.29 356.829 101.117 356.271 100.77C355.712 100.414 355.289 99.9472 355 99.3696C354.711 98.792 354.567 98.1806 354.567 97.5356ZM359.866 96.6836C359.818 96.2311 359.65 95.8653 359.361 95.5861C359.072 95.3069 358.673 95.1673 358.162 95.1673C357.71 95.1673 357.33 95.2973 357.022 95.5572C356.723 95.8172 356.526 96.1926 356.43 96.6836H359.866ZM367.886 95.6583C367.626 95.5428 367.318 95.485 366.961 95.485C366.403 95.485 365.936 95.7353 365.561 96.2359C365.195 96.7269 365.012 97.4827 365.012 98.5031V101.175H363.192V93.8965H365.012V95.2251C365.195 94.8111 365.493 94.4694 365.907 94.1998C366.331 93.9206 366.764 93.781 367.207 93.781C367.505 93.781 367.77 93.8195 368.001 93.8965L367.886 95.6583Z" fill="#2B266D"/>
<path d="M246.205 332.572L249.714 327.114L246.725 322.464H247.736L250.22 326.334L252.718 322.464H253.729L250.725 327.114L254.234 332.572H253.223L250.22 327.908L247.216 332.572H246.205Z" fill="#2B266D"/>
<rect x="245.226" y="339" width="203" height="4" rx="2" fill="#9C96F0"/>
<path d="M244.966 66.8158C247.156 66.8158 248.931 65.0408 248.931 62.8512C248.931 60.6616 247.156 58.8865 244.966 58.8865C242.776 58.8865 241.001 60.6616 241.001 62.8512C241.001 65.0408 242.776 66.8158 244.966 66.8158Z" fill="#2B266D"/>
<path d="M257.205 66.8153C259.395 66.8153 261.17 65.0403 261.17 62.8507C261.17 60.6611 259.395 58.886 257.205 58.886C255.016 58.886 253.241 60.6611 253.241 62.8507C253.241 65.0403 255.016 66.8153 257.205 66.8153Z" fill="#2B266D"/>
<path d="M269.436 66.8159C271.625 66.8159 273.4 65.0409 273.4 62.8513C273.4 60.6617 271.625 58.8867 269.436 58.8867C267.246 58.8867 265.471 60.6617 265.471 62.8513C265.471 65.0409 267.246 66.8159 269.436 66.8159Z" fill="#2B266D"/>
<rect x="242.838" y="120" width="210" height="8" rx="4" fill="#D5D4D2"/>
<rect x="242.838" y="138" width="195" height="8" rx="4" fill="#D5D4D2"/>
<rect x="242.838" y="156" width="201" height="8" rx="4" fill="#D5D4D2"/>
<rect x="242.838" y="174" width="210" height="8" rx="4" fill="#D5D4D2"/>
<rect x="242.838" y="192" width="159" height="8" rx="4" fill="#D5D4D2"/>
<rect x="242.838" y="210" width="210" height="8" rx="4" fill="#D5D4D2"/>
<rect x="242.838" y="228" width="175" height="8" rx="4" fill="#D5D4D2"/>
<rect x="242.838" y="246" width="192" height="8" rx="4" fill="#D5D4D2"/>
<path d="M628.645 401.557H545.991" stroke="#2B266D" stroke-width="2" stroke-miterlimit="10" stroke-linecap="round"/>
<path d="M586.865 308.798L606.808 317.915" stroke="#2B266D" stroke-width="2" stroke-miterlimit="10" stroke-linecap="round"/>
<path d="M587.252 297.953L607.797 290.302" stroke="#2B266D" stroke-width="2" stroke-miterlimit="10" stroke-linecap="round"/>
<path d="M569.021 289.621L561.37 269.076" stroke="#2B266D" stroke-width="2" stroke-miterlimit="10" stroke-linecap="round"/>
<path d="M579.862 290.009L588.979 270.067" stroke="#2B266D" stroke-width="2" stroke-miterlimit="10" stroke-linecap="round"/>
<path d="M565.65 297.209H415.012C412.157 297.209 409.842 298.766 409.842 300.687V356.247C409.842 358.168 412.157 359.725 415.012 359.725H565.65C568.506 359.725 570.821 358.168 570.821 356.247V300.687C570.821 298.766 568.506 297.209 565.65 297.209Z" fill="#2B266D" stroke="#2B266D" stroke-width="1.94185" stroke-miterlimit="10"/>
<path d="M570.339 297.209H419.701C416.846 297.209 414.531 298.808 414.531 300.779V356.155C414.531 358.127 416.846 359.725 419.701 359.725H570.339C573.195 359.725 575.51 358.127 575.51 356.155V300.779C575.51 298.808 573.195 297.209 570.339 297.209Z" fill="#C5F6E6" stroke="#2B266D" stroke-miterlimit="10"/>
<path d="M606.887 346.281L594.08 351.572L605.12 367.728C605.304 367.991 605.236 368.36 604.964 368.534L590.595 378.321C590.332 378.506 589.963 378.438 589.789 378.166L578.856 362.155L569.36 372.253C568.865 372.787 567.972 372.505 567.865 371.777L560.991 323.26C560.739 321.678 562.428 320.503 563.816 321.299L606.974 344.718C607.615 345.067 607.566 346.009 606.887 346.281Z" fill="white" stroke="#2B266D" stroke-width="2" stroke-miterlimit="10"/>
<path d="M457.65 317.663C457.112 315.244 451.657 314.247 449.776 313.908C444.344 312.93 440.757 315.097 436.824 318.788C432.866 322.503 429.358 329.624 434.32 333.99C438.987 338.097 444.229 339.58 450.466 339.542C458.028 339.495 463.856 336.291 467.119 329.401C469.233 324.939 470.303 318.498 466.14 314.797C463.104 312.098 458.926 311.883 455.164 312.965C450.748 314.235 450.617 317.96 452.026 321.799C454.404 328.278 460.328 332.433 465.378 336.712C466.982 338.071 469.732 340.095 469.732 342.48C469.732 345.02 465.825 344.939 464.072 344.948C458.993 344.971 446.039 345.431 444.733 338.562C444.011 334.762 446.454 331.313 450.212 330.634C455.226 329.729 460.203 332.206 464.326 334.807C467.284 336.673 470.124 338.133 473.65 338.489C477.065 338.835 478.909 336.968 480.435 333.99C480.728 333.418 481.946 329.299 482.177 330.453C482.335 331.245 483.975 334.587 485.115 333.573C486.402 332.429 486.642 330.432 487.764 329.31C487.827 329.247 488.583 330.291 488.599 330.308C490.125 331.957 492.002 332.975 494.186 333.519C500.35 335.052 507.295 334.344 513.47 333.21C515.559 332.827 516.748 334.949 518.64 335.786C521.204 336.921 527.734 339.108 529.924 336.204C530.958 334.832 528.738 332.267 528.582 332.757C527.87 334.98 532.727 334.624 533.625 334.571C537.95 334.313 542.116 333.664 546.469 333.664" stroke="#2B266D" stroke-width="2.34435" stroke-linecap="round"/>
</svg>
