<svg width="800" height="400" viewBox="0 0 800 400" fill="none" xmlns="http://www.w3.org/2000/svg">
<rect x="297.212" y="38.2119" width="281.771" height="328.18" rx="16.5747" fill="#2B266D"/>
<path d="M194.406 373C191.398 373 189.945 369.316 192.144 367.262L220.379 340.892C220.993 340.319 221.802 340 222.642 340H573.446C574.225 340 574.979 340.274 575.576 340.775L607.019 367.145C609.39 369.134 607.984 373 604.889 373H194.406Z" fill="#2B266D"/>
<rect x="304.842" y="39.2119" width="279.771" height="332.81" rx="15.5747" fill="white" stroke="#2B266D" stroke-width="2"/>
<rect x="335" y="123" width="210" height="8" rx="4" fill="#D5D4D2"/>
<rect x="335" y="141" width="195" height="8" rx="4" fill="#D5D4D2"/>
<rect x="335" y="159" width="201" height="8" rx="4" fill="#D5D4D2"/>
<rect x="335" y="177" width="210" height="8" rx="4" fill="#D5D4D2"/>
<rect x="335" y="195" width="159" height="8" rx="4" fill="#D5D4D2"/>
<rect x="335" y="213" width="210" height="8" rx="4" fill="#D5D4D2"/>
<rect x="335" y="231" width="175" height="8" rx="4" fill="#D5D4D2"/>
<rect x="335" y="249" width="192" height="8" rx="4" fill="#D5D4D2"/>
<rect x="335" y="267" width="159" height="8" rx="4" fill="#D5D4D2"/>
<rect x="335" y="285" width="201" height="8" rx="4" fill="#D5D4D2"/>
<rect x="335" y="303" width="192" height="8" rx="4" fill="#D5D4D2"/>
<rect x="335" y="321" width="159" height="8" rx="4" fill="#D5D4D2"/>
<path d="M341.752 78.6595H335.476V75.1796H352.073V78.6595H345.797V96H341.752V78.6595ZM359.125 96.2379C357.777 96.2379 356.587 95.9802 355.556 95.4646C354.545 94.9491 353.761 94.2154 353.206 93.2636C352.651 92.3118 352.373 91.2014 352.373 89.9323C352.373 88.6038 352.72 87.5231 353.414 86.6903C354.128 85.8376 355.09 85.0841 356.3 84.4298C355.645 83.597 355.169 82.8435 354.872 82.1693C354.574 81.4951 354.426 80.8209 354.426 80.1467C354.426 78.5604 354.912 77.3013 355.883 76.3693C356.855 75.4175 358.164 74.9416 359.809 74.9416C361.435 74.9416 362.724 75.4175 363.676 76.3693C364.628 77.3013 365.104 78.5604 365.104 80.1467C365.104 81.3365 364.796 82.3378 364.182 83.1508C363.567 83.9638 362.734 84.6975 361.683 85.3518L364.776 88.8913L367.394 86.0062L370.16 88.5939L367.334 91.8359L370.963 96H366.234L364.776 94.3046C363.012 95.5935 361.128 96.2379 359.125 96.2379ZM356.181 89.9323C356.181 90.785 356.478 91.479 357.073 92.0144C357.668 92.5299 358.441 92.7877 359.393 92.7877C360.325 92.7877 361.297 92.3415 362.308 91.4492L358.53 87.077C357.757 87.5132 357.172 87.9494 356.775 88.3857C356.379 88.8219 356.181 89.3375 356.181 89.9323ZM357.876 80.1467C357.876 80.5036 358.015 80.9101 358.292 81.3662C358.59 81.8024 358.996 82.2982 359.512 82.8534C360.226 82.4766 360.771 82.08 361.148 81.6636C361.544 81.2274 361.743 80.7218 361.743 80.1467C361.743 79.5717 361.554 79.1057 361.178 78.7488C360.821 78.3918 360.365 78.2134 359.809 78.2134C359.234 78.2134 358.768 78.3918 358.411 78.7488C358.054 79.1057 357.876 79.5717 357.876 80.1467ZM382.119 96.2379C380.235 96.2379 378.51 95.8315 376.943 95.0185C375.377 94.2055 374.118 92.9959 373.166 91.3898C372.234 89.7836 371.768 87.8503 371.768 85.5898C371.768 83.3293 372.244 81.3959 373.196 79.7898C374.148 78.1836 375.407 76.9741 376.973 76.1611C378.54 75.3481 380.255 74.9416 382.119 74.9416C383.765 74.9416 385.242 75.2291 386.551 75.8042C387.859 76.3594 388.93 77.1625 389.763 78.2134C390.596 79.2643 391.131 80.4838 391.369 81.8718L387.354 82.7047C387.096 81.3761 386.491 80.3351 385.539 79.5816C384.607 78.8083 383.467 78.4216 382.119 78.4216C380.929 78.4216 379.858 78.6992 378.907 79.2544C377.975 79.8096 377.231 80.6325 376.676 81.7231C376.14 82.7939 375.873 84.0828 375.873 85.5898C375.873 87.0968 376.14 88.3956 376.676 89.4862C377.211 90.5569 377.955 91.3699 378.907 91.9251C379.858 92.4605 380.929 92.7282 382.119 92.7282C383.467 92.7282 384.588 92.3812 385.48 91.6872C386.372 90.9932 386.957 90.0315 387.235 88.8021L391.31 89.6944C390.794 91.7368 389.723 93.3429 388.097 94.5128C386.491 95.6629 384.498 96.2379 382.119 96.2379ZM401.258 96.2379C399.909 96.2379 398.65 95.9603 397.48 95.4051C396.31 94.8301 395.349 94.0468 394.595 93.0554C393.842 92.0639 393.386 90.9436 393.227 89.6944L396.826 88.5939C396.985 89.8233 397.49 90.8345 398.343 91.6277C399.215 92.401 400.237 92.7877 401.407 92.7877C402.497 92.7877 403.37 92.5498 404.024 92.0739C404.678 91.598 405.006 90.9634 405.006 90.1703C405.006 89.5556 404.807 89.0499 404.411 88.6534C404.034 88.2568 403.548 87.9395 402.953 87.7016C402.358 87.4636 401.555 87.1959 400.544 86.8985C399.156 86.4821 398.026 86.0756 397.153 85.679C396.281 85.2626 395.527 84.6479 394.893 83.8349C394.278 83.0219 393.971 81.9611 393.971 80.6524C393.971 79.5618 394.288 78.5802 394.922 77.7077C395.557 76.8353 396.42 76.1611 397.51 75.6852C398.621 75.1895 399.85 74.9416 401.198 74.9416C402.507 74.9416 403.707 75.1597 404.797 75.596C405.888 76.0322 406.79 76.6568 407.504 77.4698C408.238 78.263 408.714 79.1751 408.932 80.2062L405.303 81.6934C405.085 80.6821 404.609 79.879 403.875 79.2842C403.161 78.6893 402.269 78.3918 401.198 78.3918C400.207 78.3918 399.424 78.6001 398.849 79.0165C398.274 79.413 397.986 79.9583 397.986 80.6524C397.986 81.1283 398.155 81.5149 398.492 81.8124C398.829 82.1098 399.245 82.3477 399.741 82.5262C400.237 82.7047 400.96 82.9228 401.912 83.1806C403.38 83.5375 404.599 83.9341 405.571 84.3703C406.542 84.7867 407.375 85.451 408.069 86.3631C408.763 87.2752 409.11 88.5146 409.11 90.081C409.11 91.2906 408.783 92.3614 408.129 93.2933C407.474 94.2253 406.552 94.9491 405.362 95.4646C404.173 95.9802 402.804 96.2379 401.258 96.2379Z" fill="#2B266D"/>
</svg>
