<svg width="800" height="400" viewBox="0 0 800 400" fill="none" xmlns="http://www.w3.org/2000/svg">
<path d="M353.74 63.5003V383.854H440.515V67.4964C440.515 41.6883 422.906 20.3691 400.015 16.8792H398.017C396.904 16.8819 395.793 16.942 394.687 17.059C392.028 17.3886 389.403 17.948 386.841 18.7307C371.922 23.6059 358.928 37.5789 354.872 53.3036C354.122 56.6506 353.742 60.0702 353.74 63.5003Z" fill="#2DC495"/>
<path d="M414.434 17.099L413.768 16.9657L413.462 16.9125C410.934 16.4418 408.368 16.2032 405.796 16.1998H404.81C403.412 16.0733 402.006 16 400.574 16C398.584 16.0038 396.595 16.1329 394.62 16.3863C391.964 16.6586 389.345 17.2145 386.808 18.0447C378.727 20.5061 371.735 25.2971 366 31.5C360.265 37.7029 355.994 45.0945 354.173 53.3436C353.327 56.6228 352.891 59.9941 352.874 63.3805V384.92H453.489V67.4965C453.489 42.2345 436.613 21.2683 414.434 17.099ZM386.848 18.7174C389.41 17.9347 392.035 17.3753 394.693 17.0457C395.8 16.9287 396.911 16.8686 398.024 16.8659H400.022C422.913 20.3691 440.522 41.6883 440.522 67.4831V383.854H353.74V63.5004C353.742 60.0724 354.122 56.6551 354.872 53.3103C358.935 37.5656 371.929 23.5926 386.848 18.7174Z" fill="#2B266D"/>
<path d="M406.162 167.752C406.162 167.565 406.109 167.386 406.069 167.212C403.485 166.773 398.077 162.364 396.705 161.218H396.405C396.39 162.564 396.023 163.883 395.342 165.044C394.661 166.205 393.689 167.168 392.522 167.838L392.462 167.872L392.196 168.032H392.229L391.936 168.185C391.742 167.731 391.454 167.324 391.092 166.99C390.729 166.656 390.299 166.403 389.832 166.247C389.546 166.153 389.255 166.08 388.959 166.027H388.799C388.68 166.014 388.559 166.014 388.44 166.027L388.053 166.087H387.98C387.482 166.233 387.046 166.538 386.737 166.955C386.428 167.372 386.263 167.879 386.268 168.398C386.27 168.521 386.281 168.643 386.302 168.764C386.477 169.479 386.874 170.119 387.434 170.596C387.534 170.696 387.654 170.782 387.767 170.876C387.88 170.969 387.987 171.042 388.107 171.129C388.494 171.388 388.904 171.611 389.332 171.795L389.199 172.101L389.066 172.407C388.746 172.269 388.434 172.111 388.133 171.935V172.347C388.166 173.2 388.2 174.086 388.187 175.011C388.153 176.896 385.03 181.006 381.593 185.275C381.954 186.598 382.532 187.852 383.305 188.984C383.458 189.198 383.624 189.398 383.791 189.591C384.659 190.625 385.727 191.473 386.931 192.086C388.135 192.698 389.45 193.061 390.797 193.154C391.691 193.253 392.596 193.178 393.461 192.934H393.528C392.762 190.27 392.269 186.114 394.86 182.358C395.599 181.279 398.19 180.579 398.736 180.453C402.759 179.387 407.108 175.484 406.162 167.752ZM403.671 170.796C403.868 170.767 404.068 170.799 404.245 170.888C404.422 170.976 404.568 171.116 404.664 171.29C404.759 171.464 404.799 171.663 404.778 171.86C404.758 172.057 404.677 172.243 404.548 172.393C404.418 172.543 404.246 172.65 404.054 172.699C403.862 172.749 403.66 172.739 403.474 172.67C403.288 172.601 403.128 172.477 403.014 172.315C402.901 172.153 402.84 171.96 402.839 171.761C402.83 171.643 402.844 171.524 402.881 171.412C402.918 171.299 402.977 171.195 403.054 171.105C403.132 171.016 403.226 170.942 403.332 170.889C403.438 170.836 403.553 170.804 403.671 170.796ZM398.503 173.46C399.169 173.826 400.195 174.379 400.681 174.126C400.748 174.126 400.934 174.006 401.021 173.54C401.059 173.129 401.016 172.715 400.894 172.321C400.631 171.479 400.631 170.578 400.894 169.737C401.099 169.21 401.407 168.73 401.8 168.325L402.046 168.551L402.286 168.778C401.074 170.11 401.307 171.149 401.527 172.181C401.669 172.66 401.714 173.163 401.66 173.659C401.641 173.882 401.567 174.096 401.443 174.283C401.32 174.469 401.152 174.621 400.954 174.725C400.775 174.811 400.579 174.854 400.381 174.852C399.589 174.748 398.831 174.465 398.163 174.026C397.92 173.877 397.661 173.754 397.391 173.659L397.444 172.993C397.524 173.003 397.602 173.023 397.677 173.053C397.961 173.167 398.234 173.303 398.496 173.46H398.503ZM396.838 167.326C397.034 167.297 397.234 167.329 397.412 167.418C397.589 167.506 397.735 167.646 397.83 167.82C397.926 167.994 397.966 168.193 397.945 168.39C397.924 168.587 397.844 168.773 397.714 168.923C397.585 169.073 397.413 169.18 397.221 169.229C397.029 169.279 396.827 169.269 396.641 169.2C396.455 169.131 396.295 169.007 396.181 168.845C396.067 168.683 396.006 168.49 396.006 168.291C395.996 168.173 396.011 168.054 396.048 167.942C396.085 167.829 396.144 167.725 396.221 167.636C396.298 167.546 396.393 167.472 396.499 167.419C396.604 167.366 396.72 167.334 396.838 167.326ZM396.685 177.129C394.347 176.397 393.961 173.926 393.941 173.799L394.607 173.699C394.607 173.699 394.607 173.833 394.674 173.992C394.805 174.559 395.077 175.083 395.464 175.516C395.852 175.949 396.343 176.277 396.891 176.47C397.536 176.693 398.232 176.716 398.889 176.537L399.109 176.463L399.402 177.056C398.982 177.237 398.528 177.326 398.07 177.316C397.602 177.325 397.134 177.262 396.685 177.129Z" fill="white"/>
<path d="M397.058 376.435C395.779 375.569 394.913 373.957 394.34 372.379L366.821 374.956L366.235 383.521L404.471 384.061L404.071 382.855C403.598 381.45 399.695 378.226 397.058 376.435Z" fill="#FF5787"/>
<path d="M367.32 364.007C367.273 364.906 367.24 365.739 367.207 366.498C367.207 366.611 367.207 366.724 367.207 366.831C367.12 368.829 367.074 370.261 367.054 370.88H367.113L393.754 370.414H394.42L397.664 370.354C397.83 365.692 399.715 311.485 397.118 302.134C394.866 294.029 384.19 271.164 378.229 261.667L361.992 255.386C361.619 257.151 360.66 261.6 358.662 269.446C357.45 274.288 356.61 290.033 356.464 292.93C362.458 301.382 367.633 309.32 368.099 311.871C368.992 316.587 368.046 348.769 367.32 364.007Z" fill="white"/>
<path d="M365.049 222.785L363.051 221.586L364.349 222.445L365.049 222.785Z" fill="#FF5787"/>
<path d="M378.183 260.908L378.469 261.021L378.549 260.855L388.799 239.935L365.489 240.874L364.669 244.297L364.57 244.704L364.47 245.116L362.232 254.441L362.178 254.687L377.67 260.681L378.183 260.908Z" fill="#FF5787"/>
<path d="M424.624 240.514C430.152 233.947 422.739 220.021 405.276 204.183C398.843 198.349 396.019 195.665 394.76 194.373C394.487 194.093 394.294 193.88 394.147 193.707C394.001 193.533 394.001 193.54 393.947 193.473L393.741 193.52H393.621C392.689 193.776 391.718 193.855 390.757 193.753C389.31 193.651 387.898 193.255 386.608 192.591C385.318 191.928 384.176 191.009 383.251 189.89C383.092 189.697 382.925 189.504 382.785 189.298C382.048 188.239 381.479 187.073 381.1 185.841C381.06 185.714 381.027 185.581 380.987 185.448C380.947 185.315 380.914 185.188 380.88 185.055L380.78 184.729C377.51 186.627 373.781 186.8 369.698 185.235L366.101 183.856V186.427V187.16V190.29V191.316L366.021 200.793L401.38 217.617V217.557L401.62 217.737H401.68L401.986 217.89L403.139 218.436L402.852 219.035L401.86 218.562L401.547 218.416L401.234 218.269L359.468 198.389L359.807 218.682C360.833 219.348 367.134 223.344 376.045 228.06L387.787 233.787L389.332 234.453L391.124 235.233L391.43 235.359L391.736 235.493C410.045 243.391 420.841 245.01 424.624 240.514Z" fill="#FF5787"/>
<path d="M405.723 203.69C398.503 197.137 394.793 193.62 394.4 192.934L394.28 192.734H394.22C393.488 190.217 392.995 186.241 395.453 182.671C395.885 182.038 397.564 181.379 398.936 181.039C405.336 179.434 407.521 173.167 406.848 167.659C406.824 167.435 406.789 167.213 406.741 166.993C407.188 166.074 406.742 162.477 405.629 160.619C401.027 153.16 391.843 154.944 387.873 159.287C386.864 160.344 386.072 161.588 385.542 162.95C383.462 162.423 381.262 162.66 379.342 163.616C377.79 164.347 376.438 165.443 375.4 166.809C374.362 168.174 373.669 169.771 373.381 171.462C371.497 170.966 369.53 170.869 367.607 171.178C365.684 171.487 363.846 172.193 362.212 173.253C359.866 174.781 357.936 176.869 356.597 179.327L353.933 178.448L353.62 178.328V290.026L353.966 290.419C360.68 299.81 367.007 309.201 367.5 311.911C368.306 316.36 367.42 348.109 366.667 363.914C366.461 368.276 366.374 371.113 366.374 371.147V371.493H366.408L365.542 384.114L405.416 384.853L404.75 382.582C404.084 380.644 399.162 376.954 397.477 375.822C396.052 374.857 395.179 372.785 394.667 370.994L398.383 370.934V370.614C398.476 368.216 400.554 311.698 397.824 301.875C395.519 293.583 385.083 271.191 379.002 261.454L391.43 236.105C400.088 239.802 410.311 243.598 417.564 243.598C420.861 243.598 423.558 242.812 425.17 240.881C432.05 232.729 419.642 216.311 405.723 203.69ZM391.683 235.573L391.377 235.439L391.07 235.313L389.279 234.534L387.733 233.867L375.992 228.14C367.067 223.478 360.78 219.428 359.754 218.762L359.414 198.469L401.18 218.349L401.493 218.496L401.806 218.642L402.799 219.115L403.085 218.516L401.933 217.97L401.626 217.816H401.567L401.327 217.637V217.697L365.968 200.873L366.048 191.396V190.37V187.24V186.507V183.936L369.644 185.315C373.727 186.88 377.457 186.707 380.727 184.809L380.827 185.135C380.827 185.268 380.9 185.401 380.933 185.528C380.967 185.654 381.007 185.794 381.047 185.921C381.426 187.153 381.994 188.319 382.732 189.378C382.872 189.584 383.038 189.777 383.198 189.97C384.123 191.088 385.265 192.008 386.555 192.672C387.845 193.335 389.256 193.731 390.704 193.833C391.665 193.935 392.636 193.856 393.568 193.6H393.688L393.894 193.553C393.947 193.62 394.014 193.7 394.094 193.787C394.174 193.873 394.434 194.166 394.707 194.453C395.965 195.745 398.789 198.449 405.223 204.263C422.686 220.101 430.099 234.027 424.571 240.594C420.841 245.01 410.045 243.392 391.683 235.573ZM394.873 182.291C392.289 186.048 392.782 190.21 393.541 192.867H393.474C392.609 193.112 391.704 193.187 390.81 193.087C389.463 192.995 388.148 192.631 386.944 192.019C385.741 191.407 384.672 190.558 383.804 189.524C383.637 189.331 383.471 189.131 383.318 188.918C382.545 187.785 381.966 186.531 381.606 185.208C385.043 180.932 388.166 176.83 388.2 174.945C388.2 174.053 388.2 173.167 388.146 172.281V171.868C388.447 172.044 388.759 172.202 389.079 172.341L389.212 172.034L389.345 171.728C388.917 171.544 388.507 171.321 388.12 171.062C388 170.975 387.887 170.896 387.78 170.809C387.673 170.722 387.547 170.629 387.447 170.529C386.887 170.053 386.491 169.412 386.315 168.698C386.294 168.577 386.283 168.454 386.281 168.331C386.276 167.812 386.441 167.306 386.75 166.889C387.059 166.472 387.495 166.167 387.993 166.02H388.066L388.453 165.96C388.572 165.947 388.693 165.947 388.812 165.96H388.972C389.268 166.013 389.559 166.086 389.845 166.18C390.313 166.336 390.742 166.59 391.105 166.924C391.467 167.258 391.755 167.665 391.949 168.118L392.242 167.965H392.209L392.475 167.805L392.535 167.772C393.702 167.101 394.674 166.138 395.355 164.977C396.036 163.816 396.403 162.498 396.418 161.152H396.718C398.05 162.271 403.498 166.68 406.082 167.146C406.122 167.319 406.149 167.499 406.175 167.685C407.121 175.418 402.772 179.334 398.763 180.34C398.23 180.533 395.612 181.232 394.873 182.311V182.291ZM362.238 254.447L364.476 245.123L364.576 244.71L364.676 244.304L365.495 240.881L388.806 239.941L378.556 260.861L378.476 261.028L378.189 260.914L377.657 260.708L362.165 254.714L362.238 254.447ZM358.728 269.413C360.687 261.567 361.672 257.118 362.058 255.353L378.296 261.634C384.257 271.131 394.946 293.995 397.184 302.101C399.782 311.425 397.897 365.666 397.73 370.321L394.487 370.381H393.821L367.18 370.847H367.12C367.12 370.228 367.187 368.796 367.273 366.798C367.273 366.691 367.273 366.578 367.273 366.465C367.307 365.706 367.34 364.873 367.387 363.974C368.113 348.735 369.058 316.52 368.206 311.825C367.74 309.274 362.531 301.335 356.571 292.883C356.65 290.019 357.49 274.275 358.702 269.433L358.728 269.413ZM366.261 383.502L366.847 374.936L394.367 372.359C394.94 373.938 395.805 375.549 397.084 376.415C399.748 378.207 403.625 381.43 404.097 382.836L404.497 384.041L366.261 383.502Z" fill="#2B266D"/>
<path d="M403.671 172.721C404.131 172.721 404.504 172.291 404.504 171.762C404.504 171.232 404.131 170.802 403.671 170.802C403.212 170.802 402.839 171.232 402.839 171.762C402.839 172.291 403.212 172.721 403.671 172.721Z" fill="#2B266D"/>
<path d="M396.838 169.25C397.034 169.279 397.235 169.247 397.412 169.158C397.59 169.069 397.736 168.929 397.831 168.754C397.926 168.58 397.966 168.381 397.945 168.184C397.923 167.987 397.842 167.801 397.712 167.651C397.582 167.501 397.409 167.394 397.217 167.346C397.025 167.297 396.822 167.308 396.636 167.378C396.451 167.447 396.291 167.572 396.178 167.736C396.065 167.899 396.005 168.093 396.006 168.291C395.989 168.529 396.068 168.763 396.224 168.943C396.38 169.123 396.601 169.233 396.838 169.25Z" fill="#2B266D"/>
<path d="M397.411 173.68C397.681 173.774 397.94 173.897 398.183 174.046C398.851 174.486 399.609 174.768 400.401 174.872C400.599 174.874 400.795 174.831 400.974 174.745C401.172 174.641 401.34 174.489 401.463 174.303C401.586 174.116 401.661 173.902 401.68 173.68C401.734 173.183 401.689 172.68 401.547 172.201C401.327 171.169 401.094 170.11 402.306 168.798L402.066 168.571L401.82 168.345C401.427 168.75 401.119 169.231 400.914 169.757C400.65 170.598 400.65 171.5 400.914 172.341C401.036 172.735 401.079 173.149 401.041 173.56C400.954 174.026 400.768 174.119 400.701 174.146C400.215 174.379 399.196 173.826 398.523 173.48C398.265 173.33 397.995 173.201 397.717 173.094C397.642 173.063 397.564 173.043 397.484 173.034L397.411 173.68Z" fill="#2B266D"/>
<path d="M399.082 176.483L398.863 176.557C398.205 176.736 397.509 176.713 396.865 176.49C396.316 176.297 395.825 175.969 395.438 175.536C395.05 175.103 394.778 174.579 394.647 174.012C394.607 173.853 394.587 173.739 394.58 173.719L393.914 173.819C393.914 173.926 394.32 176.397 396.658 177.149C397.09 177.284 397.538 177.353 397.99 177.356C398.448 177.366 398.902 177.278 399.322 177.096L399.082 176.483Z" fill="#2B266D"/>
<path d="M422.558 156.733L416.24 159.927L416.541 160.522L422.859 157.327L422.558 156.733Z" fill="#2B266D"/>
<path d="M410.412 157.348L405.605 164.262L406.152 164.642L410.958 157.728L410.412 157.348Z" fill="#2B266D"/>
<path d="M401.9 148.957L401.234 148.864C401.62 145.993 402.206 141.657 402.226 141.451H402.892C402.899 141.564 402.559 144.088 401.9 148.957Z" fill="#2B266D"/>
<path d="M359.261 202.412C359.168 198.882 358.962 195.458 357.523 192.421C356.084 189.384 352.788 188.592 349.731 188.159C349.285 188.09 348.83 188.126 348.4 188.262C347.97 188.398 347.578 188.632 347.253 188.945C347.068 189.134 346.935 189.367 346.866 189.623C346.798 189.878 346.795 190.147 346.86 190.403C347.06 191.316 348.146 191.848 349.304 192.161C350.032 192.167 350.756 192.259 351.462 192.435C352.449 192.563 353.422 192.786 354.366 193.101C355.428 193.511 356.333 194.248 356.95 195.205L356.404 195.585C356.271 195.398 356.131 195.232 355.991 195.072C355.501 194.47 354.86 194.011 354.133 193.74C353.466 193.506 352.78 193.332 352.082 193.22H351.988C351.94 193.231 351.89 193.231 351.842 193.22C350.955 193.164 350.074 193.028 349.211 192.814C348.259 192.814 347.393 193.021 347.033 193.567C346.774 193.989 346.675 194.49 346.754 194.979C346.834 195.468 347.086 195.913 347.466 196.231C348.092 196.737 349.651 196.957 350.796 197.123C351.129 197.17 351.429 197.217 351.682 197.263C352.862 197.365 354.007 197.713 355.046 198.282C355.698 198.693 356.233 199.267 356.597 199.947L356.304 200.107L356.011 200.26C355.924 200.099 355.824 199.945 355.712 199.801C355.439 199.421 355.095 199.097 354.699 198.848C353.963 198.428 353.154 198.152 352.315 198.036L351.689 197.936C351.263 197.936 350.863 197.889 350.483 197.889C349.662 197.864 348.842 197.979 348.059 198.229C346.933 198.649 346.614 198.895 346.674 199.814C346.76 201.106 347.639 201.919 349.085 202.045C350.631 202.239 352.16 202.548 353.66 202.971C353.726 202.99 353.785 203.029 353.828 203.083C353.871 203.136 353.896 203.202 353.9 203.271C353.9 203.437 354.16 207.393 354.173 208.226C354.209 209.099 354.187 209.973 354.107 210.843C354.039 211.69 354.021 212.539 354.053 213.387C354.053 214.14 354.053 215.572 354.613 216.265C355.805 217.803 357.496 217.97 358.835 218.409C358.935 216.205 359.375 206.807 359.261 202.412Z" fill="white"/>
<path d="M359.927 202.392C359.827 198.789 359.621 195.292 358.122 192.142C356.564 188.865 353.054 187.959 349.824 187.479C349.271 187.394 348.706 187.439 348.174 187.611C347.642 187.784 347.158 188.078 346.76 188.472C346.505 188.742 346.321 189.072 346.225 189.431C346.128 189.79 346.122 190.168 346.207 190.53C346.325 190.931 346.534 191.3 346.817 191.609C347.099 191.917 347.449 192.156 347.839 192.308C347.293 192.424 346.808 192.734 346.474 193.181C346.123 193.741 345.988 194.41 346.093 195.063C346.199 195.716 346.537 196.308 347.046 196.731C347.499 197.055 348.013 197.282 348.558 197.397C348.312 197.451 348.07 197.52 347.832 197.603C346.707 198.016 345.914 198.422 346.007 199.861C346.055 200.63 346.393 201.353 346.953 201.882C347.513 202.411 348.254 202.708 349.025 202.711C350.453 202.889 351.866 203.17 353.254 203.551C353.307 204.436 353.493 207.547 353.507 208.213C353.544 209.059 353.524 209.907 353.447 210.75C353.371 211.62 353.351 212.495 353.387 213.368C353.387 214.26 353.387 215.912 354.086 216.778C355.371 218.327 357.109 219.435 359.055 219.948H359.148C359.218 219.947 359.286 219.924 359.341 219.881C359.382 219.853 359.416 219.815 359.441 219.771C359.465 219.727 359.479 219.678 359.481 219.628C359.488 219.555 360.06 207.36 359.927 202.392ZM354.599 216.278C354.066 215.612 354.046 214.154 354.04 213.401C354.007 212.553 354.025 211.703 354.093 210.857C354.173 209.987 354.196 209.112 354.159 208.239C354.159 207.407 353.9 203.451 353.886 203.284C353.882 203.215 353.857 203.15 353.814 203.096C353.771 203.043 353.713 203.003 353.647 202.984C352.147 202.562 350.617 202.252 349.071 202.059C347.626 201.932 346.747 201.119 346.66 199.827C346.6 198.915 346.92 198.662 348.045 198.242C348.828 197.992 349.648 197.877 350.47 197.903C350.849 197.903 351.249 197.903 351.675 197.949L352.301 198.049C353.141 198.166 353.95 198.442 354.686 198.862C355.082 199.111 355.425 199.434 355.698 199.814C355.81 199.959 355.91 200.113 355.998 200.274L356.291 200.12L356.584 199.961C356.22 199.28 355.685 198.707 355.032 198.296C353.994 197.726 352.848 197.379 351.669 197.277C351.416 197.23 351.116 197.183 350.783 197.137C349.637 196.97 348.079 196.751 347.453 196.244C347.073 195.926 346.82 195.482 346.741 194.993C346.661 194.504 346.76 194.002 347.02 193.58C347.379 193.034 348.245 192.828 349.198 192.828C350.061 193.041 350.941 193.178 351.828 193.234C351.877 193.244 351.927 193.244 351.975 193.234H352.068C352.766 193.346 353.453 193.52 354.12 193.753C354.847 194.024 355.488 194.484 355.978 195.085C356.118 195.245 356.258 195.412 356.391 195.598L356.937 195.219C356.32 194.262 355.415 193.525 354.353 193.114C353.408 192.8 352.436 192.576 351.449 192.448C350.743 192.272 350.019 192.181 349.291 192.175C348.132 191.862 347.046 191.329 346.847 190.417C346.782 190.16 346.784 189.891 346.853 189.636C346.922 189.381 347.055 189.147 347.24 188.958C347.564 188.645 347.957 188.412 348.386 188.275C348.816 188.139 349.272 188.104 349.717 188.172C352.774 188.605 356.084 189.444 357.51 192.435C358.935 195.425 359.155 198.888 359.248 202.425C359.361 206.821 358.922 216.218 358.822 218.409C357.496 218.016 355.805 217.817 354.612 216.278H354.599Z" fill="#2B266D"/>
<path d="M410.604 57.9378C408.32 57.9334 406.078 58.547 404.114 59.7134C403.768 56.6032 402.287 53.7298 399.955 51.6428C397.624 49.5558 394.604 48.4015 391.475 48.4006C388.103 48.4024 384.869 49.7435 382.485 52.1289C380.1 54.5143 378.761 57.7488 378.761 61.1214V62.9921C376.993 62.1013 375.041 61.6354 373.061 61.6316C369.687 61.6316 366.451 62.9717 364.066 65.3573C361.68 67.7429 360.34 70.9785 360.34 74.3523V75.1891H423.325V70.6381C423.319 67.2679 421.977 64.0377 419.592 61.6565C417.207 59.2753 413.974 57.9378 410.604 57.9378Z" fill="white"/>
<path d="M423.665 75.5293H360V74.3523C360.004 70.8894 361.381 67.5695 363.829 65.1209C366.278 62.6723 369.598 61.295 373.061 61.2914C374.909 61.2869 376.737 61.6791 378.421 62.4412V61.0807C378.415 57.7834 379.656 54.6056 381.896 52.1859C384.136 49.7662 387.209 48.284 390.497 48.0368C393.785 47.7895 397.044 48.7956 399.621 50.8531C402.198 52.9106 403.9 55.867 404.387 59.1283C406.376 58.0536 408.611 57.5134 410.871 57.5608C413.132 57.6082 415.342 58.2415 417.284 59.3987C419.227 60.5558 420.836 62.1973 421.955 64.1626C423.073 66.1279 423.662 68.3497 423.665 70.6109V75.5293ZM360.68 74.849H422.985V70.6381C422.984 68.4532 422.405 66.3075 421.307 64.4187C420.208 62.5299 418.63 60.9655 416.731 59.8843C414.832 58.803 412.682 58.2434 410.497 58.2623C408.312 58.2813 406.171 58.8781 404.291 59.9922L403.836 60.2642L403.781 59.7404C403.42 56.6056 401.875 53.7272 399.462 51.6931C397.05 49.6591 393.951 48.6232 390.801 48.7969C387.65 48.9706 384.684 50.3408 382.51 52.6277C380.335 54.9145 379.116 57.9454 379.102 61.1009V63.5227L378.605 63.2779C376.886 62.4104 374.986 61.9605 373.061 61.9649C369.778 61.9685 366.632 63.2741 364.31 65.5952C361.989 67.9162 360.684 71.0632 360.68 74.3457V74.849Z" fill="#2B266D"/>
</svg>
