<svg width="800" height="400" viewBox="0 0 800 400" fill="none" xmlns="http://www.w3.org/2000/svg">
<path d="M368.128 378.967C334.09 378.967 210.587 380.93 197.945 381.911C185.303 382.893 176.273 389.665 186 389.665C195.727 389.665 518.868 392.61 534.435 388.684C550.001 384.758 536.398 381.872 516.934 379.929C497.471 377.985 368.128 378.967 368.128 378.967Z" fill="#2B266D"/>
<path d="M505.061 351.511C505.13 351.069 506.867 340.498 512.089 334.413C519.254 326.06 525.987 323.616 526.272 323.499L526.566 323.4L532.681 329.702C533.662 325.432 533.083 321.428 529.677 318.346C529.442 318.136 529.206 317.94 528.971 317.757L531.464 320.642L529.501 319.779C529.412 319.779 520.942 316.52 504.463 336.926C491.193 353.346 492.93 362.523 492.95 362.621L493.342 364.476L490.672 361.424C491.222 362.258 491.801 363.063 492.39 363.819C494.432 366.459 502.48 363.495 510.008 358.479L505.002 351.707L505.061 351.511Z" fill="#2B266D"/>
<path d="M372.087 366.056C370.33 363.544 369.231 359.137 369.045 356.075C367.69 333.009 366.836 315.911 365.982 298.166L353.478 302.337C353.782 307.627 354.086 312.928 354.391 318.159C355.038 329.221 355.706 340.665 356.256 351.717C356.491 356.249 355.411 360.752 353.148 364.686C350.884 368.619 347.533 371.815 343.496 373.889C341.288 375.008 339.05 376.097 336.881 377.157C333.71 378.698 330.432 380.288 326.997 382.065C326.604 382.271 326.172 382.477 325.741 382.673C323.719 383.655 322.354 384.371 322.325 385.667C328.214 387.179 334.152 385.245 343.231 381.918C344.399 381.496 346.46 380.602 348.835 379.562C353.743 377.432 359.868 374.782 362.449 374.35C367.023 373.585 372.961 376.254 379.233 379.081C384.14 381.26 389.107 383.518 394.171 384.627C402.337 386.403 404.968 385.009 405.664 383.537C405.468 382.556 398.303 379.238 393.082 376.853C389.99 375.44 386.79 373.977 384.248 372.672C383.581 372.328 382.57 371.896 381.402 371.386C377.8 369.865 373.402 367.941 372.087 366.056Z" fill="white"/>
<path d="M364.705 258.7C363.723 258.455 362.742 258.17 361.809 257.866C359.454 257.051 357.157 256.187 354.939 255.284C346.498 251.79 339.735 247.756 334.504 243.084C321.744 234.182 312.057 221.305 303.744 208.064C295.146 194.323 287.284 180.336 277.871 167.135C277.262 166.291 276.34 165.172 275.231 163.788C268.517 163.68 256.867 165.849 254.256 164.947C253.558 164.7 252.91 164.331 252.342 163.857C253.834 166.802 255.571 169.668 257.25 172.514C258.388 174.389 259.468 176.165 260.449 177.922L295.42 240.571C299.542 248.26 304.06 255.73 308.955 262.95C313.176 268.947 316.876 272.991 320.949 276.053C327.035 280.637 334.877 283.65 344.928 285.259C347.067 285.585 349.223 285.792 351.386 285.878H351.543H352.034H352.524C356.788 285.96 361.052 285.74 365.284 285.22H365.696H365.775L366.256 285.161C370.228 284.667 374.162 283.91 378.034 282.894C372.802 274.492 367.61 265.806 364.705 258.7Z" fill="#2B266D"/>
<path d="M388.525 186.108C384.429 187.659 380.197 188.825 375.884 189.592C375.727 189.641 354.536 195.638 342.238 207.093L341.158 208.074L340.815 208.398L340.441 208.751C335.044 213.804 330.24 219.454 326.121 225.594C330.185 232.464 334.395 239.119 338.734 245.224C343.87 248.943 349.449 252.009 355.341 254.352C357.51 255.255 359.797 256.109 362.133 256.924C362.8 257.149 363.507 257.365 364.263 257.562C362.221 252.232 361.613 247.904 363.428 245.44L363.35 245.322L363.664 245.146C363.981 244.759 364.359 244.428 364.783 244.164C365.078 243.981 365.417 243.879 365.764 243.87L367.983 242.662L368.424 242.407L368.866 242.162L376.325 237.823L376.581 238C377.199 238.403 377.817 238.854 378.426 239.315L385.768 235.311C385.65 232.985 385.993 231.208 387.034 230.403L386.975 230.286L423.585 210.017C420.92 209.305 418.312 208.397 415.782 207.299C408.538 204.354 380.899 195.805 380.615 195.727L380.909 194.745C381.076 194.804 391.961 198.141 401.874 201.38L449.879 195.383C454.218 192.959 456.956 191.457 457.191 191.271L457.731 192.085C457.113 192.497 441.517 201.164 425.175 210.224C411.915 217.575 398.154 225.182 391.48 228.872C397.634 228.872 404.799 236.498 411.228 246.137C417.382 255.373 421.102 267.583 419.806 273.56L463.63 243.133V243.074L463.994 242.859C467.92 240.474 503.568 211.843 516.278 200.399C532.326 185.951 540.62 169.059 536.429 159.313C534.279 154.327 529.018 152.01 521.186 152.629C510.389 153.483 430.426 172.71 398.743 180.405L398.556 180.523C395.36 182.638 392.007 184.505 388.525 186.108Z" fill="#2DC495"/>
<path d="M491.851 361.276C491.851 357.959 493.088 349.42 503.679 336.307C516.939 319.896 525.193 318.355 528.383 318.581L526.234 316.088L464.085 244.026L419.318 275.149C419.082 275.634 418.747 276.065 418.337 276.415L488.357 357.282L491.851 361.276Z" fill="#2DC495"/>
<path d="M492.93 362.621C492.93 362.523 491.173 353.346 504.443 336.925C520.922 316.52 529.393 319.739 529.481 319.778L531.444 320.642L528.951 317.757L467.116 246.107L464.849 243.476C470.277 239.796 504.502 212.313 516.869 201.154C533.23 186.431 541.612 169.078 537.264 158.949C535.645 155.17 531.523 150.842 521.04 151.666C510.037 152.54 430.221 171.748 398.47 179.462C397.704 177.745 395.201 172.396 394.122 170.187C392.649 167.243 387.928 158.409 387.438 157.761L368.534 120.464C375.648 110.39 382.202 99.9307 388.164 89.1345C400.757 66.1476 405.556 49.4718 402.425 39.588C402.045 38.3463 401.501 37.1613 400.806 36.0645C395.712 28.2124 344.742 49.2951 314.816 62.5651L313.452 63.1736C313.367 63.2145 313.29 63.2711 313.226 63.3405C312.127 61.9565 310.939 60.6217 309.761 59.4144C306.63 56.0479 303.48 52.9267 299.74 51.3956C299.934 51.2258 299.454 51.0886 299.175 50.7784C294.6 45.6949 288.099 47.8744 282.642 50.0926C279.443 51.3882 286.704 47.5873 285.644 50.8361C283.887 48.0781 283.467 49.9724 280.522 51.3956C277.578 52.8187 273.347 50.5416 273.308 53.8984C271.718 51.2189 274.432 48.8454 268.633 53.0979C266.494 54.2954 267.788 57.6576 267.474 60.0917C267.12 62.8203 277.283 51.7391 275.595 53.8984C273.749 56.3213 272.539 59.1681 272.077 62.1788C271.614 65.1894 271.912 68.268 272.945 71.1336C273.991 73.8992 275.707 76.3613 277.941 78.2986C275.908 79.7254 273.734 80.939 271.453 81.9204C269.706 80.1242 267.988 79.2016 266.33 79.2016H266.232C264.948 79.513 263.757 80.1253 262.757 80.988C254.483 86.0427 185.817 128.326 189.762 137.081C190.413 138.526 191.23 139.889 192.196 141.144C199.813 151.067 217.117 155.867 243.647 155.553C244.913 155.553 246.179 155.553 247.436 155.465C248.049 157.409 248.872 159.282 249.889 161.049C251.807 165.173 254.011 169.158 256.485 172.975C257.614 174.849 258.684 176.616 259.655 178.363L294.636 241.013C298.771 248.729 303.305 256.225 308.22 263.469C312.51 269.555 316.269 273.667 320.43 276.798C326.643 281.48 334.633 284.552 344.84 286.182C347.053 286.53 349.285 286.736 351.524 286.8L352.005 293.278C352.447 301.581 352.987 309.963 353.409 318.139C354.057 329.211 354.724 340.655 355.284 351.697C355.506 356.044 354.467 360.362 352.292 364.132C350.117 367.902 346.899 370.963 343.025 372.947C340.826 374.065 338.686 375.106 336.429 376.205C333.249 377.746 329.961 379.346 326.506 381.172C326.123 381.378 325.711 381.574 325.299 381.77C323.335 382.752 321.029 383.782 321.372 386.099V386.413L321.687 386.501C323.248 386.94 324.864 387.158 326.486 387.149C331.276 387.149 336.498 385.402 343.525 382.821C344.723 382.389 346.794 381.486 349.188 380.445C354.096 378.335 360.103 375.705 362.576 375.292C366.855 374.576 372.656 377.197 378.791 379.955C383.698 382.163 388.753 384.44 393.925 385.569C400.972 387.1 405.203 386.55 406.498 383.949C406.55 383.837 406.577 383.715 406.577 383.591C406.577 383.467 406.55 383.345 406.498 383.233C405.968 381.741 401.179 379.483 393.415 375.94C390.333 374.527 387.143 373.074 384.63 371.779C383.943 371.425 382.913 370.984 381.686 370.463C378.614 369.129 373.971 367.107 372.803 365.448C371.154 363.092 370.124 358.901 369.947 355.976C368.308 328.082 367.395 308.923 366.335 286.721V286.083C370.478 285.591 374.579 284.794 378.604 283.698L379.86 285.661C396.261 311.308 405.704 325.501 409.787 323.469C409.944 323.505 410.106 323.525 410.268 323.528C410.543 323.524 410.816 323.471 411.072 323.371C412.495 322.831 413.506 320.858 414.017 317.482C415.116 310.886 413.614 306.381 410.601 297.39C409.993 295.574 409.325 293.572 408.638 291.315C406.774 285.718 404.615 280.224 402.17 274.855C400.717 271.586 399.353 268.485 399.5 267.611C405.566 274.217 413.045 278.82 417.472 276.867L490.672 361.424L493.303 364.466L492.93 362.621ZM401.355 275.326C403.794 280.664 405.944 286.129 407.794 291.698C408.52 293.955 409.198 295.967 409.806 297.783C412.849 306.891 414.243 311.053 413.183 317.413C412.721 320.161 412.034 321.447 411.455 322.056C413.614 319.111 411.965 315.008 409.345 308.629C406.4 301.405 391.256 279.949 379.35 260.721L379.026 260.201L378.771 259.779V259.691C377.279 257.247 373.647 250.327 370.114 246.519C369.878 246.273 369.653 246.038 369.427 245.822C369.201 245.606 368.985 245.41 368.769 245.233C368.318 244.846 367.82 244.516 367.287 244.252L368.347 243.633L368.789 243.378L369.231 243.123L376.386 238.971C376.788 239.246 377.181 239.531 377.583 239.825L378.015 240.139L378.427 240.473C382.282 243.668 385.681 247.376 388.527 251.495C389.388 252.644 390.185 253.84 390.912 255.078L391 255.244C391.558 256.295 392.177 257.311 392.856 258.287C392.934 258.395 393.003 258.513 393.091 258.621C393.539 259.245 394.102 259.778 394.75 260.191C395.143 260.442 395.585 260.609 396.046 260.682H396.301C396.549 260.702 396.798 260.702 397.047 260.682C397.429 260.62 397.806 260.532 398.175 260.417C398.504 260.269 398.859 260.188 399.22 260.178C399.58 260.168 399.939 260.229 400.276 260.358L400.855 260.633H400.914L401.414 260.868L401.817 261.075L401.925 261.133C402.092 261.222 402.258 261.31 402.415 261.408C402.823 261.64 403.196 261.927 403.524 262.262C400.05 265.256 399.137 266.365 398.833 266.826C398.764 266.934 398.735 267.003 398.705 267.052C398.185 268.181 399.137 270.389 401.355 275.326ZM384.267 372.691C386.8 373.997 389.999 375.459 393.101 376.873C398.323 379.258 405.487 382.536 405.684 383.557C404.948 385.029 402.356 386.423 394.19 384.646C389.126 383.537 384.11 381.28 379.252 379.101C372.98 376.274 367.042 373.604 362.468 374.37C359.887 374.802 353.772 377.452 348.855 379.582C346.479 380.622 344.418 381.545 343.25 381.937C334.171 385.264 328.184 387.198 322.344 385.686C322.344 384.391 323.738 383.655 325.76 382.693C326.192 382.497 326.624 382.29 327.016 382.084C330.451 380.259 333.73 378.669 336.9 377.177C339.069 376.117 341.307 375.027 343.515 373.908C347.552 371.835 350.903 368.639 353.167 364.705C355.431 360.772 356.51 356.268 356.275 351.736C355.725 340.684 355.058 329.24 354.41 318.179C354.106 312.947 353.801 307.647 353.497 302.357L366.002 298.185C366.855 315.96 367.709 333.058 369.064 356.094C369.25 359.156 370.35 363.563 372.106 366.076C373.422 367.961 377.848 369.884 381.401 371.425C382.55 371.916 383.561 372.348 384.228 372.691H384.267ZM365.894 285.19H365.815H365.403C361.171 285.71 356.907 285.93 352.643 285.848H352.153H351.662H351.505C349.342 285.762 347.186 285.555 345.046 285.229C334.996 283.62 327.153 280.607 321.068 276.023C316.995 272.961 313.295 268.917 309.074 262.92C304.178 255.7 299.661 248.23 295.539 240.542L260.519 177.882C259.538 176.125 258.458 174.349 257.319 172.474C255.602 169.628 253.865 166.752 252.412 163.817C252.98 164.291 253.628 164.66 254.326 164.907C256.937 165.81 268.587 163.641 275.301 163.748C276.41 165.103 277.332 166.251 277.941 167.095C287.354 180.297 295.215 194.303 303.813 208.024C312.127 221.265 321.834 234.142 334.574 243.044C339.805 247.716 346.568 251.75 355.009 255.244C357.197 256.147 359.494 257.011 361.879 257.826C362.772 258.13 363.744 258.415 364.775 258.66C367.719 265.766 372.872 274.452 378.162 282.825C374.291 283.841 370.356 284.598 366.384 285.092L365.894 285.19ZM243.686 154.503C225.686 154.758 202.277 152.54 193.041 140.477L192.982 140.398C192.083 139.227 191.322 137.955 190.714 136.61C187.986 130.554 232.693 100.461 263.405 81.7045L263.552 81.567C264.396 80.94 265.333 80.4498 266.33 80.1144C267.615 79.7022 269.088 80.6444 270.599 82.2443L270.952 82.6271L271.296 83.0196C271.62 83.4024 271.944 83.8049 272.278 84.2368L272.327 84.2956C272.641 84.7079 272.955 85.1495 273.308 85.6305C276.861 90.9502 278.333 97.8993 278.628 102.031C278.628 102.208 278.628 102.375 278.628 102.532C278.628 102.709 278.628 102.876 278.628 103.033C278.74 103.864 278.646 104.71 278.353 105.496L241.056 133.832L241.635 134.617L247.073 130.691C255.906 125.784 275.222 115.242 280.179 113.594C281.598 116.462 284.022 118.708 286.99 119.905C287.613 120.162 288.249 120.388 288.894 120.582C290.857 120.582 293.331 120.474 295.098 120.278C298.585 119.847 302.04 119.191 305.443 118.315C306.689 118.383 307.936 118.432 309.163 118.481C310.959 118.55 312.814 118.629 314.62 118.786L314.708 117.804C312.873 117.647 311.008 117.578 309.202 117.5C305.269 117.495 301.348 117.054 297.512 116.185C296.861 116.015 296.221 115.802 295.598 115.547C294.042 114.87 292.583 113.989 291.26 112.926C290.461 112.271 289.806 111.457 289.337 110.537C288.867 109.616 288.593 108.608 288.531 107.577C288.517 106.565 288.718 105.561 289.12 104.632C289.391 104.383 289.605 104.079 289.748 103.739C290.212 102.724 290.88 101.815 291.711 101.07C293.273 99.7277 294.993 98.5838 296.835 97.6638C298.788 100.915 300.918 104.057 303.215 107.076C304.589 108.676 307.317 109.53 310.311 109.53C312.382 109.533 314.434 109.126 316.347 108.333C320.273 106.645 322.315 103.514 321.932 99.7347C321.716 97.6441 320.509 95.6418 319.331 93.6984C318.65 92.6407 318.053 91.5315 317.545 90.3809C317.427 90.1061 317.348 89.8509 317.26 89.5859C317.897 89.3984 318.559 89.3091 319.223 89.3209C319.839 89.3683 320.452 89.4502 321.058 89.5663C323.392 90.1568 325.531 91.3479 327.262 93.0212C330.883 96.5252 331.188 102.11 330.972 107.626H331.953C332.169 102.159 331.855 96.054 327.949 92.2851C327.821 92.1575 327.674 92.0299 327.536 91.9121C328.324 91.6735 329.082 91.3441 329.794 90.9306C331.348 90.0681 333.032 89.4648 334.78 89.1443C344.595 87.8683 358.66 79.2409 365.422 75.0989C366.522 74.4217 369.191 72.4881 369.859 72.1544L367.699 72.6844L333.641 79.4175C332.414 75.3639 330.137 70.7606 328.557 69.0921C327.968 68.4737 327.418 67.9143 326.888 67.4039C321.686 62.3982 319.194 62.4964 316.514 62.8301C365.501 41.1683 396.693 31.3336 400.05 36.5061C400.688 37.5269 401.193 38.6253 401.552 39.7745C408.422 61.6425 371.969 113.878 367.955 119.522L363.656 112.71L362.812 113.221L367.719 121.014L386.633 158.252V158.321C386.701 158.409 391.786 167.665 393.248 170.629C394.288 172.739 396.958 177.853 397.586 179.688C397.586 179.777 397.645 179.855 397.665 179.934L397.047 180.326L395.722 181.151C393.279 182.684 390.734 184.048 388.105 185.234C384.12 186.745 380.003 187.882 375.807 188.63C375.591 187.648 375.316 186.755 375.021 185.832C375.021 185.685 374.923 185.528 374.865 185.381C374.806 185.234 374.776 185.077 374.717 184.929C371.606 176.282 364.951 168.774 359.013 162.05C356.297 159.103 353.735 156.017 351.338 152.805C347.804 147.809 344.556 142.126 341.425 136.639C337.44 129.661 333.317 122.447 328.488 116.371C326.957 114.408 324.827 112.19 321.971 111.778L321.834 112.759C324.346 113.122 326.3 115.213 327.723 116.99C332.513 123.006 336.615 130.191 340.581 137.13C343.731 142.646 346.99 148.349 350.543 153.374C352.961 156.623 355.549 159.742 358.297 162.718C364.186 169.343 370.742 176.753 373.804 185.185L373.952 185.636C374.011 185.783 374.05 185.94 374.099 186.088C374.415 187.012 374.684 187.952 374.904 188.904C370.978 190.092 352.712 196.03 341.533 206.415L340.375 207.504L340.021 207.848L339.658 208.181C334.362 213.167 329.626 218.716 325.534 224.729C325.22 225.201 324.975 225.593 324.798 225.897L315.778 210.272L314.796 208.574L314.07 207.308L287.157 160.912L288.816 152.353L289.798 147.22L285.989 148.82L280.414 151.166C279.354 151.352 277.038 151.725 273.809 152.147C271.846 152.422 269.47 152.726 266.86 153.011C261.687 153.58 255.464 154.12 248.839 154.375H248.339H247.848H247.18C246.032 154.463 244.864 154.493 243.686 154.503ZM274.859 81.3217C275.841 82.2443 278.608 84.7962 280.522 86.3568C282.907 88.3198 286.794 93.7083 287.226 95.1903C287.52 96.2307 288.031 97.8993 288.315 98.8219C285.443 100.007 282.491 100.991 279.482 101.766C279.168 97.3006 277.519 90.2926 274.064 85.0808C273.72 84.5803 273.397 84.0993 273.082 83.7067C272.768 83.3141 272.493 82.951 272.199 82.6074C273.131 82.1952 274.015 81.7731 274.859 81.3217ZM290.828 100.569C290.066 101.32 289.406 102.168 288.865 103.091C287.697 102.983 284.438 103.091 279.227 105.938C279.3 105.829 279.356 105.71 279.393 105.585C279.602 104.671 279.675 103.732 279.609 102.797C284.789 101.596 289.753 99.6103 294.332 96.908C294.862 96.5644 295.313 96.2307 295.794 95.9265L296.197 96.5645L296.374 96.8393C294.507 97.7942 292.769 98.9815 291.201 100.373L290.828 100.569ZM321.049 88.5652C320.725 88.4965 320.401 88.4474 320.067 88.4082H319.89C318.913 88.3018 317.928 88.2788 316.946 88.3394C316.832 87.8504 316.743 87.3557 316.681 86.8574L325.338 84.6293C327.678 85.9322 330.315 86.6084 332.994 86.5923C333.13 86.5942 333.266 86.5743 333.396 86.5334C333.899 86.6858 334.438 86.665 334.927 86.4746C339.206 84.8943 353.801 79.3292 362.556 75.8841C355.303 80.2911 343.28 87.2205 334.711 88.3296C332.857 88.6594 331.069 89.2927 329.421 90.2043C328.439 90.6754 327.301 91.2447 327.026 91.0582C325.236 89.8075 323.197 88.9572 321.049 88.5652ZM316.367 67.9536C315.984 67.2081 315.562 66.4839 315.101 65.7844L314.698 65.1857L315.159 65.1072L318.879 64.4594C320.836 65.4757 322.616 66.8015 324.15 68.3854C324.785 69.0438 325.369 69.7493 325.897 70.4957C328.184 73.7641 329.47 79.3979 329.931 81.7437C329.98 81.9891 330.029 82.2148 330.059 82.3817H329.892L329.352 82.5191L324.111 83.8735L316.553 85.8366C316.552 83.8776 316.793 81.9261 317.27 80.0261C317.417 79.2801 317.574 78.5047 317.721 77.6999C317.819 77.1208 317.918 76.5221 317.996 75.8841C318.279 73.1361 317.71 70.3676 316.367 67.9536ZM521.178 152.648C529.03 152.029 534.271 154.346 536.42 159.332C540.611 169.078 532.318 185.97 516.27 200.418C503.56 211.862 467.872 240.492 463.985 242.877L463.622 243.093V243.152L419.798 273.579C421.093 267.602 417.374 255.392 411.22 246.156C404.791 236.517 397.626 228.94 391.472 228.891C398.146 225.201 411.907 217.594 425.167 210.242C441.509 201.183 457.105 192.516 457.723 192.104L457.183 191.29C456.948 191.447 454.239 192.978 449.871 195.402L401.905 201.438C391.992 198.199 381.107 194.862 380.94 194.803L380.645 195.785C380.93 195.863 408.569 204.373 415.813 207.357C418.343 208.455 420.951 209.364 423.616 210.076L387.006 230.344L387.065 230.461C386.024 231.237 385.681 233.013 385.798 235.369L378.457 239.374C377.848 238.912 377.23 238.461 376.612 238.058L376.356 237.882L368.897 242.22L368.455 242.465L368.014 242.72L365.815 244.006C365.468 244.016 365.129 244.117 364.834 244.301C364.409 244.564 364.031 244.896 363.715 245.282L363.401 245.459L363.479 245.577C361.663 248.04 362.272 252.369 364.313 257.698C363.558 257.502 362.851 257.286 362.184 257.06C359.848 256.246 357.561 255.392 355.391 254.489C349.499 252.146 343.921 249.079 338.784 245.361C334.446 239.285 330.235 232.67 326.172 225.731C330.29 219.591 335.095 213.94 340.492 208.888L340.865 208.535L341.209 208.211L342.288 207.229C354.587 195.775 375.777 189.778 375.934 189.729C380.247 188.962 384.479 187.795 388.576 186.245C392.054 184.642 395.404 182.775 398.597 180.66L398.784 180.542C430.418 172.71 510.401 153.482 521.178 152.628V152.648ZM397.91 259.534C397.416 259.711 396.894 259.801 396.369 259.799C395.859 259.7 395.374 259.497 394.946 259.203C394.517 258.91 394.153 258.531 393.876 258.091C393.128 257.055 392.455 255.966 391.864 254.832L391.766 254.665C391.28 253.799 390.743 252.964 390.156 252.162C389.872 251.75 389.587 251.358 389.302 250.955C386.461 246.868 383.092 243.175 379.281 239.972L385.857 236.39L392.326 232.856C392.905 232.984 395.849 233.956 401.346 241.287C406.989 248.816 407.49 255.745 407.529 257.149L402.7 260.162L402.386 260.358L402.042 260.172L401.336 259.838L400.708 259.534C400.266 259.345 399.791 259.246 399.311 259.243C398.831 259.239 398.355 259.332 397.91 259.514V259.534ZM419.317 275.169L464.083 244.045L526.232 316.108L528.382 318.601C525.192 318.375 516.937 319.916 503.677 336.327C493.087 349.44 491.84 357.979 491.85 361.296L488.385 357.301L418.365 276.435C418.767 276.076 419.091 275.639 419.317 275.149V275.169Z" fill="#2B266D"/>
<path d="M296.082 48.4585C299.175 49.6956 300.721 51.2935 301.107 51.9378H292.989L277.912 61.2165L275.206 80.1597L271.34 82.0927L269.793 81.3195L266.314 78.9999L245.464 92.5136C245.456 92.5203 245.447 92.526 245.438 92.5308L245.464 92.5136C245.889 92.1634 244.252 89.2398 246.983 82.8659C251.351 72.6741 258.84 73.9742 261.288 73.201L264.767 56.1907C266.572 54.1288 271.494 49.5409 276.752 47.6853C283.324 45.3657 292.216 46.9121 296.082 48.4585Z" fill="#2B266D"/>
<path d="M260.518 62.3758C264.279 52.7479 277.753 47.5535 282.164 49.0408L282.166 76.2937L275.595 81.3197C260.093 81.3195 256.756 72.0037 260.518 62.3758Z" fill="#2B266D"/>
<path d="M277.525 108.381V101.422L293.376 88.2782L327.009 83.2524L317.731 88.2782L289.123 104.515L277.525 108.381Z" fill="#2B266D"/>
<path d="M506.061 351.474L510.841 357.942L513.118 361.034C514.37 357.827 516.044 354.8 518.094 352.034L518.82 350.984C519.468 350.002 520.086 349.158 520.617 348.333C522.409 345.675 524.57 343.286 527.036 341.237C527.801 340.57 528.537 339.961 529.205 339.412C531.119 337.851 532.768 336.467 532.65 335.711C532.5 334.365 532.735 333.004 533.327 331.785L532.345 330.804L526.27 324.532C524.906 325.101 518.948 327.859 512.794 335.044C508.171 340.491 506.375 349.973 506.061 351.474Z" fill="#FF5787"/>
<path d="M541.777 355.084C558.198 334.335 564.685 323.097 569.436 317.914C573.558 313.419 583.03 305.449 587.79 305.155C578.956 302.878 572.94 306.941 566.099 312.486C562.792 315.278 559.783 318.402 557.118 321.811C555 324.442 552.729 326.946 550.316 329.31C549.348 330.405 548.089 331.201 546.685 331.606C544.879 331.979 543.151 331.194 541.482 330.438C539.814 329.682 538.086 328.887 536.575 329.555C535.707 330.006 534.998 330.711 534.543 331.577C534.455 331.724 534.366 331.861 534.288 332.018C534.209 332.175 534.151 332.342 534.082 332.509C533.676 333.458 533.524 334.497 533.64 335.522C533.846 336.867 532.256 338.163 529.852 340.135C526.613 342.573 523.78 345.508 521.46 348.832C520.92 349.666 520.302 350.559 519.644 351.501C517.465 354.642 514.923 358.372 513.863 361.974C513.804 362.17 513.745 362.376 513.696 362.573C513.647 362.769 513.608 363.005 513.559 363.221C513.339 364.303 513.299 365.413 513.441 366.509C513.657 367.961 520.233 375.931 524.61 381.005C525.877 377.217 530.362 369.502 541.777 355.084Z" fill="#5A51E7"/>
<path d="M589.803 305.812C589.815 305.573 589.785 305.334 589.714 305.105C589.676 304.975 589.607 304.855 589.513 304.756C589.419 304.657 589.303 304.582 589.175 304.536C578.476 301.258 571.282 307.078 565.501 311.76C562.146 314.594 559.09 317.764 556.382 321.222C554.285 323.822 552.041 326.299 549.659 328.642C548.819 329.602 547.728 330.309 546.508 330.683C545.017 330.998 543.505 330.31 541.905 329.584C540.04 328.73 538.117 327.857 536.183 328.691C535.202 329.172 534.385 329.934 533.837 330.88L532.699 329.702L526.584 323.401L526.29 323.499C526.005 323.607 519.272 326.061 512.107 334.413C506.885 340.498 505.148 351.099 505.079 351.511V351.717L510.085 358.489L512.833 362.209C512.425 363.664 512.314 365.187 512.509 366.685C512.745 368.246 519.792 377.02 524.287 382.242C524.182 382.541 524.143 382.859 524.173 383.174C524.204 383.49 524.303 383.795 524.464 384.068C525.184 384.834 526.149 385.323 527.192 385.451C527.424 385.719 527.692 385.954 527.988 386.148L528.282 386.246L528.488 386.021L529.048 385.451C531.374 385.157 534.583 383.704 538.774 379.719C542.965 375.735 552.712 363.613 562.33 351.03C570.057 342.304 577.183 333.063 583.659 323.371C584.174 322.416 584.636 321.433 585.042 320.427L586.112 318.886C586.112 318.886 592.924 308.766 589.803 305.812ZM513.559 363.26C513.559 363.044 513.648 362.828 513.697 362.612C513.746 362.396 513.805 362.209 513.864 362.013C514.924 358.362 517.466 354.681 519.645 351.54C520.302 350.559 520.921 349.705 521.461 348.871C523.781 345.547 526.613 342.612 529.852 340.175C532.257 338.212 533.847 336.906 533.641 335.562C533.525 334.536 533.677 333.497 534.083 332.548C534.151 332.381 534.21 332.215 534.289 332.058C534.367 331.901 534.456 331.763 534.544 331.616C534.999 330.75 535.708 330.045 536.576 329.594C538.107 328.927 539.756 329.682 541.483 330.477C543.211 331.272 544.879 332.018 546.685 331.645C548.09 331.241 549.349 330.444 550.317 329.349C552.73 326.985 555.001 324.481 557.119 321.85C559.784 318.441 562.793 315.317 566.099 312.526C572.97 306.98 578.947 302.917 587.791 305.194C583.03 305.449 573.559 313.419 569.437 317.953C564.686 323.136 558.198 334.374 541.778 355.123C530.363 369.541 525.877 377.256 524.592 381.084C520.214 376.009 513.638 368.04 513.422 366.587C513.276 365.479 513.316 364.354 513.54 363.26H513.559ZM526.319 324.539L532.395 330.811L533.376 331.793C532.784 333.011 532.549 334.372 532.699 335.719C532.817 336.504 531.168 337.858 529.254 339.419C528.586 339.968 527.85 340.577 527.085 341.244C524.619 343.293 522.458 345.683 520.666 348.341C520.136 349.165 519.517 350.058 518.869 350.991L518.143 352.041C516.093 354.807 514.419 357.834 513.167 361.041L510.89 357.95L506.11 351.482C506.375 349.98 508.22 340.499 512.882 335.061C518.987 327.867 524.945 325.108 526.309 324.539H526.319Z" fill="#2B266D"/>
<path d="M274.091 85.0817C277.595 90.3229 279.195 97.3309 279.509 101.767C282.518 100.991 285.47 100.008 288.343 98.8228C288.058 97.9002 287.547 96.2316 287.253 95.1912C286.821 93.6797 282.934 88.3206 280.549 86.3576C278.635 84.797 275.887 82.2451 274.886 81.3225C274.042 81.774 273.158 82.196 272.246 82.6083C272.54 82.9518 272.835 83.315 273.129 83.7076C273.424 84.1002 273.757 84.5811 274.091 85.0817Z" fill="#FF5787"/>
<path d="M248.335 154.386H248.835C255.46 154.131 261.683 153.591 266.855 153.022C269.466 152.737 271.812 152.433 273.805 152.158C277.034 151.716 279.35 151.343 280.41 151.176L285.985 148.831L289.793 147.231L288.812 152.364L287.153 160.923L314.056 207.328L314.782 208.594L315.764 210.292L324.823 225.908C325 225.604 325.245 225.211 325.559 224.74C329.652 218.727 334.387 213.178 339.683 208.192L340.046 207.858L340.4 207.515L341.558 206.425C352.708 196.041 371.003 190.103 374.929 188.915C374.709 187.963 374.44 187.023 374.124 186.098C374.124 185.951 374.036 185.794 373.977 185.647L373.83 185.195C370.767 176.764 364.201 169.354 358.322 162.729C355.574 159.753 352.986 156.634 350.568 153.385C347.015 148.359 343.757 142.657 340.606 137.141C336.68 130.202 332.538 123.017 327.748 117C326.335 115.224 324.382 113.133 321.859 112.77L321.996 111.788C324.853 112.201 326.983 114.458 328.514 116.382C333.343 122.457 337.465 129.672 341.45 136.65C344.581 142.137 347.83 147.82 351.363 152.815C353.76 156.028 356.322 159.114 359.038 162.061C365.006 168.785 371.661 176.293 374.742 184.94C374.801 185.087 374.841 185.244 374.89 185.392C374.939 185.539 374.998 185.696 375.047 185.843C375.341 186.766 375.616 187.698 375.832 188.64C380.028 187.892 384.145 186.755 388.13 185.244C390.759 184.059 393.304 182.694 395.747 181.161L397.072 180.337L397.69 179.944C397.69 179.866 397.641 179.787 397.612 179.699C396.983 177.863 394.314 172.75 393.273 170.64C391.811 167.695 386.727 158.42 386.658 158.332V158.263L367.833 121.103L362.925 113.31L363.769 112.799L368.068 119.611C372.083 113.967 408.575 61.7023 401.665 39.8638C380.632 45.5074 348.036 60.2791 327.002 67.4932C327.532 68.0036 328.082 68.563 328.671 69.1813C330.251 70.8499 332.528 75.4532 333.755 79.5068L367.813 72.7736L369.972 72.2436C369.305 72.6264 366.635 74.56 365.536 75.1881C358.773 79.3301 344.709 87.9477 334.893 89.2335C333.145 89.554 331.461 90.1574 329.907 91.0198C329.195 91.4334 328.438 91.7628 327.65 92.0013C327.787 92.1191 327.935 92.2467 328.062 92.3743C331.988 96.1433 332.283 102.248 332.067 107.715H331.085C331.301 102.199 330.997 96.6144 327.375 93.1104C325.644 91.4371 323.506 90.246 321.172 89.6555C320.565 89.5394 319.952 89.4575 319.337 89.4102C318.673 89.3983 318.011 89.4876 317.374 89.6752C317.462 89.9402 317.54 90.1954 317.658 90.4702C318.167 91.6208 318.764 92.73 319.445 93.7877C320.622 95.7507 321.83 97.7137 322.046 99.8239C322.428 103.603 320.397 106.694 316.461 108.422C314.547 109.215 312.496 109.622 310.425 109.619C307.431 109.619 304.702 108.765 303.328 107.166C301.032 104.147 298.902 101.004 296.948 97.7529C295.107 98.673 293.386 99.817 291.825 101.159C290.994 101.904 290.326 102.813 289.862 103.828C289.719 104.168 289.505 104.472 289.234 104.722C288.832 105.651 288.631 106.654 288.645 107.666C288.707 108.698 288.981 109.705 289.45 110.626C289.92 111.546 290.575 112.36 291.373 113.015C292.696 114.078 294.156 114.959 295.712 115.636C296.335 115.891 296.974 116.104 297.626 116.274C301.462 117.143 305.382 117.585 309.315 117.589C311.121 117.668 312.986 117.736 314.822 117.893L314.733 118.875C312.927 118.718 311.072 118.639 309.276 118.571C308.049 118.571 306.803 118.473 305.556 118.404C302.154 119.28 298.698 119.936 295.211 120.367C293.445 120.563 290.981 120.632 289.008 120.671C288.362 120.478 287.727 120.252 287.104 119.994C284.136 118.798 281.711 116.551 280.292 113.683C275.336 115.332 256.069 125.863 247.186 130.781L241.748 134.707L241.17 133.921L278.467 105.585C278.759 104.799 278.854 103.953 278.742 103.122C278.742 102.965 278.742 102.798 278.742 102.621C278.742 102.445 278.742 102.297 278.742 102.121C278.447 97.9885 276.975 91.0394 273.422 85.7197C273.088 85.2387 272.774 84.7971 272.44 84.3848L272.391 84.326C271.106 84.9934 269.761 85.7001 268.367 86.4656C244.458 99.5098 206.11 125.373 193.105 140.448L193.164 140.527C202.4 152.56 225.809 154.808 243.81 154.553C244.988 154.553 246.156 154.553 247.304 154.474H247.971L248.335 154.386ZM330.074 110.061C334.628 111.612 340.783 117.913 343.501 121.613C344.964 123.576 345.916 124.833 346.77 125.912C348.53 128.106 350.134 130.422 351.569 132.842L349.901 133.823C348.506 131.467 346.945 129.214 345.229 127.08C344.404 126.04 343.393 124.754 341.911 122.713C339.31 119.13 333.362 113.202 329.446 111.867L330.074 110.061ZM325.029 191.222C325.029 191.428 324.941 191.624 324.882 191.83C324.823 192.036 324.774 192.223 324.725 192.429C323.95 195.374 323.037 198.21 321.996 201.037C321.928 201.233 321.859 201.429 321.78 201.626L321.535 202.273C321.25 203.019 320.966 203.756 320.662 204.492L319.759 204.119C319.945 203.657 320.122 203.196 320.298 202.735L320.554 202.087L320.789 201.488C322.026 198.2 323.087 194.848 323.969 191.447L324.117 190.829C324.175 190.623 324.224 190.417 324.274 190.221C325.174 186.553 325.866 182.837 326.345 179.09L327.326 179.218C326.812 183.263 326.045 187.272 325.029 191.222ZM317.923 119.395C320.19 125.451 324.333 131.576 328.337 137.494C329.603 139.369 330.801 141.136 331.919 142.883L330.271 143.943C329.162 142.215 327.974 140.458 326.717 138.603C322.644 132.587 318.433 126.364 316.088 120.082L317.923 119.395Z" fill="#C5F6E6"/>
<path d="M400.068 36.546C396.711 31.3735 365.519 41.2081 316.532 62.87C319.212 62.5461 321.704 62.4381 326.906 67.4438C347.94 60.2297 380.536 45.4581 401.57 39.8144C401.211 38.6652 400.706 37.5667 400.068 36.546Z" fill="white"/>
<path d="M268.242 86.3763C269.635 85.6107 270.98 84.904 272.266 84.2366C271.942 83.8048 271.618 83.4023 271.284 83.0195L270.941 82.6269L270.587 82.2441C269.076 80.6443 267.643 79.7021 266.318 80.1143C265.321 80.4496 264.384 80.9398 263.54 81.5669L263.393 81.7043C232.682 100.461 187.974 130.554 190.703 136.61C191.311 137.955 192.071 139.227 192.97 140.398C206.034 125.283 244.312 99.4205 268.242 86.3763Z" fill="white"/>
<path d="M317.722 77.7686C317.575 78.5734 317.418 79.3488 317.27 80.0947C316.794 81.9948 316.553 83.9463 316.554 85.9052L324.111 83.9422L329.353 82.5877L329.892 82.4504H330.059C330.059 82.2835 329.981 82.0578 329.932 81.8124C329.47 79.4666 328.185 73.8327 325.898 70.5643C325.37 69.8179 324.785 69.1125 324.151 68.4541C322.617 66.8701 320.837 65.5444 318.88 64.5281L315.16 65.1758L314.699 65.2544L315.101 65.8531C315.562 66.5526 315.985 67.2768 316.367 68.0222C317.72 70.4504 318.29 73.2376 317.997 76.0019C317.928 76.5515 317.82 77.1502 317.722 77.7686Z" fill="#FF5787"/>
<path d="M324.279 190.22C324.279 190.416 324.18 190.622 324.122 190.828L323.974 191.447C323.092 194.848 322.031 198.199 320.794 201.488L320.559 202.086L320.303 202.734C320.127 203.195 319.95 203.657 319.764 204.118L320.667 204.491C320.971 203.755 321.255 203.019 321.54 202.273L321.785 201.625C321.864 201.429 321.933 201.232 322.001 201.036C323.042 198.209 323.964 195.334 324.73 192.428C324.779 192.222 324.838 192.026 324.887 191.83C324.936 191.633 324.985 191.427 325.034 191.221C326.046 187.271 326.81 183.262 327.321 179.217L326.34 179.09C325.864 182.836 325.176 186.552 324.279 190.22Z" fill="#2B266D"/>
<path d="M341.915 122.76C343.397 124.802 344.408 126.088 345.232 127.128C346.948 129.261 348.51 131.515 349.904 133.871L351.573 132.889C350.138 130.47 348.534 128.154 346.773 125.96C345.919 124.88 344.967 123.663 343.505 121.661C340.786 117.921 334.671 111.659 330.078 110.109L329.45 111.964C333.366 113.249 339.314 119.178 341.915 122.76Z" fill="#DDEEEB"/>
<path d="M330.283 143.943L331.932 142.883C330.813 141.136 329.616 139.369 328.35 137.494C324.345 131.605 320.203 125.451 317.936 119.395L316.1 120.082C318.446 126.364 322.657 132.587 326.73 138.603C327.986 140.458 329.174 142.215 330.283 143.943Z" fill="#DDEEEB"/>
<path d="M402.039 260.153L402.383 260.34L402.697 260.143L407.526 257.13C407.526 255.727 406.986 248.797 401.343 241.269C395.846 233.937 392.902 232.965 392.323 232.838L385.854 236.371L379.278 239.954C383.089 243.157 386.458 246.85 389.3 250.937C389.584 251.339 389.869 251.732 390.154 252.144C390.74 252.945 391.277 253.781 391.763 254.647L391.861 254.814C392.452 255.947 393.125 257.036 393.873 258.072C394.15 258.513 394.514 258.891 394.943 259.185C395.372 259.479 395.856 259.681 396.366 259.78C396.891 259.782 397.413 259.693 397.907 259.515C398.35 259.33 398.826 259.234 399.306 259.234C399.786 259.234 400.262 259.33 400.705 259.515L401.333 259.819L402.039 260.153Z" fill="#FF5787"/>
<path d="M398.831 266.896C399.135 266.435 400.048 265.325 403.523 262.332C403.194 261.997 402.821 261.71 402.414 261.478C402.257 261.38 402.09 261.292 401.923 261.203L401.815 261.144L401.413 260.938L400.912 260.703H400.853L400.274 260.428C399.937 260.299 399.578 260.238 399.218 260.248C398.857 260.258 398.503 260.339 398.174 260.487C397.804 260.601 397.427 260.69 397.045 260.752C396.797 260.772 396.547 260.772 396.299 260.752H396.044C395.583 260.679 395.142 260.512 394.748 260.261C394.1 259.848 393.537 259.315 393.09 258.691C393.001 258.583 392.932 258.465 392.854 258.357C392.176 257.38 391.556 256.364 390.999 255.314L390.911 255.147C390.183 253.91 389.387 252.714 388.525 251.565C385.655 247.423 382.227 243.697 378.337 240.493L377.925 240.16L377.493 239.846C377.091 239.551 376.698 239.267 376.296 238.992L369.141 243.143L368.699 243.399L368.257 243.654L367.197 244.272C367.73 244.536 368.228 244.866 368.679 245.254C368.895 245.43 369.121 245.627 369.337 245.843C369.553 246.059 369.789 246.294 370.024 246.539C373.558 250.348 377.189 257.267 378.681 259.711V259.8L378.936 260.222L379.26 260.742C391.166 279.97 406.271 301.425 409.255 308.649C411.875 315.029 413.524 319.132 411.365 322.076C411.944 321.468 412.631 320.182 413.092 317.434C414.152 311.083 412.759 306.922 409.716 297.803C409.108 295.988 408.43 293.976 407.704 291.718C405.854 286.149 403.704 280.684 401.265 275.347C399.086 270.439 398.134 268.172 398.655 267.141C398.733 267.073 398.762 267.004 398.831 266.896Z" fill="#5A51E7"/>
<path d="M309.091 60.0039C305.911 56.5883 302.721 53.4376 298.952 52.0537C278.685 57.301 282.659 63.9888 282.345 63.7631C284.359 65.2089 286.07 67.0365 287.38 69.1418C287.468 69.2792 287.547 69.4264 287.635 69.5736C287.724 69.7208 287.812 69.8583 287.891 70.0055C288.11 70.4177 287.963 70.6985 287.963 72.4278C287.891 73.9944 287.963 73.201 287.891 74.267C287.577 75.1339 287.635 75.1339 287.096 75.6924C287.321 75.6924 290.442 75.9141 290.668 75.973L290.551 76.4442L290.433 76.9251C290.342 76.8998 290.251 76.8801 290.158 76.8662C289.151 76.6468 288.113 76.6169 287.096 76.7778C286.177 76.9131 285.299 77.2481 284.524 77.7593C284.183 78.0093 283.876 78.303 283.611 78.6329C283.492 78.7684 283.384 78.9128 283.287 79.0648C283.181 79.2112 283.086 79.3654 283.003 79.526C282.742 80.0254 282.573 80.5671 282.502 81.1259C282.413 81.751 282.481 82.3884 282.699 82.981C283.405 84.8262 285.476 85.7684 287.361 85.8568C287.56 85.8715 287.76 85.8715 287.959 85.8568C288.16 85.8441 288.36 85.8212 288.558 85.7881C289.939 85.558 291.268 85.0862 292.484 84.3943C293.063 84.0901 293.623 83.7662 294.182 83.4128L294.437 83.8349L294.693 84.2569C294.162 84.5808 293.613 84.8949 293.053 85.2384C291.891 85.883 290.646 86.3652 289.353 86.6714C289.947 87.2048 290.606 87.66 291.316 88.0259C291.791 88.3824 292.194 88.8253 292.504 89.3313C292.602 89.4589 292.69 89.5963 292.798 89.7337L293.102 90.1656C293.78 91.1471 294.673 92.5605 295.831 94.3959L296.106 94.8179L296.361 95.2204L296.43 95.3283L296.822 95.9467L297.028 96.2902V96.3392C297.097 96.4668 297.176 96.5846 297.254 96.7024L297.519 97.1244C299.441 100.329 301.538 103.426 303.801 106.4C305.813 108.745 311.525 109.217 315.795 107.381C317.866 106.498 321.252 104.329 320.791 99.7843C320.604 97.9195 319.446 96.0056 318.327 94.1603C317.619 93.0559 316.999 91.8973 316.472 90.6956C316.289 90.2426 316.128 89.7808 315.991 89.3117C315.942 89.1448 315.903 88.9878 315.854 88.8308C315.805 88.6737 315.775 88.5069 315.746 88.3498C315.642 87.9158 315.56 87.4768 315.5 87.0346L315.441 86.5438C315.441 86.377 315.441 86.2101 315.441 86.0433C315.406 83.9362 315.65 81.8338 316.168 79.7911C316.374 78.8096 316.59 77.7005 316.767 76.5619L316.884 75.7276C317.355 71.9881 315.775 68.494 313.498 65.2844L313.164 64.8428C313.056 64.6955 312.958 64.5483 312.841 64.4011C312.723 64.2538 312.546 64.0183 312.389 63.8318C311.457 62.546 310.289 61.2406 309.091 60.0039ZM301.337 58.2078C301.806 57.7353 302.409 57.4187 303.064 57.301C303.719 57.1834 304.394 57.2704 304.998 57.5502C306.112 58.0969 307.013 58.9979 307.56 60.1119L306.706 60.583C306.255 59.6641 305.518 58.9167 304.606 58.4531C304.193 58.2541 303.729 58.1859 303.276 58.2579C302.824 58.3298 302.404 58.5383 302.073 58.8555C301.832 59.1814 301.679 59.5636 301.627 59.9656C301.576 60.3676 301.628 60.7761 301.779 61.1523C302.135 61.9984 302.656 62.7656 303.31 63.4097L302.584 64.0673C301.838 63.3297 301.251 62.4481 300.856 61.4762C300.646 60.9341 300.584 60.3459 300.675 59.7717C300.767 59.1976 301.008 58.6579 301.376 58.2078H301.337ZM296.332 60.1021C296.898 60.509 297.433 60.9585 297.931 61.4467C298.913 62.3203 300.346 63.665 303.536 66.1384L304.056 66.5506L304.586 66.953L306.363 68.2976C306.959 68.6344 307.41 69.1797 307.629 69.8288C307.679 70.0847 307.668 70.349 307.596 70.5998C307.524 70.8506 307.394 71.0809 307.217 71.2716C306.998 71.5129 306.731 71.7063 306.434 71.8397C306.136 71.9731 305.815 72.0437 305.489 72.047H305.312L305.401 71.0655C305.602 71.0784 305.804 71.0454 305.991 70.9688C306.178 70.8923 306.346 70.7743 306.48 70.6238C306.557 70.5504 306.614 70.459 306.647 70.3579C306.68 70.2568 306.686 70.1491 306.667 70.0447C306.598 69.7012 306.215 69.4263 305.852 69.1515C304.871 68.435 304.036 67.7872 303.271 67.1885L302.751 66.7861L302.23 66.3739C299.482 64.2146 298.157 62.9877 297.264 62.1829C296.801 61.7282 296.306 61.3083 295.782 60.9266L296.332 60.1021ZM304.596 77.8968L304.134 78.0538C303.979 78.1144 303.818 78.1604 303.654 78.1912C303.441 78.2479 303.224 78.2905 303.006 78.3188C302.755 78.3498 302.503 78.3662 302.25 78.3679C301.941 78.366 301.632 78.3397 301.327 78.2894C301.063 78.2522 300.801 78.1997 300.542 78.1323C300.172 78.0324 299.811 77.901 299.462 77.7397L299.011 77.5238L298.599 77.2588C298.168 76.9806 297.772 76.651 297.421 76.2773L297.774 75.9436L298.138 75.6098L298.403 75.865C298.587 76.0327 298.78 76.1899 298.982 76.3361C299.119 76.4343 299.266 76.5227 299.413 76.611L299.845 76.8367C300.538 77.1618 301.289 77.3453 302.054 77.3765C302.338 77.3961 302.623 77.3961 302.908 77.3765H303.133C303.349 77.3381 303.562 77.2857 303.771 77.2195L304.282 77.0527C305.361 76.608 306.279 75.8443 306.912 74.8639C306.981 74.7559 307.05 74.6578 307.108 74.5498L307.54 74.7854L307.972 75.021C307.212 76.324 306.032 77.3307 304.625 77.8771L304.596 77.8968ZM292.867 65.1961C293.336 64.724 293.939 64.4084 294.595 64.2925C295.25 64.1765 295.925 64.2659 296.528 64.5483C297.58 65.0631 298.443 65.8981 298.991 66.9334C299.024 66.9912 299.06 67.0469 299.099 67.1002L298.275 67.5615C298.188 67.4061 298.093 67.2554 297.99 67.11C297.563 66.3902 296.936 65.8104 296.184 65.4415C295.773 65.2411 295.309 65.1714 294.857 65.2416C294.404 65.3117 293.984 65.5185 293.652 65.8341C293.434 66.1306 293.289 66.4751 293.231 66.8388C293.173 67.2026 293.203 67.5748 293.318 67.9246C293.314 67.9933 293.314 68.0622 293.318 68.1308C293.318 68.2289 293.397 68.3075 293.436 68.3958C293.501 68.5542 293.577 68.7083 293.662 68.8571C293.863 69.2007 294.089 69.5287 294.339 69.8386L294.673 70.2214L294.849 70.4177L294.123 71.0851L293.838 70.7612C293.731 70.6434 293.622 70.5158 293.524 70.3882C293.185 69.9801 292.892 69.5357 292.651 69.0632C292.572 68.914 292.504 68.7599 292.445 68.6019C292.441 68.5627 292.441 68.5233 292.445 68.4841C292.445 68.3663 292.366 68.2486 292.337 68.1308C292.307 68.013 292.337 68.1308 292.337 68.0621C292.332 67.9934 292.332 67.9246 292.337 67.856C292.223 67.396 292.215 66.9163 292.311 66.4525C292.408 65.9887 292.608 65.5526 292.896 65.1764L292.867 65.1961Z" fill="#FF5787"/>
<path d="M286.803 60.0566C289.896 53.4845 298.144 53.6134 300.721 51.9381L284.484 49.2319L274.432 69.3349C275.979 72.9432 282.474 78.9998 286.803 75.9071C292.216 72.0411 284.927 64.0449 286.803 60.0566Z" fill="#2B266D"/>
<path d="M307.974 74.933L307.542 74.6975L307.11 74.4619C307.051 74.5699 306.983 74.668 306.914 74.776C306.28 75.7564 305.363 76.52 304.283 76.9647L303.773 77.1316C303.564 77.1978 303.351 77.2503 303.135 77.2887H302.909C302.625 77.3082 302.34 77.3082 302.055 77.2887C301.291 77.2574 300.54 77.0739 299.847 76.7488L299.415 76.5231C299.268 76.4347 299.121 76.3464 298.983 76.2483C298.782 76.1021 298.588 75.9447 298.404 75.7771L298.139 75.522L297.776 75.8556L297.423 76.1894C297.774 76.5631 298.17 76.8927 298.6 77.1709L299.013 77.4358L299.464 77.6518C299.812 77.8131 300.173 77.9445 300.544 78.0444C300.802 78.1118 301.065 78.1642 301.329 78.2014C301.634 78.2518 301.943 78.2781 302.252 78.28C302.504 78.2783 302.757 78.2619 303.007 78.2309C303.226 78.2025 303.442 78.16 303.655 78.1033C303.819 78.0725 303.98 78.0265 304.136 77.9659L304.597 77.8088C306.018 77.2631 307.209 76.2485 307.974 74.933Z" fill="#2B266D"/>
<path d="M302.218 66.3444L302.739 66.7567L303.259 67.1591C304.024 67.7578 304.878 68.4056 305.84 69.1221C306.203 69.3969 306.586 69.6717 306.655 70.0152C306.674 70.1197 306.668 70.2274 306.635 70.3285C306.602 70.4296 306.545 70.521 306.468 70.5943C306.334 70.7449 306.166 70.8628 305.979 70.9393C305.792 71.0159 305.59 71.0489 305.389 71.036L305.3 72.0175H305.477C305.803 72.0142 306.124 71.9436 306.422 71.8102C306.719 71.6768 306.986 71.4834 307.205 71.2421C307.383 71.0514 307.512 70.8211 307.584 70.5703C307.656 70.3195 307.667 70.0553 307.617 69.7993C307.398 69.1503 306.947 68.605 306.351 68.2682L304.574 66.9235L304.044 66.5211L303.524 66.1089C300.334 63.6355 298.872 62.2908 297.92 61.4173C297.423 60.9397 296.892 60.5 296.329 60.1021L295.78 60.9167C296.304 61.2985 296.799 61.7183 297.262 62.173C298.184 62.9582 299.51 64.1851 302.218 66.3444Z" fill="#2B266D"/>
<path d="M302.623 64.0273L303.349 63.3697C302.695 62.7256 302.174 61.9584 301.818 61.1122C301.667 60.7361 301.615 60.3276 301.666 59.9256C301.718 59.5236 301.871 59.1414 302.112 58.8155C302.443 58.4983 302.863 58.2897 303.315 58.2178C303.768 58.1458 304.232 58.214 304.645 58.4131C305.557 58.8766 306.294 59.6241 306.745 60.543L307.599 60.0718C307.052 58.9578 306.151 58.0568 305.037 57.5101C304.433 57.2303 303.758 57.1433 303.103 57.261C302.448 57.3787 301.845 57.6953 301.376 58.1677C301.015 58.6216 300.78 59.1631 300.696 59.7371C300.611 60.3111 300.68 60.8973 300.895 61.4361C301.289 62.408 301.877 63.2896 302.623 64.0273Z" fill="#2B266D"/>
<path d="M292.301 68.0227C292.301 68.0227 292.301 68.0227 292.301 68.0914C292.301 68.1601 292.369 68.3269 292.409 68.4447C292.405 68.4839 292.405 68.5233 292.409 68.5625C292.467 68.7205 292.536 68.8746 292.615 69.0238C292.856 69.4963 293.149 69.9407 293.488 70.3488C293.587 70.4764 293.694 70.604 293.802 70.7218L294.087 71.0457L294.813 70.3783L294.637 70.182L294.303 69.7992C294.053 69.4894 293.827 69.1613 293.626 68.8177C293.541 68.6689 293.465 68.5148 293.4 68.3564C293.4 68.268 293.321 68.1895 293.282 68.0914C293.277 68.0228 293.277 67.9539 293.282 67.8852C293.167 67.5354 293.137 67.1631 293.195 66.7994C293.253 66.4357 293.397 66.0911 293.616 65.7946C293.948 65.479 294.368 65.2723 294.821 65.2021C295.273 65.1319 295.736 65.2017 296.148 65.4021C296.899 65.771 297.527 66.3508 297.954 67.0706C298.057 67.216 298.152 67.3667 298.239 67.5221L299.063 67.0608C299.024 67.0075 298.988 66.9517 298.955 66.8939C298.407 65.8586 297.544 65.0237 296.492 64.5089C295.889 64.2264 295.214 64.137 294.559 64.253C293.903 64.369 293.3 64.6846 292.831 65.1567C292.535 65.5217 292.324 65.9481 292.214 66.4048C292.103 66.8615 292.096 67.3371 292.193 67.7969C292.222 67.875 292.258 67.9505 292.301 68.0227Z" fill="#2B266D"/>
<path d="M735.851 131.397L736.799 12.1254C736.799 6.68505 731.714 2.21666 726.369 2.35889C725.007 1.98139 723.58 1.90054 722.185 2.12182L607.559 18.265C604.549 18.7154 602.19 22.3896 602.19 26.5617V124.096C602.19 128.28 604.56 132.014 607.571 132.618L721.225 140.915C721.904 141.055 722.595 141.127 723.287 141.128C725.252 141.147 727.166 140.499 728.716 139.291C732.532 138.059 735.815 135.131 735.851 131.397ZM722.932 139.99C722.414 139.972 721.899 139.912 721.391 139.813L645.535 134.266L607.701 131.492C605.331 131.018 603.34 127.711 603.34 124.144V26.6092C603.34 26.3366 603.34 26.064 603.34 25.7914C603.439 24.5048 603.806 23.2531 604.418 22.117C604.714 21.4533 605.159 20.8666 605.718 20.4021C606.277 19.9376 606.935 19.6079 607.642 19.4384L694.166 7.25399L701.111 6.27021L722.256 3.29521C722.715 3.22479 723.179 3.18917 723.643 3.18858C725.567 3.16335 727.435 3.84195 728.894 5.09682C729.798 5.90596 730.515 6.90382 730.992 8.01995C731.469 9.13607 731.695 10.3433 731.655 11.5565L730.908 132.192C730.94 133.361 730.707 134.523 730.226 135.59C729.746 136.657 729.031 137.602 728.135 138.355C726.664 139.527 724.809 140.11 722.932 139.99Z" fill="#2B266D"/>
<path d="M730.907 132.191L731.796 11.5563C731.836 10.3431 731.61 9.13592 731.133 8.01979C730.655 6.90367 729.939 5.90581 729.034 5.09666C727.575 3.84179 725.708 3.16319 723.784 3.18842C723.319 3.18902 722.856 3.22464 722.397 3.29506L701.252 6.27005L694.307 7.25383V7.38419L649.8 123.539L645.664 134.313L721.52 139.86C722.028 139.959 722.543 140.019 723.061 140.038C724.926 140.149 726.767 139.566 728.228 138.402C729.114 137.635 729.815 136.679 730.279 135.603C730.742 134.528 730.957 133.361 730.907 132.191Z" fill="#7169EA"/>
<path d="M694.163 7.38427V7.25391L607.64 19.4383C606.933 19.6078 606.275 19.9375 605.716 20.402C605.157 20.8665 604.712 21.4532 604.416 22.117C603.804 23.253 603.437 24.5047 603.338 25.7913C603.338 26.0639 603.338 26.3365 603.338 26.6091V124.144C603.338 127.699 605.293 131.018 607.699 131.492L645.532 134.266L649.669 123.492L694.163 7.38427Z" fill="#B8B4F5"/>
<path d="M548.171 161.197L548 162.37L725.612 188.218L725.783 187.045L548.171 161.197Z" fill="#2B266D"/>
<path d="M730.225 187.494L730.047 188.666L742.468 190.554L742.647 189.382L730.225 187.494Z" fill="#2B266D"/>
<path d="M747.079 190.144L746.916 191.318L752.527 192.099L752.69 190.925L747.079 190.144Z" fill="#2B266D"/>
<path d="M698.11 155.115L694.744 154.795L625.478 148.229L607.379 154.368L609.524 154.629L679.798 163.246L698.11 155.115Z" fill="#B8B4F5"/>
<path d="M699.403 154.06L625.42 147.043H625.289L605.46 153.775C605.319 153.859 605.207 153.982 605.137 154.13C605.067 154.278 605.044 154.443 605.069 154.605C605.078 154.697 605.107 154.785 605.152 154.866V157.805L681.269 167.358L700.541 158.836L700.102 155.209C700.151 155.082 700.169 154.946 700.155 154.811C700.142 154.676 700.097 154.546 700.025 154.431C699.952 154.316 699.854 154.219 699.738 154.149C699.622 154.078 699.491 154.035 699.356 154.024L699.403 154.06ZM607.38 154.368L625.479 148.228L694.745 154.794L698.111 155.115L679.799 163.257L609.525 154.629L607.38 154.368Z" fill="#2B266D"/>
<circle cx="130.319" cy="56.0819" r="28.0257" fill="#FBC63C" stroke="#2B266D" stroke-width="1.15979"/>
<path d="M104.689 34.1474L90.0568 24.3813" stroke="#2B266D" stroke-width="1.15979"/>
<path d="M159.661 34.1474L174.293 24.3813" stroke="#2B266D" stroke-width="1.15979"/>
<path d="M116.12 25.8941L108.135 10.2192" stroke="#2B266D" stroke-width="1.15979"/>
<path d="M148.23 25.8941L156.215 10.2192" stroke="#2B266D" stroke-width="1.15979"/>
<path d="M97.9468 46.5272L68.0001 42.2898" stroke="#2B266D" stroke-width="1.15979"/>
<path d="M166.403 46.5272L196.35 42.2898" stroke="#2B266D" stroke-width="1.15979"/>
<path d="M110.268 87.688L92.519 112.177" stroke="#2B266D" stroke-width="1.15979"/>
<path d="M151.775 87.688L169.524 112.177" stroke="#2B266D" stroke-width="1.15979"/>
<path d="M137.482 90.8167L142.451 120.651" stroke="#2B266D" stroke-width="1.15979"/>
<path d="M97.6009 62.2867L81.5326 65.9031" stroke="#2B266D" stroke-width="1.15979"/>
<path d="M164.442 62.2867L180.511 65.9031" stroke="#2B266D" stroke-width="1.15979"/>
<path d="M124.21 92.4169L123.894 108.884" stroke="#2B266D" stroke-width="1.15979"/>
<path d="M130.256 5.00011L129.94 21.4673" stroke="#2B266D" stroke-width="1.15979"/>
<path d="M100.744 76.9805L83.8352 86.7305" stroke="#2B266D" stroke-width="1.15979"/>
<path d="M161.299 76.9805L178.208 86.7305" stroke="#2B266D" stroke-width="1.15979"/>
</svg>
