<svg width="800" height="400" viewBox="0 0 800 400" fill="none" xmlns="http://www.w3.org/2000/svg">
<path d="M381.737 370.881C347.057 370.881 221.227 372.881 208.347 373.881C195.467 374.881 186.267 381.781 196.177 381.781C206.087 381.781 535.317 384.781 551.177 380.781C567.037 376.781 553.177 373.841 533.347 371.861C513.517 369.881 381.737 370.881 381.737 370.881Z" fill="#2B266D"/>
<path d="M521.247 342.911C521.317 342.461 523.087 331.691 528.407 325.491C535.707 316.981 542.567 314.491 542.857 314.371L543.157 314.271L549.387 320.691C550.387 316.341 549.797 312.261 546.327 309.121C546.087 308.908 545.847 308.708 545.607 308.521L548.147 311.461L546.147 310.581C546.057 310.581 537.427 307.261 520.637 328.051C507.117 344.781 508.887 354.131 508.907 354.231L509.307 356.121L506.587 353.011C507.147 353.861 507.737 354.681 508.337 355.451C510.417 358.141 518.617 355.121 526.287 350.011L521.188 343.111L521.247 342.911Z" fill="#2B266D"/>
<path d="M385.767 357.731C383.977 355.171 382.857 350.681 382.667 347.561C381.287 324.061 380.417 306.641 379.547 288.561L366.807 292.811C367.117 298.201 367.427 303.601 367.737 308.931C368.397 320.201 369.077 331.861 369.637 343.121C369.877 347.739 368.777 352.327 366.471 356.334C364.165 360.342 360.75 363.598 356.637 365.711C354.387 366.851 352.107 367.961 349.897 369.041C346.667 370.611 343.327 372.231 339.827 374.041C339.427 374.251 338.987 374.461 338.547 374.661C336.487 375.661 335.097 376.391 335.067 377.711C341.067 379.251 347.117 377.281 356.367 373.891C357.557 373.461 359.657 372.551 362.077 371.491C367.077 369.321 373.318 366.621 375.948 366.181C380.608 365.401 386.657 368.121 393.047 371.001C398.047 373.221 403.107 375.521 408.267 376.651C416.587 378.461 419.267 377.041 419.977 375.541C419.777 374.541 412.477 371.161 407.157 368.731C404.007 367.291 400.747 365.801 398.157 364.471C397.477 364.121 396.447 363.681 395.257 363.161C391.587 361.611 387.107 359.651 385.767 357.731Z" fill="#7169EA"/>
<path d="M378.247 248.351C377.247 248.101 376.247 247.811 375.297 247.501C372.897 246.671 370.557 245.791 368.297 244.871C359.697 241.311 352.807 237.201 347.477 232.441C334.477 223.371 324.607 210.251 316.137 196.761C307.377 182.761 299.367 168.511 289.777 155.061C289.157 154.201 288.217 153.061 287.087 151.651C280.247 151.541 268.377 153.751 265.717 152.831C265.006 152.58 264.346 152.204 263.767 151.721C265.287 154.721 267.057 157.641 268.767 160.541C269.927 162.451 271.027 164.261 272.027 166.051L307.657 229.881C311.856 237.714 316.459 245.325 321.448 252.681C325.748 258.791 329.517 262.911 333.667 266.031C339.867 270.701 347.857 273.771 358.097 275.411C360.277 275.743 362.474 275.953 364.677 276.041H364.837H365.337H365.837C370.181 276.125 374.525 275.901 378.837 275.371H379.257H379.337L379.827 275.311C383.874 274.808 387.883 274.036 391.827 273.001C386.497 264.441 381.207 255.591 378.247 248.351Z" fill="#5A51E7"/>
<path d="M402.517 174.391C398.343 175.971 394.032 177.159 389.637 177.941C389.477 177.991 367.887 184.101 355.357 195.771L354.257 196.771L353.907 197.101L353.527 197.461C348.028 202.609 343.134 208.366 338.938 214.621C343.077 221.621 347.367 228.401 351.787 234.621C357.02 238.41 362.704 241.534 368.708 243.921C370.918 244.841 373.247 245.711 375.627 246.541C376.307 246.771 377.027 246.991 377.797 247.191C375.717 241.761 375.098 237.351 376.948 234.841L376.867 234.721L377.188 234.541C377.51 234.148 377.895 233.81 378.327 233.541C378.628 233.354 378.973 233.251 379.327 233.241L381.587 232.011L382.037 231.751L382.487 231.501L390.087 227.081L390.347 227.261C390.977 227.671 391.607 228.131 392.227 228.601L399.708 224.521C399.588 222.151 399.937 220.341 400.997 219.521L400.938 219.401L438.237 198.751C435.522 198.026 432.865 197.1 430.287 195.981C422.907 192.981 394.748 184.271 394.458 184.191L394.757 183.191C394.927 183.251 406.017 186.651 416.117 189.951L465.027 183.841C469.447 181.371 472.237 179.841 472.477 179.651L473.027 180.481C472.397 180.901 456.507 189.731 439.857 198.961C426.347 206.451 412.327 214.201 405.527 217.961C411.797 217.961 419.097 225.731 425.647 235.551C431.917 244.961 435.707 257.401 434.387 263.491L479.037 232.491V232.431L479.407 232.211C483.407 229.781 519.727 200.611 532.677 188.951C549.027 174.231 557.478 157.021 553.208 147.091C551.018 142.011 545.657 139.651 537.677 140.281C526.677 141.151 445.207 160.741 412.927 168.581L412.737 168.701C409.481 170.856 406.064 172.758 402.517 174.391Z" fill="#2DC495"/>
<path d="M507.787 352.861C507.787 349.481 509.047 340.781 519.837 327.421C533.347 310.701 541.757 309.131 545.007 309.361L542.817 306.821L479.497 233.401L433.887 265.111C433.646 265.605 433.306 266.044 432.887 266.401L504.227 348.791L507.787 352.861Z" fill="#2DC495"/>
<path d="M508.887 354.231C508.887 354.131 507.097 344.781 520.617 328.051C537.407 307.261 546.037 310.541 546.127 310.581L548.127 311.461L545.587 308.521L482.587 235.521L480.277 232.841C485.807 229.091 520.677 201.091 533.277 189.721C549.947 174.721 558.487 157.041 554.057 146.721C552.407 142.871 548.207 138.461 537.527 139.301C526.317 140.191 444.997 159.761 412.647 167.621C411.867 165.871 409.317 160.421 408.217 158.171C406.717 155.171 401.907 146.171 401.407 145.511L382.147 107.511C389.396 97.2469 396.073 86.5907 402.147 75.591C414.977 52.171 419.867 35.181 416.677 25.111C416.29 23.8459 415.735 22.6385 415.027 21.521C409.837 13.521 357.907 35.001 327.417 48.521L326.027 49.141C325.941 49.1826 325.862 49.2403 325.797 49.311C324.677 47.901 323.467 46.541 322.267 45.311C319.077 41.881 315.867 38.701 312.057 37.141C312.254 36.968 312.435 36.7772 312.597 36.571C316.757 30.901 312.597 15.971 307.037 18.231C303.777 19.551 306.117 25.2311 305.037 28.5411C303.247 25.7311 301.327 19.741 298.327 21.191C295.327 22.641 298.237 28.041 298.197 31.461C296.577 28.731 293.937 23.721 291.197 25.271C289.017 26.491 292.197 30.211 291.877 32.691C291.517 35.471 289.177 37.491 287.457 39.691C285.577 42.1596 284.344 45.06 283.872 48.1274C283.401 51.1948 283.705 54.3314 284.757 57.251C285.823 60.0686 287.572 62.5772 289.847 64.551C287.777 66.0047 285.561 67.2412 283.237 68.241C281.457 66.411 279.707 65.471 278.017 65.471H277.917C276.61 65.7883 275.396 66.4121 274.377 67.291C265.947 72.4411 195.987 115.521 200.007 124.441C200.67 125.913 201.502 127.302 202.487 128.581C210.247 138.691 227.877 143.581 254.907 143.261C256.197 143.261 257.487 143.261 258.767 143.171C259.393 145.152 260.231 147.06 261.267 148.861C263.221 153.063 265.466 157.123 267.987 161.011C269.137 162.921 270.227 164.721 271.217 166.501L306.857 230.331C311.07 238.193 315.69 245.83 320.697 253.211C325.067 259.411 328.897 263.601 333.137 266.791C339.467 271.561 347.607 274.691 358.007 276.351C360.262 276.706 362.536 276.916 364.817 276.981L365.307 283.581C365.757 292.041 366.307 300.581 366.737 308.911C367.397 320.191 368.077 331.851 368.647 343.101C368.874 347.53 367.816 351.93 365.6 355.771C363.384 359.612 360.105 362.73 356.157 364.751C353.917 365.891 351.737 366.951 349.437 368.071C346.197 369.641 342.847 371.271 339.327 373.131C338.937 373.341 338.517 373.541 338.097 373.741C336.097 374.741 333.747 375.791 334.097 378.151V378.471L334.417 378.561C336.009 379.009 337.654 379.231 339.307 379.221C344.187 379.221 349.507 377.441 356.667 374.811C357.887 374.371 359.997 373.451 362.437 372.391C367.437 370.241 373.557 367.561 376.077 367.141C380.437 366.411 386.347 369.081 392.597 371.891C397.597 374.141 402.747 376.461 408.017 377.611C415.197 379.171 419.507 378.611 420.827 375.961C420.88 375.847 420.908 375.722 420.908 375.596C420.908 375.47 420.88 375.345 420.827 375.231C420.287 373.711 415.407 371.411 407.497 367.801C404.357 366.361 401.107 364.881 398.547 363.561C397.847 363.201 396.797 362.751 395.547 362.221C392.417 360.861 387.687 358.801 386.497 357.111C384.817 354.711 383.767 350.441 383.587 347.461C381.917 319.041 380.987 299.521 379.907 276.901V276.251C384.128 275.749 388.306 274.937 392.407 273.821L393.687 275.821C410.397 301.951 420.017 316.411 424.177 314.341C424.338 314.378 424.502 314.398 424.667 314.401C424.948 314.398 425.226 314.343 425.487 314.241C426.937 313.691 427.967 311.681 428.487 308.241C429.607 301.521 428.077 296.931 425.007 287.771C424.387 285.921 423.707 283.881 423.007 281.581C421.108 275.879 418.908 270.281 416.417 264.811C414.937 261.481 413.547 258.321 413.697 257.431C419.877 264.161 427.497 268.851 432.007 266.861L506.587 353.011L509.267 356.111L508.887 354.231ZM415.587 265.291C418.072 270.729 420.262 276.297 422.147 281.971C422.887 284.271 423.577 286.321 424.197 288.171C427.297 297.451 428.717 301.691 427.637 308.171C427.167 310.971 426.467 312.281 425.877 312.901C428.077 309.901 426.397 305.721 423.727 299.221C420.727 291.861 405.297 270.001 393.167 250.411L392.837 249.881L392.577 249.451V249.361C391.057 246.871 387.357 239.821 383.757 235.941C383.517 235.691 383.287 235.451 383.057 235.231C382.827 235.011 382.607 234.811 382.387 234.631C381.928 234.236 381.42 233.9 380.877 233.631L381.957 233.001L382.407 232.741L382.857 232.481L390.147 228.251C390.557 228.531 390.957 228.821 391.367 229.121L391.807 229.441L392.227 229.781C396.155 233.036 399.617 236.815 402.517 241.011C403.395 242.181 404.206 243.4 404.947 244.661L405.037 244.831C405.605 245.901 406.236 246.936 406.927 247.931C407.007 248.041 407.077 248.161 407.167 248.271C407.624 248.907 408.197 249.45 408.857 249.871C409.258 250.127 409.708 250.297 410.177 250.371H410.437C410.69 250.392 410.945 250.392 411.197 250.371C411.587 250.308 411.971 250.218 412.347 250.101C412.683 249.951 413.044 249.868 413.411 249.858C413.779 249.847 414.144 249.91 414.487 250.041L415.077 250.321H415.137L415.647 250.561L416.057 250.771L416.167 250.831C416.337 250.921 416.507 251.011 416.667 251.111C417.083 251.347 417.463 251.64 417.797 251.981C414.257 255.031 413.327 256.161 413.017 256.631C412.947 256.741 412.917 256.811 412.887 256.861C412.357 258.011 413.327 260.261 415.587 265.291ZM398.177 364.491C400.757 365.821 404.017 367.311 407.177 368.751C412.497 371.181 419.797 374.521 419.997 375.561C419.247 377.061 416.607 378.481 408.287 376.671C403.127 375.541 398.017 373.241 393.067 371.021C386.677 368.141 380.627 365.421 375.967 366.201C373.337 366.641 367.107 369.341 362.097 371.511C359.677 372.571 357.577 373.511 356.387 373.911C347.137 377.301 341.037 379.271 335.087 377.731C335.087 376.411 336.507 375.661 338.567 374.681C339.007 374.481 339.447 374.271 339.847 374.061C343.347 372.201 346.687 370.581 349.917 369.061C352.127 367.981 354.407 366.871 356.657 365.731C360.77 363.618 364.185 360.362 366.491 356.354C368.797 352.347 369.897 347.759 369.657 343.141C369.097 331.881 368.417 320.221 367.757 308.951C367.447 303.621 367.137 298.221 366.827 292.831L379.567 288.581C380.437 306.691 381.307 324.111 382.687 347.581C382.877 350.701 383.997 355.191 385.787 357.751C387.127 359.671 391.637 361.631 395.257 363.201C396.427 363.701 397.457 364.141 398.137 364.491H398.177ZM379.457 275.341H379.377H378.957C374.645 275.871 370.301 276.095 365.957 276.011H365.457H364.957H364.797C362.594 275.923 360.397 275.713 358.217 275.381C347.977 273.741 339.987 270.671 333.787 266.001C329.637 262.881 325.867 258.761 321.567 252.651C316.579 245.295 311.976 237.685 307.777 229.851L272.097 166.011C271.097 164.221 269.997 162.411 268.837 160.501C267.087 157.601 265.317 154.671 263.837 151.681C264.416 152.164 265.076 152.54 265.787 152.791C268.447 153.711 280.317 151.501 287.157 151.611C288.287 152.991 289.227 154.161 289.847 155.021C299.437 168.471 307.447 182.741 316.207 196.721C324.677 210.211 334.567 223.331 347.547 232.401C352.877 237.161 359.767 241.271 368.367 244.831C370.597 245.751 372.937 246.631 375.367 247.461C376.277 247.771 377.267 248.061 378.317 248.311C381.317 255.551 386.567 264.401 391.957 272.931C388.013 273.966 384.004 274.738 379.957 275.241L379.457 275.341ZM254.947 142.191C236.607 142.451 212.757 140.191 203.347 127.901L203.287 127.821C202.372 126.627 201.597 125.332 200.977 123.961C198.197 117.791 243.747 87.131 275.037 68.021L275.187 67.881C276.047 67.2421 277.002 66.7427 278.017 66.401C279.327 65.981 280.827 66.941 282.367 68.571L282.727 68.961L283.077 69.361C283.407 69.751 283.737 70.161 284.077 70.601L284.127 70.661C284.447 71.081 284.767 71.531 285.127 72.021C288.747 77.441 290.247 84.521 290.547 88.731C290.547 88.911 290.547 89.081 290.547 89.241C290.547 89.421 290.547 89.591 290.547 89.751C290.662 90.598 290.565 91.4601 290.267 92.261L252.267 121.131L252.857 121.931L258.397 117.931C267.397 112.931 287.077 102.191 292.127 100.511C293.573 103.434 296.043 105.722 299.067 106.941C299.702 107.204 300.349 107.434 301.007 107.631C303.007 107.631 305.527 107.521 307.327 107.321C310.88 106.882 314.401 106.214 317.867 105.321C319.137 105.391 320.407 105.441 321.657 105.491C323.487 105.561 325.377 105.641 327.217 105.801L327.307 104.801C325.437 104.641 323.537 104.571 321.697 104.491C317.69 104.486 313.695 104.037 309.787 103.151C309.123 102.978 308.472 102.761 307.837 102.501C306.252 101.812 304.765 100.914 303.417 99.831C302.604 99.1632 301.936 98.3343 301.458 97.3965C300.98 96.4586 300.7 95.432 300.637 94.381C300.623 93.3499 300.828 92.3274 301.237 91.381C301.513 91.127 301.732 90.8167 301.877 90.471C302.35 89.4365 303.031 88.5105 303.877 87.751C305.468 86.3839 307.221 85.2185 309.097 84.281C311.088 87.5938 313.257 90.7952 315.597 93.871C316.997 95.501 319.777 96.371 322.827 96.371C324.938 96.3739 327.028 95.9593 328.977 95.151C332.977 93.431 335.057 90.241 334.667 86.391C334.447 84.261 333.217 82.221 332.017 80.241C331.324 79.1633 330.715 78.0332 330.197 76.861C330.077 76.581 329.997 76.321 329.907 76.051C330.556 75.8599 331.231 75.7689 331.907 75.781C332.535 75.8293 333.159 75.9127 333.777 76.031C336.155 76.6326 338.334 77.8461 340.097 79.551C343.787 83.121 344.097 88.811 343.877 94.431H344.877C345.097 88.861 344.777 82.641 340.797 78.801C340.667 78.671 340.517 78.541 340.377 78.421C341.18 78.1779 341.952 77.8424 342.677 77.421C344.261 76.5423 345.976 75.9276 347.757 75.601C357.757 74.301 372.087 65.5111 378.977 61.291C380.097 60.6011 382.817 58.6311 383.497 58.291L381.297 58.831L346.597 65.691C345.347 61.561 343.027 56.871 341.417 55.171C340.817 54.541 340.257 53.971 339.717 53.451C334.417 48.351 331.877 48.4511 329.147 48.7911C379.057 26.7211 410.837 16.701 414.257 21.971C414.908 23.011 415.422 24.1301 415.787 25.301C422.787 47.581 385.647 100.801 381.557 106.551L377.177 99.611L376.317 100.131L381.317 108.071L400.587 146.011V146.081C400.657 146.171 405.837 155.601 407.327 158.621C408.387 160.771 411.107 165.981 411.747 167.851C411.747 167.941 411.807 168.021 411.827 168.101L411.197 168.501L409.847 169.341C407.358 170.903 404.766 172.293 402.087 173.501C398.027 175.04 393.832 176.199 389.557 176.961C389.337 175.961 389.057 175.051 388.757 174.111C388.757 173.961 388.657 173.801 388.597 173.651C388.537 173.501 388.507 173.341 388.447 173.191C385.277 164.381 378.497 156.731 372.447 149.881C369.68 146.878 367.069 143.734 364.627 140.461C361.027 135.371 357.717 129.581 354.527 123.991C350.467 116.881 346.267 109.531 341.347 103.341C339.787 101.341 337.617 99.081 334.707 98.661L334.567 99.661C337.127 100.031 339.117 102.161 340.567 103.971C345.447 110.101 349.627 117.421 353.667 124.491C356.877 130.111 360.197 135.921 363.817 141.041C366.281 144.352 368.918 147.529 371.717 150.561C377.717 157.311 384.397 164.861 387.517 173.451L387.667 173.911C387.727 174.061 387.767 174.221 387.817 174.371C388.139 175.313 388.413 176.271 388.637 177.241C384.637 178.451 366.027 184.501 354.637 195.081L353.457 196.191L353.097 196.541L352.727 196.881C347.332 201.961 342.507 207.614 338.337 213.741C338.017 214.221 337.767 214.621 337.587 214.931L328.397 199.011L327.397 197.281L326.657 195.991L299.237 148.721L300.927 140.001L301.927 134.771L298.047 136.401L292.367 138.791C291.287 138.981 288.927 139.361 285.637 139.791C283.637 140.071 281.217 140.381 278.557 140.671C273.287 141.251 266.947 141.801 260.197 142.061H259.687H259.187H258.507C257.337 142.151 256.147 142.181 254.947 142.191ZM286.707 67.631C287.707 68.571 290.527 71.171 292.477 72.761C294.907 74.761 298.867 80.251 299.307 81.761C299.607 82.821 300.127 84.521 300.417 85.461C297.49 86.6681 294.483 87.6705 291.417 88.461C291.097 83.911 289.417 76.771 285.897 71.461C285.547 70.951 285.217 70.461 284.897 70.061C284.577 69.661 284.297 69.291 283.997 68.941C284.947 68.521 285.847 68.091 286.707 67.631ZM302.977 87.241C302.201 88.0064 301.528 88.8705 300.977 89.811C299.787 89.701 296.467 89.811 291.157 92.711C291.232 92.6002 291.289 92.4789 291.327 92.3511C291.54 91.4204 291.614 90.4634 291.547 89.511C296.824 88.2877 301.882 86.2642 306.547 83.511C307.087 83.161 307.547 82.821 308.037 82.511L308.447 83.161L308.627 83.441C306.726 84.4139 304.955 85.6236 303.357 87.0411L302.977 87.241ZM333.767 75.011C333.437 74.941 333.107 74.891 332.767 74.851H332.587C331.591 74.7427 330.587 74.7193 329.587 74.781C329.471 74.2828 329.381 73.7788 329.317 73.271L338.137 71.001C340.522 72.3284 343.209 73.0174 345.937 73.001C346.076 73.0029 346.215 72.9826 346.347 72.941C346.859 73.0962 347.409 73.0751 347.907 72.881C352.267 71.271 367.137 65.601 376.057 62.091C368.667 66.581 356.417 73.641 347.687 74.771C345.798 75.107 343.977 75.7523 342.297 76.681C341.297 77.161 340.137 77.741 339.857 77.551C338.033 76.2768 335.956 75.4105 333.767 75.011ZM328.997 54.011C328.608 53.2515 328.177 52.5137 327.707 51.801L327.297 51.191L327.767 51.111L331.557 50.451C333.551 51.4865 335.364 52.8372 336.927 54.451C337.574 55.1218 338.169 55.8406 338.707 56.601C341.037 59.931 342.347 65.671 342.817 68.061C342.867 68.311 342.917 68.541 342.947 68.711H342.777L342.227 68.851L336.887 70.231L329.187 72.231C329.186 70.2351 329.432 68.2468 329.917 66.311C330.067 65.551 330.227 64.761 330.377 63.941C330.477 63.351 330.577 62.741 330.657 62.091C330.945 59.2912 330.366 56.4705 328.997 54.011ZM325.877 50.931L326.217 51.381C328.537 54.651 330.147 58.211 329.667 62.021L329.547 62.871C329.367 64.031 329.147 65.111 328.937 66.161C328.41 68.2423 328.161 70.3843 328.197 72.531C328.197 72.701 328.197 72.8711 328.197 73.041L328.257 73.541C328.318 73.9916 328.402 74.4388 328.507 74.881C328.507 75.041 328.577 75.201 328.617 75.371C328.657 75.541 328.707 75.691 328.757 75.861C328.897 76.3389 329.06 76.8096 329.247 77.271C329.784 78.4954 330.416 79.6757 331.137 80.801C332.277 82.681 333.457 84.631 333.647 86.531C334.117 91.161 330.647 93.371 328.557 94.271C324.207 96.131 318.387 95.651 316.337 93.271C314.032 90.241 311.896 87.0862 309.937 83.821L309.667 83.391C309.587 83.271 309.507 83.151 309.437 83.021V82.971L309.227 82.621L308.827 81.991L308.757 81.881L308.497 81.471L308.217 81.041C307.037 79.1711 306.127 77.751 305.437 76.731L305.127 76.291C305.017 76.1511 304.927 76.011 304.827 75.881C304.511 75.3654 304.101 74.9142 303.617 74.551C302.895 74.1782 302.222 73.7144 301.617 73.171C302.935 72.8589 304.203 72.3677 305.387 71.711C305.957 71.401 306.517 71.081 307.057 70.711L306.797 70.281L306.537 69.851C305.967 70.201 305.397 70.531 304.807 70.851C303.568 71.556 302.214 72.0367 300.807 72.271C300.605 72.3048 300.402 72.3281 300.197 72.341C299.994 72.356 299.79 72.356 299.587 72.341C297.667 72.251 295.587 71.341 294.837 69.411C294.615 68.8073 294.547 68.1579 294.637 67.521C294.709 66.9517 294.882 66.3997 295.147 65.891C295.232 65.7274 295.329 65.5702 295.437 65.421C295.536 65.2661 295.646 65.1191 295.767 64.981C296.037 64.6449 296.35 64.3457 296.697 64.091C297.487 63.5702 298.381 63.2288 299.317 63.091C300.354 62.927 301.412 62.9575 302.437 63.181C302.532 63.1952 302.625 63.2152 302.717 63.241L302.837 62.751L302.957 62.271C302.727 62.211 302.507 62.171 302.277 62.131C302.177 61.601 302.057 61.071 301.907 60.541C301.907 60.341 301.787 60.131 301.727 59.931C301.325 58.6322 300.789 57.3788 300.127 56.191C300.047 56.041 299.957 55.891 299.867 55.751C299.777 55.611 299.697 55.451 299.607 55.311C298.273 53.166 296.53 51.3041 294.477 49.831C294.797 50.061 307.077 41.511 311.397 37.901C315.237 39.311 318.487 42.521 321.727 46.001C322.907 47.261 324.097 48.591 325.187 50.001C325.347 50.191 325.497 50.391 325.647 50.581C325.797 50.771 325.767 50.761 325.877 50.911V50.931ZM537.667 140.301C545.667 139.671 551.007 142.031 553.197 147.111C557.467 157.041 549.017 174.251 532.667 188.971C519.717 200.631 483.357 229.801 479.397 232.231L479.027 232.451V232.511L434.377 263.511C435.697 257.421 431.907 244.981 425.637 235.571C419.087 225.751 411.787 218.031 405.517 217.981C412.317 214.221 426.337 206.471 439.847 198.981C456.497 189.751 472.387 180.921 473.017 180.501L472.467 179.671C472.227 179.831 469.467 181.391 465.017 183.861L416.147 190.011C406.047 186.711 394.957 183.311 394.787 183.251L394.487 184.251C394.777 184.331 422.937 193.001 430.317 196.041C432.895 197.16 435.552 198.086 438.267 198.811L400.967 219.461L401.027 219.581C399.967 220.371 399.617 222.181 399.737 224.581L392.257 228.661C391.637 228.191 391.007 227.731 390.377 227.321L390.117 227.141L382.517 231.561L382.067 231.811L381.617 232.071L379.377 233.381C379.023 233.391 378.678 233.494 378.377 233.681C377.945 233.95 377.56 234.288 377.237 234.681L376.917 234.861L376.997 234.981C375.147 237.491 375.767 241.901 377.847 247.331C377.077 247.131 376.357 246.911 375.677 246.681C373.297 245.851 370.967 244.981 368.757 244.061C362.754 241.674 357.07 238.55 351.837 234.761C347.417 228.571 343.127 221.831 338.987 214.761C343.183 208.506 348.078 202.749 353.577 197.601L353.957 197.241L354.307 196.911L355.407 195.911C367.937 184.241 389.527 178.131 389.687 178.081C394.081 177.299 398.393 176.111 402.567 174.531C406.111 172.898 409.524 170.996 412.777 168.841L412.967 168.721C445.197 160.741 526.687 141.151 537.667 140.281V140.301ZM412.077 249.201C411.574 249.382 411.042 249.473 410.507 249.471C409.987 249.37 409.494 249.164 409.057 248.864C408.62 248.565 408.249 248.179 407.967 247.731C407.204 246.675 406.52 245.566 405.917 244.411L405.817 244.241C405.322 243.359 404.775 242.507 404.177 241.691C403.887 241.271 403.597 240.871 403.307 240.461C400.413 236.297 396.98 232.534 393.097 229.271L399.797 225.621L406.387 222.021C406.977 222.151 409.977 223.141 415.577 230.611C421.327 238.281 421.837 245.341 421.877 246.771L416.957 249.841L416.637 250.041L416.287 249.851L415.567 249.511L414.927 249.201C414.477 249.009 413.994 248.908 413.504 248.905C413.015 248.901 412.53 248.995 412.077 249.181V249.201ZM433.887 265.131L479.497 233.421L542.817 306.841L545.007 309.381C541.757 309.151 533.347 310.721 519.837 327.441C509.047 340.801 507.777 349.501 507.787 352.881L504.257 348.811L432.917 266.421C433.327 266.056 433.657 265.61 433.887 265.111V265.131Z" fill="#2B266D"/>
<path d="M522.267 342.871L527.137 349.461L529.458 352.611C530.734 349.343 532.438 346.259 534.527 343.441L535.267 342.371C535.927 341.371 536.557 340.511 537.097 339.671C538.923 336.963 541.125 334.528 543.637 332.441C544.417 331.761 545.167 331.141 545.847 330.581C547.797 328.991 549.477 327.581 549.357 326.811C549.205 325.439 549.444 324.052 550.047 322.811L549.047 321.811L542.857 315.421C541.467 316.001 535.397 318.811 529.127 326.131C524.417 331.681 522.587 341.341 522.267 342.871Z" fill="#FF5787"/>
<path d="M558.657 346.551C575.387 325.411 581.997 313.961 586.837 308.681C591.037 304.101 600.687 295.981 605.537 295.681C596.537 293.361 590.407 297.501 583.437 303.151C580.069 305.995 577.003 309.178 574.287 312.651C572.13 315.332 569.816 317.883 567.357 320.291C566.372 321.407 565.088 322.219 563.657 322.631C561.817 323.011 560.057 322.211 558.357 321.441C556.657 320.671 554.897 319.861 553.357 320.541C552.473 321 551.751 321.719 551.287 322.601C551.197 322.751 551.107 322.891 551.027 323.051C550.947 323.211 550.887 323.381 550.817 323.551C550.404 324.518 550.249 325.576 550.367 326.621C550.577 327.991 548.957 329.311 546.507 331.321C543.207 333.804 540.322 336.795 537.957 340.181C537.407 341.031 536.777 341.941 536.107 342.901C533.887 346.101 531.297 349.901 530.217 353.571C530.157 353.771 530.097 353.981 530.047 354.181C529.997 354.381 529.957 354.621 529.907 354.841C529.683 355.943 529.643 357.075 529.787 358.191C530.007 359.671 536.707 367.791 541.167 372.961C542.457 369.101 547.027 361.241 558.657 346.551Z" fill="#209982"/>
<path d="M607.587 296.351C607.599 296.108 607.569 295.864 607.497 295.631C607.458 295.498 607.388 295.376 607.292 295.275C607.196 295.174 607.078 295.097 606.948 295.051C596.048 291.711 588.717 297.641 582.827 302.411C579.409 305.298 576.296 308.529 573.537 312.051C571.401 314.7 569.114 317.224 566.688 319.611C565.831 320.589 564.72 321.309 563.477 321.691C561.957 322.011 560.417 321.311 558.787 320.571C556.887 319.701 554.928 318.811 552.958 319.661C551.958 320.151 551.126 320.927 550.567 321.891L549.407 320.691L543.177 314.271L542.877 314.371C542.587 314.481 535.727 316.981 528.427 325.491C523.107 331.691 521.337 342.491 521.267 342.911V343.121L526.367 350.021L529.167 353.811C528.751 355.293 528.639 356.844 528.837 358.371C529.077 359.961 536.257 368.901 540.837 374.221C540.73 374.525 540.69 374.85 540.721 375.171C540.752 375.492 540.853 375.803 541.017 376.081C541.751 376.862 542.734 377.36 543.797 377.491C544.033 377.764 544.306 378.003 544.607 378.201L544.907 378.301L545.117 378.071L545.688 377.491C548.057 377.191 551.327 375.711 555.597 371.651C559.867 367.591 569.797 355.241 579.597 342.421C587.47 333.53 594.73 324.115 601.327 314.241C601.853 313.268 602.323 312.266 602.737 311.241L603.827 309.671C603.827 309.671 610.767 299.361 607.587 296.351ZM529.907 354.881C529.907 354.661 529.997 354.441 530.047 354.221C530.097 354.001 530.157 353.811 530.217 353.611C531.297 349.891 533.887 346.141 536.107 342.941C536.777 341.941 537.408 341.071 537.958 340.221C540.322 336.835 543.207 333.844 546.507 331.361C548.957 329.361 550.577 328.031 550.367 326.661C550.249 325.616 550.404 324.558 550.817 323.591C550.887 323.421 550.947 323.251 551.027 323.091C551.107 322.931 551.197 322.791 551.287 322.641C551.751 321.759 552.473 321.04 553.357 320.581C554.917 319.901 556.597 320.671 558.357 321.481C560.117 322.291 561.817 323.051 563.657 322.671C565.088 322.259 566.372 321.447 567.357 320.331C569.816 317.923 572.13 315.372 574.287 312.691C577.003 309.218 580.069 306.035 583.438 303.191C590.438 297.541 596.527 293.401 605.537 295.721C600.687 295.981 591.037 304.101 586.837 308.721C581.997 314.001 575.387 325.451 558.657 346.591C547.027 361.281 542.457 369.141 541.147 373.041C536.687 367.871 529.987 359.751 529.767 358.271C529.618 357.142 529.659 355.996 529.887 354.881H529.907ZM542.907 315.431L549.097 321.821L550.097 322.821C549.494 324.062 549.255 325.449 549.407 326.821C549.527 327.621 547.847 329.001 545.897 330.591C545.217 331.151 544.468 331.771 543.688 332.451C541.176 334.538 538.973 336.973 537.147 339.681C536.607 340.521 535.977 341.431 535.317 342.381L534.577 343.451C532.488 346.269 530.783 349.353 529.507 352.621L527.188 349.471L522.317 342.881C522.587 341.351 524.467 331.691 529.217 326.151C535.437 318.821 541.507 316.011 542.897 315.431H542.907Z" fill="#2B266D"/>
<path d="M285.927 71.4609C289.497 76.8009 291.128 83.9409 291.448 88.4609C294.513 87.6703 297.521 86.6679 300.448 85.4609C300.158 84.5209 299.637 82.8209 299.337 81.7609C298.897 80.2209 294.937 74.7609 292.507 72.7609C290.557 71.1709 287.757 68.5709 286.737 67.6309C285.877 68.0909 284.977 68.5209 284.047 68.9409C284.347 69.2909 284.648 69.6609 284.948 70.0609C285.248 70.4609 285.587 70.9509 285.927 71.4609Z" fill="#FF5787"/>
<path d="M259.688 142.071H260.198C266.948 141.811 273.287 141.261 278.557 140.681C281.217 140.391 283.607 140.081 285.637 139.801C288.927 139.351 291.287 138.971 292.367 138.801L298.047 136.411L301.927 134.781L300.927 140.011L299.237 148.731L326.647 196.011L327.387 197.301L328.387 199.031L337.617 214.941C337.797 214.631 338.047 214.231 338.367 213.751C342.537 207.625 347.362 201.971 352.757 196.891L353.127 196.551L353.487 196.201L354.667 195.091C366.027 184.511 384.667 178.461 388.667 177.251C388.443 176.281 388.169 175.323 387.847 174.381C387.847 174.231 387.758 174.071 387.698 173.921L387.547 173.461C384.427 164.871 377.737 157.321 371.747 150.571C368.948 147.539 366.311 144.362 363.847 141.051C360.227 135.931 356.908 130.121 353.698 124.501C349.698 117.431 345.477 110.111 340.597 103.981C339.157 102.171 337.167 100.041 334.597 99.6711L334.737 98.6711C337.647 99.0911 339.817 101.391 341.377 103.351C346.297 109.541 350.497 116.891 354.557 124.001C357.747 129.591 361.057 135.381 364.657 140.471C367.099 143.744 369.709 146.889 372.477 149.891C378.557 156.741 385.337 164.391 388.477 173.201C388.537 173.351 388.577 173.511 388.627 173.661C388.677 173.811 388.737 173.971 388.787 174.121C389.087 175.061 389.367 176.011 389.587 176.971C393.862 176.209 398.057 175.051 402.117 173.511C404.796 172.303 407.389 170.913 409.877 169.351L411.227 168.511L411.857 168.111C411.857 168.031 411.807 167.951 411.777 167.861C411.137 165.991 408.417 160.781 407.357 158.631C405.867 155.631 400.687 146.181 400.617 146.091V146.021L381.438 108.161L376.438 100.221L377.297 99.7011L381.677 106.641C385.767 100.891 422.947 47.6411 415.907 25.3911C394.477 31.1411 361.267 46.1911 339.837 53.5411C340.377 54.0611 340.937 54.6311 341.537 55.2611C343.147 56.9611 345.467 61.6511 346.717 65.7811L381.417 58.9211L383.617 58.3811C382.937 58.7711 380.217 60.7411 379.097 61.3811C372.207 65.6011 357.877 74.3811 347.877 75.6911C346.096 76.0177 344.381 76.6324 342.797 77.5111C342.072 77.9325 341.3 78.2681 340.497 78.5111C340.637 78.6311 340.787 78.7611 340.917 78.8911C344.917 82.7311 345.217 88.9511 344.997 94.5211H343.997C344.217 88.9011 343.907 83.2111 340.217 79.6411C338.454 77.9362 336.275 76.7227 333.897 76.1211C333.279 76.0028 332.655 75.9193 332.027 75.8711C331.351 75.859 330.676 75.95 330.027 76.1411C330.117 76.4111 330.197 76.6711 330.317 76.9511C330.835 78.1234 331.444 79.2535 332.137 80.3311C333.337 82.3311 334.567 84.3311 334.787 86.4811C335.177 90.3311 333.107 93.4811 329.097 95.2411C327.148 96.0494 325.058 96.464 322.948 96.4611C319.898 96.4611 317.117 95.5911 315.717 93.9611C313.377 90.8853 311.208 87.6839 309.217 84.3711C307.341 85.3085 305.588 86.474 303.997 87.8411C303.151 88.6006 302.47 89.5266 301.997 90.5611C301.852 90.9067 301.633 91.2171 301.357 91.4711C300.948 92.4175 300.743 93.44 300.757 94.4711C300.82 95.5221 301.1 96.5487 301.578 97.4865C302.057 98.4244 302.723 99.2532 303.537 99.9211C304.885 101.004 306.372 101.902 307.958 102.591C308.592 102.851 309.244 103.068 309.907 103.241C313.816 104.127 317.81 104.576 321.817 104.581C323.657 104.661 325.557 104.731 327.427 104.891L327.337 105.891C325.497 105.731 323.607 105.651 321.777 105.581C320.527 105.581 319.257 105.481 317.987 105.411C314.521 106.304 311 106.972 307.448 107.411C305.648 107.611 303.137 107.681 301.127 107.721C300.47 107.524 299.822 107.294 299.188 107.031C296.163 105.812 293.693 103.524 292.247 100.601C287.197 102.281 267.567 113.011 258.517 118.021L252.977 122.021L252.387 121.221L290.387 92.3511C290.686 91.5502 290.782 90.6881 290.667 89.8411C290.667 89.6811 290.667 89.5111 290.667 89.3311C290.667 89.1511 290.667 89.0011 290.667 88.8211C290.367 84.6111 288.867 77.5311 285.247 72.1111C284.907 71.6211 284.587 71.1711 284.247 70.7511L284.198 70.6911C282.888 71.3711 281.517 72.0911 280.097 72.8711C255.737 86.1611 216.667 112.511 203.417 127.871L203.477 127.951C212.887 140.211 236.737 142.501 255.077 142.241C256.277 142.241 257.467 142.241 258.637 142.161H259.317L259.688 142.071ZM342.967 96.9111C347.607 98.4911 353.877 104.911 356.647 108.681C358.137 110.681 359.107 111.961 359.977 113.061C361.771 115.296 363.406 117.656 364.867 120.121L363.167 121.121C361.746 118.721 360.156 116.425 358.407 114.251C357.567 113.191 356.537 111.881 355.027 109.801C352.377 106.151 346.317 100.111 342.327 98.7511L342.967 96.9111ZM337.827 179.601C337.827 179.811 337.737 180.011 337.677 180.221C337.617 180.431 337.567 180.621 337.517 180.831C336.727 183.831 335.797 186.721 334.737 189.601C334.667 189.801 334.597 190.001 334.517 190.201L334.267 190.861C333.977 191.621 333.687 192.371 333.377 193.121L332.458 192.741C332.648 192.271 332.827 191.801 333.007 191.331L333.267 190.671L333.507 190.061C334.767 186.711 335.849 183.296 336.747 179.831L336.897 179.201C336.957 178.991 337.007 178.781 337.057 178.581C337.975 174.844 338.68 171.058 339.167 167.241L340.167 167.371C339.644 171.493 338.862 175.577 337.827 179.601ZM330.587 106.421C332.897 112.591 337.118 118.831 341.198 124.861C342.488 126.771 343.707 128.571 344.847 130.351L343.167 131.431C342.037 129.671 340.827 127.881 339.547 125.991C335.397 119.861 331.107 113.521 328.717 107.121L330.587 106.421Z" fill="#FBC63C"/>
<path d="M414.277 22.011C410.857 16.741 379.077 26.761 329.167 48.831C331.897 48.501 334.437 48.3909 339.737 53.4909C361.167 46.1409 394.377 31.091 415.807 25.341C415.442 24.1701 414.928 23.0509 414.277 22.011Z" fill="white"/>
<path d="M279.967 72.781C281.387 72.001 282.757 71.281 284.067 70.601C283.737 70.161 283.407 69.751 283.067 69.361L282.717 68.961L282.357 68.571C280.817 66.941 279.357 65.981 278.007 66.401C276.992 66.7427 276.037 67.2421 275.177 67.881L275.027 68.021C243.737 87.131 198.187 117.791 200.967 123.961C201.587 125.332 202.362 126.627 203.277 127.821C216.587 112.421 255.587 86.071 279.967 72.781Z" fill="white"/>
<path d="M330.377 64.011C330.227 64.831 330.067 65.621 329.917 66.381C329.432 68.3168 329.186 70.3051 329.188 72.301L336.887 70.301L342.227 68.921L342.777 68.781H342.948C342.948 68.611 342.867 68.381 342.817 68.131C342.347 65.741 341.038 60.001 338.708 56.671C338.169 55.9105 337.574 55.1918 336.927 54.521C335.365 52.9072 333.551 51.5565 331.557 50.521L327.767 51.181L327.297 51.261L327.708 51.871C328.177 52.5837 328.608 53.3215 328.997 54.081C330.376 56.5549 330.956 59.3947 330.657 62.211C330.587 62.771 330.477 63.381 330.377 64.011Z" fill="#FF5787"/>
<path d="M337.057 178.581C337.057 178.781 336.957 178.991 336.897 179.201L336.747 179.831C335.849 183.296 334.767 186.711 333.507 190.061L333.267 190.671L333.007 191.331C332.827 191.801 332.648 192.271 332.458 192.741L333.377 193.121C333.687 192.371 333.977 191.621 334.267 190.861L334.517 190.201C334.597 190.001 334.667 189.801 334.737 189.601C335.797 186.721 336.737 183.791 337.517 180.831C337.567 180.621 337.627 180.421 337.677 180.221C337.727 180.021 337.777 179.811 337.827 179.601C338.859 175.577 339.637 171.492 340.157 167.371L339.157 167.241C338.673 171.058 337.972 174.844 337.057 178.581Z" fill="#2B266D"/>
<path d="M355.027 109.851C356.537 111.931 357.567 113.241 358.407 114.301C360.156 116.475 361.746 118.77 363.167 121.171L364.867 120.171C363.406 117.705 361.771 115.346 359.977 113.111C359.107 112.011 358.137 110.771 356.647 108.731C353.877 104.921 347.647 98.5409 342.967 96.9609L342.327 98.851C346.317 100.161 352.377 106.201 355.027 109.851Z" fill="white"/>
<path d="M343.177 131.431L344.857 130.351C343.717 128.571 342.498 126.771 341.208 124.861C337.128 118.861 332.907 112.591 330.597 106.421L328.727 107.121C331.117 113.521 335.407 119.861 339.557 125.991C340.837 127.881 342.047 129.671 343.177 131.431Z" fill="white"/>
<path d="M416.287 249.831L416.637 250.021L416.958 249.821L421.877 246.751C421.877 245.321 421.327 238.261 415.577 230.591C409.977 223.121 406.977 222.131 406.387 222.001L399.797 225.601L393.097 229.251C396.98 232.514 400.413 236.277 403.307 240.441C403.597 240.851 403.887 241.251 404.177 241.671C404.775 242.487 405.323 243.339 405.817 244.221L405.917 244.391C406.52 245.546 407.205 246.655 407.967 247.711C408.249 248.159 408.62 248.545 409.057 248.844C409.494 249.144 409.987 249.35 410.507 249.451C411.042 249.453 411.574 249.362 412.077 249.181C412.529 248.992 413.013 248.895 413.502 248.895C413.992 248.895 414.476 248.992 414.927 249.181L415.567 249.491L416.287 249.831Z" fill="#FF5787"/>
<path d="M413.017 256.701C413.327 256.231 414.257 255.101 417.797 252.051C417.463 251.71 417.083 251.417 416.667 251.181C416.507 251.081 416.337 250.991 416.167 250.901L416.057 250.841L415.647 250.631L415.137 250.391H415.077L414.487 250.111C414.144 249.98 413.779 249.917 413.411 249.928C413.044 249.938 412.683 250.021 412.347 250.171C411.971 250.288 411.587 250.378 411.198 250.441C410.945 250.462 410.69 250.462 410.438 250.441H410.177C409.708 250.367 409.258 250.197 408.857 249.941C408.197 249.52 407.624 248.977 407.167 248.341C407.077 248.231 407.007 248.111 406.927 248.001C406.237 247.006 405.605 245.971 405.037 244.901L404.948 244.731C404.206 243.47 403.395 242.251 402.517 241.081C399.593 236.861 396.1 233.065 392.137 229.801L391.717 229.461L391.277 229.141C390.867 228.841 390.467 228.551 390.057 228.271L382.767 232.501L382.317 232.761L381.867 233.021L380.787 233.651C381.33 233.92 381.838 234.256 382.297 234.651C382.517 234.831 382.747 235.031 382.967 235.251C383.187 235.471 383.427 235.711 383.667 235.961C387.267 239.841 390.967 246.891 392.487 249.381V249.471L392.747 249.901L393.077 250.431C405.207 270.021 420.597 291.881 423.637 299.241C426.307 305.741 427.987 309.921 425.787 312.921C426.377 312.301 427.077 310.991 427.547 308.191C428.627 301.721 427.207 297.481 424.107 288.191C423.487 286.341 422.797 284.291 422.057 281.991C420.172 276.317 417.982 270.749 415.497 265.311C413.277 260.311 412.307 258.001 412.837 256.951C412.917 256.881 412.947 256.811 413.017 256.701Z" fill="#209982"/>
<path d="M321.587 45.9111C318.347 42.4311 315.097 39.221 311.257 37.811C306.937 41.421 294.657 49.971 294.337 49.741C296.39 51.2141 298.133 53.0761 299.467 55.2211C299.557 55.3611 299.637 55.5111 299.727 55.6611C299.817 55.8111 299.907 55.9511 299.987 56.1011C300.649 57.2888 301.185 58.5423 301.587 59.8411C301.647 60.0411 301.717 60.251 301.767 60.451C301.917 60.9811 302.037 61.5111 302.137 62.0411C302.367 62.0411 302.587 62.121 302.817 62.181L302.698 62.6611L302.577 63.1511C302.485 63.1253 302.392 63.1052 302.297 63.0911C301.272 62.8676 300.214 62.837 299.177 63.001C298.242 63.1388 297.347 63.4802 296.557 64.001C296.21 64.2557 295.897 64.5549 295.627 64.8911C295.506 65.0291 295.396 65.1762 295.297 65.3311C295.189 65.4803 295.092 65.6374 295.007 65.801C294.742 66.3097 294.569 66.8617 294.497 67.431C294.407 68.0679 294.476 68.7173 294.698 69.321C295.418 71.201 297.528 72.161 299.448 72.251C299.651 72.266 299.854 72.266 300.057 72.251C300.262 72.2381 300.465 72.2148 300.667 72.181C302.074 71.9467 303.428 71.466 304.667 70.761C305.257 70.451 305.827 70.121 306.397 69.761L306.657 70.191L306.917 70.621C306.377 70.951 305.817 71.271 305.247 71.621C304.063 72.2777 302.795 72.769 301.477 73.0811C302.082 73.6245 302.754 74.0883 303.477 74.4611C303.961 74.8242 304.372 75.2755 304.688 75.7911C304.788 75.9211 304.877 76.0611 304.987 76.201L305.297 76.6411C305.987 77.6411 306.897 79.0811 308.077 80.951L308.357 81.381L308.617 81.7911L308.688 81.9011L309.087 82.5311L309.297 82.881V82.931C309.367 83.061 309.447 83.181 309.527 83.301L309.797 83.731C311.756 86.9962 313.892 90.151 316.198 93.181C318.248 95.571 324.067 96.051 328.417 94.181C330.527 93.281 333.977 91.071 333.507 86.441C333.317 84.541 332.137 82.5911 330.997 80.7111C330.276 79.5858 329.644 78.4054 329.107 77.181C328.921 76.7196 328.757 76.249 328.617 75.7711C328.567 75.6011 328.527 75.4411 328.477 75.2811C328.427 75.1211 328.397 74.9511 328.367 74.7911C328.262 74.3489 328.178 73.9016 328.117 73.451L328.057 72.951C328.057 72.7811 328.057 72.611 328.057 72.441C328.021 70.2943 328.27 68.1523 328.797 66.071C329.007 65.071 329.227 63.9411 329.407 62.7811L329.527 61.931C330.007 58.121 328.397 54.5611 326.077 51.2911L325.737 50.8411C325.627 50.6911 325.527 50.5411 325.407 50.3911C325.287 50.2411 325.108 50.001 324.948 49.811C323.998 48.501 322.807 47.1711 321.587 45.9111ZM313.688 44.0811C314.165 43.5997 314.779 43.2771 315.447 43.1572C316.114 43.0373 316.802 43.126 317.417 43.4111C318.552 43.9681 319.47 44.8861 320.027 46.0211L319.157 46.501C318.698 45.5649 317.947 44.8033 317.017 44.3311C316.597 44.1282 316.124 44.0588 315.663 44.1321C315.202 44.2054 314.774 44.4178 314.438 44.741C314.192 45.0731 314.035 45.4624 313.983 45.872C313.93 46.2816 313.984 46.6978 314.137 47.0811C314.501 47.9431 315.031 48.7248 315.698 49.381L314.958 50.051C314.198 49.2995 313.599 48.4013 313.198 47.4111C312.984 46.8587 312.92 46.2595 313.013 45.6745C313.106 45.0895 313.352 44.5397 313.727 44.0811H313.688ZM308.587 46.011C309.165 46.4257 309.71 46.8837 310.217 47.381C311.217 48.271 312.677 49.6411 315.927 52.1611L316.458 52.5811L316.997 52.991L318.807 54.361C319.415 54.7042 319.874 55.2598 320.097 55.921C320.149 56.1818 320.137 56.4511 320.064 56.7066C319.991 56.9621 319.859 57.1967 319.677 57.3911C319.454 57.6369 319.183 57.8339 318.88 57.9698C318.577 58.1058 318.249 58.1777 317.917 58.181H317.737L317.827 57.181C318.033 57.1942 318.239 57.1605 318.429 57.0826C318.62 57.0046 318.79 56.8844 318.927 56.731C319.006 56.6563 319.064 56.5632 319.097 56.4601C319.13 56.3571 319.137 56.2474 319.117 56.1411C319.047 55.7911 318.657 55.511 318.287 55.231C317.287 54.501 316.437 53.841 315.657 53.231L315.127 52.821L314.597 52.4011C311.797 50.2011 310.447 48.951 309.537 48.131C309.066 47.6678 308.561 47.24 308.027 46.8511L308.587 46.011ZM317.007 64.1411L316.537 64.301C316.379 64.3628 316.215 64.4096 316.047 64.441C315.83 64.4988 315.61 64.5422 315.387 64.571C315.132 64.6026 314.875 64.6193 314.617 64.621C314.302 64.6191 313.988 64.5924 313.677 64.5411C313.408 64.5032 313.141 64.4497 312.877 64.381C312.5 64.2792 312.132 64.1454 311.777 63.981L311.317 63.761L310.897 63.491C310.458 63.2076 310.055 62.8718 309.698 62.491L310.057 62.1511L310.427 61.811L310.698 62.071C310.885 62.2418 311.082 62.4021 311.287 62.551C311.427 62.651 311.577 62.7411 311.727 62.8311L312.167 63.061C312.873 63.3922 313.638 63.5792 314.417 63.611C314.707 63.631 314.998 63.631 315.287 63.611H315.517C315.737 63.5719 315.955 63.5185 316.167 63.451L316.688 63.2811C317.787 62.8279 318.722 62.0499 319.367 61.051C319.437 60.941 319.507 60.841 319.567 60.731L320.007 60.9711L320.448 61.2111C319.672 62.5386 318.47 63.5644 317.037 64.121L317.007 64.1411ZM305.057 51.201C305.535 50.7201 306.15 50.3985 306.818 50.2804C307.486 50.1623 308.173 50.2533 308.787 50.5411C309.86 51.0656 310.738 51.9162 311.297 52.9711C311.33 53.03 311.367 53.0867 311.407 53.1411L310.567 53.611C310.479 53.4527 310.382 53.2992 310.277 53.1511C309.842 52.4177 309.203 51.827 308.438 51.451C308.018 51.2469 307.546 51.1759 307.085 51.2474C306.624 51.3189 306.196 51.5295 305.857 51.8511C305.635 52.1532 305.488 52.5042 305.429 52.8748C305.37 53.2453 305.4 53.6246 305.517 53.981C305.513 54.0509 305.513 54.1211 305.517 54.191C305.517 54.291 305.597 54.3711 305.637 54.4611C305.704 54.6225 305.781 54.7794 305.867 54.931C306.072 55.2811 306.303 55.6154 306.557 55.931L306.897 56.321L307.077 56.5211L306.337 57.201L306.047 56.871C305.937 56.751 305.827 56.621 305.727 56.491C305.382 56.0752 305.083 55.6225 304.837 55.1411C304.757 54.9891 304.687 54.832 304.627 54.671C304.623 54.6311 304.623 54.5909 304.627 54.551C304.627 54.431 304.547 54.311 304.517 54.191C304.487 54.071 304.517 54.191 304.517 54.121C304.513 54.0511 304.513 53.981 304.517 53.9111C304.402 53.4424 304.393 52.9537 304.491 52.4811C304.59 52.0086 304.794 51.5642 305.087 51.181L305.057 51.201Z" fill="#FF5787"/>
<path d="M320.448 61.1211L320.007 60.8811L319.567 60.6411C319.507 60.7511 319.437 60.8511 319.367 60.9611C318.722 61.96 317.787 62.738 316.688 63.1911L316.167 63.3611C315.955 63.4285 315.737 63.482 315.517 63.5211H315.287C314.998 63.5411 314.707 63.5411 314.417 63.5211C313.638 63.4893 312.873 63.3023 312.167 62.9711L311.727 62.7411C311.577 62.6511 311.427 62.5611 311.287 62.4611C311.082 62.3122 310.885 62.1519 310.698 61.9811L310.427 61.7211L310.057 62.0611L309.698 62.4011C310.055 62.7819 310.458 63.1177 310.897 63.4011L311.317 63.6711L311.777 63.8911C312.132 64.0555 312.5 64.1893 312.877 64.2911C313.141 64.3598 313.408 64.4132 313.677 64.4511C313.988 64.5024 314.302 64.5292 314.617 64.5311C314.875 64.5294 315.132 64.5127 315.387 64.4811C315.61 64.4522 315.83 64.4089 316.047 64.3511C316.215 64.3197 316.379 64.2729 316.537 64.2111L317.007 64.0511C318.454 63.4951 319.668 62.4613 320.448 61.1211Z" fill="#2B266D"/>
<path d="M314.587 52.371L315.117 52.791L315.647 53.201C316.427 53.811 317.297 54.471 318.277 55.201C318.647 55.481 319.037 55.761 319.107 56.111C319.127 56.2173 319.12 56.3271 319.087 56.4301C319.054 56.5331 318.996 56.6262 318.917 56.701C318.78 56.8544 318.61 56.9745 318.419 57.0525C318.229 57.1304 318.023 57.1641 317.817 57.151L317.727 58.151H317.907C318.239 58.1476 318.567 58.0757 318.87 57.9398C319.173 57.8038 319.444 57.6068 319.667 57.361C319.849 57.1666 319.981 56.9321 320.054 56.6765C320.127 56.421 320.139 56.1518 320.087 55.891C319.864 55.2297 319.405 54.6742 318.797 54.331L316.987 52.961L316.448 52.551L315.917 52.131C312.667 49.611 311.178 48.241 310.208 47.351C309.702 46.8644 309.16 46.4164 308.587 46.011L308.027 46.841C308.561 47.2299 309.066 47.6577 309.537 48.121C310.477 48.921 311.827 50.171 314.587 52.371Z" fill="#2B266D"/>
<path d="M314.997 50.011L315.737 49.341C315.071 48.6847 314.541 47.9031 314.178 47.041C314.024 46.6578 313.971 46.2415 314.023 45.832C314.076 45.4224 314.232 45.033 314.477 44.701C314.814 44.3778 315.242 44.1652 315.703 44.092C316.164 44.0187 316.637 44.0882 317.057 44.291C317.987 44.7633 318.738 45.5248 319.198 46.461L320.067 45.9809C319.51 44.846 318.593 43.928 317.458 43.371C316.842 43.0859 316.154 42.9973 315.487 43.1172C314.819 43.2371 314.205 43.5596 313.727 44.041C313.359 44.5035 313.12 45.0551 313.034 45.6399C312.948 46.2248 313.018 46.822 313.237 47.371C313.639 48.3612 314.238 49.2594 314.997 50.011Z" fill="#2B266D"/>
<path d="M304.477 54.081C304.477 54.081 304.477 54.081 304.477 54.151C304.477 54.221 304.547 54.391 304.587 54.511C304.583 54.5509 304.583 54.591 304.587 54.631C304.647 54.792 304.717 54.949 304.797 55.101C305.043 55.5824 305.342 56.0351 305.687 56.451C305.787 56.581 305.897 56.711 306.007 56.831L306.297 57.161L307.037 56.4809L306.857 56.281L306.517 55.891C306.263 55.5753 306.032 55.241 305.827 54.891C305.741 54.7394 305.664 54.5823 305.597 54.4209C305.597 54.3309 305.517 54.251 305.477 54.151C305.473 54.0811 305.473 54.0109 305.477 53.9409C305.36 53.5846 305.329 53.2052 305.389 52.8346C305.448 52.4641 305.595 52.113 305.817 51.8109C306.155 51.4894 306.584 51.2787 307.045 51.2072C307.506 51.1358 307.978 51.2069 308.397 51.411C309.163 51.7869 309.802 52.3776 310.237 53.1109C310.342 53.2591 310.439 53.4126 310.527 53.571L311.367 53.101C311.327 53.0467 311.29 52.9898 311.257 52.9309C310.698 51.8761 309.82 51.0254 308.747 50.5009C308.133 50.2132 307.445 50.1221 306.778 50.2403C306.11 50.3584 305.495 50.68 305.017 51.161C304.716 51.5328 304.501 51.9672 304.389 52.4326C304.276 52.8979 304.269 53.3825 304.367 53.851C304.398 53.9305 304.434 54.0074 304.477 54.081Z" fill="#2B266D"/>
</svg>
