<svg width="800" height="400" viewBox="0 0 800 400" fill="none" xmlns="http://www.w3.org/2000/svg">
<path d="M340.65 48.5801C340.697 48.196 340.667 47.8065 340.562 47.4341C340.457 47.0616 340.28 46.7137 340.04 46.4101C339.682 45.9518 339.196 45.6105 338.643 45.4294C338.09 45.2484 337.496 45.2357 336.937 45.3933C336.377 45.5509 335.877 45.8716 335.5 46.3144C335.123 46.7573 334.886 47.3024 334.82 47.8801L334.5 50.5801L340.32 51.28L340.65 48.5801Z" fill="white"/>
<path d="M341.37 51.4303L347.19 52.1202L347.52 49.4203C347.566 48.6706 347.324 47.9316 346.842 47.3551C346.361 46.7786 345.677 46.408 344.931 46.3197C344.185 46.2314 343.434 46.432 342.831 46.8802C342.229 47.3285 341.82 47.9903 341.69 48.7301L341.37 51.4303Z" fill="white"/>
<path d="M348.23 52.71L353.95 53.4002L354.22 51.1802C354.252 50.9187 354.309 50.6608 354.39 50.4102C354.386 49.6709 354.102 48.9605 353.596 48.4217C353.089 47.8829 352.398 47.5555 351.661 47.5049C350.923 47.4543 350.194 47.6843 349.619 48.149C349.044 48.6136 348.665 49.2783 348.56 50.0101L348.23 52.71Z" fill="white"/>
<path d="M354.89 54H355L360.71 54.6902L361.04 51.99C361.085 51.6076 361.055 51.22 360.95 50.8494C360.845 50.4788 360.669 50.1324 360.43 49.8301C360.189 49.5201 359.888 49.2627 359.544 49.0735C359.2 48.8844 358.821 48.7674 358.43 48.73C357.778 48.6549 357.12 48.8003 356.56 49.1429C356 49.4854 355.57 50.0054 355.34 50.6201C355.259 50.8365 355.202 51.0612 355.17 51.2901L354.89 54Z" fill="white"/>
<path d="M329.05 83.8501C331.69 79.2501 338.62 75.26 342.76 73.49C343.41 73.21 344.04 72.97 344.65 72.74L345.55 72.3901L326.74 71.71L323.32 83.4102L329.05 83.8501Z" fill="white"/>
<path d="M360.05 60.5802C359.56 59.2002 358.21 57.8201 356.65 57.9901C355.09 58.1601 354.06 59.7801 353.65 61.5101C353.65 61.6801 353.58 61.8401 353.55 62.0101C353.52 62.1801 353.5 62.3401 353.48 62.5001C353.486 62.5231 353.486 62.5472 353.48 62.5702C353.139 64.9703 352.323 67.2785 351.08 69.3602C350.328 70.7161 349.185 71.8138 347.8 72.5101C346.898 72.973 345.966 73.3739 345.01 73.7101C344.42 73.9401 343.8 74.1803 343.16 74.4503C338.7 76.3603 332.71 80.0401 330.16 83.9801L352.39 85.6903C352.53 85.3203 352.67 84.9502 352.82 84.5902C353.22 83.5902 353.63 82.5902 354.04 81.6402C354.45 80.6902 354.82 79.8501 355.2 79.0001C355.58 78.1501 355.82 77.5903 356.12 76.9203C356.75 75.5103 357.35 74.1603 357.9 72.9203C359.002 70.6039 359.783 68.1478 360.22 65.6202C360.53 63.9478 360.472 62.2279 360.05 60.5802Z" fill="white"/>
<path d="M314.56 141.69C319.89 147.26 332.35 149.87 345.06 151.02C347.34 149.95 351.76 147.82 355.9 145.54C358.9 143.9 363.75 139.7 367.9 135.87C373.978 129.144 380.59 122.921 387.67 117.26L343.77 121.26C343.689 121.268 343.607 121.256 343.532 121.224C343.457 121.193 343.391 121.143 343.34 121.08C343.289 121.018 343.254 120.945 343.236 120.867C343.219 120.789 343.22 120.708 343.24 120.63L351.7 90.4402L351.83 90V89.9502L352.74 86.7002H352.49H352.27H351.97L329.58 84.98H329.04H328.5L322.98 84.55H322.47H321.96H321.84C320.11 88.33 302.5 129.08 314.56 141.69Z" fill="#5A51E7"/>
<path d="M419.51 100.44C418.51 93.4402 417.81 86.9102 419.03 84.4402C419.67 83.1202 420.38 81.8501 421.03 80.6301L421.36 80.03C419.774 79.9275 418.232 79.4661 416.85 78.6802L417.09 78.25L417.33 77.8101C418.724 78.6089 420.303 79.0294 421.91 79.03C422.106 79.0449 422.304 79.0449 422.5 79.03C422.705 79.0072 422.909 78.974 423.11 78.9302C423.867 78.7799 424.581 78.4644 425.201 78.0063C425.822 77.5483 426.334 76.9587 426.7 76.28C427.082 75.5287 427.205 74.6722 427.049 73.8438C426.894 73.0153 426.469 72.2618 425.84 71.7002C425.799 71.6759 425.759 71.6491 425.72 71.6201C425.567 71.5118 425.407 71.4149 425.24 71.3301C425.09 71.2501 424.92 71.1901 424.75 71.1201L424.26 70.9302C423.412 70.6661 422.528 70.5344 421.64 70.54C421.452 70.5883 421.268 70.6518 421.09 70.73C419.275 71.5042 417.526 72.4239 415.86 73.48C414.17 74.55 412.92 75.5301 411.65 76.3501C410.2 77.2901 412.32 65.45 410.71 63.71C408.84 61.71 404.18 60.9401 401.2 58.1501C400.339 59.0028 399.583 59.9562 398.95 60.99C398.58 61.6 398.23 62.2401 397.88 62.8701C396.73 64.9501 395.54 67.1002 393.52 68.4502L392.84 68.8701C392.402 69.1055 391.993 69.3906 391.62 69.72C391.387 69.9093 391.208 70.1575 391.103 70.4387C390.998 70.7199 390.969 71.0241 391.02 71.3201C391.151 71.6325 391.349 71.9124 391.6 72.1401C392.448 73.0094 393.41 73.7595 394.46 74.3701L394.7 74.51C395.523 74.7982 396.208 75.384 396.621 76.1521C397.034 76.9202 397.144 77.8149 396.93 78.6602V79.0901C396.871 80.4608 397.121 81.8274 397.663 83.0879C398.205 84.3484 399.024 85.4703 400.06 86.3701C400.36 86.6301 400.68 86.8701 400.99 87.1101C402.153 87.8377 403.089 88.8771 403.69 90.1101C404.3 91.6701 402.69 96.3401 400.69 101.11C409.59 100.49 415.87 100.28 419.51 100.44ZM400.33 67.02C400.1 67.0361 399.87 66.9827 399.671 66.8665C399.472 66.7502 399.312 66.5766 399.212 66.3684C399.113 66.1602 399.078 65.9268 399.113 65.6987C399.148 65.4706 399.251 65.2585 399.408 65.0896C399.565 64.9207 399.77 64.803 399.995 64.7517C400.22 64.7005 400.455 64.7181 400.67 64.8022C400.885 64.8864 401.069 65.0332 401.199 65.2236C401.33 65.4141 401.4 65.6394 401.4 65.8701C401.405 66.0159 401.382 66.1614 401.331 66.2981C401.28 66.4348 401.203 66.5602 401.103 66.667C401.004 66.7738 400.885 66.8598 400.752 66.9204C400.619 66.981 400.476 67.0149 400.33 67.02Z" fill="white"/>
<path d="M400.33 67.02C400.921 67.02 401.4 66.5052 401.4 65.8701C401.4 65.235 400.921 64.72 400.33 64.72C399.739 64.72 399.26 65.235 399.26 65.8701C399.26 66.5052 399.739 67.02 400.33 67.02Z" fill="#2B266D"/>
<path d="M219.44 299.11L229.26 299.93C242.471 291.96 257.611 287.755 273.04 287.77C275.12 287.77 277.19 287.847 279.25 288C283.181 288.285 287.087 288.843 290.94 289.67L291.48 283.93L280.15 282.46L247.91 278.28C246.824 279.895 245.23 281.102 243.38 281.71C241.9 282.21 240.3 282.71 238.6 283.15C232.26 284.97 225.07 287.03 222.36 291.55C219.65 296.07 219.44 298.28 219.44 299.11Z" fill="#7169EA"/>
<path d="M248.48 277.34L280.31 281.47L291.58 282.93L292.07 282.99L292.57 283.06L295.14 283.39L303.14 226.89L303.71 227.07C303.91 227.14 310.34 229.22 319.71 232.07C325.19 233.75 331.71 235.7 338.51 237.67C339.76 236.73 341.02 235.82 342.31 234.92C361.061 221.812 383.097 214.193 405.94 212.92C396.74 207.83 388.09 203.14 383.61 200.92C375.02 196.71 355.72 188.65 355.53 188.57C355.464 188.543 355.405 188.502 355.357 188.451C355.309 188.399 355.272 188.337 355.25 188.27C355.244 188.244 355.244 188.217 355.25 188.19C318.91 178.26 283.75 170.33 274.47 173.81C255.6 180.89 249.35 260.24 248.33 275.24C248.33 275.83 248.26 276.33 248.24 276.72C248.232 276.887 248.232 277.053 248.24 277.22L248.48 277.34Z" fill="#FF5787"/>
<path d="M384.04 200.11C388.75 202.42 398.04 207.49 407.81 212.87C409.56 212.8 411.31 212.75 413.07 212.75C420.065 212.757 427.046 213.356 433.94 214.54L434.39 211.88C434.39 211.71 434.45 211.54 434.47 211.37L434.56 210.86C435 208.17 435.48 205.16 435.93 202.07C435.21 196.46 434.43 190.45 433.63 184.38C431.53 180.29 425.76 169.03 422.89 163.29C420.653 158.759 418.726 154.081 417.12 149.29L418.61 149.92L418.76 150.4C418.86 150.365 418.97 150.365 419.07 150.4C419.4 150.52 424.75 152.59 430.37 159.93L430.99 160.75L431.18 161.03C431.32 161.23 431.47 161.43 431.61 161.64C434.594 166.024 436.951 170.803 438.61 175.84C439.82 179.4 438.53 191.21 436.95 202.01L436.68 203.83L436.41 205.63C436.11 207.57 435.81 209.43 435.52 211.17C435.52 211.34 435.46 211.51 435.44 211.68L435.35 212.18C435.2 213.06 435.06 213.91 434.92 214.71C434.92 214.87 434.87 215.02 434.84 215.18L434.75 215.7C434.26 218.51 433.87 220.62 433.69 221.56L434.83 221.85L435.38 221.99L435.94 222.13L438.6 222.81L439.12 222.94L439.64 223.07L443.48 224.07L444.06 224.22L444.53 224.34L451.28 226.05L463.8 229.23L464.3 229.36L464.79 229.49L465.52 229.67C465.63 228.98 465.82 227.67 466.06 225.81C466.06 225.64 466.06 225.48 466.13 225.31V225.23L466.19 224.76C467.95 211.3 471.76 176.48 466.64 161.1C464.1 153.5 458.1 144.47 451.11 136.17C441.02 124.17 428.9 113.73 422.22 111.32L421.71 111.13L421.18 110.98C420.113 110.697 419.032 110.474 417.94 110.31L417.5 110.24H416.39H413.21L407 110.31L397.84 110.42C397.65 110.57 397.47 110.72 397.28 110.89L395.43 112.44L394.43 113.23L393.86 113.69C392.99 114.4 392.04 115.15 391.03 115.92L390.28 116.49L390.2 116.55L389.54 117.06C384.859 120.759 380.367 124.691 376.08 128.84C369.73 134.96 363.95 141.46 363.48 144.7C363.331 147.098 363.598 149.504 364.27 151.81C364.27 151.98 364.36 152.16 364.4 152.33C364.44 152.5 364.49 152.68 364.54 152.86C364.536 152.9 364.536 152.94 364.54 152.98C365.68 157.016 367.08 160.974 368.73 164.83C368.762 164.899 368.779 164.974 368.779 165.05C368.779 165.126 368.762 165.201 368.73 165.27L356.63 187.58L356.41 187.97L357.19 188.29L360.9 189.87C367.27 192.58 378.15 197.23 384.04 200.11Z" fill="#5A51E7"/>
<path d="M518.92 252.92C514.362 252.923 509.81 253.258 505.3 253.92C509.293 258.751 512.554 264.142 514.98 269.92C517.586 275.938 519.099 282.372 519.45 288.92H518.45C518.101 282.492 516.611 276.176 514.05 270.27C511.582 264.348 508.208 258.846 504.05 253.96L503.92 253.82C496.292 245.454 487.542 238.185 477.92 232.22C473.392 237.76 467.412 241.932 460.65 244.27C457.02 245.53 453.1 246.27 449.99 248.54C448.18 249.85 446.74 251.6 444.99 253.04C443.24 254.48 441.15 255.64 438.92 255.41C436.69 255.18 434.61 253.06 435.1 250.88L435.29 250.55C435.191 249.937 435.191 249.313 435.29 248.7C434.594 249.272 433.797 249.71 432.94 249.99C432.202 250.241 431.403 250.253 430.658 250.023C429.912 249.793 429.259 249.333 428.79 248.71C428.516 248.24 428.36 247.711 428.336 247.167C428.311 246.624 428.419 246.083 428.65 245.59C428.085 245.97 427.464 246.26 426.81 246.45C425.12 246.91 422.93 246.35 422.18 244.62C422.048 244.303 421.98 243.963 421.98 243.62C421.97 243.454 421.97 243.287 421.98 243.12C422.008 242.872 422.062 242.627 422.14 242.39C422.14 242.25 422.22 242.11 422.27 241.97L422.16 242.05C421.691 242.449 421.126 242.719 420.521 242.833C419.916 242.947 419.292 242.901 418.71 242.7C418.215 242.453 417.798 242.074 417.505 241.604C417.212 241.135 417.055 240.593 417.05 240.04C417.042 239.035 417.29 238.044 417.77 237.16C419.668 233.524 422.716 230.619 426.44 228.9C427.841 228.27 429.181 227.51 430.44 226.63C430.59 226.52 430.72 226.4 430.86 226.29C431 226.18 431.13 226.07 431.27 225.94C432.153 225.1 432.935 224.161 433.6 223.14C433.72 222.95 433.85 222.78 433.99 222.6L432.87 222.32C432.801 222.303 432.737 222.27 432.681 222.225C432.626 222.18 432.581 222.124 432.55 222.06C432.521 221.997 432.505 221.929 432.505 221.86C432.505 221.791 432.521 221.723 432.55 221.66C432.65 221.24 433.1 218.87 433.7 215.43C426.863 214.249 419.938 213.654 413 213.65C411.82 213.65 410.63 213.65 409.45 213.72H408.45H407.45C384.238 214.7 361.788 222.287 342.74 235.59C341.67 236.33 340.63 237.1 339.59 237.87L339.07 238.25L338.59 238.62C332.414 243.314 326.692 248.577 321.5 254.34C311.661 265.277 303.871 277.894 298.5 291.59C302.051 293.029 305.426 294.867 308.56 297.07C316.872 303.052 323.41 311.173 327.48 320.57L326.57 320.98C322.555 311.809 316.174 303.871 308.08 297.98C304.827 295.685 301.308 293.791 297.6 292.34C295.66 291.74 293.69 291.22 291.71 290.76L291.22 290.66L290.73 290.56C286.856 289.717 282.925 289.152 278.97 288.87C276.97 288.73 274.97 288.65 272.97 288.65C258.217 288.644 243.726 292.547 230.97 299.96L230.21 300.4C229.96 300.54 229.7 300.68 229.45 300.84C217.16 308.287 206.982 318.759 199.887 331.256C192.792 343.753 189.016 357.86 188.92 372.23H611.52V345.58C611.496 321.023 601.735 297.477 584.376 280.107C567.017 262.737 543.477 252.96 518.92 252.92Z" fill="#C5F6E6"/>
<path d="M518.92 251.92C514.099 251.921 509.285 252.289 504.52 253.02L504.23 252.71C493.7 241.297 481.118 231.965 467.14 225.2C468.88 211.92 472.82 176.45 467.58 160.75C465.06 153.17 459.4 144.46 452.75 136.41C458.86 137.35 465.21 137.41 470.65 140.29C475.56 142.85 479.13 147.29 483.11 151.17C492.2 159.94 505.18 165.85 517.46 162.8C517.823 162.738 518.165 162.591 518.46 162.37C518.815 161.977 519.03 161.478 519.07 160.95C519.641 157.75 519.959 154.51 520.02 151.26H521.02C524.652 151.282 528.256 150.632 531.65 149.34C532.185 149.203 532.65 148.875 532.96 148.418C533.269 147.962 533.401 147.407 533.33 146.86C533.619 141.363 533.182 135.852 532.03 130.47L531.93 130.02L531.47 130.08C524.12 131.15 515.78 132.37 508.41 129.43C504.3 127.79 500.69 124.9 497.19 122.11C492.85 118.64 488.36 115.05 482.86 113.82C478.63 112.82 474.23 113.43 469.98 113.97C465.73 114.51 461.06 115.1 456.83 113.97C452.41 112.79 448.74 109.97 444.75 106.62C441.5 103.92 431.45 96.6201 422.95 100.89C422.18 100.612 421.369 100.463 420.55 100.45C419.55 93.7302 418.84 87.0901 419.95 84.8101C420.58 83.5101 421.28 82.26 421.95 81.05L422.58 79.9202H422.69C423.731 79.8204 424.731 79.4663 425.603 78.8892C426.475 78.312 427.192 77.5293 427.69 76.6101C427.69 76.6101 427.69 76.54 427.69 76.51C430.02 74.11 432.17 69.79 431.79 63.77C431.688 62.3675 431.285 61.0034 430.61 59.77C434.681 59.2407 438.416 57.2339 441.104 54.1309C443.792 51.0279 445.246 47.0452 445.19 42.9402C445.19 33.5902 437.86 26 428.82 26C419.78 26 412.46 33.5902 412.46 42.9402C412.455 45.8054 413.163 48.6269 414.52 51.1501C409.249 51.3152 404.234 53.4571 400.47 57.1501L400.56 57.24C399.634 58.156 398.822 59.1801 398.14 60.29C397.76 60.91 397.41 61.56 397.05 62.21C395.91 64.27 394.84 66.2102 393.05 67.4402L392.42 67.8301C391.919 68.1121 391.449 68.4474 391.02 68.8301C390.647 69.1475 390.368 69.5623 390.217 70.0283C390.065 70.4944 390.045 70.9934 390.16 71.47C390.332 71.931 390.609 72.3456 390.97 72.6802C391.881 73.6113 392.914 74.4151 394.04 75.0701L394.29 75.22C394.615 75.3151 394.917 75.4736 395.18 75.6863C395.443 75.899 395.661 76.1619 395.822 76.4595C395.983 76.757 396.083 77.0834 396.117 77.4199C396.151 77.7565 396.118 78.0965 396.02 78.4202V78.8801C395.955 80.4035 396.233 81.9218 396.836 83.3225C397.438 84.7232 398.349 85.9699 399.5 86.97C399.81 87.24 400.14 87.49 400.5 87.75C401.513 88.3739 402.336 89.2626 402.88 90.3201C403.36 91.5801 401.83 96 399.68 101.04L398.68 101.11H398.34L395.67 109.78C395.35 110.45 395.02 111.09 394.67 111.72C393.21 112.93 391.59 114.25 389.67 115.67L389.23 116.01L344.51 120.07L353.99 86.25C354.009 86.179 354.012 86.1049 354 86.0325C353.988 85.9601 353.961 85.8912 353.92 85.8301C353.849 85.7359 353.746 85.6717 353.63 85.6501L353.86 84.72C354.94 82.05 356.06 79.5402 357.11 77.1802C357.82 75.6002 358.47 74.18 359.05 72.77L375.5 73.3701C376.271 73.4013 377.025 73.1339 377.604 72.6235C378.183 72.1132 378.544 71.3993 378.61 70.6301L378.76 69.05L381.03 69.6802C381.437 69.7947 381.865 69.8185 382.282 69.7502C382.7 69.682 383.098 69.5231 383.447 69.2849C383.797 69.0467 384.09 68.735 384.307 68.3713C384.523 68.0077 384.657 67.6012 384.7 67.1802L384.9 65.1802C384.94 64.7594 384.888 64.3349 384.748 63.9363C384.608 63.5376 384.382 63.1742 384.087 62.8716C383.792 62.5689 383.434 62.3344 383.04 62.1838C382.645 62.0333 382.222 61.9705 381.8 62L379.41 62.1802L379.53 60.8401C379.61 60.07 379.39 59.2986 378.915 58.6873C378.439 58.0759 377.746 57.672 376.98 57.5601L361.72 55.1401L362.09 52.02C362.191 51.1859 362.022 50.3415 361.608 49.6104C361.194 48.8792 360.557 48.3 359.79 47.9578C359.022 47.6155 358.165 47.5281 357.345 47.7085C356.524 47.8889 355.783 48.3274 355.23 48.96C354.999 48.2921 354.592 47.6994 354.051 47.2446C353.51 46.7899 352.856 46.4903 352.159 46.3774C351.461 46.2646 350.746 46.3427 350.09 46.6038C349.433 46.8648 348.86 47.2991 348.43 47.8601C348.227 47.1432 347.824 46.499 347.268 46.0034C346.712 45.5079 346.026 45.1817 345.29 45.063C344.555 44.9443 343.801 45.0379 343.117 45.3333C342.433 45.6286 341.848 46.1132 341.43 46.73C341.292 46.3694 341.1 46.0322 340.86 45.73C340.378 45.115 339.723 44.6577 338.98 44.4165C338.237 44.1753 337.439 44.1611 336.687 44.3757C335.936 44.5904 335.266 45.0244 334.762 45.6218C334.258 46.2193 333.944 46.9531 333.86 47.73L333.5 50.73L270.18 40.6602C269.98 40.8398 269.808 41.0488 269.67 41.28C268.56 41.28 267.53 42.6301 266.59 45.3501C265.604 48.4697 264.97 51.6898 264.7 54.9502C264.04 61.9502 264.64 69.1201 267.09 69.3501H267.22C267.277 69.3549 267.333 69.3549 267.39 69.3501L267.47 69.54L325.74 71.6602L322.34 83.3301L321.66 83.27C321.557 83.2635 321.455 83.2875 321.366 83.3391C321.277 83.3907 321.205 83.4677 321.16 83.5601C317.721 91.381 314.847 99.4384 312.56 107.67C307.9 124.92 308.34 136.6 313.87 142.37C320.4 149.2 336.74 151.73 351.68 152.54C355.48 152.85 359.95 153.11 363.58 153.04C364.718 157.13 366.127 161.139 367.8 165.04L355.66 187.29C319.15 177.29 283.73 169.36 274.13 172.96C265.13 176.34 257.85 195.03 252.52 228.5C248.71 252.42 247.31 275.71 247.2 277.58C246.232 279.079 244.782 280.204 243.09 280.77C241.64 281.25 240.04 281.71 238.35 282.19C231.83 284.06 224.45 286.19 221.53 291.04C217.92 297.04 218.53 299.59 218.53 299.7C218.554 299.801 218.609 299.892 218.688 299.958C218.768 300.025 218.867 300.064 218.97 300.07L227.89 300.82C215.692 308.466 205.634 319.082 198.657 331.674C191.681 344.267 188.014 358.424 188 372.82V373.32H612.6V345.58C612.576 320.744 602.698 296.932 585.134 279.372C567.57 261.812 543.756 251.939 518.92 251.92ZM266.98 68.3201C265.92 67.6901 264.98 62.6101 265.67 55.0801C265.933 51.898 266.55 48.7551 267.51 45.71C267.797 44.7824 268.207 43.8979 268.73 43.0801C269.12 42.5001 269.44 42.3 269.63 42.3C270.75 42.4 271.88 47.6401 271.12 55.6001C270.857 58.7822 270.24 61.9249 269.28 64.97C268.33 67.74 267.49 68.4101 267.13 68.3901C267.077 68.3731 267.027 68.3495 266.98 68.3201ZM611.56 372.32H188.96C189.056 357.95 192.831 343.843 199.926 331.346C207.021 318.849 217.199 308.377 229.49 300.93C229.74 300.77 230 300.63 230.25 300.49L231.01 300.05C243.765 292.637 258.257 288.734 273.01 288.74C275.01 288.74 277.01 288.82 279.01 288.96C282.983 289.249 286.93 289.824 290.82 290.68L291.31 290.78L291.8 290.88C293.8 291.34 295.75 291.88 297.69 292.46C301.398 293.911 304.916 295.805 308.17 298.1C316.264 303.992 322.645 311.93 326.66 321.1L327.57 320.69C323.5 311.293 316.962 303.172 308.65 297.19C305.516 294.987 302.141 293.149 298.59 291.71C303.96 278.014 311.751 265.397 321.59 254.46C326.782 248.697 332.504 243.433 338.68 238.74L339.16 238.37L339.68 237.99C340.68 237.22 341.76 236.45 342.83 235.71C361.878 222.407 384.328 214.82 407.54 213.84H408.54H409.54C410.72 213.84 411.91 213.77 413.09 213.77C420.039 213.782 426.974 214.387 433.82 215.58C433.22 219.02 432.77 221.39 432.67 221.81C432.641 221.873 432.625 221.941 432.625 222.01C432.625 222.079 432.641 222.147 432.67 222.21C432.701 222.274 432.746 222.331 432.801 222.375C432.857 222.42 432.921 222.452 432.99 222.47L434.11 222.75C433.97 222.93 433.84 223.1 433.72 223.29C433.054 224.311 432.273 225.25 431.39 226.09C431.25 226.22 431.12 226.32 430.98 226.44C430.84 226.56 430.71 226.67 430.56 226.78C429.3 227.66 427.961 228.42 426.56 229.05C422.836 230.769 419.787 233.674 417.89 237.31C417.41 238.193 417.162 239.185 417.17 240.19C417.174 240.744 417.332 241.285 417.625 241.754C417.918 242.224 418.335 242.603 418.83 242.85C419.412 243.051 420.036 243.097 420.641 242.983C421.246 242.869 421.811 242.599 422.28 242.2L422.39 242.12C422.34 242.26 422.3 242.4 422.26 242.54C422.182 242.777 422.128 243.022 422.1 243.27C422.09 243.437 422.09 243.604 422.1 243.77C422.1 244.113 422.168 244.453 422.3 244.77C423.05 246.5 425.24 247.06 426.93 246.6C427.584 246.41 428.205 246.12 428.77 245.74C428.539 246.233 428.431 246.774 428.455 247.317C428.48 247.861 428.636 248.39 428.91 248.86C429.379 249.484 430.032 249.943 430.777 250.173C431.523 250.403 432.322 250.391 433.06 250.14C433.917 249.86 434.714 249.422 435.41 248.85C435.311 249.463 435.311 250.088 435.41 250.7L435.22 251.03C434.73 253.21 436.82 255.33 439.04 255.56C441.26 255.79 443.41 254.63 445.11 253.19C446.81 251.75 448.26 250 450.11 248.69C453.22 246.43 457.11 245.69 460.77 244.42C467.532 242.082 473.511 237.91 478.04 232.37C487.662 238.335 496.412 245.604 504.04 253.97L504.17 254.11C508.328 258.996 511.702 264.498 514.17 270.42C516.731 276.327 518.221 282.642 518.57 289.07H519.57C519.219 282.522 517.706 276.088 515.1 270.07C512.674 264.292 509.413 258.901 505.42 254.07C509.93 253.408 514.482 253.073 519.04 253.07C543.557 253.131 567.053 262.897 584.391 280.232C601.728 297.568 611.497 321.063 611.56 345.58V372.32ZM238.56 283.12C240.26 282.64 241.86 282.18 243.34 281.68C245.19 281.073 246.784 279.865 247.87 278.25L280.11 282.43L291.44 283.9L290.9 289.64C287.047 288.813 283.141 288.255 279.21 287.97C277.15 287.817 275.08 287.74 273 287.74C257.571 287.725 242.431 291.93 229.22 299.9L219.4 299.08C219.4 298.25 219.7 295.89 222.32 291.52C224.94 287.15 232.26 284.97 238.6 283.15L238.56 283.12ZM248.27 275.3C249.27 260.3 255.54 180.95 274.41 173.87C283.69 170.39 318.85 178.32 355.19 188.25C355.184 188.276 355.184 188.304 355.19 188.33C355.212 188.397 355.249 188.459 355.297 188.511C355.345 188.563 355.404 188.603 355.47 188.63C355.66 188.71 374.96 196.77 383.55 200.98C388.03 203.17 396.68 207.86 405.88 212.98C383.037 214.253 361.001 221.872 342.25 234.98C340.96 235.88 339.7 236.79 338.45 237.73C331.61 235.73 325.13 233.81 319.65 232.13C310.29 229.26 303.86 227.13 303.65 227.13L303.08 226.95L295.08 283.45L292.51 283.12L292.01 283.05L291.52 282.99L280.25 281.53L248.42 277.4H248.13C248.121 277.234 248.121 277.067 248.13 276.9C248.24 276.42 248.27 275.92 248.31 275.33L248.27 275.3ZM356.37 187.92L356.59 187.53L368.72 165.27C368.752 165.201 368.769 165.126 368.769 165.05C368.769 164.974 368.752 164.899 368.72 164.83C367.07 160.974 365.67 157.016 364.53 152.98C364.526 152.94 364.526 152.9 364.53 152.86C364.48 152.68 364.44 152.5 364.39 152.33C364.34 152.16 364.31 151.98 364.26 151.81C363.588 149.504 363.321 147.098 363.47 144.7C363.94 141.46 369.72 134.96 376.07 128.84C380.357 124.691 384.849 120.759 389.53 117.06L390.19 116.55L390.27 116.49L391.02 115.92C392.02 115.15 393.02 114.4 393.85 113.69L394.42 113.23L395.42 112.44L397.27 110.89C397.46 110.72 397.64 110.57 397.83 110.42L406.99 110.31L413.2 110.24H416.38H417.49L417.93 110.31C419.021 110.474 420.103 110.697 421.17 110.98L421.7 111.13L422.21 111.32C428.89 113.73 441.01 124.18 451.1 136.17C458.1 144.47 464.1 153.5 466.63 161.1C471.75 176.48 467.94 211.3 466.18 224.76L466.12 225.23V225.31C466.12 225.48 466.12 225.64 466.05 225.81C465.81 227.64 465.62 228.98 465.51 229.67L464.78 229.49L464.29 229.36L463.79 229.23L451.27 226.05L444.52 224.34L444.05 224.22L443.47 224.07L439.63 223.07L439.11 222.94L438.59 222.81L435.93 222.13L435.37 221.99L434.82 221.85L433.68 221.56C433.86 220.62 434.25 218.51 434.74 215.7L434.83 215.18C434.83 215.02 434.89 214.87 434.91 214.71C435.05 213.91 435.19 213.06 435.34 212.18L435.43 211.68C435.43 211.51 435.43 211.34 435.51 211.17C435.8 209.43 436.1 207.57 436.4 205.63L436.67 203.83L436.94 202.01C438.52 191.21 439.81 179.4 438.6 175.84C436.941 170.803 434.584 166.024 431.6 161.64C431.46 161.43 431.31 161.23 431.17 161.03L430.98 160.75L430.36 159.93C424.74 152.59 419.36 150.52 419.06 150.4C418.96 150.365 418.85 150.365 418.75 150.4L418.6 149.92L417.11 149.29C418.715 154.081 420.643 158.759 422.88 163.29C425.75 169.03 431.52 180.29 433.62 184.38C434.42 190.45 435.2 196.46 435.92 202.07C435.47 205.16 434.99 208.17 434.55 210.86L434.46 211.37C434.46 211.54 434.46 211.71 434.38 211.88L433.93 214.54C427.036 213.356 420.055 212.757 413.06 212.75C411.3 212.75 409.55 212.75 407.8 212.87C398.07 207.49 388.74 202.42 384.03 200.11C378.14 197.23 367.26 192.55 360.89 189.85L357.18 188.27L356.37 187.92ZM322.02 84.3201H322.53H323.04L328.56 84.75H329.1H329.64L352.03 86.47H352.33H352.55H352.8L351.89 89.72V89.77L351.76 90.21L343.29 120.58C343.27 120.658 343.269 120.739 343.286 120.817C343.304 120.895 343.339 120.968 343.39 121.03C343.441 121.093 343.507 121.143 343.582 121.175C343.657 121.206 343.739 121.218 343.82 121.21L387.72 117.21C380.64 122.871 374.028 129.094 367.95 135.82C363.75 139.65 358.88 143.82 355.95 145.49C351.81 147.77 347.39 149.9 345.11 150.97C332.4 149.82 319.94 147.21 314.61 141.64C302.55 129.03 320.16 88.28 321.95 84.26L322.02 84.3201ZM334.82 47.8701C334.847 47.4719 334.954 47.0833 335.136 46.728C335.318 46.3727 335.57 46.0579 335.877 45.8032C336.184 45.5485 336.54 45.3591 336.923 45.2463C337.306 45.1336 337.708 45.1001 338.104 45.1477C338.5 45.1953 338.883 45.323 339.228 45.5232C339.573 45.7233 339.874 45.9916 340.112 46.3118C340.35 46.632 340.521 46.9975 340.613 47.3857C340.706 47.774 340.718 48.1769 340.65 48.5701L340.32 51.27L334.5 50.5701L334.82 47.8701ZM344.95 46.1602C345.723 46.2528 346.427 46.648 346.909 47.259C347.39 47.8701 347.61 48.6473 347.52 49.4202L347.19 52.1201L341.37 51.4302L341.69 48.73C341.783 47.9574 342.178 47.2532 342.789 46.7715C343.4 46.2897 344.177 46.0699 344.95 46.1602ZM351.82 47.4502C352.545 47.5396 353.211 47.8969 353.687 48.4519C354.162 49.0069 354.413 49.7197 354.39 50.4502C354.309 50.7008 354.252 50.9584 354.22 51.22L353.95 53.4402L348.23 52.75L348.56 50.05C348.601 49.6643 348.718 49.2905 348.905 48.9504C349.091 48.6103 349.343 48.3107 349.647 48.0688C349.95 47.827 350.298 47.6477 350.671 47.5415C351.044 47.4353 351.435 47.4043 351.82 47.4502ZM358.47 48.74C358.861 48.7774 359.24 48.8943 359.584 49.0835C359.928 49.2727 360.229 49.5301 360.47 49.8401C360.709 50.1424 360.885 50.4887 360.99 50.8594C361.095 51.23 361.125 51.6175 361.08 52L360.75 54.7002L355.04 54.01H354.93L355.25 51.3101C355.282 51.0812 355.339 50.8565 355.42 50.6401C355.647 50.0308 356.069 49.5137 356.621 49.1699C357.173 48.8261 357.823 48.6749 358.47 48.74ZM356.14 76.8801C355.84 77.5501 355.53 78.24 355.22 78.96C354.91 79.68 354.45 80.6901 354.06 81.6001C353.67 82.5101 353.24 83.5401 352.84 84.55C352.69 84.91 352.55 85.2801 352.41 85.6501L330.18 83.9402C332.7 80.0002 338.69 76.3202 343.18 74.4102C343.82 74.1402 344.44 73.9002 345.03 73.6702C345.986 73.334 346.918 72.9329 347.82 72.47C349.205 71.7736 350.348 70.676 351.1 69.3201C352.343 67.2384 353.158 64.9302 353.5 62.53C353.506 62.507 353.506 62.483 353.5 62.46C353.5 62.3 353.55 62.13 353.57 61.97C353.59 61.81 353.64 61.64 353.67 61.47C354.08 59.74 355.08 58.1102 356.67 57.9502C358.26 57.7902 359.58 59.16 360.07 60.54C360.493 62.1736 360.557 63.8791 360.26 65.54C359.823 68.0676 359.042 70.5237 357.94 72.8401C357.37 74.1201 356.82 75.4701 356.14 76.8801ZM345.55 72.3901L344.65 72.74C344.04 72.97 343.41 73.21 342.76 73.49C338.62 75.26 331.69 79.2501 329.05 83.8501L323.32 83.4102L326.74 71.71L345.55 72.3901ZM398.61 103.39L398.98 102.19H399.15H399.7H400.27C407.78 101.71 415.59 101.4 419.65 101.5H420.16H420.67C421.15 101.5 421.54 101.57 421.84 101.61C422.021 101.633 422.199 101.676 422.37 101.74C422.37 101.74 422.37 101.74 422.37 101.79V101.85C422.43 101.99 422.49 102.15 422.56 102.33C423.26 104.27 424.19 108.39 423.88 109.21H421.83H418.83H417.56H415.15H413.97H411.37H409H406.68L399.02 109.3H396.74L397.51 106.78L398.61 103.39ZM403.72 90.0701C403.118 88.8371 402.183 87.7977 401.02 87.0701C400.71 86.8301 400.39 86.5901 400.09 86.3301C399.054 85.4302 398.235 84.3083 397.693 83.0479C397.151 81.7874 396.901 80.4208 396.96 79.05V78.6201C397.174 77.7748 397.064 76.8801 396.651 76.1121C396.238 75.344 395.553 74.7581 394.73 74.47L394.49 74.3301C393.44 73.7195 392.478 72.9693 391.63 72.1001C391.379 71.8724 391.181 71.5924 391.05 71.28C390.999 70.9841 391.027 70.6799 391.133 70.3987C391.238 70.1175 391.417 69.8695 391.65 69.6802C392.023 69.3508 392.432 69.0654 392.87 68.8301L393.55 68.4102C395.55 67.0602 396.76 64.9101 397.91 62.8301C398.26 62.2001 398.61 61.5602 398.98 60.9502C399.613 59.9164 400.368 58.9628 401.23 58.1101C404.23 60.9001 408.87 61.6602 410.74 63.6702C412.35 65.4102 410.23 77.2501 411.68 76.3101C412.95 75.4901 414.2 74.5102 415.89 73.4402C417.556 72.3841 419.305 71.4644 421.12 70.6902C421.298 70.612 421.482 70.5483 421.67 70.5C422.558 70.4944 423.442 70.6261 424.29 70.8901L424.78 71.0801C424.95 71.1501 425.12 71.21 425.27 71.29C425.437 71.3748 425.597 71.4718 425.75 71.5801C425.788 71.609 425.828 71.6358 425.87 71.6602C426.499 72.2217 426.924 72.9753 427.079 73.8037C427.235 74.6321 427.112 75.4887 426.73 76.24C426.364 76.9187 425.852 77.5082 425.231 77.9663C424.611 78.4244 423.897 78.7399 423.14 78.8901C422.939 78.9339 422.735 78.9672 422.53 78.99C422.334 79.0049 422.136 79.0049 421.94 78.99C420.333 78.9894 418.754 78.5688 417.36 77.77L417.12 78.21L416.88 78.6401C418.262 79.426 419.804 79.8875 421.39 79.99L421.06 80.5901C420.37 81.8101 419.66 83.0801 419.06 84.4001C417.84 86.9001 418.52 93.4701 419.54 100.4C415.9 100.24 409.62 100.4 400.74 101.02C402.72 96.28 404.33 91.58 403.72 90.05V90.0701ZM444.09 107.45C448.18 110.85 451.93 113.76 456.55 115C460.98 116.18 465.61 115.59 470.08 115C474.25 114.47 478.56 113.92 482.62 114.83C487.9 116.02 492.1 119.38 496.55 122.93C500.1 125.77 503.77 128.7 508.02 130.4C515.48 133.4 524.1 132.2 531.12 131.18C532.191 136.33 532.591 141.597 532.31 146.85C532.331 147.265 532.227 147.676 532.01 148.03C531.796 148.221 531.544 148.365 531.27 148.45C527.675 149.798 523.846 150.413 520.01 150.26C512.18 150.03 503.84 146.95 496.23 141.26C495.15 140.45 494.09 139.61 493.03 138.76C489.76 136.14 486.38 133.43 482.38 131.95C478.38 130.47 474.16 130.32 469.98 130.32H468.29C464.546 130.483 460.795 130.221 457.11 129.54C450.24 127.99 444.4 123.54 438.75 119.2C437.89 118.54 437.03 117.88 436.17 117.2C432.396 114.32 428.265 111.94 423.88 110.12H424.05C424.191 110.119 424.33 110.082 424.453 110.012C424.575 109.942 424.678 109.841 424.75 109.72C425.47 108.55 424.25 103.98 423.55 101.97C423.55 101.9 423.5 101.82 423.48 101.76C431.46 97.87 441 104.86 444.09 107.43V107.45ZM319.82 233.17C325.04 234.76 331.13 236.59 337.56 238.45C331.81 242.872 326.456 247.788 321.56 253.14C320.99 247.01 320.38 239.98 319.82 233.17ZM431.96 163.99C434.334 167.812 436.25 171.9 437.67 176.17C438.67 179.17 437.8 188.73 436.49 198.34C435.03 187.27 433.42 174.97 431.93 163.99H431.96ZM436.41 248.93C436.488 248.484 436.595 248.043 436.73 247.61C437.37 246.72 438.03 245.83 438.73 244.95L439.18 244.37C440.76 242.286 442.546 240.367 444.51 238.64C445.17 238.066 445.875 237.548 446.62 237.09C447.027 236.839 447.455 236.625 447.9 236.45L447.55 235.51C446.195 236.085 444.947 236.887 443.86 237.88C443.36 238.3 442.86 238.76 442.39 239.23C440.012 241.652 437.844 244.271 435.91 247.06C435.023 247.935 433.964 248.616 432.8 249.06C432.273 249.24 431.703 249.255 431.167 249.104C430.631 248.952 430.154 248.64 429.8 248.21C429.19 247.21 429.56 245.83 430.88 244.05C431.37 243.47 431.88 242.8 432.33 242.15L432.9 241.38C433.22 240.95 433.54 240.53 433.9 240.16C435.658 237.914 437.757 235.957 440.12 234.36C440.591 234.063 441.083 233.799 441.59 233.57L441.39 233.11L441.18 232.66C438 234.07 435.66 236.59 433.18 239.51C432.65 240.13 432.11 240.86 431.6 241.51C431.23 242.02 430.86 242.51 430.48 243C429.46 244.1 428.196 244.946 426.79 245.47C425.54 245.82 423.87 245.47 423.34 244.21C423.216 243.853 423.188 243.471 423.26 243.1C423.298 242.907 423.348 242.717 423.41 242.53C423.516 242.225 423.65 241.93 423.81 241.65C423.986 241.329 424.187 241.021 424.41 240.73C424.88 240.13 425.41 239.55 425.89 238.98C428.349 236.27 431.276 234.024 434.53 232.35C435.21 232 435.9 231.67 436.6 231.35L436.22 230.43C431.774 232.312 427.819 235.189 424.66 238.84C424.416 239.073 424.185 239.32 423.97 239.58C423.42 240.06 422.73 240.58 422.18 240.93L421.81 241.19C421.478 241.483 421.078 241.687 420.646 241.783C420.214 241.879 419.765 241.864 419.34 241.74C419.014 241.569 418.742 241.311 418.553 240.996C418.364 240.68 418.266 240.318 418.27 239.95C418.265 239.11 418.479 238.283 418.89 237.55C420.697 234.12 423.582 231.38 427.1 229.75C428.69 229.043 430.196 228.161 431.59 227.12L431.99 226.77L432.38 226.42C433.22 225.58 433.971 224.655 434.62 223.66C434.81 223.38 435.03 223.1 435.25 222.83L438.81 223.74L439.33 223.87L439.85 224L442.92 224.78L443.5 224.93L443.97 225.05L450.73 226.76L463.83 230.09C463.599 231.835 462.911 233.488 461.837 234.882C460.762 236.276 459.339 237.362 457.71 238.03C457.22 238.25 456.71 238.5 456.2 238.74C455.032 239.34 453.822 239.855 452.58 240.28C450.088 240.984 447.799 242.27 445.9 244.03C444.793 245.14 443.789 246.349 442.9 247.64C442.32 248.44 441.72 249.27 441.08 250.03C439.98 251.33 438.27 252.36 437.08 251.55C436.38 251.21 436.15 250.29 436.38 248.93H436.41Z" fill="#2B266D"/>
<path d="M441.01 250.17C441.65 249.41 442.25 248.58 442.83 247.78C443.719 246.489 444.723 245.281 445.83 244.17C447.729 242.41 450.018 241.125 452.51 240.42C453.752 239.995 454.962 239.48 456.13 238.88C456.64 238.64 457.13 238.39 457.64 238.17C459.269 237.502 460.692 236.417 461.767 235.022C462.841 233.628 463.529 231.975 463.76 230.23L450.66 226.9L443.9 225.19L443.43 225.07L442.85 224.92L439.78 224.14L439.26 224.01L438.74 223.88L435.18 222.97C434.96 223.24 434.74 223.52 434.55 223.8C433.901 224.795 433.15 225.72 432.31 226.56L431.92 226.91L431.52 227.26C430.126 228.3 428.62 229.183 427.03 229.89C423.512 231.52 420.627 234.26 418.82 237.69C418.409 238.423 418.195 239.25 418.2 240.09C418.196 240.458 418.294 240.82 418.483 241.135C418.672 241.451 418.944 241.709 419.27 241.88C419.695 242.004 420.144 242.019 420.576 241.923C421.008 241.827 421.408 241.623 421.74 241.33L422.11 241.07C422.66 240.68 423.35 240.2 423.9 239.72C424.115 239.46 424.346 239.213 424.59 238.98C427.741 235.336 431.686 232.463 436.12 230.58L436.5 231.5C435.8 231.8 435.11 232.13 434.43 232.5C431.176 234.174 428.249 236.42 425.79 239.13C425.28 239.7 424.79 240.28 424.31 240.88C424.087 241.171 423.886 241.479 423.71 241.8C423.55 242.08 423.416 242.375 423.31 242.68C423.248 242.867 423.198 243.057 423.16 243.25C423.088 243.621 423.116 244.004 423.24 244.36C423.77 245.58 425.44 245.97 426.69 245.62C428.096 245.096 429.36 244.25 430.38 243.15C430.76 242.68 431.13 242.15 431.5 241.66C432.01 240.96 432.55 240.23 433.08 239.66C435.59 236.74 437.93 234.22 441.08 232.81L441.29 233.26L441.49 233.72C440.982 233.949 440.491 234.213 440.02 234.51C437.657 236.107 435.558 238.064 433.8 240.31C433.49 240.68 433.17 241.1 432.8 241.53L432.23 242.3C431.76 242.95 431.23 243.62 430.78 244.2C429.46 245.98 429.09 247.38 429.7 248.36C430.054 248.79 430.531 249.102 431.067 249.253C431.603 249.405 432.173 249.39 432.7 249.21C433.864 248.766 434.923 248.085 435.81 247.21C437.744 244.421 439.912 241.802 442.29 239.38C442.77 238.91 443.29 238.45 443.76 238.03C444.847 237.037 446.095 236.235 447.45 235.66L447.8 236.6C447.355 236.775 446.927 236.989 446.52 237.24C445.775 237.698 445.07 238.216 444.41 238.79C442.446 240.517 440.66 242.436 439.08 244.52L438.63 245.1C437.95 245.98 437.29 246.87 436.63 247.76C436.495 248.193 436.388 248.634 436.31 249.08C436.08 250.44 436.31 251.36 436.98 251.84C438.2 252.5 439.91 251.47 441.01 250.17Z" fill="white"/>
<path d="M423.55 102C424.25 104 425.47 108.58 424.75 109.75C424.678 109.871 424.575 109.972 424.453 110.042C424.33 110.112 424.191 110.149 424.05 110.15H423.88C428.265 111.97 432.396 114.349 436.17 117.23C437.03 117.87 437.89 118.53 438.75 119.23C444.4 123.55 450.24 128.02 457.11 129.57C460.795 130.251 464.546 130.513 468.29 130.35H469.98C474.16 130.35 478.42 130.5 482.38 131.98C486.34 133.46 489.76 136.17 493.03 138.79C494.09 139.64 495.15 140.48 496.23 141.29C503.84 146.99 512.23 150.07 520.01 150.29C523.846 150.443 527.675 149.828 531.27 148.48C531.544 148.395 531.796 148.252 532.01 148.06C532.227 147.706 532.331 147.295 532.31 146.88C532.591 141.627 532.191 136.36 531.12 131.21C524.12 132.21 515.48 133.4 508.02 130.43C503.77 128.73 500.1 125.8 496.55 122.96C492.1 119.41 487.9 116.05 482.62 114.86C478.56 113.95 474.25 114.5 470.08 115.03C465.61 115.6 460.98 116.19 456.55 115.03C451.93 113.79 448.18 110.88 444.09 107.48C441 104.91 431.46 97.9201 423.48 101.84C423.5 101.85 423.53 101.93 423.55 102Z" fill="#FF5787"/>
<path d="M269.31 64.97C270.27 61.9249 270.887 58.7822 271.15 55.6001C271.91 47.6001 270.78 42.4 269.66 42.3C269.47 42.3 269.15 42.5001 268.76 43.0801C268.237 43.8979 267.827 44.7824 267.54 45.71C266.58 48.7551 265.963 51.898 265.7 55.0801C264.98 62.6101 265.95 67.6901 267.01 68.3201C267.066 68.352 267.127 68.3756 267.19 68.3901C267.52 68.4101 268.36 67.74 269.31 64.97Z" fill="white"/>
<path d="M396.88 109.46H399.02L406.68 109.37H409H411.37H413.97H415.15H417.56H418.83H421.83H423.88C424.19 108.55 423.26 104.43 422.56 102.49C422.49 102.31 422.43 102.15 422.37 102.01V101.95C422.37 101.95 422.37 101.95 422.37 101.9C422.199 101.837 422.021 101.793 421.84 101.77C421.54 101.77 421.15 101.69 420.67 101.66H420.16H419.65C415.59 101.56 407.78 101.87 400.27 102.35H399.7H399.15H398.98L398.61 103.55L397.51 107.12L396.74 109.64L396.88 109.46Z" fill="#FF5787"/>
</svg>
