<svg width="800" height="400" viewBox="0 0 800 400" fill="none" xmlns="http://www.w3.org/2000/svg">
<path d="M153.44 250.78H153.87L434.78 250.51C431.375 247.494 428.171 244.257 425.19 240.82L141.8 241.4L153.44 250.78Z" fill="white"/>
<path d="M413.34 179.3C402.04 204.23 414.04 226.12 425.74 239.84L426.17 240.34L426.6 240.84C429.624 244.283 432.871 247.523 436.32 250.54H453.54H461.29L461.42 250.63L484.91 266.32C484.951 257.167 485.977 248.044 487.97 239.11C490.57 227.53 495.4 205.98 508.31 198.97C512.91 196.47 523.47 194.91 528.94 198.25C530.077 198.905 531.007 199.867 531.624 201.025C532.242 202.183 532.521 203.491 532.43 204.8C532.35 208.13 529.78 212.29 527.29 216.3C525.971 218.283 524.811 220.366 523.82 222.53C520.989 229.607 518.995 236.99 517.88 244.53C515.457 260.26 516.983 276.346 522.32 291.34L597.88 341.78C588.122 332.033 579.433 321.272 571.96 309.68C555.28 283.68 553.32 243.04 578.9 220.2C588.734 211.319 601.66 206.651 614.9 207.2C616.809 207.284 618.712 207.474 620.6 207.77L461.77 148.37C459.93 148.37 427.42 148.24 413.34 179.3Z" fill="#2DC495"/>
<path d="M585.22 301.18C581.659 295.655 578.961 289.619 577.22 283.28C577.16 283.07 577.11 282.85 577.05 282.63C576.99 282.41 576.94 282.2 576.89 281.98C576.087 278.783 575.548 275.526 575.28 272.24C575.28 272.06 575.28 271.89 575.23 271.71V271.17C574.23 255.01 579.98 240.36 589.43 231.93C596.221 225.795 605.145 222.564 614.29 222.93C618.752 223.086 623.137 224.145 627.178 226.045C631.219 227.944 634.833 230.644 637.8 233.98C647.92 245.31 647.86 264.71 637.67 273.9C626.67 283.85 610.29 282.9 603.04 275.34C598.87 271.02 596.84 265.86 597.33 260.82C597.534 258.106 598.324 255.468 599.647 253.089C600.969 250.71 602.792 248.646 604.99 247.04C607.65 245.17 612.48 243.49 615.65 244.04C618.881 244.813 621.744 246.683 623.75 249.33C624.872 251.186 625.251 253.397 624.81 255.52C624.64 256.279 624.303 256.99 623.824 257.602C623.345 258.215 622.735 258.713 622.04 259.06C620.835 259.691 619.475 259.965 618.12 259.85C616.798 259.039 615.657 257.963 614.77 256.69L605.55 260.26C606.18 266.63 611.4 270.59 616.08 271.59C622.15 272.88 626.99 271.74 631.31 268.01C638.39 261.9 638.15 249.01 633.2 241.54C629.2 235.49 624.07 231.98 617.54 230.84C611.01 229.7 603.7 231.69 597.17 236.29C589.39 241.76 584.95 249.76 583.96 260.06C583.425 264.806 583.902 269.612 585.36 274.16C585.43 274.36 585.51 274.55 585.58 274.75L585.79 275.34C587.29 279.16 589.549 282.637 592.43 285.56C599.08 292.46 608.75 295.86 618.74 295.81C621.025 295.796 623.305 295.602 625.56 295.23C626.56 295.07 627.56 294.89 628.56 294.66C635.621 293.045 642.158 289.666 647.56 284.84C663.63 270.34 664.23 241.42 648.82 224.15C644.812 219.657 639.991 215.962 634.61 213.26C634.03 212.96 633.44 212.68 632.84 212.41C631.479 211.79 630.087 211.239 628.67 210.76C624.236 209.239 619.604 208.373 614.92 208.19C601.948 207.645 589.279 212.204 579.63 220.89C554.45 243.38 556.41 283.39 572.86 309.09C581.266 322.111 591.2 334.079 602.45 344.74C603.2 345.45 603.94 346.15 604.67 346.82C605.4 347.49 606.34 348.36 607.16 349.09C611.838 353.29 616.728 357.249 621.81 360.95L622.5 361.45L623.2 361.95L623.28 362L624.09 362.57L624.91 363.14C625.58 363.59 626.14 363.97 626.55 364.23L626.64 364.3L626.37 364.71L650.24 365.34C648.39 363.8 645.99 361.93 643.24 359.79C627.94 347.95 602.43 328.07 585.22 301.18Z" fill="white"/>
<path d="M586.06 300.64C582.724 295.459 580.151 289.824 578.42 283.91C593.81 291.79 606.9 296.91 617.63 296.91C618.2 296.91 618.76 296.91 619.31 296.91C629.96 296.739 640.197 292.762 648.17 285.7C664.63 270.86 665.27 241.26 649.5 223.61C644.338 217.808 637.855 213.332 630.6 210.56L628.94 209.94L462.07 147.53H461.91C461.57 147.53 427.16 146.59 412.46 179.02C402.33 201.36 410.72 221.08 419.53 233.7C421.1 235.94 422.73 238.03 424.37 239.98L139 240.57L256 334.88L290 362.44L290.14 362.55L610.38 362.14L622.87 363.14C624.22 364.14 625.27 364.79 625.95 365.23L626.04 365.29L626.32 364.87L626.59 364.46L626.5 364.39C626.09 364.13 625.5 363.75 624.86 363.3L624.04 362.73L623.23 362.16L623.15 362.11L622.45 361.61L621.76 361.11C616.678 357.409 611.788 353.45 607.11 349.25C606.29 348.52 605.46 347.76 604.62 346.98C603.78 346.2 603.15 345.61 602.4 344.9C591.15 334.24 581.216 322.271 572.81 309.25C556.36 283.55 554.4 243.54 579.58 221.05C589.229 212.364 601.898 207.805 614.87 208.35C619.554 208.533 624.186 209.399 628.62 210.92C630.037 211.399 631.429 211.95 632.79 212.57C633.39 212.84 633.98 213.12 634.56 213.42C639.941 216.122 644.762 219.817 648.77 224.31C664.18 241.58 663.58 270.5 647.51 285C642.108 289.826 635.571 293.205 628.51 294.82C627.51 295.05 626.51 295.23 625.51 295.39C623.255 295.762 620.975 295.956 618.69 295.97C608.69 295.97 599.03 292.62 592.38 285.72C589.499 282.797 587.24 279.32 585.74 275.5L585.53 274.91C585.46 274.71 585.38 274.52 585.31 274.32C583.852 269.772 583.375 264.966 583.91 260.22C584.91 249.92 589.34 241.92 597.12 236.45C603.65 231.85 611.12 229.87 617.49 231C623.86 232.13 629.14 235.65 633.15 241.7C638.15 249.16 638.34 262.06 631.26 268.17C626.94 271.9 622.1 273.04 616.03 271.75C611.35 270.75 606.13 266.75 605.5 260.42L614.72 256.85C615.607 258.123 616.748 259.198 618.07 260.01C619.425 260.124 620.785 259.85 621.99 259.22C622.685 258.872 623.295 258.375 623.774 257.762C624.253 257.15 624.59 256.439 624.76 255.68C625.201 253.557 624.822 251.346 623.7 249.49C621.694 246.842 618.831 244.973 615.6 244.2C612.43 243.64 607.6 245.32 604.94 247.2C602.742 248.806 600.919 250.87 599.597 253.249C598.274 255.628 597.484 258.266 597.28 260.98C596.79 265.98 598.82 271.18 602.99 275.5C610.24 283.02 626.59 284.01 637.62 274.06C647.81 264.87 647.87 245.47 637.75 234.14C634.783 230.804 631.169 228.104 627.128 226.204C623.087 224.305 618.702 223.246 614.24 223.09C605.095 222.725 596.171 225.955 589.38 232.09C579.93 240.52 574.16 255.17 575.18 271.33V271.87C575.18 272.05 575.18 272.22 575.23 272.4C575.498 275.686 576.037 278.943 576.84 282.14C576.84 282.36 576.95 282.58 577 282.79C577.05 283 577.11 283.23 577.17 283.44C578.911 289.779 581.609 295.815 585.17 301.34C602.38 328.23 627.89 348.11 643.17 359.99C645.92 362.13 648.32 363.99 650.17 365.54L650.66 365.94L651.3 365.18C649.38 363.56 646.78 361.54 643.78 359.18C628.6 347.2 603.18 327.39 586.06 300.64ZM614.9 207.23C601.66 206.68 588.734 211.348 578.9 220.23C553.32 243.07 555.28 283.66 571.96 309.71C579.435 321.291 588.124 332.042 597.88 341.78L522.32 291.29C516.983 276.296 515.457 260.21 517.88 244.48C518.995 236.94 520.989 229.557 523.82 222.48C524.811 220.316 525.971 218.232 527.29 216.25C529.78 212.25 532.35 208.08 532.43 204.75C532.521 203.441 532.242 202.133 531.625 200.975C531.007 199.816 530.077 198.855 528.94 198.2C523.47 194.86 512.94 196.42 508.31 198.92C495.4 205.92 490.57 227.48 487.97 239.06C485.977 247.994 484.951 257.117 484.91 266.27L461.42 250.58L461.29 250.49H453.54H436.32C432.871 247.473 429.624 244.233 426.6 240.79L426.17 240.29L425.74 239.79C414.04 226.07 402.04 204.18 413.34 179.25C427.42 148.19 459.93 148.32 461.77 148.35L620.6 207.75C618.705 207.47 616.795 207.296 614.88 207.23H614.9ZM434.78 250.54L153.88 250.78H153.45L141.81 241.4L425.2 240.82C428.177 244.267 431.377 247.514 434.78 250.54Z" fill="#2B266D"/>
<path d="M289.88 302.14C289.61 299.7 289.28 297.33 288.88 295.08C288.41 292.31 287.88 289.5 287.29 286.78L286.77 284.25C286.137 280.869 285.299 277.53 284.26 274.25C284.01 273.5 283.85 272.88 283.7 272.25C283.55 271.62 283.4 271.1 283.2 270.52C282.65 270.62 282.1 270.74 281.54 270.83C262.02 273.73 238.94 273.01 232.15 269.31L230.74 268.53C225.41 265.61 212.95 258.76 208.34 258.1L207.51 257.98C204.86 257.59 202.36 257.21 199.3 258.24C197.3 259.01 196.51 260.19 197.06 261.74C197.39 262.65 198.06 262.82 199.15 262.97C199.37 262.97 199.59 263.04 199.8 263.09C203.93 261.85 209.88 263.24 213.64 266.32L213.01 267.09C212.72 266.85 212.4 266.63 212.08 266.41C208.845 264.251 204.938 263.334 201.08 263.83L200.58 263.93L200.09 264.1C198.51 264.64 196.95 265.27 196.9 266.54C196.894 266.84 196.962 267.136 197.098 267.403C197.234 267.67 197.434 267.899 197.68 268.07C198.192 268.423 198.779 268.654 199.394 268.744C200.01 268.834 200.638 268.782 201.23 268.59C201.609 268.518 201.994 268.478 202.38 268.47L203.63 268.39C205.95 268.22 210.44 269.39 212.17 271.04L211.83 271.41L211.49 271.77C211.262 271.563 211.015 271.378 210.75 271.22C208.602 270.045 206.199 269.413 203.75 269.38L202.48 269.47C202.037 269.483 201.595 269.533 201.16 269.62H200.99L200.45 269.73C198.96 270.03 197.96 270.32 197.71 271.73C197.666 271.967 197.673 272.211 197.73 272.446C197.786 272.68 197.892 272.9 198.04 273.09C198.93 274.23 201.1 274.48 201.12 274.48H201.39C202.077 274.255 202.797 274.15 203.52 274.17H204.27C206.56 274.09 211.09 275.44 212.8 277.03L212.12 277.76C211.908 277.565 211.676 277.391 211.43 277.24C209.27 275.967 206.826 275.255 204.32 275.17H203.55C202.715 275.129 201.883 275.297 201.13 275.66L200.83 275.8C200.28 276.32 199.54 277.24 199.98 278.12C200.53 279.23 201.25 279.59 203.8 280.01C208.8 280.85 212.4 281.921 215.8 284.901C220.3 288.901 223.54 289 228.46 289.14C229.91 289.14 231.56 289.23 233.46 289.39H233.61C234.75 289.86 236.27 290.57 238.04 291.39C248.52 296.27 270.32 306.45 287.89 302.62C288.48 302.59 289.19 302.37 289.88 302.14ZM229.68 281.43V281.93C224.68 281.76 223.79 280.69 222.68 278.93C221.749 277.339 220.323 276.097 218.62 275.39L218.1 275.14C215.9 274.14 213.17 272.79 214.1 270.5C214.4 269.625 215.017 268.893 215.83 268.449C216.642 268.005 217.591 267.881 218.49 268.1C220.645 268.563 222.686 269.454 224.49 270.72L224.23 271.14L223.96 271.56C222.271 270.379 220.37 269.537 218.36 269.08C217.684 268.898 216.964 268.983 216.349 269.319C215.734 269.654 215.273 270.213 215.06 270.88C214.52 272.2 216.17 273.1 218.56 274.24L219.09 274.49C220.958 275.28 222.525 276.647 223.56 278.39C224.44 279.77 225.04 280.69 229.45 280.88H229.75L229.68 281.43Z" fill="#FF5787"/>
<path d="M223.51 278.43C222.475 276.686 220.908 275.32 219.04 274.53L218.51 274.28C216.12 273.14 214.51 272.28 215.01 270.92C215.223 270.253 215.684 269.694 216.299 269.359C216.914 269.023 217.634 268.938 218.31 269.12C220.32 269.577 222.222 270.419 223.91 271.6L224.18 271.18L224.44 270.76C222.636 269.494 220.595 268.604 218.44 268.141C217.541 267.921 216.592 268.045 215.78 268.489C214.967 268.933 214.35 269.665 214.05 270.54C213.12 272.83 215.85 274.14 218.05 275.18L218.57 275.43C220.273 276.136 221.699 277.38 222.63 278.97C223.74 280.69 224.63 281.76 229.63 281.97V281.47V280.97H229.33C224.99 280.78 224.39 279.78 223.51 278.43Z" fill="#2B266D"/>
<path d="M379.71 327.78C378.94 327.78 378.16 327.78 377.39 327.78C360.07 327.78 342.39 322.48 338.66 321.31L302.58 360.44L365.39 360.61L378.75 346.61C377.795 344.905 376.473 343.432 374.88 342.3L375.44 341.47C377.196 342.715 378.646 344.342 379.68 346.23C379.754 346.278 379.816 346.343 379.86 346.42L380.16 347.05C380.4 347.48 380.64 347.93 380.89 348.42H380.83L386.77 360.78L439.9 360.83L421.8 319.35C416.09 321.24 396.68 327.28 379.71 327.78Z" fill="#5A51E7"/>
<path d="M533.82 190.21C532.78 189.947 531.69 189.947 530.65 190.21C528.425 191.072 526.258 192.074 524.16 193.21C520.61 195.06 516.76 197.51 516.72 197.54L516.45 197.12L516.18 196.7C516.18 196.7 520.11 194.2 523.7 192.33C525.651 191.291 527.654 190.349 529.7 189.51C529.743 189.102 529.633 188.692 529.39 188.36C529.188 188.111 528.936 187.906 528.65 187.76C528.364 187.613 528.051 187.528 527.73 187.51C526.685 187.437 525.635 187.532 524.62 187.79V187.87C522.819 188.497 521.056 189.228 519.34 190.06L517.71 190.91L517.32 191.13C514.2 192.91 510.23 195.36 510.19 195.38L509.66 194.53C509.66 194.53 513.66 192.05 516.82 190.26C518.525 189.302 520.292 188.46 522.11 187.74C522.178 187.473 522.19 187.195 522.145 186.923C522.1 186.651 522 186.391 521.85 186.16C521.565 185.804 521.209 185.512 520.804 185.302C520.399 185.092 519.955 184.969 519.5 184.94C518.831 184.871 518.155 184.915 517.5 185.07V185.13C516.428 185.41 515.381 185.778 514.37 186.23L514 186.41L514.16 186.32C513.78 186.49 513.38 186.67 512.96 186.88C512.54 187.09 511.96 187.39 511.43 187.7L510.7 188.12C507.61 189.9 503.5 192.41 503.46 192.44L503.2 192.01L502.94 191.59C502.94 191.59 507.8 188.59 510.94 186.83C511.8 186.34 512.6 185.94 513.33 185.6C513.34 185.564 513.34 185.526 513.33 185.49C513.08 185.09 511.93 184.92 511.17 184.8H511C509.86 184.63 507 185.59 505.85 186.18C502.688 187.752 499.713 189.674 496.98 191.91C495.86 192.75 494.49 193.78 492.72 195.09L492.6 195.18C492.15 195.52 490.06 197.18 487.24 199.42C477.24 207.42 456.24 224.04 444.15 232.79C442.84 233.79 440.26 234.28 437.39 234.67C444.14 243.76 445.32 252.12 444.71 263.53C449.88 262.42 455.71 261.06 459.1 260.01C467.52 257.42 477.75 245.01 487.63 232.94C493.53 225.77 499.09 218.99 504.37 214.07L504.49 213.99C505.403 213.551 506.378 213.251 507.38 213.1C509.159 212.813 510.958 212.672 512.76 212.68C515.22 212.68 517.34 212.68 519.39 212.68C521.44 212.68 523.16 212.62 525.24 212.68C525.714 212.731 526.19 212.619 526.592 212.363C526.994 212.106 527.296 211.721 527.45 211.27C527.625 210.783 527.653 210.255 527.531 209.752C527.408 209.248 527.14 208.792 526.76 208.44C525.988 207.881 525.099 207.505 524.16 207.34C522.33 207.11 521.26 207.02 520.32 206.95C519.17 206.85 518.18 206.77 516.21 206.47H515.99L515.87 206.29C515.16 205.29 516.01 204.05 516.96 203.29C519.865 201.193 522.962 199.375 526.21 197.86C528.69 196.61 531.21 195.32 534.21 193.49C534.689 193.216 535.076 192.806 535.32 192.31C535.369 192.143 535.381 191.968 535.357 191.795C535.333 191.623 535.273 191.458 535.18 191.31C535.043 191.042 534.851 190.806 534.616 190.617C534.382 190.427 534.111 190.289 533.82 190.21Z" fill="#FF5787"/>
<path d="M536.09 190.71C535.865 190.333 535.564 190.006 535.206 189.752C534.848 189.497 534.44 189.319 534.01 189.23C533.026 189.005 532.01 188.958 531.01 189.09V189.03L530.78 189.1C530.749 188.605 530.576 188.129 530.28 187.73C529.991 187.371 529.632 187.075 529.224 186.86C528.817 186.645 528.369 186.516 527.91 186.48C526.334 186.377 524.754 186.602 523.27 187.14C523.261 186.576 523.087 186.027 522.77 185.56C522.412 185.093 521.96 184.706 521.443 184.423C520.927 184.141 520.357 183.97 519.77 183.92C517.91 183.825 516.061 184.251 514.43 185.15L514.32 184.93C513.83 184.14 512.57 183.93 511.47 183.78H511.3C509.83 183.55 506.71 184.63 505.52 185.26C502.313 186.855 499.294 188.804 496.52 191.07C495.4 191.91 494.03 192.94 492.26 194.25C491.88 194.5 490.78 195.38 486.75 198.58C476.75 206.58 455.82 223.19 443.75 231.93C442.52 232.81 439.75 233.33 436.86 233.7C436.65 233.42 436.45 233.15 436.22 232.87L436.05 232.66H435.79C427.53 233.32 419.19 232.92 409.53 232.45C404.53 232.21 398.83 231.94 392.53 231.78C384.14 231.58 373.7 231.33 369.89 228.35L369.43 227.99C368.12 226.99 366.77 225.99 366.27 223.99C366.275 223.93 366.275 223.87 366.27 223.81C366.352 220.927 366.249 218.04 365.96 215.17C365.743 213.195 365.666 211.206 365.73 209.22C365.976 207.551 366.333 205.901 366.8 204.28C367.04 203.33 367.27 202.42 367.46 201.6L367.73 201.47C369.84 200.3 371.85 197.75 371.28 194.9C371.115 194.197 370.811 193.533 370.387 192.947C369.963 192.362 369.427 191.867 368.81 191.49C370.72 184.84 372.7 181.76 371.71 177.1C370.4 170.89 366.21 167.51 360.25 165.36C357.54 164.36 356.38 165.23 354.54 163.01C352.9 161.01 351.11 153.6 347.78 154.9C344.78 156.09 345.36 158.21 345.46 161.46C343.55 158.52 342.83 154.89 339.34 155.29C335.85 155.69 337.51 158.5 337.51 161.92C334.74 159.62 335.02 156.85 331.51 157.49C325.99 158.49 334.28 173.86 335.84 176.66C336.45 179.48 336.2 184.59 335.89 190.99C335.82 192.5 335.74 194.1 335.67 195.76C335.31 204.32 337.82 207.76 340.99 212.13C341.44 212.74 341.89 213.36 342.35 214.03C343.79 216.08 344.08 218.75 344.08 222.38C344.08 223.27 344.08 223.84 344.01 224.26C344.01 224.34 344.01 224.4 344.01 224.47C343.66 226.29 341.6 233.47 330.61 236.23C329.79 236.44 329.03 236.6 328.32 236.76C324.69 237.56 322.07 238.14 317.32 242.22C317.25 242.22 317.14 242.37 316.48 243.01C300.56 258.27 288.68 267.33 283.05 268.5L282.4 268.63L282.71 269.22C282.78 269.36 282.84 269.49 282.9 269.63L281.48 269.9C260.09 273.07 238.62 271.69 232.72 268.48L231.32 267.71C225.49 264.51 213.37 257.84 208.58 257.16L207.76 257.04C204.99 256.63 202.37 256.24 199.06 257.35C196.52 258.35 195.48 260.06 196.22 262.13C196.371 262.567 196.636 262.956 196.988 263.257C197.339 263.558 197.765 263.759 198.22 263.84C197.631 264.036 197.109 264.395 196.715 264.874C196.32 265.354 196.069 265.934 195.99 266.55C195.977 267.008 196.076 267.462 196.278 267.874C196.48 268.285 196.78 268.641 197.15 268.91C197.488 269.172 197.866 269.378 198.27 269.52C197.874 269.734 197.534 270.037 197.275 270.404C197.016 270.772 196.847 271.196 196.78 271.64C196.715 272.014 196.728 272.398 196.819 272.766C196.911 273.134 197.078 273.48 197.31 273.78C198.025 274.576 198.974 275.126 200.02 275.35C199.541 275.74 199.198 276.271 199.04 276.867C198.882 277.464 198.917 278.095 199.14 278.67C199.92 280.23 201.01 280.67 203.69 281.11C208.54 281.92 211.97 282.94 215.14 285.76C219.92 290 223.49 290.1 228.44 290.25C229.86 290.25 231.44 290.34 233.26 290.49C234.37 290.96 235.86 291.65 237.58 292.49C246.58 296.67 263.66 304.66 279.58 304.66C282.44 304.674 285.292 304.383 288.09 303.79C288.8 303.61 289.47 303.41 290.09 303.2C290.09 303.36 290.09 303.52 290.14 303.68L290.2 304.25L290.76 304.12C301.25 301.57 312.51 295.79 321.89 290.12L323.03 289.47C325.324 288.131 327.742 287.016 330.25 286.14L337.76 321.01L301.18 360.69C301.113 360.761 301.069 360.85 301.053 360.946C301.037 361.043 301.05 361.141 301.09 361.23C301.128 361.318 301.191 361.393 301.271 361.446C301.351 361.499 301.444 361.529 301.54 361.53L365.7 361.7C365.767 361.702 365.834 361.689 365.896 361.663C365.958 361.638 366.014 361.599 366.06 361.55L379.37 347.55L386.1 361.55C386.141 361.634 386.205 361.705 386.285 361.755C386.364 361.804 386.456 361.83 386.55 361.83L440.75 361.88C440.832 361.878 440.912 361.856 440.984 361.816C441.055 361.776 441.116 361.719 441.16 361.65C441.201 361.579 441.223 361.498 441.223 361.415C441.223 361.333 441.201 361.252 441.16 361.18L422.79 319.08L423.37 318.88H423.53L423.76 318.64C424.1 318.31 424.99 317.44 416.88 296.75C416.62 296.08 416.29 295.26 415.88 294.34C414.34 290.48 412.12 284.92 410.43 279.86L408.71 273.17C411.2 272.91 414.71 272.17 418.43 271.4C420.15 271.04 421.9 270.67 423.61 270.34L425.91 269.89C432.41 268.63 432.41 268.63 436.69 267.56L444.26 265.69L444.62 265.6V265.24C444.62 264.99 444.62 264.75 444.62 264.5C449.89 263.37 455.88 261.97 459.37 260.9C468.07 258.23 478.37 245.67 488.37 233.52C494.23 226.4 499.75 219.67 504.96 214.8C505.76 214.419 506.613 214.159 507.49 214.03C509.216 213.752 510.962 213.615 512.71 213.62C515.19 213.62 517.31 213.62 519.37 213.62C521.43 213.62 523.13 213.56 525.19 213.62C525.878 213.68 526.566 213.507 527.143 213.127C527.72 212.748 528.152 212.185 528.37 211.53C528.62 210.848 528.659 210.105 528.481 209.401C528.302 208.696 527.915 208.061 527.37 207.58C526.456 206.917 525.403 206.472 524.29 206.28C522.44 206.06 521.37 205.97 520.42 205.89C519.47 205.81 518.42 205.72 516.63 205.46C516.55 205.01 517.11 204.39 517.57 204.05C520.429 201.988 523.476 200.2 526.67 198.71C529.17 197.45 531.75 196.15 534.76 194.3C535.441 193.907 535.98 193.308 536.3 192.59C536.407 192.281 536.444 191.952 536.407 191.626C536.371 191.301 536.263 190.988 536.09 190.71ZM535.37 192.23C535.126 192.725 534.739 193.136 534.26 193.41C531.26 195.24 528.72 196.53 526.26 197.78C523.012 199.294 519.915 201.112 517.01 203.21C516.06 203.92 515.21 205.12 515.92 206.21L516.04 206.39H516.26C518.26 206.69 519.26 206.77 520.37 206.87C521.31 206.94 522.37 207.03 524.21 207.26C525.149 207.425 526.038 207.801 526.81 208.36C527.19 208.712 527.458 209.168 527.581 209.671C527.703 210.174 527.675 210.703 527.5 211.19C527.346 211.641 527.044 212.026 526.642 212.282C526.241 212.539 525.764 212.651 525.29 212.6C523.21 212.6 521.38 212.6 519.44 212.6C517.5 212.6 515.27 212.67 512.81 212.6C511.008 212.592 509.209 212.732 507.43 213.02C506.428 213.171 505.453 213.471 504.54 213.91L504.42 213.99C499.14 218.91 493.58 225.69 487.68 232.86C477.8 244.86 467.57 257.34 459.15 259.93C455.74 260.93 449.93 262.34 444.76 263.45C445.37 252.04 444.19 243.68 437.44 234.59C440.31 234.2 442.89 233.66 444.2 232.71C456.34 223.96 477.2 207.33 487.29 199.34C490.11 197.1 492.2 195.44 492.65 195.1L492.77 195.01C494.54 193.7 495.91 192.67 497.03 191.83C499.763 189.594 502.738 187.672 505.9 186.1C507.03 185.51 509.9 184.55 511.05 184.72H511.22C511.98 184.84 513.13 185.01 513.38 185.41C513.39 185.446 513.39 185.484 513.38 185.52C512.65 185.86 511.85 186.26 510.99 186.75C507.86 188.54 503.05 191.48 502.99 191.51L503.25 191.93L503.51 192.36C503.51 192.36 507.66 189.82 510.75 188.04L511.48 187.62C512.01 187.31 512.48 187.05 513.01 186.8C513.54 186.55 513.83 186.41 514.21 186.24L514.05 186.33L514.42 186.15C515.431 185.698 516.478 185.33 517.55 185.05V184.99C518.205 184.835 518.881 184.791 519.55 184.86C520.005 184.889 520.449 185.011 520.854 185.222C521.259 185.432 521.615 185.724 521.9 186.08C522.05 186.311 522.15 186.571 522.195 186.843C522.24 187.115 522.228 187.393 522.16 187.66C520.342 188.38 518.575 189.222 516.87 190.18C513.74 191.97 509.75 194.42 509.71 194.45L510.24 195.3C510.24 195.3 514.24 192.83 517.37 191.05L517.76 190.83L519.39 189.98C521.106 189.147 522.869 188.416 524.67 187.79V187.71C525.685 187.451 526.735 187.357 527.78 187.43C528.101 187.448 528.414 187.533 528.7 187.679C528.986 187.826 529.238 188.03 529.44 188.28C529.683 188.612 529.793 189.022 529.75 189.43C527.704 190.269 525.702 191.21 523.75 192.25C520.16 194.12 516.27 196.59 516.23 196.62L516.5 197.04L516.77 197.46C516.77 197.46 520.66 194.98 524.21 193.13C526.307 191.994 528.475 190.992 530.7 190.13C531.74 189.867 532.83 189.867 533.87 190.13C534.161 190.191 534.437 190.311 534.679 190.483C534.922 190.655 535.127 190.875 535.28 191.13C535.38 191.294 535.44 191.479 535.455 191.67C535.471 191.861 535.442 192.052 535.37 192.23ZM443.67 264.72V264.81L436.45 266.59C432.19 267.65 432.19 267.65 425.72 268.91L423.42 269.35C421.71 269.69 419.95 270.06 418.22 270.42C414.46 271.21 410.9 271.95 408.46 272.19H408.24H407.88H407.3V272.28L398.51 273.79L411.06 284.6C412.41 288.28 413.85 291.88 414.94 294.6C415.31 295.52 415.64 296.33 415.94 297.01C422.39 313.46 422.94 317.01 422.94 317.79L422.34 318L421.87 318.16L421.39 318.32C415.62 320.23 396.39 326.17 379.67 326.65C362.4 327.15 344.07 321.85 339.4 320.4L338.87 320.23L338.52 320.12V319.92L331.14 285.66H331.2L331.11 285.2C331.02 284.82 329.11 275.83 328.37 273.29L327.88 271.78L327.38 273.33C326.26 276.77 325.19 279.93 324.05 283.27L322.27 288.52C312.93 294.29 301.57 300.24 290.97 302.93C290.97 302.88 290.97 302.82 290.97 302.77L290.91 302.26L290.85 301.76C290.58 299.39 290.27 297.07 289.85 294.87C289.37 292.09 288.85 289.27 288.25 286.54L287.74 284.01C287.088 280.597 286.237 277.224 285.19 273.91C284.95 273.2 284.8 272.59 284.65 272.01C284.5 271.43 284.37 270.91 284.17 270.34C284.17 270.18 284.06 270.02 284 269.86L283.8 269.39C283.796 269.354 283.796 269.317 283.8 269.28C291.44 267.17 306.04 254.28 317.09 243.69C317.52 243.28 317.78 243.02 317.86 242.96C322.41 239.02 324.79 238.5 328.4 237.7C329.13 237.54 329.89 237.37 330.73 237.16C339.84 234.88 343.14 229.61 344.31 226.51C344.46 226.85 344.66 227.26 344.93 227.79C346.43 230.79 349.36 232.43 353.05 232.43C354.09 232.422 355.125 232.305 356.14 232.08C360.14 231.21 364.38 228.64 365.74 225.59C366.49 226.859 367.515 227.942 368.74 228.76L369.19 229.1C373.27 232.29 383.44 232.54 392.42 232.75C398.67 232.91 404.35 233.18 409.36 233.42C418.95 233.89 427.25 234.29 435.49 233.65L435.59 233.79C435.72 233.94 435.83 234.09 435.95 234.25L436.3 234.71C443.22 243.82 444.4 252.15 443.76 263.65V264.17L443.67 264.72ZM386.77 360.78L380.83 348.42H380.89C380.64 347.93 380.4 347.48 380.16 347.05L379.86 346.42C379.816 346.343 379.754 346.278 379.68 346.23C378.646 344.342 377.196 342.714 375.44 341.47L374.88 342.3C376.473 343.432 377.795 344.905 378.75 346.61L365.39 360.61L302.58 360.44L338.66 321.31C342.36 322.48 360.07 327.78 377.39 327.78C378.16 327.78 378.94 327.78 379.71 327.78C396.71 327.3 416.09 321.26 421.8 319.37L439.9 360.85L386.77 360.78ZM237.88 291.55C236.11 290.72 234.59 290.01 233.45 289.55H233.3C231.45 289.39 229.8 289.34 228.3 289.3C223.38 289.16 220.14 289.06 215.64 285.06C212.29 282.06 208.72 281.01 203.64 280.17C201.09 279.75 200.37 279.39 199.82 278.28C199.38 277.4 200.12 276.48 200.67 275.96L200.97 275.82C201.723 275.457 202.555 275.289 203.39 275.33H204.16C206.666 275.415 209.11 276.127 211.27 277.4C211.516 277.551 211.747 277.725 211.96 277.92L212.64 277.19C210.93 275.6 206.4 274.25 204.11 274.33H203.36C202.637 274.31 201.917 274.415 201.23 274.64H200.96C200.96 274.64 198.77 274.39 197.88 273.25C197.732 273.06 197.626 272.84 197.569 272.605C197.513 272.371 197.506 272.127 197.55 271.89C197.8 270.53 198.8 270.24 200.29 269.89L200.83 269.78H201C201.435 269.693 201.877 269.643 202.32 269.63L203.59 269.54C206.039 269.573 208.442 270.205 210.59 271.38C210.854 271.538 211.102 271.722 211.33 271.93L211.67 271.57L212.01 271.2C210.28 269.59 205.79 268.38 203.47 268.55L202.22 268.63C201.834 268.638 201.449 268.678 201.07 268.75C200.478 268.941 199.85 268.994 199.235 268.904C198.619 268.814 198.032 268.583 197.52 268.23C197.274 268.059 197.074 267.83 196.938 267.563C196.802 267.296 196.734 267 196.74 266.7C196.74 265.43 198.35 264.8 199.93 264.26L200.42 264.09L200.92 263.99C204.778 263.494 208.685 264.41 211.92 266.57C212.24 266.79 212.56 267.01 212.85 267.25L213.48 266.48C209.72 263.4 203.77 262.01 199.64 263.25C199.43 263.2 199.21 263.16 198.99 263.13C197.99 262.98 197.23 262.81 196.9 261.9C196.35 260.35 197.11 259.17 199.14 258.4C202.2 257.4 204.7 257.75 207.35 258.14L208.18 258.26C212.79 258.92 225.25 265.77 230.58 268.69L231.99 269.47C238.78 273.17 261.86 273.89 281.38 270.99C281.94 270.9 282.49 270.78 283.04 270.68C283.24 271.26 283.39 271.81 283.54 272.41C283.69 273.01 283.85 273.63 284.1 274.41C285.139 277.689 285.977 281.029 286.61 284.41L287.13 286.94C287.68 289.66 288.25 292.47 288.72 295.24C289.11 297.49 289.44 299.86 289.72 302.3C289.03 302.53 288.32 302.75 287.57 302.94C270.16 306.61 248.36 296.43 237.88 291.55ZM336.55 195.8C336.62 194.14 336.7 192.55 336.77 191.04C337.06 185.04 337.29 180.19 336.77 177.14C340.99 177.36 359.55 178.28 359.7 177.89C357.584 182.769 357.42 188.274 359.24 193.27L359.17 193.33L359.33 193.48C359.4 193.66 359.48 193.84 359.56 194.02V193.68L359.92 194.02C360.647 193.224 361.532 192.588 362.519 192.152C363.505 191.717 364.572 191.491 365.65 191.49C366.092 191.525 366.529 191.612 366.95 191.75C367.127 191.806 367.301 191.873 367.47 191.95C367.639 192.018 367.803 192.098 367.96 192.19C368.124 192.282 368.281 192.385 368.43 192.5C369.315 193.118 369.942 194.04 370.19 195.09C370.6 197.15 369.27 199.16 367.62 200.28C367.46 200.39 367.3 200.5 367.14 200.59L367.04 200.64C366.856 200.742 366.665 200.832 366.47 200.91C364.475 201.648 362.355 201.988 360.23 201.91V202.91C362.247 202.947 364.256 202.656 366.18 202.05C366.03 202.68 365.86 203.34 365.7 203.99C365.209 205.674 364.844 207.392 364.61 209.13C364.539 211.16 364.616 213.192 364.84 215.21C364.99 216.98 365.15 218.94 365.17 221.36V222.17C365.17 222.68 365.17 223.17 365.17 223.74C365.175 223.83 365.175 223.92 365.17 224.01C364.83 226.86 360.71 230.06 355.93 231.1C353.7 231.59 348.26 232.2 345.83 227.34C344.92 225.51 344.83 225.34 344.83 224.56C344.83 224.48 344.83 224.4 344.83 224.3C344.83 223.97 344.89 223.54 344.91 222.95V222.21C344.91 218.45 344.58 215.66 343 213.41C342.54 212.75 342.08 212.11 341.63 211.5C338.62 207.34 336.2 204.02 336.55 195.78V195.8Z" fill="#2B266D"/>
<path d="M436.27 234.78L435.92 234.32C435.8 234.16 435.69 234.01 435.56 233.86L435.46 233.72C427.22 234.36 418.92 233.96 409.33 233.49C404.33 233.25 398.64 232.98 392.39 232.82C383.39 232.61 373.24 232.36 369.16 229.17L368.71 228.83C367.485 228.012 366.46 226.928 365.71 225.66C364.35 228.71 360.08 231.28 356.11 232.15C355.095 232.375 354.06 232.492 353.02 232.5C349.33 232.5 346.4 230.87 344.9 227.86C344.63 227.33 344.43 226.92 344.28 226.58C343.11 229.68 339.81 234.95 330.7 237.23C329.86 237.44 329.1 237.61 328.37 237.77C324.76 238.57 322.37 239.09 317.83 243.03C317.75 243.09 317.49 243.35 317.06 243.76C306.06 254.36 291.41 267.24 283.77 269.35C283.766 269.387 283.766 269.424 283.77 269.46L283.97 269.93C284.03 270.09 284.09 270.25 284.14 270.41C284.34 270.98 284.48 271.53 284.62 272.08C284.76 272.63 284.92 273.27 285.16 273.98C286.207 277.294 287.058 280.667 287.71 284.08L288.22 286.61C288.77 289.34 289.34 292.16 289.82 294.94C290.2 297.14 290.51 299.46 290.82 301.83L290.88 302.33L290.94 302.84C290.94 302.84 290.94 302.95 290.94 303C301.54 300.31 312.94 294.36 322.24 288.59L324.02 283.34C325.16 280 326.23 276.84 327.35 273.4L327.85 271.85L328.3 273.41C329.04 275.95 330.95 284.94 331.04 285.32L331.13 285.78H331.07L338.45 320.04V320.24L338.8 320.35L339.33 320.52C344 321.97 362.33 327.27 379.6 326.77C396.37 326.29 415.6 320.35 421.32 318.44L421.8 318.28L422.27 318.12L422.87 317.91C422.87 317.15 422.28 313.58 415.87 297.13C415.61 296.45 415.28 295.64 414.87 294.72C413.78 291.98 412.34 288.38 410.99 284.72L398.44 273.91L407.23 272.4V272.31H407.81H408.17H408.39C410.83 272.07 414.39 271.31 418.15 270.54C419.88 270.18 421.64 269.81 423.35 269.47L425.65 269.03C432.12 267.77 432.12 267.77 436.38 266.71L443.6 264.93V264.84V264.33V263.81C444.37 252.19 443.19 243.86 436.27 234.78Z" fill="white"/>
<path d="M344.96 222.25V222.99C344.96 223.58 344.96 223.99 344.88 224.34C344.88 224.44 344.88 224.52 344.88 224.6C344.88 225.36 344.88 225.55 345.88 227.38C348.31 232.24 353.75 231.63 355.98 231.14C360.76 230.14 364.88 226.9 365.22 224.05C365.225 223.96 365.225 223.87 365.22 223.78C365.22 223.23 365.22 222.72 365.22 222.21V221.4C365.22 218.98 365.04 217.02 364.89 215.25C364.666 213.232 364.589 211.2 364.66 209.17C364.895 207.432 365.259 205.714 365.75 204.03C365.91 203.38 366.08 202.72 366.23 202.09C364.306 202.696 362.297 202.987 360.28 202.95V201.95C362.405 202.028 364.525 201.688 366.52 200.95C366.716 200.872 366.906 200.782 367.09 200.68L367.19 200.63C367.35 200.54 367.51 200.43 367.67 200.32C369.32 199.2 370.67 197.19 370.24 195.13C369.992 194.08 369.365 193.158 368.48 192.54C368.331 192.426 368.174 192.322 368.01 192.23C367.853 192.138 367.689 192.058 367.52 191.99C367.351 191.913 367.177 191.846 367 191.79C366.579 191.652 366.142 191.565 365.7 191.53C364.622 191.531 363.555 191.757 362.569 192.192C361.582 192.628 360.697 193.264 359.97 194.06L359.61 193.72V194.06C359.53 193.88 359.45 193.7 359.38 193.52L359.22 193.37L359.29 193.31C357.47 188.314 357.634 182.809 359.75 177.93C359.6 178.32 341.04 177.4 336.82 177.18C337.29 180.18 337.06 185.09 336.82 191.08C336.75 192.59 336.67 194.18 336.6 195.84C336.25 204.06 338.67 207.38 341.73 211.58C342.18 212.19 342.64 212.83 343.1 213.49C344.63 215.7 344.95 218.49 344.96 222.25ZM365.6 194.8L366.24 195.57C365.47 196.177 364.833 196.936 364.37 197.8C364.29 197.93 364.22 198.07 364.14 198.21C363.97 198.51 363.79 198.84 363.57 199.21L363.14 198.95L362.71 198.69C362.92 198.33 363.1 198.01 363.26 197.69V197.63C363.821 196.52 364.62 195.547 365.6 194.78V194.8ZM349.6 202.25C348.615 202.697 347.54 202.91 346.459 202.872C345.378 202.834 344.321 202.546 343.37 202.03L343.61 201.59L343.86 201.15L344.19 201.32C344.966 201.693 345.815 201.889 346.676 201.893C347.537 201.897 348.388 201.709 349.167 201.344C349.947 200.978 350.635 200.443 351.182 199.779C351.729 199.114 352.121 198.335 352.33 197.5C352.33 197.38 352.4 197.26 352.42 197.13L353.42 197.32C353.211 198.379 352.76 199.374 352.103 200.229C351.445 201.084 350.599 201.776 349.63 202.25H349.6ZM351.97 186.02C352.268 185.986 352.569 186.043 352.834 186.183C353.099 186.324 353.315 186.542 353.454 186.808C353.592 187.075 353.646 187.376 353.609 187.674C353.571 187.972 353.444 188.251 353.245 188.475C353.045 188.699 352.782 188.857 352.491 188.928C352.2 188.999 351.893 188.98 351.613 188.874C351.333 188.767 351.092 188.577 350.921 188.33C350.751 188.083 350.66 187.79 350.66 187.49C350.649 187.305 350.676 187.12 350.737 186.945C350.799 186.771 350.896 186.61 351.02 186.473C351.145 186.336 351.296 186.225 351.465 186.148C351.633 186.07 351.815 186.027 352 186.02H351.97ZM339.7 188.31C339.4 188.347 339.096 188.291 338.828 188.151C338.56 188.01 338.342 187.792 338.201 187.524C338.06 187.257 338.004 186.952 338.041 186.652C338.077 186.352 338.204 186.07 338.404 185.844C338.605 185.617 338.869 185.457 339.163 185.385C339.456 185.312 339.765 185.331 340.048 185.438C340.33 185.545 340.574 185.735 340.746 185.984C340.918 186.233 341.01 186.528 341.01 186.83C341.032 187.195 340.911 187.554 340.672 187.831C340.432 188.108 340.094 188.28 339.73 188.31H339.7ZM341.95 198.37C341.69 198.31 341.449 198.187 341.247 198.013C341.045 197.839 340.888 197.618 340.79 197.37C340.611 196.699 340.693 195.984 341.02 195.37V195.28C342.428 191.765 343.637 188.172 344.64 184.52C344.814 183.812 345.038 183.117 345.31 182.44L346.23 182.84C345.975 183.471 345.768 184.119 345.61 184.78C344.592 188.464 343.374 192.09 341.96 195.64V195.73C341.753 196.112 341.676 196.551 341.74 196.98C341.784 197.085 341.852 197.178 341.939 197.251C342.026 197.324 342.129 197.376 342.24 197.4C342.445 197.458 342.661 197.468 342.871 197.43C343.08 197.392 343.278 197.307 343.45 197.18L344.06 197.98C343.639 198.286 343.131 198.451 342.61 198.45C342.397 198.452 342.185 198.425 341.98 198.37H341.95Z" fill="#FF5787"/>
<path d="M352.36 197.5C352.151 198.335 351.759 199.114 351.212 199.779C350.665 200.443 349.977 200.978 349.197 201.344C348.418 201.709 347.567 201.897 346.706 201.893C345.845 201.889 344.996 201.693 344.22 201.32L343.89 201.15L343.64 201.59L343.4 202.03C344.345 202.55 345.399 202.838 346.477 202.872C347.555 202.905 348.625 202.683 349.6 202.224C350.576 201.764 351.429 201.081 352.089 200.228C352.749 199.376 353.199 198.38 353.4 197.32L352.4 197.13C352.43 197.26 352.39 197.38 352.36 197.5Z" fill="#2B266D"/>
<path d="M343.47 197.19C343.298 197.317 343.1 197.402 342.89 197.44C342.681 197.478 342.465 197.468 342.26 197.41C342.149 197.385 342.046 197.334 341.959 197.261C341.872 197.188 341.804 197.095 341.76 196.99C341.696 196.561 341.773 196.122 341.98 195.74V195.65C343.394 192.1 344.612 188.474 345.63 184.79C345.788 184.129 345.995 183.481 346.25 182.85L345.33 182.45C345.058 183.127 344.834 183.822 344.66 184.53C343.657 188.182 342.448 191.775 341.04 195.29V195.38C340.713 195.994 340.631 196.709 340.81 197.38C340.908 197.628 341.065 197.849 341.267 198.023C341.469 198.197 341.71 198.32 341.97 198.38C342.181 198.44 342.4 198.471 342.62 198.47C343.141 198.471 343.649 198.306 344.07 198L343.47 197.19Z" fill="#2B266D"/>
<path d="M362.71 198.69L363.14 198.95L363.57 199.21C363.79 198.84 363.97 198.51 364.14 198.21C364.22 198.07 364.29 197.93 364.37 197.8C364.833 196.936 365.47 196.177 366.24 195.57L365.6 194.8C364.633 195.574 363.848 196.55 363.3 197.66V197.72C363.1 198.01 362.88 198.33 362.71 198.69Z" fill="#2B266D"/>
<path d="M352 188.96C352.298 188.995 352.599 188.938 352.864 188.797C353.129 188.656 353.345 188.438 353.483 188.172C353.622 187.906 353.676 187.604 353.639 187.306C353.601 187.009 353.474 186.729 353.275 186.505C353.075 186.281 352.812 186.123 352.521 186.052C352.23 185.981 351.923 186 351.643 186.107C351.363 186.214 351.121 186.403 350.951 186.65C350.781 186.897 350.69 187.19 350.69 187.49C350.679 187.673 350.704 187.856 350.765 188.029C350.825 188.201 350.918 188.361 351.04 188.497C351.161 188.634 351.309 188.745 351.474 188.824C351.639 188.904 351.817 188.95 352 188.96Z" fill="#2B266D"/>
<path d="M339.73 188.3C340.453 188.3 341.04 187.642 341.04 186.83C341.04 186.018 340.453 185.36 339.73 185.36C339.006 185.36 338.42 186.018 338.42 186.83C338.42 187.642 339.006 188.3 339.73 188.3Z" fill="#2B266D"/>
</svg>
