<svg width="800" height="400" viewBox="0 0 800 400" fill="none" xmlns="http://www.w3.org/2000/svg">
<path d="M408.91 15.0638C406.365 15.0638 403.852 14.9202 401.363 15.0638C400.669 14.984 399.967 15.1516 399.273 15.0638H399.193C373.831 17.4813 350.281 29.266 333.142 48.1161C316.003 66.9663 306.506 91.5283 306.506 117.005V385.86H510.915V117.005C510.899 89.9629 500.144 64.0337 481.016 44.9178C461.888 25.8019 435.953 15.0638 408.91 15.0638ZM491.162 384.927H307.304V117.069C307.306 91.7973 316.725 67.4332 333.722 48.7318C350.72 30.0305 374.076 18.3342 399.233 15.9255C424.391 18.3307 447.749 30.026 464.748 48.7281C481.746 67.4302 491.164 91.7962 491.162 117.069V384.927Z" fill="#2B266D"/>
<path d="M399.233 15.9255C374.076 18.3343 350.72 30.0305 333.723 48.7319C316.725 67.4332 307.306 91.7973 307.304 117.069V384.927H491.162V117.069C491.164 91.7963 481.746 67.4303 464.748 48.7282C447.75 30.0261 424.391 18.3308 399.233 15.9255Z" fill="#2DC495"/>
<path d="M521.981 84.3595C525.97 77.9772 527.007 74.467 528.411 69.082C528.626 68.2842 528.834 67.4863 529.025 66.8082C529.589 65.1575 529.94 63.4418 530.071 61.7024C530.071 61.2397 529.919 60.9046 529.696 60.9046C529.545 60.9056 529.399 60.953 529.276 61.04C529.153 61.127 529.06 61.2497 529.009 61.3914C528.626 62.3088 525.276 70.4861 525.276 70.4861L524.478 70.2227C524.478 70.1111 527.669 59.5964 527.773 57.8173C527.773 57.4822 527.773 57.0754 527.446 57.0195C527.241 57.0014 527.034 57.0447 526.854 57.1442C526.674 57.2436 526.527 57.3947 526.433 57.5779C526.066 58.4714 522.444 68.691 522.444 68.7947L521.646 68.5715C521.646 68.4678 524.087 58.3996 524.326 56.5008C524.406 55.9025 524.247 55.5037 523.872 55.384C523.673 55.3298 523.462 55.3416 523.27 55.4179C523.079 55.4942 522.918 55.6308 522.811 55.8069C522.42 56.5249 520.633 63.2422 519.532 67.5742L518.734 67.4305C518.734 67.3268 519.978 57.5858 520.034 55.4637C520.034 54.8653 519.835 54.4426 519.492 54.3868C519.149 54.3309 518.814 54.5703 518.606 55.1846C517.976 57.0992 516.357 63.9601 515.694 66.8082C515.651 66.9959 515.551 67.1658 515.409 67.2955C515.266 67.4252 515.087 67.5085 514.897 67.5343C514.704 67.5584 514.508 67.5221 514.337 67.4307C514.165 67.3393 514.027 67.1971 513.939 67.0236C513.255 65.5687 512.488 64.1545 511.642 62.7875C511.418 62.5242 511.131 62.197 510.844 62.2449C510.557 62.2927 510.381 62.5322 510.23 62.7635C509.863 63.314 510.166 64.7341 510.541 66.5291C510.895 68.1275 511.161 69.7441 511.338 71.3717C511.586 73.6295 511.338 74.2356 511.123 75.0095C510.941 75.5275 510.811 76.0618 510.732 76.6051C510.732 76.7407 510.732 76.8683 510.668 76.996C514.01 78.8259 517.21 80.9033 520.242 83.2108L521.981 84.3595ZM518.319 80.6419L517.649 80.2111C518.483 78.7976 518.861 77.1612 518.731 75.525C518.601 73.8889 517.97 72.3326 516.923 71.0685L517.553 70.5739C518.702 71.969 519.392 73.6847 519.529 75.4867C519.666 77.2887 519.244 79.0891 518.319 80.6419Z" fill="white"/>
<path d="M516.923 71.0685C517.97 72.3327 518.601 73.8889 518.731 75.5251C518.861 77.1612 518.483 78.7976 517.649 80.2111L518.319 80.642C519.239 79.086 519.656 77.2838 519.514 75.4817C519.371 73.6796 518.675 71.9656 517.521 70.574L516.923 71.0685Z" fill="#2B266D"/>
<path d="M403.724 145.614C406.002 142.327 408.915 139.53 412.293 137.389C415.213 130.895 425.664 131.006 426.461 131.214C426.999 131.367 427.516 131.584 428.001 131.86C430.703 131.466 433.437 131.345 436.163 131.501H436.378C437.104 128.94 436.553 126.212 435.684 123.523H435.588C434.989 123.523 434.415 123.285 433.992 122.862C433.568 122.438 433.33 121.864 433.33 121.265C433.333 121.032 433.374 120.8 433.45 120.579C433.178 120.494 432.912 120.393 432.652 120.276C431.949 120.016 431.331 119.568 430.864 118.982C430.397 118.396 430.1 117.693 430.004 116.949C429.968 116.111 430.198 115.282 430.661 114.582C431.123 113.881 431.795 113.345 432.58 113.048C433.189 112.808 433.842 112.705 434.495 112.745C435.053 112.788 435.596 112.946 436.091 113.208C436.208 113.179 436.321 113.133 436.426 113.072C435.981 112.37 435.665 111.595 435.492 110.782L435.269 109.681L439.737 108.764L440 108.708H440.136L440.415 108.652H440.534L440.822 108.588L442.098 108.325C445.082 105.541 448.584 102.078 451.249 99.358L451.528 99.0709L451.775 98.8235L452.015 99.007C452.137 99.1163 452.249 99.2365 452.35 99.366C452.852 99.9882 453.865 101.616 455.23 105.629L455.461 105.581L458.437 104.966C458.293 103.321 457.825 101.72 457.059 100.257C456.294 98.7929 455.246 97.4951 453.977 96.4381C451.326 94.4518 448.063 93.4556 444.755 93.6219C440.526 93.965 438.372 95.1059 436.681 96.4781L436.099 96.9966L435.556 97.515C435.532 97.5436 435.505 97.5703 435.476 97.5949C434.485 98.5225 433.595 99.5521 432.82 100.666C431.288 103.347 430.243 108.03 431.224 110.934L430.849 111.062L430.466 111.189C429.389 108.038 430.466 103.164 432.11 100.268C432.616 99.4815 433.204 98.7515 433.865 98.0896C431.729 98.9975 429.844 100.407 428.369 102.199C426.894 103.99 425.873 106.111 425.392 108.381C425.217 109.251 425.169 109.753 425.129 110.08C425.136 110.347 425.071 110.612 424.942 110.846C424.813 111.08 424.625 111.276 424.395 111.413C424.148 111.628 423.789 111.947 423.27 112.458C422.363 113.17 421.333 113.711 420.231 114.053C419.808 114.221 419.433 114.372 419.074 114.524C415.308 116.279 411.256 118.601 409.796 122.502C409.249 124.261 408.966 126.092 408.958 127.935C408.822 130.48 408.671 133.104 407.171 135.227C405.982 136.902 404.179 137.923 402.44 138.912C402.057 139.128 401.642 139.335 401.307 139.559C396.744 142.271 392.029 147.337 392.46 153.44C392.46 154.015 392.587 154.605 392.667 155.171C392.924 156.407 392.97 157.678 392.803 158.929C392.308 161.49 390.274 163.213 388.303 164.872C387.553 165.503 386.787 166.157 386.125 166.835C384.86 168.192 383.886 169.794 383.264 171.542C382.643 173.29 382.386 175.148 382.511 176.999C388.894 166.699 396.401 155.554 403.365 146.085C403.467 145.914 403.587 145.756 403.724 145.614Z" fill="#FF5787"/>
<path d="M451.855 99.8687C450.651 101.097 447.069 104.719 443.63 107.982L448.146 107.057L448.513 106.985L454.536 105.748C453.259 101.967 452.278 100.419 451.855 99.8687Z" fill="white"/>
<path d="M450.778 112.075C451.621 113.21 452.575 114.257 453.626 115.202C454.216 115.672 454.613 116.342 454.743 117.085C454.746 117.247 454.716 117.407 454.654 117.557C454.592 117.707 454.5 117.842 454.384 117.955C453.982 118.271 453.473 118.417 452.964 118.361V117.564C453.264 117.601 453.567 117.536 453.826 117.38C453.864 117.345 453.895 117.301 453.915 117.253C453.936 117.205 453.946 117.153 453.945 117.101C453.823 116.582 453.524 116.122 453.1 115.801C451.398 114.276 449.942 112.497 448.784 110.527C448.634 111.457 448.291 112.346 447.776 113.135C447.261 113.924 446.586 114.596 445.795 115.107C445.003 115.619 444.113 115.958 443.183 116.104C442.252 116.249 441.301 116.198 440.391 115.952L439.992 115.833L439.593 115.689C438.736 115.336 437.96 114.812 437.312 114.149L436.929 114.309L436.633 114.564L436.49 114.436C436.379 114.318 436.256 114.21 436.123 114.117C435.956 113.998 435.776 113.896 435.588 113.814C434.728 113.467 433.768 113.467 432.908 113.814C432.276 114.049 431.735 114.479 431.362 115.041C430.99 115.602 430.805 116.268 430.834 116.941C430.881 118.17 431.99 119.103 433.019 119.574C433.297 119.702 433.585 119.806 433.881 119.885C434.006 119.727 434.151 119.584 434.312 119.462C434.424 119.386 434.541 119.316 434.663 119.255C434.785 119.201 434.91 119.156 435.038 119.119C435.231 119.068 435.429 119.042 435.628 119.04C436.075 119.037 436.512 119.17 436.881 119.423C437.218 119.648 437.488 119.961 437.661 120.328C437.835 120.694 437.907 121.101 437.868 121.505C437.83 121.909 437.683 122.295 437.443 122.622C437.203 122.949 436.879 123.205 436.506 123.364C437.455 126.371 438.046 129.522 436.953 132.466C437.176 132.841 437.479 133.328 437.862 133.902L438.101 134.261L438.349 134.612C441.053 138.505 446.438 144.808 452.358 143.691C452.661 143.085 452.222 139.822 451.56 136.112C450.945 133.998 450.507 131.837 450.252 129.65C450.196 127.113 451.416 126.228 452.701 125.286C454.496 123.97 456.69 122.342 456.69 115.17C456.69 114.556 456.65 113.966 456.602 113.375H456.442C455.461 113.596 454.443 113.593 453.463 113.368C452.482 113.143 451.565 112.701 450.778 112.075ZM446.989 121.712C446.593 121.709 446.199 121.658 445.816 121.561C445.078 121.379 444.419 120.961 443.939 120.371C443.46 119.78 443.186 119.05 443.159 118.29H443.957C443.981 118.874 444.194 119.435 444.564 119.888C444.933 120.341 445.44 120.662 446.007 120.803C446.58 120.967 447.185 120.98 447.764 120.84C448.343 120.7 448.876 120.413 449.31 120.005L449.893 120.547C449.121 121.315 448.077 121.745 446.989 121.744V121.712Z" fill="white"/>
<path d="M519.476 380.738C519.97 379.143 522.148 378.345 523.464 377.364C528.632 373.586 533.29 369.156 537.322 364.184C547.917 351.372 545.795 351.93 554.873 344.582C556.079 343.632 557.539 343.06 559.07 342.939C558.982 342.867 558.902 342.795 558.799 342.724C555.958 340.761 551.922 341.711 549.177 343.522C545.3 346.09 538.327 350.382 534.984 350.382H534.929C533.408 350.437 531.908 350.021 530.633 349.192C529.358 348.362 528.37 347.159 527.804 345.747L527.318 344.638C526.52 344.894 525.786 345.133 525.044 345.348L524.135 345.627C523.927 345.835 523.736 346.042 523.544 346.242C520.966 348.943 518.627 351.863 516.556 354.97C514.934 357.368 513.933 360.131 513.644 363.011C513.5 364.224 513.452 365.333 513.412 366.274C514.003 367.694 514.418 368.716 514.816 369.721C515.71 371.915 516.619 374.18 519.348 380.451C519.385 380.549 519.428 380.645 519.476 380.738Z" fill="#5A51E7"/>
<path d="M402.328 374.109C403.206 374.172 404.219 374.276 405.232 374.396C405.007 374.267 404.798 374.111 404.61 373.933C401.594 370.917 399.736 365.109 399.289 360.985C399.167 359.821 399.143 358.65 399.217 357.483C394.098 357.622 389.087 356.003 385.016 352.895C383.66 351.858 380.533 349.473 379.942 347.534L371.821 364.854C375.714 370.566 386.181 384.735 389.971 384.735H416.298C416.298 384.735 416.354 384.695 416.37 384.679C416.904 384.009 416.792 380.937 416.505 379.653C415.995 377.331 412.612 376.542 409.628 375.84L409.333 375.768C407.53 375.497 404.458 375.05 402.257 374.89C400.046 374.814 397.839 375.13 395.739 375.824L395.468 375.074C397.677 374.338 400.002 374.01 402.328 374.109Z" fill="#5A51E7"/>
<path d="M506.376 362.453C506.44 362.317 506.52 362.165 506.607 361.998C506.934 361.352 507.405 360.482 507.964 359.493C508.139 359.174 508.323 358.847 508.522 358.504C509.32 357.139 510.269 355.631 511.298 354.172C512.401 352.556 513.665 351.056 515.072 349.696C518.574 346.505 521.757 345.516 524.837 344.598L525.339 344.439C525.89 344.271 526.448 344.104 527.007 343.92C526.863 343.553 526.6 342.883 526.265 342.053C525.93 341.223 525.595 340.37 525.148 339.253C524.821 338.455 524.446 337.482 524.047 336.445C522.124 331.523 519.412 324.326 516.189 315.024C502.993 276.978 479.315 216.394 473.188 200.797C472.612 201.316 471.924 201.696 471.178 201.906C468.345 202.775 465.92 202.64 463.997 201.507C462.727 200.739 461.694 199.635 461.014 198.316H460.918C460.722 199.174 460.361 199.987 459.857 200.709C458.086 203.278 454.608 204.977 449.486 205.751C446.925 206.142 443.981 205.304 440.638 204.156C440 209.474 439.364 214.793 438.732 220.111C438.732 222.138 438.476 224.332 438.468 225.082C438.42 228.496 436.506 266.224 436.354 266.2H436.075V266.327H434.025C426.174 266.327 421.611 266.008 414.965 265.529C411.551 265.29 407.737 265.019 402.687 264.732C396.991 293.755 387.833 326.959 382.639 340.338C382.384 340.984 382.144 341.583 381.913 342.125L381.698 342.636L381.522 343.043C381.486 343.125 381.469 343.216 381.474 343.306C381.477 343.403 381.493 343.5 381.522 343.593C381.551 343.7 381.589 343.804 381.634 343.904C382.495 345.843 386.947 349.6 392.244 352.209C395.499 353.805 398.108 354.459 399.576 354.092C399.738 354.049 399.896 353.99 400.047 353.916L400.174 353.845C400.254 353.793 400.328 353.734 400.398 353.669C400.508 353.57 400.602 353.454 400.677 353.326C400.805 353.079 400.94 352.831 401.084 352.576C401.531 351.738 402.025 350.829 402.56 349.848L402.799 349.409C409.596 336.892 421.994 313.995 432.732 286.671C447.539 248.967 448.52 241.428 448.528 241.356L448.688 239.936L448.76 240.096L450.204 231.679C450.204 232.126 459.211 260.096 462.538 270.045L474.002 294.864L506.376 362.453Z" fill="#FF5787"/>
<path d="M423.326 211.75C421.802 212.853 420.152 213.771 418.412 214.487C422.209 214.83 425.991 215.189 429.733 215.556L434.519 216.011C435.03 211.615 435.453 207.235 435.772 202.767L435.517 202.879C431.775 204.227 428.735 207.69 423.326 211.75Z" fill="#FF5787"/>
<path d="M410.976 210.299V210.498L411.024 210.291L410.976 210.299Z" fill="#FF5787"/>
<path d="M453.172 142.327C453.259 142.946 453.19 143.576 452.972 144.162C452.927 144.237 452.867 144.302 452.795 144.353C452.724 144.403 452.643 144.439 452.557 144.457C448.8 145.207 444.699 143.292 440.694 138.912C439.664 137.773 438.705 136.571 437.822 135.314L437.583 134.971L437.351 134.628C437.032 134.157 436.761 133.727 436.554 133.36L436.306 132.961L436.059 132.538L435.907 132.283C435.604 132.283 434.958 132.227 434.064 132.227C432.387 132.231 430.712 132.332 429.046 132.53C430.704 133.898 432.062 135.593 433.035 137.508L433.227 137.867L433.418 138.234C435.261 142.13 436.691 146.207 437.686 150.4C440.327 160.476 441.348 166.021 442.098 177.94C442.584 177.977 443.057 178.117 443.485 178.351C443.913 178.585 444.286 178.907 444.579 179.296C444.85 179.717 444.944 180.227 444.843 180.716C444.806 181.037 444.7 181.346 444.532 181.622C444.364 181.897 444.138 182.133 443.869 182.312C444.274 182.436 444.647 182.647 444.962 182.931C445.276 183.215 445.524 183.565 445.688 183.955C445.824 184.346 445.865 184.762 445.808 185.172C445.751 185.581 445.598 185.971 445.361 186.309C445.11 186.684 444.777 186.998 444.388 187.226H444.444C444.878 187.435 445.26 187.737 445.563 188.111C445.867 188.485 446.084 188.921 446.199 189.388C446.27 189.769 446.259 190.16 446.167 190.535C446.075 190.911 445.904 191.262 445.664 191.566C445.444 191.852 445.174 192.095 444.866 192.284C445.378 192.462 445.814 192.808 446.103 193.266C446.269 193.582 446.355 193.934 446.355 194.291C446.355 194.648 446.269 195 446.103 195.316C445.966 195.644 445.763 195.94 445.506 196.185C445.249 196.431 444.945 196.621 444.611 196.744C443.566 197.071 442.489 197.39 441.42 197.693L441.229 199.289L441.181 199.688L441.133 200.095L440.75 203.286C444.061 204.419 446.957 205.264 449.382 204.881C454.225 204.139 457.519 202.568 459.163 200.199C459.561 199.632 459.858 199 460.04 198.332C460.04 198.188 460.112 198.052 460.144 197.917C460.176 197.781 460.192 197.638 460.208 197.51C460.267 197.086 460.267 196.657 460.208 196.234L461.006 196.066C461.123 196.524 461.284 196.97 461.485 197.398L461.676 197.781C461.74 197.909 461.812 198.036 461.883 198.164C462.481 199.235 463.347 200.131 464.396 200.765C466.159 201.778 468.385 201.89 470.978 201.092C471.715 200.886 472.378 200.477 472.893 199.911C472.993 199.792 473.086 199.666 473.172 199.536C473.269 199.393 473.351 199.24 473.419 199.081C474.377 196.688 472.622 193.393 472.566 193.361V193.266C472.566 193.266 470.523 184.825 469.71 181.411C469.59 180.916 466.862 169.444 467.675 165.351C467.931 164.082 468.13 162.854 468.298 161.657C468.345 161.45 468.377 161.226 468.409 161.011C468.441 160.796 468.505 160.381 468.537 160.078C468.813 157.062 468.261 154.028 466.941 151.302C466.511 150.416 465.992 149.555 465.489 148.717C464.813 147.641 464.213 146.519 463.694 145.359L464.428 145.047C464.93 146.174 465.514 147.262 466.175 148.302C466.686 149.156 467.221 150.042 467.659 150.959C468.948 153.611 469.554 156.542 469.422 159.487L473.778 157.812C486.495 152.969 493.492 150.297 501.509 142.558C522.356 122.438 522.069 99.7568 521.917 87.5666C521.917 87.048 521.917 86.5615 521.917 86.0828C521.917 85.8435 521.917 85.604 521.917 85.3726V85.1732L521.678 85.0057L520.026 83.809C517.096 81.5801 514.012 79.5619 510.796 77.7697L510.429 77.5703L510.349 77.5305L509.663 79.1261C507.27 84.8143 503.847 93.0475 499.579 103.65C497.272 109.323 493.701 114.396 489.139 118.483C484.578 122.569 479.144 125.561 473.252 127.233C469.829 128.19 466.742 129.028 464.069 129.714L451.528 131.924C451.719 132.777 452.047 134.317 452.374 135.969C452.629 137.301 452.876 138.729 453.044 140.029C453.068 140.891 453.148 141.689 453.172 142.327Z" fill="#5A51E7"/>
<path d="M435.907 200.183C435.907 200.047 435.907 199.911 435.907 199.776C435.907 199.64 435.907 199.297 435.907 199.058C434.176 199.441 432.365 199.808 430.427 200.167L430.785 200.238L431.982 200.534L433.091 200.829C434.001 201.084 434.886 201.35 435.748 201.626C435.748 201.275 435.796 200.917 435.812 200.566L435.907 200.183Z" fill="#5A51E7"/>
<path d="M394.67 211.894C399.958 211.97 405.226 211.233 410.29 209.708L410.713 209.573L411.136 209.437C416.435 207.755 421.365 205.08 425.664 201.555L426.198 201.108C426.374 200.964 426.533 200.805 426.701 200.661L427.618 199.863L427.754 199.728H427.937C428.041 193.401 427.937 189.588 427.666 183.477C421.956 183.896 416.228 184.014 410.506 183.828L407.235 183.788H406.285C403.198 183.788 399.983 183.788 396.505 183.86V183.062C398.73 182.998 400.845 182.974 402.887 182.974L408.902 175.531L409.277 175.068L409.636 174.629L418.531 163.628L412.716 183.07C417.772 183.205 422.832 183.069 427.874 182.663C428.565 182.092 429.218 181.477 429.828 180.82C430.347 180.286 430.937 179.671 431.894 178.786C432.166 178.539 432.461 178.227 432.78 177.908C433.554 176.973 434.506 176.2 435.58 175.635C433.506 162.12 432.253 154.541 428.815 145.319C428.193 143.651 428.073 141.33 426.725 139.208C426.653 139.088 426.573 138.968 426.493 138.857C426.414 138.745 426.318 138.625 426.222 138.506C424.911 136.976 423.162 135.884 421.212 135.378C420.169 135.082 419.064 135.082 418.021 135.378C412.554 137.57 407.842 141.303 404.458 146.124C404.382 146.24 404.318 146.363 404.267 146.491L404.219 146.571C397.039 156.304 389.364 167.808 382.846 178.339L382.535 178.85L382.224 179.352C377.94 186.325 374.246 192.827 371.542 198.044C370.106 200.861 371.191 203.821 374.589 206.365C377.988 208.91 383.197 210.761 389.221 211.527C391.028 211.754 392.848 211.876 394.67 211.894Z" fill="#5A51E7"/>
<path d="M562.333 345.524C562.211 344.984 561.961 344.481 561.604 344.057C561.247 343.634 560.794 343.303 560.283 343.091C560.017 342.686 559.672 342.338 559.269 342.069C556.126 339.891 551.722 340.896 548.754 342.867C546.361 344.463 538.264 349.656 534.953 349.592C533.591 349.64 532.247 349.266 531.105 348.522C529.963 347.778 529.078 346.701 528.57 345.436L527.773 343.665C527.637 343.314 527.414 342.739 526.975 341.742C525.379 337.817 521.717 328.618 516.907 314.753C503.6 276.363 479.618 215.029 473.739 200.103C473.891 199.88 474.019 199.642 474.121 199.393C475.167 196.824 473.491 193.497 473.252 193.01C473.076 192.308 471.178 184.466 470.404 181.203C469.43 177.126 467.755 168.598 468.377 165.487C468.688 163.947 468.928 162.455 469.111 161.019C469.111 160.804 469.183 160.588 469.215 160.365L473.922 158.562C486.734 153.671 493.787 150.983 501.924 143.125C523.01 122.773 522.723 99.8685 522.571 87.5586C522.571 86.6252 522.571 85.7636 522.571 84.9738V84.8542C526.688 78.2725 527.741 74.7382 529.169 69.2494C529.376 68.4516 529.584 67.6939 529.783 66.9918C530.369 65.2665 530.728 63.4723 530.852 61.6545C530.852 60.3621 530.054 60.1227 529.823 60.0589C529.487 60.0161 529.147 60.0881 528.857 60.2634C528.567 60.4387 528.345 60.7068 528.227 61.0242C528.116 61.3034 527.725 62.2448 527.246 63.4175C527.797 61.5836 528.239 59.7189 528.57 57.833C528.658 56.5645 527.94 56.2376 527.629 56.1817C527.239 56.1179 526.839 56.1839 526.49 56.3699C526.141 56.5559 525.863 56.8515 525.698 57.2109C525.547 57.5939 524.901 59.4924 524.103 61.6225C524.606 59.4047 525.052 57.3305 525.148 56.5487C525.255 56.154 525.212 55.7337 525.028 55.3686C524.844 55.0034 524.531 54.7192 524.151 54.5702C523.776 54.4587 523.374 54.4767 523.011 54.6214C522.648 54.7662 522.344 55.0292 522.148 55.368C521.418 57.4136 520.795 59.4961 520.281 61.6067C520.577 59.0618 520.848 56.4371 520.88 55.4159C520.88 54.1793 520.25 53.6208 519.675 53.525C519.264 53.4901 518.855 53.6085 518.527 53.8575C518.198 54.1065 517.973 54.4684 517.896 54.8733C517.258 56.8199 515.63 63.7049 514.96 66.569C514.954 66.5997 514.938 66.6276 514.915 66.649C514.893 66.6705 514.864 66.6843 514.833 66.6886C514.801 66.6927 514.769 66.6863 514.742 66.6704C514.714 66.6546 514.693 66.63 514.681 66.6007C513.967 65.0937 513.168 63.6287 512.288 62.2129C512.127 61.9808 511.916 61.7884 511.67 61.6502C511.424 61.512 511.149 61.4315 510.868 61.4151C510.609 61.4542 510.363 61.5533 510.15 61.7043C509.937 61.8553 509.762 62.054 509.639 62.2848C509.081 63.0825 509.384 64.5265 509.838 66.6646C510.187 68.2453 510.454 69.843 510.636 71.4513C510.86 73.5415 510.692 74.0522 510.453 74.7623C510.251 75.3254 510.109 75.9083 510.03 76.5014C510.034 76.5385 510.034 76.5759 510.03 76.613L509.791 76.4934L509.623 76.8843C507.15 82.5726 503.464 91.4998 498.669 103.419C496.415 108.98 492.923 113.954 488.458 117.963C483.992 121.972 478.672 124.911 472.901 126.555C469.494 127.52 466.415 128.35 463.774 129.028L451.137 131.254C451.033 130.727 450.966 130.194 450.938 129.658C450.89 127.544 451.799 126.882 453.06 125.956C454.998 124.544 457.416 122.765 457.336 115.194C457.336 114.508 457.288 113.838 457.232 113.176C458.754 112.625 460.028 111.545 460.82 110.133C461.612 108.721 461.871 107.072 461.548 105.485L461.317 104.384L459.275 104.799C458.943 101.29 457.236 98.0552 454.528 95.7999C451.714 93.6976 448.255 92.6424 444.747 92.8161C439.338 93.2549 437.088 94.9462 435.173 96.8051C432.562 97.5855 430.209 99.0554 428.363 101.06C426.517 103.065 425.245 105.531 424.682 108.198C424.558 108.785 424.467 109.379 424.411 109.977C424.363 110.415 424.363 110.415 423.933 110.774C423.685 110.998 423.318 111.325 422.784 111.851C421.952 112.486 421.015 112.969 420.015 113.279C419.569 113.447 419.154 113.615 418.811 113.774C414.894 115.593 410.681 118.018 409.118 122.223C408.539 124.058 408.241 125.97 408.232 127.895C408.096 130.432 407.961 132.833 406.589 134.764C405.504 136.296 403.78 137.269 402.113 138.218C401.73 138.434 401.315 138.649 400.972 138.872C396.185 141.705 391.279 147.034 391.734 153.496C391.734 154.102 391.869 154.709 391.957 155.291C392.197 156.437 392.24 157.616 392.085 158.777C391.646 161.059 389.803 162.615 387.857 164.266C387.059 164.904 386.317 165.567 385.623 166.277C384.164 167.849 383.073 169.726 382.43 171.773C381.787 173.819 381.608 175.983 381.905 178.108C377.406 185.391 373.48 192.197 370.736 197.622C369.14 200.813 370.265 204.14 374.015 206.948C377.597 209.628 382.95 211.479 389.005 212.261C389.005 212.341 389.005 212.437 389.005 212.508C388.957 212.796 388.734 213.984 388.439 215.524C388.182 216.078 387.969 216.652 387.801 217.239C382.791 233.538 381.035 246.239 379.097 262.402V262.785L379.472 262.841C384.801 263.639 391.486 264.141 400.557 264.62L401.953 264.7C395.834 295.813 385.742 331.826 380.86 342.723C380.723 343.091 380.723 343.496 380.86 343.864L371.079 364.719L370.983 364.926L371.111 365.109C371.677 365.947 385.032 385.533 390.05 385.533H416.377C416.513 385.531 416.646 385.497 416.767 385.435C416.887 385.373 416.991 385.283 417.072 385.174C417.925 384.113 417.59 380.483 417.367 379.478C416.816 376.988 413.896 376.039 410.984 375.329V375.218L409.532 374.986C407.674 374.547 405.958 374.117 405.2 373.391C402.328 370.511 400.549 364.91 400.119 360.929C399.904 358.843 400.012 356.736 400.438 354.682C400.855 354.475 401.198 354.143 401.419 353.733L402.081 352.504H402.233C402.233 352.369 402.289 352.233 402.312 352.098L403.302 350.278C410.059 337.841 422.632 314.697 433.514 287.006C445.273 257.073 448.321 246.223 449.095 242.832C449.35 243.351 449.677 244.021 450.076 244.819L473.276 295.279L506.4 364.32V364.232C506.879 365.397 508.793 365.173 511.33 364.136C512.128 365.628 512.782 367.04 513.285 368.125V368.085L514.083 370.056C514.968 372.25 515.886 374.523 518.614 380.802C518.781 381.284 519.054 381.723 519.412 382.086C520.369 386.61 529.679 385.278 531.642 384.328C538.192 381.249 537.609 380.028 543.042 375.241C549.528 369.529 559.868 357.61 562.141 349.273C562.543 348.064 562.609 346.768 562.333 345.524ZM513.428 366.266C513.428 365.325 513.516 364.216 513.66 363.003C513.95 360.123 514.95 357.36 516.572 354.962C518.644 351.855 520.982 348.935 523.56 346.234C523.752 346.034 523.943 345.827 524.151 345.619L525.06 345.34C525.802 345.125 526.568 344.885 527.334 344.63L527.821 345.739C528.386 347.151 529.374 348.354 530.649 349.184C531.924 350.013 533.425 350.429 534.945 350.374H535.001C538.343 350.374 545.316 346.082 549.193 343.513C551.938 341.694 555.975 340.745 558.815 342.715C558.918 342.787 558.998 342.859 559.086 342.931C557.555 343.052 556.095 343.624 554.89 344.574C545.787 351.922 547.909 351.363 537.338 364.176C533.306 369.148 528.649 373.578 523.481 377.355C522.188 378.313 520.01 379.11 519.492 380.73C519.444 380.639 519.402 380.546 519.364 380.451C516.636 374.18 515.726 371.915 514.833 369.721C514.434 368.723 514.019 367.702 513.428 366.282V366.266ZM462.546 270.037C459.219 260.088 450.22 232.118 450.212 231.671L448.768 240.088L448.696 239.928L448.536 241.348C448.536 241.42 447.547 248.959 432.74 286.663C422.002 313.987 409.604 336.923 402.807 349.401L402.568 349.84C402.033 350.821 401.539 351.73 401.092 352.568C400.948 352.823 400.813 353.071 400.685 353.318C400.61 353.446 400.516 353.562 400.406 353.661C400.336 353.726 400.262 353.785 400.182 353.837L400.055 353.908C399.904 353.982 399.746 354.041 399.584 354.084C398.116 354.451 395.507 353.805 392.252 352.201C386.955 349.592 382.503 345.819 381.642 343.896C381.596 343.795 381.559 343.691 381.53 343.585C381.501 343.492 381.484 343.395 381.482 343.298C381.477 343.207 381.494 343.117 381.53 343.034L381.706 342.628L381.921 342.117C382.152 341.575 382.392 340.976 382.647 340.33C387.841 326.983 397.007 293.747 402.695 264.724C407.745 265.003 411.559 265.274 414.973 265.521C421.619 265.984 426.142 266.319 434.033 266.319H436.083V266.144H436.362C436.514 266.144 438.428 228.44 438.476 225.026C438.476 224.276 438.74 222.082 438.74 220.055C439.378 214.737 440.013 209.418 440.646 204.1C443.989 205.24 446.933 206.078 449.494 205.695C454.576 204.897 458.054 203.222 459.865 200.653C460.369 199.931 460.73 199.118 460.926 198.26H461.022C461.702 199.579 462.735 200.684 464.005 201.451C465.968 202.584 468.393 202.719 471.186 201.85C471.932 201.64 472.62 201.26 473.196 200.741C479.323 216.338 503.001 276.922 516.197 314.968C519.388 324.271 522.132 331.467 524.055 336.389C524.454 337.426 524.853 338.368 525.156 339.197C525.603 340.314 525.954 341.248 526.273 341.997C526.592 342.747 526.871 343.497 527.015 343.864C526.456 344.048 525.898 344.215 525.347 344.383L524.845 344.542C521.765 345.46 518.582 346.409 515.08 349.64C513.673 351 512.409 352.5 511.306 354.116C510.277 355.576 509.328 357.084 508.53 358.448C508.331 358.791 508.147 359.118 507.972 359.437C507.413 360.426 506.942 361.296 506.615 361.942C506.528 362.11 506.448 362.261 506.384 362.397L474.002 294.864L462.546 270.037ZM395.755 375.816C397.855 375.122 400.062 374.806 402.273 374.882C404.474 375.042 407.546 375.489 409.349 375.76L409.644 375.832C412.628 376.534 416.026 377.324 416.521 379.645C416.808 380.93 416.92 384.001 416.385 384.671C416.385 384.671 416.338 384.727 416.314 384.727H389.987C386.213 384.727 375.73 370.558 371.837 364.846L379.942 347.518C380.533 349.457 383.66 351.842 385.016 352.879C389.087 355.987 394.098 357.606 399.217 357.467C399.143 358.634 399.167 359.805 399.289 360.969C399.736 365.093 401.594 370.901 404.61 373.917C404.798 374.095 405.007 374.251 405.232 374.38C404.219 374.26 403.206 374.156 402.328 374.092C400.007 373.999 397.687 374.328 395.483 375.066L395.755 375.816ZM386.07 226.174C385.496 229.85 385.881 233.611 387.188 237.095C388.495 240.578 390.679 243.664 393.529 246.055C395.314 247.488 397.34 248.59 399.512 249.31C399.512 249.414 399.512 249.518 399.512 249.63C399.5 250.828 399.928 251.989 400.715 252.893C401.501 253.797 402.592 254.382 403.78 254.536H404.187H404.331H404.586C405.747 254.461 406.842 253.973 407.674 253.161C408.507 252.349 409.021 251.266 409.126 250.108C409.612 250.036 410.099 249.957 410.586 249.845C416.888 248.433 423.143 243.949 427.746 237.559C429.019 235.766 430.16 233.884 431.161 231.927C430.267 235.309 429.485 238.716 428.815 242.146C427.419 249.326 425.863 257.942 425.416 265.282C421.97 265.146 418.843 264.923 415.045 264.66C411.655 264.42 407.865 264.157 402.863 263.862H402.472H402.057L400.549 263.782C391.726 263.32 385.16 262.865 379.926 262.075C381.458 249.159 382.926 238.412 386.07 226.19V226.174ZM371.462 197.973C374.127 192.755 377.844 186.253 382.144 179.281L382.456 178.778L382.767 178.267C389.285 167.737 396.991 156.232 404.139 146.499L404.187 146.42C404.238 146.291 404.302 146.168 404.379 146.053C407.762 141.231 412.474 137.498 417.941 135.306C418.984 135.01 420.089 135.01 421.132 135.306C423.083 135.812 424.831 136.904 426.142 138.434C426.238 138.553 426.334 138.665 426.414 138.785C426.493 138.904 426.573 139.016 426.645 139.136C427.993 141.234 428.113 143.579 428.735 145.247C432.174 154.453 433.426 162 435.5 175.563C434.426 176.128 433.474 176.901 432.7 177.837C432.381 178.156 432.086 178.467 431.815 178.714C430.857 179.6 430.267 180.214 429.748 180.748C429.138 181.405 428.485 182.021 427.794 182.591C422.752 182.997 417.692 183.133 412.636 182.998L418.452 163.556L409.556 174.558L409.197 174.996L408.822 175.459L402.807 182.902C400.765 182.902 398.651 182.902 396.425 182.99V183.788C399.903 183.684 403.118 183.684 406.206 183.716H407.155L410.426 183.756C416.148 183.942 421.876 183.825 427.586 183.405C427.858 189.516 427.961 193.329 427.858 199.656H427.674L427.539 199.792L426.621 200.589C426.454 200.733 426.294 200.892 426.118 201.036L425.584 201.483C421.285 205.008 416.355 207.683 411.056 209.365L410.633 209.501L410.211 209.636C405.146 211.161 399.878 211.898 394.59 211.822C392.741 211.802 390.895 211.674 389.061 211.439C383.038 210.641 377.844 208.831 374.43 206.278C371.015 203.725 370.026 200.805 371.462 197.989V197.973ZM386.237 166.819C386.899 166.141 387.665 165.487 388.415 164.856C390.386 163.197 392.404 161.474 392.915 158.913C393.082 157.662 393.036 156.391 392.779 155.155C392.699 154.589 392.611 153.999 392.572 153.424C392.141 147.321 396.856 142.255 401.419 139.543C401.794 139.319 402.169 139.112 402.552 138.896C404.291 137.907 406.094 136.886 407.283 135.211C408.783 133.088 408.934 130.424 409.07 127.919C409.078 126.076 409.361 124.245 409.907 122.486C411.367 118.553 415.42 116.231 419.186 114.508C419.521 114.356 419.92 114.205 420.342 114.037C421.444 113.695 422.474 113.154 423.382 112.442C423.901 111.931 424.26 111.644 424.507 111.397C424.736 111.26 424.925 111.064 425.054 110.83C425.183 110.596 425.248 110.332 425.241 110.064C425.241 109.737 425.329 109.267 425.504 108.365C425.985 106.095 427.006 103.974 428.481 102.183C429.956 100.391 431.841 98.9815 433.977 98.0736C433.316 98.7355 432.728 99.4655 432.222 100.252C430.562 103.148 429.501 108.022 430.578 111.173L430.961 111.046L431.336 110.918C430.339 108.014 431.384 103.331 432.932 100.65C433.707 99.5361 434.597 98.5065 435.588 97.5789C435.617 97.5544 435.643 97.5278 435.668 97.4992L436.211 96.9806L436.793 96.4621C438.444 95.0899 440.638 93.949 444.866 93.6059C448.175 93.4396 451.438 94.4359 454.089 96.4222C455.358 97.4791 456.406 98.777 457.171 100.241C457.937 101.704 458.405 103.305 458.549 104.95L455.573 105.565L455.341 105.613C453.977 101.624 452.948 99.9723 452.461 99.35C452.361 99.2205 452.249 99.1004 452.126 98.991L451.887 98.8075L451.64 99.0549L451.361 99.342C448.696 102.062 445.194 105.525 442.21 108.309L440.933 108.572L440.646 108.636H440.527L440.247 108.692H440.112L439.848 108.748L435.381 109.666L435.604 110.766C435.777 111.579 436.093 112.354 436.538 113.056C436.433 113.117 436.32 113.163 436.203 113.192C435.708 112.93 435.165 112.772 434.607 112.729C433.954 112.689 433.301 112.792 432.692 113.032C431.907 113.329 431.235 113.865 430.772 114.566C430.31 115.266 430.08 116.095 430.115 116.933C430.211 117.677 430.509 118.38 430.976 118.966C431.443 119.552 432.061 120 432.764 120.26C433.024 120.377 433.29 120.478 433.562 120.563C433.485 120.784 433.445 121.016 433.442 121.249C433.442 121.848 433.68 122.422 434.103 122.846C434.527 123.269 435.101 123.507 435.7 123.507H435.796C436.665 126.228 437.216 128.956 436.49 131.485H436.274C433.549 131.329 430.814 131.45 428.113 131.844C427.627 131.568 427.11 131.351 426.573 131.198C425.775 130.966 415.324 130.879 412.405 137.373C409.027 139.514 406.114 142.311 403.836 145.598C403.738 145.746 403.655 145.903 403.589 146.069C396.624 155.538 389.141 166.683 382.735 176.983C382.598 175.141 382.839 173.292 383.443 171.547C384.046 169.802 385 168.198 386.245 166.835L386.237 166.819ZM456.578 115.154C456.65 122.334 454.424 123.93 452.589 125.27C451.305 126.212 450.084 127.097 450.14 129.634C450.396 131.821 450.833 133.982 451.448 136.096C452.15 139.806 452.589 143.069 452.246 143.675C446.326 144.792 440.941 138.49 438.237 134.596L437.99 134.245L437.75 133.886C437.367 133.312 437.064 132.825 436.841 132.45C437.934 129.506 437.343 126.355 436.394 123.348C436.768 123.189 437.092 122.933 437.331 122.606C437.571 122.279 437.718 121.893 437.757 121.489C437.795 121.085 437.724 120.678 437.55 120.312C437.376 119.945 437.106 119.632 436.769 119.406C436.4 119.154 435.963 119.021 435.516 119.024C435.317 119.025 435.119 119.052 434.926 119.103C434.798 119.14 434.673 119.185 434.551 119.239C434.43 119.3 434.312 119.37 434.2 119.446C434.039 119.569 433.894 119.711 433.769 119.869C433.474 119.79 433.185 119.686 432.908 119.558C431.879 119.087 430.77 118.154 430.722 116.925C430.693 116.252 430.878 115.586 431.251 115.024C431.623 114.463 432.164 114.033 432.796 113.798C433.656 113.451 434.617 113.451 435.477 113.798C435.665 113.88 435.844 113.982 436.011 114.101C436.144 114.194 436.267 114.301 436.378 114.42L436.522 114.548L436.817 114.293L437.2 114.133C437.848 114.796 438.624 115.32 439.481 115.673L439.88 115.816L440.279 115.936C441.189 116.182 442.14 116.233 443.071 116.088C444.002 115.942 444.892 115.603 445.683 115.091C446.474 114.58 447.149 113.908 447.664 113.119C448.179 112.33 448.522 111.441 448.672 110.511C449.83 112.481 451.286 114.26 452.988 115.785C453.413 116.106 453.712 116.566 453.834 117.085C453.834 117.137 453.824 117.189 453.803 117.237C453.783 117.285 453.752 117.328 453.714 117.364C453.455 117.52 453.152 117.585 452.852 117.548V118.345C453.361 118.401 453.871 118.255 454.272 117.938C454.389 117.826 454.481 117.691 454.542 117.541C454.604 117.391 454.634 117.231 454.631 117.069C454.502 116.326 454.104 115.656 453.514 115.186C452.463 114.241 451.509 113.194 450.666 112.059C451.441 112.681 452.343 113.123 453.308 113.355C454.274 113.587 455.279 113.602 456.251 113.399H456.41C456.538 113.966 456.57 114.564 456.578 115.17V115.154ZM451.44 131.908L463.981 129.698C466.654 129.012 469.742 128.174 473.164 127.217C479.056 125.546 484.49 122.553 489.052 118.467C493.614 114.38 497.184 109.308 499.491 103.634C503.759 93.0316 507.142 84.7984 509.575 79.1102L510.261 77.5146L510.341 77.5545L510.708 77.754C513.924 79.5462 517.008 81.5642 519.938 83.7931L521.59 84.9898L521.829 85.1573V85.3567C521.829 85.5881 521.829 85.8275 521.829 86.0669C521.829 86.5456 521.829 87.0321 521.829 87.5507C521.981 99.7409 522.268 122.422 501.422 142.542C493.444 150.281 486.407 152.914 473.691 157.796L469.335 159.471C469.466 156.526 468.86 153.595 467.572 150.943C467.133 150.026 466.598 149.14 466.088 148.286C465.426 147.246 464.842 146.158 464.341 145.031L463.607 145.343C464.125 146.503 464.725 147.625 465.402 148.701C465.904 149.539 466.423 150.401 466.854 151.286C468.174 154.012 468.725 157.046 468.449 160.062C468.449 160.365 468.369 160.684 468.321 160.995C468.274 161.306 468.258 161.434 468.21 161.641C468.042 162.838 467.843 164.035 467.587 165.335C466.79 169.388 469.502 180.9 469.622 181.395C470.42 184.809 472.478 193.25 472.478 193.25V193.345C472.478 193.345 474.289 196.704 473.332 199.066C473.264 199.225 473.181 199.377 473.084 199.52C472.998 199.65 472.905 199.776 472.805 199.895C472.29 200.461 471.627 200.87 470.89 201.076C468.282 201.874 466.104 201.762 464.309 200.749C463.259 200.115 462.393 199.219 461.796 198.148C461.724 198.021 461.652 197.893 461.588 197.765L461.397 197.382C461.196 196.954 461.036 196.508 460.918 196.05L460.12 196.218C460.18 196.641 460.18 197.071 460.12 197.494C460.12 197.622 460.12 197.765 460.056 197.901C459.993 198.036 459.993 198.172 459.953 198.316C459.77 198.984 459.473 199.616 459.075 200.183C457.432 202.576 454.137 204.124 449.294 204.865C446.901 205.24 443.973 204.395 440.662 203.27L441.045 200.079L441.093 199.672L441.141 199.273L441.332 197.677C442.441 197.374 443.518 197.055 444.523 196.728C444.857 196.605 445.161 196.415 445.418 196.169C445.675 195.924 445.878 195.628 446.015 195.3C446.181 194.984 446.267 194.632 446.267 194.275C446.267 193.918 446.181 193.566 446.015 193.25C445.726 192.792 445.29 192.446 444.779 192.268C445.086 192.08 445.356 191.836 445.577 191.55C445.816 191.247 445.987 190.895 446.079 190.519C446.172 190.144 446.182 189.753 446.111 189.372C445.996 188.905 445.779 188.469 445.476 188.095C445.172 187.721 444.79 187.419 444.356 187.211H444.3C444.689 186.982 445.022 186.668 445.273 186.293C445.51 185.955 445.664 185.565 445.72 185.156C445.777 184.747 445.736 184.33 445.6 183.94C445.436 183.549 445.188 183.199 444.874 182.915C444.56 182.631 444.187 182.42 443.782 182.296C444.05 182.117 444.276 181.881 444.444 181.606C444.613 181.33 444.718 181.021 444.755 180.7C444.857 180.211 444.762 179.701 444.492 179.281C444.198 178.891 443.825 178.569 443.397 178.335C442.969 178.101 442.497 177.961 442.01 177.924C441.261 166.005 440.239 160.461 437.599 150.384C436.603 146.192 435.173 142.114 433.331 138.218L433.139 137.851L432.948 137.492C431.974 135.577 430.616 133.882 428.959 132.514C430.624 132.316 432.3 132.215 433.977 132.211C434.87 132.211 435.516 132.211 435.82 132.267L435.971 132.522L436.218 132.945L436.466 133.344C436.697 133.711 436.968 134.142 437.264 134.612L437.495 134.955L437.734 135.298C438.617 136.555 439.577 137.757 440.606 138.896C444.595 143.276 448.712 145.191 452.469 144.441C452.555 144.423 452.636 144.387 452.708 144.337C452.779 144.286 452.839 144.221 452.884 144.146C453.102 143.56 453.171 142.93 453.084 142.311C453.084 141.657 452.98 140.883 452.868 140.053C452.701 138.753 452.454 137.325 452.198 135.993C451.959 134.333 451.664 132.817 451.44 131.964V131.908ZM510.876 76.5333C510.954 75.9901 511.085 75.4557 511.266 74.9378C511.522 74.14 511.729 73.5575 511.482 71.2998C511.305 69.6722 511.038 68.0555 510.684 66.4572C510.309 64.6621 510.006 63.266 510.373 62.6916C510.524 62.4603 510.756 62.1891 510.987 62.1731C511.219 62.1572 511.53 62.4523 511.785 62.7156C512.631 64.0825 513.398 65.497 514.083 66.9519C514.17 67.1254 514.309 67.2676 514.48 67.359C514.652 67.4504 514.847 67.4865 515.04 67.4624C515.231 67.4366 515.41 67.3535 515.552 67.2238C515.694 67.0941 515.794 66.9241 515.838 66.7365C516.5 63.8804 518.119 57.0273 518.75 55.1126C518.957 54.4824 519.356 54.2431 519.635 54.3149C519.914 54.3867 520.194 54.7936 520.178 55.3919C520.122 57.53 518.885 67.271 518.877 67.3588L519.675 67.5023C520.776 63.1703 522.563 56.4529 522.954 55.7349C523.061 55.5589 523.222 55.4224 523.414 55.3462C523.605 55.2699 523.816 55.2579 524.015 55.3121C524.39 55.4318 524.55 55.8306 524.47 56.4289C524.231 58.3277 521.813 68.3958 521.789 68.4996L522.587 68.723C522.587 68.6192 526.209 58.3995 526.576 57.506C526.67 57.3228 526.817 57.1719 526.998 57.0724C527.178 56.973 527.384 56.9295 527.589 56.9476C527.9 57.0194 527.94 57.4263 527.916 57.7454C527.797 59.5245 524.653 70.0393 524.621 70.151L525.419 70.4142C525.419 70.4142 528.77 62.2369 529.153 61.3195C529.204 61.1778 529.297 61.0551 529.419 60.9681C529.542 60.881 529.689 60.8337 529.839 60.8327C530.062 60.8726 530.198 61.1758 530.214 61.6305C530.084 63.3699 529.732 65.0858 529.169 66.7365C528.977 67.4465 528.77 68.2043 528.555 69.0101C527.15 74.3951 526.161 77.8656 522.124 84.2878L520.529 83.1231C517.497 80.8156 514.297 78.7382 510.955 76.9083C510.836 76.8524 510.86 76.7247 510.876 76.589V76.5333ZM409.118 249.286C409.068 248.356 408.755 247.459 408.216 246.699C407.676 245.939 406.932 245.348 406.07 244.994C405.946 244.937 405.818 244.889 405.687 244.851C405.559 244.851 405.432 244.779 405.296 244.755C404.974 244.684 404.645 244.649 404.315 244.651C403.215 244.661 402.152 245.045 401.299 245.739C400.447 246.434 399.856 247.398 399.624 248.473C397.598 247.777 395.709 246.735 394.039 245.393C391.77 243.472 389.934 241.089 388.655 238.405C387.376 235.72 386.682 232.794 386.62 229.82C386.604 228.333 386.73 226.848 386.995 225.385C387.434 222.704 388.192 219.84 388.846 217.351C389.029 216.673 389.197 216.027 389.356 215.404C389.663 214.79 390.165 214.296 390.784 214C391.43 213.79 392.11 213.707 392.787 213.753H394.335C399.369 213.841 404.466 214.104 409.564 214.479H409.963H410.338C412.468 214.63 414.598 214.806 416.72 214.989C421.052 215.364 425.369 215.787 429.637 216.202L434.384 216.657C434.112 218.954 433.822 221.271 433.514 223.606C433.187 224.619 432.876 225.64 432.573 226.661C431.172 230.316 429.32 233.781 427.06 236.976C422.568 243.215 416.489 247.587 410.37 248.943C409.971 249.199 409.54 249.278 409.118 249.342V249.286ZM434.495 215.955L429.709 215.5C425.967 215.133 422.185 214.774 418.388 214.431C420.128 213.716 421.778 212.797 423.302 211.695C428.711 207.634 431.751 204.171 435.469 202.823L435.724 202.712C435.429 207.243 435.006 211.615 434.495 216.011V215.955ZM428.456 183.11C429.136 182.54 429.781 181.93 430.387 181.283C430.897 180.748 431.48 180.15 432.421 179.273C432.7 179.017 433.003 178.698 433.331 178.363C434.026 177.577 434.832 176.897 435.724 176.345L435.867 176.281C435.867 176.592 435.867 177.079 435.915 177.414V177.613C435.963 179.209 435.979 179.36 436.195 179.448H436.242C436.739 179.6 437.27 179.6 437.766 179.448L441.444 178.65C441.684 178.61 441.93 178.61 442.17 178.65C442.517 178.691 442.853 178.801 443.157 178.974C443.461 179.147 443.728 179.378 443.941 179.655C444.088 179.894 444.139 180.179 444.085 180.453C444.057 180.793 443.907 181.111 443.664 181.35C443.421 181.588 443.1 181.732 442.76 181.754L442.266 181.897V182.543L442.569 182.615C443.766 182.91 444.627 183.269 444.962 184.099C445.047 184.366 445.07 184.648 445.028 184.925C444.987 185.201 444.882 185.465 444.723 185.695C444.324 186.223 443.764 186.606 443.127 186.788L442.705 186.955C442.619 186.986 442.536 187.023 442.457 187.067L442.808 187.785L442.992 187.697C443.382 187.581 443.801 187.618 444.164 187.801C444.485 187.957 444.768 188.18 444.994 188.455C445.219 188.731 445.383 189.052 445.473 189.396C445.52 189.664 445.51 189.938 445.443 190.201C445.375 190.464 445.252 190.709 445.082 190.92C444.915 191.153 444.7 191.348 444.453 191.492C444.206 191.636 443.931 191.727 443.646 191.758L443.239 191.822V192.189V192.588L443.606 192.628C443.964 192.624 444.319 192.701 444.643 192.853C444.968 193.005 445.254 193.228 445.481 193.505C445.586 193.71 445.641 193.937 445.641 194.167C445.641 194.397 445.586 194.625 445.481 194.829C445.291 195.277 444.933 195.632 444.484 195.819C443.51 196.122 442.513 196.417 441.484 196.704C437.774 197.741 433.689 198.643 428.911 199.48H428.815C428.839 193.266 428.735 189.42 428.456 183.174V183.11ZM433.163 200.773L432.054 200.478L430.857 200.183L430.498 200.111C432.437 199.752 434.248 199.385 435.979 199.002C435.979 199.241 435.979 199.48 435.979 199.72C435.979 199.959 435.979 199.991 435.979 200.127V200.526C435.979 200.877 435.979 201.236 435.915 201.587C434.99 201.337 434.072 201.084 433.163 200.829V200.773ZM410.976 210.298L410.929 210.506L410.976 210.298ZM448.473 106.953L448.106 107.025L443.59 107.95C447.036 104.687 450.611 101.065 451.815 99.8367C452.238 100.387 453.203 101.935 454.496 105.716L448.473 106.953ZM434.192 120.747C434.247 120.613 434.319 120.486 434.407 120.372C434.407 120.324 434.479 120.276 434.527 120.228C434.617 120.143 434.716 120.068 434.822 120.005C434.939 119.937 435.066 119.885 435.197 119.853C435.303 119.841 435.41 119.841 435.516 119.853C435.646 119.852 435.775 119.871 435.899 119.909C436.072 119.957 436.234 120.035 436.378 120.14C436.488 120.224 436.587 120.32 436.673 120.428C436.803 120.599 436.894 120.797 436.938 121.008C436.982 121.218 436.979 121.436 436.928 121.645C436.878 121.855 436.782 122.05 436.646 122.217C436.511 122.385 436.341 122.52 436.147 122.614C436.028 122.672 435.901 122.714 435.772 122.741C435.684 122.741 435.604 122.741 435.516 122.741H435.349C434.994 122.7 434.667 122.531 434.429 122.265C434.19 121.998 434.058 121.654 434.057 121.297C434.083 121.115 434.143 120.94 434.232 120.779L434.192 120.747ZM395.571 212.692C396.497 212.692 397.422 212.692 398.355 212.62C402.352 212.411 406.31 211.731 410.147 210.594C410.003 211.543 409.844 212.604 409.668 213.785C404.578 213.418 399.496 213.155 394.462 213.059C394.462 212.931 394.51 212.804 394.526 212.676L395.571 212.692Z" fill="#2B266D"/>
<path d="M446.007 120.787C445.44 120.646 444.933 120.325 444.564 119.872C444.194 119.418 443.981 118.858 443.957 118.273H443.159C443.186 119.033 443.459 119.764 443.939 120.355C444.418 120.945 445.077 121.363 445.816 121.544C446.199 121.642 446.593 121.693 446.989 121.696C448.073 121.704 449.117 121.282 449.893 120.523L449.31 119.981C448.877 120.39 448.344 120.679 447.765 120.82C447.186 120.962 446.58 120.95 446.007 120.787Z" fill="#2B266D"/>
<path d="M428.831 199.656C433.618 198.858 437.694 197.917 441.404 196.88C442.433 196.592 443.43 196.297 444.404 195.994C444.853 195.808 445.211 195.452 445.401 195.005C445.506 194.8 445.561 194.573 445.561 194.343C445.561 194.112 445.506 193.885 445.401 193.68C445.174 193.403 444.888 193.18 444.563 193.029C444.239 192.877 443.884 192.8 443.526 192.803L443.159 192.763V192.364V191.997L443.566 191.933C443.851 191.902 444.126 191.812 444.373 191.667C444.621 191.523 444.835 191.328 445.002 191.096C445.172 190.884 445.295 190.639 445.363 190.376C445.43 190.113 445.441 189.839 445.393 189.572C445.303 189.227 445.14 188.906 444.914 188.631C444.688 188.355 444.405 188.132 444.085 187.976C443.721 187.794 443.302 187.756 442.912 187.873L442.728 187.96L442.377 187.242C442.457 187.199 442.539 187.161 442.625 187.131L443.047 186.963C443.684 186.782 444.244 186.398 444.643 185.87C444.802 185.64 444.907 185.377 444.948 185.1C444.99 184.823 444.967 184.541 444.882 184.274C444.571 183.477 443.71 183.086 442.489 182.791L442.186 182.719V182.073L442.681 181.929C443.021 181.907 443.341 181.764 443.585 181.525C443.828 181.287 443.977 180.968 444.005 180.629C444.059 180.354 444.008 180.069 443.861 179.831C443.648 179.554 443.381 179.322 443.077 179.149C442.773 178.977 442.437 178.867 442.09 178.826C441.85 178.786 441.604 178.786 441.364 178.826L437.686 179.623C437.19 179.775 436.659 179.775 436.163 179.623H436.115C435.899 179.536 435.883 179.416 435.836 177.789V177.589C435.836 177.222 435.835 176.791 435.788 176.456L435.644 176.52C434.752 177.073 433.946 177.753 433.251 178.538C432.924 178.873 432.62 179.193 432.341 179.448C431.4 180.326 430.817 180.924 430.307 181.458C429.701 182.106 429.056 182.716 428.376 183.285C428.655 189.54 428.759 193.385 428.655 199.792L428.831 199.656Z" fill="white"/>
<path d="M402.041 263.902H402.456H402.847C407.849 264.181 411.623 264.444 415.029 264.7C418.827 264.963 421.954 265.186 425.4 265.322C425.847 257.95 427.403 249.318 428.799 242.186C429.469 238.756 430.251 235.349 431.144 231.966C430.144 233.924 429.003 235.806 427.73 237.599C423.127 243.981 416.872 248.473 410.569 249.885C410.083 249.997 409.596 250.076 409.11 250.148C409.005 251.306 408.491 252.389 407.658 253.201C406.826 254.013 405.73 254.501 404.57 254.576H404.315H404.171H403.764C402.576 254.422 401.485 253.837 400.699 252.933C399.912 252.029 399.484 250.868 399.496 249.669C399.496 249.558 399.496 249.454 399.496 249.35C397.324 248.63 395.298 247.528 393.513 246.095C390.663 243.704 388.479 240.618 387.172 237.134C385.865 233.651 385.48 229.89 386.053 226.214C382.91 238.436 381.45 249.183 379.895 262.115C385.128 262.913 391.694 263.36 400.517 263.822L402.041 263.902Z" fill="white"/>
<path d="M427.084 237.128C429.344 233.933 431.196 230.467 432.596 226.813C432.9 225.792 433.211 224.77 433.538 223.757C433.852 221.422 434.142 219.106 434.407 216.808L429.661 216.354C425.393 215.939 421.076 215.516 416.744 215.141C414.614 214.958 412.484 214.782 410.362 214.63H409.987H409.588C404.49 214.255 399.393 213.992 394.359 213.905H392.811C392.134 213.858 391.454 213.942 390.808 214.152C390.189 214.448 389.687 214.942 389.38 215.556C389.221 216.178 389.053 216.824 388.87 217.503C388.216 219.992 387.458 222.856 387.019 225.536C386.754 227 386.628 228.485 386.644 229.972C386.706 232.945 387.4 235.871 388.679 238.556C389.958 241.241 391.794 243.623 394.063 245.545C395.733 246.886 397.622 247.928 399.648 248.624C399.88 247.549 400.47 246.585 401.323 245.891C402.176 245.196 403.239 244.813 404.339 244.803C404.669 244.801 404.998 244.835 405.32 244.906C405.456 244.906 405.583 244.97 405.711 245.002C405.842 245.04 405.97 245.088 406.094 245.146C406.956 245.499 407.7 246.09 408.24 246.85C408.779 247.61 409.092 248.508 409.141 249.438C409.564 249.374 409.995 249.294 410.418 249.199C416.513 247.739 422.592 243.367 427.084 237.128Z" fill="white"/>
<path d="M435.429 122.733H435.596C435.684 122.733 435.764 122.733 435.852 122.733C435.982 122.706 436.107 122.664 436.227 122.606C436.421 122.512 436.591 122.377 436.726 122.209C436.862 122.042 436.958 121.847 437.008 121.637C437.059 121.428 437.062 121.211 437.018 121C436.974 120.789 436.883 120.591 436.753 120.42C436.667 120.312 436.568 120.216 436.458 120.132C436.314 120.027 436.151 119.949 435.979 119.901C435.855 119.863 435.726 119.844 435.596 119.845C435.49 119.833 435.383 119.833 435.277 119.845C435.146 119.878 435.019 119.929 434.902 119.997C434.796 120.06 434.697 120.135 434.607 120.22C434.559 120.268 434.527 120.316 434.487 120.364C434.399 120.478 434.326 120.605 434.272 120.739C434.211 120.902 434.179 121.075 434.176 121.249C434.167 121.607 434.289 121.956 434.52 122.23C434.751 122.503 435.074 122.682 435.429 122.733Z" fill="white"/>
<path d="M389.029 85.0456C386.351 85.0405 383.721 85.7601 381.418 87.1279C381.012 83.4804 379.276 80.1106 376.541 77.6629C373.807 75.2153 370.266 73.8616 366.596 73.8606C362.64 73.8627 358.848 75.4355 356.052 78.233C353.256 81.0306 351.685 84.8239 351.685 88.7792V90.9731C349.611 89.9284 347.322 89.3821 345 89.3775C341.043 89.3775 337.248 90.9493 334.45 93.7471C331.653 96.5449 330.081 100.339 330.081 104.296V105.278H403.948V99.9403C403.942 95.9877 402.367 92.1994 399.57 89.4068C396.773 86.6141 392.982 85.0456 389.029 85.0456Z" fill="white"/>
<path d="M404.347 105.677H329.682V104.296C329.686 100.235 331.301 96.3415 334.173 93.4699C337.045 90.5982 340.938 88.983 344.999 88.9788C347.167 88.9735 349.311 89.4334 351.286 90.3272V88.7316C351.278 84.8646 352.734 81.1377 355.361 78.3C357.988 75.4623 361.592 73.7239 365.448 73.434C369.304 73.1441 373.127 74.324 376.149 76.7369C379.17 79.1499 381.167 82.6172 381.738 86.4419C384.071 85.1815 386.691 84.548 389.343 84.6036C391.994 84.6592 394.586 85.4019 396.864 86.759C399.142 88.116 401.03 90.0412 402.341 92.346C403.653 94.6509 404.344 97.2565 404.347 99.9085V105.677ZM330.48 104.879H403.549V99.9404C403.548 97.378 402.869 94.8615 401.581 92.6464C400.293 90.4313 398.442 88.5966 396.215 87.3285C393.988 86.0604 391.466 85.4041 388.903 85.4263C386.341 85.4486 383.83 86.1485 381.626 87.4551L381.091 87.7741L381.028 87.1598C380.604 83.4833 378.792 80.1076 375.962 77.7221C373.133 75.3367 369.499 74.1218 365.804 74.3255C362.109 74.5292 358.631 76.1361 356.081 78.8181C353.531 81.5001 352.101 85.0546 352.084 88.7554V91.5956L351.501 91.3085C349.485 90.2911 347.258 89.7635 344.999 89.7686C341.15 89.7728 337.459 91.3041 334.737 94.0261C332.015 96.7482 330.484 100.439 330.48 104.289V104.879Z" fill="#2B266D"/>
</svg>
