<svg width="800" height="400" viewBox="0 0 800 400" fill="none" xmlns="http://www.w3.org/2000/svg">
<g clip-path="url(#clip0_3820_6806)">
<path d="M549.24 179.46L550.04 78.8299C550.04 74.2399 545.75 70.4699 541.24 70.5899C540.091 70.2714 538.887 70.2032 537.71 70.3899L441 84.0099C438.46 84.3899 436.47 87.4899 436.47 91.0099V173.3C436.47 176.83 438.47 179.98 441.01 180.49L536.9 187.49C537.473 187.608 538.056 187.668 538.64 187.67C540.298 187.685 541.912 187.139 543.22 186.12C546.44 185.08 549.21 182.61 549.24 179.46ZM538.34 186.71C537.904 186.694 537.469 186.644 537.04 186.56L473.04 181.88L441.12 179.54C439.12 179.14 437.44 176.35 437.44 173.34V91.0499C437.44 90.8199 437.44 90.5899 437.44 90.3599C437.524 89.2744 437.834 88.2184 438.35 87.2599C438.6 86.6999 438.975 86.2049 439.447 85.813C439.918 85.4211 440.474 85.1429 441.07 84.9999L514.07 74.7199L519.93 73.8899L537.77 71.3799C538.157 71.3205 538.548 71.2904 538.94 71.2899C540.564 71.2686 542.139 71.8412 543.37 72.8999C544.134 73.5826 544.738 74.4245 545.14 75.3661C545.543 76.3078 545.734 77.3264 545.7 78.3499L545.07 180.13C545.096 181.117 544.9 182.097 544.495 182.997C544.089 183.898 543.486 184.695 542.73 185.33C541.489 186.319 539.924 186.811 538.34 186.71Z" fill="#2B266D"/>
<path d="M545.07 180.13L545.82 78.3501C545.854 77.3266 545.663 76.308 545.26 75.3664C544.858 74.4247 544.253 73.5828 543.49 72.9001C542.259 71.8414 540.684 71.2688 539.06 71.2901C538.668 71.2906 538.277 71.3207 537.89 71.3801L520.05 73.8901L514.19 74.7201V74.8301L476.64 172.83L473.15 181.92L537.15 186.6C537.579 186.684 538.013 186.734 538.45 186.75C540.024 186.844 541.577 186.352 542.81 185.37C543.557 184.723 544.148 183.916 544.54 183.009C544.931 182.101 545.112 181.117 545.07 180.13Z" fill="#7169EA"/>
<path d="M514.07 74.8302V74.7202L441.07 85.0002C440.474 85.1432 439.918 85.4214 439.447 85.8133C438.975 86.2052 438.6 86.7002 438.35 87.2602C437.834 88.2187 437.524 89.2747 437.44 90.3602C437.44 90.5902 437.44 90.8202 437.44 91.0502V173.34C437.44 176.34 439.09 179.14 441.12 179.54L473.04 181.88L476.53 172.79L514.07 74.8302Z" fill="#B8B4F5"/>
<path d="M390.897 204.602L390.753 205.592L540.605 227.399L540.749 226.41L390.897 204.602Z" fill="#2B266D"/>
<path d="M544.494 226.789L544.344 227.777L554.823 229.37L554.974 228.381L544.494 226.789Z" fill="#2B266D"/>
<path d="M558.712 229.025L558.574 230.015L563.308 230.674L563.446 229.683L558.712 229.025Z" fill="#2B266D"/>
<path d="M517.4 199.47L514.56 199.2L456.12 193.66L440.85 198.84L442.66 199.06L501.95 206.33L517.4 199.47Z" fill="#B8B4F5"/>
<path d="M518.49 198.58L456.07 192.66H455.96L439.23 198.34C439.111 198.41 439.017 198.515 438.958 198.64C438.899 198.764 438.879 198.904 438.9 199.04C438.908 199.118 438.932 199.192 438.97 199.26V201.74L503.19 209.8L519.45 202.61L519.08 199.55C519.121 199.443 519.136 199.328 519.124 199.214C519.113 199.1 519.075 198.99 519.014 198.893C518.953 198.796 518.87 198.715 518.772 198.655C518.674 198.596 518.564 198.56 518.45 198.55L518.49 198.58ZM440.85 198.84L456.12 193.66L514.56 199.2L517.4 199.47L501.95 206.34L442.66 199.06L440.85 198.84Z" fill="#2B266D"/>
<path d="M352.07 101.24C348.47 106.07 348.42 109.67 346.71 111.46C344.63 113.628 342.087 115.297 339.27 116.34C339.4 116.45 339.55 116.54 339.68 116.66L339.35 117.03L339.02 117.41C338.776 117.197 338.519 117 338.25 116.82C337.336 116.204 336.299 115.796 335.211 115.623C334.122 115.45 333.009 115.518 331.95 115.82C331.44 115.956 330.959 116.183 330.53 116.49C330.471 116.52 330.414 116.553 330.36 116.59C330.272 116.672 330.188 116.759 330.11 116.85C329.957 117.007 329.82 117.177 329.7 117.36C329.216 118.123 328.956 119.007 328.95 119.91C328.932 120.544 329.038 121.176 329.26 121.77C329.55 122.515 330.006 123.184 330.593 123.727C331.181 124.269 331.884 124.67 332.65 124.9L333.01 124.99L333.24 125.05C333.438 125.088 333.639 125.112 333.84 125.12C334.299 125.17 334.761 125.17 335.22 125.12C336.317 124.942 337.374 124.569 338.34 124.02L338.58 124.46L338.83 124.89C337.912 125.408 336.921 125.782 335.89 126C335.38 126.111 334.861 126.175 334.34 126.19C334.92 127.35 335.5 128.54 336.03 129.78C336.91 131.78 336.6 136.12 335.8 141.22H336.26C338.312 141.444 340.328 141.925 342.26 142.65C348.072 144.933 353.226 148.624 357.26 153.39C354.62 146.76 351.93 138.99 352.88 136.84C353.615 135.512 354.701 134.412 356.02 133.66C356.39 133.41 356.76 133.15 357.11 132.88C358.316 131.923 359.292 130.707 359.965 129.323C360.638 127.938 360.992 126.42 361 124.88V124.39C361 124.22 361 124.04 361 123.86C360.262 123.979 359.517 124.046 358.77 124.06C358.314 124.06 357.859 124.019 357.41 123.94C355.823 123.47 354.486 122.391 353.69 120.94L354.59 120.5C355.241 121.672 356.314 122.552 357.59 122.96C358.745 123.112 359.918 123.072 361.06 122.84C361.113 122.433 361.242 122.04 361.44 121.68C361.998 120.899 362.768 120.295 363.66 119.94L363.94 119.79C365.145 119.16 366.261 118.373 367.26 117.45C367.554 117.203 367.792 116.896 367.96 116.55C368.033 116.21 368.016 115.857 367.911 115.526C367.806 115.194 367.616 114.896 367.36 114.66C366.954 114.28 366.508 113.945 366.03 113.66C365.79 113.5 365.54 113.34 365.31 113.16C363.13 111.56 361.92 109.16 360.76 106.74C360.4 106.02 360.04 105.29 359.66 104.59C358.377 102.227 356.537 100.212 354.3 98.7202C353.51 99.5176 352.765 100.359 352.07 101.24ZM357.13 110.17C357.57 110.17 357.94 110.71 357.95 111.4C357.96 112.09 357.61 112.64 357.17 112.64C356.73 112.64 356.36 112.1 356.36 111.42C356.36 110.74 356.64 110.17 357.07 110.17H357.13Z" fill="#FF5787"/>
<path d="M424.82 154.72C424.322 155.816 423.9 156.945 423.56 158.1C424.833 156.973 426.194 155.949 427.63 155.04C427.608 154.709 427.52 154.386 427.37 154.09C427.31 153.938 427.218 153.801 427.101 153.687C426.983 153.574 426.844 153.486 426.69 153.43C426.571 153.392 426.444 153.38 426.32 153.395C426.196 153.411 426.076 153.453 425.97 153.52C425.5 153.826 425.106 154.237 424.82 154.72Z" fill="#FF5787"/>
<path d="M320.33 364.67L288.33 386.3C290.97 386.52 299.05 386.91 322.92 386.79C346.79 386.67 355.16 386.23 358.02 386.01L326.83 365.55L326.43 311.75C324.39 311.597 322.36 311.387 320.34 311.12L320.33 364.67Z" fill="white"/>
<path d="M443.55 362.93C443.35 361.72 443.19 360.42 443.08 359.2L398.87 365.34L399.24 386.24L462.18 386.54C462.18 383.254 461.302 380.027 459.637 377.193C457.972 374.359 455.581 372.021 452.71 370.42C451.19 369.54 449.9 368.93 448.77 368.42C445.85 366.98 444.07 366.14 443.55 362.93Z" fill="#5A51E7"/>
<path d="M480.56 361.89C484.09 358.8 503.56 348.35 514.03 342.07C520.13 338.41 527.73 335.88 531.48 335.99L531.72 335.84C531.19 334.53 528.64 329.99 518.36 330.2C516.653 330.252 514.95 330.402 513.26 330.65C510.1 331.07 507.81 331.37 505.8 329.05C504.8 327.89 503.43 326.18 502.14 324.49L501.98 324.28C499.44 325.54 491.98 329.28 484.26 333.75C477.768 337.487 472.179 342.608 467.89 348.75L477.39 366.15C478.132 364.521 479.212 363.068 480.56 361.89Z" fill="#5A51E7"/>
<path d="M444.55 341.17C441.07 330.17 426.14 282.79 421.06 266.04L416.53 255.63C414.32 255.12 397.7 251.32 381.22 247.43C373.88 245.69 368.05 244.29 363.38 243.15C359.61 249.93 351.16 263.05 337.74 272.9C333.296 276.104 328.518 278.816 323.49 280.99C323.661 283.414 324.274 285.787 325.3 287.99C327.99 293.14 334.11 295.46 339.84 296.46C340.473 296.573 341.113 296.673 341.76 296.76C347.27 296.69 353.01 296.65 358.54 296.64L359.33 296.53C362.45 296 366.24 295.53 368.95 296.64C379.39 296.64 387.65 296.73 389.79 296.75H389.91V296.7L391.27 296.75H404.4V297.75H399.61L392.09 308.75L397.33 356.58H397.42L399.94 356.52L409.63 356.3L419.32 356.08L442.82 355.54H443.82H444.96C444.9 353.94 444.77 348.84 444.55 341.17Z" fill="#FBC63C"/>
<path d="M457.18 346.73C458.718 344.592 460.388 342.551 462.18 340.62C467.055 335.244 472.845 330.775 479.28 327.42C483.122 325.459 487.14 323.862 491.28 322.65L492.11 322.42C492.11 322.34 492.04 322.27 492.01 322.19C491.49 321.06 491.01 319.94 490.44 318.81L489.6 317.01C479.96 296.29 469.6 275.93 458.18 256.14C451.67 244.9 444.51 233.6 435.94 223.87L435.34 223.77C429.06 222.77 411.56 225.99 394.41 229.84C392.375 231.331 390.036 232.355 387.56 232.84C385.647 233.121 383.701 233.084 381.8 232.73C375.86 234.16 370.35 235.54 365.85 236.73L366.12 237.67C366.12 237.67 365.74 237.42 365.12 236.93L365.75 238.16L365.87 238.38L365.77 238.6C365.77 238.65 365.68 238.82 365.54 239.1C365.26 239.68 364.75 240.73 363.98 242.15C379.04 245.84 400.59 250.86 417.1 254.62L417.35 254.67L420.48 261.88L443.9 315.82L444.43 317.04L444.97 318.28L456.87 345.7L457.18 346.73Z" fill="#FBC63C"/>
<path d="M489.57 317.01L490.41 318.81C490.93 319.94 491.41 321.06 491.98 322.19C491.98 322.27 492.05 322.34 492.08 322.42H492.17C492.41 322.35 492.63 322.3 492.86 322.25C493.37 322.12 493.86 322.01 494.33 321.91C496.078 321.528 497.854 321.291 499.64 321.2H500.96C500.76 320.72 500.47 320.01 500.09 319.11C495.19 307.26 475.75 261.33 458.81 236.85C452.66 227.96 443.81 225.27 435.91 223.85C444.48 233.58 451.64 244.85 458.15 256.12C469.6 275.93 479.93 296.29 489.57 317.01Z" fill="white"/>
<path d="M437.21 174.54C438.706 172.562 440.059 170.48 441.26 168.31C441.276 168.269 441.3 168.232 441.33 168.2C441.932 166.86 442.949 165.749 444.23 165.03L444.71 165.9C443.66 166.488 442.821 167.39 442.31 168.48C442.304 168.584 442.27 168.684 442.21 168.77L442.13 168.9C442.018 169.186 441.927 169.48 441.86 169.78H441.8C441.748 169.991 441.744 170.21 441.787 170.423C441.83 170.636 441.92 170.836 442.05 171.01C442.31 171.24 442.85 171.01 443.48 170.42C444.221 169.728 445.025 169.105 445.88 168.56C447.35 167.56 448.16 167.01 448.13 165.18C448.111 164.648 447.978 164.126 447.74 163.65C447.26 162.75 445.88 162.65 444.74 162.65C443.54 162.488 442.321 162.746 441.29 163.38L440.66 162.61C441.77 161.69 443.23 161.61 444.76 161.61C445.306 161.613 445.851 161.659 446.39 161.75C443.95 159.7 440.2 159.39 437.55 160.04L437.32 159.04C439.4 158.545 441.572 158.589 443.63 159.17L443.2 158.92C441.907 158.006 440.382 157.475 438.8 157.39C437.429 157.416 436.068 157.621 434.75 158C434.634 158.031 434.51 158.02 434.402 157.967C434.293 157.915 434.208 157.825 434.16 157.714C434.113 157.604 434.107 157.479 434.144 157.365C434.18 157.25 434.257 157.152 434.36 157.09C436.984 155.691 439.777 154.636 442.67 153.95C443.37 153.79 444.13 153.66 444.86 153.53C446.51 153.25 448.39 152.92 448.86 152.25C448.909 152.168 448.939 152.076 448.948 151.981C448.956 151.885 448.943 151.79 448.91 151.7C448.86 151.49 448.61 151.29 448.2 151.12C445.27 149.94 435.89 151.22 428.96 155.43L428.61 155.65L428.32 155.83L427.32 156.5C425.805 157.525 424.395 158.698 423.11 160L422.74 160.37L422.46 160.68C421.46 161.79 420.46 162.99 419.39 164.35L433.04 179.55C433.97 178.4 436.07 176.11 437.21 174.54Z" fill="#FF5787"/>
<path d="M310.68 203.49C315.68 208.61 316.68 216.32 317.45 223.49L318.53 233.85L318.59 234.35C318.59 234.52 318.59 234.69 318.64 234.86L323.35 279.73C323.355 279.817 323.355 279.903 323.35 279.99C328.211 277.871 332.831 275.236 337.13 272.13C350.25 262.5 358.57 249.7 362.36 242.94L362.61 242.48L362.86 242.03C363.54 240.79 364.03 239.81 364.34 239.17L364.57 238.69L364.65 238.52C364.65 238.44 364.54 238.31 364.47 238.18C364.4 238.05 364.19 237.63 364.01 237.25C363.93 237.11 363.86 236.95 363.78 236.79C363.7 236.63 363.63 236.49 363.56 236.32C363.49 236.15 363.27 235.73 363.12 235.4C356.519 229.298 351.713 221.507 349.22 212.87C345.22 199.87 342.22 189.11 342.22 189.11C344.22 193.43 351.78 202.92 355.69 207.7V207.58L356.6 208.73C357.02 209.25 357.41 209.73 357.82 210.28L358.07 210.57L359.81 212.78C366.97 221.93 373.33 230.05 381.63 231.78C382.07 231.867 382.51 231.937 382.95 231.99C383.527 232.062 384.108 232.099 384.69 232.1C385.566 232.11 386.442 232.057 387.31 231.94C388.676 231.703 389.993 231.244 391.21 230.58C391.72 230.32 392.21 230.03 392.75 229.71C393.29 229.39 393.56 229.19 393.97 228.9C408.82 218.61 429.17 186.03 432.26 181L432.47 180.66L432.16 180.32L430.64 178.62L418.59 165.21L414.96 169.21L414.09 170.21L389.2 197.88L388.82 197.46C383.662 191.412 378.825 185.096 374.33 178.54C373.23 176.94 372.21 175.46 371.24 174.03C368.11 169.45 365.33 165.37 360.92 159.68L359.74 158.17C359.36 157.68 358.97 157.17 358.56 156.67L357.39 155.21C353.457 150.138 348.26 146.19 342.32 143.76C340.327 142.966 338.234 142.451 336.1 142.23C335.93 142.23 335.75 142.23 335.58 142.23H335.08H334.57H334.4C331.029 142.153 327.757 143.373 325.26 145.64C313.7 156.07 306.83 165.37 299.05 189.98C298.61 191.4 298.19 192.98 297.8 194.6C297.71 194.96 297.62 195.32 297.54 195.7C299.13 196.57 300.62 197.41 301.92 198.04C305.07 199.4 308.24 201.01 310.68 203.49Z" fill="#5A51E7"/>
<path d="M357.12 112.64C357.56 112.64 357.9 112.08 357.9 111.4C357.9 110.72 357.52 110.16 357.08 110.17C356.64 110.18 356.3 110.73 356.31 111.42C356.32 112.11 356.68 112.65 357.12 112.64Z" fill="#2B266D"/>
<path d="M532.88 336.22L532.81 335.94C532.74 335.66 530.91 329 518.34 329.2C516.593 329.249 514.849 329.402 513.12 329.66C510.06 330.06 508.21 330.31 506.55 328.4C505.47 327.15 503.98 325.26 502.6 323.4L501.86 322.4C501.865 322.337 501.865 322.273 501.86 322.21L502.56 322.32L502.23 321.5C502 320.93 479.23 264.41 459.67 236.2C453.16 226.78 443.8 224.1 435.51 222.72C429.32 221.72 412.96 224.63 396.51 228.27C412.44 215.81 432.64 182.45 433.66 180.76L433.85 180.45L433.67 180.25C434.67 179.13 436.82 176.74 438.07 175.08C438.41 174.62 439.76 172.79 440.96 170.89C441.049 171.19 441.215 171.463 441.44 171.68C441.77 171.97 442.71 172.51 444.23 171.06C444.94 170.415 445.699 169.826 446.5 169.3C448.02 168.3 449.22 167.46 449.19 165.09C449.088 163.751 448.554 162.481 447.67 161.47C447.642 161.435 447.608 161.405 447.57 161.38C446.985 160.632 446.343 159.93 445.65 159.28C445.254 158.925 444.813 158.623 444.34 158.38L443.67 157.99C442.267 157.02 440.623 156.456 438.92 156.36C438.72 156.35 438.52 156.35 438.32 156.36C439.811 155.773 441.342 155.292 442.9 154.92C443.58 154.76 444.32 154.63 445.04 154.51C447.17 154.14 449.04 153.83 449.67 152.78C449.794 152.583 449.875 152.361 449.906 152.13C449.937 151.898 449.918 151.663 449.85 151.44C449.746 151.143 449.572 150.875 449.345 150.658C449.117 150.441 448.841 150.281 448.54 150.19C445.06 148.78 435.45 150.38 428.6 154.46C428.536 154.193 428.449 153.932 428.34 153.68C428.224 153.395 428.048 153.139 427.823 152.928C427.599 152.718 427.332 152.558 427.04 152.46C426.784 152.376 426.512 152.35 426.244 152.382C425.976 152.415 425.719 152.507 425.49 152.65C424.857 153.056 424.335 153.613 423.97 154.27C423.224 155.949 422.622 157.689 422.17 159.47C420.807 160.898 419.531 162.408 418.35 163.99L389.35 196.26C387.87 194.54 382.12 187.72 375.29 177.86L372.07 173.4C368.43 168.06 365.25 163.4 359.44 156.08C356.08 147.99 352.93 139.08 353.78 137.19C354.441 136.03 355.406 135.072 356.57 134.42C356.96 134.16 357.34 133.89 357.7 133.61C359.027 132.559 360.1 131.224 360.841 129.702C361.582 128.181 361.971 126.512 361.98 124.82C361.98 124.65 361.98 124.48 361.98 124.31C361.876 123.573 361.98 122.821 362.28 122.14C362.749 121.527 363.379 121.056 364.1 120.78L364.38 120.63C365.668 119.961 366.859 119.12 367.92 118.13C368.349 117.783 368.692 117.342 368.92 116.84C369.069 116.325 369.07 115.779 368.926 115.263C368.781 114.748 368.495 114.282 368.1 113.92C367.648 113.48 367.148 113.09 366.61 112.76C366.37 112.61 366.14 112.45 365.92 112.29C363.92 110.83 362.84 108.6 361.68 106.23C361.31 105.49 360.95 104.75 360.56 104.04C359.223 101.576 357.313 99.4698 354.99 97.9C355.031 97.8409 355.065 97.7771 355.09 97.71C342.55 87.71 326.37 95.52 323.09 105.76C321.586 109.891 321.422 114.39 322.62 118.62C318.62 118.81 314.67 120.78 311.39 124.56C309.364 126.952 307.943 129.795 307.246 132.852C306.55 135.908 306.6 139.087 307.39 142.12C300.39 143.12 294.49 147.56 290.59 153.51C277.73 173.14 291.59 193.42 296.91 194.42C296.86 194.63 296.81 194.83 296.77 195.04C291.77 192.36 285.85 189.68 281.29 192.04C274.85 195.32 275.24 205.04 274.67 211.1C272.899 230.126 272.461 249.253 273.36 268.34C273.62 273.74 274.01 279.25 276.07 284.25C277.784 288.171 280.251 291.718 283.33 294.69C291.56 302.93 302.7 307.82 314.11 310.15C315.87 310.51 317.64 310.8 319.42 311.05V364.19L285.91 386.84L286.91 387.16C287 387.16 289.34 387.87 314.35 387.87H323.04C355.37 387.7 359.53 386.96 359.69 386.93L360.89 386.7L327.89 365.09L327.5 311.91C334.631 312.305 341.779 312.305 348.91 311.91C354.03 311.67 359.2 311.33 364.11 309.84C366.539 309.239 368.758 307.987 370.53 306.22C372.19 304.36 372.96 301.54 371.84 299.31C371.546 298.725 371.142 298.203 370.65 297.77C380.46 297.77 388.08 297.86 389.95 297.88L396.5 357.71H397.57L397.88 361.4L398.34 387.4L463.2 387.71V387.25C463.296 383.692 462.415 380.175 460.651 377.082C458.888 373.99 456.311 371.44 453.2 369.71C451.64 368.81 450.34 368.19 449.2 367.64C446.29 366.25 444.97 365.64 444.52 362.92C444.17 360.82 443.97 358.46 443.86 356.68H445.96V356.17C445.96 355.98 445.58 342.05 444.96 321.29L456.96 349.01L457.09 348.81C458.39 351.2 462.21 350.88 466.86 349.29L467.21 349.92V349.87L476.91 367.63C476.57 369.29 477.25 370.44 479.62 370.01C484.47 369.13 513.93 351.77 520.14 347.55C530.47 340.4 535.07 337.11 532.88 336.22ZM452.71 370.4C455.581 372.001 457.972 374.339 459.637 377.172C461.302 380.006 462.18 383.233 462.18 386.52L399.24 386.22L398.87 365.32L443.07 359.2C443.18 360.42 443.34 361.72 443.54 362.93C444.07 366.14 445.84 366.98 448.76 368.38C449.9 368.93 451.19 369.54 452.71 370.4ZM443.45 355.51H442.81L419.31 356.05L409.62 356.27L399.93 356.49L397.41 356.55H397.32L392.07 308.76L399.59 297.76H404.38V296.76H391.25L389.89 296.71V296.76H389.77C387.63 296.76 379.37 296.67 368.93 296.65C366.22 295.53 362.43 296.01 359.31 296.54L358.52 296.65C352.99 296.65 347.25 296.7 341.74 296.77C341.073 296.677 340.434 296.577 339.82 296.47C334.09 295.47 327.97 293.15 325.28 288C324.254 285.797 323.641 283.424 323.47 281C328.498 278.826 333.276 276.114 337.72 272.91C351.14 263.06 359.59 249.91 363.36 243.16C368.03 244.3 373.86 245.7 381.2 247.44C397.68 251.33 414.3 255.13 416.51 255.64L421.04 266.05C426.12 282.8 441.04 330.17 444.53 341.18C444.75 348.85 444.88 353.95 444.93 355.51H443.79H443.45ZM359.67 104.51C360.05 105.21 360.41 105.94 360.77 106.66C361.93 109.03 363.14 111.48 365.32 113.08C365.55 113.26 365.8 113.42 366.04 113.58C366.518 113.865 366.964 114.2 367.37 114.58C367.626 114.816 367.816 115.114 367.921 115.445C368.026 115.777 368.043 116.13 367.97 116.47C367.802 116.816 367.564 117.122 367.27 117.37C366.271 118.293 365.155 119.08 363.95 119.71L363.67 119.86C362.779 120.215 362.008 120.819 361.45 121.6C361.252 121.96 361.124 122.353 361.07 122.76C359.928 122.992 358.756 123.032 357.6 122.88C356.324 122.471 355.251 121.592 354.6 120.42L353.7 120.86C354.496 122.311 355.833 123.389 357.42 123.86C357.869 123.939 358.324 123.979 358.78 123.98C359.527 123.966 360.272 123.899 361.01 123.78C361.01 123.96 361.01 124.14 361.01 124.31V124.8C361.002 126.34 360.648 127.858 359.975 129.243C359.302 130.627 358.326 131.843 357.12 132.8C356.77 133.07 356.4 133.33 356.03 133.58C354.711 134.332 353.625 135.432 352.89 136.76C351.94 138.91 354.63 146.68 357.27 153.31C353.236 148.544 348.082 144.853 342.27 142.57C340.338 141.844 338.322 141.364 336.27 141.14H335.81C336.61 136.04 336.92 131.73 336.04 129.7C335.51 128.46 334.93 127.27 334.35 126.11C334.872 126.095 335.391 126.031 335.9 125.92C336.931 125.702 337.923 125.328 338.84 124.81L338.59 124.38L338.35 123.94C337.384 124.489 336.327 124.862 335.23 125.04C334.771 125.09 334.309 125.09 333.85 125.04C333.649 125.032 333.448 125.008 333.25 124.97L333.02 124.91L332.66 124.82C331.894 124.59 331.191 124.189 330.604 123.647C330.016 123.104 329.56 122.435 329.27 121.69C329.048 121.096 328.943 120.464 328.96 119.83C328.967 118.927 329.226 118.043 329.71 117.28C329.83 117.097 329.967 116.926 330.12 116.77C330.198 116.679 330.282 116.592 330.37 116.51C330.425 116.473 330.481 116.44 330.54 116.41C330.969 116.103 331.45 115.876 331.96 115.74C333.02 115.438 334.133 115.37 335.221 115.543C336.309 115.716 337.346 116.124 338.26 116.74C338.529 116.92 338.787 117.117 339.03 117.33L339.36 116.95L339.69 116.58C339.56 116.46 339.41 116.37 339.28 116.26C342.097 115.216 344.641 113.548 346.72 111.38C348.43 109.59 348.48 105.99 352.08 101.16C352.792 100.246 353.557 99.3749 354.37 98.55C356.595 100.072 358.415 102.114 359.67 104.5V104.51ZM297.85 194.4C298.24 192.74 298.66 191.2 299.1 189.78C306.88 165.17 313.75 155.87 325.31 145.44C327.807 143.173 331.079 141.953 334.45 142.03H334.62H335.13H335.63C335.8 142.03 335.98 142.03 336.15 142.03C338.284 142.251 340.377 142.766 342.37 143.56C348.31 145.99 353.507 149.938 357.44 155.01L358.61 156.47C359.02 156.98 359.41 157.47 359.79 157.97L360.97 159.48C365.38 165.17 368.16 169.25 371.29 173.83C372.29 175.26 373.29 176.74 374.38 178.34C378.871 184.944 383.708 191.306 388.87 197.4L389.25 197.82L414.14 170.15L415.01 169.15L418.64 165.15L430.69 178.56L432.21 180.26L432.52 180.6L432.31 180.94C429.22 185.94 408.87 218.55 394.02 228.84C393.61 229.13 393.2 229.4 392.8 229.65C392.4 229.9 391.8 230.26 391.26 230.52C390.043 231.184 388.726 231.643 387.36 231.88C386.492 231.997 385.616 232.05 384.74 232.04C384.158 232.039 383.577 232.002 383 231.93C382.56 231.883 382.12 231.813 381.68 231.72C373.38 230.02 367.02 221.9 359.86 212.72L358.12 210.51L357.87 210.22C357.46 209.7 357.07 209.22 356.65 208.67L355.74 207.52V207.64C351.83 202.86 344.26 193.37 342.27 189.05C342.27 189.05 345.27 199.78 349.27 212.81C351.763 221.447 356.57 229.238 363.17 235.34C363.32 235.67 363.47 235.98 363.61 236.26C363.75 236.54 363.76 236.58 363.83 236.73C363.9 236.88 363.98 237.05 364.06 237.19C364.24 237.57 364.4 237.88 364.52 238.12C364.64 238.36 364.65 238.38 364.7 238.46L364.62 238.63L364.39 239.11C364.08 239.75 363.59 240.73 362.91 241.97L362.66 242.42L362.41 242.88C358.62 249.64 350.3 262.44 337.18 272.07C332.881 275.176 328.262 277.811 323.4 279.93C323.405 279.843 323.405 279.757 323.4 279.67L318.69 234.8C318.69 234.63 318.69 234.46 318.64 234.29L318.58 233.79L317.5 223.43C316.75 216.3 315.74 208.59 310.73 203.43C308.29 200.95 305.14 199.33 302.02 197.8C300.72 197.17 299.23 196.33 297.64 195.46C297.67 195.14 297.76 194.78 297.85 194.4ZM426.69 153.4C426.844 153.456 426.984 153.544 427.101 153.657C427.218 153.771 427.31 153.908 427.37 154.06C427.52 154.356 427.608 154.679 427.63 155.01C426.194 155.919 424.833 156.943 423.56 158.07C423.901 156.915 424.322 155.786 424.82 154.69C425.106 154.207 425.5 153.797 425.97 153.49C426.076 153.423 426.196 153.381 426.32 153.365C426.445 153.35 426.571 153.362 426.69 153.4ZM422.36 160.66L422.64 160.35L423.01 159.98C424.295 158.678 425.705 157.505 427.22 156.48L428.22 155.81L428.51 155.63L428.86 155.41C435.79 151.2 445.17 149.92 448.1 151.1C448.51 151.27 448.76 151.47 448.81 151.68C448.843 151.77 448.856 151.865 448.848 151.961C448.839 152.056 448.809 152.148 448.76 152.23C448.33 152.9 446.45 153.23 444.76 153.51C444.03 153.64 443.27 153.77 442.57 153.93C439.677 154.616 436.884 155.672 434.26 157.07C434.157 157.133 434.08 157.23 434.044 157.345C434.007 157.46 434.013 157.584 434.06 157.694C434.108 157.805 434.193 157.895 434.302 157.947C434.41 158 434.534 158.011 434.65 157.98C435.968 157.601 437.329 157.396 438.7 157.37C440.282 157.455 441.807 157.986 443.1 158.9L443.53 159.15C441.472 158.569 439.3 158.525 437.22 159.02L437.45 160.02C440.1 159.37 443.85 159.68 446.29 161.73C445.751 161.64 445.206 161.593 444.66 161.59C443.13 161.59 441.66 161.59 440.56 162.59L441.19 163.36C442.222 162.726 443.44 162.468 444.64 162.63C445.79 162.63 447.17 162.78 447.64 163.63C447.878 164.106 448.011 164.628 448.03 165.16C448.03 166.99 447.25 167.54 445.78 168.54C444.925 169.085 444.122 169.708 443.38 170.4C442.75 170.99 442.21 171.22 441.95 170.99C441.82 170.816 441.731 170.616 441.687 170.403C441.644 170.19 441.648 169.971 441.7 169.76H441.76C441.827 169.46 441.918 169.166 442.03 168.88L442.11 168.75C442.17 168.665 442.204 168.564 442.21 168.46C442.721 167.37 443.56 166.468 444.61 165.88L444.13 165.01C442.849 165.729 441.832 166.84 441.23 168.18C441.2 168.212 441.176 168.249 441.16 168.29C439.959 170.46 438.606 172.542 437.11 174.52C435.93 176.09 433.87 178.4 432.84 179.52L419.29 164.4C420.34 163 421.32 161.8 422.36 160.69V160.66ZM358.9 213.1L359.1 213.35C365.86 221.99 371.92 229.73 379.64 232.21C374.4 233.49 369.57 234.71 365.53 235.75L358.9 213.1ZM444.34 317.1L443.81 315.88L420.39 261.94L417.26 254.73L417.01 254.68C400.5 250.92 378.95 245.9 363.89 242.21C364.66 240.79 365.17 239.74 365.45 239.16C365.59 238.88 365.66 238.71 365.68 238.66L365.78 238.44L365.66 238.22L365.03 236.99C365.69 237.48 366.03 237.73 366.03 237.73L365.76 236.79C370.26 235.63 375.76 234.25 381.71 232.79C383.611 233.144 385.557 233.181 387.47 232.9C389.946 232.415 392.285 231.391 394.32 229.9C411.47 226.05 428.97 222.79 435.25 223.83L435.85 223.93C443.78 225.31 452.6 228 458.75 236.93C475.69 261.41 495.13 307.34 500.03 319.19C500.41 320.09 500.7 320.8 500.9 321.28H499.58C497.794 321.371 496.018 321.608 494.27 321.99C493.8 322.09 493.27 322.2 492.8 322.33C492.57 322.33 492.35 322.43 492.11 322.5H492.02L491.19 322.73C487.05 323.942 483.033 325.539 479.19 327.5C472.755 330.855 466.965 335.324 462.09 340.7C460.298 342.631 458.628 344.671 457.09 346.81L456.69 345.89L444.88 318.4L444.34 317.1ZM467.89 348.66C472.179 342.518 477.768 337.397 484.26 333.66C491.99 329.23 499.44 325.45 501.98 324.19L502.14 324.4C503.43 326.09 504.79 327.8 505.8 328.96C507.8 331.28 510.1 330.96 513.26 330.56C514.95 330.312 516.653 330.162 518.36 330.11C528.64 329.9 531.19 334.44 531.72 335.75L531.48 335.9C527.73 335.79 520.13 338.32 514.03 341.98C503.56 348.26 484.09 358.71 480.56 361.8C479.218 362.974 478.141 364.419 477.4 366.04L467.9 348.64L467.89 348.66ZM326.82 365.5L358.01 385.96C355.15 386.18 346.66 386.61 322.91 386.74C299.16 386.87 290.91 386.47 288.32 386.25L320.32 364.62V311.12C322.32 311.387 324.35 311.597 326.41 311.75L326.82 365.5Z" fill="#2B266D"/>
</g>
<defs>
<clipPath id="clip0_3820_6806">
<rect width="800" height="400" fill="white"/>
</clipPath>
</defs>
</svg>
